<svg width="30" height="20" viewBox="0 0 30 20" fill="none" xmlns="http://www.w3.org/2000/svg">
<path d="M28.38 7.94L24.18 6.68C24 6.62 23.82 6.62 23.64 6.56L19.92 1.82C19.32 1.04 18 0.380005 16.98 0.380005H8.45999C7.43999 0.380005 6.23999 1.1 5.75999 2.06L3.53999 6.38H2.21999C1.49999 6.38 0.899988 6.98 0.899988 7.7V11.18C0.899988 11.3 0.899988 11.42 0.839988 11.48C0.479988 11.66 0.299988 12.08 0.299988 12.74V13.88C0.299988 14.6 0.899988 15.2 1.61999 15.2H2.39999C2.69999 15.2 2.93999 14.96 2.93999 14.66C2.93999 14.36 2.69999 14.12 2.39999 14.12H1.61999C1.49999 14.12 1.37999 14 1.37999 13.88V12.74C1.37999 12.62 1.37999 12.5 1.43999 12.44C1.79999 12.26 1.97999 11.84 1.97999 11.18V7.7C1.97999 7.58 2.09999 7.46 2.21999 7.46H22.5C22.86 7.46 23.52 7.58 23.82 7.64L28.02 8.9C28.2 8.96 28.38 9.2 28.38 9.38V13.82C28.38 13.94 28.32 14 28.32 14.06H27.78C27.48 14.06 27.24 14.3 27.24 14.6C27.24 14.9 27.48 15.14 27.78 15.14H28.38C28.98 15.14 29.52 14.54 29.52 13.82V9.38C29.46 8.78 28.98 8.12 28.38 7.94ZM11.52 6.38H4.73999L6.71999 2.54C7.01999 1.94 7.79999 1.46 8.45999 1.46H11.52V6.38ZM12.6 6.38V1.46H16.98C17.64 1.46 18.6 1.94 19.02 2.48L22.14 6.44H12.6V6.38ZM22.8 11.9C21.3 11.9 19.98 12.8 19.38 14.06H10.98C10.38 12.8 9.05999 11.9 7.55999 11.9C5.51999 11.9 3.83999 13.58 3.83999 15.62C3.83999 17.66 5.51999 19.34 7.55999 19.34C9.59999 19.34 11.28 17.66 11.28 15.62C11.28 15.44 11.28 15.32 11.22 15.14H18.96C18.96 15.32 18.9 15.44 18.9 15.62C18.9 17.66 20.58 19.34 22.62 19.34C24.66 19.34 26.34 17.66 26.34 15.62C26.52 13.58 24.84 11.9 22.8 11.9ZM7.61999 18.32C6.17999 18.32 4.97999 17.12 4.97999 15.68C4.97999 14.24 6.17999 13.04 7.61999 13.04C9.05999 13.04 10.26 14.24 10.26 15.68C10.26 17.12 9.05999 18.32 7.61999 18.32ZM22.8 18.32C21.36 18.32 20.16 17.12 20.16 15.68C20.16 14.24 21.36 13.04 22.8 13.04C24.24 13.04 25.44 14.24 25.44 15.68C25.44 17.12 24.24 18.32 22.8 18.32Z" fill="#D9D9D9"/>
</svg>
