<svg width="14" height="12" viewBox="0 0 14 12" fill="none" xmlns="http://www.w3.org/2000/svg">
<path d="M11.8572 1.03618C12.0829 0.821305 12.3833 0.702511 12.6949 0.704868C13.0065 0.707226 13.305 0.830552 13.5275 1.04882C13.7499 1.26709 13.8788 1.56324 13.8871 1.87476C13.8953 2.18629 13.7822 2.48883 13.5716 2.71855L7.17863 10.7138C7.0687 10.8322 6.93603 10.9272 6.78853 10.9932C6.64104 11.0591 6.48177 11.0947 6.32023 11.0976C6.15869 11.1006 5.99821 11.071 5.84837 11.0106C5.69854 10.9501 5.56244 10.8601 5.4482 10.7458L1.20864 6.50627C1.09058 6.39626 0.995881 6.26359 0.930202 6.11618C0.864523 5.96878 0.829206 5.80965 0.826359 5.6483C0.823512 5.48695 0.853194 5.32668 0.913632 5.17705C0.974071 5.02741 1.06403 4.89149 1.17814 4.77738C1.29225 4.66327 1.42817 4.57331 1.57781 4.51287C1.72744 4.45243 1.88771 4.42275 2.04906 4.4256C2.21041 4.42845 2.36954 4.46376 2.51694 4.52944C2.66435 4.59512 2.79702 4.68982 2.90703 4.80788L6.26214 8.1614L11.8268 1.07143C11.8368 1.0591 11.8475 1.04733 11.8588 1.03618H11.8572Z" fill="white"/>
</svg>
