<svg width="24" height="16" viewBox="0 0 24 16" fill="none" xmlns="http://www.w3.org/2000/svg">
<rect width="24" height="16" rx="2" fill="white"/>
<path d="M14.8253 4.87646C13.4999 4.87646 12.3154 5.56345 12.3154 6.8327C12.3154 8.2883 14.4161 8.38883 14.4161 9.12008C14.4161 9.42798 14.0632 9.7036 13.4606 9.7036C12.6053 9.7036 11.966 9.31848 11.966 9.31848L11.6925 10.5993C11.6925 10.5993 12.4289 10.9246 13.4066 10.9246C14.8557 10.9246 15.996 10.2039 15.996 8.91294C15.996 7.37484 13.8865 7.27729 13.8865 6.59857C13.8865 6.35737 14.1762 6.0931 14.7771 6.0931C15.4552 6.0931 16.0084 6.37318 16.0084 6.37318L16.276 5.13613C16.276 5.13613 15.6741 4.87646 14.8253 4.87646V4.87646ZM2.69909 4.96983L2.66699 5.15655C2.66699 5.15655 3.22459 5.2586 3.7268 5.46217C4.37344 5.6956 4.4195 5.83149 4.52841 6.25356L5.71513 10.8283H7.30594L9.75671 4.96983H8.16955L6.59478 8.95305L5.95219 5.57668C5.89325 5.19026 5.59475 4.96983 5.22936 4.96983H2.69909V4.96983ZM10.3949 4.96983L9.14985 10.8283H10.6633L11.904 4.96983H10.3949V4.96983ZM18.8362 4.96983C18.4713 4.96983 18.2779 5.16522 18.136 5.50666L15.9186 10.8283H17.5058L17.8129 9.94138H19.7465L19.9332 10.8283H21.3337L20.1119 4.96983H18.8362V4.96983ZM19.0426 6.55261L19.5131 8.75101H18.2527L19.0426 6.55261V6.55261Z" fill="#1434CB"/>
<rect x="0.5" y="0.5" width="23" height="15" rx="1.5" stroke="black" stroke-opacity="0.2"/>
</svg>
