<svg width="14" height="16" viewBox="0 0 14 16" fill="none" xmlns="http://www.w3.org/2000/svg">
<path d="M4.57129 5.71436H5.71413V12.5714H4.57129V5.71436Z" fill="black"/>
<path d="M8 5.71436H9.14285V12.5714H8V5.71436Z" fill="black"/>
<path d="M0 2.28564V3.42849H1.14285V14.8569C1.14285 15.16 1.26325 15.4507 1.47758 15.6651C1.6919 15.8794 1.98259 15.9998 2.28569 15.9998H11.4285C11.7316 15.9998 12.0222 15.8794 12.2366 15.6651C12.4509 15.4507 12.5713 15.16 12.5713 14.8569V3.42849H13.7141V2.28564H0ZM2.28569 14.8569V3.42849H11.4285V14.8569H2.28569Z" fill="black"/>
<path d="M4.57129 0H9.14267V1.14285H4.57129V0Z" fill="black"/>
</svg>
