<svg width="17" height="21" viewBox="0 0 17 21" fill="none" xmlns="http://www.w3.org/2000/svg">
<path d="M7.75244 9.05176L8.74859 9.46646L6.26039 15.4434L5.26424 15.0287L7.75244 9.05176Z" fill="#D66464"/>
<path d="M10.7402 10.2954L11.7364 10.7101L9.24818 16.687L8.25203 16.2723L10.7402 10.2954Z" fill="#D66464"/>
<path d="M3.59473 5.13867L3.35931 6.1917L4.41233 6.42712L2.05813 16.9574C1.9957 17.2367 2.04676 17.5293 2.20009 17.771C2.35342 18.0126 2.59646 18.1834 2.87574 18.2458L11.3 20.1292C11.5792 20.1916 11.8719 20.1406 12.1135 19.9872C12.3551 19.8339 12.526 19.5909 12.5884 19.3116L14.9426 8.78132L15.9956 9.01674L16.2311 7.96371L3.59473 5.13867ZM3.11116 17.1928L5.46536 6.66254L13.8896 8.5459L11.5354 19.0762L3.11116 17.1928Z" fill="#D66464"/>
<path d="M9.25781 0.284668L13.7469 4.94974L12.9693 5.69791L8.4803 1.03284L9.25781 0.284668Z" fill="#D66464"/>
<path fill-rule="evenodd" clip-rule="evenodd" d="M5.07411 7.65386C5.10527 7.67395 5.1368 7.69353 5.16871 7.71258C5.47196 7.59749 5.97751 7.55413 6.54023 7.61424C7.10298 7.67435 7.58799 7.82354 7.86008 8.0001C7.90661 7.98441 7.95269 7.96767 7.99831 7.94992C8.15442 7.67206 8.44938 7.33526 8.83079 7.02267C9.08829 6.81162 9.34887 6.64137 9.58428 6.52272C9.4867 6.21501 9.45309 5.74108 9.509 5.21768C9.56915 4.65466 9.71845 4.16945 9.89513 3.89744C9.88883 3.87877 9.88236 3.86018 9.87572 3.84166C9.57158 3.74883 9.12934 3.39214 8.7303 2.8898C8.5466 2.65854 8.39503 2.42535 8.28283 2.21006C7.97992 2.27863 7.56529 2.297 7.11388 2.24877C6.57514 2.19123 6.10766 2.05204 5.83002 1.88536C5.66862 2.089 5.45441 2.30604 5.20247 2.51253C4.81876 2.82702 4.42821 3.05091 4.12431 3.14849C4.09734 3.1893 4.07125 3.23079 4.04609 3.27292C4.1614 3.57609 4.20489 4.08202 4.14473 4.64523C4.08458 5.20831 3.93526 5.69355 3.75855 5.96555C3.80402 6.1002 3.85818 6.23116 3.92042 6.3577C4.16806 6.52852 4.4482 6.79523 4.70979 7.12453C4.85144 7.30285 4.97399 7.48233 5.07411 7.65386Z" fill="#D66464"/>
</svg>
