<svg width="28" height="23" viewBox="0 0 28 23" fill="none" xmlns="http://www.w3.org/2000/svg">
<path d="M19.7664 1.53271C15.7164 1.53271 12.4207 4.80484 12.4207 8.8272C12.4207 13.6949 17.988 19.4882 19.6946 21.1474C19.7418 21.1928 19.7868 21.1935 19.8368 21.146C21.5412 19.4889 27.1092 13.699 27.1092 8.8272C27.1092 4.80484 23.815 1.53271 19.7664 1.53271ZM19.765 22.0591C19.5032 22.0591 19.2576 21.9605 19.0725 21.7815C16.8036 19.5749 11.5298 13.8983 11.5298 8.8272C11.5298 4.31682 15.2244 0.647551 19.7664 0.647551C24.3062 0.647551 28.0002 4.31682 28.0002 8.8272C28.0002 13.9018 22.7263 19.5763 20.4582 21.7801C20.2717 21.9605 20.0261 22.0591 19.765 22.0591Z" fill="#4A5055"/>
<path d="M19.8831 7.40783C19.1346 7.40783 18.5256 8.01666 18.5256 8.76487C18.5256 9.51378 19.1346 10.1226 19.8831 10.1226C20.6315 10.1226 21.2398 9.51378 21.2398 8.76487C21.2398 8.01666 20.6315 7.40783 19.8831 7.40783ZM19.8831 11.0005C18.6505 11.0005 17.6475 9.9971 17.6475 8.76487C17.6475 7.53265 18.6505 6.52995 19.8831 6.52995C21.1157 6.52995 22.118 7.53265 22.118 8.76487C22.118 9.9971 21.1157 11.0005 19.8831 11.0005Z" fill="#4A5055"/>
<path d="M20.0746 12.2302H18.768L17.2579 7.67718C17.077 7.13288 16.5652 6.76488 15.9879 6.76488H5.42434C4.84706 6.76488 4.33525 7.13288 4.15503 7.67718L2.64423 12.2302H1.3369C0.599102 12.2302 0 12.8249 0 13.5588V15.403C0 15.9822 0.378051 16.495 0.934213 16.6699L1.33549 16.7959V21.6714C1.33549 22.4053 1.9346 23 2.67239 23H5.83266C6.48527 23 7.04284 22.5313 7.15126 21.8911L7.30825 20.9606H14.104L14.261 21.8911C14.3687 22.5313 14.9263 23 15.5796 23H18.7391C19.4776 23 20.076 22.4053 20.076 21.6714V16.7987L20.4872 16.6664C21.0384 16.4887 21.4115 15.9787 21.4115 15.403V13.5588C21.4115 12.8249 20.8131 12.2302 20.0746 12.2302Z" fill="white"/>
<path d="M19.5834 15.0799L18.5615 15.4082C18.5615 15.4082 18.5615 15.4082 18.5608 15.4082L15.4964 16.36C15.3115 16.4177 15.1854 16.5871 15.1854 16.7794V18.1179C15.1854 18.3602 15.3836 18.5566 15.6288 18.5566H18.2547V21.1802H15.93L15.736 20.0354H16.353C16.5982 20.0354 16.7964 19.8389 16.7964 19.5959C16.7964 19.3529 16.5982 19.1565 16.353 19.1565H15.212H6.19969H5.058C4.81356 19.1565 4.61464 19.3529 4.61464 19.5959C4.61464 19.8389 4.81356 20.0354 5.058 20.0354H5.67578L5.48176 21.1802H3.15635V18.5566H5.78294C6.02739 18.5566 6.22631 18.3602 6.22631 18.1179V16.7794C6.22631 16.5878 6.10094 16.4184 5.91673 16.3607L2.84677 15.3971L1.82766 15.0771V14.0086H3.64736C3.83857 14.0086 4.00807 13.8871 4.06831 13.7073L5.77174 8.58521H15.64L17.3434 13.7073C17.4037 13.8871 17.5732 14.0086 17.7651 14.0086H19.5834V15.0799ZM18.2547 17.6784H16.0722V17.1022L18.2547 16.4246V17.6784ZM5.33957 17.1015V17.6784H3.15635V16.4156L5.33957 17.1015ZM20.0267 13.1297H18.0859L16.3824 8.0076C16.3222 7.82779 16.1527 7.7063 15.9608 7.7063H5.45094C5.25973 7.7063 5.08952 7.82779 5.02999 8.0076L3.32656 13.1297H1.38428C1.13984 13.1297 0.940918 13.3262 0.940918 13.5692V15.3992C0.940918 15.5908 1.0663 15.7609 1.25051 15.8178L2.26962 16.1379V18.1179V21.6196C2.26962 21.8626 2.46854 22.0591 2.71299 22.0591H5.85719C6.07362 22.0591 6.25853 21.9043 6.29425 21.6925L6.57442 20.0354H14.8366L15.1175 21.6925C15.1532 21.9043 15.3381 22.0591 15.5545 22.0591H18.698C18.9432 22.0591 19.1414 21.8626 19.1414 21.6196V18.1179V16.1455L20.1633 15.8171C20.3461 15.7581 20.4701 15.5894 20.4701 15.3992V13.5692C20.4701 13.3262 20.2719 13.1297 20.0267 13.1297Z" fill="#4A5055"/>
<path d="M6.45064 12.9508L7.2645 10.2252H14.1472L14.961 12.9508H6.45064ZM14.9069 9.66627C14.8514 9.4802 14.6778 9.3527 14.4803 9.3527H6.93137C6.73388 9.3527 6.56028 9.4802 6.50476 9.66627L5.42946 13.2643C5.3901 13.3967 5.4168 13.5393 5.50044 13.6489C5.58478 13.7585 5.7162 13.8232 5.85677 13.8232H15.5549C15.6955 13.8232 15.8269 13.7585 15.9112 13.6489C15.9949 13.5393 16.0209 13.3967 15.9822 13.2643L14.9069 9.66627Z" fill="#4A5055"/>
<path d="M13.46 17.6908H7.95223V17.2518H13.46V17.6908ZM13.9065 16.4122H7.50565C7.25873 16.4122 7.05908 16.5998 7.05908 16.832V18.1106C7.05908 18.3421 7.25873 18.5298 7.50565 18.5298H13.9065C14.1535 18.5298 14.3531 18.3421 14.3531 18.1106V16.832C14.3531 16.5998 14.1535 16.4122 13.9065 16.4122Z" fill="#4A5055"/>
</svg>
