<svg width="25" height="17" viewBox="0 0 25 17" fill="none" xmlns="http://www.w3.org/2000/svg">
<rect width="25" height="17" rx="2" fill="white"/>
<path d="M10.3721 4.54956H14.6281V12.3499H10.3721V4.54956Z" fill="#FF5F00"/>
<path d="M10.6424 8.44965C10.6424 6.86477 11.3721 5.45905 12.4935 4.54947C11.6693 3.88795 10.6289 3.48828 9.49397 3.48828C6.80521 3.48828 4.62988 5.70712 4.62988 8.44965C4.62988 11.1922 6.80521 13.411 9.49397 13.411C10.6289 13.411 11.6693 13.0114 12.4935 12.3498C11.3721 11.454 10.6424 10.0345 10.6424 8.44965Z" fill="#EB001B"/>
<path d="M20.3705 8.44965C20.3705 11.1922 18.1951 13.411 15.5064 13.411C14.3714 13.411 13.331 13.0114 12.5068 12.3498C13.6418 11.4403 14.3579 10.0345 14.3579 8.44965C14.3579 6.86477 13.6283 5.45905 12.5068 4.54947C13.331 3.88795 14.3714 3.48828 15.5064 3.48828C18.1951 3.48828 20.3705 5.7209 20.3705 8.44965Z" fill="#F79E1B"/>
<rect x="0.5" y="0.5" width="24" height="16" rx="1.5" stroke="black" stroke-opacity="0.2"/>
</svg>
