<svg width="44" height="41" viewBox="0 0 44 41" fill="none" xmlns="http://www.w3.org/2000/svg">
<path d="M16.0547 10.2654L18.2332 8.08598" stroke="#2978BE" stroke-width="1.5" stroke-miterlimit="10" stroke-linecap="round" stroke-linejoin="round"/>
<path d="M27.2313 21.4419L29.4098 19.2634" stroke="#2978BE" stroke-width="1.5" stroke-miterlimit="10" stroke-linecap="round" stroke-linejoin="round"/>
<path d="M20.7172 10.57L17.2963 13.9909L23.5058 20.2004L26.9647 16.7406" stroke="#2978BE" stroke-width="1.5" stroke-miterlimit="10" stroke-linecap="round" stroke-linejoin="round"/>
<path d="M30.3356 13.3699L32.1984 11.5071L25.9889 5.2985L24.1261 7.16035" stroke="#2978BE" stroke-width="1.5" stroke-miterlimit="10" stroke-linecap="round" stroke-linejoin="round"/>
<path d="M24.7473 18.9588L27.2313 21.4419C26.5453 22.128 26.5453 23.2399 27.2313 23.9259C27.9164 24.6119 29.0293 24.6119 29.7144 23.9259L35.9239 17.7164C36.61 17.0313 36.61 15.9184 35.9239 15.2324C35.2379 14.5463 34.1269 14.5463 33.4409 15.2324L30.9569 12.7493" stroke="#2978BE" stroke-width="1.5" stroke-miterlimit="10" stroke-linecap="round" stroke-linejoin="round"/>
<path d="M18.5378 12.7495L16.0547 10.2655C15.3686 10.9516 14.2567 10.9516 13.5707 10.2655C12.8846 9.57949 12.8846 8.46756 13.5707 7.78152L19.7793 1.57198C20.4653 0.886866 21.5773 0.886866 22.2642 1.57198C22.9493 2.25894 22.9493 3.36995 22.2642 4.05599L24.7473 6.53999" stroke="#2978BE" stroke-width="1.5" stroke-miterlimit="10" stroke-linecap="round" stroke-linejoin="round"/>
<path d="M16.8296 17.3137C16.2926 17.8507 16.7213 18.5404 16.7213 18.5404C16.7213 18.5404 4.34387 29.4272 1.80988 31.9612C0.967376 32.8037 0.531309 34.4814 1.77285 35.7238C3.01531 36.9654 4.69291 36.5293 5.53542 35.6858C8.06941 33.1528 18.9562 20.7754 18.9562 20.7754C18.9562 20.7754 19.6451 21.204 20.183 20.6671" stroke="#2978BE" stroke-width="1.5" stroke-miterlimit="10" stroke-linecap="round" stroke-linejoin="round"/>
<path d="M37.908 35.1841V32.4066C37.908 31.8955 37.4932 31.4808 36.9822 31.4808H24.0206C23.5095 31.4808 23.0947 31.8955 23.0947 32.4066V35.1841H22.1689C21.1468 35.1841 20.3173 36.0136 20.3173 37.0357V39.8132H40.6855V37.0357C40.6855 36.0136 39.856 35.1841 38.8338 35.1841H37.908Z" stroke="#2978BE" stroke-width="1.5" stroke-miterlimit="10" stroke-linecap="round" stroke-linejoin="round"/>
<path d="M22.6317 35.1841H29.1125" stroke="#2978BE" stroke-width="1.5" stroke-miterlimit="10" stroke-linecap="round" stroke-linejoin="round"/>
<path d="M37.908 35.1841H35.5934" stroke="#2978BE" stroke-width="1.5" stroke-miterlimit="10" stroke-linecap="round" stroke-linejoin="round"/>
<path d="M43 24.0742H40.2225" stroke="#2978BE" stroke-width="1.5" stroke-miterlimit="10" stroke-linecap="round" stroke-linejoin="round"/>
<path d="M41.6112 19.445L38.8337 21.2966" stroke="#2978BE" stroke-width="1.5" stroke-miterlimit="10" stroke-linecap="round" stroke-linejoin="round"/>
<path d="M41.6112 28.7031L38.8337 26.8515" stroke="#2978BE" stroke-width="1.5" stroke-miterlimit="10" stroke-linecap="round" stroke-linejoin="round"/>
</svg>
