<svg width="18" height="18" viewBox="0 0 18 18" fill="none" xmlns="http://www.w3.org/2000/svg">
<path fill-rule="evenodd" clip-rule="evenodd" d="M0 9.00466C0 4.04139 4.04139 0 9.00466 0C13.9586 0 18 4.0507 18 9.00466C18 13.9586 13.9679 18 9.00466 18C4.04139 18 0 13.9679 0 9.00466ZM1.39679 9.00466C1.39679 13.195 4.81428 16.6032 9.00466 16.6032C13.195 16.6032 16.6032 13.2043 16.6032 9.00466C16.6032 4.80497 13.2043 1.39679 9.00466 1.39679C4.80497 1.39679 1.39679 4.81428 1.39679 9.00466ZM11.4537 5.59653C11.7145 5.33579 12.1428 5.33579 12.4036 5.59653C12.6643 5.85726 12.6643 6.28561 12.4036 6.54635L9.9452 9.0047L12.4036 11.4631C12.6643 11.7238 12.6643 12.1521 12.4036 12.4129C12.2732 12.5339 12.1056 12.6084 11.9286 12.6084C11.7517 12.6084 11.5841 12.5432 11.4537 12.4129L8.99538 9.95452L6.53703 12.4129C6.2856 12.6643 5.83863 12.6643 5.58721 12.4129C5.32647 12.1521 5.32647 11.7238 5.58721 11.4631L8.04556 9.0047L5.58721 6.54635C5.32647 6.28561 5.32647 5.85726 5.58721 5.59653C5.84794 5.33579 6.27629 5.33579 6.53703 5.59653L8.99538 8.05488L11.4537 5.59653Z" fill="white"/>
</svg>
