<svg width="37" height="40" viewBox="0 0 37 40" fill="none" xmlns="http://www.w3.org/2000/svg">
<path d="M6.69763 10.8217C6.69763 11.6309 7.30484 12.2869 8.0545 12.2869H9.41054C10.1602 12.2869 10.7674 11.6309 10.7674 10.8217V10.4122C10.7674 9.78233 10.3938 9.22249 9.83949 9.02275L7.62554 8.2254C7.07124 8.02566 6.69763 7.46582 6.69763 6.8359V6.4264C6.69763 5.61725 7.30484 4.96128 8.0545 4.96128H9.41054C10.1602 4.96128 10.7674 5.61725 10.7674 6.4264" stroke="#2978BE" stroke-width="1.5" stroke-miterlimit="10" stroke-linecap="round" stroke-linejoin="round"/>
<path d="M21.3489 4.96128V12.2869H23.7907" stroke="#2978BE" stroke-width="1.5" stroke-miterlimit="10" stroke-linecap="round" stroke-linejoin="round"/>
<path d="M16.4652 12.2869H15.6512C14.7526 12.2869 14.0233 11.5575 14.0233 10.659V6.58919C14.0233 5.69067 14.7526 4.96128 15.6512 4.96128H16.4652C17.3638 4.96128 18.0931 5.69067 18.0931 6.58919V10.659C18.0931 11.5575 17.3638 12.2869 16.4652 12.2869Z" stroke="#2978BE" stroke-width="1.5" stroke-miterlimit="10" stroke-linecap="round" stroke-linejoin="round"/>
<path d="M28.3488 12.2869H26.2325V4.96128H28.3488C29.4273 4.96128 30.3023 5.89831 30.3023 7.05404V10.1941C30.3023 11.3498 29.4273 12.2869 28.3488 12.2869Z" stroke="#2978BE" stroke-width="1.5" stroke-miterlimit="10" stroke-linecap="round" stroke-linejoin="round"/>
<path d="M22.9767 16.3565H27.8605V21.2402L33.0494 16.3565H34.3721C35.2707 16.3565 36 15.6271 36 14.7286V2.5193C36 1.62078 35.2707 0.891397 34.3721 0.891397H2.62791C1.7293 0.891397 1 1.62078 1 2.5193V14.7286C1 15.6271 1.7293 16.3565 2.62791 16.3565H12.5484" stroke="#2978BE" stroke-width="1.5" stroke-miterlimit="10" stroke-linecap="round" stroke-linejoin="round"/>
<path d="M25.7525 23.941L25.177 23.3654H24.0261L23.2821 22.6215L23.8576 22.0459L20.5432 18.7316L19.9677 19.3071L19.2237 18.5631V17.4122L18.6483 16.8366C18.3308 16.5193 17.8148 16.5193 17.4974 16.8366L14.0437 20.2902C13.7263 20.6078 13.7263 21.123 14.0437 21.4412L14.6192 22.0167H15.7701L16.5149 22.7607L15.9394 23.3362L19.253 26.6499L19.8285 26.0744L20.5725 26.819V27.97L21.1479 28.5455C21.4662 28.8628 21.9814 28.8628 22.2989 28.5455L25.7525 25.0919C26.0699 24.7746 26.0699 24.2582 25.7525 23.941V23.941Z" stroke="#2978BE" stroke-width="1.5" stroke-miterlimit="10" stroke-linecap="round" stroke-linejoin="round"/>
<path d="M16.5149 22.7607L17.7358 21.5398" stroke="#2978BE" stroke-width="1.5" stroke-miterlimit="10" stroke-linecap="round" stroke-linejoin="round"/>
<path d="M19.8284 26.0745L21.0493 24.8535" stroke="#2978BE" stroke-width="1.5" stroke-miterlimit="10" stroke-linecap="round" stroke-linejoin="round"/>
<path d="M16.8144 24.2828L6.77347 32.7568C5.86998 33.5895 5.84149 35.0076 6.70998 35.8759C7.57928 36.7451 8.99637 36.7169 9.82904 35.8126L18.3381 25.7358" stroke="#2978BE" stroke-width="1.5" stroke-miterlimit="10" stroke-linecap="round" stroke-linejoin="round"/>
<path d="M31.1164 38.3333V35.8914C31.1164 35.4421 30.7517 35.0774 30.3024 35.0774H29.4885V33.4495H18.9071V35.0774H18.0931C17.6438 35.0774 17.2792 35.4421 17.2792 35.8914V38.3333H31.1164Z" stroke="#2978BE" stroke-width="1.5" stroke-miterlimit="10" stroke-linecap="round" stroke-linejoin="round"/>
</svg>
