<svg width="38" height="38" viewBox="0 0 38 38" fill="none" xmlns="http://www.w3.org/2000/svg">
<path d="M12.1682 29.436C5.7716 27.9688 1 22.2416 1 15.4C1 7.44725 7.4472 1.00006 15.4 1.00006C23.3528 1.00006 29.8 7.44725 29.8 15.4C29.8 15.668 29.7925 15.9336 29.7781 16.1984" stroke="#2978BE" stroke-width="1.5" stroke-miterlimit="10" stroke-linecap="round" stroke-linejoin="round"/>
<path d="M11.4001 19.4001L15.4001 15.4001V5.80015" stroke="#2978BE" stroke-width="1.5" stroke-miterlimit="10" stroke-linecap="round" stroke-linejoin="round"/>
<path d="M32.928 23.6545L32.362 23.0889H31.2308L30.4989 22.3577L31.0651 21.7921L27.808 18.5345L27.2423 19.1001L26.5111 18.3689V17.2377L25.9454 16.6721C25.6329 16.3601 25.1264 16.3601 24.8139 16.6721L21.4202 20.0665C21.1077 20.3785 21.1077 20.8849 21.4202 21.1977L21.9857 21.7633H23.117L23.8482 22.4945L23.2826 23.0601L26.5395 26.3169L27.1051 25.7513L27.8367 26.4833V27.6145L28.402 28.1801C28.7149 28.4921 29.2211 28.4921 29.5336 28.1801L32.928 24.7857C33.2401 24.4737 33.2401 23.9665 32.928 23.6545V23.6545Z" stroke="#2978BE" stroke-width="1.5" stroke-miterlimit="10" stroke-linecap="round" stroke-linejoin="round"/>
<path d="M23.8484 22.4946L25.0484 21.2946" stroke="#2978BE" stroke-width="1.5" stroke-miterlimit="10" stroke-linecap="round" stroke-linejoin="round"/>
<path d="M27.1052 25.751L28.3052 24.551" stroke="#2978BE" stroke-width="1.5" stroke-miterlimit="10" stroke-linecap="round" stroke-linejoin="round"/>
<path d="M24.1429 23.9905L14.2745 32.3193C13.3864 33.1377 13.3583 34.5313 14.2117 35.3849C15.0661 36.2393 16.4592 36.2113 17.278 35.3225L25.6411 25.4185" stroke="#2978BE" stroke-width="1.5" stroke-miterlimit="10" stroke-linecap="round" stroke-linejoin="round"/>
<path d="M37 37V34.6C37 34.1584 36.6419 33.8 36.2 33.8H35.4V32.2H25V33.8H24.2C23.7582 33.8 23.4 34.1584 23.4 34.6V37H37Z" stroke="#2978BE" stroke-width="1.5" stroke-miterlimit="10" stroke-linecap="round" stroke-linejoin="round"/>
</svg>
