<svg width="74" height="80" xmlns="http://www.w3.org/2000/svg"><g id="Page-1" stroke="none" stroke-width="1" fill="none" fill-rule="evenodd"><g id="icon_stone_spa" fill="#FFF" fill-rule="nonzero"><path d="M71.41 61.595c-6.19-8.81-15.658-12.06-23.393-13.336 6.863-1.788 10.725-4.917 11.21-9.224a4.976 4.976 0 00-1.19-3.87c-2.45-3.021-8.2-4.635-14.72-5.725 8.286-.753 14.41-4.46 14.41-9.061 0-3.042-2.703-5.692-6.93-7.36 2.693-1.341 4.414-3.467 4.414-5.735C55.178 3.27 49.165 0 41.474 0S27.747 3.271 27.747 7.327c0 2.007 1.479 3.74 4.138 4.972-5.517 1.527-9.192 4.558-9.192 8.124 0 3.074 2.748 5.746 7.04 7.414a28.536 28.536 0 00-20.292 6.542c-3.111 2.639-2.957 5.125-2.284 6.75 1.655 3.947 8.574 7.12 16.552 8.134a41.814 41.814 0 00-11.884 6.073 29.482 29.482 0 00-9.777-5.899 3.982 3.982 0 00-.695-.24 1.105 1.105 0 00-1.324.763 1.09 1.09 0 00.74 1.287l.308.11c.651.348.63 1.493.287 4.273-.342 2.78-.794 6.324.85 9.421 2.803 5.528 5.738 6.16 9.136 6.913a27.934 27.934 0 00-7.481 6.259 1.081 1.081 0 00.166 1.537c.2.151.443.235.695.24.334.001.65-.147.86-.403a25.877 25.877 0 017.393-6.02l.927.688c3.178 2.388 6.025 4.525 11.189 4.525a26.435 26.435 0 006.014-.785 14.464 14.464 0 002.405-.796c2.086 0 3.31-.077 5.517-.218 2.737-.186 5.595-.306 8.353-.426 12.59-.556 23.47-1.09 26.063-6.204 1.159-2.279.486-5.168-2.041-8.766zM35.58 11.263c-3.475-.86-5.627-2.366-5.627-3.936 0-2.431 4.723-5.146 11.52-5.146S52.97 4.896 52.97 7.327c0 1.963-2.383 3.915-5.682 4.667a32.244 32.244 0 00-7.106-.763 34.77 34.77 0 00-4.193.261 1.107 1.107 0 00-.409-.229zm-10.68 9.16c0-3.795 7.006-7.012 15.304-7.012s15.315 3.217 15.315 7.012c0 3.794-6.962 7.021-15.315 7.021S24.9 24.228 24.9 20.423zm7.105 26.866c-10.813.818-21.13-3.107-22.774-7.033-.221-.512-.872-2.093 1.677-4.252a26.912 26.912 0 0118.493-6.019c.806.153 2.207.294 3.973.469 6.355.632 19.596 1.94 22.907 6.073a2.91 2.91 0 01.706 2.268c-.629 5.55-8.938 7.687-15.801 8.494a.966.966 0 00-.486.207l-2.394-.12-1.799-.087a25.19 25.19 0 00-4.05.098 1.048 1.048 0 00-.452-.098zM4.134 64.06c-1.291-2.497-.916-5.452-.585-8.145.18-1.125.262-2.263.243-3.402 3.156 1.516 7.878 4.361 9.511 8.723 1.026 2.682.695 5.626-.982 8.723l-.496-.11c-3.2-.719-5.319-1.155-7.691-5.79zm26.482 11.82c-8.298 1.94-11.255-.284-15.36-3.37l-.11-.076c10.052-4.874 22.069-5.583 22.2-5.594.61 0 1.104-.488 1.104-1.09 0-.299-.123-.585-.342-.791a1.111 1.111 0 00-.816-.3c-.673 0-12.138.71-22.278 5.452 2.206-4.645 5.318-7.741 9.445-9.202 7.558-2.66 16.728.621 21.715 2.933a23.773 23.773 0 00-4.69 4.274c-3.012 3.118-6.344 6.706-10.879 7.763h.011zm40.827-6.445c-2.02 4.024-13.241 4.514-24.187 4.994-2.77.12-5.639.251-8.408.425l-1.523.099a43.322 43.322 0 005.716-5.398c3.045-3.27 4.69-4.765 6.179-4.176l.54.316c.328.219.748.248 1.103.077.354-.171.59-.516.618-.905a1.087 1.087 0 00-.485-.982 5.533 5.533 0 00-.871-.501c-3.31-1.843-15.956-8.254-26.483-4.558a17.178 17.178 0 00-7.58 5.321 10.92 10.92 0 00-.717-3.729 12.84 12.84 0 00-2.03-3.49c8.915-6.541 18.868-7.763 23.06-7.468.497 0 1.104.065 1.855.098 6.786.284 22.686.96 31.348 13.28 2.02 2.857 2.648 5.07 1.887 6.597h-.022z" id="Shape"/><path d="M27.652 32.032c-2.775.677-11.907 3.163-12.615 6.738a2.927 2.927 0 001.426 3.008c.186.142.41.22.642.222a1.09 1.09 0 001.039-.766 1.122 1.122 0 00-.397-1.243c-.185-.145-.63-.51-.576-.777.293-1.477 5.92-3.786 10.993-5.018a1.09 1.09 0 00.676-.5 1.129 1.129 0 00-.362-1.533 1.07 1.07 0 00-.826-.131zm8.15-16.022c-.053 0-5.486 1.082-6.642 3.334a1.11 1.11 0 00-.014 1.124c.2.349.572.553.964.53a1.05 1.05 0 00.9-.637c.43-.833 3.72-2.002 5.086-2.165.575-.084.975-.631.894-1.223a1.091 1.091 0 00-.396-.74 1.029 1.029 0 00-.792-.223zm1.919-11.958a11.12 11.12 0 00-4.187 1.682c-.422.28-.625.84-.495 1.37.13.529.56.896 1.051.896.196 0 .388-.059.556-.17a8.991 8.991 0 013.424-1.377c.602-.108 1.012-.74.916-1.414-.096-.673-.663-1.131-1.265-1.023v.036z" id="Path"/></g></g></svg>