<svg width="79" height="44" xmlns="http://www.w3.org/2000/svg"><g id="Page-1" stroke="none" stroke-width="1" fill="none" fill-rule="evenodd"><g id="icon_mask" fill="#FFF" fill-rule="nonzero"><path d="M52.29 29c-.9 0-1.8-.075-2.688-.222-2.978-.486-4.828-3.277-6.451-5.74-1.344-2.02-2.613-3.934-4.043-3.934-1.43 0-2.473 1.85-3.613 3.849-1.43 2.495-3.054 5.286-6.086 5.825a16.968 16.968 0 01-10.526-1.713c-3.839-1.892-3.882-7.2-3.882-7.4-.02-4.647.256-9.29.828-13.903C16.807 1.026 24.915.095 25.839 0h27.215c1.075.095 9.15 1.057 10.096 5.699.58 4.626.864 9.283.85 13.944 0 .222 0 5.53-3.893 7.401A17.6 17.6 0 0152.29 29zM39.086 16.958c2.613 0 4.301 2.495 5.871 4.916 1.452 2.189 2.957 4.462 4.99 4.79a14.786 14.786 0 009.182-1.48c2.612-1.29 2.688-5.467 2.688-5.509.009-4.53-.26-9.056-.807-13.554-.537-2.632-6.15-3.763-8.064-3.954H26.001c-1.968.212-7.527 1.354-8.022 3.986a109.839 109.839 0 00-.806 13.522s.054 4.23 2.688 5.508a14.818 14.818 0 009.193 1.512c2-.328 3.29-2.58 4.549-4.768 1.397-2.453 2.838-4.969 5.483-4.969z" id="Shape"/><path d="M15.825 21l-3.972-.816A1.066 1.066 0 0111 19.109v-8.218a1.065 1.065 0 01.884-1.075L16.646 9 17 11.149l-3.889.666v6.392l3.12.644L15.825 21zm47.352 0l-.417-2.149 3.125-.644v-6.392L62 11.149 62.344 9l4.77.816c.514.08.892.54.886 1.075v8.207c.009.522-.347.976-.844 1.075L63.177 21zm-39.111-7a1.028 1.028 0 01-.74-1.78l3.926-3.926a1.028 1.028 0 111.439 1.47l-3.916 3.927a1.028 1.028 0 01-.709.308zm.1 5a1.136 1.136 0 01-.818-.33 1.139 1.139 0 010-1.64l8.686-8.695a1.153 1.153 0 011.631.006 1.156 1.156 0 01-.006 1.633l-8.674 8.696a1.136 1.136 0 01-.819.33zM5 44c-.552 0-1-.486-1-1.085V1.085C4 .485 4.448 0 5 0s1 .486 1 1.085v41.808c.005.292-.098.573-.286.782A.963.963 0 015 44z" id="Path"/><path d="M8.912 38H1.1C.492 38 0 37.552 0 37s.492-1 1.099-1H8.9c.607 0 1.099.448 1.099 1s-.492 1-1.099 1h.011zM74 44c-.552 0-1-.486-1-1.085V1.085C73 .485 73.448 0 74 0s1 .486 1 1.085v41.808c.005.292-.098.573-.286.782A.963.963 0 0174 44z" id="Path"/><path d="M77.901 38H70.1c-.608 0-1.1-.448-1.1-1s.492-1 1.099-1H77.9c.607 0 1.099.448 1.099 1s-.492 1-1.099 1z" id="Path"/></g></g></svg>