<svg width="79" height="45" xmlns="http://www.w3.org/2000/svg"><g id="Page-1" stroke="none" stroke-width="1" fill="none" fill-rule="evenodd"><g id="icon_bike" fill="#FFF" fill-rule="nonzero"><path d="M63.84 15.06a15.277 15.277 0 00-5.739 1.084l-6.9-12.998h-9.512c-.645 0-1.168.517-1.168 1.154a1.16 1.16 0 001.168 1.153h8.097L51.77 9.18H29.49l-2.58-3.824a22.688 22.688 0 003.577-.986 2.172 2.172 0 001.097-1.343c.088-.477-.768-.812-1.097-1.083a9.46 9.46 0 00-.987-.683A10.706 10.706 0 0022.512.178h-.329c-1.36.184-3.884.542-3.895 2.589 0 1.44 1.481 2.437 4.114 2.73a14.3 14.3 0 001.536.075h.45l3.039 4.506-4.114 7.29a15.34 15.34 0 00-15.368-.531C3.105 19.426.064 24.4 0 29.835.169 37.8 6.626 44.24 14.691 44.485c8.066.245 14.913-5.79 15.577-13.729l10.532-.184h.1a1 1 0 00.175 0h.11a.652.652 0 00.153-.065l.099-.065.131-.108.077-.087a.76.76 0 00.088-.108l11.541-18.263 2.809 5.286c-4.572 2.627-7.39 7.45-7.406 12.673-.08 6.072 3.563 11.59 9.222 13.968 5.659 2.379 12.212 1.147 16.59-3.119 4.377-4.265 5.71-10.719 3.376-16.336-2.335-5.618-7.876-9.287-14.026-9.287zM15.15 42.379c-4.538 0-8.732-2.39-11.001-6.271a12.405 12.405 0 010-12.543c2.269-3.881 6.463-6.272 11.002-6.272a13.144 13.144 0 017.065 2.047l-5.65 9.944a1.071 1.071 0 00-.016 1.125 1.1 1.1 0 001.003.532l10.434-.184c-.555 6.586-6.143 11.645-12.836 11.622zm12.837-13.81l-8.492.152 4.52-7.983a12.39 12.39 0 013.972 7.831zm2.26 0a14.596 14.596 0 00-5.113-9.749l3.5-6.184L38.749 28.46l-8.502.108zm10.542-1.18L30.916 11.42h19.989L40.789 27.387zm23.04 15.034a12.9 12.9 0 01-9.088-3.656 12.572 12.572 0 01-3.804-8.93c.015-4.394 2.364-8.456 6.188-10.702l5.178 9.748c.19.371.578.603.999.596.183-.002.363-.047.526-.13a1.09 1.09 0 00.565-.652c.09-.285.056-.594-.093-.854l-5.145-9.672a13.17 13.17 0 014.684-.867c7.016 0 12.704 5.616 12.704 12.543S70.855 42.39 63.84 42.39l-.01.033z" id="Shape"/></g></g></svg>