<svg width="69" height="79" xmlns="http://www.w3.org/2000/svg"><g id="Page-1" stroke="none" stroke-width="1" fill="none" fill-rule="evenodd"><g id="icon_anchor" transform="translate(0 -1)" fill="#FFF" fill-rule="nonzero"><path d="M68.8 57.39l-3.43-4.57L58.68 55a1.002 1.002 0 00.64 1.9l4.53-1.51C58.17 67.18 47.6 74.56 36 75l.16-17.05 6 2.35c.394.158.815.24 1.24.24a3.49 3.49 0 001.38-.29 3.38 3.38 0 001.81-1.9L51.77 45a3.43 3.43 0 00-2-4.43l-6.43-2.5c1.23-3.82.68-9.18-1.14-12.22l-.07-.1L50 25.6a4.502 4.502 0 109-.28 4.77 4.77 0 00-4.5-5 4.56 4.56 0 00-4.21 3.27l-9.9.24a4.29 4.29 0 00-3.73-.59l-.33.11.08-8.42A7.19 7.19 0 0042.92 8a7.27 7.27 0 00-7.5-7c-4-.13-7.353 3-7.5 7a7.19 7.19 0 006.49 6.93L34.32 24l-13.25.32a4.65 4.65 0 00-4.4-4 4.77 4.77 0 00-4.5 5 4.77 4.77 0 004.5 5 4.65 4.65 0 004.41-4l11-.27A11.4 11.4 0 0030 32.88l-.79-.31a3.43 3.43 0 00-4.43 2l-5.2 13.21a3.45 3.45 0 00.05 2.62 3.39 3.39 0 001.89 1.81l12.63 4.92L34 75c-11.6-.41-22.07-7.73-27.76-19.39l3.41 1.36a1 1 0 10.74-1.86l-5.71-2.32-4.46 5.58a1 1 0 00.16 1.4A1 1 0 001 60a1 1 0 00.78-.37l2.61-3.26C10.4 68.75 21.57 76.53 34 77v3h2v-3c12.36-.38 23.59-8.14 29.62-20.52l1.62 2.16a1 1 0 101.56-1.25zM54.5 22.32a2.79 2.79 0 012.5 3 2.79 2.79 0 01-2.5 3 2.79 2.79 0 01-2.5-3 2.79 2.79 0 012.5-3zm-37.83 6a2.79 2.79 0 01-2.5-3 2.79 2.79 0 012.5-3 2.79 2.79 0 012.5 3 2.79 2.79 0 01-2.5 3zM42 42.41a1 1 0 11-2 0 1 1 0 012 0zm-1.47-15.49c1.65 2.75 2 7.37 1 10.46l-5.3-2.06.09-9.39 3.39-.08a5 5 0 01.82 1.07zM29.92 8a5.27 5.27 0 015.5-5 5.27 5.27 0 015.5 5 5.27 5.27 0 01-5.5 5 5.27 5.27 0 01-5.5-5zm4.38 18.66l-.08 7.88-2.29-.89c.07-2.79.45-5.32 2.37-6.99zM32 38.5a1 1 0 11-2 0 1 1 0 012 0zM21.46 49.6a1.42 1.42 0 010-1.09l5.17-13.26c.129-.356.4-.643.75-.79a1.42 1.42 0 011.09 0l1.46.56v.71A3 3 0 1034 38.5a3 3 0 00-1.17-2.36l7.84 3.06-.18.27A3 3 0 1044 42.41 3 3 0 0042.75 40l6.34 2.47c.356.129.643.4.79.75a1.42 1.42 0 010 1.09l-5.14 13.27a1.47 1.47 0 01-.76.79 1.39 1.39 0 01-1.08 0l-20.65-8a1.49 1.49 0 01-.79-.77z" id="Shape"/></g></g></svg>