<svg width="72" height="77" xmlns="http://www.w3.org/2000/svg"><g id="Page-1" stroke="none" stroke-width="1" fill="none" fill-rule="evenodd"><g id="icon_umbrella" transform="translate(-1 -1)" fill="#FFF" fill-rule="nonzero"><path d="M9.79 42.05a.75.75 0 00-.51-.6L2 39a.78.78 0 00-.58 0 .77.77 0 00-.39.44.77.77 0 00.48 1l6.83 2.26 3.56 22.43a.76.76 0 00.76.64h.12a.77.77 0 00.5-.3.78.78 0 00.14-.57L9.79 42.05zm16.54 1.43a5 5 0 00-8.27 4.11v.37l1.53-.11v-.36a3.45 3.45 0 01.85-2.49 3.4 3.4 0 012.37-1.18 3.45 3.45 0 012.52.84 3.45 3.45 0 01-2 6 3.58 3.58 0 01-1.51-.23l-.34-.13-.56 1.42.34.13c.58.228 1.197.343 1.82.34h.36a5 5 0 004.64-5.31 4.92 4.92 0 00-1.75-3.4z" id="Path"/><path d="M22 48a1.73 1.73 0 00-1.4-.72H4.78a1.72 1.72 0 00-1.4.72 1.68 1.68 0 00-.22 1.55L11 71.72c.19 1-2.67 2.28-4.34 3.55a.83.83 0 00-.19 1 .89.89 0 00.83.54h10.9a.88.88 0 00.63-1.51c-.55-.55-4.6-2.38-4.36-3.46.24-1.08 7.82-22.23 7.82-22.23A1.71 1.71 0 0022 48zm-8.83 23.45a2.29 2.29 0 001.08 2.62c.47.31 2.09 1.32 2.48 1.56l-7.86-.13c.39-.24 1.52-.92 2-1.16a2.63 2.63 0 001.42-1.28 3.18 3.18 0 00-.1-1.76L4.87 49.08h15.66s-7.22 21.77-7.36 22.37z" id="Shape"/><path d="M73 38v-.19c-1.16-7.47-2.3-15.17-7-21.34C61.11 10 53.26 6.77 50 5.63l1.2-3.54a.72.72 0 000-.59 1 1 0 00-.74-.5 1.2 1.2 0 00-.75.07.86.86 0 00-.48.51L48.06 5H48l-.42-.12-.06-.1-.11.06a29.87 29.87 0 00-18.23 1.27A35.84 35.84 0 0012 20.68a1.46 1.46 0 00-.07 1.43c.17.38.526.646.94.7 6 .62 11.6 1.59 14.22 6.62.147.272.4.471.7.55.304.083.628.04.9-.12 3.47-2.14 7.8-2.52 13.24-1.18-3 11.49-5.68 23.11-8.22 34.36-.94 4.15-1.91 8.44-2.88 12.65a1.09 1.09 0 00.33 1.09c.222.208.516.322.82.32a1 1 0 00.34 0 1 1 0 00.73-.8c1-4.13 1.91-8.33 2.83-12.4l.06-.29c2.54-11.21 5.16-22.81 8.2-34.26 5.09 1.56 8.55 4.32 10.3 8.2.132.28.38.489.68.57.314.101.657.061.94-.11 4.62-3 9.79-1.13 14.69 1.28a2.37 2.37 0 001 .2c.298.01.592-.073.84-.24A1.2 1.2 0 0073 38zm-2.51-1.39a22.76 22.76 0 00-9.17-2.4 12 12 0 00-4.38.82c.88-5.31 1.55-12.51-.19-17.13a90.12 90.12 0 00-4.2-8.74c5.5 2.51 9.93 6 12.51 9.92 3.37 5.1 4.49 11.19 5.41 17.51l.02.02zM44.32 6.54c-3 1.75-6.83 4.15-8.63 6-3.28 3.4-6.43 10.23-7.84 13.88-3.16-3.95-8.4-5.12-13.16-5.71C21.6 10.27 33.17 4.73 44.32 6.54zM37.16 14c2.17-2.25 8.22-5.71 10.1-6.76l.23.06.36.1c.53.16 1.08.35 1.74.59a115.39 115.39 0 015.24 10.64c1.52 4 1 10.56.2 15.42a19.22 19.22 0 00-10.31-6.91 29.89 29.89 0 00-8.64-1.47 16.57 16.57 0 00-6.18 1.12c1.77-4.53 4.67-10.16 7.26-12.79z" id="Shape"/></g></g></svg>