<svg width="80" height="66" xmlns="http://www.w3.org/2000/svg"><g id="Page-1" stroke="none" stroke-width="1" fill="none" fill-rule="evenodd"><g id="icon_bus" fill="#FFF" fill-rule="nonzero"><path id="Rectangle" d="M53 27h2v13h-2zm-20 0h2v13h-2z"/><path d="M76.667 32.722c-3.422-9.23-11.234-8.766-12.222-8.63H7.1a6.48 6.48 0 00-4.878 1.133 5.635 5.635 0 00-1.856 4.53v21.403c-.233.985-1.11 5.527 1.112 7.927a4.792 4.792 0 004.6 1.246l-.367-2.265a2.717 2.717 0 01-2.645-.577c-1.266-1.382-.789-4.859-.51-5.968l.033-21.766a3.504 3.504 0 01.988-2.798 4.378 4.378 0 013.212-.634h57.877c.066 0 6.889-.906 9.855 7.214l2.356 6.41h-74.3v2.265H77.71l.078.204v13.872l-3.445 2.107c.073-.484.107-.972.1-1.461.291-3.412-1.33-6.699-4.19-8.496a8.746 8.746 0 00-9.33 0c-2.86 1.797-4.481 5.084-4.19 8.496.004.765.104 1.526.3 2.265H22.945c1.745-4.403-.14-9.432-4.322-11.526-4.181-2.093-9.24-.542-11.592 3.557-2.352 4.099-1.2 9.353 2.639 12.042 3.84 2.689 9.065 1.9 11.975-1.808h36.233v-.148c1.598 2.984 4.71 4.794 8.042 4.679 3.333-.115 6.317-2.136 7.713-5.222l.312.52L80 57.569V41.985l-3.333-9.263zM14.745 62.596c-3.682 0-6.667-3.042-6.667-6.795 0-3.752 2.985-6.795 6.667-6.795s6.667 3.043 6.667 6.795c0 3.753-2.985 6.795-6.667 6.795zm50.877 1.132c-3.682 0-6.666-3.042-6.666-6.794 0-3.753 2.984-6.795 6.666-6.795 3.682 0 6.667 3.042 6.667 6.795 0 3.752-2.985 6.794-6.667 6.794z" id="Shape"/><path id="Rectangle" d="M14 27h2v13h-2z"/><path d="M26.048 8.493l18.724-.931V24h2.184V7.562h-.917H47V0H30.942a1.213 1.213 0 00-1.134.757 1.22 1.22 0 00.282 1.336l1.824 1.798-6.336 2.345a1.229 1.229 0 00.47 2.257zm8.52-5.205l-1.267-1.206h11.47V5.37l-12.518.614 1.846-.68a1.23 1.23 0 00.426-2.016h.044z" id="Shape"/></g></g></svg>