<svg height="800" width="800" version="1.1" id="Capa_1" xmlns="http://www.w3.org/2000/svg" viewBox="0 0 56.208 56.208" xml:space="preserve"><g fill="#fff"><path d="M33.813 13.54l-.003-.029c-.076-.016-.139-.023-.211-.038a1.895 1.895 0 00-.41-.071c-1.695-.259-2.378.027-2.378.027l-2.367 4.868-.013.024.004-.025-.483-.046h.489l-.006.045.009.002v-.048h-.003l.486-4.107h1.145v-1.116h-1.541v.208h-.988v-.208H26.39v1.116h.964l.584 4.183s-2.327-5.082-2.536-5.001c0 0-.846-.981-4.031.618a1.856 1.856 0 00-.307.504c-.029.034-5.214 9.05-5.39 14.398-.034 1.016.469 1.684 1.155 2.023v1.016a.536.536 0 00-.121-.018.742.742 0 00-.74.74v2.603a.74.74 0 00.74.739.73.73 0 00.466-.169v3.993c0 .261.329.474.736.474.408 0 .737-.213.737-.474v-4.002a.73.73 0 00.474.178.74.74 0 00.741-.739v-2.602a.743.743 0 00-.741-.741.726.726 0 00-.369.103v-.955c.882-.268 1.622-.985 1.661-2.168a19.03 19.03 0 011.369-6.496l-.019 7.397h8.331l-.89-2.933h4.689v2.933h.213c.003-2.632.009-5.702.011-7.948.897 1.859 1.486 3.858 1.668 5.97.264 3.021 5.006 3.045 4.74 0-.449-5.18-6.422-14.104-6.712-14.228z"/><path d="M33.895 35.235h-2.132l-1.278-4.211H21.76l-.014 5.474v17.155c0 1.41 1.033 2.555 2.482 2.555 1.451 0 2.626-1.145 2.626-2.555V35.78s.085-.906 1.008-.916c.923-.012.899.871.899.871v17.869c0 1.412 1.176 2.555 2.627 2.555 1.449 0 2.625-1.143 2.625-2.555l.088-18.439.006-4.141h-.212v4.211z"/><path d="M33.361 34.583v-7.237h-3.297l2.197 7.237zM23.385 7.984a4.462 4.462 0 004.454 4.274 4.464 4.464 0 004.454-4.229c2.244-.397 3.681-1.99 3.75-2.067a1.097 1.097 0 00-1.639-1.46c-.012.013-1.041 1.12-2.54 1.368a4.49 4.49 0 00-.45-.744c.002-.007.006-.013.006-.02l-.547-4.78c0-.18-.194-.326-.436-.326h-5.325c-.242 0-.438.146-.438.326l-.435 4.78c0 .014.008.025.01.039a4.475 4.475 0 00-.417.687c-1.385-.301-2.328-1.301-2.354-1.329a1.097 1.097 0 00-1.637 1.458c.067.076 1.42 1.568 3.544 2.023z"/></g></svg>