<svg fill="#FFF" height="800" width="800" version="1.1" id="Layer_1" xmlns="http://www.w3.org/2000/svg" viewBox="0 0 64 64" xml:space="preserve"><g id="Smile-Eyelids_1_"><path d="M46.426 41.097a1.003 1.003 0 00-1.331.477C44.95 41.877 41.467 49 32 49c-9.45 0-12.939-7.097-13.095-7.424a1 1 0 00-1.811.848C17.258 42.774 21.227 51 32 51s14.742-8.227 14.906-8.576a1 1 0 00-.48-1.327z"/><path d="M32 0C14.327 0 0 14.327 0 32c0 17.673 14.327 32 32 32 17.673 0 32-14.327 32-32C64 14.327 49.673 0 32 0zm0 62C15.458 62 2 48.542 2 32S15.458 2 32 2s30 13.458 30 30-13.458 30-30 30z"/><path d="M29.5 25.825c0-4.322-3.582-7.825-8-7.825s-8 3.503-8 7.825c0 1.537.46 2.966 1.242 4.175h13.516a7.656 7.656 0 001.242-4.175zm-2.443 2.169H15.943a5.622 5.622 0 01-.437-2.169c0-3.208 2.69-5.819 5.994-5.819 3.305 0 5.994 2.61 5.994 5.82 0 .744-.15 1.48-.437 2.168zM43.5 18c-4.418 0-8 3.503-8 7.825 0 1.537.46 2.966 1.242 4.175h13.516a7.656 7.656 0 001.242-4.175c0-4.322-3.582-7.825-8-7.825zm5.557 9.994H37.943a5.622 5.622 0 01-.437-2.169c0-3.208 2.69-5.819 5.994-5.819 3.305 0 5.994 2.61 5.994 5.82 0 .744-.15 1.48-.437 2.168z"/></g></svg>