<svg height="800" width="800" version="1.1" id="Capa_1" xmlns="http://www.w3.org/2000/svg" viewBox="0 0 55.086 55.086" xml:space="preserve"><path d="M49.087 21.232H10.548a3.35 3.35 0 00-.344-1.209l37.819-7.843a2.836 2.836 0 001.808-1.229c.419-.638.565-1.4.409-2.148l-1.352-6.529A2.867 2.867 0 0045.51.059L5.421 8.372a2.833 2.833 0 00-1.809 1.231 2.833 2.833 0 00-.409 2.146l1.355 6.528c.061.291.73 6.062.73 6.062V52.23a2.86 2.86 0 002.857 2.856h40.941a2.86 2.86 0 002.857-2.856V24.089a2.857 2.857 0 00-2.856-2.857zm0 1.905c.525 0 .953.427.953.952v.203h-2.588l-3.977 9.413c-.184.35-.184.721-.004 1.021.182.3.512.472.906.472h5.662v4.755H7.193v-5.339L12.671 24l-3.163.002c.266-.249.482-.542.654-.864l38.925-.001zm.954 10.79h-5.283l3.537-8.366h1.746v8.366zM7.193 40.951h12.721v4.554H7.193v-4.554zm13.721 0h13.88v4.554h-13.88v-4.554zm14.88 0h14.247v4.554H35.794v-4.554zM7.193 31.844v-6.573l3.394-.002-3.394 6.575zM45.897 1.923a.955.955 0 011.126.738l1.354 6.528a.948.948 0 01-.74 1.125l-.339.07.097-.094-7.032-7.221 5.534-1.146zm-7.009 1.453l7.094 7.282-5.776 1.197-7.093-7.281 5.775-1.198zM31.64 4.88l7.092 7.281-5.346 1.108-7.092-7.281L31.64 4.88zm-6.82 1.414l7.093 7.281-5.89 1.222-6.959-7.31 5.756-1.193zM17.599 7.79l6.961 7.311-5.565 1.154-6.96-7.311 5.564-1.154zM5.113 10.827a.942.942 0 01.696-.591l4.762-.988 6.961 7.31-5.812 1.206-6.607-6.937zm.289 2.144l4.853 5.096-1.733.359a3.285 3.285 0 00-1.959-.208.939.939 0 01-.14-.329l-1.021-4.918zm43.685 40.211H8.146a.954.954 0 01-.953-.952v-5.725h42.848v5.725a.955.955 0 01-.954.952zM14.968 35.064h5.396c.579 0 1.211-.364 1.521-.903l4.998-10.159h-7.868l-4.903 9.559c-.206.345-.225.718-.051 1.023.175.306.505.48.907.48zm4.824-9.793h5.054l-4.078 8.291a.605.605 0 01-.402.233h-4.948l4.374-8.524zm9.46 9.926h5.871c.582 0 1.213-.369 1.521-.92l4.717-10.135h-8.112l-4.859 9.552c-.202.347-.218.719-.043 1.023.174.304.504.48.905.48zm4.775-9.785h5.343l-3.854 8.285a.592.592 0 01-.394.23h-5.429l4.334-8.515z" fill="#fff"/></svg>