<svg fill="#FFF" height="800" width="800" version="1.1" id="Layer_1" xmlns="http://www.w3.org/2000/svg" viewBox="0 0 512 512" xml:space="preserve"><path d="M247.876 153.375a8.817 8.817 0 00-4.411-5.428c-15.674-8.166-33.086-10.19-49.026-5.701-15.943 4.491-29.737 15.306-38.843 30.451a8.816 8.816 0 003.483 12.361c10.217 5.324 21.175 8.037 31.979 8.037 5.77 0 11.497-.773 17.045-2.336 15.943-4.491 29.737-15.306 38.843-30.451a8.812 8.812 0 00.93-6.933zm-44.552 20.413c-8.615 2.425-17.609 2.267-26.459-.41 6.149-6.903 13.74-11.732 22.355-14.16s17.608-2.269 26.459.41c-6.15 6.904-13.741 11.733-22.355 14.16zm-72.81-1.089c-9.106-15.146-22.9-25.96-38.843-30.451-15.939-4.489-33.351-2.465-49.026 5.701a8.817 8.817 0 00-3.481 12.361c9.106 15.147 22.901 25.961 38.843 30.451a62.799 62.799 0 0017.045 2.336c10.806 0 21.762-2.713 31.979-8.037a8.817 8.817 0 003.483-12.361zm-47.727 1.088c-8.614-2.425-16.205-7.255-22.355-14.16 8.85-2.679 17.845-2.838 26.459-.41 8.614 2.426 16.205 7.256 22.355 14.16-8.849 2.679-17.844 2.837-26.459.41z"/><path d="M337.409 229.533c-4.31-17.141-14.365-31.497-28.312-40.429a63.006 63.006 0 00-22.986-9.005V88.871c0-9.67-4.417-18.566-12.12-24.407-7.726-5.857-17.518-7.718-26.871-5.094a385.644 385.644 0 01-103.601 14.318h-.463A385.655 385.655 0 0138.981 59.367c-9.345-2.619-19.136-.763-26.86 5.093C4.419 70.301 0 79.198 0 88.87v142.574c0 89.713 60.673 162.699 135.251 162.699h15.607c73.873.001 134.091-71.612 135.226-160.156 9.384 5.024 20.007 7.616 31.026 7.616 4.413 0 8.89-.416 13.373-1.255a8.821 8.821 0 005.801-3.911 8.82 8.82 0 001.125-6.904zm-68.93-13.136v15.048c0 79.99-52.764 145.068-117.62 145.068h-15.607c-64.856 0-117.621-65.078-117.621-145.068V88.87c0-4.106 1.875-7.883 5.143-10.36a12.978 12.978 0 017.866-2.662c1.192 0 2.396.165 3.582.496 35.613 9.981 72.368 14.973 109.317 14.974a403.281 403.281 0 00108.338-14.972c3.992-1.117 8.168-.329 11.46 2.168 3.268 2.477 5.141 6.252 5.141 10.358v127.525zm22.946.304a45.658 45.658 0 01-5.314-4v-14.566a45.423 45.423 0 0113.478 5.818c7.537 4.825 13.395 11.655 17.272 20.047-9.246-.01-17.9-2.474-25.436-7.299z"/><path d="M189.192 283.652H96.919a8.815 8.815 0 00-8.816 8.816c0 28.666 23.321 51.987 51.987 51.987h5.933c28.666 0 51.987-23.321 51.987-51.987a8.818 8.818 0 00-8.818-8.816zm-43.17 43.17h-5.933c-15.896 0-29.306-10.853-33.208-25.539h72.348c-3.902 14.686-17.311 25.539-33.207 25.539zm7.612-86.074h-21.158c-4.869 0-8.816 3.947-8.816 8.816s3.946 8.816 8.816 8.816h21.158c4.87 0 8.816-3.947 8.816-8.816s-3.946-8.816-8.816-8.816zm299.042-2.06c-12.622-12.37-28.693-19.369-45.25-19.708-16.586-.334-32.9 6-46.017 17.845a8.82 8.82 0 00-.262 12.841c12.622 12.369 28.693 19.368 45.25 19.707.421.007.838.012 1.259.012 16.125 0 31.975-6.313 44.758-17.856a8.819 8.819 0 00.262-12.841zm-45.918 13.053c-8.948-.182-17.51-2.949-25.197-8.084 7.888-4.817 16.589-7.227 25.504-7.049 8.948.182 17.51 2.949 25.198 8.084-7.893 4.818-16.612 7.226-25.505 7.049z"/><path d="M506.154 169.242c-5.689-7.852-14.52-12.476-24.228-12.687a385.626 385.626 0 01-103.288-16.42 386.286 386.286 0 01-62.083-24.848 8.818 8.818 0 00-11.844 3.895 8.818 8.818 0 003.895 11.843 403.843 403.843 0 0064.925 25.986 403.277 403.277 0 00108.011 17.17c4.143.091 7.911 2.061 10.335 5.405a12.893 12.893 0 011.908 11.405l-41.449 136.416c-23.255 76.536-92.663 123.462-154.713 104.608l-14.932-4.537c-20.07-6.098-37.767-18.701-51.179-36.45a8.817 8.817 0 00-14.067 10.63c15.672 20.74 36.463 35.502 60.12 42.69l14.932 4.537a113.64 113.64 0 0033.117 4.907c61.268 0 121.506-48.567 143.592-121.261l41.449-136.416c2.811-9.25 1.171-19.046-4.501-26.873z"/><path d="M350.735 365.458c-6.539-12.249-17.459-21.219-30.744-25.256l-5.676-1.724c-13.29-4.038-27.351-2.657-39.599 3.883-12.249 6.54-21.219 17.46-25.255 30.746a8.815 8.815 0 005.871 10.997l88.287 26.825c4.596 1.393 9.602-1.279 10.998-5.873 4.038-13.285 2.659-27.349-3.882-39.598zm-11.51 25.708l-69.245-21.039c3.15-5.107 7.608-9.312 13.041-12.213 8.096-4.322 17.386-5.234 26.168-2.565l5.676 1.724c8.781 2.667 15.997 8.595 20.319 16.689 2.899 5.433 4.264 11.407 4.041 17.404zm.523-89.802l-20.245-6.151a8.814 8.814 0 00-10.998 5.873 8.816 8.816 0 005.871 10.998l20.245 6.151c.856.26 1.717.383 2.567.383a8.818 8.818 0 002.56-17.254z"/></svg>