<svg fill="#FFF" height="800" width="800" version="1.1" id="Capa_1" xmlns="http://www.w3.org/2000/svg" viewBox="0 0 470 470" xml:space="preserve"><path d="M20 105.122v30.073a7.5 7.5 0 007.5 7.5H30v42.5a7.5 7.5 0 007.5 7.5h395a7.5 7.5 0 007.5-7.5v-42.5h2.5a7.5 7.5 0 007.5-7.5v-60a7.5 7.5 0 00-15 0v20.917L242.5 59.004V35.196a7.5 7.5 0 00-15 0v23.808L35 96.112V75.196a7.5 7.5 0 00-15 0v29.926zm405 72.573H45v-35h380v35zM235 72.834l200 38.554v16.308H35v-16.308l200-38.554zm227.5 324.47H450v-22.5a7.5 7.5 0 00-7.5-7.5H420V222.695h2.5a7.5 7.5 0 000-15h-50a7.5 7.5 0 000 15h2.5v144.609h-36.25V222.695h2.5a7.5 7.5 0 000-15h-50a7.5 7.5 0 000 15h2.5v144.609H257.5V222.695h2.5a7.5 7.5 0 000-15h-50a7.5 7.5 0 000 15h2.5v144.609h-36.25V222.695h2.5a7.5 7.5 0 000-15h-50a7.5 7.5 0 000 15h2.5v144.609H95V222.695h2.5a7.5 7.5 0 000-15h-50a7.5 7.5 0 000 15H50v144.609H27.5a7.5 7.5 0 00-7.5 7.5v22.5H7.5a7.5 7.5 0 00-7.5 7.5v30a7.5 7.5 0 007.5 7.5h455a7.5 7.5 0 007.5-7.5v-30a7.5 7.5 0 00-7.5-7.5zM390 222.695h15v144.609h-15V222.695zm-81.25 0h15v144.609h-15V222.695zm-81.25 0h15v144.609h-15V222.695zm-81.25 0h15v144.609h-15V222.695zm-81.25 0h15v144.609H65V222.695zm390 204.609H15v-15h72.5a7.5 7.5 0 000-15H35v-15h400v15H117.5a7.5 7.5 0 000 15H455v15z"/></svg>