<svg height="800" width="800" version="1.1" id="_x32_" xmlns="http://www.w3.org/2000/svg" viewBox="0 0 512 512" xml:space="preserve"><style>.st0{fill:#fff}</style><path class="st0" d="M449.322 395.593c-6.546-9.856-14.909-17.41-23.893-23.243-13.508-8.756-28.425-13.766-41.783-17.425-13.315-3.609-25.33-5.982-32.092-8.548-8.205-3.052-16.881-7.005-22.936-11.257-3.022-2.108-5.353-4.282-6.704-6.132-1.365-1.894-1.736-3.202-1.75-4.346v-12.028c15.924-10.357 28.653-25.08 38.302-43.334 10.549-19.927 17.704-44.013 22.306-71.787h13.379v-29.161h-9.827c.336-5.117.514-10.249.514-15.381-.021-35.65-8.262-71.501-28.768-99.21-10.242-13.83-23.607-25.523-40.267-33.771-13.723-6.797-29.761-11.078-47.901-12.65V0h-31.219v7.462c-15.066 1.744-28.603 5.889-40.532 12.022-24.279 12.451-41.675 32.906-52.825 56.692-11.172 23.815-16.289 51.032-16.296 77.977 0 4.745.186 9.47.501 14.18h-9.692v29.161h13.523c6.411 35.479 17.646 66.598 35.815 90.07 7.097 9.148 15.359 17.018 24.665 23.478v13.601c0 .972-.386 2.373-1.902 4.374-2.202 2.973-6.783 6.575-12.222 9.627-5.425 3.088-11.665 5.753-17.125 7.683-6.118 2.18-16.36 4.26-27.896 7.19-17.346 4.468-38.03 10.964-54.927 25.109-8.426 7.061-15.824 16.11-21.006 27.495-5.196 11.393-8.148 25.03-8.14 41.183 0 3.916.171 7.976.529 12.193.236 2.702 1.265 4.903 2.473 6.719 2.301 3.373 5.353 5.889 9.177 8.469 6.697 4.432 15.974 8.763 27.852 13.015 35.551 12.679 94.409 24.286 167.346 24.3 59.258 0 109.274-7.69 144.975-17.354 17.861-4.846 32.119-10.142 42.426-15.438 5.16-2.674 9.334-5.303 12.644-8.191 1.658-1.458 3.109-2.987 4.331-4.802 1.2-1.816 2.237-4.017 2.473-6.719.35-4.217.522-8.262.522-12.164.03-21.528-5.295-38.602-14.05-51.739zM167.699 258.545c-9.005-17.146-15.552-37.895-19.955-61.052h4.975v-29.161h-9.063a194.988 194.988 0 01-.522-14.18c-.028-33.228 8.562-66.555 26.452-90.978 8.94-12.236 20.148-22.292 33.92-29.368 9.67-4.96 20.728-8.362 33.178-10.02v5.375h31.219v-5.732c15.753 1.53 29.297 5.303 40.754 10.971 21.427 10.642 36.229 27.56 45.971 48.337 9.713 20.741 14.116 45.321 14.108 70.214 0 5.125-.214 10.264-.572 15.381h-8.892v29.161h5.189c-6.175 35.615-16.796 63.596-32.348 82.83-8.884 11.014-19.312 19.283-31.791 24.937-12.472 5.632-27.081 8.655-44.356 8.662-17.139-.015-31.641-3.424-44.12-9.577-18.674-9.235-33.111-24.816-44.147-45.8zm-52.461 220.564c-17.054-4.61-30.469-9.678-39.267-14.216-4.388-2.251-7.612-4.396-9.398-5.982-.765-.657-1.194-1.164-1.408-1.458-.272-3.53-.436-6.926-.436-10.149.022-18.969 4.51-32.542 11.343-42.92 5.146-7.783 11.736-13.837 19.24-18.747 11.236-7.361 24.551-12.007 37.194-15.416.229-.064.444-.108.665-.172l39.124 120.282c-21.806-2.989-41.09-6.898-57.057-11.222zm69.093 12.715l-40.496-124.469c8.27-1.973 15.874-3.674 22.106-5.847a130.614 130.614 0 0016.503-7.175l38.281 140.55a609.71 609.71 0 01-36.394-3.059zm15.624-114.964l-7.726-28.36c3.981-2.802 7.634-5.947 10.542-9.749 2.923-3.831 5.168-8.634 5.168-14.109v-4.51c14.108 6.382 30.09 9.899 48.03 9.885 17.94.007 33.935-3.081 48.101-8.984v3.609c-.014 5.303 2.051 10.078 4.874 13.888 2.316 3.102 5.138 5.746 8.248 8.133l-5.789 25.566c-11.457 1.544-36.551 4.631-54.248 4.631h-57.2zm94.972 117.844l32.099-141.773c6.118 3.344 12.672 6.196 18.89 8.526 8.048 2.98 18.197 5.003 29.304 7.89.136.036.279.079.422.115l-43.613 121.896c-11.686 1.438-24.101 2.56-37.102 3.346zm151.908-37.273l-.693.822c-1.186 1.2-3.581 3.001-6.948 4.924-11.871 6.855-35.3 15.267-66.748 21.664-8.756 1.794-18.204 3.416-28.167 4.874l41.954-117.272c13.366 4.088 26.931 9.735 37.609 18.697 6.847 5.718 12.586 12.715 16.732 21.749 4.139 9.042 6.698 20.227 6.698 34.443-.001 3.202-.158 6.582-.437 10.099z"/><path class="st0" d="M237.842 163.83c0-15.896-8.462-19.026-22.199-21.149-19.869-3.052-39.567 4.338-41.254 16.932-2.116 15.852 3.616 31.548 15.867 34.9 23.257 6.332 47.586-10.585 47.586-30.683zm59.852-21.15c-13.752 2.123-22.2 5.253-22.2 21.149 0 20.098 24.329 37.015 47.586 30.683 12.25-3.353 17.982-19.048 15.867-34.9-1.672-12.593-21.37-19.984-41.253-16.932zm-8.02-20.09h-67.698l33.849 17.968zm-31.205 80.906a7.93 7.93 0 00-7.934 7.934 7.928 7.928 0 007.934 7.926c4.374 0 7.934-3.553 7.934-7.926 0-4.382-3.56-7.934-7.934-7.934zm-21.685 27.496c-4.074 0-7.404 3.317-7.404 7.404 0 4.096 3.331 7.398 7.404 7.398a7.395 7.395 0 007.404-7.398 7.404 7.404 0 00-7.404-7.404zm0 33.842c-4.074 0-7.404 3.309-7.404 7.404s3.331 7.404 7.404 7.404a7.402 7.402 0 007.404-7.404 7.4 7.4 0 00-7.404-7.404zm45.485-33.842a7.406 7.406 0 00-7.404 7.404 7.395 7.395 0 007.404 7.398 7.396 7.396 0 007.405-7.398 7.406 7.406 0 00-7.405-7.404zm0 33.842a7.4 7.4 0 00-7.404 7.404 7.4 7.4 0 007.404 7.404 7.402 7.402 0 007.405-7.404 7.402 7.402 0 00-7.405-7.404zm-49.716-158.647c4.388 0 7.948-3.538 7.948-7.912a7.945 7.945 0 00-7.948-7.948c-4.374 0-7.92 3.553-7.92 7.948a7.914 7.914 0 007.92 7.912zm-32.105-24.809a7.912 7.912 0 007.919 7.912c4.388 0 7.948-3.538 7.948-7.912a7.945 7.945 0 00-7.948-7.948c-4.375.001-7.919 3.553-7.919 7.948zm74.417 24.809c4.388 0 7.934-3.538 7.934-7.912 0-4.395-3.545-7.948-7.934-7.948-4.388 0-7.934 3.553-7.934 7.948 0 4.374 3.545 7.912 7.934 7.912zm21.341-15.981c4.388 0 7.934-3.538 7.934-7.912 0-4.395-3.545-7.948-7.934-7.948s-7.933 3.552-7.933 7.948c.001 4.374 3.545 7.912 7.933 7.912zM202.878 62.76c4.388 0 7.947-3.538 7.947-7.912a7.944 7.944 0 00-7.947-7.947c-4.374 0-7.919 3.552-7.919 7.947a7.912 7.912 0 007.919 7.912zm96.988-3.659c4.388 0 7.934-3.538 7.934-7.912 0-4.395-3.545-7.948-7.934-7.948s-7.933 3.552-7.933 7.948c0 4.374 3.544 7.912 7.933 7.912zM186.024 249.496l14.81 16.918 21.142-54.984zm132.196 16.918l14.809-16.918-35.965-38.066zm104.829 165.337c6.104-1.215 4.874-8.541 0-10.371s-7.319 4.882-11.593 3.659c-4.274-1.222 1.83-14.638-3.045-15.245-4.874-.608-8.734 6.218-7.319 14.638.615 3.659-3.659 6.096-8.541 7.319-4.882 1.222-6.712 7.926-.608 10.978 4.26 2.13 6.096-.615 5.489 7.926-.608 8.541 2.437 14.637 7.926 13.415 5.489-1.222 1.222-15.245 3.052-17.682 1.83-2.437 4.267 4.267 8.534 4.874 4.267.608 3.052-6.704-.607-9.756-3.659-3.051.608-8.54 6.712-9.755zm-43.913 12.501a4.57 4.57 0 00-4.574 4.574 4.57 4.57 0 004.574 4.574 4.57 4.57 0 004.574-4.574 4.57 4.57 0 00-4.574-4.574zm16.918-40.561a3.203 3.203 0 003.209-3.202 3.206 3.206 0 00-6.411 0 3.2 3.2 0 003.202 3.202zm-65.412 27.445a3.354 3.354 0 00-3.352 3.359 3.352 3.352 0 003.352 3.352 3.355 3.355 0 100-6.711zm16.782-29.846c-3.009 0-5.453 2.437-5.453 5.453s2.444 5.453 5.453 5.453c3.009 0 5.453-2.437 5.453-5.453s-2.444-5.453-5.453-5.453z"/><circle class="st0" cx="427.623" cy="455.23" r="2.745"/></svg>