<svg width="800" height="800" viewBox="0 0 24 24" fill="none" xmlns="http://www.w3.org/2000/svg"><path d="M12 5.5l-.54.52a.75.75 0 001.08 0L12 5.5zM8.962 18.91l-.465.59.465-.59zM7 16.42a.75.75 0 00-.954 1.16L7 16.42zm-4.659-3.009a.75.75 0 101.316-.72l-1.316.72zm15.829 6.758l-.45-.6.45.6zm2.976-7.251l.543-.518-.543.518zm-4.647.24l-.527.534a.75.75 0 001.054 0l-.527-.534zm-1.67 7.011l.449-.6-.45.6zm-2.977-7.251l.542.518-.542-.518zm7.594 7.243a.75.75 0 00-.893-1.205l.893 1.205zm1.402-3.517a.75.75 0 101.32.712l-1.32-.712zm.249-3.777l-.53.53.53-.53zM2.75 9.137c0-2.15 1.215-3.954 2.874-4.713 1.612-.737 3.778-.541 5.836 1.597l1.08-1.04C10.1 2.444 7.264 2.025 5 3.06 2.786 4.073 1.25 6.425 1.25 9.137h1.5zM8.497 19.5c.513.404 1.063.834 1.62 1.16.557.325 1.193.59 1.883.59v-1.5c-.31 0-.674-.12-1.126-.385-.453-.264-.922-.628-1.448-1.043L8.497 19.5zM22.75 9.137c0-2.712-1.535-5.064-3.75-6.077-2.264-1.035-5.098-.616-7.54 1.92l1.08 1.04c2.058-2.137 4.224-2.333 5.836-1.596 1.659.759 2.874 2.562 2.874 4.713h1.5zM9.426 18.322c-.796-.627-1.605-1.226-2.425-1.901l-.954 1.158c.83.683 1.708 1.335 2.45 1.92l.93-1.177zm-5.768-5.63a7.252 7.252 0 01-.908-3.555h-1.5c0 1.638.42 3.046 1.092 4.274l1.316-.72zm14.063 6.877a7.087 7.087 0 01-.758.52c-.225.125-.369.161-.463.161v1.5c.456 0 .861-.166 1.192-.35.33-.182.65-.422.929-.63l-.9-1.201zm5.029-4.51a3.843 3.843 0 00-1.06-2.66l-1.085 1.037c.397.415.645.987.645 1.623h1.5zm-8.37 5.71c.278.21.599.449.928.632.33.183.736.349 1.192.349v-1.5c-.094 0-.238-.036-.463-.16a7.097 7.097 0 01-.758-.521l-.9 1.2zm-2.63-5.71c0-.636.248-1.207.645-1.623L11.31 12.4a3.843 3.843 0 00-1.06 2.66h1.5zm.645-1.623a2.176 2.176 0 011.565-.686c.595-.003 1.304.242 2.013.942l1.054-1.067c-.953-.941-2.03-1.38-3.074-1.375a3.675 3.675 0 00-2.643 1.15l1.085 1.035zm6.226 7.333c.267-.2.527-.386.826-.608l-.893-1.205c-.27.199-.57.416-.833.613l.9 1.2zm3.548-3.413a4.76 4.76 0 00.581-2.297h-1.5c0 .605-.15 1.122-.4 1.585l1.32.712zm-6.89 2.213c-.238-.178-.496-.365-.74-.544l-.89 1.207c.26.191.498.363.73.537l.9-1.2zm-.74-.544c-1.512-1.115-2.789-2.214-2.789-3.965h-1.5c0 2.594 1.953 4.106 3.4 5.172l.89-1.207zm-.878-.009c-.691.49-1.218.734-1.661.734v1.5c.945 0 1.806-.498 2.528-1.01l-.867-1.224zM21.69 12.4a4.56 4.56 0 00-.062-.063l-1.06 1.06.037.038L21.69 12.4zm-.062-.063A3.67 3.67 0 0019 11.25c-1.03.008-2.089.448-3.027 1.375l1.054 1.067c.699-.69 1.396-.937 1.985-.942a2.17 2.17 0 011.556.648l1.06-1.061zm.137.874a8.739 8.739 0 00.985-4.074h-1.5c0 1.293-.31 2.402-.818 3.386l1.333.688z" fill="#FFF"/></svg>