<svg width="81" height="81" viewBox="0 0 81 81" fill="none" xmlns="http://www.w3.org/2000/svg">
<path d="M57.375 71.7188H23.625C22.2413 71.7188 21.0938 70.5712 21.0938 69.1875C21.0938 67.8038 22.2413 66.6562 23.625 66.6562H57.375C67.0275 66.6562 71.7188 61.965 71.7188 52.3125V28.6875C71.7188 19.035 67.0275 14.3438 57.375 14.3438H23.625C13.9725 14.3438 9.28125 19.035 9.28125 28.6875C9.28125 30.0712 8.13375 31.2188 6.75 31.2188C5.36625 31.2188 4.21875 30.0712 4.21875 28.6875C4.21875 16.3687 11.3062 9.28125 23.625 9.28125H57.375C69.6938 9.28125 76.7812 16.3687 76.7812 28.6875V52.3125C76.7812 64.6313 69.6938 71.7188 57.375 71.7188Z" fill="#79BE00"/>
<path d="M40.4994 43.4361C37.6644 43.4361 34.7956 42.5587 32.6019 40.7699L22.0381 32.3324C20.9581 31.4549 20.7556 29.8686 21.6331 28.7886C22.5106 27.7086 24.0968 27.5062 25.1768 28.3837L35.7406 36.8212C38.3056 38.8799 42.6594 38.8799 45.2244 36.8212L55.7881 28.3837C56.8681 27.5062 58.4881 27.6749 59.3318 28.7886C60.2093 29.8686 60.0406 31.4887 58.9268 32.3324L48.3631 40.7699C46.2031 42.5587 43.3344 43.4361 40.4994 43.4361Z" fill="#79BE00"/>
<path d="M27 58.2188H6.75C5.36625 58.2188 4.21875 57.0712 4.21875 55.6875C4.21875 54.3038 5.36625 53.1562 6.75 53.1562H27C28.3837 53.1562 29.5312 54.3038 29.5312 55.6875C29.5312 57.0712 28.3837 58.2188 27 58.2188Z" fill="#79BE00"/>
<path d="M16.875 44.7188H6.75C5.36625 44.7188 4.21875 43.5712 4.21875 42.1875C4.21875 40.8038 5.36625 39.6562 6.75 39.6562H16.875C18.2587 39.6562 19.4062 40.8038 19.4062 42.1875C19.4062 43.5712 18.2587 44.7188 16.875 44.7188Z" fill="#79BE00"/>
</svg>
