<svg width="29" height="25" viewBox="0 0 29 25" fill="none" xmlns="http://www.w3.org/2000/svg">
<path d="M24.4734 11.9773C24.6746 12.7944 24.7814 13.6506 24.7814 14.5329C24.7814 16.2348 24.4393 17.8715 23.7295 19.2935" stroke="#49494A" stroke-miterlimit="10" stroke-linecap="round" stroke-linejoin="round"/>
<path d="M5.15741 19.2917C4.77318 18.5217 4.4797 17.6882 4.29152 16.8154C4.13267 16.0778 4.04883 15.3124 4.04883 14.5331C4.04883 8.72679 8.67412 4.04918 14.4151 4.04918C17.8524 4.04918 20.8897 5.72607 22.7739 8.31763" stroke="#49494A" stroke-miterlimit="10" stroke-linecap="round" stroke-linejoin="round"/>
<path d="M16.8543 14.4151C16.8543 15.7621 15.7622 16.8542 14.4152 16.8542C13.0682 16.8542 11.9761 15.7621 11.9761 14.4151C11.9761 13.0681 13.0682 11.976 14.4152 11.976C15.7622 11.976 16.8543 13.0681 16.8543 14.4151Z" stroke="#49494A" stroke-miterlimit="10" stroke-linejoin="round"/>
<path d="M11.9759 15.5127L8.927 16.8542" stroke="#49494A" stroke-miterlimit="10" stroke-linecap="round" stroke-linejoin="round"/>
<path d="M24.7814 9.81022L16.8542 13.3665" stroke="#49494A" stroke-miterlimit="10" stroke-linecap="round" stroke-linejoin="round"/>
<path d="M11.3662 21.1228H17.464" stroke="#49494A" stroke-miterlimit="10" stroke-linecap="round" stroke-linejoin="round"/>
<path d="M14.4151 1.00005C7.00607 1.00005 1 7.00637 1 14.4152C1 18.2604 2.62043 21.7259 5.21296 24.1716H23.6173C26.2095 21.7259 27.8303 18.2604 27.8303 14.4152C27.8303 7.00637 21.8239 1.00005 14.4151 1.00005Z" stroke="#49494A" stroke-miterlimit="10" stroke-linecap="round" stroke-linejoin="round"/>
</svg>
