<svg width="25" height="28" viewBox="0 0 25 28" fill="none" xmlns="http://www.w3.org/2000/svg">
<path d="M12.5858 7.09766C11.1894 7.09766 10.1467 5.9281 10.1467 4.48463V3.61289C10.1467 2.16942 11.1894 0.99987 12.5858 0.99987C13.9822 0.99987 15.025 2.16942 15.025 3.61289V4.48463C15.025 5.9281 13.9822 7.09766 12.5858 7.09766Z" stroke="#49494A" stroke-miterlimit="10" stroke-linecap="round"/>
<path d="M19.9031 26.6108V22.3424L21.7325 20.5131V17.4642H1V20.5131L2.82934 22.3424V26.6108" stroke="#49494A" stroke-miterlimit="10" stroke-linecap="round" stroke-linejoin="round"/>
<path d="M5.87817 26.6108V22.9522H16.8542V26.6108" stroke="#49494A" stroke-miterlimit="10" stroke-linecap="round" stroke-linejoin="round"/>
<path d="M6.48779 17.4641L7.09757 12.8908C7.49759 10.3566 9.84706 9.53699 11.366 9.53699C11.366 9.53699 13.2905 9.53699 13.8625 9.53699C14.6552 9.53699 15.6302 9.82041 16.2424 10.3078C16.854 10.7949 17.7876 11.3663 17.7876 11.3663L21.6475 9.19612C21.6475 9.19612 22.3615 11.7286 21.3518 12.5859C20.8408 13.0194 20.2755 13.4932 19.848 13.85C19.4096 14.2158 18.8584 14.4152 18.287 14.4152H15.6345V17.4641" stroke="#49494A" stroke-miterlimit="10" stroke-linecap="round" stroke-linejoin="round"/>
<path d="M3.43921 17.4641V13.8054L4.65877 12.5859" stroke="#49494A" stroke-miterlimit="10" stroke-linecap="round"/>
<path d="M9.53687 17.4641L9.84175 14.4152" stroke="#49494A" stroke-miterlimit="10" stroke-linecap="round" stroke-linejoin="round"/>
<path d="M22.4221 6.16015L24.3368 7.58813" stroke="#49494A" stroke-miterlimit="10" stroke-linecap="round" stroke-linejoin="round"/>
<path d="M21.6477 9.19604L23.3795 6.87389" stroke="#49494A" stroke-miterlimit="10" stroke-linecap="round" stroke-linejoin="round"/>
</svg>
