<svg width="30" height="27" viewBox="0 0 30 27" fill="none" xmlns="http://www.w3.org/2000/svg">
<path d="M15.2021 23.7084L20.6902 23.72" stroke="#49494A" stroke-miterlimit="10" stroke-linejoin="round"/>
<path d="M25.5718 23.7102C25.5718 25.056 24.4789 26.1475 23.1309 26.1475C21.783 26.1475 20.6902 25.056 20.6902 23.7102C20.6902 22.3638 21.783 21.2723 23.1309 21.2723C24.4789 21.2723 25.5718 22.3638 25.5718 23.7102Z" stroke="#49494A" stroke-miterlimit="10" stroke-linejoin="round"/>
<path d="M10.0225 23.7102C10.0225 25.056 8.92961 26.1475 7.58163 26.1475C6.23371 26.1475 5.14087 25.056 5.14087 23.7102C5.14087 22.3638 6.23371 21.2723 7.58163 21.2723C8.92961 21.2723 10.0225 22.3638 10.0225 23.7102Z" stroke="#49494A" stroke-miterlimit="10" stroke-linejoin="round"/>
<path d="M7.52031 13.4981L5.78487 12.9196L1.92852 5.20632L8.87046 1.7356L12.7268 9.44887L10.9912 14.6552L9.83401 14.2694" stroke="#49494A" stroke-miterlimit="10" stroke-linejoin="round"/>
<path d="M25.5686 23.7083H29.2273C29.2273 23.7083 29.2273 21.6917 29.2273 20.6594C29.2273 19.2343 27.1438 17.9154 21.329 17.0007C18.9604 14.7537 16.8614 13.9518 14.5535 13.9518H10.9339C8.57106 13.9518 5.27444 16.2385 4.22638 17.0007C3.64924 17.0007 2.90679 17.0007 2.39252 17.0007C2.05547 17.0007 1.78679 17.2733 1.78727 17.6105V20.0496L1.17749 21.2691V22.4887C1.17749 23.1625 1.72343 23.7083 2.39705 23.7083H4.83616" stroke="#49494A" stroke-miterlimit="10" stroke-linejoin="round"/>
<path d="M19.5282 17.7342L18.3086 18.2202H6.6652L6.05542 17.6104" stroke="#49494A" stroke-miterlimit="10" stroke-linejoin="round"/>
<path d="M5.75921 4.96279C5.53234 5.0734 5.4314 5.33335 5.53388 5.54355L5.71927 5.92379C5.82175 6.13399 6.08872 6.21456 6.31558 6.10396L6.43038 6.04799C6.60703 5.96186 6.71299 5.78055 6.69313 5.59786L6.61412 4.86801C6.59426 4.68532 6.70021 4.50401 6.87687 4.41788L6.99167 4.36191C7.21853 4.25131 7.4855 4.33188 7.58798 4.54208L7.77337 4.92232C7.87585 5.13252 7.7749 5.39247 7.54804 5.50308" stroke="#49494A" stroke-width="0.5" stroke-miterlimit="10" stroke-linecap="round" stroke-linejoin="round"/>
<path d="M9.40566 8.26977L7.35156 9.27124L7.68539 9.95594" stroke="#49494A" stroke-width="0.5" stroke-miterlimit="10" stroke-linecap="round" stroke-linejoin="round"/>
<path d="M6.68392 7.90198L6.57265 7.67375C6.4498 7.42178 6.55459 7.11758 6.80656 6.99474L7.94773 6.43837C8.1997 6.31552 8.5039 6.42031 8.62674 6.67228L8.73802 6.90052C8.86087 7.15249 8.75607 7.45668 8.5041 7.57953L7.36294 8.1359C7.11097 8.25875 6.80677 8.15395 6.68392 7.90198Z" stroke="#49494A" stroke-width="0.5" stroke-miterlimit="10" stroke-linecap="round" stroke-linejoin="round"/>
<path d="M8.30836 11.234L8.01904 10.6406L10.0731 9.63916L10.3625 10.2326C10.5099 10.535 10.3668 10.9084 10.0427 11.0664L9.1622 11.4957C8.83811 11.6537 8.45579 11.5364 8.30836 11.234Z" stroke="#49494A" stroke-width="0.5" stroke-miterlimit="10" stroke-linecap="round" stroke-linejoin="round"/>
</svg>
