<svg width="25" height="25" viewBox="0 0 25 25" fill="none" xmlns="http://www.w3.org/2000/svg">
<path d="M12.4333 1.00025C6.12925 1.00025 1 6.13001 1 12.4341C1 18.7382 6.12925 23.8669 12.4333 23.8669C18.7374 23.8669 23.8667 18.7382 23.8667 12.4341C23.8667 6.13001 18.7374 1.00025 12.4333 1.00025Z" stroke="#49494A" stroke-miterlimit="10"/>
<path d="M12.4333 20.0557C8.23037 20.0557 4.81104 16.6363 4.81104 12.4339C4.81104 8.23053 8.23037 4.8112 12.4333 4.8112C16.6362 4.8112 20.0555 8.23053 20.0555 12.4339C20.0555 16.6363 16.6362 20.0557 12.4333 20.0557Z" stroke="#49494A" stroke-miterlimit="10"/>
<path d="M12.4333 11.9251V12.9414" stroke="#49494A" stroke-miterlimit="10"/>
<path d="M17.8592 11.7393L14.7428 12.7516C14.4145 12.8583 14.2859 13.2541 14.4887 13.5336L16.4126 16.1811C16.6112 16.4544 17.0183 16.4631 17.2276 16.1978C18.0432 15.1612 18.531 13.8548 18.531 12.4335C18.531 12.3572 18.529 12.2815 18.5259 12.2063C18.5102 11.8679 18.1814 11.6342 17.8592 11.7393V11.7393ZM10.0988 17.3757C9.90215 17.6461 10.0129 18.0348 10.3265 18.1512C10.983 18.3956 11.6913 18.5312 12.4332 18.5312C13.1751 18.5312 13.8835 18.3956 14.54 18.1512C14.8535 18.0348 14.9643 17.6461 14.7677 17.3757L12.8443 14.7283C12.6416 14.4488 12.2249 14.4488 12.0221 14.7283L10.0988 17.3757ZM10.7731 6.57146C9.36503 6.96883 8.16427 7.85759 7.36851 9.0431C7.18202 9.32156 7.32024 9.70369 7.63885 9.80736L10.7518 10.8186C11.08 10.9253 11.4169 10.6803 11.4169 10.3353V7.06488C11.4169 6.7295 11.0958 6.4805 10.7731 6.57146V6.57146ZM7.00722 11.7393C6.68505 11.6342 6.35628 11.8679 6.34053 12.2063C6.33748 12.2815 6.33545 12.3572 6.33545 12.4335C6.33545 13.8548 6.82327 15.1612 7.63885 16.1978C7.84821 16.4631 8.25523 16.4544 8.45392 16.1811L10.3778 13.5336C10.5805 13.2541 10.452 12.8583 10.1237 12.7516L7.00722 11.7393ZM13.4495 7.06488V10.3353C13.4495 10.6803 13.7864 10.9253 14.1147 10.8186L17.2276 9.80736C17.5462 9.70369 17.6844 9.32156 17.498 9.0431C16.7022 7.85759 15.5014 6.96883 14.0934 6.57146C13.7707 6.4805 13.4495 6.7295 13.4495 7.06488V7.06488Z" stroke="#49494A" stroke-miterlimit="10"/>
</svg>
