<?xml version="1.0" encoding="UTF-8"?>
<svg width="20px" height="21px" viewBox="0 0 20 21" version="1.1" xmlns="http://www.w3.org/2000/svg" xmlns:xlink="http://www.w3.org/1999/xlink">
    <!-- Generator: Sketch 57.1 (83088) - https://sketch.com -->
    <title>icon_wifi</title>
    <desc>Created with Sketch.</desc>
    <g id="Page-1" stroke="none" stroke-width="1" fill="none" fill-rule="evenodd">
        <g id="Artboard" transform="translate(-631.000000, -42.000000)">
            <g id="icon_wifi" transform="translate(621.000000, 32.000000)">
                <g id="Rectangle">
                    <rect x="0" y="0" width="40" height="40"></rect>
                </g>
                <g id="Group-211" transform="translate(10.000000, 10.000000)" fill="#7E8292" fill-rule="nonzero">
                    <g id="Group">
                        <path d="M9.67283333,19.317564 C9.21366667,19.317564 8.8395,18.940404 8.8395,18.477564 C8.8395,18.014724 9.21366667,17.637564 9.67283333,17.637564 C10.132,17.637564 10.5061667,18.014724 10.5061667,18.477564 C10.5061667,18.940404 10.132,19.317564 9.67283333,19.317564 M9.67283333,15.957564 C8.2945,15.957564 7.17283333,17.088204 7.17283333,18.477564 C7.17283333,19.866924 8.2945,20.997564 9.67283333,20.997564 C11.0511667,20.997564 12.1728333,19.866924 12.1728333,18.477564 C12.1728333,17.088204 11.0511667,15.957564 9.67283333,15.957564" id="Fill-4341"></path>
                        <path d="M4.95891667,13.726272 L6.13808333,14.914032 C7.08141667,13.961472 8.33725,13.437312 9.67225,13.437312 C11.0080833,13.437312 12.2639167,13.961472 13.2080833,14.914032 L14.3864167,13.726272 C13.12725,12.457032 11.4530833,11.757312 9.67225,11.757312 C7.89225,11.757312 6.21808333,12.457032 4.95891667,13.726272" id="Fill-4342"></path>
                        <path d="M7.5,5.228244 C4.765,5.678484 2.24166667,6.960324 0.244166667,8.973804 L1.4225,10.162404 C3.105,8.466444 5.21083333,7.357644 7.5,6.925044 L7.5,5.228244 Z" id="Fill-4343"></path>
                        <path d="M15.8333333,9.22446 L12.5,9.22446 L12.5,5.86446 L10.8333333,7.54446 L10.8333333,10.06446 C10.8333333,10.52814 11.2066667,10.90446 11.6666667,10.90446 L16.6666667,10.90446 C17.1266667,10.90446 17.5,10.52814 17.5,10.06446 L17.5,7.54446 L15.8333333,5.86446 L15.8333333,9.22446 Z" id="Fill-4344"></path>
                        <path d="M14.7558333,1.070496 C14.43,0.742056 13.9033333,0.742056 13.5775,1.070496 L8.5775,6.110496 L9.75583333,7.298256 L14.1666667,2.852136 L18.5775,7.298256 L19.7558333,6.110496 L14.7558333,1.070496 Z" id="Fill-4345"></path>
                        <path d="M7.5,8.650992 C5.70416667,9.051672 3.99583333,9.944592 2.60166667,11.349072 L3.78,12.536832 C4.8475,11.461632 6.13666667,10.745952 7.5,10.377192 L7.5,8.650992 Z" id="Fill-4346"></path>
                    </g>
                </g>
            </g>
        </g>
    </g>
</svg>