<?xml version="1.0" encoding="UTF-8"?>
<svg width="20px" height="26px" viewBox="0 0 20 26" version="1.1" xmlns="http://www.w3.org/2000/svg" xmlns:xlink="http://www.w3.org/1999/xlink">
    <!-- Generator: Sketch 57.1 (83088) - https://sketch.com -->
    <title>icon_first line</title>
    <desc>Created with Sketch.</desc>
    <g id="Page-1" stroke="none" stroke-width="1" fill="none" fill-rule="evenodd">
        <g id="Artboard" transform="translate(-1234.000000, -63.000000)">
            <g id="icon_first-line" transform="translate(1224.000000, 56.000000)">
                <g id="Group-13-Copy-2">
                    <g id="Rectangle">
                        <rect x="0" y="0" width="40" height="40"></rect>
                    </g>
                    <path d="M30,24.9974365 L30,21.0007324 C20.6923077,21.0007324 14.0028076,24.1530309 14.0028076,24.9974365" id="Fill-2775" fill="#7E8292"></path>
                    <path d="M21.4344107,7.23151011 C21.7472048,6.92282996 22.2527952,6.92282996 22.5655893,7.23151011 L22.5655893,7.23151011 L29.765453,14.3366798 C29.9942487,14.5624663 30.0630474,14.9019355 29.9390497,15.1971948 C29.8150521,15.492454 29.5230576,15.6842936 29.1998637,15.6842936 L29.1998637,15.6842936 L27.9988891,15.6842936 L27.9976636,20.0460899 C26.5865434,20.1147057 25.2486912,20.2525093 24.000317,20.4377467 L24.0007201,17.99975 L20.0020629,17.99975 L20.0021455,21.2504544 C18.364214,21.6801956 17.0082009,22.1668731 16.0020026,22.6193693 L16.0026732,15.6842936 L14.8001363,15.6842936 C14.4769424,15.6842936 14.1849479,15.492454 14.0609503,15.1971948 C13.9369526,14.9019355 14.0057513,14.5624663 14.234547,14.3366798 L14.234547,14.3366798 Z M27.998,20.498 L27.9988891,22 L24.0007201,22 L24,21.497 L27.998,20.498 Z" id="Combined-Shape" fill="#7E8292"></path>
                </g>
                <path d="M26,31.1041667 C25.5128571,31.1041667 24.9421429,30.7928125 24.3371429,30.4610417 C23.6042857,30.06 22.8457143,29.6458333 22,29.6458333 C21.1535714,29.6458333 20.3957143,30.0607292 19.6628571,30.4610417 C19.0585714,30.7928125 18.4871429,31.1041667 18,31.1041667 C17.6228571,31.1041667 17.3142857,30.9204167 16.8014286,30.5952083 C16.1342857,30.1722917 15.305,29.6458333 14,29.6458333 C12.695,29.6458333 11.865,30.1722917 11.1985714,30.5952083 C10.6857143,30.9204167 10.3771429,31.1041667 10,31.1041667 L10,32.5625 C10.8028571,32.5625 11.3871429,32.1920833 11.9521429,31.8333333 C12.5435714,31.4592708 13.1028571,31.1041667 14,31.1041667 C14.8971429,31.1041667 15.4557143,31.4592708 16.0478571,31.8333333 C16.6128571,32.1920833 17.1971429,32.5625 18,32.5625 C18.8464286,32.5625 19.6042857,32.1483333 20.3371429,31.7472917 C20.9414286,31.41625 21.5121429,31.1041667 22,31.1041667 C22.4871429,31.1041667 23.0578571,31.41625 23.6628571,31.7472917 C24.3957143,32.1483333 25.1542857,32.5625 26,32.5625 C26.8464286,32.5625 27.6035714,32.1483333 28.3378571,31.7472917 C28.9421429,31.41625 29.5121429,31.1041667 30,31.1041667 L30,29.6458333 C29.1535714,29.6458333 28.3964286,30.0607292 27.6628571,30.4610417 C27.0585714,30.7928125 26.4878571,31.1041667 26,31.1041667 Z M27.6628571,26.8152083 C28.3964286,26.4141667 29.1535714,26 30,26 L30,27.4583333 C29.5121429,27.4583333 28.9421429,27.7704167 28.3378571,28.1014583 C27.6035714,28.5025 26.8464286,28.9166667 26,28.9166667 C25.1542857,28.9166667 24.3957143,28.5025 23.6628571,28.1014583 C23.0578571,27.7704167 22.4871429,27.4583333 22,27.4583333 C21.5121429,27.4583333 20.9414286,27.7704167 20.3371429,28.1014583 C19.6042857,28.5025 18.8464286,28.9166667 18,28.9166667 C17.1971429,28.9166667 16.6128571,28.54625 16.0478571,28.1875 C15.4557143,27.8134375 14.8971429,27.4583333 14,27.4583333 C13.1028571,27.4583333 12.5435714,27.8134375 11.9521429,28.1875 C11.3871429,28.54625 10.8028571,28.9166667 10,28.9166667 L10,27.4583333 C10.3771429,27.4583333 10.6857143,27.2745833 11.1985714,26.949375 C11.865,26.5264583 12.695,26 14,26 C15.305,26 16.1342857,26.5264583 16.8014286,26.949375 C17.3142857,27.2745833 17.6228571,27.4583333 18,27.4583333 C18.4871429,27.4583333 19.0585714,27.1469792 19.6628571,26.8152083 C20.3957143,26.4141667 21.1535714,26 22,26 C22.8457143,26 23.6042857,26.4148958 24.3371429,26.8152083 C24.9421429,27.1469792 25.5128571,27.4583333 26,27.4583333 C26.4878571,27.4583333 27.0585714,27.1469792 27.6628571,26.8152083 L27.6628571,26.8152083 Z" id="Shape" fill="#7E8292"></path>
            </g>
        </g>
    </g>
</svg>