<?xml version="1.0" encoding="UTF-8"?>
<svg width="22px" height="18px" viewBox="0 0 22 18" version="1.1" xmlns="http://www.w3.org/2000/svg" xmlns:xlink="http://www.w3.org/1999/xlink">
    <!-- Generator: Sketch 57.1 (83088) - https://sketch.com -->
    <title>icon_sand</title>
    <desc>Created with Sketch.</desc>
    <g id="Page-1" stroke="none" stroke-width="1" fill="none" fill-rule="evenodd">
        <g id="Artboard" transform="translate(-1100.000000, -39.000000)">
            <g id="icon_sand" transform="translate(1091.000000, 27.000000)">
                <g id="Rectangle">
                    <rect x="0" y="0" width="40" height="40"></rect>
                </g>
                <g id="Group-15" transform="translate(9.000000, 12.000000)" fill="#7E8292" fill-rule="nonzero">
                    <path d="M13.9972534,9 C13.9972534,3.92735077 9.05223412,0.5 1,0.5 L1,1.5 C8.56154274,1.5 12.9972534,4.5743533 12.9972534,9 L13.9972534,9 Z" id="Path"></path>
                    <path d="M21.3136037,2.95371943 C20.1798764,2.04073336 15.7294415,0.5 12.3933985,0.5 L12.3933985,1.5 C14.1649829,1.5 16.0773754,1.8881134 17.9548291,2.53808483 C19.2207492,2.97634431 20.4709179,3.55904782 20.6863967,3.73257207 L21.3136037,2.95371943 Z" id="Path" transform="translate(16.853501, 2.116286) scale(-1, 1) translate(-16.853501, -2.116286) "></path>
                    <circle id="Oval-Copy-5" cx="7.5" cy="8.5" r="1"></circle>
                    <circle id="Oval-Copy-20" cx="9.5" cy="7.5" r="1"></circle>
                    <circle id="Oval-Copy-19" cx="7.5" cy="6.5" r="1"></circle>
                    <circle id="Oval-Copy-8" cx="20.5" cy="7.5" r="1"></circle>
                    <circle id="Oval-Copy-22" cx="20.5" cy="5.5" r="1"></circle>
                    <circle id="Oval-Copy-9" cx="18.5" cy="8.5" r="1"></circle>
                    <circle id="Oval-Copy-10" cx="18.5" cy="6.5" r="1"></circle>
                    <circle id="Oval-Copy-21" cx="18.5" cy="4.5" r="1"></circle>
                    <circle id="Oval-Copy-11" cx="16.5" cy="7.5" r="1"></circle>
                    <circle id="Oval-Copy-24" cx="16.5" cy="5.5" r="1"></circle>
                    <g id="Group-5" transform="translate(0.000000, 3.000000)">
                        <g id="Group-2">
                            <circle id="Oval-Copy" cx="1.5" cy="4.5" r="1"></circle>
                            <circle id="Oval-Copy-14" cx="1.5" cy="2.5" r="1"></circle>
                            <circle id="Oval-Copy-2" cx="3.5" cy="5.5" r="1"></circle>
                            <circle id="Oval-Copy-15" cx="3.5" cy="3.5" r="1"></circle>
                            <circle id="Oval-Copy-18" cx="3.5" cy="1.5" r="1"></circle>
                            <circle id="Oval-Copy-4" cx="5.5" cy="4.5" r="1"></circle>
                            <circle id="Oval-Copy-17" cx="5.5" cy="2.5" r="1"></circle>
                        </g>
                    </g>
                    <path d="M17,16.1041667 C16.5128571,16.1041667 15.9421429,15.7928125 15.3371429,15.4610417 C14.6042857,15.06 13.8457143,14.6458333 13,14.6458333 C12.1535714,14.6458333 11.3957143,15.0607292 10.6628571,15.4610417 C10.0585714,15.7928125 9.48714286,16.1041667 9,16.1041667 C8.62285714,16.1041667 8.31428571,15.9204167 7.80142857,15.5952083 C7.13428571,15.1722917 6.305,14.6458333 5,14.6458333 C3.695,14.6458333 2.865,15.1722917 2.19857143,15.5952083 C1.68571429,15.9204167 1.37714286,16.1041667 1,16.1041667 L1,17.5625 C1.80285714,17.5625 2.38714286,17.1920833 2.95214286,16.8333333 C3.54357143,16.4592708 4.10285714,16.1041667 5,16.1041667 C5.89714286,16.1041667 6.45571429,16.4592708 7.04785714,16.8333333 C7.61285714,17.1920833 8.19714286,17.5625 9,17.5625 C9.84642857,17.5625 10.6042857,17.1483333 11.3371429,16.7472917 C11.9414286,16.41625 12.5121429,16.1041667 13,16.1041667 C13.4871429,16.1041667 14.0578571,16.41625 14.6628571,16.7472917 C15.3957143,17.1483333 16.1542857,17.5625 17,17.5625 C17.8464286,17.5625 18.6035714,17.1483333 19.3378571,16.7472917 C19.9421429,16.41625 20.5121429,16.1041667 21,16.1041667 L21,14.6458333 C20.1535714,14.6458333 19.3964286,15.0607292 18.6628571,15.4610417 C18.0585714,15.7928125 17.4878571,16.1041667 17,16.1041667 Z M18.6628571,11.8152083 C19.3964286,11.4141667 20.1535714,11 21,11 L21,12.4583333 C20.5121429,12.4583333 19.9421429,12.7704167 19.3378571,13.1014583 C18.6035714,13.5025 17.8464286,13.9166667 17,13.9166667 C16.1542857,13.9166667 15.3957143,13.5025 14.6628571,13.1014583 C14.0578571,12.7704167 13.4871429,12.4583333 13,12.4583333 C12.5121429,12.4583333 11.9414286,12.7704167 11.3371429,13.1014583 C10.6042857,13.5025 9.84642857,13.9166667 9,13.9166667 C8.19714286,13.9166667 7.61285714,13.54625 7.04785714,13.1875 C6.45571429,12.8134375 5.89714286,12.4583333 5,12.4583333 C4.10285714,12.4583333 3.54357143,12.8134375 2.95214286,13.1875 C2.38714286,13.54625 1.80285714,13.9166667 1,13.9166667 L1,12.4583333 C1.37714286,12.4583333 1.68571429,12.2745833 2.19857143,11.949375 C2.865,11.5264583 3.695,11 5,11 C6.305,11 7.13428571,11.5264583 7.80142857,11.949375 C8.31428571,12.2745833 8.62285714,12.4583333 9,12.4583333 C9.48714286,12.4583333 10.0585714,12.1469792 10.6628571,11.8152083 C11.3957143,11.4141667 12.1535714,11 13,11 C13.8457143,11 14.6042857,11.4148958 15.3371429,11.8152083 C15.9421429,12.1469792 16.5128571,12.4583333 17,12.4583333 C17.4878571,12.4583333 18.0585714,12.1469792 18.6628571,11.8152083 L18.6628571,11.8152083 Z" id="Shape"></path>
                </g>
            </g>
        </g>
    </g>
</svg>