<?xml version="1.0" encoding="UTF-8"?>
<svg width="18px" height="23px" viewBox="0 0 18 23" version="1.1" xmlns="http://www.w3.org/2000/svg" xmlns:xlink="http://www.w3.org/1999/xlink">
    <!-- Generator: Sketch 59.1 (86144) - https://sketch.com -->
    <title>distance to airport_icon </title>
    <desc>Created with Sketch.</desc>
    <g id="Page-1" stroke="none" stroke-width="1" fill="none" fill-rule="evenodd">
        <g id="distance-to-airport_icon-" transform="translate(-11.000000, -9.000000)" fill-rule="nonzero">
            <g id="Group-71" transform="translate(12.000000, 10.000000)">
                <path d="M5.97111222,12.7457966 C5.97080968,12.903472 5.97056316,13.031947 5.97056316,13.031947 L8.05756353,13.0279475 L10.1509283,13.0239345 L10.1514774,12.7377829 C10.1517799,12.5801075 10.0136756,12.4126105 9.84299066,12.3640957 L8.76288285,11.9579107 L8.89443922,9.18056464 L12.5665354,9.81802761 L12.5677132,9.17352287 C12.5681133,8.99567354 12.4300395,8.81224974 12.2593546,8.76373492 L8.99724191,7.01539173 L9.07574472,5.35248883 C9.07704759,4.67347601 8.63065114,4.03089116 8.07853744,4.03194696 C7.52642375,4.03300797 7.07702665,4.67784094 7.07572378,5.35685376 L7.1478487,7.01787523 L3.87742071,8.77396326 C3.70707256,8.82631719 3.56934853,9.01345504 3.56900829,9.19077347 L3.56771318,9.83474732 L7.24234211,9.18320081 L7.36271896,11.9558167 L6.27892703,12.3640264 C6.10910824,12.4169102 5.97141578,12.5875904 5.97111222,12.7457966 Z" id="Path" fill="#7E8292" transform="translate(8.067714, 8.531948) rotate(-1.000000) translate(-8.067714, -8.531948) "></path>
                <path d="M8,21 C13.3333333,15.1494949 16,10.7744949 16,7.875 C16,3.5257576 12.418278,0 8,0 C3.581722,0 0,3.5257576 0,7.875 C0,10.7744949 2.66666667,15.1494949 8,21 Z" id="Combined-Shape" stroke="#7E8292" stroke-width="1.3"></path>
            </g>
        </g>
    </g>
</svg>