<?xml version="1.0" encoding="UTF-8"?>
<svg width="18px" height="23px" viewBox="0 0 18 23" version="1.1" xmlns="http://www.w3.org/2000/svg" xmlns:xlink="http://www.w3.org/1999/xlink">
    <!-- Generator: Sketch 59.1 (86144) - https://sketch.com -->
    <title>distance to the beacht_icon </title>
    <desc>Created with Sketch.</desc>
    <g id="Page-1" stroke="none" stroke-width="1" fill="none" fill-rule="evenodd">
        <g id="distance-to-the-beacht_icon-" transform="translate(-11.000000, -9.000000)">
            <g id="Group-175" transform="translate(12.000000, 10.000000)">
                <g id="Group-165" transform="translate(2.000000, 2.000000)" fill="#7E8292">
                    <g id="Group-161">
                        <path d="M9.9417807,10.2514923 L9.9417807,8.40053076 C5.86123444,8.40053076 2.89356443,9.88129999 2.89356443,10.2514923 L9.9417807,10.2514923 Z" id="Fill-2775"></path>
                        <g id="iconfinder_Web_UI-28_1634133" transform="translate(5.773878, 5.788802) rotate(30.000000) translate(-5.773878, -5.788802) translate(1.773878, 2.288802)" fill-rule="nonzero">
                            <path d="M7.28932444,1.26742833 C6.31213709,0.263328178 4.86876305,-0.137706754 3.5122013,0.217971792 C2.15563955,0.573650338 1.09620002,1.63090095 0.739785076,2.98465989 C0.383370135,4.33841882 0.785235367,5.77881068 1.79141441,6.75397905 C1.79141441,6.75397905 1.86706957,4.09534007 4.62695965,4.09534007 C4.62635215,4.09594632 4.55069699,1.26742833 7.28932444,1.26742833 Z M1.97370118,2.10535054 L3.48393444,3.62164736 C2.73306913,3.90815213 2.47193615,4.09525212 2.20790292,4.35684235 C1.9438697,4.61843259 1.70051947,5.06977701 1.59139328,5.40591313 C1.09212349,4.30276633 1.09813408,3.28180646 1.97370118,2.10535054 Z" id="Shape"></path>
                            <path d="M6.41069848,5.16694072 L5.79412887,4.60437484 L4.64880938,3.58353665 L4.13975011,4.10802258 L5.88303568,5.68937602 C6.23481088,5.34108582 6.41069848,5.16694072 6.41069848,5.16694072 Z" id="Path" transform="translate(5.275224, 4.636456) rotate(2.000000) translate(-5.275224, -4.636456) "></path>
                            <path d="M2.11323882,1.18755527 C2.02594869,1.1073304 1.65791799,0.550723754 1.2883045,0.901871539 C0.918691008,1.25301932 1.54136313,1.62514482 1.62207883,1.71194034 L2.11323882,1.18755527 Z" id="Path"></path>
                        </g>
                    </g>
                </g>
                <path d="M8,21 C13.3333333,15.1494949 16,10.7744949 16,7.875 C16,3.5257576 12.418278,0 8,0 C3.581722,0 0,3.5257576 0,7.875 C0,10.7744949 2.66666667,15.1494949 8,21 Z" id="Combined-Shape" stroke="#7E8292" stroke-width="1.3" fill-rule="nonzero"></path>
            </g>
        </g>
    </g>
</svg>