<svg version="1.1" id="Слой_1" xmlns="http://www.w3.org/2000/svg" x="0" y="0" viewBox="0 0 270.5 88" xml:space="preserve"><style>.st1{fill:#fff}</style><g opacity=".5"><path class="st1" d="M1.8 68.8S-1.4 61.1.7 55c2.5-6.6 14.9-8.3 23.9-10.4 9-2.2 16-3.4 19.6-6.1 3.4-2.3 4.8-4.8 4.8-4.8s2.2 6.6-.4 12.9-8.6 7.5-13.8 8.8-20.5 4.8-25.1 6.1c-6.6 1.5-7.9 7.3-7.9 7.3z"/><path class="st1" d="M4.7 79.7s-2.3-5.7-.4-11c2-5.4 9.3-6.1 13.6-7s15.8-3.4 18.9-4.3c3.1-.9 4.5-1.3 4.5-1.3s1.4 6.3-2.2 9.5-6.6 3.6-10.6 4.3-14.2 2.7-17.8 3.8c-3.5 1.2-5.5 4.1-6 6z"/><path class="st1" d="M7.4 88s-2.3-4-.9-7.9c1.6-4 4-4.3 8.6-5 4.7-.7 19.4-4.1 19.4-4.1s1.3 4-.7 7.2-6.8 3.6-10.2 4c-3.2.4-10.6 1.3-12.9 2.3-2.4 1-3 2.2-3.3 3.5zM36.1 6.6L35 5.5C32.1 2.8 28.7 1 24.8.3c-.9-.2-2-.4-3.1-.4h-1.8c-1.1 0-2 .2-3.1.4-3.5.8-7.1 2.6-10 5.3l-1 1C2.4 10.4.4 15.2.4 20.6S2.6 31 6 34.6c.3.4.7.8 1 1.1 2.9 2.7 6.3 4.5 10.2 5.2.9.2 2 .4 3.1.4h1.8c1.1 0 2-.2 3.1-.4 4-.7 7.4-2.5 10.2-5.2l1.1-1.1c3.4-3.8 5.6-8.6 5.6-14s-2.6-10.2-6-14zM39 19.9h-6.5c-.2-3.2-.9-6.1-2-8.8 1.4-.7 2.7-1.6 3.8-2.5 2.7 2.9 4.5 6.8 4.7 11.3zm-17.2-17c2.7 2 5 4.5 6.6 7.5-2 .9-4.3 1.4-6.6 1.4V2.9zm-1.7 0v9c-2.3 0-4.5-.5-6.6-1.4 1.6-3.1 3.9-5.7 6.6-7.6zm0 10.6V20H11c.2-2.9.7-5.7 2-8.3 2.1 1.1 4.6 1.6 7.1 1.8zm0 8.1V28c-2.5.2-5 .7-7.4 1.6-1.1-2.5-1.8-5.2-2-8.1h9.4zm0 8v9c-2.7-2-5-4.5-6.6-7.5 2.1-.9 4.3-1.5 6.6-1.5zm1.7 9v-9c2.3.2 4.7.5 6.6 1.4-1.6 2.9-4 5.6-6.6 7.6zm0-10.6v-6.5H31c-.2 2.9-.7 5.7-2 8.1-2.2-.9-4.6-1.6-7.2-1.6zm0-8.1v-6.5c2.5-.2 5-.7 7.4-1.6 1.1 2.5 1.8 5.2 2 8.1h-9.4zM33.2 7.4c-1.1.9-2.2 1.6-3.4 2.3-1.4-2.5-3.2-4.8-5.4-6.6 3.3.5 6.3 2.1 8.8 4.3zM17.6 3.1c-2.2 1.8-4 4.1-5.4 6.6C11 9 9.9 8.3 8.8 7.4c2.4-2.2 5.4-3.8 8.8-4.3zM7.7 8.4c1.1 1.1 2.3 1.8 3.8 2.5-1.3 2.7-2 5.7-2 8.8H2.9c.2-4.3 2-8.2 4.8-11.3zM2.9 21.6h6.5c.2 3.2.9 6.1 2 8.8-1.4.7-2.7 1.6-3.8 2.5-2.7-3.1-4.5-7-4.7-11.3zm5.9 12.3c1.1-.9 2.2-1.6 3.4-2.3 1.4 2.5 3.2 4.8 5.4 6.6-3.4-.5-6.4-1.9-8.8-4.3zm15.6 4.5c2.2-1.8 4-4.1 5.4-6.6 1.3.7 2.3 1.4 3.4 2.3-2.5 2.2-5.5 3.6-8.8 4.3zm9.9-5.5c-1.1-1.1-2.3-1.8-3.8-2.5 1.3-2.7 2-5.7 2-8.8H39c-.2 4.3-2 8.2-4.7 11.3zm33.1-10.8l7.7-17.8H78l7.7 17.8h-3.2l-1.8-4.3h-8.3l-1.8 4.3h-3.2zm6.1-7h6.1l-3.1-7-3 7zm14.2.3c0-1.3.4-2.5.9-3.6s1.4-2 2.5-2.5c1.1-.7 2.2-.9 3.6-.9 1.3 0 2.2.2 3.1.5.9.4 1.6.9 2.3 1.6l-2 2c-.5-.5-1.1-.9-1.6-1.3-.6-.2-1.1-.2-1.8-.2-1.1 0-2 .4-2.7 1.3-.7.9-1.3 2-1.3 3.2 0 1.3.4 2.2 1.1 3.1.7.9 1.6 1.3 2.9 1.3.7 0 1.3-.2 1.8-.4.5-.4 1.1-.7 1.6-1.3l1.8 1.8c-.7.9-1.4 1.4-2.3 1.8-.9.4-1.8.7-3.1.7s-2.5-.4-3.6-.9-1.8-1.4-2.5-2.5c-.4-1.1-.7-2.4-.7-3.7zm14.3 0c0-1.3.4-2.5.9-3.6s1.4-2 2.5-2.5c1.1-.7 2.2-.9 3.6-.9 1.3 0 2.2.2 3.1.5.9.4 1.6.9 2.3 1.6l-2.2 2.2c-.5-.5-1.1-.9-1.6-1.3s-1.1-.4-1.8-.4c-1.1 0-2 .4-2.7 1.3-.7.9-1.1 1.8-1.1 3.1s.4 2.2 1.1 3.1c.7.9 1.6 1.3 2.9 1.3.7 0 1.3-.2 1.8-.4.5-.4 1.1-.7 1.6-1.3l1.8 1.8c-.7.9-1.4 1.4-2.3 1.8-.9.4-1.8.7-3.1.7s-2.5-.4-3.6-.9-1.8-1.4-2.5-2.5c-.5-1-.7-2.3-.7-3.6zm14.2 0c0-1.3.4-2.3.9-3.4s1.4-2 2.5-2.5 2.3-.9 3.6-.9c1.3 0 2.5.4 3.6.9s2 1.4 2.5 2.5.9 2.2.9 3.4c0 .9-.2 1.8-.5 2.7-.4.9-.9 1.6-1.4 2.2-.5.7-1.4 1.1-2.3 1.4-.9.4-1.8.5-2.9.5-1.3 0-2.5-.4-3.6-.9s-2-1.4-2.5-2.5c-.4-.8-.8-2.1-.8-3.4zm3.1 0c0 1.3.4 2.2 1.1 3.1.7.9 1.8 1.3 2.9 1.3 1.3 0 2.2-.4 2.9-1.3.7-.9 1.1-1.8 1.1-3.1s-.4-2.2-1.1-3.1c-.7-.9-1.8-1.3-2.9-1.3-1.3 0-2.2.4-2.9 1.3-.8 1-1.1 1.9-1.1 3.1zm14.3 6.7V8.8h3.1v10.6h5.7V8.8h3.1v10.6h2.2l-.4 5.7h-2.9v-3.2h-10.8v.2zm16.2 0V8.8h3.1v9c2.3-3.2 4.3-6.3 6.3-9h2.9v13.3H159v-8.8l-6.3 8.8h-2.9zm15.1-4c0-1.4.5-2.5 1.4-3.2 1.1-.7 2.3-1.1 4-1.1 1.3 0 2.5.2 3.6.5v-.2c0-.9-.4-1.6-.9-2.2-.5-.5-1.4-.7-2.5-.7-1.3 0-2.5.4-3.8.9l-.5-2.5c.9-.4 1.6-.7 2.3-.9.7-.2 1.6-.4 2.7-.4 2 0 3.4.5 4.3 1.4.9.9 1.4 2.3 1.4 4.1v7.9h-3.1v-1.6c-.9 1.4-2.3 2.2-4.1 2.2-.9 0-1.6-.2-2.3-.5-.7-.4-1.3-.7-1.8-1.4-.5-.5-.7-1.4-.7-2.3zm3 0c0 .5.2 1.1.7 1.4.5.4 1.1.5 1.8.5 1.1 0 1.8-.2 2.5-.7s1.1-1.3 1.1-2v-.9c-.9-.4-2-.5-3.1-.5-.9 0-1.6.2-2.2.5-.4.5-.8 1-.8 1.7zm12.8 4V8.8h3.1v10.6h5.7V8.8h3.1v10.6h2.2l-.4 5.7h-2.9v-3.2h-10.8v.2zm16.2 0V8.8h3.1v9c2.3-3.2 4.3-6.3 6.3-9h2.9v13.3H206v-8.8l-6.3 8.8h-2.8zm14.7 0l3.8-5c-.9-.4-1.6-.7-2.3-1.4-.5-.7-.9-1.4-.9-2.5 0-1.3.5-2.3 1.4-3.2.9-.7 2.2-1.3 3.8-1.3h6.6V22h-3.1v-4.5h-2.7L215 22h-3.4v.1zm3.8-8.8c0 .5.2 1.1.7 1.4.5.4 1.1.5 2 .5h3.2v-4H218c-.7 0-1.4.2-2 .5-.5.5-.6 1.1-.6 1.6zm-147.9 25v-2.9h14.4v2.9h-5.6V53h-3.1V38.3h-5.7zm16.2 1.4h3.2l3.8 9.9 3.4-9.9h3.2l-5.2 13.6c-.5 1.4-1.1 2.3-1.8 2.9-.7.5-1.4.9-2.5.9s-2.2-.4-3.2-.9l1.1-2.3c.5.4 1.3.5 1.8.5.4 0 .7-.2 1.1-.4.4-.2.5-.7.7-1.3l-5.6-13zm16.2 17.4V39.7h3.1v2.2c1.3-1.6 2.7-2.5 4.5-2.5.7 0 1.6.2 2.3.5.7.4 1.4.7 2 1.3.5.5 1.1 1.3 1.4 2.2.4.9.5 1.8.5 2.9 0 1.1-.2 2-.5 2.9-.4.9-.9 1.6-1.4 2.2-.5.5-1.3 1.1-2 1.3-.7.4-1.4.5-2.3.5-1.8 0-3.4-.7-4.5-2.3V57h-3.1v.1zm3-10.8c0 1.3.4 2.3 1.1 3.1.7.7 1.6 1.3 2.7 1.3s2-.4 2.7-1.3c.7-.7 1.1-1.8 1.1-3.1s-.4-2.3-1.1-3.1c-.7-.7-1.6-1.3-2.7-1.3s-2 .4-2.7 1.3c-.7 1-1.1 1.9-1.1 3.1zm13.1 0c0-1.3.4-2.3.9-3.4s1.4-2 2.5-2.5 2.3-.9 3.6-.9c1.3 0 2.5.4 3.6.9s2 1.4 2.5 2.5.9 2.2.9 3.4c0 .9-.2 1.8-.5 2.7-.4.9-.9 1.6-1.4 2.2-.5.7-1.4 1.1-2.3 1.4-.9.4-1.8.5-2.9.5-1.3 0-2.5-.4-3.6-.9s-2-1.4-2.5-2.5c-.4-.9-.8-2.1-.8-3.4zm3.1 0c0 1.3.4 2.2 1.1 3.1.7.9 1.8 1.3 2.9 1.3 1.3 0 2.2-.4 2.9-1.3.7-.9 1.1-1.8 1.1-3.1s-.4-2.2-1.1-3.1c-.7-.9-1.8-1.3-2.9-1.3-1.3 0-2.2.4-2.9 1.3s-1.1 2.1-1.1 3.1zm14.4 6.7V39.7h11.9V53h-3.1V42.4h-5.7V53h-3.1zm14.9-6.7c0-1.3.4-2.3.9-3.4s1.3-2 2.3-2.5c1.1-.5 2.2-.9 3.4-.9.9 0 1.6.2 2.3.4s1.3.5 1.8 1.1c.5.4.9.9 1.3 1.6.4.5.5 1.3.7 2 .2.7.2 1.4.2 2.2v.9h-9.9c.2 1.1.5 2 1.3 2.5.7.5 1.6.9 2.5.9.7 0 1.4-.2 2-.4.5-.2 1.1-.7 1.6-1.3l1.8 1.6c-1.4 1.6-3.2 2.5-5.4 2.5-1.3 0-2.5-.4-3.4-.9-1.1-.5-1.8-1.4-2.5-2.5-.6-1.1-.9-2.3-.9-3.8zm3-.9h6.8c-.2-1.1-.5-1.8-1.1-2.5-.5-.7-1.4-.9-2.3-.9-.9 0-1.6.4-2.3.9-.5.7-.9 1.5-1.1 2.5zm12.9 11.7V39.7h3.1v2.2c1.3-1.6 2.7-2.5 4.5-2.5.7 0 1.6.2 2.3.5.7.4 1.4.7 2 1.3s1.1 1.3 1.4 2.2c.4.9.5 1.8.5 2.9 0 1.1-.2 2-.5 2.9-.4.9-.9 1.6-1.4 2.2-.5.5-1.3 1.1-2 1.3-.7.4-1.4.5-2.3.5-1.8 0-3.4-.7-4.5-2.3V57h-3.1v.1zm2.9-10.8c0 1.3.4 2.3 1.1 3.1.7.7 1.6 1.3 2.7 1.3s2-.4 2.7-1.3c.7-.7 1.1-1.8 1.1-3.1s-.4-2.3-1.1-3.1-1.6-1.2-2.7-1.2-2 .4-2.7 1.3c-.5.9-1.1 1.8-1.1 3zm13.1 2.9c0-1.4.5-2.5 1.4-3.2 1.1-.7 2.3-1.1 4-1.1 1.3 0 2.5.2 3.6.5v-.2c0-.9-.4-1.6-.9-2.2-.5-.5-1.4-.7-2.5-.7-1.3 0-2.5.4-3.8.9l-.9-2.5c.9-.4 1.6-.7 2.3-.9s1.6-.4 2.7-.4c2 0 3.4.5 4.3 1.4s1.4 2.3 1.4 4.1V53H189v-1.6c-1.1 1.3-2.5 2-4.3 2-.9 0-1.6-.2-2.3-.5-.7-.4-1.3-.7-1.8-1.4-.1-.7-.3-1.4-.3-2.3zm3.1-.2c0 .5.2 1.1.7 1.4s1.1.5 1.8.5c1.1 0 1.8-.2 2.5-.7.7-.5 1.1-1.3 1.1-2v-.7c-.9-.4-2-.5-3.1-.5-.9 0-1.6.2-2.2.5-.6.3-.8.8-.8 1.5zm11.1-6.6v-2.7h11.7v2.7h-4.3V53h-3.1V42.4h-4.3zm13.5 3.9c0-1.3.4-2.3.9-3.4s1.4-2 2.5-2.5 2.3-.9 3.6-.9 2.5.4 3.6.9 2 1.4 2.5 2.5.9 2.2.9 3.4c0 .9-.2 1.8-.5 2.7-.4.9-.9 1.6-1.4 2.2-.5.7-1.4 1.1-2.3 1.4-.9.4-1.8.5-2.9.5-1.3 0-2.5-.4-3.6-.9s-2-1.4-2.5-2.5c-.6-.9-.8-2.1-.8-3.4zm3 0c0 1.3.4 2.2 1.1 3.1.7.9 1.8 1.3 2.9 1.3 1.3 0 2.2-.4 2.9-1.3.7-.9 1.1-1.8 1.1-3.1s-.4-2.2-1.1-3.1c-.7-.9-1.8-1.3-2.9-1.3-1.3 0-2.2.4-2.9 1.3s-1.1 2.1-1.1 3.1zm14.2 10.8V39.7h3.1v2.2c1.3-1.6 2.7-2.5 4.5-2.5.7 0 1.6.2 2.3.5.7.4 1.4.7 2 1.3.5.5 1.1 1.3 1.4 2.2.4.9.5 1.8.5 2.9 0 1.1-.2 2-.5 2.9-.4.9-.9 1.6-1.4 2.2-.5.5-1.3 1.1-2 1.3-.7.4-1.4.5-2.3.5-1.8 0-3.4-.7-4.5-2.3V57h-3.1v.1zm3.1-10.8c0 1.3.4 2.3 1.1 3.1.7.7 1.6 1.3 2.7 1.3s2-.4 2.7-1.3c.7-.7 1.1-1.8 1.1-3.1s-.4-2.3-1.1-3.1c-.7-.7-1.6-1.3-2.7-1.3s-2 .4-2.7 1.3-1.1 1.9-1.1 3.1zm13.1 0c0-1.3.4-2.3.9-3.4s1.4-2 2.5-2.5 2.3-.9 3.6-.9 2.5.4 3.6.9 2 1.4 2.5 2.5.9 2.2.9 3.4c0 .9-.2 1.8-.5 2.7-.4.9-.9 1.6-1.4 2.2-.5.7-1.4 1.1-2.3 1.4-.9.4-1.8.5-2.9.5-1.3 0-2.5-.4-3.6-.9s-2-1.4-2.5-2.5c-.4-.9-.8-2.1-.8-3.4zm3 0c0 1.3.4 2.2 1.1 3.1.7.9 1.8 1.3 2.9 1.3 1.3 0 2.2-.4 2.9-1.3.7-.9 1.1-1.8 1.1-3.1s-.4-2.2-1.1-3.1c-.7-.9-1.8-1.3-2.9-1.3-1.3 0-2.2.4-2.9 1.3s-1.1 2.1-1.1 3.1zm14.2 6.7V39.7h6.8c1.3 0 2.3.4 3.2.9.7.5 1.3 1.4 1.3 2.3 0 1.4-.7 2.5-2.2 3.1 1.8.5 2.7 1.6 2.7 3.2 0 1.1-.4 2-1.3 2.7-.9.7-2.2.9-3.6.9h-7v.2zm3.1-7.7h3.1c.5 0 1.1-.2 1.4-.5.4-.4.5-.7.5-1.3s-.2-.9-.5-1.1c-.4-.4-.9-.4-1.4-.4h-3.2v3.2h.1zm0 5.3h3.4c.7 0 1.3-.2 1.6-.5.4-.4.5-.7.5-1.3 0-.5-.2-.9-.5-1.3-.4-.4-1.1-.4-1.8-.4h-3.2v3.5zM68.8 84V66.4h7c2 0 3.8.5 4.8 1.6 1.3 1.1 1.8 2.5 1.8 4.3 0 1.3-.4 2.3-.9 3.4-.7.9-1.4 1.6-2.5 2-1.1.4-2.2.7-3.6.7h-3.6V84h-3zm3.2-8.6h3.6c1.1 0 2.2-.4 2.7-.9.7-.5 1.1-1.4 1.1-2.3 0-1.1-.4-1.8-1.1-2.3-.7-.5-1.6-.9-2.9-.9h-3.6v6.5h.2zm12.6 2c0-1.3.4-2.3.9-3.4s1.4-2 2.5-2.5 2.3-.9 3.6-.9c1.3 0 2.5.4 3.6.9s2 1.4 2.5 2.5.9 2.2.9 3.4c0 .9-.2 1.8-.5 2.7-.4.9-.9 1.6-1.4 2.2-.5.7-1.4 1.1-2.3 1.4-.9.4-1.8.5-2.9.5-1.3 0-2.5-.4-3.6-.9s-2-1.4-2.5-2.5c-.4-1.1-.8-2.1-.8-3.4zm3.1 0c0 1.3.4 2.2 1.1 3.1.7.9 1.8 1.3 2.9 1.3 1.3 0 2.2-.4 2.9-1.3.7-.9 1.1-1.8 1.1-3.1s-.4-2.2-1.1-3.1c-.7-.9-1.8-1.3-2.9-1.3-1.3 0-2.2.4-2.9 1.3-.8.8-1.1 1.8-1.1 3.1zm13.6 0c0-1.3.4-2.5.9-3.6s1.4-2 2.5-2.5c1.1-.7 2.2-.9 3.6-.9 1.3 0 2.2.2 3.1.5.9.4 1.6.9 2.3 1.6l-2 2c-.5-.5-1.1-.9-1.6-1.3s-1.1-.4-1.8-.4c-1.1 0-2 .4-2.7 1.3-.7.9-1.1 1.8-1.1 3.1s.4 2.2 1.1 3.1c.7.9 1.6 1.3 2.9 1.3.7 0 1.3-.2 1.8-.4.5-.4 1.1-.7 1.6-1.3l1.8 1.8c-.7.9-1.4 1.4-2.3 1.8-.9.4-1.8.7-3.1.7s-2.5-.4-3.6-.9-1.8-1.4-2.5-2.5-.9-2.1-.9-3.4zm14.2 0c0-1.3.4-2.5.9-3.6s1.4-2 2.5-2.5 2.2-.9 3.6-.9c1.3 0 2.2.2 3.1.5s1.6.9 2.3 1.6l-2 2c-.5-.5-1.1-.9-1.6-1.3s-1.1-.4-1.8-.4c-1.1 0-2 .4-2.7 1.3-.7.9-1.1 1.8-1.1 3.1s.4 2.2 1.1 3.1c.7.9 1.6 1.3 2.9 1.3.7 0 1.3-.2 1.8-.4.5-.4 1.1-.7 1.6-1.3l1.8 1.8c-.7.9-1.4 1.4-2.3 1.8-.9.4-1.8.7-3.1.7s-2.5-.4-3.6-.9-1.8-1.4-2.5-2.5c-.5-1.1-.9-2.1-.9-3.4zm15.1 6.6V70.8h3.1v9c2.3-3.2 4.3-6.3 6.3-9h2.9V84h-3.1v-8.8l-6.3 8.8h-2.9zm16 0V70.8h3.1v9c2.3-3.2 4.3-6.3 6.3-9h2.9V84h-3.1v-8.8l-6.3 8.8h-2.9z"/></g></svg>