<svg version="1.1" id="Слой_1" xmlns="http://www.w3.org/2000/svg" x="0" y="0" viewBox="0 0 269.5 88" xml:space="preserve"><path d="M173.5 62.6c-6.3-9.4-15.4-14.7-24.8-14.7h-24.4l17.2 25.4c6.3 9.2 15.3 14.7 24.8 14.7h24.4l-17.2-25.4zM242.3 8c-10.6 0-22.1 8.2-31.7 22.5l-26.8 39.9 12 17.6h3.3c10.6 0 22.1-8.2 31.7-22.5L269.5 8h-27.2zM18.6 28h-4.1c-.8 0-1.4.2-2 .6-.4.4-.8 1-.8 2 0 .6.2 1 .4 1.4.4.2 1 .4 1.6.4.8 0 1.6-.2 2.3-.4 1-.4 1.8-.6 2.3-1v-3h.3zm1.3 8.2c-.8 1-1.8 1.8-2.7 2.3s-2 1-3.1 1.4c-1 .4-2 .6-2.9.6-1 .2-1.6.2-2.2.2-2 0-3.5-.2-4.7-.8-1.2-.6-2.2-1.4-2.7-2.2-.6-1-1-2-1.2-3.1S0 32.5 0 31.3c0-2 .2-3.7.8-5.1.6-1.4 1.6-2.3 2.5-3.1 1.2-.8 2.3-1.4 3.9-1.8 1.6-.4 3.1-.6 4.9-.6h6.6v-.6c0-.4 0-.8-.2-1.2 0 0-.2-.4-.6-.6-.4-.2-.8-.4-1.4-.4-.6-.2-1.6-.2-2.5-.2h-1.6c-.6 0-1.4 0-2.2.2-.8 0-1.6.2-2.3.2-.8 0-1.4.2-2 .2-.4 0-.8.2-1.2.2h-.8c-.2 0-.4-.2-.4-.4-.2-.4-.4-.8-.4-1.2L2.3 13c-.2-.6 0-1.2.2-1.6.2-.4 1-1 2.2-1.4 1 0 1.8-.4 2.7-.6 1-.2 2-.4 2.9-.6s2-.2 2.9-.2h2.5c3.1 0 5.7.2 7.4.8 2 .6 3.3 1.4 4.3 2.3 1 1 1.8 2.3 2 3.9.4 1.6.6 3.3.6 5.3v8c0 1.4.2 2.2.4 2.5.4.4 1 .6 2 .6.6 0 1 .2 1.2.4s.2.4.2 1v5.1c0 .6-.2 1-.6 1.2s-.8.4-1.6.6c-.8.2-1.6.4-2.3.4H27c-.8 0-1.6 0-2.3-.2-.8-.2-1.6-.4-2.2-.6-.6-.4-1.2-.8-1.8-1.4 0-.6-.4-1.3-.8-2.3zm42.7-5.1c1 0 1.6.6 1.6 1.6v6.1c0 1-.6 1.6-1.6 1.6H38.3c-.6 0-1-.2-1.2-.4s-.2-.6-.2-1v-5c0-.4 0-.8.2-1.2 0-.4.4-1 1-1.6l11.5-12.9H39.3c-1 0-1.6-.6-1.6-1.6v-6.3c0-1 .6-1.6 1.6-1.6h23.1c.6 0 1 .2 1.2.4.2.2.2.6.2 1v5.1c0 .4 0 .8-.2 1.2-.2.4-.4 1-1 1.6L51 30.9h11.5v.2zm24.6 6.4c-1.8 1.2-3.3 2-5.1 2.5-1.8.4-3.1.8-4.3.8-2.3 0-4.1-.4-5.3-1.2-1.2-.8-2.2-1.8-2.7-2.9-.6-1.2-1-2.5-1-3.9-.2-1.6-.2-2.9-.2-4.5V10.8c0-.2 0-.6.2-1s.6-.6 1.2-.6h8.8c.6 0 1 .2 1.2.4.2.2.4.6.4 1V26c0 1.6.2 2.7.8 3.1.6.4 1.4.6 2.3.6.8 0 1.4-.2 2-.4l1.8-.6V10.6c0-.2 0-.6.2-1 .1-.4.5-.6 1.1-.6h8.8c.6 0 1 .2 1.2.4.2.2.4.6.4 1v28.2c0 .4-.2.8-.4 1s-.6.4-1.2.4h-8.8c-.6 0-1.2-.2-1.2-.6-.2-.4-.2-.8-.2-1v-.9zm29.9-23.8c.8-.6 1.4-1.2 2.3-1.8.8-.6 1.6-1.2 2.3-1.6.8-.4 1.6-.8 2.3-1.2.6-.2 1.4-.4 2-.4.8-.2 1.6-.2 1.8 0 .4.2.6.8.8 1.6l1 7.8v.8c0 .2 0 .4-.2.6-.2.2-.4.2-.6.4-.4.2-.8.2-1.4.4-2 .4-3.7.8-5.3 1.2s-3.3.8-5.1 1.6v15.6c0 .2 0 .6-.2 1s-.6.6-1.2.6H107c-.6 0-1-.2-1.2-.4-.2-.2-.4-.6-.4-1V10.6c0-.4.2-.8.4-1 .2-.2.6-.4 1.2-.4h8.8c.6 0 1 .2 1.2.6.2.4.2.8.2 1-.1 0-.1 2.9-.1 2.9zM153.5 25h-10.2c-1.2 0-2.2.2-2.9.4-.8.2-1.6.6-2.3 1.2-.6.6-1.2 1.4-1.4 2.2-.4 1-.6 2.2-.6 3.5 0 2.2.4 3.5 1.2 4.3s2.3 1.2 4.5 1.2c1 0 2-.2 3.1-.4s2.2-.6 3.3-1c1.2-.4 2.2-.8 2.9-1.4 1-.4 1.8-.8 2.3-1.2V25zm0 11.6c-1 .6-1.8 1-2.7 1.6-1 .4-2 1-2.9 1.4s-2.2.6-3.3 1c-1.2.2-2.3.4-3.9.4-2.9 0-4.9-.8-6.1-2.2-1.2-1.4-2-3.5-2-6.3 0-3.5 1-6.3 2.7-7.8 1.8-1.8 4.7-2.5 8.6-2.5h9.8v-2.7c0-1.2-.2-2.3-.4-3.1-.2-.8-.6-1.6-1.2-2.2-.8-.8-1.6-1.2-2.5-1.4-1-.2-2.3-.4-3.9-.4-1.4 0-2.7 0-4.5.2-1.8 0-3.3.2-4.7.4-.6 0-1-.2-1-.4l-.2-1.2c0-.4.2-.8.8-1s1.4-.4 2.3-.6c.8-.2 1.8-.4 2.7-.4 1-.2 1.8-.2 2.7-.2h2.3c2.3 0 4.3.2 5.7.6 1.4.4 2.5 1.2 3.3 2 .8 1 1.4 2 1.6 3.3.2 1.4.4 2.9.4 4.7v15.4c0 .6 0 1 .2 1.4 0 .4.2.6.4.8s.4.2.8.4c.4 0 .8.2 1.4.2.4 0 .8.2.8.6v1.2c0 .2 0 .4-.2.6-.2.2-.4.2-.8.4-2 .2-3.5 0-4.3-.4-1.1-.9-1.7-2.1-1.9-3.8zm12.9-26c0-.4 0-.6.2-.8s.4-.2.8-.2h1.6c.4 0 .6 0 .6.2.2.2.2.4.2.8v28.6c0 .4 0 .6-.2.8s-.4.2-.6.2h-1.6c-.4 0-.6 0-.8-.2s-.2-.4-.2-.8V10.6zm3.7-8.4c0 .6-.2 1.2-.4 1.6-.2.4-.8.8-1.8.8s-1.6-.2-1.8-.8c-.2-.4-.4-1-.4-1.6s.2-1.2.4-1.6c.3-.4.9-.6 1.9-.6.8 0 1.4.2 1.8.6.3.4.3 1 .3 1.6m20.6 10.7c-.8.2-1.6.4-2.5.8-.8.2-1.6.6-2.3 1-.8.4-1.4.6-2 1-.6.2-1 .6-1.4.8v23.3c0 .6-.4 1-1 1h-1.8c-.4 0-.6 0-.6-.2-.2-.6-.2-.8-.2-1.2V10.6c0-.6.2-1 .8-1h1.6c.4 0 .6 0 .8.2.2.2.2.4.2.8v2.7c.2-.2.8-.6 1.4-.8.6-.4 1.2-.8 2-1.2.8-.4 1.6-.8 2.3-1.2.8-.4 1.6-.6 2.5-.8h.4s.2.2.2.4l.2 2.2c0 .6-.2.8-.6 1" fill="#fff" opacity=".5"/></svg>