<svg version="1.1" id="Слой_1" xmlns="http://www.w3.org/2000/svg" x="0" y="0" viewBox="0 0 137.2 88" xml:space="preserve"><path d="M19.6 88l5.6-27.9h9.1L28.7 88h-9.1zm27.5-9.2h5.7l-1.5-10.1-4.2 10.1zM34.3 88L48 60.1h8.9L62.5 88h-8.4l-.4-3.3h-8.9L43.3 88h-9zm36.8 0l3.1-21.1h-8l1.3-7.1H92l-1.3 7.1h-7.6L80 88h-8.9zm30.6-9.2h5.7L106 68.7l-4.3 10.1zM88.9 88l13.7-27.9h8.9l5.6 27.9h-8.5l-.3-3.3h-8.9L98 88h-9.1zm48.3-59.5H94.4c-1.6 7.9-7.1 14.4-17.9 18.9 1.2 3.7 5.5 7.2 9.9 7.2h23.2c3.6 0 6.4-2.9 7.5-5.3H93.5c-1.5-.3-1.5-1.5 0-1.6h23.2c3.1 0 5.7-2.5 7.3-5.3H96.8c-1.3-.3-1.3-1.3 0-1.6h27.3c2.8 0 5.2-3.2 6.3-5.3h-29.9c-1.5-.1-1.5-1.6 0-1.6h30.4c2.4-.2 4.7-2.7 6.3-5.4zM0 28.5h42.8c1.6 7.9 7.1 14.4 17.9 18.9-1.2 3.7-5.5 7.2-9.9 7.2H27.7c-3.6 0-6.4-2.9-7.5-5.3h23.6c1.5-.3 1.5-1.5 0-1.6H20.7c-3.1 0-5.7-2.5-7.3-5.3h27.1c1.3-.3 1.3-1.3 0-1.6H13.2c-2.8 0-5.2-3.2-6.3-5.3h29.9c1.5-.1 1.5-1.6 0-1.6H6.3c-2.4-.2-4.7-2.7-6.3-5.4zM54.7 4.9c1.6 1.3 3.3 2.5 5.2 3.3 1.6-3.2 3.9-5.9 6.4-8.3-4.2.6-8.2 2.2-11.6 5zm-7.6 15.6h9.6c.3-3.9 1.1-7.3 2.5-10.9-2-.9-3.9-2-5.6-3.6-4 4-6.1 9.1-6.5 14.5zm20.8-8.9v8.9h-9.6c0-3.5.9-7.1 2.4-10.4 2.2 1 4.8 1.5 7.2 1.5zm14.6-6.7c-1.6 1.3-3.3 2.5-5.2 3.3-1.7-3.2-3.9-5.9-6.5-8.3 4.3.6 8.3 2.2 11.7 5zm7.6 15.6h-9.5c-.1-3.9-1.1-7.5-2.5-10.9C80 8.7 82 7.5 83.7 6c4 4.1 6.2 9.2 6.4 14.5zm-20.6-8.9v8.9H79c0-3.6-.9-7.1-2.4-10.4-2.3 1-4.7 1.5-7.1 1.5zM54.7 37.7c1.6-1.2 3.5-2.5 5.2-3.2 1.7 3.2 3.9 5.9 6.4 8.1-4.2-.5-8.2-2.1-11.6-4.9zm-7.6-15.6h9.6c.3 4 1.1 7.5 2.5 11.1-2.1.9-4 2.1-5.7 3.6-3.9-4-6-9.1-6.4-14.7zm20.8 9v-8.9h-9.6c0 3.6.9 7.2 2.4 10.4 2.2-1 4.8-1.4 7.2-1.5zm14.6 6.6c-1.5-1.3-3.3-2.5-5.2-3.2-1.7 3.2-3.9 5.9-6.5 8.1 4.3-.5 8.3-2.1 11.7-4.9zm7.6-15.6h-9.5c-.1 4-.9 7.5-2.5 11.1 2 .9 3.9 2.1 5.6 3.6 3.9-4 6.2-9.2 6.4-14.7zm-20.6 9v-8.9H79c0 3.6-.9 7.1-2.4 10.4-2.2-1-4.9-1.4-7.1-1.5zM67.9.9C65.4 3 63 5.8 61.5 8.8c2 .7 4.3 1.2 6.4 1.2V.9zm1.6 0C72 3 74.3 5.7 75.9 8.8c-2 .8-4.3 1.2-6.4 1.2V.9zm-1.6 40.8c-2.5-2-4.9-4.9-6.4-8 2-.7 4.3-1.2 6.4-1.2v9.2zm1.6.2c2.5-2.1 4.8-4.9 6.4-8-2-.7-4.3-1.2-6.4-1.2v9.2z" opacity=".5" fill="#fff"/></svg>