<svg version="1.1" id="Слой_1" xmlns="http://www.w3.org/2000/svg" x="0" y="0" viewBox="0 0 86.7 88" xml:space="preserve"><style>.st1{fill:#fff}</style><g opacity=".5"><path class="st1" d="M6 33c.7.3 1.5-.1 1.6-.8.3-.7-.1-1.5-.8-1.6-.7-.3-1.5.1-1.6.8-.3.7 0 1.5.8 1.6zm5.3-6.5c.1 0 .1.1.3 0l.5-.8c.1-.1 0-.3 0-.3L10 24.1l.3-.4c.7-1.1.4-2.3-.7-2.9-.8-.5-1.3-.4-1.7-.1-.4.3-.8.7-.9 1.1L6.1 23c0 .1-.1.1 0 .3l5.2 3.2zm-3.6-4.3c.3-.2.6-.8 1.4-.2s.5.9.3 1.5l-.1.3-1.6-.9v-.7zm9.9-3.4c1.6-1.6-.3-3.5-.8-4-.4-.4-2.4-2.3-4-.7s.3 3.5.8 4c.4.4 2.4 2.3 4 .7zm-4-4c.7-.7 1.7.3 2.4.9.5.5 1.6 1.7.9 2.3-.7.7-1.9-.4-2.4-.9-.6-.6-1.6-1.7-.9-2.3zM24 13.6c.4-.3.8-.8.9-1.2v-.1l-.1-.1-.5-.3h-.1s-.1.1-.1.3c-.1.3-.3.4-.5.7-.4.3-.7.1-.9.1-.5-.1-1.1-1.1-1.3-1.5-.7-1.1-.8-1.6-.8-2 0-.3.3-.5.4-.7.5-.1.8-.1 1.1-.1h.3v-1s-.1-.1-.3-.1c-.5-.1-1.1.1-1.5.4-.8.5-1.6 1.7-.1 4.1.6 1.1 1.8 2.5 3.5 1.5zm6.6-3.3c.5-.3.9-.5 1.2-.9 0 0 .1-.1 0-.1l-.1-.1-.4-.4s-.1-.1-.1 0H31c-.1.3-.4.4-.7.5-.4.1-.7 0-.9 0-.5-.3-.9-1.3-1.1-1.6-.3-1.2-.5-1.7-.3-2 .1-.3.3-.4.5-.5.3-.1.5 0 .8 0h.3v-.1l.1-.7v-.1s-.1-.1-.3-.1c-.4-.2-1-.2-1.4.1-.9.4-2 1.3-.9 4 .6 1 1.5 2.7 3.5 2zm5.2-1.8l.9-.1c.1 0 .1-.1.1-.1l.8-2.9c.2-.3.2-.7.4-1.4 0 .3.1.8.1 1.1l.4 2.9c0 .1 0 .1.3.1l.9-.1c.1 0 .1-.1.1-.3l-.9-5.9c0-.1 0-.1-.3-.1l-.6.2c-.1 0-.1.1-.3.3l-.8 2.7c0 .3-.3 1.1-.3 1.3-.1-1.1-.1-.8-.1-1.3l-.4-2.7c0-.1 0-.1-.3-.1l-.9.1c-.1 0-.1 0-.1.3l.9 5.9s0 .1.1.1zM47 1.3c.7 0 1.1-.1 1.2-.4.3-.3.4-.4.4-.5s0-.1-.1-.1L48 .2h-.1s0 .1-.1.1c-.1.3-.3.4-.5.4-.3 0-.4-.1-.5-.4 0-.1 0-.1-.1-.3h-.8s-.1 0-.1.1 0 .3.1.5c.2.3.6.6 1.1.7zm-2.5 6.4l.9.1c.1 0 .1 0 .3-.1L47.2 5c.1-.3.4-.5.7-1.2 0 .3-.1.8-.1 1.1l-.3 2.9c0 .1 0 .1.1.1l.9.1c.1 0 .1-.1.1-.1l.5-6c0-.1 0-.1-.1-.1l-.9-.1c-.1 0-.1 0-.3.1l-1.3 2.4c-.1.3-.5 1.1-.7 1.3.1-1.1.1-.8.1-1.3l.3-2.7c0-.1 0-.1-.1-.1l-.9-.1c-.1 0-.1 0-.1.1l-.5 6c-.2.2-.2.3-.1.3zm10.4 2c.5.1 1.1.1 1.5 0 0 0 .1 0 .1-.1v-.1l-.1-.5s0-.1-.1-.1H56c-.3 0-.5.1-.8 0-.4-.1-.5-.4-.7-.7-.1-.5.1-1.6.3-1.9.5-1.1.8-1.6 1.1-1.7.3-.1.5-.1.8 0s.4.3.7.5l.1.1h.1l.5-.5.1-.1s0-.1-.1-.3c-.3-.4-.8-.7-1.2-.8-.9-.3-2.4-.1-3.3 2.5-.5 1.2-.7 3.2 1.3 3.7zm6 2.5c.1 0 .1.1.3-.1l1.3-2.3.4.1c.5.3.4.7.3.9l-.5 1.2c-.1.3-.3.7-.1.9.1.4.5.7.7.8.1.1.1 0 .3 0l.5-.5s.1-.1 0-.3l-.1-.1c-.3-.1-.1-.3 0-.8l.1-.7c0-.1.3-.8-.3-1.2.5.1.8-.1 1.1-.4l.4-.5c.3-.4.4-.4.7-.3h.3c.1 0 .1 0 .1-.1l.1-.7c0-.1 0-.1-.1-.1-.1-.1-.5-.3-.8-.1-.5 0-.8.3-.9.5l-.5.7c-.4.4-.7.4-1.1.3l-.3-.1 1.2-2c.1-.1 0-.3-.1-.3l-.9-.5c-.1 0-.1-.1-.3.1l-2.9 5.2c-.1.1 0 .3.1.3l1 .1zm6.5 4.6c.1.1.1.1.3 0l2.8-1.2c.3-.1.7-.3 1.2-.5l-.7.7-2 2.2s-.1.1 0 .3l.7.7c.1.1.3 0 .3 0l4-4.4s.1-.1 0-.3l-.7-.5c-.1-.1-.1-.1-.3 0l-2.5 1.1c-.3.1-1.1.4-1.5.7.7-.8.7-.7.9-.9l1.9-2s.1-.1 0-.3l-.7-.7s-.1-.1-.3 0l-4 4.4s-.1.1 0 .3l.6.4zm13.2 4.4c.3 0 .4 0 .5-.1.1 0 .1-.1 0-.1l-.3-.5s0-.1-.1-.1h-.1c-.3 0-.4 0-.5-.3-.1-.3-.1-.4 0-.7 0-.1.1-.1.1-.3l-.4-.4h-.1c-.1.1-.3.3-.3.4-.1.3-.1.8.3 1.3.1.6.5.8.9.8zm-7.9 1.3l.5.8c.1.1.1.1.3.1l2.9-.4c.3 0 .7-.1 1.3-.3-.3.1-.7.4-.9.5l-2.4 1.6c-.1 0-.1.1 0 .3l.6.9c.1.1.1.1.3 0l4.9-3.3c.1 0 .1-.1 0-.3l-.5-.7c-.1-.1-.1-.1-.3-.1l-2.7.4c-.3 0-1.2.3-1.5.3.9-.5.8-.4 1.1-.7l2.3-1.5c.1 0 .1-.1 0-.3L78 19c0-.1-.1-.1-.3 0l-4.9 3.3c-.1-.1-.1.1-.1.2zm7.3 7.9c-.7.3-1.1.9-.8 1.6.3.7.9 1.1 1.6.8s1.1-.9.8-1.6c-.2-.7-.9-1-1.6-.8zM.6 40.7h.1l.5-.3s.1 0 .1-.1c0 0 0-.1-.1-.3-.1-.3-.1-.5-.1-.8 0-.4.3-.7.5-.8.5-.3 1.6-.1 2-.1 1.2.1 1.7.3 2 .7.1.1.3.5.3.8 0 .3-.3.5-.4.7l-.1.1s0 .1.1.1l.5.4h.1s.1 0 .3-.1c.4-.3.5-.9.7-1.3.1-.9-.3-2.4-3.1-2.8-1.3-.1-3.2-.1-3.5 2-.1.5 0 1.1.3 1.5-.4.3-.4.3-.2.3zm2.9 9.1c.7 0 3.3-.3 3.1-2.5-.1-2.3-2.8-2.1-3.5-2-.7 0-3.3.3-3.1 2.5.2 2.1 2.8 2 3.5 2zm-2.4-2.1c-.1-.9 1.5-1.1 2.3-1.2.9-.1 2.3-.1 2.4.8.1.9-1.3 1.1-2.3 1.2-.8 0-2.4.1-2.4-.8zm7.8 9.7c-.2-.8-.8-1.4-1.7-1.4-.5-.1-1.2 0-1.6.1l-.3-.7 2.3-.8c.1 0 .1-.1.1-.3l-.3-.8c0-.1 0-.1-.3-.1l-5.6 1.9c-.1 0-.1.1-.1.3l.3.8c0 .1.1.1.3.1l2.4-.8.3.7c-.4.1-1.1.4-1.5.9-.7.7-.8 1.3-.5 2.1.7 2.1 3.2 1.3 3.9 1.1.5-.1 3-1 2.3-3.1zm-5.3 1.8c-.3-.9 1.2-1.5 1.9-1.7.8-.3 2.3-.7 2.5.1.3.9-1.2 1.5-1.9 1.7-.8.3-2.2.7-2.5-.1zm7.5 3.9c-.1 0-.3-.1-.4 0l-.1.1-.3.5v.1s.1 0 .1.1c.4.1.7.4.7.5.4.7-.1 1.1-.3 1.2-.1.1-.8.5-1.3-.4l-.1-.1c-.1-.1-.1-.1-.3 0l-.5.4c-.1 0-.1.1 0 .3l.1.3c.1.1.3.4.3.7 0 .3-.1.5-.5.8-.1.1-.4.1-.7.1-.4 0-.5-.3-.7-.5-.3-.4-.3-.8-.3-.9V66H6l-.1.1c0 .4.1 1.1.5 1.6.9 1.5 2 1.3 2.8.8.7-.4.9-1.1.7-1.7.3.1.9.5 1.7 0 .9-.5 1.1-1.5.4-2.4-.1-.9-.5-1.2-.9-1.3zM22 74.7l-3.1-2.4c-.1-.1-.1 0-.1 0l-.5.7s-.1.1 0 .1l.9.8-3.2 3.8s-.1.1 0 .3l.7.5s.1.1.3 0l3.2-3.9.9.7s.1.1.3 0l.7-.5c-.1 0 0 0-.1-.1zm6.4 3.7l-.8-.5c-.1-.1-.1 0-.3.1l-1.5 1.7c-.3.3-.4.5-.9 1.1.1-.5.1-.9.3-1.3l.4-2.3c0-.1 0-.1-.1-.3l-.8-.5c-.1-.1-.3-.1-.3 0v.1l-.5 4.4v.1l.5.3-.3.3c-.1.1-.4.5-.9.3l-.4-.4-.1-.1h-.1l-.6.3c-.1 0-.1.1.1.4s.5.5.8.7c.4.3.8.3 1.1.1.4-.1.7-.4.9-.5l3.6-3.7.1-.1-.2-.2zm5.3 1.9l-1.5-.4c-.1 0-.1 0-.3.1l-1.6 5.7c0 .1 0 .1.1.3l.8.3c.1 0 .3 0 .3-.1l.7-2.3.5.1c1.2.4 2.3-.3 2.5-1.5.3-.8 0-1.3-.3-1.6-.3-.4-.8-.6-1.2-.6zm.4 2c-.3.8-.8.8-1.3.7l-.3-.1.5-1.7.4.1c.3-.1 1 0 .7 1zm9.9-.7h-1c-.1 0-.1.1-.3.1l-1.2 2.5c-.1.3-.5 1.1-.7 1.5 0-1.1.1-.8.1-1.3l.1-2.7c0-.1 0-.1-.1-.1H40c-.1 0-.1 0-.1.1l-.3 6c0 .1 0 .1.1.1h.9c.1 0 .1 0 .3-.1l1.3-2.7c.1-.3.3-.5.5-1.2 0 .3 0 .8-.1 1.1l-.1 2.9c0 .1 0 .1.1.1h.9c.1 0 .1-.1.1-.1l.3-6c.3-.2.2-.2.1-.2zm8.5-1.2l-.8.1c-.1 0-.1 0-.1.3l.5 2.3-1.7.4-.5-2.3c0-.1-.1-.1-.3-.1l-.9.1c-.1 0-.1 0-.1.3l1.2 5.9c0 .1.1.1.3.1l.9-.1c.1 0 .1 0 .1-.3l-.5-2.5 1.7-.4.5 2.5c0 .1.1.1.3.1l.9-.1c.1 0 .1-.1.1-.3l-1.3-5.9c-.1-.1-.1-.1-.3-.1zm10.6 1.7c0-.1-.1-.1-.3-.1l-.4.1-2.1-4.7c0-.1-.1-.1-.3-.1l-2.8 1.2c-.1.1-.1.1-.1.3l.8 1.6c.1.1.4.9.7 1.7.1.5.3 1.1.1 1.6l-.1.1c-.1.1-.1.1-.1.3l.9 1.9c0 .1.1.1.3.1l.7-.4c.1 0 .1-.1.1-.3l-.5-.9 2.4-1.1.5 1.2c0 .1.1.1.3.1l.7-.4c.1-.1.1-.1.1-.3l-.9-1.9zm-3.2 1.4c0-.4 0-.8-.1-1.2s-.3-1.1-.7-1.9l-.4-1.2.8-.4 1.9 4-1.5.7zM67.4 73v-.1c0-.1-.1 0-.3 0l-.8.4c-.1.1-.1.1 0 .3l.9 2.1c.1.4.3.7.5 1.2-.5-.4-.8-.5-1.1-.8l-1.9-1.3c-.1-.1-.1-.1-.4 0l-.7.5c-.1.1-.1.1-.1.3l.1.1 3.7 2.4h.1l.5-.4.1.3c.1.1.3.7-.1.9-.1.1-.3.1-.5.1h-.1v.1l.1.7c0 .1 0 .1.4.1.4-.1.7-.3.9-.4.4-.3.5-.7.7-.9.1-.4 0-.8-.1-1.1L67.4 73zm9-1.6l-.5-.1h-.1s0 .1-.1.3c0 .3-.1.5-.3.7-.3.3-.7.4-.8.4-.5 0-1.3-.7-1.7-1.1-.9-.8-1.2-1.2-1.3-1.6 0-.3.1-.5.3-.8.1-.3.4-.3.8-.4 0 0 .1 0 .3-.1v-.1l-.4-.6v-.1h-.3c-.5 0-.9.4-1.2.7-.7.7-1.2 2.1.9 4 .9.9 2.5 2 4 .4.4-.4.7-.9.7-1.3v-.1c-.1-.1-.1-.1-.3-.2zm-.2-7.9l.5-.9v-.3l-.5-.5s-.1-.1-.3 0l-2 3.3c-.1.1 0 .1 0 .1l.7.4s.1.1.1 0l.7-1.1 4.3 2.5c.1 0 .1.1.3 0l.4-.8c0-.1.1-.1 0-.3l-4.2-2.4zm7.6-4.3l-2.3-.8.1-.4c.4-1.2 0-2.3-1.2-2.7-.8-.3-1.3 0-1.7.3-.4.3-.5.8-.7 1.2l-.5 1.5c0 .1 0 .1.1.3l5.6 2c.1 0 .1 0 .3-.1l.3-.8c.1-.3 0-.3 0-.5zm-3.1-1.3l-.1.3-1.7-.7.1-.4c.1-.3.3-.9 1.1-.7.9.4.7 1 .6 1.5zm5.7-10.6l-5.9-.7c-.1 0-.1 0-.3.1l-.1.9c0 .1 0 .1.1.3l2.4 1.5c.3.1.9.5 1.3.8-1.1-.3-.8-.3-1.3-.3l-2.6-.2c-.1 0-.1 0-.3.1l-.1.9c0 .1 0 .1.1.3l5.9.7c.1 0 .1 0 .3-.1l.1-.9c0-.1 0-.1-.1-.3l-2.4-1.7c-.3-.1-.5-.4-1.2-.7.3 0 .8.1 1.1.1l2.9.4c.1 0 .1 0 .3-.1l.1-.9c-.1-.2-.3-.2-.3-.2zm-6.5-9.4l.1.9c0 .1.1.1.3.3l2.7.9c.3.1 1.1.4 1.5.4-1.1.1-.8 0-1.3.1l-2.7.3c-.1 0-.1 0-.1.3l.1.9c0 .1 0 .1.3.1l5.9-.7c.1 0 .1 0 .1-.3l-.1-.9c0-.1-.1-.1-.1-.1l-2.8-.9c-.3-.1-.7-.3-1.3-.4.3 0 .8 0 1.1-.1l2.9-.3c.1 0 .1 0 .1-.3l-.1-.9c0-.1-.1-.1-.3-.1l-5.9.7c-.4 0-.4 0-.4.1z"/><path class="st1" d="M18.5 65.8l.5.7c2.4 2.7 5.2 4.8 8.3 6.5l.4.3c4.8 2.5 10.1 4 15.7 4s11.2-1.5 16.1-4.1l.4-.3c1.9-1.1 3.6-2.3 5.2-3.7h2v-1.9l.8-.8.5-.7c1.9-2.3 3.5-4.7 4.8-7.3l.4-.8c1.9-4.3 2.9-8.8 2.9-13.6 0-4.7-.9-9.2-2.8-13.3l-.5-.8c-1.3-2.7-2.9-5.2-4.9-7.5l-.5-.7c-2.4-2.7-5.2-4.8-8.3-6.5l-.2-.3c-4.8-2.7-10.3-4-15.8-4s-10.9 1.3-15.7 4l-.4.1c-2.3 1.3-4.4 2.8-6.4 4.7h-6.5v8.4c-.3.5-.5.9-.8 1.5l-.4.8c-1.9 4.1-2.9 8.8-2.9 13.6s.9 9.3 2.9 13.6l.4.8c1.2 2.6 2.8 5 4.8 7.3zm9.2 5.7c-2.5-1.5-4.9-3.3-6.9-5.5 6.3-4.3 13.6-6.7 21-6.9.8.3 1.7.4 2.7.5 1.2.1 2.3.3 3.6.3.9 0 1.9-.1 2.7-.1 1.3-.1 2.4-.4 3.6-.7V69c-3.3-1.2-6.9-1.9-10.5-1.9-5.8 0-11.3 1.5-16.2 4.4zm10.8-38.4H40c-.3.5-.5 1.1-.9 1.6-.1.1-.3.4-.4.5l-.3.3c-.8.7-1.6 1.3-2.7 1.7-.1 0-.1 0-.3.1-.5.3-1.2.4-1.9.5-.3 0-.5.1-.8.1h-7.2v6.7H16V33.3h22.4v-.2zM26 32.5V27h1.9c1.6 0 2.8.1 3.2 1.2.1.4.3.8.3 1.3 0 2-.8 2.7-2.1 2.9H26zm39.5 34.9h-9.7V55.6h9.6v11.8h.1zM49.9 52.1c1.9 0 2.5-.4 4.4-.9h.1v6.4c-1.1.3-2.1.5-3.3.8-.8.1-1.7.3-2.8.3-1.2 0-2.4-.1-3.6-.3-.9-.1-1.9-.3-2.7-.5-4.1-1.2-7.3-3.6-8.9-7.2-.1-.4-.4-.9-.4-1.3-.3-1.1-.4-2.3-.4-3.5v-.4h10.5v.5c0 .8.1 1.6.4 2.3.1.5.4 1.1.7 1.5.3.4.5.7.8.9.9.8 2 1.2 3.3 1.5h.2c.4-.3 1.1-.1 1.7-.1zm-6.5 23.5c-4.9 0-9.9-1.2-14.1-3.3 4.4-2.4 9.5-3.7 14.6-3.7 4.9 0 9.9 1.2 14.1 3.5-4.5 2.3-9.5 3.5-14.6 3.5zm16.1-4.4c-1.6-.9-3.3-1.6-5.1-2.3h8.3c-1 .9-2.1 1.7-3.2 2.3zm7.8-6.5l-.1-.1v-9.7c1.7.8 3.3 1.7 4.9 2.7-1.4 2.6-3 5-4.8 7.1zM75 44.1c0 4.3-.8 8.3-2.5 12.1-1.7-1.1-3.6-2-5.5-2.9v-.9h6.5V42.2H47.8v7.7c-.4-.1-.7-.1-1.1-.3-.8-.3-1.5-.8-2-1.5-.1-.1-.3-.4-.3-.5-.3-.5-.4-1.2-.4-2 .1-4.1 4.8-4.4 6.1-4.4h5.6V39c5.9-1.3 11.6-3.6 16.8-6.8 1.7 3.6 2.5 7.6 2.5 11.9zm-3-13.3c-5.1 3.1-10.5 5.3-16.2 6.7v-5.7H48c-2.1 0-4.3.3-6 .7.1-.7.3-1.3.3-2.1h1.5c8.4 0 16.4-2.4 23.3-6.9 2 1.9 3.6 4.5 4.9 7.3zM43.4 12.4c4.9 0 9.9 1.2 14.4 3.5-4.4 2.3-9.2 3.5-14.1 3.5-5.1 0-10-1.2-14.2-3.6 4.1-2.2 9-3.4 13.9-3.4zm-15.7 4.2c4.8 2.8 10.3 4.3 15.8 4.3s10.9-1.5 15.7-4.1c2.5 1.5 4.9 3.3 6.9 5.5-6.7 4.3-14.4 6.7-22.4 6.7h-1.5c-.4-6.5-6-8.9-10.8-8.9H23c1.6-1.5 3.1-2.7 4.7-3.5zm-16 27.5c0-4.3.8-8.4 2.5-12.4 0 0 .1 0 .1.1v14.5h12.8v-6.8h4.7c-.8 1.7-1.3 3.6-1.3 5.7v.4c0 1.3.1 2.7.5 3.9-5.9 1.3-11.6 3.7-16.8 6.9-1.5-3.9-2.5-8.1-2.5-12.3zm3.1 13.5c5.2-3.2 10.8-5.5 16.6-6.9 1.2 3.2 3.7 5.6 7.1 7.2-6.8.8-13.2 3.2-18.8 7.1-2-2.3-3.6-4.7-4.9-7.4z"/></g></svg>