<svg version="1.1" id="Слой_1" xmlns="http://www.w3.org/2000/svg" x="0" y="0" viewBox="0 0 68.2 88" xml:space="preserve"><path d="M63.9 29.3c-.4 0-.7 0-1.1.1 1.3-.5 2.4-1 3.1-1.7.7-.7 1.3-1.8 1.1-2-.2-.5-2-.4-2.9-.2-.1 0-.4.1-.6.1.6-.5 1.2-1 1.7-1.7.5-.8 1-2.4.7-2.6-.4-.4-2 .1-2.9.5-.1 0-.1 0-.2.1.8-.7 1.4-1.6 1.8-2.3.5-1.1.5-2.4 0-3.2l-.2-.2c-.1 0-.2 0-.4.1l-2.4 2.4c-.6.6-1.3 1.2-2.2 1.9 1.2-1.4 2.3-3 2.9-4.1 1-1.9 1.2-4.9 0-5.6-.2-.1-.5-.2-.6-.1-.2 0-.4.1-.5.4-1.1 2-3.2 5.7-5.4 8.5-.1-.1-.1-.2-.2-.4l-.1-.1-.1.2c-.5 1.3-1.6 2.9-2.9 3.8-.1-.2-.1-.4-.2-.6l-.2-.4-.1.3c-.6 1.1-1.6 1.9-2.5 2.8-.5.4-.8.8-1.2 1.2-1 1.1-1.7 1.9-1.7 3.1 0 1 .5 1.4.8 1.8.4.4.7.7.7 1.3 0 .4-.2.8-.6 1.2-.4.4-1.1.8-2.2 1-1 0-1.7-.4-2.2-1.2.2 0 .6-.1.7-.4.6-.4.7-1.1.8-1.6 0-.5 0-1-.2-1.3l-.1-.1s-.1 0-.1.1c-.2.4-.8.6-1.4.6-1 0-1.6-.5-2-1 .2.1.5.1.7.1.5 0 1-.2 1.2-.6.2-.2.4-.6.4-1 0-.1 0-.1-.1-.1h-.1c-.2.2-.6.4-1 .4-1 0-1.7-1.1-1.8-2v-.7c.1-1.6 1.1-3.1 2.5-4.4l.1.1c.1.1.4.1.6 0 .5-.2 1-.4 1.3-.4 1 0 1.7.2 2 .7.2.4.4.6.2 1 0 .1 0 .2-.1.4.4-.1.8-.6.8-1.2 0-.5-.4-1-1-1.2-.1 0-.1-.1-.2-.1h.1c.4.1.7.4 1.1.6.6.4 1.2.7 2 .7 1.4 0 2.2-1.2 2.3-2.2 0-.1 0-.1-.1-.1s-.1 0-.2.1c0 .4-.5.9-1.2.9s-1.4-.2-2.2-.5c-.6-.2-1.2-.5-1.8-.5h-.5c.4-.1.7-.2 1.1-.4.8-.2 2-.1 2.5.6l.1.1c.1-.1.4-.2.5-.5.2-.4.5-.8.5-1.4 0-.7-.4-1.3-.8-1.7-.5-.4-1.2-.6-1.8-.6 0-.2-.1-.4-.2-.5-.1-.1-.4-.1-.5-.1 0-.1 0-.2-.1-.2.6-.1 1.1-.1 1.4-.2.2-.1.5-.1.7-.2 1.8-.6 2.2-1.6 2.2-2.2.1-.8-.1-1.3-.4-1.8 0-.4-.1-.7-.1-1.2 0-.4.1-.6.2-.7l.5.2c.4.1.6.2 1 .4 1 .4 1.2 1.1 1.2 1.4 0 .7-.2 1.1-.5 1.6-.2.4-.5.7-.5 1.4s.2 1.2.6 1.6c.2.4.5.6.5 1s-.1.6-.2.8-.2.4-.4.5c.1 0 .5-.1.6-.1.7-.4 1.2-.8 1.2-1.6 0-.5-.2-.7-.5-1-.1-.2-.2-.4-.4-.6v-.2c.4.5.8.8 1.3.8.2 0 .5-.1.6-.1.1 0 .2-.1.4-.1.1 0 .2 0 .4.1.1.1.1.2.1.4 0 .1-.1.2-.2.4.1 0 .2-.1.5-.2.5-.4.6-.7.6-1.2 0-.6-.4-1.1-1-1.1-.2 0-.4.1-.5.1-.1.1-.2.1-.5.1s-.2-.1-.2-.4c0-.2.2-.5.5-.7.4-.4.8-.8.8-1.6s-.7-1.8-2.6-2c-.4-.2-.7-.6-1-1l-.5-.5c-.2-.2-1-1-1.7-.8-.2 0-.5.2-.7.4-.4.2-.7.5-1.2.7-.1 0-.2.1-.4.2-.4.4-.4.8-.4 1.1 0 .6.4 1.3.6 2 .2.6.5 1.1.5 1.6.1 1.1-.7 1.7-2.8 2.2 0-.8.2-1.6.4-2 .1-.5.4-.8.4-1.3 0-1.1-1-1.4-1.9-1.4 0 0-.1 0-.1.1v.4h-.4v-.5s0-.1-.1-.1H45c.1-.1.2-.2.2-.5 0-.1-.1-.4-.2-.5h.2l-.1-.1c0-.1-.1-.2-.1-.2.1 0 .2.1.2.1l.1.1h.1V7.7h-.1c-.1 0-.2.1-.4.2.1-.1.1-.2.2-.4h-1.2l.2.2c0 .1.1.2.1.2-.1 0-.2-.1-.2-.1l-.2-.1h-.1V9h.1l.1-.1c.1 0 .2-.1.2-.1 0 .1-.1.2-.1.2l-.1.1h.2c-.1.1-.2.2-.2.5 0 .2.1.4.2.5H44s-.1 0-.1.1v.5h-.4v-.4s0-.1-.1-.1c-.8 0-1.9.4-1.9 1.4 0 .5.1.8.4 1.3.2.5.4 1.1.4 1.9-.5-.1-.8-.2-1.1-.4-1.7-.6-3.1-1.6-4.2-2.8v-1.1c.5-.8 1-1.8 1.3-2.8.8-2.4-.5-3.4-2.5-3.8 0 0-.2 0-.6.1v.4h-.5v-.3h-.2c.5-.1.6-.5.6-.9s-.1-.6-.4-.7h.4c-.1-.2-.5-.6-.6-.8.2 0 .6.5.8.6v-2c-.2.1-.6.5-.8.6 0-.2.5-.6.6-.8h-2c.1.2.5.6.6.8-.2 0-.6-.5-.8-.6v1.9c.2-.1.6-.5.8-.6 0 .2-.5.6-.6.8h.4c-.2.2-.4.5-.4.7 0 .4.2.7.5.8h-.2v.5h-.5v-.2c-.4-.1-.6 0-.8.1-2 .5-3.4 1.4-2.5 3.8.4.8.7 1.9 1.3 2.8V12c-1.1 1.2-2.5 2.2-4.2 2.8-.2.1-.6.2-1.1.4 0-.8.2-1.4.4-1.9.1-.5.4-.8.4-1.3.1-1.3-.8-1.7-1.8-1.7 0 0-.1 0-.1.1v.4h-.4v-.5s0-.1-.1-.1h-.1c.1-.1.2-.2.2-.5 0-.1-.1-.4-.2-.5h.2l-.2-.2c0-.1-.1-.2-.1-.2.1 0 .2.1.2.1l.2.1h.1V7.7h-.1c-.1 0-.2.1-.4.2.1-.1.1-.2.2-.4h-1.2l.2.2c0 .1.1.2.1.2 0 .1-.1 0-.1 0l-.1-.1h-.1V9h.1l.1-.1c.1 0 .2-.1.2-.1 0 .1-.1.2-.1.2l-.1.1h.2c-.1.1-.2.2-.2.5 0 .2.1.4.2.5h-.1s-.1 0-.1.1v.5h-.4v-.4s0-.1-.1-.1c-.8 0-1.9.4-1.9 1.4 0 .5.1.8.4 1.3.2.6.5 1.2.4 2-2-.5-2.9-1.1-2.8-2.2 0-.4.2-1 .5-1.6.4-.7.6-1.4.6-2 0-.2 0-.7-.4-1.1-.1 0-.3-.1-.4-.1-.5-.1-.8-.5-1.2-.7-.4-.2-.6-.4-.7-.4-.7-.1-1.3.5-1.7.8l-.5.5c-.2.4-.6.7-1 1-1.9.2-2.6 1.2-2.6 2 0 .7.5 1.2.8 1.6.2.2.5.5.5.7s-.1.4-.2.4c-.2 0-.4 0-.5-.1-.1-.1-.2-.1-.5-.1-.6 0-1 .4-1 1.1 0 .5.2.8.6 1.2.1.1.2.1.5.2-.1-.4-.1-.5-.1-.6s0-.2.1-.4c.1-.1.2-.1.4-.1.1 0 .2 0 .4.1s.4.1.6.1c.5 0 1.1-.4 1.3-.8v.2c0 .2-.2.4-.4.6-.2.2-.5.5-.5 1 0 .7.5 1.2 1.2 1.6.1 0 .5.1.6.1-.1-.1-.2-.2-.4-.5-.1-.2-.2-.5-.2-.8 0-.5.2-.7.5-1 .2-.4.6-.8.6-1.6 0-.7-.2-1.1-.5-1.4-.2-.4-.5-.7-.5-1.6 0-.4.1-1.2 1.2-1.4.4-.1.6-.2 1-.4l.4-.2c.1.2.2.5.2.7 0 .5-.1.8-.4 1.3-.2.5-.4 1-.4 1.8 0 .6.4 1.6 2.2 2.2.2.1.5.1.7.2.4.1.8.1 1.4.2 0 .1-.1.1-.1.2-.1 0-.4 0-.5.1-.1.1-.2.4-.2.5-.4-.1-1.1.1-1.6.5-.6.5-.8 1.1-.8 1.7 0 .6.1 1.1.5 1.4.1.1.2.4.5.5 0 0 0-.1.1-.1.5-.7 1.6-.8 2.5-.6.4.1.7.2 1.1.4h-.5c-.6 0-1.2.2-1.8.5-.7.2-1.4.6-2.2.5-.7 0-1.2-.5-1.3-.8 0-.1-.1-.1-.2-.1s-.1.1-.1.1c0 .8.8 2.2 2.3 2.2.8 0 1.4-.4 2-.7.4-.2.7-.5 1.1-.6h.1c-.1 0-.1 0-.2.1-.6.2-1 .7-1 1.2 0 .6.5 1.1.8 1.2 0-.1 0-.2-.1-.4 0-.4.1-.6.2-1 .4-.5 1.2-.7 2-.7.4 0 .8.1 1.3.4.2.1.4.1.6 0 .1 0 .1-.1.1-.1 1.6 1.3 2.4 2.9 2.5 4.4v.7c-.1 1.1-.8 2-1.8 2-.4 0-.7-.1-1-.4H25l-.1.1c0 .4.1.7.4 1 .2.4.7.5 1.2.6.2 0 .5 0 .7-.1-.5.5-1.1 1-2 1-.6 0-1.2-.2-1.4-.6l-.1-.1s-.1 0-.1.1c-.2.4-.4.7-.2 1.3 0 .5.2 1.1.8 1.6.2.1.5.2.7.4-.5.8-1.2 1.2-2.2 1.2-1.1 0-1.8-.6-2.2-1-.4-.4-.6-.8-.6-1.2 0-.6.4-1 .7-1.3.5-.4 1-.8.8-1.8 0-1.2-.7-2-1.7-3.1l-1.2-1.2c-.8-.7-1.8-1.7-2.5-2.8l-.1-.2.1.1c-.1.1-.2.4-.2.6-1.2-1-2.3-2.4-2.9-3.8l-.1-.3-.1.1c-.1.1-.2.2-.2.4-2.3-2.7-4.5-6.4-5.6-8.5-.1-.2-.2-.4-.4-.4s-.4 0-.6.1c-1.2.8-1 3.8 0 5.6.6 1.2 1.7 2.6 2.9 4.1-.8-.6-1.5-1.4-2.1-1.8-.7-.6-2-1.9-2.4-2.4-.1-.2-.2-.2-.3-.2s-.2 0-.2.2c-.5.8-.5 2 0 3.2.4.7 1 1.6 1.8 2.3-.1 0-.1-.1-.2-.1-.7-.2-2.5-.8-2.9-.5-.2.4.2 1.9.7 2.6.5.7 1.1 1.2 1.7 1.7-.2-.1-.5-.1-.6-.1-.8-.1-2.6-.2-2.9.2-.1.4.4 1.4 1.1 2 .7.7 1.8 1.2 3.1 1.7H4.4c-.8 0-2.6.2-2.8.7-.1.2.2.6.4.8.2.4 1.2 1.6 3.1 1.9h-.2c-1.1.1-2.5.8-2.5 1.2 0 .1.2.7.8 1.2.2.2.5.4.8.5h-.2l-.1.1v.1l.1.3c-.1.1-.1.1-.1.2v.1s0 .1.1.1l.2.2s0 .1-.1.1c0-.1-.1-.1-.2-.1v-.1s0-.1-.1-.1h-.4s-.1 0-.1.1v.2l-.1-.1h-.4c-.1 0-.1.1-.1.2-.1.1-.1.2-.1.4v.1c-.1 0-.1-.1-.1-.1h-.1s-.1 0-.1.1v.5l-.2.2v.2s0 .1.1.1v.2c0 .1.1.1.1.1l-.1.2v.1c0 .1.2.1.2.1v.1s0 .1.1.1h.1v.1c0 .1.1.1.1.1v.1l.1.1H3l.5.5v.1h.1l.1.1s0 .1.1.1v.1s0 .1.1.1h.7v-.2.3l.4.4.1.1h.5c-.1.2-.2.4-.2.6 0 .5.2.7.7.8-.1.4 0 .6.5.7l4 9.6c-.1.5 0 .8.4 1-.1.1-.1.2-.1.5.2-.1.5-.1.5.1.1.2-.4 1 .2 1.4-.1.5.1.8.6 1.1 0 .2.2 1 .2 1.2-.2.4-1 1-.8 1.7.1.5.2.6.6.7-.1.8.4 1.2 1.1 1.3 0 .6.6.8 1 .8.4.2.5.4.8.6-.4.5-.1 1.1.6 1.2.1.2.4.5.7.6.2.4.6.4.8.2.1-.1.5-.5.2-1 .1-.2.1-.5 0-.7.2-.5 0-1-.2-1.1 0-.2-.1-.6-.1-.8.5-.4 1.2-.7 1.4-1 1.3-1 2.9-1.8 4.5-1.9h1.7c.7.1 1.7.2 2.3-.1.1-.1.2-.2.2-.5-.1-.5-.6-.8-.7-1.2 0-.1-.1-.2-.1-.4.2.1.5.1.7.1.7 0 1.6-.7 1.6-1.7-.1 0-.2.1-.2.1-.4.1-1 .2-1.4-.1-.4-.2-.6-.6-.6-1.1 0-1.1 1-1.8 1.9-1.8 1.2 0 2.8 1.1 2.8 2.9 0 .8-.6 1.2-1.1 1.6s-1.1.7-1.2 1.4v.7s.2-.4.5-.6c.2-.1.6-.4 1.1-.4h.5c-.6.5-1.4 1-2.4 1.3-1.1.5-2 1.1-2.6 1.6-.7.5-1.2.8-1.7.8-.4 0-.6-.2-.6-.4-.1-.4 0-1.1.2-1.3h-.6c-.5.2-1.3.7-1.3 1.8 0 .5.1 1.1.8 1.4-.4.1-.7.4-1 .7-.4.4-.5.8-.5 1.3v.5c.1.6.4 1 .6 1.2.2.2.4.5.4.8v.2l-.1.2.2-.1c.6-.2.7-.7.8-1.2.1-.4.1-.7.4-.8v.2c0 .7.2 1.3.6 1.8.5.6 1.1.8 1.8.8.8 0 1.3-.4 1.8-.7.5 1.2 1.4 1.9 2.8 1.9.6 0 1.2-.2 1.7-.5.2.5.5 1 .8 1.3.2.2.5.5.7.6h.2c.7-.5 1.2-1.1 1.6-1.9.5.4 1.1.5 1.7.5.8 0 1.6-.4 2.2-1 .2-.2.5-.6.6-1.1.5.4 1 .7 1.8.7.7 0 1.3-.2 1.8-.8.4-.5.6-1.1.6-1.8v-.2c.2.2.4.5.4.8.1.4.1.7.4 1 .1.1.6.4.7.4-.1-.1-.1-.4-.1-.6 0-.4.1-.5.4-.8s.5-.6.6-1.2v-.5c0-.5-.1-1-.5-1.3-.2-.4-.6-.6-1-.7.7-.4.8-1 .8-1.4 0-1-.6-1.4-1.2-1.8-.2-.1-.5-.1-.8-.1.4.2.5 1 .2 1.3-.1.1-.2.4-.6.4-.5 0-1-.4-1.7-.8-.7-.5-1.6-1.1-2.6-1.6-1-.4-1.8-.8-2.4-1.3h.5c.5 0 .8.2 1.1.4.2.1.5.6.5.6v-.7c-.1-.7-.7-1.1-1.2-1.4-.6-.4-1.1-.7-1.1-1.6 0-1.8 1.7-2.9 2.8-2.9 1 0 1.9.7 1.9 1.8 0 .5-.2.8-.6 1.1-.5.4-1.1.2-1.4.1 0 0-.1-.1-.2-.1 0 1 .8 1.6 1.6 1.7.4 0 .7-.1 1.1-.2v.2c-.1 1.2-.7 1.3-.5 1.8.4.4 2.4.4 3 .4 1 .1 1.8.5 2.8.7 1.1.2 2.2.2 3.1.6.6.2 1.4 1 1.9 1.1.5.1.8.5 1.3.5.6 0 .7-.5 1.4-.6.5-.1 1.1.1 1.4-.1.4-.1.5-.5.7-.6.4-.2 1-.2 1.3-.6.1-.1.2-.5.2-.6.7-.5 1.3-1.2 1.6-2.2.1 0 .4-.1.4-.4v-.1c.2-.1.4-.4.4-.6s-.1-.5-.4-.6v-.1c0-.1-.1-.2-.1-.4-.2-1.7-1.6-3-3.1-3.4l-.1-.1c-.2-.2-.5-.6-.5-.7.2 0 .7.5 1 .6V49c-.2.2-.6.6-1 .6.1-.2.5-.7.6-1h-2.2c.2.2.6.6.6 1-.2 0-.7-.5-1-.6v2.2c.2-.2.6-.6 1-.6 0 .2-.5.7-.6 1H55c-1.7.4-3 1.7-3.2 3.5-.1.1-.2.2-.2.4v.1c-.2.1-.4.4-.4.7 0 .2.1.5.4.6v.1c0 .2.2.4.4.4.1.2.1.4.2.6-.1.6-.8 1-1.1 1-1.3.1-2.9-.4-4.2-.8-.6-.2-1.4-.5-1.8-1.1-.1-.1-.2-.5-.2-1 .1.2.4.4.5.5l.4.2.5-.1V56c.2.4.7 1 1.4 1h.4l-.2-.1c-.2-.2-.5-.7-.5-1.3 0-.2 0-.4.1-.6.2.4.7.7 1.4.7 1.2 0 1.8-1.2 1.9-1.7-.2.5-.6.5-1 .6-.4 0-.7-.2-.8-.8 0-.2 0-.5.1-.8.1-.4.1-1 .1-1.6-.1-1.1-.7-1.7-1.2-2-.5-.4-1.2-.6-1.8-.6.1-.1.2-.2.2-.4l.2-.4-.5.2c-1 .2-1.6.1-2-.1-.4-.2-.6-.6-.8-1 .2.1.4.1.6.2l.4.1-.2-.4c-.8-1.3-1-3-.1-4.7.1 0 .2-.1.4-.2.2.4.5.5.8.6.2.1.5.1.6.4l.1.1.1-.1.1-.1c0 1.3 0 2.5.2 2.9.2.5.6.7 1 1 .2.1.5.2.6.5h.1c.2-.2.4-.4.6-.5.4-.2.6-.5.7-1.1.1-.6-.1-1.6-.4-2.5l-.1-.3c0-.1.1-.2.1-.4.4 1.2 1.1 3.8 1.4 4.5.2.4.5.5.8.5.2.1.6.1.8.4h.1s.1 0 .1-.1c.1-.2.2-.4.4-.6.4-.5.7-1 .5-1.7-.4-1-1.2-2.8-1.9-4.1l.8 1.7 1.4 2.6c.5.8 1.2.8 1.8 1l.5.1c.1 0 .1 0 .2-.1 0-.2.1-.4.2-.6.4-.5.7-1.1.1-2.2-.4-.6-1.1-1.4-1.8-2.4l-1-1.6c.2.2.8 1 1.6 1.7.8 1 1.9 2.2 2.5 2.9.5.5 1.4.6 2.6.1.1 0 .1-.1.1-.1v-.4c0-.6.1-1.2-.6-1.9l-.1-.1c.6.2 1.3.2 1.7.1.4-.1.7-.2.8-.5.1-.2.1-.6 0-1s-.2-.7-.5-1c.8.2 1.6.1 1.9-.1.5-.2.8-.6 1-1 .1-.4 0-.8-.2-1.3-.2-.4-.6-1-1.4-1.2.5 0 .8-.1 1.2-.2.5-.1 1-.5 1.2-.7.6-.5.8-1 .8-1.2 0-.4-1.4-1.1-2.5-1.2h-.2c1.9-.4 2.9-1.6 3.1-1.9.1-.1.4-.6.4-.8-.3-.6-2-.9-2.8-.9zM3.8 35.9l.2-.1-.2.1zm0 2.3h-.1c0-.1 0-.1.1 0 0-.1 0-.1 0 0 .2-.1.2-.1.2-.2h.1c.1 0 .1.1.2.1v.1h-.1v.1c-.2-.1-.4-.1-.4-.1zm.6 2.3s-.1 0 0 0h-.3s-.1-.1-.2-.1h.2s.1 0 .1-.1c0 0 .1 0 .1-.1v.2c0-.2 0-.1.1.1-.1-.2-.1-.2 0 0 0-.2 0 0 0 0zm.1-3.4l-.1.1c.1-.2.1-.2.1-.1 0-.1 0-.1 0 0 0-.1 0-.1 0 0 0 0 .2 0 0 0zm.2-.6c-.2 0-.2 0 0 0-.1 0-.1-.1-.1-.2v-.1s0-.1-.1-.1-.1-.1-.4 0h.1c.1 0 .4.1.5.1v.3zm3 6.5c.2-.4.1-.7-.2-.8V42c.4 0 .8 0 1.2-.2l-.1.1c-.6.6-.6 1.2-.6 1.8l-.3-.7zm16.5 5.1c-.4.2-1.1.5-2 .1l-.5-.1.2.4c.1.1.2.2.2.4-.6 0-1.3.2-1.8.6-.5.4-1.1 1-1.2 2-.1.6 0 1.1.1 1.6 0 .4.1.6.1.8-.1.6-.5.8-.8.8-.4 0-.6-.1-1-.6.1.5.7 1.7 1.9 1.7.7 0 1.1-.4 1.4-.7 0 .2.1.4.1.6 0 .6-.2 1.1-.5 1.3l-.2.2h.4c.7 0 1.2-.6 1.4-1v.7l.4-.2c.2-.2.5-.4.6-.6 0 .2.1.5.1.7-.4.2-.7.5-1.3.7-.7.4-2.2 1-3 1.1-.6.1-1.8-.2-2-1.2s-1.1-1.2-1.6-.6c-.1-.1-.6-.2-.7.1 0 0-.2-.4-.4-.6.1-.5 0-1-.4-1.2 0-.8-.6-1-.7-1.2s-.1-.4.1-.5c-.4-.2-.6-.2-.7-.2.1-.4 0-.8-.5-1l-3.7-7.7c1.1.4 1.9.2 2.4-.2.6-.7 1.7-1.8 2.5-2.9.7-.8 1.3-1.4 1.6-1.7l-1.3 1.7c-.7 1-1.4 1.8-1.8 2.4-.6 1.1-.2 1.7.1 2.2.1.2.2.4.2.6 0 .1.1.1.2.1l.5-.1c.6-.1 1.3-.1 1.8-1l1.4-2.6.8-1.7c-.7 1.4-1.4 3.1-1.9 4.1-.2.7.1 1.2.5 1.7.1.2.4.4.4.6 0 0 0 .1.1.1h.3c.4-.2.6-.2.8-.4.4-.1.6-.1.8-.5.4-.7 1.1-3.4 1.4-4.5.1.1.1.2.1.4l-.1.4c-.2 1-.5 1.9-.4 2.5s.5.7.7 1.1c.2.1.4.2.6.5h.2c.2-.2.5-.4.6-.5.4-.2.7-.5 1-1 .2-.4.2-1.6.2-2.9l.1.1.1.1.1-.1c.1-.1.4-.2.6-.4.2-.1.6-.2.8-.6.1.1.2.2.4.2.8 1.8.8 3.4-.1 4.7l-.2.4.4-.1c.2-.1.4-.1.6-.2.2.5-.2.9-.5 1.1zm9.9-45.7H34h.1zm0 1.6H34c0-.2.1 0 .1 0zm-6.2 62.4h-.4c-.5.1-.7-.2-.8-.4-.1-.1-.1-.4-.1-.5 0-.2 0-.4.1-.6.4.4.7.6 1.3.6-.1.5-.1.7-.1.9zm2.8-5.7c-.8 1-1.6 2-2.2 3.1 0 0-.1 0-.1-.1-.2-.1-.4-.5-.4-.8 0-1 1.4-2 2.4-2.8l.6-.5c.5-.4 1-.8 1.3-1.3-.5 1.1-1.1 1.7-1.6 2.4zm2.6-1.2c-.1.8-.4 1.7-.5 2.5-.4 1.7-.8 3.5-.8 5.6v.7c-.5-.2-.8-1.1-.8-2 0-1.8.6-3.2 1.2-4.8.4-.8.6-1.6.8-2.4 0-.1.1-.4.1-.5.1.3.1.5 0 .9zm3.3 8.4c-.1.2-.2.4-.4.4v-.7c0-2.2-.4-4-.8-5.6-.2-1.1-.5-2.2-.6-3.4.2 1.1.6 2 1 3 .6 1.6 1.2 3 1.2 4.8 0 .6-.1 1.1-.4 1.5zm4.9-2.9c.1.1.1.4.1.6 0 .1 0 .4-.1.5-.1.2-.4.5-.8.4h-.4c0-.2 0-.5-.1-.7.6-.2 1.1-.4 1.3-.8zm-4.3-5.1l.6.5c1 .7 2.4 1.8 2.4 2.8 0 .4-.1.7-.4.8 0 0-.1 0-.1.1-.6-1.2-1.3-2.2-2.2-3.1-.6-.7-1.2-1.4-1.6-2.2.4.2.9.7 1.3 1.1zm0-44.7c0 .1 0 .1 0 0l.1.1c.6.6 1.3 1.1 2.3 1.3-.6 0-1.2 0-1.7-.1-.1 0-.2-.1-.4-.1.1.1.1.2.2.4.4.4.7.6 1.1.7-.8.8-2 1.3-3.4 1.4h-.6l.4.4c.4.2 1 .4 1.4.4-1 1.4-2.3 3.6-2.6 6.6-.5-3-1.7-5.1-2.6-6.6.6 0 1.1-.2 1.4-.4l.4-.4h-.6c-1.3-.1-2.5-.6-3.4-1.4.5-.1.8-.4 1.1-.7.1-.1.1-.2.2-.4-.1 0-.2.1-.4.1-.5.1-1.1.2-1.7.1 1-.2 1.7-.7 2.3-1.3.1-.1.1-.2.2-.5.1.2-.1.2-.2.3-.8.2-1.6.2-2.5.1h-.7.2c1.2-.2 3.6-1.1 5.1-2.5h2.6c1.6 1.6 4 2.3 5.1 2.5h.2-.7c-1.1 0-1.8 0-2.5-.1-.1 0-.4-.1-.5-.2 0 .1.1.2.2.3zM0 85.2v-9.5h3.1c1.2 0 1.9 0 2.3.1.6.1 1 .5 1.3 1 .4.5.6 1.1.6 1.8 0 .6-.1 1.1-.4 1.4s-.5.7-.8 1c-.4.2-.6.4-1 .5-.5.1-1.1.1-2 .1H1.9v3.6H0zm1.9-7.9V80H3c.7 0 1.3 0 1.6-.1.2-.1.5-.2.6-.5.1-.2.2-.5.2-.7 0-.4-.1-.6-.4-.8-.2-.2-.5-.4-.7-.5-.2 0-.7-.1-1.4-.1h-1zM8 81.7c0-.6.1-1.2.5-1.8.2-.6.7-1 1.3-1.3.6-.2 1.2-.5 1.8-.5 1.1 0 1.9.4 2.5 1 .7.7 1 1.6 1 2.5 0 1.1-.4 1.9-1 2.6-.7.7-1.6 1.1-2.5 1.1-.6 0-1.2-.1-1.8-.5-.6-.2-1-.7-1.3-1.2-.2-.5-.5-1.1-.5-1.9zm1.9.1c0 .7.1 1.2.5 1.6s.7.6 1.2.6.8-.2 1.2-.6c.4-.4.5-.8.5-1.6 0-.7-.1-1.2-.5-1.6-.4-.4-.7-.6-1.2-.6s-.8.2-1.2.6c-.3.4-.5.9-.5 1.6zm12.5-1.5l-1.8.4c-.1-.4-.2-.6-.4-.8-.2-.1-.5-.2-.8-.2-.5 0-.8.1-1.1.5s-.3.7-.3 1.5.1 1.4.4 1.7c.2.2.6.5 1.1.5.4 0 .6-.1.8-.2.2-.2.4-.5.5-1l1.8.4c-.2.8-.6 1.4-1.1 1.9-.5.4-1.2.6-2.2.6-1 0-1.8-.4-2.4-1-.6-.7-.9-1.6-.9-2.7s.4-2 1-2.6 1.4-1 2.4-1c.8 0 1.6.2 2 .6.4.1.7.7 1 1.4zm.6-2h6.2v1.4h-2.3v5.4h-1.8v-5.4H23v-1.4zm6.7 0h1.9l1.7 4.9 1.6-4.9h1.9l-2.4 6.6-.5 1.2c-.1.4-.4.7-.5 1-.1.2-.4.4-.5.5-.2.1-.4.2-.7.4h-.8c-.4 0-.7 0-1.1-.1l-.1-1.4c.2 0 .6.1.7.1.5 0 .7-.1 1-.4.2-.2.4-.6.5-1l-2.7-6.9zm8 0h1.7v1c.2-.4.5-.6.8-.8.4-.2.8-.4 1.2-.4.8 0 1.4.4 2 1s.8 1.4.8 2.6-.2 2-.8 2.6-1.2 1-2 1c-.4 0-.7-.1-1.1-.2-.4-.1-.6-.4-1-.7v3.5h-1.7v-9.6zm1.8 3.4c0 .7.1 1.3.5 1.7.4.4.7.6 1.1.6.5 0 .7-.1 1.1-.5.2-.4.5-.8.5-1.7 0-.7-.1-1.2-.5-1.6-.2-.4-.6-.5-1.1-.5-.5 0-.8.1-1.1.5-.4.3-.5.7-.5 1.5zm6.4-3.4h1.8v4.3l2.8-4.3h1.8v6.8h-1.8v-4.3l-2.9 4.4h-1.8v-6.9h.1zm10 4.1v-1.2c.4 0 .6 0 .7-.1.1 0 .2-.1.4-.2.1-.1.2-.4.2-.6 0-.2-.1-.4-.2-.6-.1-.2-.4-.2-.7-.2-.2 0-.5 0-.6.1-.1.1-.4.4-.5.7l-1.6-.4c.1-.6.5-1.1 1-1.3s1.1-.5 1.8-.5c.8 0 1.4.2 1.9.6.5.4.7.8.7 1.4 0 .4-.1.6-.2.8-.1.2-.5.5-1 .6.5.1.8.4 1.2.6.2.2.4.6.4 1.1s-.2 1-.7 1.4c-.5.5-1.2.6-2.2.6-1.7 0-2.6-.6-3-1.9l1.7-.4c.2.7.7 1 1.3 1 .4 0 .6-.1.8-.2.2-.1.4-.4.4-.6 0-.2-.1-.5-.4-.6-.2-.1-.5-.2-.8-.2h-.6v.1zm4.4-4.1h2.3l1.7 4.8 1.7-4.8h2.3v6.8h-1.6v-4.5L65 85.1h-1.6l-1.6-4.5v4.5h-1.6c.1 0 .1-6.8.1-6.8z" fill="#fff" opacity=".5"/></svg>