<svg version="1.1" id="Слой_1" xmlns="http://www.w3.org/2000/svg" x="0" y="0" viewBox="0 0 257.5 88" xml:space="preserve"><path d="M161.3 35.1L185 0h-21.1l-17.6 26.3h-8.8V0H120v70.2h17.5V43.9h8.8l17.6 26.3H185zM193 0v70.2h17.6V17.5h29.1v52.7h17.6V0zM46.7 17.5h17.6V0H46.7zm0 26.4h17.6V26.3H46.7zm0 26.3h17.6V52.6H46.7zM41 43.9V26.3H23.5v17.6h.8zM23.5 70.2H41V52.6H23.5zM0 70.2h17.5V52.6H0zm93.7-52.7h17.5V0H93.7zM70.2 0h17.5v70.2H70.2zM2.6 81H.3v-1.8h7V81H4.9v6.5H2.6V81zm5.7-1.8h4.1c1.8 0 2.8 1.3 2.8 2.8 0 1.5-1 2.8-2.8 2.8h-1.8v2.8H8.3v-8.4zm3.8 1.8h-1.5v1.8h1.8c.5 0 1-.3 1-1-.2-.5-.5-.8-1.3-.8zm8.8 5.2h-3.4l-.5 1.3h-2.3l3.1-8.5h2.8l3.1 8.5h-2.3l-.5-1.3zm-2.8-1.8h2.3L19.1 81l-1 3.4zm12.1-.3h-3.6v3.4h-2.3V79h2.1v3.1H30V79h2.3v8.5h-2.1v-3.4zm3.1-.7c0-2.6 2.1-4.4 4.6-4.4 2.1 0 3.1 1 3.9 2.3l-1.8.8c-.3-.8-1-1.3-1.8-1.3-1.3 0-2.3 1-2.3 2.6 0 1.3 1 2.3 2.3 2.3.8 0 1.5-.5 1.8-1.3l1.8.8c-.5 1-1.5 2.3-3.9 2.3-2.5.2-4.6-1.6-4.6-4.1zm15-2.4h-3.6v6.5h-2.1V79h8v8.5h-2.1V81h-.2zm7.7-2c2.6 0 4.6 1.8 4.6 4.4 0 2.6-1.8 4.4-4.6 4.4-2.6 0-4.6-1.8-4.6-4.4.2-2.6 2-4.4 4.6-4.4zm0 2c-1.3 0-2.3 1-2.3 2.6 0 1.3.8 2.3 2.3 2.3 1.3 0 2.3-1 2.3-2.3 0-1.5-.8-2.6-2.3-2.6zm5.7-1.8h4.1c1.8 0 2.8 1.3 2.8 2.8 0 1.5-1 2.8-2.8 2.8h-2.1v2.8h-2.1c.1.1.1-8.4.1-8.4zm4.1 1.8H64v1.8h1.8c.5 0 1-.3 1-1-.2-.5-.5-.8-1-.8zm5.9 0h-2.3v-1.8h7V81h-2.3v6.5H72V81h-.3zm11.4 3.1h-3.6v3.4h-2.1V79h2.1v3.1h3.6V79h2.1v8.5h-2.1v-3.4zm9 2.1h-3.6l-.5 1.3h-2.3l3.1-8.5h2.8l3.1 8.5h-2.3l-.3-1.3zm-2.8-1.8h2.3L90.3 81l-1 3.4zm7.7 0c-.8-.3-1.8-1-1.8-2.6 0-1.5 1-2.8 2.8-2.8h4.1v8.5h-2.3v-2.8h-1l-1.3 2.8H95l2-3.1zm3.4-3.4h-1.8c-.5 0-1 .3-1 .8s.5 1 1 1h1.8V81zm9.5 3.4l-.5.8v2.6h-2.1v-8.5h2.1v3.4l2.6-3.4h2.6l-3.4 3.9 3.4 4.4H112l-2.1-3.2zm7-2.9l.3-2.3h6.2v8.5h-2.1v-6.5H119v1c-.5 5.2-1.8 5.7-3.9 5.7v-2.1c.8-.1 1.5-.6 1.8-4.3zm10.3-2.3v5.2l3.4-5.2h2.3v8.5h-2.3v-5.4l-3.6 5.4h-2.1v-8.5h2.3zm7.3 0h4.1c1.8 0 2.8 1.3 2.8 2.8 0 1.5-1 2.8-2.8 2.8h-2.1v2.8h-2.1v-8.4zm3.8 1.8h-1.8v1.8h1.8c.5 0 1-.3 1-1 .1-.5-.5-.8-1-.8zm6.5-1.8v5.2l3.4-5.2h2.3v8.5h-2.3v-5.4l-3.6 5.4h-2.1v-8.5h2.3zm12.9 4.9h-3.6v3.4H152V79h2.1v3.1h3.6V79h2.1v8.5h-2.1v-3.4zm3.6-4.9h6.2V81h-4.1v6.5h-2.1v-8.3zm11.1-.2c2.6 0 4.6 1.8 4.6 4.4 0 2.6-1.8 4.4-4.6 4.4-2.6 0-4.6-1.8-4.6-4.4-.1-2.6 2-4.4 4.6-4.4zm0 2c-1.3 0-2.3 1-2.3 2.6 0 1.3.8 2.3 2.3 2.3 1.3 0 2.3-1 2.3-2.3 0-1.5-1-2.6-2.3-2.6zm5.7-1.8h4.9c1.8 0 2.6 1 2.6 2.1 0 1-.8 1.8-1.5 2.1.8.3 1.5 1 1.5 2.1 0 1.3-.8 2.3-2.6 2.3h-4.9v-8.6zm4.1 3.1c.5 0 .8-.3.8-.8s-.3-.8-.8-.8h-2.1v1.5h2.1zm.3 3.4c.5 0 .8-.3.8-.8s-.3-.8-.8-.8h-2.3v1.5h2.3zm9.5.5h-3.6l-.5 1.3h-2.3l3.1-8.5h2.8l3.1 8.5h-2.3l-.3-1.3zm-2.8-1.8h2.3l-1.3-3.4-1 3.4zm7.7 0c-.8-.3-1.8-1-1.8-2.6 0-1.5 1-2.8 2.8-2.8h4.1v8.5h-2.3v-2.8h-1l-1.3 2.8h-2.6l2.1-3.1zm3.4-3.4h-1.8c-.5 0-1 .3-1 .8s.5 1 1 1h1.8V81zm12.6 0h-3.6v6.5h-2.1V79h8v8.5h-2.3V81zm9 5.2h-3.6l-.3 1.3h-2.3l3.1-8.5h2.8l3.1 8.5h-2.3l-.5-1.3zm-2.8-1.8h2.3l-1.3-3.4-1 3.4zm7.7-2.9l.3-2.3h6.2v8.5h-2.1v-6.5h-2.3v1c-.5 5.2-1.8 5.7-3.9 5.7v-2.1c.8-.1 1.6-.6 1.8-4.3zm13.5 4.7h-3.6l-.5 1.3h-2.3L237 79h2.8l3.1 8.5h-2.3l-.3-1.3zm-3.1-1.8h2.3l-1.3-3.4-1 3.4zm7.4-3.4h-2.3v-1.8h7V81H247v6.5h-2.1V81h-.3zm10.4 5.2h-3.6l-.5 1.3h-2.3l3.1-8.5h2.8l3.1 8.5h-2.3l-.3-1.3zm-2.9-1.8h2.3l-1.3-3.4-1 3.4z" fill="#fff" opacity=".5"/></svg>