<svg width="21" height="21" viewBox="0 0 21 21" fill="none" xmlns="http://www.w3.org/2000/svg">
<path fill-rule="evenodd" clip-rule="evenodd" d="M14.1385 7.20375C14.1385 9.25972 12.4995 10.9083 10.4554 10.9083C8.41131 10.9083 6.77227 9.25972 6.77227 7.20375C6.77227 5.14698 8.41131 3.5 10.4554 3.5C12.4995 3.5 14.1385 5.14698 14.1385 7.20375ZM10.4554 17.5C7.45312 17.5 4.88958 17.024 4.88958 15.1201C4.88958 13.2155 7.43666 12.7222 10.4554 12.7222C13.4577 12.7222 16.0212 13.1981 16.0212 15.1028C16.0212 17.0067 13.4741 17.5 10.4554 17.5ZM15.7125 7.27057C15.7125 8.31865 15.3998 9.29502 14.8514 10.1067C14.795 10.1902 14.8451 10.3029 14.9446 10.3202C15.0818 10.3439 15.2236 10.3573 15.3677 10.3612C16.8054 10.3991 18.0958 9.46839 18.4523 8.06727C18.9803 5.98608 17.4298 4.11766 15.4555 4.11766C15.2408 4.11766 15.0355 4.14051 14.8357 4.18149C14.8083 4.18779 14.7793 4.2004 14.7637 4.22483C14.7449 4.25478 14.759 4.29497 14.7778 4.32097C15.3709 5.15707 15.7125 6.17678 15.7125 7.27057ZM18.0934 11.8235C19.0595 12.0134 19.6949 12.4011 19.9581 12.9646C20.1806 13.4271 20.1806 13.9638 19.9581 14.4256C19.5554 15.2995 18.2572 15.58 17.7526 15.6525C17.6484 15.6683 17.5646 15.5777 17.5756 15.4729C17.8333 13.0512 15.783 11.9031 15.2526 11.6391C15.2298 11.6273 15.2251 11.6092 15.2275 11.5981C15.2291 11.5902 15.2385 11.5776 15.2557 11.5753C16.4035 11.554 17.6375 11.7116 18.0934 11.8235ZM5.63247 10.3611C5.77663 10.3572 5.91766 10.3446 6.05555 10.3202C6.15505 10.3028 6.20519 10.1901 6.14878 10.1066C5.60035 9.29494 5.28774 8.31857 5.28774 7.27049C5.28774 6.1767 5.62934 5.15699 6.22243 4.32089C6.24123 4.29489 6.25455 4.2547 6.23653 4.22475C6.22086 4.20111 6.19109 4.18771 6.16445 4.18141C5.96388 4.14043 5.75861 4.11758 5.54394 4.11758C3.56957 4.11758 2.01907 5.986 2.54792 8.06719C2.9044 9.46831 4.19479 10.399 5.63247 10.3611ZM5.77232 11.5976C5.77467 11.6095 5.76997 11.6268 5.74803 11.6394C5.21684 11.9034 3.16648 13.0516 3.42424 15.4724C3.43521 15.578 3.35216 15.6678 3.24796 15.6529C2.7434 15.5804 1.44518 15.2998 1.04247 14.4259C0.819177 13.9633 0.819177 13.4275 1.04247 12.9649C1.30572 12.4014 1.94033 12.0137 2.90636 11.823C3.36313 11.7119 4.59632 11.5543 5.7449 11.5756C5.76214 11.5779 5.77075 11.5906 5.77232 11.5976Z" fill="#5D9ED7"/>
</svg>
