<svg width="14" height="22" viewBox="0 0 14 22" fill="none" xmlns="http://www.w3.org/2000/svg">
<path d="M11.7757 4.24721H13.9046V0.440805H10.0365C9.71407 0.427605 5.78109 0.353924 4.76165 4.1608C4.7467 4.20088 4.4211 5.10617 4.4211 7.22177L0.884766 7.23209V11.2252L4.42575 11.2149V21.7442H9.83437V11.224H13.4146V7.22153H9.83461V5.96224C9.83437 5.1796 10.1712 4.24721 11.7757 4.24721Z" fill="#4B6188"/>
<path d="M12.5191 8.09817V10.3472H8.93942V20.8674H5.32077V10.3357L1.77979 10.346V8.10729L5.32983 8.09697L5.32077 7.65105C5.27446 5.41041 5.60056 4.46769 5.61477 4.42281C6.49432 1.14297 9.85327 1.30809 9.99782 1.31673H13.0089V3.36945H11.7755C9.68447 3.36945 8.93917 4.70817 8.93917 5.96145V8.09745H12.5189L12.5191 8.09817Z" fill="white"/>
</svg>
