<svg width="25" height="24" viewBox="0 0 25 24" fill="none" xmlns="http://www.w3.org/2000/svg">
<path d="M19.1269 0.563477H5.88015C4.58034 0.567036 3.33499 1.09698 2.41728 2.03705C1.49956 2.97713 0.984423 4.25057 0.984864 5.57804V18.586C0.984423 19.9135 1.49957 21.1869 2.41729 22.1269C3.33501 23.067 4.58037 23.5969 5.88015 23.6004H19.1269C20.4266 23.5967 21.6718 23.0667 22.5893 22.1266C23.5069 21.1865 24.0219 19.9132 24.0214 18.5858V5.5778C24.0218 4.2505 23.5068 2.97722 22.5892 2.03722C21.6716 1.09722 20.4265 0.567226 19.1269 0.563477V0.563477Z" fill="#593452"/>
<path d="M15.9461 8.89587C14.9075 8.25468 13.717 7.91575 12.5034 7.91575C11.2898 7.91575 10.0992 8.25468 9.06062 8.89587H1.94482V5.57835C1.9442 4.51078 2.35816 3.48653 3.09593 2.73023C3.8337 1.97393 4.83505 1.54731 5.88037 1.54395H19.1261C20.1715 1.54731 21.1728 1.97393 21.9106 2.73023C22.6484 3.48653 23.0623 4.51078 23.0617 5.57835V8.89587H15.9461Z" fill="white"/>
<path d="M20.3741 3.01416H18.0711C17.7401 3.01422 17.4227 3.14845 17.1885 3.38735C16.9544 3.62625 16.8226 3.9503 16.8223 4.28832V6.64032C16.8226 6.97813 16.9542 7.302 17.1881 7.54087C17.422 7.77974 17.7391 7.9141 18.0699 7.91448H20.3729C20.7037 7.9141 21.0208 7.77974 21.2547 7.54087C21.4886 7.302 21.6201 6.97813 21.6205 6.64032V4.28832C21.6202 3.9507 21.4888 3.62698 21.2552 3.38813C21.0215 3.14928 20.7046 3.0148 20.3741 3.01416V3.01416Z" fill="#593452"/>
<path d="M20.662 6.64159C20.6619 6.71954 20.6315 6.79429 20.5776 6.84941C20.5236 6.90453 20.4504 6.93552 20.3741 6.93559H18.0711C17.9948 6.93552 17.9216 6.90453 17.8676 6.84941C17.8136 6.79429 17.7833 6.71954 17.7832 6.64159V4.28959C17.783 4.21159 17.8132 4.13671 17.867 4.0814C17.9209 4.02609 17.994 3.99488 18.0704 3.99463H20.3734C20.4497 3.99469 20.5229 4.02569 20.5769 4.08081C20.6308 4.13593 20.6612 4.21067 20.6613 4.28863L20.662 6.64159Z" fill="#E486EA"/>
<path d="M23.0617 18.5858C23.0623 19.6534 22.6484 20.6776 21.9106 21.4339C21.1728 22.1902 20.1715 22.6169 19.1261 22.6202H5.88037C4.83505 22.6169 3.8337 22.1902 3.09593 21.4339C2.35816 20.6776 1.9442 19.6534 1.94482 18.5858V9.87622H7.80996C6.85401 10.8292 6.1979 12.0515 5.92541 13.3871C5.65292 14.7226 5.77643 16.1109 6.28016 17.3744C6.78389 18.638 7.64497 19.7195 8.75343 20.4809C9.86189 21.2422 11.1674 21.6489 12.5033 21.6489C13.8391 21.6489 15.1446 21.2422 16.2531 20.4809C17.3615 19.7195 18.2226 18.638 18.7264 17.3744C19.2301 16.1109 19.3536 14.7226 19.0811 13.3871C18.8086 12.0515 18.1525 10.8292 17.1966 9.87622H23.0617V18.5858Z" fill="white"/>
<path d="M18.2624 14.7774C18.2624 15.9407 17.9247 17.0779 17.2918 18.0451C16.659 19.0124 15.7596 19.7662 14.7072 20.2114C13.6549 20.6566 12.4969 20.773 11.3797 20.5461C10.2626 20.3191 9.23639 19.759 8.43096 18.9364C7.62553 18.1138 7.07702 17.0658 6.8548 15.9249C6.63259 14.784 6.74663 13.6013 7.18253 12.5266C7.61843 11.4519 8.35659 10.5333 9.30368 9.88699C10.2508 9.24071 11.3642 8.89575 12.5033 8.89575C14.0302 8.89747 15.4941 9.51769 16.5738 10.6203C17.6534 11.723 18.2608 13.218 18.2624 14.7774Z" fill="#E486EA"/>
<path d="M8.18408 14.7774C8.18408 15.6499 8.43741 16.5027 8.91202 17.2281C9.38663 17.9536 10.0612 18.519 10.8505 18.8528C11.6397 19.1867 12.5082 19.2741 13.346 19.1039C14.1839 18.9336 14.9535 18.5135 15.5576 17.8966C16.1617 17.2797 16.573 16.4937 16.7397 15.638C16.9063 14.7823 16.8208 13.8954 16.4939 13.0893C16.167 12.2833 15.6134 11.5943 14.9031 11.1096C14.1928 10.6249 13.3577 10.3662 12.5034 10.3662C11.3582 10.3675 10.2603 10.8326 9.45055 11.6596C8.64079 12.4866 8.18533 13.6079 8.18408 14.7774V14.7774Z" fill="#593452"/>
<path d="M15.8626 14.7784C15.8626 15.4572 15.6655 16.1208 15.2963 16.6852C14.927 17.2495 14.4022 17.6894 13.7881 17.9492C13.1741 18.2089 12.4984 18.2769 11.8465 18.1445C11.1946 18.0121 10.5958 17.6852 10.1259 17.2052C9.65589 16.7253 9.33584 16.1137 9.20617 15.448C9.07651 14.7822 9.14306 14.0922 9.39741 13.4651C9.65175 12.8379 10.0825 12.3019 10.6351 11.9248C11.1877 11.5477 11.8375 11.3464 12.5021 11.3464C13.3931 11.3472 14.2475 11.709 14.8775 12.3525C15.5076 12.9959 15.8619 13.8684 15.8626 14.7784V14.7784Z" fill="white"/>
</svg>
