<svg width="24" height="20" viewBox="0 0 24 20" fill="none" xmlns="http://www.w3.org/2000/svg">
<path d="M20.485 1.26705C21.799 0.856414 22.6789 1.44297 22.6789 2.32305C22.6789 2.32305 19.3119 16.8116 18.7253 17.9847C18.1388 19.1579 17.2589 18.5713 17.2589 18.5713L12.2725 15.0515L10.2195 17.1044C9.04639 18.2775 8.45983 17.1044 8.45983 17.1044L6.40687 11.5321C6.40687 11.5321 3.13951 11.162 2.00767 10.0657C0.975668 9.06801 1.85527 8.48169 1.85527 8.48169L20.485 1.26705ZM11.8275 11.1215L19.7461 3.49593L8.01487 10.2416L9.77455 14.9341L11.8275 11.1215Z" fill="white"/>
<path d="M21.2958 0.546631C20.9608 0.550052 20.6283 0.604188 20.3096 0.707192C20.2971 0.711032 20.2856 0.715351 20.2729 0.720151L1.64384 7.93527C1.60395 7.95074 1.56589 7.97054 1.53032 7.99431C1.36272 8.11214 1.22209 8.26425 1.11774 8.44056C1.01338 8.61686 0.947702 8.81334 0.925043 9.01695C0.879923 9.51663 1.1072 10.0115 1.59992 10.4879C2.64248 11.4978 5.03432 11.932 5.97944 12.0686L7.90976 17.3082C7.91722 17.3285 7.9258 17.3484 7.93544 17.3678C8.05772 17.6127 8.24346 17.8204 8.47331 17.9691C8.70316 18.1178 8.9687 18.2021 9.24224 18.2133C9.70616 18.2133 10.1746 17.98 10.6342 17.5202L12.3382 15.8162L16.9203 19.0506L16.9333 19.0595C17.1844 19.2179 17.4749 19.3029 17.7718 19.3048C18.1263 19.3048 18.7897 19.1675 19.2495 18.2474C19.8495 17.0474 22.9035 3.94599 23.2498 2.45535C23.26 2.41184 23.2652 2.36731 23.2652 2.32263C23.265 1.29351 22.437 0.546631 21.2958 0.546631ZM18.1998 17.722C18.1064 17.9085 17.9564 18.13 17.7711 18.13C17.7041 18.1278 17.6384 18.1103 17.5791 18.0789L12.6111 14.5715C12.4981 14.4918 12.3606 14.4545 12.2228 14.4663C12.085 14.4781 11.9558 14.5382 11.858 14.6361L9.80504 16.689C9.48056 17.0135 9.29216 17.0387 9.24224 17.0387C9.12584 17.0387 9.02624 16.9046 8.99288 16.853L6.95816 11.3294C6.92054 11.2274 6.85533 11.1379 6.76982 11.0708C6.6843 11.0037 6.58184 10.9617 6.47384 10.9494C5.61968 10.8522 3.22544 10.4279 2.41592 9.64407C2.1056 9.34431 2.09048 9.17223 2.09336 9.12663C2.10012 9.07589 2.1236 9.02885 2.16008 8.99295L20.678 1.82151C20.878 1.75745 21.0865 1.72324 21.2965 1.71999C21.4765 1.71999 22.0498 1.76031 22.0904 2.26527C20.7416 8.06343 18.6061 16.9113 18.2002 17.722H18.1998Z" fill="#32687C"/>
<path d="M19.4531 2.98711L7.7219 9.7328C7.60135 9.80212 7.50934 9.91201 7.46231 10.0429C7.41527 10.1737 7.41626 10.3171 7.4651 10.4473L9.22478 15.1398C9.26434 15.2452 9.33342 15.337 9.42377 15.4043C9.51412 15.4715 9.62193 15.5113 9.7343 15.519C9.74774 15.519 9.76094 15.5204 9.77414 15.5204C9.88 15.5203 9.98388 15.4916 10.0748 15.4374C10.1656 15.3831 10.2402 15.3052 10.2904 15.212L12.2999 11.4802L20.1525 3.91879C20.2556 3.81948 20.3189 3.68587 20.3303 3.54314C20.3418 3.4004 20.3006 3.25841 20.2146 3.14392C20.1286 3.02944 20.0037 2.95037 19.8634 2.92162C19.7232 2.89286 19.5772 2.91642 19.4531 2.98783V2.98711ZM11.4201 10.6988C11.3763 10.7408 11.3393 10.7894 11.3104 10.8428L9.87038 13.5186L8.73902 10.5015L15.9033 6.38191L11.4201 10.6988Z" fill="#32687C"/>
</svg>
