<svg width="26" height="20" viewBox="0 0 26 20" fill="none" xmlns="http://www.w3.org/2000/svg">
<path d="M20.6721 0.639893H5.34163C3.99755 0.643515 2.7098 1.18012 1.76085 2.13199C0.81191 3.08385 0.279272 4.37325 0.279786 5.71733V14.2633C0.279272 15.6073 0.81191 16.8967 1.76085 17.8486C2.7098 18.8005 3.99755 19.3371 5.34163 19.3407H20.6721C22.0162 19.3371 23.304 18.8006 24.2529 17.8487C25.2019 16.8968 25.7345 15.6073 25.7339 14.2633V5.71733C25.7345 4.37324 25.2019 3.0838 24.2529 2.13192C23.304 1.18004 22.0162 0.643452 20.6721 0.639893V0.639893Z" fill="#602522"/>
<path d="M24.6953 14.2634C24.6962 15.332 24.2731 16.3573 23.5189 17.1144C22.7648 17.8715 21.7411 18.2985 20.6725 18.3018H5.34174C4.2732 18.2984 3.24964 17.8713 2.49558 17.1142C1.74151 16.3571 1.31851 15.3319 1.31934 14.2634V5.71743C1.31851 4.64889 1.74151 3.62364 2.49558 2.86656C3.24964 2.10948 4.2732 1.68239 5.34174 1.67896H20.6722C21.7409 1.6822 22.7646 2.10921 23.5188 2.86631C24.2731 3.62341 24.6962 4.64877 24.6953 5.71743V14.2634Z" fill="white"/>
<path d="M17.6096 9.80248L10.4123 5.58688C10.3334 5.54065 10.2437 5.51607 10.1522 5.51563C10.0608 5.51519 9.97085 5.5389 9.89151 5.58437C9.81216 5.62984 9.74623 5.69545 9.70038 5.77457C9.65453 5.85369 9.63038 5.94351 9.63037 6.03496V14.4652C9.63038 14.5566 9.65453 14.6465 9.70038 14.7256C9.74623 14.8047 9.81216 14.8703 9.89151 14.9158C9.97085 14.9613 10.0608 14.985 10.1522 14.9845C10.2437 14.9841 10.3334 14.9595 10.4123 14.9133L17.6096 10.6986C17.6879 10.6528 17.7527 10.5874 17.7978 10.5088C17.8429 10.4301 17.8666 10.3411 17.8666 10.2504C17.8666 10.1598 17.8429 10.0708 17.7978 9.99212C17.7527 9.9135 17.6879 9.84803 17.6096 9.80224V9.80248Z" fill="#602522"/>
<path d="M10.6689 13.5592V6.94141L16.3185 10.2508L10.6689 13.5592Z" fill="#E65F58"/>
</svg>
