<svg id="Слой_1" data-name="Слой 1" xmlns="http://www.w3.org/2000/svg" viewBox="0 0 2134.02 910.25"><defs><style>.cls-1{fill:#ff3904;}.cls-2{fill:#4503c7;}.cls-3{fill:#ff3a05;}.cls-4{fill:#ff3a06;}.cls-5{fill:#629fff;}.cls-6{fill:#4704c7;}.cls-7{fill:#4604c7;}.cls-8{fill:#ffa706;}.cls-9{fill:#4807c8;}.cls-10{fill:#4c0bc9;}.cls-11{fill:#4e0eca;}.cls-12{fill:#4b0ac9;}.cls-13{fill:#4d0dc9;}.cls-14{fill:#4f0fca;}.cls-15{fill:#5011ca;}.cls-16{fill:#4f10ca;}.cls-17{fill:#d4d4d5;}.cls-18{fill:#b3b3b4;}</style></defs><path class="cls-1" d="M625.62,906.55a292.13,292.13,0,0,1,15.84-33.28,298.12,298.12,0,0,1,28.31-41.52,295,295,0,0,1,24.78-26.66,286.46,286.46,0,0,1,94.67-59.64,295.89,295.89,0,0,1,54.94-15,290.48,290.48,0,0,1,64.51-3.36,274.59,274.59,0,0,1,73.65,14.39,290.11,290.11,0,0,1,44.32,19.26,274.55,274.55,0,0,1,45.72,30.59c8.34,6.94,16.7,13.89,23.92,22.07,3.8,4.32,8,8.32,11.72,12.66a285,285,0,0,1,28.86,40,237.5,237.5,0,0,1,12,22.35,4,4,0,0,1,.16.93,31.6,31.6,0,0,1-3.9,1.77c-8.39,2.57-16.78,5.16-25.22,7.56-8.9,2.53-17.85,4.85-26.78,7.26-6.47,1.75-12.91,3.58-19.4,5.24-18.7,4.78-37.39,9.59-56.32,13.39-7.82,1.56-15.6,3.28-23.4,4.9-6.87,1.43-13.74,2.81-20.61,4.2s-14,3-21.09,4.2c-9.11,1.53-18.27,2.74-27.41,4.09-1.73.26-3.45.6-5.19.85-5.36.77-10.72,1.55-16.09,2.27-6.47.87-12.94,1.73-19.43,2.53-3.95.48-7.93.78-11.89,1.24s-8.2,1.19-12.32,1.52c-6.36.51-12.74.79-19.11,1.17a9.86,9.86,0,0,0-1.44.1c-6.76,1.32-13.71.46-20.48,1.64H766.62c-1.11,0-2.24,0-3.35-.14-5.71-.53-11.41-1.11-17.12-1.64-4.45-.41-8.93-.57-13.34-1.21-7.57-1.08-15.15-2.18-22.63-3.76q-13.32-2.81-26.47-6.47c-11.9-3.34-23-8.78-33.86-14.52-7.54-4-14.21-9.14-20.72-14.56C627.69,909.77,626.08,908.58,625.62,906.55Z" transform="translate(718.97 -649.43)"/><path class="cls-2" d="M1172.91,963.7a224.71,224.71,0,0,1,3.9,33.31,295.65,295.65,0,0,1-1.09,45.52,278.07,278.07,0,0,1-7.57,41.46c-2.77,10.5-5.57,21-9.76,31-3.08,7.37-6.37,14.65-9.63,21.94-5.48,12.3-12.53,23.73-20,34.9-4.5,6.77-9.63,13.14-14.62,19.58-3.33,4.28-6.7,8.57-10.44,12.5-6.71,7.06-13.47,14.11-20.65,20.68a274.1,274.1,0,0,1-38.48,29.3,281.91,281.91,0,0,1-49.93,25.34,310.63,310.63,0,0,1-32.87,10.44,264,264,0,0,1-44.84,7.77c-9.87.82-19.81.85-29.72.92a246.49,246.49,0,0,1-40.59-3.28,288.2,288.2,0,0,1-41-9.76,273.31,273.31,0,0,1-41.77-16.73,287.07,287.07,0,0,1-54.9-35.79c-7.22-6-14.5-12.06-20.79-19.14-.84-1-1.58-2-2.37-3,7.5-.3,15-.08,22.5-.9,8.88-1,17.83-1.41,26.61-3.2,9.23-1.87,18.46-3.76,27.61-6,7.9-1.93,15.72-4.23,23.52-6.57,8.1-2.43,16.22-4.89,24.18-7.74,14.29-5.11,28.45-10.56,42.35-16.65q18.64-8.19,37.11-16.79c7.08-3.31,13.9-7.17,20.92-10.63,16.07-7.91,31.67-16.66,47.18-25.59,7.2-4.15,14.37-8.35,21.45-12.68,12.82-7.83,25.73-15.51,38.28-23.74,14.83-9.71,29.6-19.51,44-29.82,11.69-8.35,23.42-16.66,34.88-25.32,9.68-7.32,19.21-14.85,28.78-22.32,3.27-2.55,6.46-5.21,9.7-7.8,3.87-3.09,7.84-6.06,11.61-9.27,8-6.84,15.92-13.81,23.91-20.68A13.08,13.08,0,0,1,1172.91,963.7Z" transform="translate(718.97 -649.43)"/><path class="cls-3" d="M-475.79,825.28c2.2.74,3.68,1.26,5.18,1.74a83.1,83.1,0,0,1,22.45,10.61c8.19,5.74,14.47,13,17.9,22.52a46.07,46.07,0,0,1,2.55,15.53q.09,34.79,0,69.57a69.92,69.92,0,0,1-3.21,21.26,55.9,55.9,0,0,1-21.64,29.64,103.07,103.07,0,0,1-47.07,17.76,149.39,149.39,0,0,1-18.19,1q-52.77,0-105.56,0c-1.44,0-2.89,0-4.32,0-2-.14-2.91-1-3.08-3-.09-1.12,0-2.24,0-3.36V667.84a37.68,37.68,0,0,1,.1-3.83,2.7,2.7,0,0,1,2.44-2.55,24.89,24.89,0,0,1,3.35-.15c34.87,0,69.74-.08,104.61,0a133.32,133.32,0,0,1,46.06,8c7.51,2.77,14.83,6,21.45,10.58,13.67,9.47,20.82,22.64,21.95,39.11.36,5.25.35,10.54.38,15.81.05,12.16.08,24.31,0,36.46a70.54,70.54,0,0,1-.9,11.45c-1.89,10.84-7.52,19.58-15.83,26.66A78.41,78.41,0,0,1-468.11,822C-470.45,823-472.78,824-475.79,825.28Zm-62.57,20c0,1.73-.15,3.46-.15,5.18q0,33.82,0,67.63c0,14.55,0,29.1,0,43.65,0,1.37-.48,2.88.72,4.16a24,24,0,0,0,12.46-2.67,12.22,12.22,0,0,0,6.86-8.73,33.6,33.6,0,0,0,.62-6.16q0-42.95,0-85.87a35,35,0,0,0-.08-3.83A13.61,13.61,0,0,0-522,849.7a15.52,15.52,0,0,0-6.68-3.63C-531.75,845.3-534.81,844.19-538.36,845.27Zm.11-42.9c3.61.57,6.81-.38,10-1.41,6.87-2.25,10.4-6.68,10.44-13.81q.2-30.9,0-61.81c0-6.41-3.3-10.88-9.27-13.22-3.54-1.39-7.21-2.3-11.39-1.49,0,29.88,0,59.57,0,89.25C-538.5,800.64-538.35,801.41-538.25,802.37Z" transform="translate(718.97 -649.43)"/><path class="cls-4" d="M-194.2,917.49V878.14c0-1.12-.05-2.24,0-3.36.15-2.37,1.15-3.36,3.61-3.57,1.11-.09,2.24,0,3.36,0h70.54c6.56,0,6.78.23,6.78,6.74q0,36,0,72c0,1.44,0,2.88,0,4.32a7.85,7.85,0,0,0,5.43,7.72,25.45,25.45,0,0,0,17.85,0,7.65,7.65,0,0,0,5.2-6.87c.12-1.27.12-2.56.12-3.83,0-12.64-.09-25.28,0-37.91a33.61,33.61,0,0,0-4.49-16.93A80.69,80.69,0,0,0-100,877.86c-4.78-4.69-9.73-9.25-14.85-13.59-17.55-14.9-35-29.95-51.68-45.79a200.39,200.39,0,0,1-14.14-15,55.13,55.13,0,0,1-12.74-27,56.22,56.22,0,0,1-.72-9.07q-.11-20.16,0-40.31a68.14,68.14,0,0,1,4.64-25.31,56.2,56.2,0,0,1,23.12-27.35A96.13,96.13,0,0,1-133,661.79a227.94,227.94,0,0,1,58.72-3.29,158.78,158.78,0,0,1,28.88,4.29c10.95,2.82,21.17,7.21,30,14.46a50.24,50.24,0,0,1,16,23.47A66.7,66.7,0,0,1,3.75,722c0,18.87,0,37.74,0,56.61a25.13,25.13,0,0,1,0,2.88,3.17,3.17,0,0,1-3.16,3c-1.11.1-2.24,0-3.35,0h-71c-1.12,0-2.24,0-3.35-.06a3.39,3.39,0,0,1-3.33-3.39c-.09-1.27,0-2.56,0-3.84V720.61c0-1.28,0-2.57,0-3.84a6.66,6.66,0,0,0-4.88-6.41,18.35,18.35,0,0,0-11.78-.16c-4.19,1.36-6.28,4.71-7.43,8.75-1.21,4.22-1.14,8.53-.82,12.85.5,6.7,1.1,13.38,1.52,20.08a29.67,29.67,0,0,0,1.81,8.4,52.87,52.87,0,0,0,8,14.11,131.36,131.36,0,0,0,20,20.61c16,13.46,32,27,47.41,41.21C-20,842.4-13.46,848.7-7.35,855.46c6.38,7,11.61,14.85,14.8,23.9a66.92,66.92,0,0,1,3.88,22.09q.13,23,0,46.06a73.05,73.05,0,0,1-4,24c-4.54,12.86-12.77,22.71-24.19,30-10.53,6.75-22.16,10.57-34.31,13a171.25,171.25,0,0,1-28.55,3.26c-4.79.14-9.58.36-14.37.39a214.57,214.57,0,0,1-35.36-2.54c-12-1.94-23.76-5-34.57-10.9-9.6-5.24-17.57-12.17-23-21.83a56.75,56.75,0,0,1-6.89-23.26c-.28-3.34-.28-6.71-.29-10.07C-194.22,938.92-194.2,928.2-194.2,917.49Z" transform="translate(718.97 -649.43)"/><path class="cls-3" d="M-304.28,710.46a9.6,9.6,0,0,0-.34,1.79q0,43.9,0,87.65c1.62,1.32,3.28.81,4.82.82q31.68,0,63.35,0c1.28,0,2.57,0,3.84,0,2.1.12,2.92.91,3.1,2.88.07.79,0,1.6,0,2.4v35.51c0,.48,0,1,0,1.44-.12,3.2-.73,3.83-4,3.89s-6.72,0-10.08,0h-55.67c-1.57,0-3.14.08-5,.13a25.29,25.29,0,0,0-.38,3c0,5,0,9.92,0,14.88q0,47.75,0,95.49c0,1.73.11,3.46.17,5.29,1.93.74,3.7.45,5.4.45q36,0,72,0c1.27,0,2.56,0,3.83.05,1.93.16,2.81,1.08,3,3.08a27.63,27.63,0,0,1,.06,2.88v37a26.81,26.81,0,0,1-.13,3.35,2.61,2.61,0,0,1-2.59,2.37c-1.11.09-2.24,0-3.36,0H-390.88a32.61,32.61,0,0,1-3.83-.14,2.25,2.25,0,0,1-1.92-1.9,10,10,0,0,1-.15-1.9c0-1.28,0-2.56,0-3.84V669.26c0-1.6-.06-3.21.05-4.8a2.92,2.92,0,0,1,3-3.1c1.11-.1,2.23-.05,3.35-.05h162.7a35.11,35.11,0,0,1,3.84.11,2.87,2.87,0,0,1,2.53,2.51,18.28,18.28,0,0,1,.15,2.87q0,18.71,0,37.43a23.83,23.83,0,0,1,0,2.39c-.23,2.18-1.2,3.14-3.36,3.28-1.28.08-2.56,0-3.84,0q-35.28,0-70.55,0C-300.7,710-302.5,709.54-304.28,710.46Z" transform="translate(718.97 -649.43)"/><path class="cls-5" d="M1172.91,963.7a13.08,13.08,0,0,0-2.48,1.33c-8,6.87-15.89,13.84-23.91,20.68-3.77,3.21-7.74,6.18-11.61,9.27-3.24,2.59-6.43,5.25-9.7,7.8-9.57,7.47-19.1,15-28.78,22.32-11.46,8.66-23.19,17-34.88,25.32-14.44,10.31-29.21,20.11-44,29.82-12.55,8.23-25.46,15.91-38.28,23.74-7.08,4.33-14.25,8.53-21.45,12.68-15.51,8.93-31.11,17.68-47.18,25.59-7,3.46-13.84,7.32-20.92,10.63q-18.43,8.64-37.11,16.79c-13.9,6.09-28.06,11.54-42.35,16.65-8,2.85-16.08,5.31-24.18,7.74-7.8,2.34-15.62,4.64-23.52,6.57-9.15,2.23-18.38,4.12-27.61,6-8.78,1.79-17.73,2.22-26.61,3.2-7.5.82-15,.6-22.5.9-9,.17-17.88-1-26.7-2.35a134.84,134.84,0,0,1-25.43-6.79,169.51,169.51,0,0,1-47.79-26A151.56,151.56,0,0,1,528.25,1071c-1-10-1.91-20-.64-30.14.58-4.59.91-9.22,1.13-13.84.25-5.12,1.67-10,2.62-15,0,3.14.22,6.3-.05,9.42a108.21,108.21,0,0,0,.12,18.18,96.88,96.88,0,0,0,4.07,21.13,86.48,86.48,0,0,0,11.65,24,88.73,88.73,0,0,0,30.69,27,121.47,121.47,0,0,0,25.83,10.12,176.53,176.53,0,0,0,25.84,5,209.45,209.45,0,0,0,27.78,1.09c8.32-.1,16.59-.76,24.85-1.68,6.83-.76,13.68-1.31,20.48-2.25,7.43-1,14.8-2.46,22.22-3.62,9.94-1.56,19.8-3.51,29.61-5.73,14-3.18,28-6.45,41.83-10.46,6.75-2,13.57-3.68,20.29-5.72,11.92-3.63,23.8-7.4,35.68-11.17,7.15-2.27,14.31-4.54,21.4-7,9.34-3.27,18.63-6.72,27.92-10.17s18.58-6.9,27.79-10.53c8.92-3.5,17.79-7.16,26.62-10.89q18.54-7.86,37-15.93c9.51-4.17,19-8.41,28.41-12.8q18.47-8.62,36.79-17.55c10.33-5,20.66-10.13,30.82-15.52,15.39-8.16,30.68-16.52,45.92-24.95,9.79-5.41,19.43-11.11,29.13-16.67,16.77-9.63,33.06-20,49.34-30.48,5.92-3.79,11.71-7.78,17.59-11.63a33.22,33.22,0,0,1,3.38-1.68h0c.27,1.32-.69,2.06-1.44,2.83-9.85,10.17-19.56,20.48-29.65,30.42-8.61,8.47-17.67,16.49-26.49,24.75C1175.37,960.8,1174.18,962.3,1172.91,963.7Z" transform="translate(718.97 -649.43)"/><path class="cls-3" d="M180.84,710.9c-.05,2.33-.13,4.22-.13,6.11q0,85.86,0,171.73v119.45c0,6.67,0,6.68-6.57,6.68H95c-1.12,0-2.24,0-3.36,0-2.19-.16-3-1-3.17-3.36,0-.63,0-1.27,0-1.91,0-1.44,0-2.88,0-4.32q0-144.15,0-288.31c0-1.89-.06-3.78-.09-6-1.71-.1-3.1-.25-4.49-.25q-19,0-37.91,0c-1.28,0-2.56.06-3.83,0-2-.15-2.78-1-3-3.08-.07-.8,0-1.6,0-2.4q0-19.18,0-38.38c0-5,.47-5.47,5.48-5.48q20.4,0,40.78,0H222.11c1.44,0,2.88-.06,4.32,0,2.78.16,3.7,1.09,3.85,3.79,0,.63,0,1.27,0,1.91v37.9c0,.8,0,1.6,0,2.4-.17,2.18-1.11,3.16-3.27,3.32-1.28.08-2.56,0-3.84,0H184.3C183.35,710.7,182.4,710.8,180.84,710.9Z" transform="translate(718.97 -649.43)"/><path class="cls-6" d="M-41.85,1343a12.21,12.21,0,0,0-1.9.82c-6.94,4.72-14.85,6.67-23,7.67a80.91,80.91,0,0,1-20.57.19c-11.4-1.52-21.57-5.68-29.95-13.76a30.54,30.54,0,0,1-9.61-21.29c-.06-1.44,0-2.88,0-4.32V1093.11c0-1.6,0-3.21.08-4.8a2.38,2.38,0,0,1,2.4-2.49c1.11-.11,2.24-.09,3.35-.09q27.84,0,55.66,0c5.5,0,5.54,0,5.54,5.69q0,101,0,202c0,2.4,0,4.8.23,7.19.5,5.26,3.1,7.67,8.42,7.9a15.22,15.22,0,0,0,3.81-.32c3.31-.7,5.42-2.7,5.82-6.14a53.75,53.75,0,0,0,.3-6.22q0-95.22,0-190.45c0-4.64,0-9.28,0-13.92a27.44,27.44,0,0,1,.06-2.87,2.79,2.79,0,0,1,2.72-2.8,24,24,0,0,1,2.4,0H21c.64,0,1.29,0,1.92,0,1.84.14,2.6.83,2.77,2.64.1,1.11.06,2.24.06,3.36q0,125.45,0,250.9c0,6.06,0,6.06-6.19,6.07H-36.08c-4.53-.06-4.57-.1-5.31-4.79A6,6,0,0,0-41.85,1343Z" transform="translate(718.97 -649.43)"/><path class="cls-7" d="M-148.6,1218.48c0,25.27,0,50.53,0,75.79a100.17,100.17,0,0,1-1,14.8c-2.51,16.51-12,27.83-26.91,34.81a86,86,0,0,1-23.89,6.75,162.06,162.06,0,0,1-28.69,1.55c-12.33-.35-24.56-1.61-36.34-5.6a59.55,59.55,0,0,1-19.64-10.76c-8.58-7.21-13.4-16.53-15.45-27.4a76,76,0,0,1-1.17-14.3q.06-76.51,0-153a66.78,66.78,0,0,1,2.47-18.95c3.54-12.09,11-21.1,21.92-27.33,8.44-4.83,17.63-7.45,27.16-9a156.26,156.26,0,0,1,28.66-2c16.16.46,31.72,3.51,46.23,11,8.09,4.16,15.12,9.51,20,17.39a44.43,44.43,0,0,1,6.39,20.37c.25,3.34.25,6.71.25,10.06Q-148.58,1180.6-148.6,1218.48Zm-85.81-.74q0,39.33,0,78.67a30.21,30.21,0,0,0,.84,7.09,6.8,6.8,0,0,0,2.26,3.53c3.17,2.49,6.85,2.54,10.47,1.22,3-1.1,4.3-3.73,4.71-6.73a45.89,45.89,0,0,0,.3-6.21q0-77.24,0-154.46c0-1.27,0-2.56,0-3.83-.44-7.07-4-10.07-11-9.25a7.47,7.47,0,0,0-.95.12c-3.08.64-5.32,2.33-5.94,5.5a35.35,35.35,0,0,0-.65,6.65Q-234.44,1178.89-234.41,1217.74Z" transform="translate(718.97 -649.43)"/><path class="cls-8" d="M625.62,906.55c.46,2,2.07,3.22,3.51,4.42,6.51,5.42,13.18,10.59,20.72,14.56,10.91,5.74,22,11.18,33.86,14.52q13.13,3.68,26.47,6.47c7.48,1.58,15.06,2.68,22.63,3.76,4.41.64,8.89.8,13.34,1.21,5.71.53,11.41,1.11,17.12,1.64,1.11.1,2.24.14,3.35.14h52.31c6.77-1.18,13.72-.32,20.48-1.64a9.86,9.86,0,0,1,1.44-.1c6.37-.38,12.75-.66,19.11-1.17,4.12-.33,8.21-1.05,12.32-1.52s7.94-.76,11.89-1.24c6.49-.8,13-1.66,19.43-2.53,5.37-.72,10.73-1.5,16.09-2.27,1.74-.25,3.46-.59,5.19-.85,9.14-1.35,18.3-2.56,27.41-4.09,7.07-1.19,14.07-2.78,21.09-4.2s13.74-2.77,20.61-4.2c7.8-1.62,15.58-3.34,23.4-4.9,18.93-3.8,37.62-8.61,56.32-13.39,6.49-1.66,12.93-3.49,19.4-5.24,8.93-2.41,17.88-4.73,26.78-7.26,8.44-2.4,16.83-5,25.22-7.56a31.6,31.6,0,0,0,3.9-1.77,10.06,10.06,0,0,0,2.34-.14c9.14-2.82,18.32-5.52,27.38-8.58,12.07-4.08,24-8.45,36.07-12.68a1.89,1.89,0,0,1,1.26,0c-4.41,1.73-8.11,4.94-12.85,5.9l-.3,0-.08.31c-1.45,1-2.85,2-4.38,2.87-5.91,3.18-11.81,6.37-17.8,9.4q-15.4,7.79-30.91,15.36c-12.92,6.32-25.79,12.76-38.86,18.76-14.38,6.6-28.83,13.06-43.47,19q-24.18,9.87-48.8,18.65c-14.45,5.13-29.09,9.76-43.8,14.1C958,977.37,941,982,924,986.34c-11.44,2.95-23,5.6-34.6,7.76-17,3.17-34,6.21-51.07,8.47-13.65,1.8-27.32,3.23-41,4.08a418.2,418.2,0,0,1-45.07.57c-20.83-1-41.41-3.45-61.61-8.7-11.46-3-22.76-6.45-33.41-11.74-14.41-7.15-27.76-15.78-38.78-27.72a105.71,105.71,0,0,1-20.63-32.61A146.68,146.68,0,0,1,588.15,886a204.48,204.48,0,0,1-.6-28.75,222.09,222.09,0,0,1,3.18-29.54c1.06-6,2.17-11.93,3.26-17.89,1.36.23,1.21,1.62,1.84,2.41-.21,2-.41,3.94-.62,5.91a5.1,5.1,0,0,0-.15,4.52v12.73a3.57,3.57,0,0,0,.12,3.56l.63,5.91a3.52,3.52,0,0,0,.45,3.67c.18,1,.37,2,.55,3.05a1.27,1.27,0,0,0,.3,1.78,33.18,33.18,0,0,0,2.56,10.69,1.27,1.27,0,0,0,.48,1.76c1.48,7.07,4.75,13.42,8.22,19.66a111.65,111.65,0,0,0,11.52,16.31C621.45,903.72,622.91,905.94,625.62,906.55Z" transform="translate(718.97 -649.43)"/><path class="cls-7" d="M118.2,1091.79a21.42,21.42,0,0,0,2.43-.92,60,60,0,0,1,21.52-6.19,97,97,0,0,1,15.32-.75c9.72.4,19,2.59,27.38,7.73,6.25,3.83,11.48,8.62,14.81,15.29a31.11,31.11,0,0,1,3.45,13.84c.07,23.83,0,47.66,0,71.5a5.33,5.33,0,0,1-.2,2.35,4.26,4.26,0,0,1-1.92,1.88,7.6,7.6,0,0,1-2.84.22H141.06a17.58,17.58,0,0,1-1.92,0c-2-.19-2.9-1-3-3-.09-1.27,0-2.56,0-3.83,0-16.32,0-32.63,0-49a44.22,44.22,0,0,0-.56-6.18,6.65,6.65,0,0,0-1-2.68c-2.42-3.58-6.08-3.78-9.85-3.29s-6.06,2.58-6.58,6a59,59,0,0,0-.64,8.6q-.06,46.55,0,93.09,0,52.79,0,105.57a42.35,42.35,0,0,1-.19,4.78,2.08,2.08,0,0,1-2,1.83,27.43,27.43,0,0,1-2.87.07q-28.32,0-56.63,0c-4.79,0-5.12-.38-5.18-5.23,0-.64,0-1.28,0-1.92q0-124.29,0-248.57c0-1.6,0-3.2.11-4.79a2.46,2.46,0,0,1,2.52-2.4c.95-.09,1.91-.06,2.87-.06q28.08,0,56.15,0c4.49,0,5.27-.12,5.31,5C117.53,1091,117.84,1091.24,118.2,1091.79Z" transform="translate(718.97 -649.43)"/><path class="cls-7" d="M-425.38,1127.64c-2.17,0-3.76-.06-5.34-.07h-16.8a31.16,31.16,0,0,1-3.35-.09,2.81,2.81,0,0,1-2.72-2.82,27.62,27.62,0,0,1-.08-2.88v-30.23c0-.48,0-1,0-1.44.12-3.84.6-4.34,4.55-4.37,6.39,0,12.79,0,19.19,0,1.4,0,2.8-.15,4.49-.25.09-1.81.22-3.37.22-4.93q0-20.38,0-40.78c0-1.28,0-2.56.08-3.83a2.78,2.78,0,0,1,2.44-2.57,14.75,14.75,0,0,1,2.39-.14h57.11c.32,0,.64,0,.95,0,3.46.16,4.25.9,4.31,4.28.06,3.2,0,6.4,0,9.59,0,11.2,0,22.4,0,33.59,0,1.55-.43,3.21.82,4.9,1.38.05,2.95.14,4.52.14,8,0,16,0,24,0,4.54,0,4.89.38,4.9,5,0,10.56,0,21.11,0,31.67a21.13,21.13,0,0,1-.06,2.39,2.77,2.77,0,0,1-2.79,2.73,31.35,31.35,0,0,1-3.36.09c-7.52,0-15,0-22.55,0-1.58,0-3.16.08-4.93.13a26.76,26.76,0,0,0-.55,2.9c-.09,1.11,0,2.24,0,3.35q0,73.89,0,147.78a47.47,47.47,0,0,0,.58,7.63c.82,5.05,3.7,8.45,8.78,9.61a81.23,81.23,0,0,0,9.89,1.74c4.61.45,9.25.53,13.88.8,2.39.14,3.11.86,3.26,3.2.06,1,0,1.92,0,2.88v35c0,1.12.05,2.25-.06,3.36a2.76,2.76,0,0,1-2.81,2.69c-1,.08-1.92,0-2.88,0-14.08,0-28.15.11-42.23,0a134.22,134.22,0,0,1-27.61-2.91,41.85,41.85,0,0,1-12.1-4.44,21.09,21.09,0,0,1-8.78-9.22,54.24,54.24,0,0,1-4.41-13.64,144.8,144.8,0,0,1-2.58-26.69q-.17-78.91-.28-157.84C-425.22,1132.06-425.31,1130.17-425.38,1127.64Z" transform="translate(718.97 -649.43)"/><path class="cls-9" d="M1321.91,836.58c-7,2.28-53.81,28.36-60.76,33.78-.54,4.2.12,8.48.45,12.77a102.51,102.51,0,0,1,.48,11.48c-.22,6-4.51,11.41-10.65,13.7a10.38,10.38,0,0,1-1.38-2.25c-1.42-4.57-2.72-9.19-4.11-13.77-1-3.21-2-6.41-3-9.58a27.1,27.1,0,0,0-1.57-3.24c-2-.52-3.36.4-4.85.87-3.2,1-6.39,2.06-9.61,3a10.78,10.78,0,0,1-2.6,0c.66-2.29,2.12-3.56,3.3-5s2.57-2.85,3.86-4.27l3.91-4.29c-3.11-4.46-7.37-7.36-11.14-10.74s-7.74-6.62-11.86-10.12a10.14,10.14,0,0,1,1.82-2.33c5.27-3.44,10.85-4.57,16.81-1.84,1.59.74,3.17,1.51,4.72,2.34,4,2.1,7.9,4.2,11.81,6.37,2.6,1.44,4.81,1.62,7.46-.37,7.66-5.75,15.6-11.13,23.34-16.78s15.64-11.63,23.42-17.49c1.9-1.42,3.68-3,5.68-4.65a47.17,47.17,0,0,0-3.73-7.42,147.14,147.14,0,0,0-13-17.18,60,60,0,0,0-7.6-7.27c-6.22-5-12.59-9.84-18.91-14.73q-11.57-8.94-23.15-17.87c-1-.77-1.9-1.66-3.1-2.72.66-.81,1.08-1.73,1.8-2.12a26.38,26.38,0,0,1,8.64-2.75,7.79,7.79,0,0,1,4.65.82c5.62,2.69,11.34,5.19,16.8,8.16,13.2,7.16,26.23,14.64,39.43,21.8,9,4.88,18.13,9.46,27.21,14.16.57.29,1.17.51,1.92.83.91-.54,1.87-1.07,2.78-1.67,9.21-6,18.36-12.22,27.64-18.17,12.45-8,26.25-10.53,40.82-9.54a37.43,37.43,0,0,1,5.09,1,12.33,12.33,0,0,1-.37,7.3,64.8,64.8,0,0,1-21.5,30c-4.35,3.46-9.33,6.15-14.07,9.12-6,3.72-12,7.35-18,11.05-.8.49-1.53,1.11-2.32,1.69,0,2.66-.14,5.21,0,7.74q1.52,23.21,3.14,46.4c.79,11.64,1.61,23.28,2.36,34.92.15,2.23,0,4.48.11,6.71a10.1,10.1,0,0,1-2.74,7.46c-1.86,2.08-3.48,4.61-6.82,5.23a15.33,15.33,0,0,1-1.25-2.55c-.82-2.92-1.56-5.87-2.27-8.82q-4.71-19.58-9.39-39.16c-.59-2.49-1.07-5-1.73-7.46a63.27,63.27,0,0,0-6.83-15.79c-3-5.07-6.28-10-9.47-15A16,16,0,0,0,1321.91,836.58Z" transform="translate(718.97 -649.43)"/><path class="cls-10" d="M-601.87,1518.05c1.26.76,2.5,1.46,3.69,2.24a17,17,0,0,1,7.82,12.59c.93,7.22-.83,13.61-6.06,18.87a16.41,16.41,0,0,1-8.21,4.69,62.4,62.4,0,0,1-11.33,1.7c-9.41.24-18.84.09-28.26.07a22.66,22.66,0,0,1-2.91-.42,28.38,28.38,0,0,1-.4-2.94c-.57-21.11-.25-67.47.54-72.11a14.07,14.07,0,0,1,2.56-.44q14.61,0,29.22.18a28.41,28.41,0,0,1,10.23,2.25c9.23,3.69,16,17,7.78,28.06C-598.52,1514.56-600.13,1516.1-601.87,1518.05Zm-34,30.25c7.56,0,14.89,0,22.21,0a14.34,14.34,0,0,0,3.74-.74c5.64-1.62,8.44-5.65,8.3-11.86-.13-5.83-3.13-9.83-8.66-11.09a42.57,42.57,0,0,0-8-1c-5.1-.15-10.21-.08-15.31,0a13.32,13.32,0,0,0-2.57.54C-636.67,1530.69-636.52,1544.22-635.82,1548.3Zm-.56-56c0,4-.14,7.49,0,11s-.66,6.94.6,10.44c7.16,0,14.16.09,21.15-.07a13.92,13.92,0,0,0,5-1.42,8.2,8.2,0,0,0,5-7.06,17.75,17.75,0,0,0,0-3.34c-.36-4.89-3-8.24-7.78-8.94A117.33,117.33,0,0,0-636.38,1492.33Z" transform="translate(718.97 -649.43)"/><path class="cls-11" d="M1120.39,1517.8c1.34.81,2.13,1.32,2.95,1.78,6.29,3.59,9.17,9.18,9.25,16.25a21.9,21.9,0,0,1-4.74,14.28,19.34,19.34,0,0,1-9.44,6.27,37,37,0,0,1-11.32,1.83c-9.59.09-19.18,0-28.77,0a20.67,20.67,0,0,1-2.28-.24c-1.23-1.57-.78-3.22-.79-4.76q0-21.09,0-42.2v-28a12.24,12.24,0,0,1,2.8-.73c9.91,0,19.82,0,29.72.2a23.15,23.15,0,0,1,13.93,4.5c9.3,7.17,9.77,21.17,1.57,28.12C1122.41,1515.84,1121.64,1516.63,1120.39,1517.8ZM1087,1548.26c7.59,0,14.93.13,22.26-.07a12.38,12.38,0,0,0,7.2-2.33c4.19-3.13,5.43-7.41,4.55-12.32a10.66,10.66,0,0,0-8.8-9,43,43,0,0,0-8.08-.92c-5-.15-9.91-.07-14.86,0a13.4,13.4,0,0,0-2.58.51C1086.17,1530.16,1086.31,1544.29,1087,1548.26Zm-.17-34.62c1.36.08,2.46.2,3.55.2,4.79,0,9.58,0,14.37,0a21.89,21.89,0,0,0,4.29-.25c2.84-.6,5.53-1.57,7.32-4.11a10.53,10.53,0,0,0-7.13-16.72,130.69,130.69,0,0,0-21-.57,4.24,4.24,0,0,0-1.27.47C1086.29,1496.19,1086.2,1508.49,1086.86,1513.64Z" transform="translate(718.97 -649.43)"/><path class="cls-12" d="M1260.51,1482.63c3.25-.72,6.57-.19,10-.32,3,4.69,5.87,9.27,8.75,13.85s5.61,8.93,8.41,13.39,5.71,9.25,8.69,13.79c2.86,4.37,5.22,9.09,9,13.57a17.51,17.51,0,0,0,.65-3.09c0-8,0-16,0-24V1483c3.4-1.24,6.56-.6,9.52-.54,1.36,1.09,1,2.45,1,3.69,0,7.83,0,15.66,0,23.49q0,21.34,0,42.68c0,1.73-.08,3.47-.12,5.26-3.38,1.14-6.57.62-9.71.52-1.23,0-1.79-1.23-2.39-2.17-2.75-4.31-5.52-8.61-8.25-12.93q-11.81-18.62-23.59-37.25c-.49-.78-1.09-1.5-1.64-2.23-1.52.84-.92,2.09-.93,3.09,0,15.35,0,30.69,0,46,0,1.72.4,3.51-.57,5.31a35.5,35.5,0,0,1-9.11.07c-.16-1.26-.39-2.33-.42-3.41C1259.32,1528.88,1259.66,1486.77,1260.51,1482.63Z" transform="translate(718.97 -649.43)"/><path class="cls-10" d="M-171.71,1538.4c3.47-3.59,5.48-7.57,8-11.18s5-7.41,7.5-11.12,5.14-7.71,7.72-11.56,5-7.44,7.48-11.14,5-7.36,7.61-11.12c2.57,0,4.95,0,7.33,0a21.08,21.08,0,0,1,2.18.22c1.42,1.31,1,2.83,1,4.21,0,10.87,0,21.73,0,32.6v37.94c-3.27,1.46-6.36.88-9.35.53-1-1.85-.61-3.64-.62-5.37,0-15,0-30.05,0-45.07,0-1.55-.09-3.11-.14-4.54-1.35-.43-1.78.33-2.2,1-2.86,4.24-5.68,8.5-8.53,12.74q-12.83,19.1-25.66,38.18c-.71,1-1.47,2.06-2.3,3.22a42.39,42.39,0,0,1-9.82-.05c-1.34-1.32-.91-2.83-.92-4.22,0-10.7,0-21.41,0-32.12q0-17,0-34c0-1.55.13-3.1.2-4.55a18.26,18.26,0,0,1,9.25-.12c.88,1.63.5,3.42.5,5.14,0,15,0,30,0,45.07C-172.49,1534.58-172.82,1536.19-171.71,1538.4Z" transform="translate(718.97 -649.43)"/><path class="cls-13" d="M36.87,1482.47a38.94,38.94,0,0,1,8.36,0c1.48,1.42.93,3.11.93,4.63q.06,22.8,0,45.58c0,1.44,0,2.88.08,4.32,0,.4.4.78.76,1.45,3.84-4.36,6.5-9.29,9.7-13.81,3.33-4.69,6.4-9.57,9.6-14.36s6.24-9.28,9.36-13.93l9.41-14c3.46-.06,6.76-.42,10.3.27a19.56,19.56,0,0,1,.41,2.85q0,34.55,0,69.09c0,.94-.16,1.88-.25,2.94-3,1.25-6,.63-8.8.54-1.52-1.25-1.08-2.79-1.08-4.17q0-17.51,0-35c0-4.48,0-9,0-13.44,0-.9-.15-1.81-.23-2.65-1.52-.21-1.81.84-2.3,1.58Q74.82,1516.7,66.52,1529c-5.88,8.76-11.81,17.49-17.56,26.33-1.4,2.15-2.94,3.19-5.48,2.9-2.2-.24-4.46.28-6.68-.36a5.2,5.2,0,0,1-.44-1.4q0-36.23,0-72.45A6.26,6.26,0,0,1,36.87,1482.47Z" transform="translate(718.97 -649.43)"/><path class="cls-11" d="M1213.35,1520.44a45.33,45.33,0,0,1-3.42,18.24,31.33,31.33,0,0,1-15.64,16.83c-12.41,5.89-24.76,5.7-36.65-1.59a32.24,32.24,0,0,1-13.75-17.31c-4.33-12.31-3.93-24.59,1.6-36.39,4.7-10,12.9-16.21,23.78-18.31a37.65,37.65,0,0,1,21.7,1.69c10.31,4.18,17,11.65,20.35,22.17A45,45,0,0,1,1213.35,1520.44Zm-61.1.39c.23,2.53.28,5.1.72,7.61,2.46,14,13.14,21.82,25.25,21.37a23.65,23.65,0,0,0,21.87-16.35,41.1,41.1,0,0,0-.16-26.32,22.41,22.41,0,0,0-4.75-8.23c-7.16-7.7-15.93-9.69-25.75-6.62a22,22,0,0,0-15.16,15.31A53.38,53.38,0,0,0,1152.25,1520.83Z" transform="translate(718.97 -649.43)"/><path class="cls-13" d="M-509.46,1520.57a41.23,41.23,0,0,1-3.4,18.34c-4.76,11-13.32,17.35-24.8,19.84a36.4,36.4,0,0,1-19.88-1.18c-8.55-3-15.2-8.3-19.19-16.4-7-14.29-6.89-28.85.57-42.84,5.67-10.64,15.21-16.12,27.25-17a38.21,38.21,0,0,1,16.07,1.85c11.8,4.29,18.84,12.74,22.06,24.65A44.41,44.41,0,0,1-509.46,1520.57Zm-11-1.29c-.31-2.26-.56-5.62-1.28-8.87a24.37,24.37,0,0,0-7.7-13.51c-13.64-11.85-35.59-5.05-39.39,12a52.69,52.69,0,0,0-.8,19.94c1.84,11.67,11.5,21.58,25.06,20.94,9.32-.44,16-4.66,20.45-12.73C-521.21,1531.83-520.71,1526.13-520.42,1519.28Z" transform="translate(718.97 -649.43)"/><path class="cls-13" d="M467.46,1520.18a44.91,44.91,0,0,1-1.84,14c-4.37,15.46-16.76,24.25-31.95,25.31a35.31,35.31,0,0,1-19.89-4.27,33.52,33.52,0,0,1-16.44-20.36c-3.45-11.4-3.12-22.85,1.85-33.73,5.49-12,15.19-18.63,28.43-19.75a36.84,36.84,0,0,1,18.76,2.79,33.83,33.83,0,0,1,18.87,21.18A42,42,0,0,1,467.46,1520.18Zm-11.28.47c-.08-1.75-.06-3.52-.27-5.26-.73-6-2.42-11.56-6.38-16.23a24,24,0,0,0-26.59-6.72c-7.18,2.63-12.27,7.42-14.51,14.8a46.37,46.37,0,0,0-1.08,22.72,24.35,24.35,0,0,0,24.58,19.87c8.27-.27,17.77-4.71,21.82-15.11A36.33,36.33,0,0,0,456.18,1520.65Z" transform="translate(718.97 -649.43)"/><path class="cls-14" d="M772.9,1482.66c.26,3.33.5,6.15-.18,9.25-1.54.11-2.94.29-4.33.3q-16.56,0-33.12,0h-5.35c-1.2,3.66-.47,7.18-.59,10.64s0,7,0,10.79c1.46.15,2.67.37,3.88.38,10.56,0,21.12,0,31.68,0,1.57,0,3.14.1,4.61.15,1,3.51,1,5,.22,9.36-2.58.57-5.29.21-8,.27s-5.12,0-7.67,0H730a6.75,6.75,0,0,0-.65,1.87q0,10.54,0,21.11a5,5,0,0,0,.45,1.21c1.23.08,2.62.24,4,.24q17.76,0,35.52,0c1.58,0,3.16.09,4.84.14a20.45,20.45,0,0,1,.19,9.3,12.12,12.12,0,0,1-2.35.48q-25.42,0-50.87,0a18.58,18.58,0,0,1-2.4-.33,11.89,11.89,0,0,1-.49-2c-.4-6.46-.06-69.74.41-73.17a13.72,13.72,0,0,1,2.58-.48q24.47,0,49,0A24.88,24.88,0,0,1,772.9,1482.66Z" transform="translate(718.97 -649.43)"/><path class="cls-10" d="M-482.32,1492.8c-.7,3.48-.8,15.56-.18,20.52,1.16,1.17,2.68.71,4.05.72,10.4,0,20.8,0,31.2,0,1.71,0,3.54-.47,5.18.93a33.58,33.58,0,0,1,.17,7.82c-1.31,1.37-2.82,1-4.2,1-10.4,0-20.79,0-31.19,0-1.58,0-3.16.08-4.68.12-.35.62-.76,1-.76,1.42,0,7.35,0,14.7,0,21.86,1.28,1.49,2.81,1,4.19,1q17.76,0,35.51,0h4.92a18.5,18.5,0,0,1,.31,9.4c-3.86.63-49.73.78-55.28.21-1.13-1-.82-2.34-.82-3.58,0-6.56,0-13.12,0-19.67q0-23.28,0-46.55c0-1.73.1-3.46.16-5.34a10.33,10.33,0,0,1,2-.46q24.94,0,49.91,0a16.42,16.42,0,0,1,2,.26c1.31,2.94.76,5.91.48,8.77-1.52,1.31-3.19.85-4.74.85-11.2,0-22.4,0-33.59,0C-479.26,1492.23-480.9,1491.81-482.32,1492.8Z" transform="translate(718.97 -649.43)"/><path class="cls-13" d="M242.79,1548.54c0,2.87,0,5.1,0,7.32a12.18,12.18,0,0,1-.47,2.07c-1.29.1-2.54.28-3.79.3-26.16.39-48,.17-51.94-.54a18.69,18.69,0,0,1-.36-2.67q0-34.77,0-69.54c0-.79.12-1.58.2-2.56a8.61,8.61,0,0,1,2.23-.6q24.94-.06,49.89,0a13.84,13.84,0,0,1,2.08.34,25.47,25.47,0,0,1,0,9.09c-3.53,1-7.06.35-10.53.45-3.67.12-7.35,0-11,0H208.52l-10.39.08c-.89,3.57-1,16.35-.22,21.45,1.14.1,2.36.3,3.58.3,10.56,0,21.11,0,31.66,0,1.56,0,3.21-.41,4.83.75v8.69c-1.37.11-2.6.31-3.82.31q-15.34,0-30.7,0h-5.27c-1.4,2.78-.62,5.53-.76,8.17s-.07,5.12,0,7.67-.29,5.4.34,8.32c1.32.11,2.55.29,3.78.29,12,0,24,0,36,0C239.08,1548.31,240.64,1548.44,242.79,1548.54Z" transform="translate(718.97 -649.43)"/><path class="cls-13" d="M539.1,1548.52v9.4c-1.45.12-2.69.29-3.94.31-26,.38-48.06.16-51.75-.5-1.13-1.36-.68-3-.69-4.56,0-12.62,0-25.25,0-37.88,0-9.26,0-18.53,0-27.8,0-1.55-.43-3.2.76-4.92.75-.08,1.66-.26,2.58-.29,19.06-.48,46.57-.22,50.72.46.87,3.19.91,4.46.27,8.87-1.43,1-3.07.58-4.63.58-10.87,0-21.74,0-32.61,0-1.73,0-3.47.08-5.3.13-1.33,3.64-.56,7.16-.66,10.6a79.45,79.45,0,0,0,.12,10.16c1.6,1.31,3.1.92,4.49.93,10.39,0,20.78,0,31.17,0,1.56,0,3.2-.34,4.81.72.09,1,.24,2.12.26,3.22,0,1.73,0,3.47-.06,5.27-3.59,1-6.94.44-10.24.53s-6.72,0-10.07,0H494.69a6.87,6.87,0,0,0-.78,2c-.05,6.87,0,13.74,0,20.61a5.6,5.6,0,0,0,.53,1.51c3.58.72,7.25.24,10.88.32,3.84.09,7.68,0,11.51,0,3.68,0,7.35,0,11,0S535.14,1548.1,539.1,1548.52Z" transform="translate(718.97 -649.43)"/><path class="cls-14" d="M801.07,1557.89c-3.27.67-6.42.29-9.76.26-.28-1.1-.59-2-.72-2.87a16,16,0,0,1,0-2.4q0-32.6,0-65.2c0-1.57.12-3.14.19-4.83,3.68-1.09,7.07-.45,10.8-.43.09,2,.21,3.59.21,5.15,0,6.72,0,13.43,0,20.14,0,1.56-.36,3.19.67,4.9,3.76.91,7.75.3,11.69.41s8,0,12,0,8,0,11.54-.07c1.53-1.32,1.22-2.68,1.22-3.91,0-7.35,0-14.7,0-22.06,0-1.39.17-2.78.28-4.43a35.36,35.36,0,0,1,10.07,0c1.24,1.71.75,3.52.76,5.23q0,26.12,0,52.25c0,4.79,0,9.59,0,14.38a32.41,32.41,0,0,1-.38,3.4,32.07,32.07,0,0,1-10.35.07c-.14-1.36-.37-2.58-.37-3.8,0-8.63,0-17.25,0-25.88,0-1.57-.13-3.13-.21-4.82-4.22-1-8.2-.39-12.13-.5s-8-.07-12,0-8-.27-11.74.22c-1.42,1.31-1,2.83-1,4.22,0,8.47,0,16.94,0,25.41C801.75,1554.32,802.08,1555.94,801.07,1557.89Z" transform="translate(718.97 -649.43)"/><path class="cls-10" d="M347.5,1483c0,5.4,0,10.67,0,15.93s-.06,10.45.05,15.7c4.77.74,8.23-.41,10.39-4.17,1.82-3.18,3.37-6.52,5-9.82,1-2.16,2-4.36,2.91-6.58,3.65-8.82,10.8-12.89,20.72-11.82.63.07,1.24.24,2,.4,1,2.94.77,5.87.16,9.07-1.19.06-2.27.18-3.35.16-4.79-.06-8.32,1.86-10.25,6.4-1.12,2.64-2.34,5.24-3.44,7.9-2.08,5-4.24,10-9.7,13a19.5,19.5,0,0,0,2,1.79,29,29,0,0,1,8.3,8.53c5.64,8.9,11.14,17.89,16.69,26.86a5.12,5.12,0,0,1,.26,1.24,7.25,7.25,0,0,1-2,.65c-2.72.08-5.44,0-8.15.06a4,4,0,0,1-3.87-2.25c-3.9-6.42-7.8-12.83-11.83-19.17-1.88-3-4-5.79-6.07-8.61a11.38,11.38,0,0,0-6.12-4.4,17.89,17.89,0,0,0-3.55-.21c0,3.94-.08,7.6-.09,11.25,0,3.83,0,7.67,0,11.51v11.16c-3.67,1.15-7.06.75-10.49.4-1-1.82-.64-3.62-.64-5.32q0-32.35,0-64.72c0-1.12,0-2.25,0-3.36a10.73,10.73,0,0,1,.5-1.92C340.43,1482.21,343.84,1481.84,347.5,1483Z" transform="translate(718.97 -649.43)"/><path class="cls-13" d="M578.25,1558.11c1.12-4.63,26.7-71.23,28.92-75.56a21.21,21.21,0,0,1,2.24-.26c2.87,0,5.73,0,8.09,0a9.4,9.4,0,0,1,.91.52,1,1,0,0,1,.29.38c.59,1.3,1.21,2.6,1.75,3.92q13.86,34.42,27.7,68.86a2.87,2.87,0,0,1,.13.93,4.94,4.94,0,0,1-.14.8c-3.58,1.12-7.33.45-11.25.36-3.34-7.13-5.52-14.65-8.6-21.66-3.43-.83-23-1.06-30.44-.39-1.36,1.86-1.87,4.22-2.7,6.43-1.68,4.48-3.27,9-4.82,13.52a3,3,0,0,1-3.17,2.31C584.33,1558.19,581.5,1558.32,578.25,1558.11Zm46.1-32.11c-1.54-5.39-3.68-10.5-5.56-15.7s-3.92-10.55-6-16.25c-3.89,10.68-7.6,20.84-11.29,31-.09.25.11.6.17.91C605.11,1526.65,619.62,1526.72,624.35,1526Z" transform="translate(718.97 -649.43)"/><path class="cls-11" d="M311.35,1531.52c4.58.12,7.78.93,10.68,2.61a30,30,0,0,1-23.11,24.6,42.08,42.08,0,0,1-18.55-.33c-10.25-2.45-17.22-8.91-21.12-18.52a51.25,51.25,0,0,1-1.85-34.72c4.55-15.37,17.23-22.81,29.88-23.82,6.45-.51,12.75,0,18.69,2.94a27.8,27.8,0,0,1,14.87,19.12c-3,1.87-6.49,2-10.08,2.75-.58-1.2-1.16-2.3-1.66-3.44-3.66-8.29-9.77-12.24-18.86-12-7.78.23-14.36,3-18.7,9.77a24.54,24.54,0,0,0-2.78,6.07,44.55,44.55,0,0,0,.79,29.6c3.25,8.5,10.46,13.43,19.6,13.49a28.11,28.11,0,0,0,7.55-.88c6.5-1.82,10.54-6.35,12.87-12.53C310.18,1534.63,310.78,1533,311.35,1531.52Z" transform="translate(718.97 -649.43)"/><path class="cls-11" d="M997.08,1503.69a33.26,33.26,0,0,1-9.9,2.35c-.8-1.64-1.58-3.19-2.32-4.74-3.1-6.52-8.35-9.88-15.45-10.49a25.31,25.31,0,0,0-10.86,1.35,20.47,20.47,0,0,0-13.12,13.65,41.64,41.64,0,0,0-1.87,7.92,49,49,0,0,0,1.91,21.31c4.67,14.15,19.36,16.86,28.78,13.42a18.27,18.27,0,0,0,10.46-9.34c1.19-2.42,2.09-5,3.21-7.7a28,28,0,0,1,10.58,2.37,10.85,10.85,0,0,1-.14,2c-4.39,15.69-16.13,23.31-29.48,23.69a43.9,43.9,0,0,1-14.22-1.7c-8.12-2.5-13.85-7.76-17.69-15.17a43.48,43.48,0,0,1-4.87-17.42A60.73,60.73,0,0,1,933,1508c3.59-16,16-25.64,31.07-26.71,6.31-.46,12.45,0,18.21,2.94a28.44,28.44,0,0,1,14.76,17.42A7.37,7.37,0,0,1,997.08,1503.69Z" transform="translate(718.97 -649.43)"/><path class="cls-12" d="M-243.55,1527.79c-.7,5.14-.18,10.06-.33,15s.28,9.83-.28,14.93a32.8,32.8,0,0,1-10.11.19,5,5,0,0,1-.54-1.44q-.08-35.92-.07-71.84a11,11,0,0,1,.42-2,26.72,26.72,0,0,1,2.84-.28c10.22,0,20.44,0,30.65.23a44.5,44.5,0,0,1,9.44,1.41A17.57,17.57,0,0,1-199,1494.82a24.43,24.43,0,0,1-1.7,23,18.56,18.56,0,0,1-11.31,8.28,38.77,38.77,0,0,1-10.88,1.44q-8.38,0-16.77,0C-240.89,1527.51-242.12,1527.68-243.55,1527.79Zm0-35.18c-.65,4.28-.34,8.42-.29,12.55s-.58,8.22.43,12.24a9.42,9.42,0,0,0,1.62.35q9.82,0,19.66,0a18.28,18.28,0,0,0,2.86-.23c7.63-1.21,11.68-6.58,11-14.25-.56-6-5-10.67-10.85-10.75-7.34-.11-14.69-.3-22-.41A11.53,11.53,0,0,0-243.58,1492.61Z" transform="translate(718.97 -649.43)"/><path class="cls-11" d="M-42.72,1504l-9.46,2.26a25.28,25.28,0,0,1-1.46-2.49c-5-11.76-16-16.17-28-11.39a20.79,20.79,0,0,0-12.79,14c-3,10.24-3,20.54,1.1,30.54,3.42,8.23,10,12.2,18.72,12.68a25,25,0,0,0,8-.81c6.26-1.75,10.42-6,12.79-12,.69-1.75,1.29-3.54,2-5.41,4,0,7.33,1.18,10.68,2.24a30.52,30.52,0,0,1-11.08,19.42,29.68,29.68,0,0,1-14.42,6.06,42.3,42.3,0,0,1-19.4-1.7,28.23,28.23,0,0,1-15.53-12.87,42.75,42.75,0,0,1-5.58-16.22c-1.07-8-1-15.94,1.54-23.73,4.64-14.49,16.53-22.18,29.85-23.25a37.45,37.45,0,0,1,12.4.74c10.65,2.71,17.43,9.56,20.94,19.83a2.68,2.68,0,0,1,0,.94A10,10,0,0,1-42.72,1504Z" transform="translate(718.97 -649.43)"/><path class="cls-15" d="M167.12,1558.05a46.24,46.24,0,0,1-9.41,0c-1.38-1.22-1-2.58-1.05-3.81,0-6.72,0-13.43,0-20.15,0-1.57.33-3.2-.47-4.73-1.86-.57-3.44.45-5.07,1a55.51,55.51,0,0,1-18.39,2.86A24.6,24.6,0,0,1,118,1528a17.28,17.28,0,0,1-6.6-10.28,42.25,42.25,0,0,1-1.1-8c-.14-8.32-.06-16.64,0-25a15.81,15.81,0,0,1,.28-2.06,29.66,29.66,0,0,1,10.26-.08c.08,1.5.22,2.9.23,4.3,0,5.6,0,11.2,0,16.79a37.14,37.14,0,0,0,1,9.51c1.64,6.24,5.83,9.7,12.34,10.11a40.23,40.23,0,0,0,11.42-1.11c3.41-.76,6.72-1.94,9.67-2.81,1.45-1.8,1.06-3.46,1.07-5,0-9,0-17.92,0-26.87,0-1.56.13-3.12.21-4.85a31.73,31.73,0,0,1,10.24-.07,13.41,13.41,0,0,1,.44,2C168,1491.69,167.63,1554.23,167.12,1558.05Z" transform="translate(718.97 -649.43)"/><path class="cls-11" d="M-321.38,1557.38a53.91,53.91,0,0,1,.09-9,30.66,30.66,0,0,0,3.05.94,40,40,0,0,0,6.12.92,7.57,7.57,0,0,0,6.19-3.14,21.27,21.27,0,0,0,2.07-3.22c2.79-5.09,2.76-5.56,0-10.55q-12.6-22.87-25.17-45.76c-.75-1.36-1.36-2.81-1.92-4a1.92,1.92,0,0,1,2.15-1.29c2.55,0,5.1,0,7.87,0,.77,1.27,1.56,2.45,2.22,3.69q9.88,18.62,19.75,37.25c.58,1.09,1.28,2.12,2,3.37,1.45-.74,1.79-2,2.29-3.08,2.37-5.06,4.65-10.16,7-15.23q5.24-11.29,10.53-22.58c.54-1.14,1.23-2.2,1.92-3.43h6.8c.77,0,1.55.08,2.7.13a11.87,11.87,0,0,1-.49,2.83c-2.62,5.64-5.31,11.26-8,16.88-6.48,13.53-12.93,27.09-19.5,40.58-1.81,3.72-4,7.29-6.09,10.85a12,12,0,0,1-9.43,5.83A22.47,22.47,0,0,1-321.38,1557.38Z" transform="translate(718.97 -649.43)"/><path class="cls-14" d="M886.9,1492.28c-8.28-.14-15.92,0-23.66-.11-1.13-3.25-.7-6.19-.43-9.38a11.57,11.57,0,0,1,2.36-.49q27.32,0,54.64,0a18.65,18.65,0,0,1,2.39.35c1.06,3.07.5,6,.43,9.07-2.83.87-5.39.44-7.9.5-2.71.08-5.43,0-8.15,0h-7.46c-1.38,1.85-.85,3.67-.85,5.37q-.07,27.32,0,54.63c0,1.74-.06,3.48-.09,5.32-3.64,1.33-7,.5-10.3.57-1.14-2-.73-3.84-.73-5.54q0-27.32,0-54.64C887.09,1496.21,887,1494.49,886.9,1492.28Z" transform="translate(718.97 -649.43)"/><path class="cls-14" d="M1003.78,1482.82c4.22-.73,55.27-.75,59.42-.07,1,2.86.64,5.8.29,9-4.06,1-8,.37-12,.49s-7.66,0-11.32,0c-1.49,1.76-.93,3.6-.93,5.28,0,18.37,0,36.74,0,55.11,0,1.71.41,3.5-.66,5.38a36.7,36.7,0,0,1-9.82,0c-1-1.8-.62-3.6-.62-5.3q0-27.32,0-54.63c0-1.73-.1-3.46-.17-5.42-2.7-.64-5.23-.32-7.73-.37-2.72,0-5.43,0-8.15,0h-7.68C1002.93,1488.86,1003.63,1485.8,1003.78,1482.82Z" transform="translate(718.97 -649.43)"/><path class="cls-16" d="M-11.74,1492.3l-23.74-.16a28.54,28.54,0,0,1-.24-9.49,22.72,22.72,0,0,1,2.83-.37q26.63,0,53.24,0a32.08,32.08,0,0,1,3.35.35c.73,3,.42,5.86.21,9a19.87,19.87,0,0,1-3.15.56c-5.28,0-10.56,0-15.83,0-1.56,0-3.12.14-4.64.21-1,1.94-.67,3.73-.67,5.44,0,18.22,0,36.45,0,54.67,0,1.71.42,3.51-.75,5.46a36.18,36.18,0,0,1-9.69-.06c-1.11-1.77-.67-3.57-.68-5.26q0-27.35,0-54.68C-11.57,1496.29-11.67,1494.56-11.74,1492.3Z" transform="translate(718.97 -649.43)"/><path class="cls-16" d="M-361.13,1558.08c-3.24.19-6.52.49-9.74-.23-1.06-1.79-.62-3.59-.63-5.3,0-18.23,0-36.46,0-54.68,0-1.72.43-3.51-.62-5.3-3.73-.69-7.56-.26-11.36-.33s-7.66,0-11.62,0c-1.37-3.22-.76-6.31-.52-9.18a5.56,5.56,0,0,1,.61-.5.94.94,0,0,1,.45-.16q28.29,0,56.6-.09a9.15,9.15,0,0,1,1.57.31c1.23,2.88.29,5.87.59,9.06a26.22,26.22,0,0,1-3.48.54c-5.44,0-10.88,0-16.31,0-1.4,0-2.79.2-4.21.31-.76,2-.51,3.73-.51,5.45q0,27.35,0,54.68C-360.38,1554.39-360,1556.19-361.13,1558.08Z" transform="translate(718.97 -649.43)"/><path class="cls-10" d="M-694.88,1492.36c-8.16-.41-15.81.11-23.32-.32-1-3.66-1-5-.22-9.38a12,12,0,0,1,2.16-.36q27.09,0,54.18,0a23.3,23.3,0,0,1,2.44.29c.9,3.07.65,6,.22,9.16-2.6.83-5.16.37-7.66.45-2.72.07-5.43,0-8.15,0h-7.47c-1.39,1.86-.86,3.68-.86,5.37q-.06,27.32,0,54.65c0,1.73-.09,3.46-.14,5.46a30.81,30.81,0,0,1-9.93.19c-1.37-1.52-.9-3.19-.9-4.72q0-23.25,0-46.5c0-3.52,0-7,0-10.55C-694.6,1495-694.75,1493.94-694.88,1492.36Z" transform="translate(718.97 -649.43)"/><path class="cls-12" d="M659.36,1482.78c4.25-.71,44.62-.67,48.72.07a24.93,24.93,0,0,1,0,8.87c-3.22.91-6.42.36-9.58.46s-6.07,0-9.1,0h-9.59l-8.75,0c-1.6,1.68-1.08,3.36-1.09,4.89,0,14.54,0,29.07,0,43.61,0,4.47,0,9,0,13.42,0,1.09-.16,2.17-.27,3.47-3.44,1-6.72.33-10.18.43a29,29,0,0,1-.46-3.54q0-34.26,0-68.53A29.87,29.87,0,0,1,659.36,1482.78Z" transform="translate(718.97 -649.43)"/><path class="cls-17" d="M471.14,1089.63a5.75,5.75,0,0,1-.77-1.68c-.12-1.26-.07-2.55-.07-3.83q0-141.55,0-283.11c0-2.07.21-4.14.31-6.21l2.61.18a9.09,9.09,0,0,1,.79,2.16c.13,1.43,0,2.87,0,4.31q0,141.1,0,282.21c0,2,.75,4.18-.85,6Z" transform="translate(718.97 -649.43)"/><path class="cls-9" d="M1405.93,1557.81a29.28,29.28,0,0,1-9.27,0c-1-1.81-.61-3.61-.61-5.33,0-15.32,0-30.64,0-46,0-1.55-.1-3.1-.17-5.22-5.91,3.45-11,7.32-17.28,9.47a9.3,9.3,0,0,1-.66-2.18c-.08-2.38,0-4.76,0-6.85,4.39-3,8.58-5.64,12.44-8.67a37.45,37.45,0,0,0,9.32-10.76h6a18.1,18.1,0,0,1,.46,2.87q0,35,0,69.91C1406.16,1555.81,1406,1556.58,1405.93,1557.81Z" transform="translate(718.97 -649.43)"/><path class="cls-11" d="M1360.16,1518c.12,4.57-.6,8.93-3.12,12.85a16.64,16.64,0,0,1-12.42,8c-4.73.6-9.2.2-13.39-2.36a16.69,16.69,0,0,1-8-10.92,32.87,32.87,0,0,1-.26-13.79,17.38,17.38,0,0,1,16.4-14.29,25.38,25.38,0,0,1,7.13.45c7.43,1.76,12.33,7.66,13.37,15.73C1360.11,1515.15,1360.09,1516.6,1360.16,1518Zm-10,.45c0-4.48-.67-7.26-2.4-9.57-3.83-5.13-10.11-4.83-13.44.61a15.44,15.44,0,0,0-1.85,6.39,17.34,17.34,0,0,0,1.85,10.68c3.1,5.6,9.46,6,13.35.94C1349.79,1524.83,1350.15,1521.71,1350.21,1518.48Z" transform="translate(718.97 -649.43)"/><path class="cls-18" d="M471.14,1089.63h2q0,131.37-.08,262.73c0,.25-.33.5-.5.74a1.27,1.27,0,0,1-1.84-.95,30.1,30.1,0,0,1-.33-4.75q0-43.39-.05-86.78,0-35.71.07-71.44c0-2.38.33-4.76.47-7.14a21,21,0,0,0,0-2.38c-.15-2.55-.46-5.09-.47-7.63q0-30.67,0-61.37c0-5.89.45-11.78.67-17.67C471.21,1091.87,471.15,1090.75,471.14,1089.63Z" transform="translate(718.97 -649.43)"/><path class="cls-18" d="M473.22,795l-2.61-.18c-.05-1.75-.16-3.51-.16-5.26q0-67.14-.06-134.28a33.36,33.36,0,0,1,.56-5.17c.05-.29.73-.67,1.1-.65a1.55,1.55,0,0,1,1.05.75,3.2,3.2,0,0,1,.22,1.4c0,1.43,0,2.87,0,4.31q-.07,68.58-.14,137.16C473.2,793.7,473.21,794.34,473.22,795Z" transform="translate(718.97 -649.43)"/><path class="cls-15" d="M1323.74,1552.24a17.36,17.36,0,0,1-.14-7.91,7.07,7.07,0,0,1,1.81-.52q15.77-.06,31.51,0a9.16,9.16,0,0,1,1.89.4,24.23,24.23,0,0,1,.13,7.84c-4,.93-7.94.33-11.85.44s-7.63.06-11.45,0A118.57,118.57,0,0,1,1323.74,1552.24Z" transform="translate(718.97 -649.43)"/><path class="cls-17" d="M595,806c-.54-4.72,1.83-8.73,2.81-13.07,1.32,3.27.55,9.26-1.38,13.53Z" transform="translate(718.97 -649.43)"/><path class="cls-17" d="M595.06,822.69a5.1,5.1,0,0,1,.15-4.52A3.39,3.39,0,0,1,595.06,822.69Z" transform="translate(718.97 -649.43)"/><path class="cls-17" d="M595.83,812.26c-.63-.79-.48-2.18-1.84-2.41.19-.81.37-1.61.56-2.41.14,1,0,2.28,1.67,2C597.11,811.06,597.11,811.06,595.83,812.26Z" transform="translate(718.97 -649.43)"/><path class="cls-17" d="M596.26,848.56a3.52,3.52,0,0,1-.45-3.67C597.19,846.4,597.21,846.54,596.26,848.56Z" transform="translate(718.97 -649.43)"/><path class="cls-17" d="M595.18,839a3.57,3.57,0,0,1-.12-3.56C596.19,837,596.2,837.31,595.18,839Z" transform="translate(718.97 -649.43)"/><path class="cls-17" d="M600.15,865.84a1.27,1.27,0,0,1-.48-1.76C600.54,864.47,601.09,865,600.15,865.84Z" transform="translate(718.97 -649.43)"/><path class="cls-17" d="M597.11,853.39a1.27,1.27,0,0,1-.3-1.78C597.74,852.06,598.18,852.6,597.11,853.39Z" transform="translate(718.97 -649.43)"/><path class="cls-8" d="M596.22,809.46c-1.68.26-1.53-1-1.67-2,.16-.48.31-1,.47-1.45l1.43.46C596.37,807.45,596.3,808.45,596.22,809.46Z" transform="translate(718.97 -649.43)"/><path class="cls-18" d="M1202.83,874.23l.08-.31.3,0s0,.32,0,.32Z" transform="translate(718.97 -649.43)"/><path class="cls-5" d="M1235.26,900.52l-.93,1h0l1-.93Z" transform="translate(718.97 -649.43)"/><path class="cls-5" d="M1235.32,900.59l.44-.42c0,.1,0,.24-.11.28a1.23,1.23,0,0,1-.39.07Z" transform="translate(718.97 -649.43)"/></svg>