<?xml version="1.0" encoding="UTF-8"?>
<svg width="74px" height="80px" viewBox="0 0 74 80" version="1.1" xmlns="http://www.w3.org/2000/svg" xmlns:xlink="http://www.w3.org/1999/xlink">
    <!-- Generator: Sketch 57.1 (83088) - https://sketch.com -->
    <title>icon_stone_spa</title>
    <desc>Created with Sketch.</desc>
    <g id="Page-1" stroke="none" stroke-width="1" fill="none" fill-rule="evenodd">
        <g id="icon_stone_spa" fill="#FFFFFF" fill-rule="nonzero">
            <path d="M71.4097212,61.5946428 C65.2194989,52.7845045 55.7521001,49.5352208 48.0170808,48.2594953 C54.8803932,46.4712989 58.7423857,43.3419552 59.2278934,39.0350188 C59.3982781,37.6366447 58.9658044,36.2319168 58.0361928,35.1642278 C55.5865861,32.1439205 49.8377344,30.5301823 43.3164841,29.4398186 C51.6032167,28.6874677 57.7272334,24.9802313 57.7272334,20.3788967 C57.7272334,17.3367821 55.0238386,14.6871984 50.7977154,13.018942 C53.4900759,11.6777947 55.2114211,9.5515856 55.2114211,7.28362921 C55.1783183,3.27109096 49.1646443,0 41.473762,0 C33.7828797,0 27.7471371,3.27109096 27.7471371,7.32724375 C27.7471371,9.33351287 29.2257285,11.0671911 31.8849863,12.299302 C26.3678541,13.8258111 22.693444,16.8570221 22.693444,20.4225112 C22.693444,23.4973367 25.4409759,26.1687277 29.7333047,27.8369841 C22.3646222,27.3183654 15.0826135,29.6660983 9.44129252,34.379166 C6.32962997,37.017846 6.48410967,39.5038752 7.1571998,41.128517 C8.81233945,45.0756334 15.7308232,48.2485917 23.7085964,49.2626299 C19.4418581,50.6407441 15.4287482,52.6916632 11.8246936,55.3359554 C8.98854405,52.7556475 5.66679504,50.7513678 2.04833539,49.437088 C1.82467918,49.3359154 1.59194886,49.2556066 1.35317674,49.197208 C0.775812718,49.0576988 0.190366817,49.395166 0.0290650145,49.9604626 C-0.10172012,50.5142207 0.220113271,51.0743217 0.768360727,51.2470917 L1.07732013,51.3561281 C1.72834173,51.7050444 1.7062732,52.8499263 1.364211,55.6303536 C1.02214881,58.4107809 0.569743969,61.9544628 2.21384936,65.0510956 C5.01655251,70.5792393 7.95166683,71.2116502 11.3502203,71.9640011 L11.3502203,71.9640011 C8.50364609,73.599578 5.97114761,75.7182288 3.86898902,78.2226885 C3.68386662,78.4479505 3.59724937,78.7368396 3.62831454,79.0253952 C3.6593797,79.3139507 3.80556438,79.5783669 4.03450298,79.7601013 C4.2344205,79.9112432 4.47798918,79.9952921 4.72966164,79.9999876 C5.06354569,80.0011031 5.37998802,79.8527729 5.59033426,79.5965467 C7.65519426,77.1541868 10.1622443,75.1131292 12.9832914,73.5777393 L13.9101696,74.2646684 C17.0880377,76.6525648 19.9348779,78.7896776 25.0989137,78.7896776 C27.1275101,78.759485 29.1456526,78.4960243 31.1125877,78.0046158 C31.9366255,77.8100117 32.7415956,77.5436486 33.5180574,77.2086503 L33.5180574,77.2086503 C35.6035333,77.2086503 36.8283367,77.1323248 39.0351896,76.9905776 C41.7716871,76.8052158 44.6295616,76.6852758 47.3881277,76.5653357 C59.9782233,76.0092503 70.858008,75.4749721 73.4510601,70.3611666 C74.6096579,68.0823065 73.9365678,65.1928428 71.4097212,61.5946428 Z M35.5814648,11.2634565 C32.1056715,10.4020693 29.95399,8.89736741 29.95399,7.32724375 C29.95399,4.8957328 34.6766551,2.18072731 41.473762,2.18072731 C48.2708688,2.18072731 52.9714655,4.8957328 52.9714655,7.32724375 C52.9714655,9.28989833 50.5880644,11.2416493 47.2888193,11.9940002 C44.9565778,11.477138 42.5729081,11.2211107 40.1827531,11.2307456 C38.7809844,11.2333224 37.3806907,11.320715 35.9897326,11.4924329 C35.8718394,11.3880536 35.7325994,11.3099611 35.5814648,11.2634565 L35.5814648,11.2634565 Z M24.9002969,20.4225112 C24.9002969,16.6280457 31.9070548,13.4114729 40.2048216,13.4114729 C48.5025884,13.4114729 55.5203805,16.6280457 55.5203805,20.4225112 C55.5203805,24.2169767 48.5577597,27.4444532 40.2048216,27.4444532 C31.8518835,27.4444532 24.9002969,24.2278804 24.9002969,20.4225112 Z M32.0063632,47.2890717 C21.1927841,48.1068444 10.8757469,44.1815352 9.2316415,40.2562261 C9.01095621,39.7437552 8.35993461,38.1627279 10.9088497,36.0038078 C16.0870342,31.7690594 22.6909172,29.6197823 29.4022768,29.9850005 C30.2077781,30.1376514 31.6091296,30.2793987 33.3746119,30.4538568 C39.7303482,31.0862678 52.9714655,32.3947041 56.2817448,36.5271824 C56.8299119,37.1511285 57.0863256,37.9746078 56.9879377,38.7951388 C56.3589846,44.3450898 48.0501836,46.4822025 41.1868711,47.2890717 C41.0085985,47.3118485 40.8403789,47.3836288 40.7013635,47.4962407 L38.3069281,47.3763007 L36.508343,47.2890717 C35.1580283,47.2130196 33.8036871,47.2458391 32.458768,47.3872044 C32.3173798,47.3212143 32.1627225,47.287667 32.0063632,47.2890717 Z M4.13381136,64.0588646 C2.84280243,61.5619319 3.21796742,58.6070464 3.54899535,55.9138482 C3.72965132,54.7889782 3.81087582,53.6507039 3.79174917,52.5119136 C6.94754878,54.027519 11.6702139,56.8733682 13.3032851,61.2348228 C14.3294716,63.9171174 13.9984437,66.8610992 12.3212355,69.957732 L11.8246936,69.8486956 C8.62475696,69.1290556 6.5061782,68.6929102 4.13381136,64.0588646 Z M30.6160459,75.8784066 C22.318279,77.819254 19.3610962,75.5949121 15.2563498,72.509183 L15.1460072,72.4328575 C25.198222,67.558932 37.2145359,66.8501956 37.3469471,66.839292 C37.9563527,66.839292 38.4503736,66.3511195 38.4503736,65.7489283 C38.4507519,65.4500474 38.3269558,65.1641157 38.1079317,64.9579908 C37.8889076,64.7518658 37.5938593,64.6436204 37.2917758,64.6585647 C36.6186857,64.6585647 25.154085,65.367301 15.013596,70.1103829 C17.2204489,65.4654338 20.3321115,62.368801 24.4589263,60.9077137 C32.0173974,58.2472264 41.1868711,61.529221 46.1743586,63.8407919 C44.4247299,65.0518369 42.847468,66.4894066 41.4847963,68.1150174 C38.4724421,71.2334575 35.1400942,74.8207539 30.6050116,75.8784066 L30.6160459,75.8784066 Z M71.442824,69.4343575 C69.4235536,73.4577993 58.2017068,73.948463 47.2557165,74.428223 C44.4861162,74.548163 41.6172074,74.6790066 38.8476071,74.8534648 L37.3248786,74.9515975 C39.3918182,73.3274961 41.304952,71.5209511 43.0406275,69.5542975 C46.0860845,66.2832065 47.7301899,64.7894083 49.2198156,65.3782047 L49.7604945,65.6944101 C50.0876941,65.9125578 50.5078136,65.9416422 50.8625981,65.7707075 C51.2173826,65.5997728 51.4529319,65.254788 51.4805169,64.8657056 C51.5081018,64.4766233 51.3235317,64.1025541 50.9963321,63.8844065 C50.7218722,63.6912647 50.430084,63.5233741 50.1246253,63.3828392 C46.8143459,61.5401246 34.169079,55.1287863 23.6423908,58.8251191 C20.6686253,59.8765175 18.0457069,61.717611 16.0618511,64.1460937 C16.0425506,62.8714722 15.7998853,61.6097945 15.344624,60.41705 C14.8571135,59.1560268 14.1719785,57.9785936 13.3143193,56.9278863 C22.2300049,50.3857044 32.1829114,49.1644971 36.3759319,49.4588953 C36.8724738,49.4588953 37.4793583,49.5243171 38.2296883,49.5570281 C45.0157609,49.8405226 60.9161358,50.5165481 69.5780333,62.8376574 C71.5973037,65.6944101 72.2262568,67.9078483 71.4648926,69.4343575 L71.442824,69.4343575 Z" id="Shape"></path>
            <path d="M27.6519694,32.0316724 C24.8765243,32.7088078 15.744766,35.1953376 15.0372996,38.7697242 C14.8440221,39.9786492 15.4141352,41.1815015 16.4631164,41.7779812 C16.6485316,41.9198334 16.8735064,41.9976129 17.1052782,42 C17.5778589,42.0017178 17.997532,41.6922203 18.1439939,41.2339682 C18.2904558,40.7757162 18.1302359,40.273433 17.74744,39.9907879 C17.5624104,39.8464804 17.1161623,39.4801613 17.1705828,39.2137474 C17.4644535,37.7373703 23.0915322,35.4284497 28.163522,34.1962854 C28.44542,34.1278786 28.6889353,33.9476506 28.8401172,33.6955309 C28.9912992,33.4434112 29.037666,33.1402151 28.9689453,32.8531153 C28.9018725,32.5656104 28.7251593,32.3172517 28.4779564,32.1630628 C28.2307535,32.0088739 27.9334702,31.9615848 27.6519694,32.0316724 L27.6519694,32.0316724 Z" id="Path"></path>
            <path d="M35.8019781,16.0099272 C35.7494313,16.0099272 30.3160862,17.0922602 29.1600553,19.3435129 C28.9517437,19.6863427 28.9463984,20.1201792 29.1461963,20.4683422 C29.3459941,20.8165053 29.7175999,21.0209057 30.1096771,20.9983014 C30.5017543,20.9756971 30.8488867,20.7298595 31.0097047,20.360906 C31.4405889,19.5275096 34.7300222,18.3585899 36.0962405,18.1962399 C36.670805,18.1124705 37.0707042,17.5649579 36.9895371,16.9732036 C36.9607984,16.6811705 36.8181211,16.4136823 36.5942153,16.2320635 C36.3703096,16.0504446 36.0843798,15.9702724 35.8019781,16.0099272 Z" id="Path"></path>
            <path d="M37.7211257,4.05223376 C36.2432266,4.31348137 34.8226984,4.88394219 33.5340625,5.73368975 C33.1117707,6.01369278 32.909063,6.57457414 33.0389095,7.10375153 C33.1687561,7.63292892 33.5991199,7.9998387 34.0901568,8 C34.2858621,7.99993568 34.4779447,7.94101415 34.6462512,7.82941751 C35.6987123,7.1311898 36.8607741,6.66387864 38.0700477,6.45257311 C38.6722485,6.34490441 39.0823198,5.71210467 38.9859677,5.03917533 C38.8896156,4.36624598 38.3233265,3.90801169 37.7211257,4.01568037 L37.7211257,4.05223376 Z" id="Path"></path>
        </g>
    </g>
</svg>