<?xml version="1.0" encoding="UTF-8"?>
<svg width="72px" height="77px" viewBox="0 0 72 77" version="1.1" xmlns="http://www.w3.org/2000/svg" xmlns:xlink="http://www.w3.org/1999/xlink">
    <!-- Generator: Sketch 57.1 (83088) - https://sketch.com -->
    <title>icon_umbrella</title>
    <desc>Created with Sketch.</desc>
    <g id="Page-1" stroke="none" stroke-width="1" fill="none" fill-rule="evenodd">
        <g id="icon_umbrella" transform="translate(-1.000000, -1.000000)" fill="#FFFFFF" fill-rule="nonzero">
            <path d="M9.79,42.05 L9.79,42.05 C9.74711277,41.7696619 9.54976698,41.5374903 9.28,41.45 L2,39 C1.81385383,38.9254475 1.60614617,38.9254475 1.42,39 C1.23691689,39.0893057 1.09668138,39.2475201 1.03,39.44 C0.956938872,39.6360705 0.966817259,39.8534311 1.0573621,40.0420662 C1.14790693,40.2307013 1.3113203,40.3743651 1.51,40.44 L8.34,42.7 L11.9,65.13 C11.9595039,65.5023209 12.2829838,65.7747249 12.66,65.7700605 L12.78,65.7700605 C12.9795497,65.7394122 13.159105,65.631679 13.28,65.47 C13.3990997,65.3054746 13.4493262,65.100981 13.42,64.9 L9.79,42.05 Z" id="Path"></path>
            <path d="M26.33,43.48 C24.8054946,42.1539855 22.6327445,41.8758344 20.8233694,42.7750522 C19.0139942,43.6742701 17.9236521,45.5741031 18.06,47.59 L18.06,47.96 L19.59,47.85 L19.59,47.49 C19.533291,46.5803052 19.8388722,45.6851321 20.44,45 C21.038122,44.3026107 21.8930177,43.8769664 22.81,43.82 C23.7284451,43.752439 24.6357805,44.0548841 25.33,44.66 C26.3496357,45.5781051 26.728314,47.0131501 26.2944277,48.3148092 C25.8605413,49.6164683 24.6965716,50.5372974 23.33,50.66 C22.8159818,50.6928504 22.3009273,50.6143984 21.82,50.43 L21.48,50.3 L20.92,51.72 L21.26,51.85 C21.839548,52.0779608 22.4572394,52.1933537 23.08,52.1900711 L23.44,52.1900711 C26.1839854,51.9976668 28.2572768,49.6249992 28.08,46.88 C27.9789718,45.5570644 27.3479139,44.3310091 26.33,43.48 Z" id="Path"></path>
            <path d="M22,48 C21.6758902,47.5492702 21.1551598,47.281466 20.6,47.2799999 L4.78,47.2799999 C4.22443965,47.2799999 3.70300019,47.5479843 3.38,48 C3.05570497,48.4488371 2.97340894,49.02865 3.16,49.55 L11,71.72 C11.19,72.72 8.33,74 6.66,75.27 C6.37571643,75.5208215 6.29751786,75.932393 6.47,76.27 C6.61175242,76.6014993 6.93949597,76.81473 7.3,76.8101416 L18.2,76.8101416 C18.5607817,76.8164516 18.8889415,76.6020013 19.0278825,76.2689841 C19.1668234,75.9359669 19.0883859,75.5518765 18.83,75.3 C18.28,74.75 14.23,72.92 14.47,71.84 C14.71,70.76 22.29,49.61 22.29,49.61 C22.4729611,49.0589045 22.3637543,48.4526188 22,48 L22,48 Z M13.17,71.45 C12.8815113,72.4679616 13.3279677,73.5510318 14.25,74.07 C14.72,74.38 16.34,75.39 16.73,75.63 L8.87,75.5 C9.26,75.26 10.39,74.58 10.87,74.34 C11.4871381,74.1065632 11.9939872,73.6496852 12.29,73.06 C12.4231918,72.4756322 12.3885264,71.8655202 12.19,71.3 L4.87,49.08 L20.53,49.08 C20.53,49.08 13.31,70.85 13.17,71.45 Z" id="Shape"></path>
            <path d="M73,38 L73,37.81 C71.84,30.34 70.7,22.64 66,16.47 C61.11,10 53.26,6.77 50,5.63 L50,5.63 L51.2,2.09 C51.2842781,1.90236231 51.2842781,1.68763769 51.2,1.5 C51.0455908,1.22632541 50.7715238,1.04114499 50.46,1 C50.2089668,0.9422302 49.9460068,0.96677313 49.71,1.07 C49.48489,1.16420076 49.3103974,1.34959911 49.23,1.58 L48.06,5 L48,5 L47.58,4.88 L47.58,4.88 L47.52,4.78 L47.41,4.84 C41.3498762,3.34846913 34.9747727,3.79259318 29.18,6.11 C22.0362329,8.99398634 16.0118895,14.1031064 12,20.68 C11.7285115,21.1117249 11.7019752,21.6538234 11.93,22.11 C12.1003324,22.4908833 12.4562804,22.7559509 12.87,22.81 C18.87,23.43 24.47,24.4 27.09,29.43 C27.2373214,29.7021737 27.4906984,29.9012556 27.79,29.98 C28.0939221,30.0627826 28.418385,30.0195209 28.69,29.86 C32.16,27.72 36.49,27.34 41.93,28.68 C38.93,40.17 36.25,51.79 33.71,63.04 C32.77,67.19 31.8,71.48 30.83,75.69 C30.7263524,76.0864792 30.8538445,76.5075896 31.16,76.78 C31.3823867,76.9875522 31.6758133,77.1020602 31.98,77.1 C32.0925024,77.1194079 32.2074976,77.1194079 32.32,77.1 C32.699172,76.9995807 32.9846233,76.6867575 33.05,76.3 C34.05,72.17 34.96,67.97 35.88,63.9 L35.94,63.61 C38.48,52.4 41.1,40.8 44.14,29.35 C49.23,30.91 52.69,33.67 54.44,37.55 C54.5724143,37.8302918 54.8208901,38.038573 55.12,38.12 C55.43447,38.2212727 55.7774083,38.1811417 56.06,38.01 C60.68,35.01 65.85,36.88 70.75,39.29 C71.0648708,39.4284427 71.4061028,39.4966891 71.75,39.49 C72.0483473,39.5009466 72.3424694,39.4169117 72.59,39.25 C72.9632279,38.9520413 73.1242467,38.4611304 73,38 Z M70.49,36.61 C67.6356418,35.1753063 64.5112268,34.357575 61.32,34.21 C59.8216095,34.2074795 58.3360004,34.4856072 56.94,35.03 C57.82,29.72 58.49,22.52 56.75,17.9 C55.5078633,14.9134042 54.1058343,11.9958486 52.55,9.16 C58.05,11.67 62.48,15.16 65.06,19.08 C68.43,24.18 69.55,30.27 70.47,36.59 L70.49,36.61 Z M44.32,6.54 C41.32,8.29 37.49,10.69 35.69,12.54 C32.41,15.94 29.26,22.77 27.85,26.42 C24.69,22.47 19.45,21.3 14.69,20.71 C21.6,10.27 33.17,4.73 44.32,6.54 Z M37.16,14 C39.33,11.75 45.38,8.29 47.26,7.24 L47.49,7.3 L47.85,7.4 C48.38,7.56 48.93,7.75 49.59,7.99 C51.5179038,11.4444971 53.2668801,14.9958537 54.83,18.63 C56.35,22.63 55.83,29.19 55.03,34.05 C52.4520603,30.6698873 48.8262621,28.2397937 44.72,27.14 C41.9278715,26.2281403 39.0165836,25.732817 36.08,25.67 C33.9674365,25.6459397 31.8697618,26.0261008 29.9,26.79 C31.67,22.26 34.57,16.63 37.16,14 Z" id="Shape"></path>
        </g>
    </g>
</svg>