<?xml version="1.0" encoding="UTF-8"?>
<svg width="80px" height="66px" viewBox="0 0 80 66" version="1.1" xmlns="http://www.w3.org/2000/svg" xmlns:xlink="http://www.w3.org/1999/xlink">
    <!-- Generator: Sketch 57.1 (83088) - https://sketch.com -->
    <title>icon_bus</title>
    <desc>Created with Sketch.</desc>
    <g id="Page-1" stroke="none" stroke-width="1" fill="none" fill-rule="evenodd">
        <g id="icon_bus" fill="#FFFFFF" fill-rule="nonzero">
            <rect id="Rectangle" x="53" y="27" width="2" height="13"></rect>
            <rect id="Rectangle" x="33" y="27" width="2" height="13"></rect>
            <path d="M76.6666976,32.7216762 C73.2445072,23.4921193 65.4334686,23.9564283 64.4445889,24.0923237 L7.10067694,24.0923237 C5.39188611,23.8003028 3.6390589,24.2072559 2.22294445,25.2247846 C0.95139694,26.361742 0.266532961,28.0336702 0.367406128,29.7546285 L0.367406128,51.1581409 C0.134074961,52.1433819 -0.743694666,56.6845504 1.47850692,59.0853676 C2.69331323,60.2906099 4.43692034,60.7627934 6.07846421,60.3310747 L5.71180094,58.0661528 C4.79187885,58.3580759 3.78916841,58.1390787 3.06738106,57.4885977 C1.80072615,56.1069953 2.27849949,52.6303401 2.55627469,51.5205284 L2.58960771,29.7546285 C2.49010309,28.718155 2.85322158,27.6910257 3.57848742,26.9574499 C4.53083971,26.3377163 5.67902926,26.1109526 6.78956871,26.3232718 L6.88956779,26.3232718 L64.666809,26.3232718 C64.7334751,26.3232718 71.555634,25.417303 74.5222731,33.5370481 L76.8778068,39.9467772 L2.57849671,39.9467772 L2.57849671,42.2116992 L77.7111324,42.2116992 L77.7889094,42.4155422 L77.7889094,56.288189 L74.344497,58.3945665 C74.4171922,57.91124 74.4506387,57.4226243 74.444496,56.9336918 C74.7351898,53.5221492 73.113783,50.2350777 70.2538318,48.437975 C67.3938806,46.6408723 63.7841649,46.6408723 60.9242136,48.437975 C58.0642624,50.2350777 56.4428556,53.5221492 56.7335494,56.9336918 C56.7376421,57.6986682 56.8384721,58.4599156 57.0335466,59.1986137 L22.9449743,59.1986137 C24.6902469,54.7960661 22.8043543,49.7670482 18.622953,47.6732903 C14.4415517,45.5795324 9.38349357,47.131498 7.03107635,51.2300294 C4.67865913,55.3285608 5.83011557,60.5829261 9.66994303,63.2717957 C13.5097705,65.9606653 18.7350215,65.17164 21.6449863,61.4635357 L57.8779832,61.4635357 L57.8779832,61.3163158 C59.4756949,64.2996371 62.5872936,66.1098148 65.9200974,65.9948289 C69.2529012,65.879843 72.2372755,63.8593467 73.6333925,60.7727345 L73.9445007,61.2936665 L80,57.5678699 L80,41.985207 L76.6666976,32.7216762 Z M14.7450504,62.5959967 C11.0631863,62.5959967 8.07844563,59.5538764 8.07844563,55.8012308 C8.07844563,52.0485853 11.0631863,49.006465 14.7450504,49.006465 C18.4269145,49.006465 21.4116552,52.0485853 21.4116552,55.8012308 C21.4116552,59.5538764 18.4269145,62.5959967 14.7450504,62.5959967 L14.7450504,62.5959967 Z M65.6223557,63.7284576 C61.9404916,63.7284576 58.955751,60.6863373 58.955751,56.9336918 C58.955751,53.1810463 61.9404916,50.138926 65.6223557,50.138926 C69.3042199,50.138926 72.2889605,53.1810463 72.2889605,56.9336918 C72.2889605,60.6863373 69.3042199,63.7284576 65.6223557,63.7284576 Z" id="Shape"></path>
            <rect id="Rectangle" x="14" y="27" width="2" height="13"></rect>
            <path d="M26.0480297,8.49322166 L26.0480297,8.49322166 L44.7715318,7.56171908 L44.7715318,24 L46.9563045,24 L46.9563045,7.56171908 L46.0387,7.56171908 L47,7.56171908 L47,5.4285407e-05 L30.9419206,5.4285407e-05 C30.4450985,-0.00463741275 29.9956606,0.29515357 29.8078203,0.75659489 C29.61998,1.21803621 29.7317505,1.74774588 30.0898592,2.09325096 L31.9141444,3.89050301 L25.5783036,6.23569775 C25.1415545,6.50766501 24.9208443,7.02450924 25.0258815,7.52932232 C25.1309186,8.0341354 25.5392994,8.4192439 26.0480297,8.49322166 Z M34.5686433,3.28776604 L33.3014751,2.08229211 L44.7715318,2.08229211 L44.7715318,5.36994829 L32.2527842,5.98364411 L34.0989171,5.30419517 C34.4866365,5.15545662 34.7727345,4.81964494 34.8588056,4.41226522 C34.9448767,4.0048855 34.8191792,3.58151149 34.5249478,3.28776604 L34.5686433,3.28776604 Z" id="Shape"></path>
        </g>
    </g>
</svg>