<?xml version="1.0" encoding="UTF-8"?>
<svg width="79px" height="44px" viewBox="0 0 79 44" version="1.1" xmlns="http://www.w3.org/2000/svg" xmlns:xlink="http://www.w3.org/1999/xlink">
    <!-- Generator: Sketch 57.1 (83088) - https://sketch.com -->
    <title>icon_mask</title>
    <desc>Created with Sketch.</desc>
    <g id="Page-1" stroke="none" stroke-width="1" fill="none" fill-rule="evenodd">
        <g id="icon_mask" fill="#FFFFFF" fill-rule="nonzero">
            <path d="M52.2901531,29 C51.3894247,28.9991945 50.490316,28.9249333 49.602073,28.7779803 C46.6236801,28.2916515 44.7742809,25.5005468 43.1506805,23.0371856 C41.8066404,21.0178637 40.5378666,19.1042654 39.1078079,19.1042654 C37.6777492,19.1042654 36.6347741,20.9544295 35.4950281,22.9526066 C34.0649695,25.447685 32.441369,28.2387896 29.4092146,28.7779803 L29.4092146,28.7779803 C25.8043046,29.3527697 22.107137,28.7512201 18.8826926,27.065257 C15.044114,25.1728035 15.0011048,19.8654758 15.0011048,19.6646008 C14.9801733,15.0178909 15.2566961,10.3744919 15.8290335,5.76193948 C16.8074947,1.0255195 24.9147445,0.0951512942 25.8394441,0 L53.0535679,0 C54.1288,0.0951512942 62.2037929,1.0572366 63.1499971,5.69850529 C63.7307862,10.3246616 64.0144929,14.9822092 63.9994304,19.6434561 C63.9994304,19.8654758 63.9994304,25.1728035 60.1070903,27.0441123 C57.6936934,28.2903202 55.0158113,28.9603572 52.2901531,29 Z M39.0863033,16.9580751 C41.6991172,16.9580751 43.3872316,19.4531535 44.9570704,21.8742253 C46.4086337,24.0627051 47.9139586,26.3357638 49.9461472,26.6635071 C53.0892327,27.1703022 56.314628,26.6503983 59.1286291,25.1833759 C61.7414431,23.8935472 61.816943,19.7174626 61.816943,19.6751732 C61.8260257,15.1453952 61.5567262,10.6192089 61.0102853,6.12139993 C60.4726692,3.48888079 54.8599578,2.35763762 52.9460447,2.16733503 L26.0007289,2.16733503 C24.0330542,2.37878236 18.4741044,3.52059789 17.9794976,6.15311703 C17.4325723,10.6402639 17.1632686,15.1559263 17.1728152,19.6751732 C17.1728152,19.6751732 17.2268352,23.9041196 19.8611537,25.1833759 C22.6752947,26.6613284 25.9042906,27.1923442 29.054388,26.6952242 C31.0543197,26.3674809 32.3445981,24.1155669 33.6026197,21.9270871 C35.0004214,19.4742982 36.4412323,16.9580751 39.0863033,16.9580751 Z" id="Shape"></path>
            <path d="M15.8249841,21 L11.8528065,20.1835273 C11.3525487,20.0890235 10.9918461,19.6345609 11.0001401,19.1092211 L11.0001401,10.8907789 C10.9942784,10.3550832 11.3713224,9.89679795 11.8840017,9.81647269 L16.6464554,9 L17,11.1486124 L13.1110094,11.8146822 L13.1110094,18.2068039 L16.2305206,18.8513876 L15.8249841,21 Z" id="Path"></path>
            <path d="M63.1770491,21 L62.7603946,18.8513876 L65.8853037,18.2068039 L65.8853037,11.8146822 L62,11.1486124 L62.34374,9 L67.1144346,9.81647269 C67.628001,9.89679795 68.0056974,10.3550832 67.9998255,10.8907789 L67.9998255,19.0984781 C68.0090298,19.620445 67.6530733,20.0736804 67.1561001,20.1727842 L63.1770491,21 Z" id="Path"></path>
            <path d="M24.0661293,13.9992799 C23.6373745,14.0152867 23.2437927,13.7631895 23.0789348,13.3669617 C22.9140769,12.970734 23.0126357,12.5137579 23.3261431,12.2207598 L27.2521808,8.29362304 C27.6580258,7.89618104 28.3091284,7.90308512 28.7064591,8.30904373 C29.1037899,8.71500235 29.0968878,9.36628723 28.6910428,9.76372923 L24.7752827,13.690866 C24.5880501,13.8820947 24.3336385,13.9927394 24.0661293,13.9992799 Z" id="Path"></path>
            <path d="M24.1664531,18.99986 C23.8603439,19.0046641 23.5652368,18.8856674 23.3479102,18.6697972 C23.1255941,18.4552754 23,18.1594516 23,17.8503309 C23,17.5412102 23.1255941,17.2453864 23.3479102,17.0308647 L32.0335594,8.33541712 C32.4856282,7.88598132 33.2160315,7.88852916 33.6649608,8.34110787 C34.1138902,8.79368659 34.1113452,9.52491383 33.6592765,9.97434964 L24.9849959,18.6697972 C24.7676693,18.8856674 24.4725622,19.0046641 24.1664531,18.99986 Z" id="Path"></path>
            <path d="M4.99989987,44 C4.44767042,44 4,43.514193 4,42.9149198 L4,1.08508015 C4,0.48580693 4.44767042,0 4.99989987,0 C5.55212932,0 5.99979974,0.48580693 5.99979974,1.08508015 L5.99979974,42.8932182 C6.00517357,43.1847409 5.90220442,43.4663434 5.71410121,43.6745534 C5.525998,43.8827635 5.26859132,44 4.99989987,44 Z" id="Path"></path>
            <path d="M8.91208791,38 L1.0989011,38 C0.49199478,38 0,37.5522847 0,37 C0,36.4477153 0.49199478,36 1.0989011,36 L8.9010989,36 C9.50800522,36 10,36.4477153 10,37 C10,37.5522847 9.50800522,38 8.9010989,38 L8.91208791,38 Z" id="Path"></path>
            <path d="M73.9998999,44 C73.4476704,44 73,43.514193 73,42.9149198 L73,1.08508015 C73,0.48580693 73.4476704,0 73.9998999,0 C74.5521293,0 74.9997997,0.48580693 74.9997997,1.08508015 L74.9997997,42.8932182 C75.0051736,43.1847409 74.9022044,43.4663434 74.7141012,43.6745534 C74.525998,43.8827635 74.2685913,44 73.9998999,44 Z" id="Path"></path>
            <path d="M77.9010989,38 L70.0989011,38 C69.4919948,38 69,37.5522847 69,37 C69,36.4477153 69.4919948,36 70.0989011,36 L77.9010989,36 C78.5080052,36 79,36.4477153 79,37 C79,37.5522847 78.5080052,38 77.9010989,38 Z" id="Path"></path>
        </g>
    </g>
</svg>