<?xml version="1.0" encoding="UTF-8"?>
<svg width="79px" height="45px" viewBox="0 0 79 45" version="1.1" xmlns="http://www.w3.org/2000/svg" xmlns:xlink="http://www.w3.org/1999/xlink">
    <!-- Generator: Sketch 57.1 (83088) - https://sketch.com -->
    <title>icon_bike</title>
    <desc>Created with Sketch.</desc>
    <g id="Page-1" stroke="none" stroke-width="1" fill="none" fill-rule="evenodd">
        <g id="icon_bike" fill="#FFFFFF" fill-rule="nonzero">
            <path d="M63.8391578,15.0609191 C61.8734171,15.0499595 59.924406,15.417892 58.1014229,16.1440835 L51.2007818,3.14611012 L41.6890874,3.14611012 C41.0438026,3.14611012 40.5206959,3.66258106 40.5206959,4.29968026 C40.5206959,4.93677945 41.0438026,5.4532504 41.6890874,5.4532504 L49.785547,5.4532504 L51.7712641,9.17933611 L29.4895439,9.17933611 L26.911403,5.3557656 C28.128988,5.1248599 29.3252059,4.79518212 30.4878879,4.37008595 C31.026184,4.09168692 31.4234337,3.60534603 31.5849691,3.02696203 C31.6727356,2.55036967 30.8170122,2.21458869 30.4878879,1.94379758 C30.1737943,1.69583651 29.8440003,1.46790921 29.5005148,1.26140397 C27.3657413,0.119910898 24.8984608,-0.262503896 22.5121072,0.178239524 L22.1829828,0.178239524 C20.8226021,0.36237748 18.2993152,0.719821749 18.2883444,2.76700256 C18.2883444,4.20761128 19.7694041,5.20412257 22.4023991,5.49657698 C22.9125951,5.54937974 23.4253266,5.57469111 23.9383128,5.57239849 L24.3881161,5.57239849 L27.4270312,10.0783626 L23.3129765,17.3680594 C18.6673689,14.4515053 12.7861206,14.2482657 7.94534544,16.8369966 C3.1045703,19.4257275 0.0638576997,24.4002186 0,29.8352822 C0.168523135,37.8003262 6.62615844,44.2395567 14.6914729,44.484883 C22.7567873,44.7302093 29.6036554,38.695668 30.2684716,30.755972 L40.8004516,30.571834 L40.8991889,30.571834 C40.9575839,30.5769792 41.016327,30.5769792 41.0747219,30.571834 L41.18443,30.571834 C41.2382562,30.5568139 41.2898835,30.5349686 41.3380214,30.5068441 L41.4367587,30.4418543 L41.5684085,30.3335378 L41.6452042,30.2468847 C41.6777504,30.2135027 41.7071288,30.1772456 41.7329707,30.1385682 L53.2742654,11.8764156 L56.0827934,17.1622581 C51.5106236,19.789021 48.692091,24.6125042 48.677495,29.8352822 C48.5973914,35.9069289 52.240191,41.4248438 57.8989018,43.8033682 C63.5576127,46.1818927 70.1110366,44.9497537 74.4882821,40.6843235 C78.8655275,36.4188934 80.1993017,29.9653102 77.8646067,24.3476808 C75.5299117,18.7300514 69.9893363,15.0614341 63.8391578,15.0609191 L63.8391578,15.0609191 Z M15.150692,42.3784029 C10.6119182,42.3784029 6.41791815,39.9876359 4.1485312,36.1068044 C1.87914426,32.225973 1.87914426,27.4445914 4.1485312,23.56376 C6.41791815,19.6829285 10.6119182,17.2922292 15.150692,17.2922292 C17.6561905,17.2893718 20.1093349,18.0001837 22.2158953,19.3394187 L16.5659268,29.2828683 C16.3482905,29.6254089 16.3420244,30.0591168 16.5496762,30.407647 C16.7573281,30.7561772 17.1443194,30.9614917 17.5533,30.9401099 L17.5533,30.9401099 L27.9865426,30.755972 C27.4316532,37.3417897 21.8441264,42.4010741 15.150692,42.3784029 L15.150692,42.3784029 Z M27.9865426,28.5679798 L19.4951338,28.7196228 L24.0151085,20.7367008 C26.2562145,22.7858381 27.6674734,25.5687025 27.9865426,28.5679798 L27.9865426,28.5679798 Z M30.24653,28.5679798 C29.8859943,24.7872548 28.0531389,21.2923093 25.1341314,18.8194997 L28.6338206,12.6346307 L38.7489097,28.4596633 L30.24653,28.5679798 Z M40.7894808,27.3873305 L30.9157496,11.4214865 L50.9045699,11.4214865 L40.7894808,27.3873305 Z M63.828187,42.4218816 C60.4278183,42.4418179 57.1587683,41.126731 54.7409633,38.7660074 C52.3231583,36.4052838 50.954889,33.1925327 50.9374823,29.8352822 C50.9520481,25.4424101 53.3011439,21.3795284 57.1250206,19.1336174 L62.3032441,28.8820975 C62.4926606,29.2533755 62.8805888,29.4848633 63.301588,29.4778379 C63.4849956,29.4757254 63.6653499,29.4312088 63.828187,29.3478582 C64.0994091,29.2164788 64.3037551,28.9804892 64.393038,28.6955382 C64.4823209,28.4105873 64.4486379,28.1018969 64.2999319,27.8422596 L59.1546209,18.169601 C60.6488451,17.5986907 62.2369498,17.3049278 63.8391578,17.3030695 C70.8554942,17.3030695 76.5433587,22.9187817 76.5433587,29.8461138 C76.5433587,36.7734459 70.8554942,42.3891582 63.8391578,42.3891582 L63.828187,42.4218816 Z" id="Shape"></path>
        </g>
    </g>
</svg>