<?xml version="1.0" encoding="UTF-8"?>
<svg width="69px" height="79px" viewBox="0 0 69 79" version="1.1" xmlns="http://www.w3.org/2000/svg" xmlns:xlink="http://www.w3.org/1999/xlink">
    <!-- Generator: Sketch 57.1 (83088) - https://sketch.com -->
    <title>icon_anchor</title>
    <desc>Created with Sketch.</desc>
    <g id="Page-1" stroke="none" stroke-width="1" fill="none" fill-rule="evenodd">
        <g id="icon_anchor" transform="translate(0.000000, -1.000000)" fill="#FFFFFF" fill-rule="nonzero">
            <path d="M68.8,57.39 L65.37,52.82 L58.68,55 C58.1553295,55.1767311 57.8732689,55.7453295 58.05,56.27 C58.2267311,56.7946705 58.7953295,57.0767311 59.32,56.9 L63.85,55.39 C58.17,67.18 47.6,74.56 36,75 L36.16,57.95 L42.16,60.3 L42.16,60.3 C42.5543082,60.4581336 42.9751647,60.5395897 43.4,60.54 C43.8749407,60.5382404 44.3445246,60.4395597 44.78,60.25 C45.6145958,59.8862762 46.2671728,59.2012507 46.59,58.35 L51.77,45 C52.0941615,44.1474532 52.0654117,43.2009039 51.6901062,42.3696022 C51.3148007,41.5383004 50.62385,40.8907132 49.77,40.57 L43.34,38.07 C44.57,34.25 44.02,28.89 42.2,25.85 L42.13,25.75 L50,25.6 C50.0773199,28.0852814 52.1547186,30.0373199 54.64,29.96 C57.1252814,29.8826801 59.0773199,27.8052814 59,25.32 C59.1305456,22.6993165 57.1199083,20.4652751 54.5,20.32 C52.5393317,20.390821 50.8437458,21.70782 50.29,23.59 L40.39,23.83 C39.3047476,23.0672432 37.9276832,22.8494233 36.66,23.24 L36.33,23.35 L36.41,14.93 C40.0156715,14.589295 42.8050944,11.6199093 42.92,8 C42.7734272,3.99981103 39.4207838,0.870677218 35.42,1 C31.4192162,0.870677218 28.0665728,3.99981103 27.92,8 C28.0337181,11.6130019 30.8122065,14.5798624 34.41,14.93 L34.32,24 L21.07,24.32 C20.7589016,22.100562 18.9089567,20.4187939 16.67,20.32 C14.0500917,20.4652751 12.0394544,22.6993165 12.17,25.32 C12.0394544,27.9406835 14.0500917,30.1747249 16.67,30.32 C18.9127933,30.2259028 20.7681885,28.5430047 21.08,26.32 L32.08,26.05 C30.6732352,28.0452235 29.9441314,30.4393479 30,32.88 L29.21,32.57 C28.3574532,32.2458385 27.4109039,32.2745883 26.5796022,32.6498938 C25.7483004,33.0251993 25.1007132,33.71615 24.78,34.57 L19.58,47.78 C19.2514355,48.6259197 19.2693995,49.5672323 19.63,50.4 C19.992349,51.2319799 20.6731358,51.8839503 21.52,52.21 L34.15,57.13 L34,75 C22.4,74.59 11.93,67.27 6.24,55.61 L9.65,56.97 C9.982257,57.1021883 10.3597967,57.0470783 10.6404037,56.8254294 C10.9210106,56.6037806 11.0620538,56.2492665 11.0104037,55.8954294 C10.9587536,55.5415923 10.722257,55.2421883 10.39,55.11 L4.68,52.79 L0.22,58.37 C-0.120356881,58.8013699 -0.0489081784,59.4265461 0.38,59.77 C0.554603769,59.9147585 0.773230582,59.995862 1,60 C1.30258841,60.0010289 1.58936995,59.8649915 1.78,59.63 L4.39,56.37 C10.4,68.75 21.57,76.53 34,77 L34,80 L36,80 L36,77 C48.36,76.62 59.59,68.86 65.62,56.48 L67.24,58.64 C67.4288544,58.8918058 67.7252427,59.04 68.04,59.04 C68.2563702,59.04 68.4669038,58.9698221 68.64,58.84 C68.8610798,58.6742074 69.0036985,58.4243213 69.0340071,58.1496491 C69.0643158,57.8749768 68.9796123,57.6000069 68.8,57.39 Z M54.5,22.32 C56.0109291,22.4729419 57.1220279,23.8062605 57,25.32 C57.1220279,26.8337395 56.0109291,28.1670581 54.5,28.32 C52.9890709,28.1670581 51.8779721,26.8337395 52,25.32 C51.8779721,23.8062605 52.9890709,22.4729419 54.5,22.32 L54.5,22.32 Z M16.67,28.32 C15.1590709,28.1670581 14.0479721,26.8337395 14.17,25.32 C14.0479721,23.8062605 15.1590709,22.4729419 16.67,22.32 C18.1809291,22.4729419 19.2920279,23.8062605 19.17,25.32 C19.2920279,26.8337395 18.1809291,28.1670581 16.67,28.32 Z M42,42.41 C42,42.9622847 41.5522847,43.41 41,43.41 C40.4477153,43.41 40,42.9622847 40,42.41 C40,41.8577153 40.4477153,41.41 41,41.41 C41.5522847,41.41 42,41.8577153 42,42.41 Z M40.53,26.92 C42.18,29.67 42.53,34.29 41.53,37.38 L36.23,35.32 L36.32,25.93 L39.71,25.85 C40.0303818,26.1680151 40.3062216,26.5279524 40.53,26.92 L40.53,26.92 Z M29.92,8 C30.0656307,5.1040727 32.5233382,2.86979314 35.42,3 C38.3166618,2.86979314 40.7743693,5.1040727 40.92,8 C40.7743693,10.8959273 38.3166618,13.1302069 35.42,13 C32.5233382,13.1302069 30.0656307,10.8959273 29.92,8 L29.92,8 Z M34.3,26.66 L34.22,34.54 L31.93,33.65 C32,30.86 32.38,28.33 34.3,26.66 Z M32,38.5 C32,39.0522847 31.5522847,39.5 31,39.5 C30.4477153,39.5 30,39.0522847 30,38.5 C30,37.9477153 30.4477153,37.5 31,37.5 C31.5522847,37.5 32,37.9477153 32,38.5 Z M21.46,49.6 C21.3149992,49.2511336 21.3149992,48.8588664 21.46,48.51 L26.63,35.25 C26.7590148,34.8936745 27.0308525,34.6073388 27.38,34.46 C27.7288664,34.3149992 28.1211336,34.3149992 28.47,34.46 L29.93,35.02 L29.93,35.73 C28.5097384,36.2723239 27.7196723,37.7913147 28.0910794,39.2655315 C28.4624864,40.7397483 29.8779397,41.7030912 31.3856218,41.5077631 C32.8933039,41.312435 34.0165343,40.0201924 34,38.5 C33.9946837,37.5750279 33.5629731,36.704227 32.83,36.14 L40.67,39.2 L40.49,39.47 C38.9205632,39.7407695 37.8362334,41.1907082 38.0201053,42.7726813 C38.2039773,44.3546545 39.5919592,45.5172377 41.1816611,45.420822 C42.7713629,45.3244064 44.0086663,44.0025994 44,42.41 C43.9914581,41.4533049 43.5271176,40.5580563 42.75,40 L49.09,42.47 C49.4463255,42.5990148 49.7326612,42.8708525 49.88,43.22 C50.0250008,43.5688664 50.0250008,43.9611336 49.88,44.31 L44.74,57.58 C44.5980032,57.9314754 44.3257176,58.2145091 43.98,58.37 C43.6347164,58.5155733 43.2452836,58.5155733 42.9,58.37 L22.25,50.37 C21.8978496,50.2238614 21.6151186,49.9482882 21.46,49.6 L21.46,49.6 Z" id="Shape"></path>
        </g>
    </g>
</svg>