<?xml version="1.0" encoding="utf-8"?>
<!-- Generator: Adobe Illustrator 27.9.0, SVG Export Plug-In . SVG Version: 6.00 Build 0)  -->
<svg version="1.1" id="Layer_1" xmlns="http://www.w3.org/2000/svg" xmlns:xlink="http://www.w3.org/1999/xlink" x="0px" y="0px"
	 viewBox="0 0 1486.1 971.9" style="enable-background:new 0 0 1486.1 971.9;" xml:space="preserve">
<style type="text/css">
	.st0{fill:#FFFFFF;}
	.st1{font-family:'PerpetuaTitlingMT-Light';}
	.st2{font-size:65.7382px;}
	.st3{font-family:'SitkaBanner-Bold';}
	.st4{font-size:244.7141px;}
</style>
<g>
	<text transform="matrix(1 0 0 1 544.2689 961.9947)" class="st0 st1 st2">RESORT &amp; SPA</text>
</g>
<g>
	<text transform="matrix(1 0 0 1 405.5693 876.7483)" class="st0 st3 st4">HOTEL</text>
</g>
<g>
	<polygon class="st0" points="1118.8,282.4 771.7,487.5 424.5,282.4 307.5,386 307.5,317.6 326.1,317.6 326.1,282.4 307.5,282.4 
		183.7,282.4 165.1,282.4 165.1,317.6 183.7,317.6 183.7,495.6 4.3,654.4 424.5,440.8 771.7,645.9 1118.8,440.8 1486.1,627.5 	"/>
	<path class="st0" d="M677.3,383.5L512,196.3l187.2,165.3L588.1,138l138.1,208.1l-49.5-244.8L756.1,338l15.5-249.3L787.2,338
		l79.5-236.8l-49.5,244.8L955.2,138L844.1,361.6l187.2-165.3L866,383.5l247-129.3C1069.2,107.2,933,0,771.7,0
		C610.4,0,474.2,107.2,430.3,254.2L677.3,383.5z"/>
</g>
</svg>
