<?xml version="1.0" encoding="utf-8"?>
<!-- Generator: Adobe Illustrator 23.0.1, SVG Export Plug-In . SVG Version: 6.00 Build 0)  -->
<svg version="1.1" id="Слой_1" xmlns="http://www.w3.org/2000/svg" xmlns:xlink="http://www.w3.org/1999/xlink" x="0px" y="0px"
	 viewBox="0 0 24 24" style="enable-background:new 0 0 24 24;" xml:space="preserve">
<style type="text/css">
	.st0{clip-path:url(#SVGID_2_);}
	.st1{clip-path:url(#SVGID_4_);fill:#358534;}
	.st2{clip-path:url(#SVGID_4_);fill:#FFFFFF;}
	.st3{clip-path:url(#SVGID_4_);fill:#D51024;}
	.st4{clip-path:url(#SVGID_4_);}
	.st5{clip-path:url(#SVGID_6_);fill:#FFFFFF;}
	.st6{clip-path:url(#SVGID_6_);}
	.st7{fill:#D51024;}
</style>
<title>Таиланд Copy</title>
<desc>Created with Sketch.</desc>
<g>
	<defs>
		<circle id="SVGID_1_" cx="12" cy="12" r="12"/>
	</defs>
	<clipPath id="SVGID_2_">
		<use xlink:href="#SVGID_1_"  style="overflow:visible;"/>
	</clipPath>
	<g class="st0">
		<g>
			<defs>
				<rect id="SVGID_3_" x="-5" y="-0.2" width="41.9" height="24.4"/>
			</defs>
			<clipPath id="SVGID_4_">
				<use xlink:href="#SVGID_3_"  style="overflow:visible;"/>
			</clipPath>
			<rect x="-5" y="-0.2" class="st1" width="41.9" height="24.4"/>
			<rect x="-5" y="3.3" class="st2" width="41.9" height="3.5"/>
			<rect x="-5" y="10.3" class="st2" width="41.9" height="3.5"/>
			<rect x="-5" y="17.2" class="st2" width="41.9" height="3.5"/>
			<rect x="-5" y="-0.2" class="st3" width="18.6" height="10.5"/>
			<polygon class="st2" points="4.7,1.5 4.9,2.2 4.3,1.8 3.7,2.2 4,1.5 3.3,1 4.1,1.1 4.3,0.3 4.6,1.1 5.3,1 			"/>
			<polygon class="st2" points="10.3,6.6 10.5,7.3 9.9,6.8 9.3,7.3 9.5,6.6 8.9,6.1 9.7,6.1 9.9,5.4 10.1,6.1 10.9,6.1 			"/>
			<polygon class="st2" points="-0.9,6.6 -0.6,7.3 -1.2,6.8 -1.9,7.3 -1.6,6.6 -2.2,6.1 -1.5,6.1 -1.2,5.4 -1,6.1 -0.2,6.1 			"/>
			<polygon class="st2" points="2,2.3 2.2,3 1.6,2.5 1,3 1.2,2.3 0.6,1.8 1.4,1.8 1.6,1.1 1.8,1.8 2.6,1.8 			"/>
			<polygon class="st2" points="7.4,2.3 7.7,3 7.1,2.5 6.5,3 6.7,2.3 6.1,1.8 6.8,1.8 7.1,1.1 7.3,1.8 8.1,1.8 			"/>
			<polygon class="st2" points="9.4,4.3 9.6,5 9,4.5 8.4,5 8.7,4.3 8,3.8 8.8,3.9 9,3.1 9.3,3.9 10,3.8 			"/>
			<polygon class="st2" points="0,4.3 0.3,5 -0.4,4.5 -1,5 -0.7,4.3 -1.3,3.8 -0.6,3.9 -0.4,3.1 -0.1,3.9 0.6,3.8 			"/>
			<g class="st4">
				<defs>
					<rect id="SVGID_5_" x="-5" y="-0.2" width="41.9" height="24.4"/>
				</defs>
				<clipPath id="SVGID_6_">
					<use xlink:href="#SVGID_5_"  style="overflow:visible;"/>
				</clipPath>
				<path class="st5" d="M3.2,6.1c0,0-0.2,0.1-0.1,1.3c0.1,1.1,0.5,1.4,0.5,1.4l0.2,0.7l1.6,0c0,0,0-0.4,0.1-0.5
					c0.1-0.3,0.7-0.7,1-1.2c0.3-0.3,0.1-1,0.7-1.7c0.3-0.3-0.3-0.2-0.3-0.2C6.5,6.1,6.3,6.4,6.2,6.6C6.2,6.9,5.9,7.2,5.9,6.9
					c0,0-0.1-0.4-0.4-1.2c0-0.2-0.1-1.1-0.2-1.7c0-0.4-0.4-0.4-0.4,0l0,1.7L4.8,3.7c0-0.5-0.5-0.5-0.5,0l0,2l-0.1-2
					C4.2,3.4,3.9,3.6,3.9,4L3.8,5.9c0,0-0.1-1-0.1-1.5c0-0.3-0.3-0.2-0.4,0.1C3.3,5.1,3.3,5.5,3.2,6.1L3.2,6.1z"/>
				<g class="st6">
					<path class="st7" d="M5.4,9.5l-1.6,0L3.6,8.8c0,0-0.4-0.3-0.5-1.4c-0.1-1.3,0-1.4,0.1-1.4c0-0.3,0-0.6,0.1-0.9
						c0-0.2,0-0.4,0.1-0.6c0-0.4,0.4-0.4,0.4-0.1c0,0.4,0.1,1.5,0.1,1.5l0-1.9c0-0.3,0.1-0.5,0.3-0.5c0,0,0.1,0,0.2,0.2l0.1,2l0-2
						c0-0.3,0.1-0.4,0.3-0.4c0.1,0,0.2,0.1,0.3,0.4l0.1,1.9l0-1.7c0-0.5,0.4-0.4,0.5,0c0,0.5,0.1,1.2,0.1,1.5l0,0.2
						c0.3,0.8,0.4,1.2,0.4,1.2c0,0,0,0.1,0,0.1C6,7,6.2,6.8,6.2,6.5c0.1-0.3,0.3-0.5,0.6-0.6c0,0,0.1,0,0.2,0c0.1,0,0.1,0,0.2,0.1
						c0,0,0,0.1-0.1,0.2C6.8,6.5,6.7,6.9,6.7,7.2c0,0.2-0.1,0.4-0.2,0.6C6.3,8.1,6.1,8.3,5.8,8.5C5.7,8.7,5.5,8.8,5.5,9
						C5.4,9.1,5.4,9.5,5.4,9.5L5.4,9.5L5.4,9.5z M3.6,4.2c-0.1,0-0.2,0.1-0.2,0.3c0,0.2,0,0.4-0.1,0.6c0,0.3-0.1,0.6-0.1,0.9
						c0,0-0.2,0.1-0.1,1.3c0.1,1,0.5,1.4,0.5,1.4l0.2,0.7l1.5,0c0-0.1,0-0.4,0.1-0.5c0.1-0.1,0.2-0.3,0.4-0.4C6,8.3,6.3,8,6.4,7.7
						c0.1-0.1,0.2-0.3,0.2-0.6c0.1-0.3,0.2-0.7,0.5-1.1C7.2,6,7.2,6,7.2,5.9c0-0.1-0.4,0-0.4,0C6.6,6.1,6.4,6.3,6.3,6.6
						C6.2,6.8,6.1,7,6,7c0,0-0.1,0-0.1-0.1c0,0-0.1-0.4-0.4-1.2l0-0.2c0-0.3-0.1-1-0.1-1.5c0-0.4-0.3-0.4-0.4,0l0,1.7L4.8,3.7
						c0-0.6-0.4-0.4-0.4,0l0,2l-0.1-2c0-0.1-0.1-0.2-0.1-0.2C4,3.6,3.9,3.7,3.9,4L3.8,5.9l0,0c0,0-0.1-1-0.1-1.5
						C3.7,4.3,3.7,4.2,3.6,4.2L3.6,4.2z"/>
				</g>
			</g>
		</g>
	</g>
</g>
</svg>
