<?xml version="1.0" encoding="UTF-8"?>
<svg width="24px" height="24px" viewBox="0 0 24 24" version="1.1" xmlns="http://www.w3.org/2000/svg" xmlns:xlink="http://www.w3.org/1999/xlink">
    <!-- Generator: Sketch 55.2 (78181) - https://sketchapp.com -->
    <title>Азербайджан </title>
    <desc>Created with Sketch.</desc>
    <defs>
        <path d="M23.99325,11.9689302 C23.99325,18.5222326 18.6391875,23.8349767 12.0345,23.8349767 C5.4301875,23.8349767 0.0759375,18.5222326 0.0759375,11.9689302 C0.0759375,5.41581395 5.4301875,0.103627907 12.0345,0.103627907 C18.6391875,0.103627907 23.99325,5.41581395 23.99325,11.9689302 L23.99325,11.9689302 Z" id="path-1"></path>
    </defs>
    <g id="Page-1" stroke="none" stroke-width="1" fill="none" fill-rule="evenodd">
        <g id="Азербайджан-">
            <mask id="mask-2" fill="white">
                <use xlink:href="#path-1"></use>
            </mask>
            <g id="Clip-944"></g>
            <polygon id="Fill-943" fill="#17AA22" mask="url(#mask-2)" points="-5.902875 23.8349767 29.972625 23.8349767 29.972625 15.924093 -5.902875 15.924093"></polygon>
            <polygon id="Fill-945" fill="#2489F0" mask="url(#mask-2)" points="-5.902875 8.01413953 29.972625 8.01413953 29.972625 0.103813953 -5.902875 0.103813953"></polygon>
            <polygon id="Fill-946" fill="#FF1612" mask="url(#mask-2)" points="-5.902875 15.924093 29.972625 15.924093 29.972625 8.01413953 -5.902875 8.01413953"></polygon>
            <path d="M13.727625,10.0803721 C13.11525,9.17823256 12.0766875,8.58586047 10.89825,8.58586047 C9.0144375,8.58586047 7.4878125,10.1002791 7.4878125,11.9696744 C7.4878125,13.8377674 9.0144375,15.3527442 10.89825,15.3527442 C12.0766875,15.3527442 13.11525,14.76 13.727625,13.8576744 C13.2075,14.4293953 12.454875,14.7892093 11.6176875,14.7892093 C10.0485,14.7892093 8.7759375,13.5265116 8.7759375,11.9696744 C8.7759375,10.412093 10.0485,9.14939535 11.6176875,9.14939535 C12.454875,9.14939535 13.2075,9.50865116 13.727625,10.0803721" id="Fill-947" fill="#FFFFFF" mask="url(#mask-2)"></path>
            <polyline id="Fill-948" fill="#FFFFFF" mask="url(#mask-2)" points="16.0275 13.2974884 15.05025 12.8372093 14.68875 13.8491163 14.3251875 12.8377674 13.348125 13.2989767 13.8118125 12.3294884 12.792 11.9704186 13.8118125 11.6100465 13.34625 10.6405581 14.3233125 11.1015814 14.6855625 10.0891163 15.04875 11.1008372 16.025625 10.6388837 15.561375 11.6091163 16.581 11.9676279 15.5626875 12.328 16.0275 13.2974884"></polyline>
        </g>
    </g>
</svg>