<?xml version="1.0" encoding="utf-8"?>
<!-- Generator: Adobe Illustrator 23.0.1, SVG Export Plug-In . SVG Version: 6.00 Build 0)  -->
<svg version="1.1" id="Слой_1" xmlns="http://www.w3.org/2000/svg" xmlns:xlink="http://www.w3.org/1999/xlink" x="0px" y="0px"
	 viewBox="0 0 24 24" style="enable-background:new 0 0 24 24;" xml:space="preserve">
<style type="text/css">
	.st0{clip-path:url(#SVGID_2_);}
	.st1{fill:#FFFFFF;}
	.st2{fill:#CC0000;}
	.st3{fill:#009900;}
</style>
<title>Таиланд Copy</title>
<desc>Created with Sketch.</desc>
<g>
	<defs>
		<circle id="SVGID_1_" cx="12" cy="12" r="12"/>
	</defs>
	<clipPath id="SVGID_2_">
		<use xlink:href="#SVGID_1_"  style="overflow:visible;"/>
	</clipPath>
	<g class="st0">
		<rect y="-0.5" class="st1" width="43.8" height="25"/>
		<rect x="6.3" y="-0.5" class="st2" width="37.5" height="16.9"/>
		<rect x="6.3" y="16.3" class="st3" width="37.5" height="8.2"/>
		<g>
			<g>
				<rect x="1.9" y="-0.5" class="st2" width="0.2" height="0.5"/>
				<path class="st2" d="M2.2,0H1.9v-0.6h0.3V0z M1.9,0h0.2v-0.5H1.9V0z"/>
			</g>
			<g>
				<rect x="1.7" y="0" class="st2" width="0.7" height="0.5"/>
				<path class="st2" d="M2.4,0.6H1.7V0h0.8V0.6z M1.7,0.6h0.7V0H1.7V0.6z"/>
			</g>
			<g>
				<rect x="1.4" y="0.6" class="st2" width="0.5" height="0.6"/>
				<path class="st2" d="M1.9,1.2H1.4V0.6h0.5V1.2z M1.4,1.2h0.5V0.6H1.4V1.2z"/>
			</g>
			<g>
				<rect x="1.1" y="1.2" class="st2" width="0.5" height="0.6"/>
				<path class="st2" d="M1.7,1.8H1.1V1.2h0.5V1.8z M1.1,1.8h0.5V1.2H1.1V1.8z"/>
			</g>
			<g>
				<rect x="0.8" y="1.8" class="st2" width="0.5" height="0.6"/>
				<path class="st2" d="M1.4,2.4H0.8V1.8h0.5V2.4z M0.8,2.3h0.5V1.8H0.8V2.3z"/>
			</g>
			<g>
				<rect x="2.2" y="0.6" class="st2" width="0.5" height="0.6"/>
				<path class="st2" d="M2.7,1.2H2.2V0.6h0.5V1.2z M2.2,1.2h0.5V0.6H2.2V1.2z"/>
			</g>
			<g>
				<rect x="2.5" y="1.2" class="st2" width="0.5" height="0.6"/>
				<path class="st2" d="M3,1.8H2.5V1.2H3V1.8z M2.5,1.8H3V1.2H2.5V1.8z"/>
			</g>
			<g>
				<rect x="2.8" y="1.8" class="st2" width="0.7" height="0.6"/>
				<path class="st2" d="M3.5,2.4H2.7V1.8h0.8V2.4z M2.8,2.4h0.7V1.8H2.8V2.4z"/>
			</g>
			<g>
				<rect x="1.7" y="3.6" class="st2" width="0.8" height="0.6"/>
				<path class="st2" d="M2.4,4.2H1.6V3.5h0.8V4.2z M1.7,4.1h0.7V3.6H1.7V4.1z"/>
			</g>
			<g>
				<rect x="1.4" y="3" class="st2" width="0.5" height="0.6"/>
				<path class="st2" d="M1.9,3.6H1.4V2.9h0.5V3.6z M1.4,3.5h0.5V3H1.4V3.5z"/>
			</g>
			<g>
				<rect x="1.1" y="2.4" class="st2" width="0.5" height="0.6"/>
				<path class="st2" d="M1.6,3H1.1V2.3h0.5V3z M1.1,2.9h0.5V2.4H1.1V2.9z"/>
			</g>
			<g>
				<rect x="2.2" y="2.9" class="st2" width="0.5" height="0.6"/>
				<path class="st2" d="M2.7,3.6H2.2V2.9h0.5V3.6z M2.2,3.5h0.5V3H2.2V3.5z"/>
			</g>
			<g>
				<rect x="2.5" y="2.4" class="st2" width="0.5" height="0.6"/>
				<path class="st2" d="M3,3H2.5V2.3H3V3z M2.5,2.9H3V2.4H2.5V2.9z"/>
			</g>
			<g>
				<rect x="1.9" y="4.1" class="st2" width="0.2" height="0.5"/>
				<path class="st2" d="M2.2,4.7H1.9V4.1h0.3V4.7z M1.9,4.7h0.2V4.2H1.9V4.7z"/>
			</g>
			<g>
				<rect x="0.9" y="-0.1" class="st2" width="0.2" height="0.7"/>
				<path class="st2" d="M1.1,0.6H0.8v-0.7h0.3V0.6z M0.9,0.6h0.2V0H0.9V0.6z"/>
			</g>
			<g>
				<rect x="3" y="-0.1" class="st2" width="0.2" height="0.7"/>
				<path class="st2" d="M3.3,0.6H3v-0.7h0.3V0.6z M3,0.6h0.2v-0.6H3V0.6z"/>
			</g>
			<g>
				<rect x="0.9" y="3.3" class="st2" width="0.2" height="0.7"/>
				<path class="st2" d="M1.1,4H0.8V3.3h0.3V4z M0.9,4h0.2V3.3H0.9V4z"/>
			</g>
			<g>
				<rect x="3" y="3.3" class="st2" width="0.2" height="0.7"/>
				<path class="st2" d="M3.3,4H3V3.3h0.3V4z M3,4h0.2V3.3H3V4z"/>
			</g>
			<g>
				<rect x="1.9" y="1.8" class="st2" width="0.2" height="0.5"/>
				<path class="st2" d="M2.2,2.3H1.9V1.8h0.3V2.3z M1.9,2.3h0.2V1.8H1.9V2.3z"/>
			</g>
			<g>
				<rect x="4.1" y="-0.5" class="st2" width="0.2" height="0.5"/>
				<path class="st2" d="M4.3,0H4.1v-0.6h0.3V0z M4.1,0h0.2v-0.5H4.1V0z"/>
			</g>
			<g>
				<rect x="3.8" y="0" class="st2" width="0.7" height="0.5"/>
				<path class="st2" d="M4.6,0.6H3.8V0h0.8V0.6z M3.9,0.6h0.7V0H3.9V0.6z"/>
			</g>
			<g>
				<rect x="4.4" y="0.6" class="st2" width="0.5" height="0.6"/>
				<path class="st2" d="M4.9,1.2H4.4V0.6h0.5V1.2z M4.4,1.2h0.5V0.6H4.4V1.2z"/>
			</g>
			<g>
				<rect x="4.6" y="1.2" class="st2" width="0.5" height="0.6"/>
				<path class="st2" d="M5.2,1.8H4.6V1.2h0.5V1.8z M4.7,1.8h0.5V1.2H4.7V1.8z"/>
			</g>
			<g>
				<rect x="4.9" y="1.8" class="st2" width="0.5" height="0.6"/>
				<path class="st2" d="M5.5,2.4H4.9V1.8h0.5V2.4z M4.9,2.4h0.5V1.8H4.9V2.4z"/>
			</g>
			<g>
				<rect x="3.8" y="3.6" class="st2" width="0.8" height="0.6"/>
				<path class="st2" d="M4.6,4.2H3.8V3.6h0.8V4.2z M3.8,4.1h0.7V3.6H3.8V4.1z"/>
			</g>
			<g>
				<rect x="4.4" y="3" class="st2" width="0.5" height="0.6"/>
				<path class="st2" d="M4.9,3.6H4.4V2.9h0.5V3.6z M4.4,3.5h0.5V3H4.4V3.5z"/>
			</g>
			<g>
				<rect x="4.6" y="2.4" class="st2" width="0.5" height="0.6"/>
				<path class="st2" d="M5.2,3H4.6V2.4h0.5V3z M4.7,3h0.5V2.4H4.7V3z"/>
			</g>
			<g>
				<rect x="4.1" y="4.2" class="st2" width="0.2" height="0.5"/>
				<path class="st2" d="M4.3,4.7H4.1V4.1h0.3V4.7z M4.1,4.7h0.2V4.2H4.1V4.7z"/>
			</g>
			<g>
				<rect x="5.2" y="-0.1" class="st2" width="0.2" height="0.7"/>
				<path class="st2" d="M5.4,0.6H5.2v-0.7h0.3V0.6z M5.2,0.6h0.2v-0.6H5.2V0.6z"/>
			</g>
			<g>
				<rect x="5.2" y="3.3" class="st2" width="0.2" height="0.7"/>
				<path class="st2" d="M5.4,4H5.2V3.3h0.3V4z M5.2,4h0.2V3.3H5.2V4z"/>
			</g>
			<g>
				<rect x="3.6" y="0.6" class="st2" width="0.5" height="0.6"/>
				<path class="st2" d="M4.1,1.2H3.6V0.6h0.5V1.2z M3.6,1.2h0.5V0.6H3.6V1.2z"/>
			</g>
			<g>
				<rect x="3.3" y="1.2" class="st2" width="0.5" height="0.6"/>
				<path class="st2" d="M3.8,1.8H3.3V1.2h0.5V1.8z M3.3,1.8h0.5V1.2H3.3V1.8z"/>
			</g>
			<g>
				<rect x="3.6" y="3" class="st2" width="0.5" height="0.6"/>
				<path class="st2" d="M4.1,3.6H3.6V2.9h0.5V3.6z M3.6,3.5h0.5V3H3.6V3.5z"/>
			</g>
			<g>
				<rect x="3.3" y="2.4" class="st2" width="0.5" height="0.6"/>
				<path class="st2" d="M3.8,3H3.3V2.4h0.5V3z M3.3,2.9h0.5V2.4H3.3V2.9z"/>
			</g>
			<g>
				<rect x="4.1" y="1.8" class="st2" width="0.2" height="0.5"/>
				<path class="st2" d="M4.3,2.4H4.1V1.8h0.3V2.4z M4.1,2.3h0.2V1.8H4.1V2.3z"/>
			</g>
			<g>
				<g>
					<rect x="1.1" y="4.2" class="st2" width="0.4" height="0.4"/>
					<path class="st2" d="M1.5,4.6H1.1V4.2h0.4V4.6z M1.1,4.6h0.4V4.2H1.1V4.6z"/>
				</g>
				<g>
					<rect x="1" y="4.6" class="st2" width="0.7" height="0.2"/>
					<path class="st2" d="M1.7,4.8H0.9V4.6h0.7V4.8z M1,4.8h0.7V4.6H1V4.8z"/>
				</g>
				<g>
					<rect x="1" y="4.7" class="st2" width="0.3" height="0.4"/>
					<path class="st2" d="M1.2,5H0.9V4.7h0.3V5z M1,5h0.3V4.7H1V5z"/>
				</g>
				<g>
					<rect x="1.4" y="4.7" class="st2" width="0.3" height="0.4"/>
					<path class="st2" d="M1.7,5H1.4V4.7h0.3V5z M1.4,5h0.3V4.7H1.4V5z"/>
				</g>
				<g>
					<rect x="1.1" y="5.7" class="st2" width="0.4" height="0.4"/>
					<path class="st2" d="M1.5,6.1H1.1V5.7h0.4V6.1z M1.1,6.1h0.4V5.7H1.1V6.1z"/>
				</g>
				<g>
					<rect x="1" y="5.5" class="st2" width="0.7" height="0.2"/>
					<path class="st2" d="M1.7,5.7H0.9V5.5h0.7V5.7z M1,5.7h0.7V5.5H1V5.7z"/>
				</g>
				<g>
					<rect x="1" y="5.3" class="st2" width="0.3" height="0.4"/>
					<path class="st2" d="M1.2,5.6H0.9V5.2h0.3V5.6z M1,5.6h0.3V5.3H1V5.6z"/>
				</g>
				<g>
					<rect x="1.4" y="5.3" class="st2" width="0.3" height="0.4"/>
					<path class="st2" d="M1.7,5.6H1.4V5.2h0.3V5.6z M1.4,5.6h0.3V5.3H1.4V5.6z"/>
				</g>
				<g>
					<rect x="0.8" y="5" class="st2" width="0.3" height="0.4"/>
					<path class="st2" d="M1.1,5.3H0.8V4.9h0.3V5.3z M0.8,5.3h0.2V5H0.8V5.3z"/>
				</g>
				<g>
					<rect x="1.5" y="5" class="st2" width="0.3" height="0.4"/>
					<path class="st2" d="M1.8,5.3H1.5V4.9h0.3V5.3z M1.5,5.3h0.3V5H1.5V5.3z"/>
				</g>
			</g>
			<g>
				<rect x="2.6" y="4.2" class="st2" width="0.4" height="0.4"/>
				<path class="st2" d="M3,4.6H2.6V4.2H3V4.6z M2.6,4.6H3V4.2H2.6V4.6z"/>
			</g>
			<g>
				<rect x="2.5" y="4.6" class="st2" width="0.7" height="0.2"/>
				<path class="st2" d="M3.2,4.8H2.5V4.6h0.7V4.8z M2.5,4.8h0.7V4.6H2.5V4.8z"/>
			</g>
			<g>
				<rect x="2.5" y="4.7" class="st2" width="0.3" height="0.4"/>
				<path class="st2" d="M2.8,5H2.5V4.7h0.3V5z M2.5,5h0.3V4.7H2.5V5z"/>
			</g>
			<g>
				<rect x="2.9" y="4.7" class="st2" width="0.3" height="0.4"/>
				<path class="st2" d="M3.2,5H2.9V4.7h0.3V5z M2.9,5h0.3V4.7H2.9V5z"/>
			</g>
			<g>
				<rect x="2.6" y="5.7" class="st2" width="0.4" height="0.4"/>
				<path class="st2" d="M3,6.1H2.6V5.7H3V6.1z M2.6,6.1H3V5.7H2.6V6.1z"/>
			</g>
			<g>
				<rect x="2.5" y="5.5" class="st2" width="0.7" height="0.2"/>
				<path class="st2" d="M3.2,5.7H2.5V5.5h0.7V5.7z M2.5,5.7h0.7V5.5H2.5V5.7z"/>
			</g>
			<g>
				<rect x="2.5" y="5.2" class="st2" width="0.3" height="0.4"/>
				<path class="st2" d="M2.8,5.6H2.5V5.2h0.3V5.6z M2.5,5.6h0.3V5.2H2.5V5.6z"/>
			</g>
			<g>
				<rect x="2.9" y="5.2" class="st2" width="0.3" height="0.4"/>
				<path class="st2" d="M3.2,5.6H2.9V5.2h0.3V5.6z M2.9,5.6h0.3V5.2H2.9V5.6z"/>
			</g>
			<g>
				<rect x="2.3" y="4.9" class="st2" width="0.3" height="0.4"/>
				<path class="st2" d="M2.6,5.3H2.3V4.9h0.3V5.3z M2.4,5.3h0.2V5H2.4V5.3z"/>
			</g>
			<g>
				<rect x="3" y="4.9" class="st2" width="0.2" height="0.4"/>
				<path class="st2" d="M3.2,5.3H3V4.9h0.2V5.3z M3,5.3h0.2V5H3V5.3z"/>
			</g>
			<g>
				<rect x="3.2" y="4.2" class="st2" width="0.4" height="0.4"/>
				<path class="st2" d="M3.7,4.6H3.2V4.2h0.4V4.6z M3.2,4.5h0.4V4.2H3.2V4.5z"/>
			</g>
			<g>
				<rect x="3.1" y="4.6" class="st2" width="0.7" height="0.2"/>
				<path class="st2" d="M3.8,4.8H3.1V4.6h0.7V4.8z M3.1,4.8h0.7V4.6H3.1V4.8z"/>
			</g>
			<g>
				<rect x="3.1" y="4.7" class="st2" width="0.3" height="0.4"/>
				<path class="st2" d="M3.4,5H3.1V4.7h0.3V5z M3.1,5h0.3V4.7H3.1V5z"/>
			</g>
			<g>
				<rect x="3.5" y="4.7" class="st2" width="0.3" height="0.4"/>
				<path class="st2" d="M3.8,5H3.5V4.7h0.3V5z M3.5,5h0.3V4.7H3.5V5z"/>
			</g>
			<g>
				<rect x="3.2" y="5.7" class="st2" width="0.4" height="0.4"/>
				<path class="st2" d="M3.7,6.1H3.2V5.7h0.4V6.1z M3.2,6h0.4V5.7H3.2V6z"/>
			</g>
			<g>
				<rect x="3.1" y="5.5" class="st2" width="0.7" height="0.2"/>
				<path class="st2" d="M3.8,5.7H3.1V5.5h0.7V5.7z M3.1,5.7h0.7V5.5H3.1V5.7z"/>
			</g>
			<g>
				<rect x="3.1" y="5.2" class="st2" width="0.3" height="0.4"/>
				<path class="st2" d="M3.4,5.6H3.1V5.2h0.3V5.6z M3.1,5.6h0.3V5.2H3.1V5.6z"/>
			</g>
			<g>
				<rect x="3.5" y="5.2" class="st2" width="0.3" height="0.4"/>
				<path class="st2" d="M3.8,5.6H3.5V5.2h0.3V5.6z M3.5,5.6h0.3V5.2H3.5V5.6z"/>
			</g>
			<g>
				<rect x="3" y="4.9" class="st2" width="0.1" height="0.4"/>
				<path class="st2" d="M3.2,5.3H3V4.9h0.2V5.3z M3,5.3h0.1V4.9H3V5.3z"/>
			</g>
			<g>
				<rect x="3.7" y="4.9" class="st2" width="0.3" height="0.4"/>
				<path class="st2" d="M3.9,5.3H3.6V4.9h0.3V5.3z M3.7,5.3h0.3V4.9H3.7V5.3z"/>
			</g>
			<g>
				<g>
					<rect x="4.7" y="4.2" class="st2" width="0.4" height="0.4"/>
					<path class="st2" d="M5.2,4.6H4.7V4.2h0.4V4.6z M4.8,4.6h0.4V4.2H4.8V4.6z"/>
				</g>
				<g>
					<rect x="4.6" y="4.6" class="st2" width="0.7" height="0.2"/>
					<path class="st2" d="M5.3,4.8H4.6V4.6h0.7V4.8z M4.6,4.8h0.7V4.6H4.6V4.8z"/>
				</g>
				<g>
					<rect x="4.6" y="4.7" class="st2" width="0.3" height="0.4"/>
					<path class="st2" d="M4.9,5H4.6V4.7h0.3V5z M4.6,5h0.3V4.7H4.6V5z"/>
				</g>
				<g>
					<rect x="5" y="4.7" class="st2" width="0.3" height="0.4"/>
					<path class="st2" d="M5.3,5H5V4.7h0.3V5z M5,5h0.3V4.7H5V5z"/>
				</g>
				<g>
					<rect x="4.7" y="5.7" class="st2" width="0.4" height="0.4"/>
					<path class="st2" d="M5.2,6.1H4.7V5.7h0.4V6.1z M4.8,6.1h0.4V5.7H4.8V6.1z"/>
				</g>
				<g>
					<rect x="4.6" y="5.5" class="st2" width="0.7" height="0.2"/>
					<path class="st2" d="M5.3,5.7H4.6V5.5h0.7V5.7z M4.6,5.7h0.7V5.5H4.6V5.7z"/>
				</g>
				<g>
					<rect x="4.6" y="5.2" class="st2" width="0.3" height="0.4"/>
					<path class="st2" d="M4.9,5.6H4.6V5.2h0.3V5.6z M4.6,5.6h0.3V5.2H4.6V5.6z"/>
				</g>
				<g>
					<rect x="5" y="5.2" class="st2" width="0.3" height="0.4"/>
					<path class="st2" d="M5.3,5.6H5V5.2h0.3V5.6z M5,5.6h0.3V5.2H5V5.6z"/>
				</g>
				<g>
					<rect x="4.5" y="4.9" class="st2" width="0.3" height="0.4"/>
					<path class="st2" d="M4.8,5.3H4.5V4.9h0.3V5.3z M4.5,5.3h0.2V5H4.5V5.3z"/>
				</g>
				<g>
					<rect x="5.2" y="4.9" class="st2" width="0.3" height="0.4"/>
					<path class="st2" d="M5.4,5.3H5.2V4.9h0.3V5.3z M5.2,5.3h0.3V5H5.2V5.3z"/>
				</g>
			</g>
			<g>
				<rect x="0.9" y="6.3" class="st2" width="0.2" height="0.7"/>
				<path class="st2" d="M1.1,7H0.8V6.3h0.3V7z M0.9,7h0.2V6.4H0.9V7z"/>
			</g>
			<g>
				<rect x="3" y="6.3" class="st2" width="0.2" height="0.7"/>
				<path class="st2" d="M3.3,7H3V6.3h0.3V7z M3,7h0.2V6.4H3V7z"/>
			</g>
			<g>
				<rect x="5.2" y="6.4" class="st2" width="0.2" height="0.7"/>
				<path class="st2" d="M5.4,7H5.2V6.3h0.3V7z M5.2,7h0.2V6.4H5.2V7z"/>
			</g>
			<g>
				<rect x="1.9" y="5.6" class="st2" width="0.2" height="0.5"/>
				<path class="st2" d="M2.2,6.2H1.9V5.6h0.3V6.2z M1.9,6.2h0.2V5.6H1.9V6.2z"/>
			</g>
			<g>
				<rect x="1.7" y="6.2" class="st2" width="0.8" height="0.6"/>
				<path class="st2" d="M2.4,6.8H1.6V6.2h0.8V6.8z M1.7,6.7h0.7V6.2H1.7V6.7z"/>
			</g>
			<g>
				<rect x="1.4" y="6.7" class="st2" width="1.3" height="0.6"/>
				<path class="st2" d="M2.7,7.3H1.4V6.7h1.3V7.3z M1.4,7.3h1.3V6.7H1.4V7.3z"/>
			</g>
			<g>
				<rect x="1.1" y="7.3" class="st2" width="1.9" height="0.6"/>
				<path class="st2" d="M3,7.9H1.1V7.3H3V7.9z M1.1,7.9H3V7.3H1.1V7.9z"/>
			</g>
			<g>
				<rect x="0.9" y="7.9" class="st2" width="1.3" height="0.6"/>
				<path class="st2" d="M2.2,8.5H0.8V7.9h1.3V8.5z M0.9,8.5h1.3V7.9H0.9V8.5z"/>
			</g>
			<g>
				<rect x="1.1" y="8.5" class="st2" width="1.3" height="0.6"/>
				<path class="st2" d="M2.4,9.1H1.1V8.5h1.3V9.1z M1.1,9.1h1.3V8.5H1.1V9.1z"/>
			</g>
			<g>
				<rect x="1.4" y="9.1" class="st2" width="0.8" height="0.5"/>
				<path class="st2" d="M2.2,9.6H1.4V9.1h0.8V9.6z M1.4,9.6h0.8V9.1H1.4V9.6z"/>
			</g>
			<g>
				<rect x="1.6" y="9.6" class="st2" width="0.2" height="0.5"/>
				<path class="st2" d="M1.9,10.2H1.6V9.6h0.3V10.2z M1.7,10.2h0.2V9.6H1.7V10.2z"/>
			</g>
			<g>
				<g>
					<rect x="4.1" y="5.6" class="st2" width="0.2" height="0.5"/>
					<path class="st2" d="M4.4,6.2H4.1V5.6h0.3V6.2z M4.1,6.2h0.2V5.6H4.1V6.2z"/>
				</g>
				<g>
					<rect x="3.8" y="6.2" class="st2" width="0.8" height="0.6"/>
					<path class="st2" d="M4.6,6.8H3.8V6.2h0.8V6.8z M3.9,6.7h0.7V6.2H3.9V6.7z"/>
				</g>
				<g>
					<rect x="3.6" y="6.7" class="st2" width="1.3" height="0.6"/>
					<path class="st2" d="M4.9,7.3H3.6V6.7h1.3V7.3z M3.6,7.3h1.3V6.7H3.6V7.3z"/>
				</g>
				<g>
					<rect x="3.3" y="7.3" class="st2" width="1.9" height="0.6"/>
					<path class="st2" d="M5.2,7.9H3.3V7.3h1.9V7.9z M3.3,7.9h1.8V7.3H3.3V7.9z"/>
				</g>
				<g>
					<rect x="4.1" y="7.9" class="st2" width="1.3" height="0.6"/>
					<path class="st2" d="M5.4,8.5H4.1V7.9h1.3V8.5z M4.1,8.5h1.3V7.9H4.1V8.5z"/>
				</g>
				<g>
					<rect x="3.8" y="8.5" class="st2" width="1.3" height="0.6"/>
					<path class="st2" d="M5.2,9.1H3.8V8.5h1.3V9.1z M3.9,9.1h1.3V8.5H3.9V9.1z"/>
				</g>
				<g>
					<rect x="4.1" y="9.1" class="st2" width="0.8" height="0.5"/>
					<path class="st2" d="M4.9,9.6H4.1V9.1h0.8V9.6z M4.1,9.6h0.8V9.1H4.1V9.6z"/>
				</g>
				<g>
					<rect x="4.4" y="9.6" class="st2" width="0.2" height="0.5"/>
					<path class="st2" d="M4.6,10.2H4.4V9.6h0.3V10.2z M4.4,10.2h0.2V9.6H4.4V10.2z"/>
				</g>
			</g>
			<g>
				<rect x="2.5" y="7.9" class="st2" width="1.3" height="0.3"/>
				<path class="st2" d="M3.8,8.2H2.5V7.9h1.3V8.2z M2.5,8.2h1.3V7.9H2.5V8.2z"/>
			</g>
			<g>
				<rect x="2.8" y="8.2" class="st2" width="0.8" height="1"/>
				<path class="st2" d="M3.5,9.2H2.7v-1h0.8V9.2z M2.8,9.2h0.7V8.2H2.8V9.2z"/>
			</g>
			<g>
				<rect x="2.9" y="9.2" class="st2" width="0.5" height="0.6"/>
				<path class="st2" d="M3.4,9.8H2.9V9.2h0.5V9.8z M2.9,9.8h0.5V9.2H2.9V9.8z"/>
			</g>
			<g>
				<rect x="0.8" y="9.2" class="st2" width="0.3" height="0.4"/>
				<path class="st2" d="M1.1,9.6H0.8V9.2h0.3V9.6z M0.8,9.6h0.3V9.2H0.8V9.6z"/>
			</g>
			<g>
				<rect x="5.2" y="9.2" class="st2" width="0.3" height="0.4"/>
				<path class="st2" d="M5.4,9.6H5.2V9.2h0.3V9.6z M5.2,9.6h0.2V9.2H5.2V9.6z"/>
			</g>
			<g>
				<rect x="0.8" y="9.9" class="st2" width="0.3" height="1"/>
				<path class="st2" d="M1.1,10.9H0.8v-1h0.3V10.9z M0.8,10.9h0.3v-1H0.8V10.9z"/>
			</g>
			<g>
				<rect x="1.1" y="10.3" class="st2" width="0.3" height="1.1"/>
				<path class="st2" d="M1.4,11.4H1.1v-1.1h0.3V11.4z M1.1,11.4h0.2v-1.1H1.1V11.4z"/>
			</g>
			<g>
				<rect x="1.4" y="10.6" class="st2" width="0.3" height="1.1"/>
				<path class="st2" d="M1.7,11.7H1.4v-1.1h0.3V11.7z M1.4,11.7h0.3v-1.1H1.4V11.7z"/>
			</g>
			<g>
				<rect x="1.6" y="11.2" class="st2" width="0.5" height="0.6"/>
				<path class="st2" d="M2.2,11.7H1.6v-0.6h0.5V11.7z M1.7,11.7h0.5v-0.5H1.7V11.7z"/>
			</g>
			<g>
				<rect x="1.9" y="10.6" class="st2" width="0.5" height="0.8"/>
				<path class="st2" d="M2.4,11.4H1.9v-0.8h0.5V11.4z M1.9,11.4h0.5v-0.8H1.9V11.4z"/>
			</g>
			<g>
				<rect x="2.2" y="10.3" class="st2" width="0.6" height="0.6"/>
				<path class="st2" d="M2.8,10.9H2.2v-0.7h0.6V10.9z M2.2,10.9h0.6v-0.6H2.2V10.9z"/>
			</g>
			<g>
				<rect x="2.5" y="9.8" class="st2" width="1.3" height="0.4"/>
				<path class="st2" d="M3.8,10.2H2.5V9.8h1.3V10.2z M2.5,10.2h1.3V9.8H2.5V10.2z"/>
			</g>
			<g>
				<rect x="2.5" y="9.8" class="st2" width="0.5" height="0.6"/>
				<path class="st2" d="M3,10.4H2.5V9.8H3V10.4z M2.5,10.4H3V9.8H2.5V10.4z"/>
			</g>
			<g>
				<rect x="5.2" y="9.9" class="st2" width="0.3" height="1"/>
				<path class="st2" d="M5.5,10.9H5.2v-1h0.3V10.9z M5.2,10.9h0.3v-1H5.2V10.9z"/>
			</g>
			<g>
				<rect x="4.9" y="10.3" class="st2" width="0.3" height="1.1"/>
				<path class="st2" d="M5.2,11.4H4.9v-1.1h0.3V11.4z M4.9,11.4h0.2v-1.1H4.9V11.4z"/>
			</g>
			<g>
				<rect x="4.6" y="10.6" class="st2" width="0.3" height="1.1"/>
				<path class="st2" d="M4.9,11.7H4.6v-1.1h0.3V11.7z M4.6,11.7h0.3v-1.1H4.6V11.7z"/>
			</g>
			<g>
				<rect x="4.1" y="11.2" class="st2" width="0.5" height="0.6"/>
				<path class="st2" d="M4.6,11.7H4.1v-0.6h0.5V11.7z M4.1,11.7h0.5v-0.5H4.1V11.7z"/>
			</g>
			<g>
				<rect x="3.9" y="10.6" class="st2" width="0.5" height="0.8"/>
				<path class="st2" d="M4.4,11.4H3.9v-0.8h0.5V11.4z M3.9,11.4h0.5v-0.8H3.9V11.4z"/>
			</g>
			<g>
				<rect x="3.5" y="10.3" class="st2" width="0.6" height="0.6"/>
				<path class="st2" d="M4.1,10.9H3.5v-0.7h0.6V10.9z M3.5,10.9h0.6v-0.6H3.5V10.9z"/>
			</g>
			<g>
				<rect x="3.3" y="9.8" class="st2" width="0.5" height="0.6"/>
				<path class="st2" d="M3.8,10.4H3.3V9.8h0.5V10.4z M3.3,10.4h0.5V9.8H3.3V10.4z"/>
			</g>
			<g>
				<rect x="0.8" y="11.7" class="st2" width="0.3" height="0.7"/>
				<path class="st2" d="M1.1,12.4H0.8v-0.7h0.3V12.4z M0.8,12.4h0.2v-0.6H0.8V12.4z"/>
			</g>
			<g>
				<rect x="1.6" y="11.7" class="st2" width="0.3" height="0.6"/>
				<path class="st2" d="M1.9,12.3H1.6v-0.6h0.3V12.3z M1.7,12.3h0.3v-0.6H1.7V12.3z"/>
			</g>
			<g>
				<rect x="4.4" y="11.7" class="st2" width="0.3" height="0.6"/>
				<path class="st2" d="M4.6,12.3H4.3v-0.6h0.3V12.3z M4.4,12.3h0.2v-0.6H4.4V12.3z"/>
			</g>
			<g>
				<rect x="5.2" y="11.7" class="st2" width="0.3" height="0.7"/>
				<path class="st2" d="M5.5,12.4H5.2v-0.7h0.3V12.4z M5.2,12.4h0.2v-0.6H5.2V12.4z"/>
			</g>
			<g>
				<rect x="1.9" y="24" class="st2" width="0.2" height="0.5"/>
				<path class="st2" d="M2.2,24.5H1.9V24h0.3V24.5z M1.9,24.5h0.2V24H1.9V24.5z"/>
			</g>
			<g>
				<rect x="1.7" y="23.4" class="st2" width="0.7" height="0.5"/>
				<path class="st2" d="M2.4,24H1.7v-0.6h0.8V24z M1.7,24h0.7v-0.5H1.7V24z"/>
			</g>
			<g>
				<rect x="1.4" y="22.8" class="st2" width="0.5" height="0.6"/>
				<path class="st2" d="M1.9,23.4H1.4v-0.6h0.5V23.4z M1.4,23.4h0.5v-0.6H1.4V23.4z"/>
			</g>
			<g>
				<rect x="1.1" y="22.2" class="st2" width="0.5" height="0.6"/>
				<path class="st2" d="M1.7,22.8H1.1v-0.6h0.5V22.8z M1.1,22.8h0.5v-0.6H1.1V22.8z"/>
			</g>
			<g>
				<rect x="0.8" y="21.6" class="st2" width="0.5" height="0.6"/>
				<path class="st2" d="M1.4,22.2H0.8v-0.6h0.5V22.2z M0.8,22.2h0.5v-0.6H0.8V22.2z"/>
			</g>
			<g>
				<rect x="2.2" y="22.8" class="st2" width="0.5" height="0.6"/>
				<path class="st2" d="M2.7,23.4H2.2v-0.6h0.5V23.4z M2.2,23.4h0.5v-0.6H2.2V23.4z"/>
			</g>
			<g>
				<rect x="2.5" y="22.2" class="st2" width="0.5" height="0.6"/>
				<path class="st2" d="M3,22.8H2.5v-0.6H3V22.8z M2.5,22.8H3v-0.6H2.5V22.8z"/>
			</g>
			<g>
				<rect x="2.8" y="21.6" class="st2" width="0.7" height="0.6"/>
				<path class="st2" d="M3.5,22.2H2.7v-0.6h0.8V22.2z M2.8,22.2h0.7v-0.6H2.8V22.2z"/>
			</g>
			<g>
				<rect x="1.7" y="19.9" class="st2" width="0.8" height="0.6"/>
				<path class="st2" d="M2.4,20.5H1.6v-0.6h0.8V20.5z M1.7,20.4h0.7v-0.6H1.7V20.4z"/>
			</g>
			<g>
				<rect x="1.4" y="20.5" class="st2" width="0.5" height="0.6"/>
				<path class="st2" d="M1.9,21.1H1.4v-0.6h0.5V21.1z M1.4,21h0.5v-0.6H1.4V21z"/>
			</g>
			<g>
				<rect x="1.1" y="21" class="st2" width="0.5" height="0.6"/>
				<path class="st2" d="M1.6,21.7H1.1V21h0.5V21.7z M1.1,21.6h0.5v-0.6H1.1V21.6z"/>
			</g>
			<g>
				<rect x="2.2" y="20.5" class="st2" width="0.5" height="0.6"/>
				<path class="st2" d="M2.7,21.1H2.2v-0.6h0.5V21.1z M2.2,21h0.5v-0.6H2.2V21z"/>
			</g>
			<g>
				<rect x="2.5" y="21" class="st2" width="0.5" height="0.6"/>
				<path class="st2" d="M3,21.7H2.5V21H3V21.7z M2.5,21.6H3v-0.6H2.5V21.6z"/>
			</g>
			<g>
				<rect x="1.9" y="19.3" class="st2" width="0.2" height="0.5"/>
				<path class="st2" d="M2.2,19.9H1.9v-0.6h0.3V19.9z M1.9,19.8h0.2v-0.5H1.9V19.8z"/>
			</g>
			<g>
				<rect x="0.9" y="23.4" class="st2" width="0.2" height="0.7"/>
				<path class="st2" d="M1.1,24.1H0.8v-0.7h0.3V24.1z M0.9,24h0.2v-0.6H0.9V24z"/>
			</g>
			<g>
				<rect x="3" y="23.4" class="st2" width="0.2" height="0.7"/>
				<path class="st2" d="M3.3,24.1H3v-0.7h0.3V24.1z M3,24.1h0.2v-0.6H3V24.1z"/>
			</g>
			<g>
				<rect x="0.9" y="20" class="st2" width="0.2" height="0.7"/>
				<path class="st2" d="M1.1,20.7H0.8V20h0.3V20.7z M0.9,20.7h0.2V20H0.9V20.7z"/>
			</g>
			<g>
				<rect x="3" y="20" class="st2" width="0.2" height="0.7"/>
				<path class="st2" d="M3.3,20.7H3V20h0.3V20.7z M3,20.7h0.2V20H3V20.7z"/>
			</g>
			<g>
				<rect x="1.9" y="21.7" class="st2" width="0.2" height="0.5"/>
				<path class="st2" d="M2.2,22.2H1.9v-0.6h0.3V22.2z M1.9,22.2h0.2v-0.5H1.9V22.2z"/>
			</g>
			<g>
				<rect x="4.1" y="24" class="st2" width="0.2" height="0.5"/>
				<path class="st2" d="M4.3,24.5H4.1V24h0.3V24.5z M4.1,24.5h0.2V24H4.1V24.5z"/>
			</g>
			<g>
				<rect x="3.8" y="23.4" class="st2" width="0.7" height="0.5"/>
				<path class="st2" d="M4.6,24H3.8v-0.6h0.8V24z M3.9,24h0.7v-0.5H3.9V24z"/>
			</g>
			<g>
				<rect x="4.4" y="22.8" class="st2" width="0.5" height="0.6"/>
				<path class="st2" d="M4.9,23.4H4.4v-0.6h0.5V23.4z M4.4,23.4h0.5v-0.6H4.4V23.4z"/>
			</g>
			<g>
				<rect x="4.6" y="22.2" class="st2" width="0.5" height="0.6"/>
				<path class="st2" d="M5.2,22.8H4.6v-0.6h0.5V22.8z M4.7,22.8h0.5v-0.6H4.7V22.8z"/>
			</g>
			<g>
				<rect x="4.9" y="21.6" class="st2" width="0.5" height="0.6"/>
				<path class="st2" d="M5.5,22.2H4.9v-0.6h0.5V22.2z M4.9,22.2h0.5v-0.6H4.9V22.2z"/>
			</g>
			<g>
				<rect x="3.8" y="19.8" class="st2" width="0.8" height="0.6"/>
				<path class="st2" d="M4.6,20.4H3.8v-0.6h0.8V20.4z M3.8,20.4h0.7v-0.6H3.8V20.4z"/>
			</g>
			<g>
				<rect x="4.4" y="20.5" class="st2" width="0.5" height="0.6"/>
				<path class="st2" d="M4.9,21.1H4.4v-0.6h0.5V21.1z M4.4,21h0.5v-0.6H4.4V21z"/>
			</g>
			<g>
				<rect x="4.6" y="21" class="st2" width="0.5" height="0.6"/>
				<path class="st2" d="M5.2,21.6H4.6V21h0.5V21.6z M4.7,21.6h0.5V21H4.7V21.6z"/>
			</g>
			<g>
				<rect x="4.1" y="19.3" class="st2" width="0.2" height="0.5"/>
				<path class="st2" d="M4.3,19.9H4.1v-0.6h0.3V19.9z M4.1,19.8h0.2v-0.5H4.1V19.8z"/>
			</g>
			<g>
				<rect x="5.2" y="23.4" class="st2" width="0.2" height="0.7"/>
				<path class="st2" d="M5.4,24.1H5.2v-0.7h0.3V24.1z M5.2,24.1h0.2v-0.6H5.2V24.1z"/>
			</g>
			<g>
				<rect x="5.2" y="20" class="st2" width="0.2" height="0.7"/>
				<path class="st2" d="M5.4,20.7H5.2V20h0.3V20.7z M5.2,20.7h0.2V20H5.2V20.7z"/>
			</g>
			<g>
				<rect x="3.6" y="22.8" class="st2" width="0.5" height="0.6"/>
				<path class="st2" d="M4.1,23.4H3.6v-0.6h0.5V23.4z M3.6,23.4h0.5v-0.6H3.6V23.4z"/>
			</g>
			<g>
				<rect x="3.3" y="22.2" class="st2" width="0.5" height="0.6"/>
				<path class="st2" d="M3.8,22.8H3.3v-0.6h0.5V22.8z M3.3,22.8h0.5v-0.6H3.3V22.8z"/>
			</g>
			<g>
				<rect x="3.6" y="20.4" class="st2" width="0.5" height="0.6"/>
				<path class="st2" d="M4.1,21.1H3.6v-0.6h0.5V21.1z M3.6,21h0.5v-0.6H3.6V21z"/>
			</g>
			<g>
				<rect x="3.3" y="21" class="st2" width="0.5" height="0.6"/>
				<path class="st2" d="M3.8,21.6H3.3V21h0.5V21.6z M3.3,21.6h0.5v-0.6H3.3V21.6z"/>
			</g>
			<g>
				<rect x="4.1" y="21.7" class="st2" width="0.2" height="0.5"/>
				<path class="st2" d="M4.3,22.2H4.1v-0.6h0.3V22.2z M4.1,22.2h0.2v-0.5H4.1V22.2z"/>
			</g>
			<g>
				<g>
					<rect x="1.1" y="19.4" class="st2" width="0.4" height="0.4"/>
					<path class="st2" d="M1.5,19.8H1.1v-0.4h0.4V19.8z M1.1,19.8h0.4v-0.3H1.1V19.8z"/>
				</g>
				<g>
					<rect x="1" y="19.2" class="st2" width="0.7" height="0.2"/>
					<path class="st2" d="M1.7,19.4H0.9v-0.2h0.7V19.4z M1,19.4h0.7v-0.2H1V19.4z"/>
				</g>
				<g>
					<rect x="1" y="19" class="st2" width="0.3" height="0.4"/>
					<path class="st2" d="M1.2,19.3H0.9V19h0.3V19.3z M1,19.3h0.3V19H1V19.3z"/>
				</g>
				<g>
					<rect x="1.4" y="19" class="st2" width="0.3" height="0.4"/>
					<path class="st2" d="M1.7,19.3H1.4V19h0.3V19.3z M1.4,19.3h0.3V19H1.4V19.3z"/>
				</g>
				<g>
					<rect x="1.1" y="17.9" class="st2" width="0.4" height="0.4"/>
					<path class="st2" d="M1.5,18.3H1.1v-0.4h0.4V18.3z M1.1,18.3h0.4v-0.3H1.1V18.3z"/>
				</g>
				<g>
					<rect x="1" y="18.3" class="st2" width="0.7" height="0.2"/>
					<path class="st2" d="M1.7,18.5H0.9v-0.2h0.7V18.5z M1,18.5h0.7v-0.2H1V18.5z"/>
				</g>
				<g>
					<rect x="1" y="18.4" class="st2" width="0.3" height="0.4"/>
					<path class="st2" d="M1.2,18.8H0.9v-0.4h0.3V18.8z M1,18.7h0.3v-0.3H1V18.7z"/>
				</g>
				<g>
					<rect x="1.4" y="18.4" class="st2" width="0.3" height="0.4"/>
					<path class="st2" d="M1.7,18.8H1.4v-0.4h0.3V18.8z M1.4,18.7h0.3v-0.3H1.4V18.7z"/>
				</g>
				<g>
					<rect x="0.8" y="18.7" class="st2" width="0.3" height="0.4"/>
					<path class="st2" d="M1.1,19.1H0.8v-0.4h0.3V19.1z M0.8,19h0.2v-0.3H0.8V19z"/>
				</g>
				<g>
					<rect x="1.5" y="18.7" class="st2" width="0.3" height="0.4"/>
					<path class="st2" d="M1.8,19.1H1.5v-0.4h0.3V19.1z M1.5,19h0.3v-0.3H1.5V19z"/>
				</g>
			</g>
			<g>
				<rect x="2.6" y="19.4" class="st2" width="0.4" height="0.4"/>
				<path class="st2" d="M3,19.8H2.6v-0.4H3V19.8z M2.6,19.8H3v-0.3H2.6V19.8z"/>
			</g>
			<g>
				<rect x="2.5" y="19.2" class="st2" width="0.7" height="0.2"/>
				<path class="st2" d="M3.2,19.4H2.5v-0.2h0.7V19.4z M2.5,19.4h0.7v-0.2H2.5V19.4z"/>
			</g>
			<g>
				<rect x="2.5" y="19" class="st2" width="0.3" height="0.4"/>
				<path class="st2" d="M2.8,19.3H2.5V19h0.3V19.3z M2.5,19.3h0.3V19H2.5V19.3z"/>
			</g>
			<g>
				<rect x="2.9" y="19" class="st2" width="0.3" height="0.4"/>
				<path class="st2" d="M3.2,19.3H2.9V19h0.3V19.3z M2.9,19.3h0.3V19H2.9V19.3z"/>
			</g>
			<g>
				<rect x="2.6" y="17.9" class="st2" width="0.4" height="0.4"/>
				<path class="st2" d="M3,18.3H2.6v-0.4H3V18.3z M2.6,18.3H3v-0.3H2.6V18.3z"/>
			</g>
			<g>
				<rect x="2.5" y="18.3" class="st2" width="0.7" height="0.2"/>
				<path class="st2" d="M3.2,18.5H2.5v-0.2h0.7V18.5z M2.5,18.5h0.7v-0.2H2.5V18.5z"/>
			</g>
			<g>
				<rect x="2.5" y="18.4" class="st2" width="0.3" height="0.4"/>
				<path class="st2" d="M2.8,18.8H2.5v-0.4h0.3V18.8z M2.5,18.8h0.3v-0.3H2.5V18.8z"/>
			</g>
			<g>
				<rect x="2.9" y="18.4" class="st2" width="0.3" height="0.4"/>
				<path class="st2" d="M3.2,18.8H2.9v-0.4h0.3V18.8z M2.9,18.8h0.3v-0.3H2.9V18.8z"/>
			</g>
			<g>
				<rect x="2.3" y="18.7" class="st2" width="0.3" height="0.4"/>
				<path class="st2" d="M2.6,19.1H2.3v-0.4h0.3V19.1z M2.4,19h0.2v-0.3H2.4V19z"/>
			</g>
			<g>
				<rect x="3" y="18.7" class="st2" width="0.2" height="0.4"/>
				<path class="st2" d="M3.2,19.1H3v-0.4h0.2V19.1z M3,19h0.2v-0.3H3V19z"/>
			</g>
			<g>
				<rect x="3.2" y="19.4" class="st2" width="0.4" height="0.4"/>
				<path class="st2" d="M3.7,19.8H3.2v-0.4h0.4V19.8z M3.2,19.8h0.4v-0.3H3.2V19.8z"/>
			</g>
			<g>
				<rect x="3.1" y="19.2" class="st2" width="0.7" height="0.2"/>
				<path class="st2" d="M3.8,19.5H3.1v-0.2h0.7V19.5z M3.1,19.4h0.7v-0.2H3.1V19.4z"/>
			</g>
			<g>
				<rect x="3.1" y="19" class="st2" width="0.3" height="0.4"/>
				<path class="st2" d="M3.4,19.3H3.1V19h0.3V19.3z M3.1,19.3h0.3V19H3.1V19.3z"/>
			</g>
			<g>
				<rect x="3.5" y="19" class="st2" width="0.3" height="0.4"/>
				<path class="st2" d="M3.8,19.3H3.5V19h0.3V19.3z M3.5,19.3h0.3V19H3.5V19.3z"/>
			</g>
			<g>
				<rect x="3.2" y="17.9" class="st2" width="0.4" height="0.4"/>
				<path class="st2" d="M3.7,18.3H3.2v-0.4h0.4V18.3z M3.2,18.3h0.4V18H3.2V18.3z"/>
			</g>
			<g>
				<rect x="3.1" y="18.3" class="st2" width="0.7" height="0.2"/>
				<path class="st2" d="M3.8,18.5H3.1v-0.2h0.7V18.5z M3.1,18.5h0.7v-0.2H3.1V18.5z"/>
			</g>
			<g>
				<rect x="3.1" y="18.4" class="st2" width="0.3" height="0.4"/>
				<path class="st2" d="M3.4,18.8H3.1v-0.4h0.3V18.8z M3.1,18.8h0.3v-0.3H3.1V18.8z"/>
			</g>
			<g>
				<rect x="3.5" y="18.4" class="st2" width="0.3" height="0.4"/>
				<path class="st2" d="M3.8,18.8H3.5v-0.4h0.3V18.8z M3.5,18.8h0.3v-0.3H3.5V18.8z"/>
			</g>
			<g>
				<rect x="3" y="18.7" class="st2" width="0.2" height="0.4"/>
				<path class="st2" d="M3.2,19.1H3v-0.4h0.2V19.1z M3,19.1h0.2v-0.3H3V19.1z"/>
			</g>
			<g>
				<rect x="3.7" y="18.7" class="st2" width="0.3" height="0.4"/>
				<path class="st2" d="M3.9,19.1H3.6v-0.4h0.3V19.1z M3.7,19.1h0.3v-0.3H3.7V19.1z"/>
			</g>
			<g>
				<g>
					<rect x="4.7" y="19.4" class="st2" width="0.4" height="0.4"/>
					<path class="st2" d="M5.2,19.8H4.7v-0.4h0.4V19.8z M4.8,19.8h0.4v-0.3H4.8V19.8z"/>
				</g>
				<g>
					<rect x="4.6" y="19.2" class="st2" width="0.7" height="0.2"/>
					<path class="st2" d="M5.3,19.4H4.6v-0.2h0.7V19.4z M4.6,19.4h0.7v-0.2H4.6V19.4z"/>
				</g>
				<g>
					<rect x="4.6" y="19" class="st2" width="0.3" height="0.4"/>
					<path class="st2" d="M4.9,19.3H4.6V19h0.3V19.3z M4.6,19.3h0.3V19H4.6V19.3z"/>
				</g>
				<g>
					<rect x="5" y="19" class="st2" width="0.3" height="0.4"/>
					<path class="st2" d="M5.3,19.3H5V19h0.3V19.3z M5,19.3h0.3V19H5V19.3z"/>
				</g>
				<g>
					<rect x="4.7" y="17.9" class="st2" width="0.4" height="0.4"/>
					<path class="st2" d="M5.2,18.3H4.7v-0.4h0.4V18.3z M4.8,18.3h0.4v-0.3H4.8V18.3z"/>
				</g>
				<g>
					<rect x="4.6" y="18.3" class="st2" width="0.7" height="0.2"/>
					<path class="st2" d="M5.3,18.5H4.6v-0.2h0.7V18.5z M4.6,18.5h0.7v-0.2H4.6V18.5z"/>
				</g>
				<g>
					<rect x="4.6" y="18.4" class="st2" width="0.3" height="0.4"/>
					<path class="st2" d="M4.9,18.8H4.6v-0.4h0.3V18.8z M4.6,18.8h0.3v-0.3H4.6V18.8z"/>
				</g>
				<g>
					<rect x="5" y="18.4" class="st2" width="0.3" height="0.4"/>
					<path class="st2" d="M5.3,18.8H5v-0.4h0.3V18.8z M5,18.8h0.3v-0.3H5V18.8z"/>
				</g>
				<g>
					<rect x="4.5" y="18.7" class="st2" width="0.3" height="0.4"/>
					<path class="st2" d="M4.8,19.1H4.5v-0.4h0.3V19.1z M4.5,19h0.2v-0.3H4.5V19z"/>
				</g>
				<g>
					<rect x="5.2" y="18.7" class="st2" width="0.3" height="0.4"/>
					<path class="st2" d="M5.4,19.1H5.2v-0.4h0.3V19.1z M5.2,19h0.3v-0.3H5.2V19z"/>
				</g>
			</g>
			<g>
				<rect x="0.9" y="17" class="st2" width="0.2" height="0.7"/>
				<path class="st2" d="M1.1,17.7H0.8V17h0.3V17.7z M0.9,17.6h0.2V17H0.9V17.6z"/>
			</g>
			<g>
				<rect x="3" y="17" class="st2" width="0.2" height="0.7"/>
				<path class="st2" d="M3.3,17.7H3V17h0.3V17.7z M3,17.6h0.2V17H3V17.6z"/>
			</g>
			<g>
				<rect x="5.2" y="17" class="st2" width="0.2" height="0.7"/>
				<path class="st2" d="M5.4,17.7H5.2V17h0.3V17.7z M5.2,17.6h0.2V17H5.2V17.6z"/>
			</g>
			<g>
				<rect x="1.9" y="17.8" class="st2" width="0.2" height="0.5"/>
				<path class="st2" d="M2.2,18.4H1.9v-0.6h0.3V18.4z M1.9,18.4h0.2v-0.5H1.9V18.4z"/>
			</g>
			<g>
				<rect x="1.7" y="17.2" class="st2" width="0.8" height="0.6"/>
				<path class="st2" d="M2.4,17.8H1.6v-0.6h0.8V17.8z M1.7,17.8h0.7v-0.6H1.7V17.8z"/>
			</g>
			<g>
				<rect x="1.4" y="16.7" class="st2" width="1.3" height="0.6"/>
				<path class="st2" d="M2.7,17.3H1.4v-0.6h1.3V17.3z M1.4,17.3h1.3v-0.6H1.4V17.3z"/>
			</g>
			<g>
				<rect x="1.1" y="16.1" class="st2" width="1.9" height="0.6"/>
				<path class="st2" d="M3,16.7H1.1v-0.6H3V16.7z M1.1,16.7H3v-0.6H1.1V16.7z"/>
			</g>
			<g>
				<rect x="0.9" y="15.5" class="st2" width="1.3" height="0.6"/>
				<path class="st2" d="M2.2,16.1H0.8v-0.6h1.3V16.1z M0.9,16.1h1.3v-0.6H0.9V16.1z"/>
			</g>
			<g>
				<rect x="1.1" y="14.9" class="st2" width="1.3" height="0.6"/>
				<path class="st2" d="M2.4,15.5H1.1v-0.6h1.3V15.5z M1.1,15.5h1.3v-0.6H1.1V15.5z"/>
			</g>
			<g>
				<rect x="1.4" y="14.4" class="st2" width="0.8" height="0.5"/>
				<path class="st2" d="M2.2,14.9H1.4v-0.6h0.8V14.9z M1.4,14.9h0.8v-0.5H1.4V14.9z"/>
			</g>
			<g>
				<rect x="1.6" y="13.8" class="st2" width="0.2" height="0.5"/>
				<path class="st2" d="M1.9,14.4H1.6v-0.6h0.3V14.4z M1.7,14.4h0.2v-0.5H1.7V14.4z"/>
			</g>
			<g>
				<g>
					<rect x="4.1" y="17.8" class="st2" width="0.2" height="0.5"/>
					<path class="st2" d="M4.4,18.4H4.1v-0.6h0.3V18.4z M4.1,18.4h0.2v-0.5H4.1V18.4z"/>
				</g>
				<g>
					<rect x="3.8" y="17.2" class="st2" width="0.8" height="0.6"/>
					<path class="st2" d="M4.6,17.8H3.8v-0.6h0.8V17.8z M3.9,17.8h0.7v-0.6H3.9V17.8z"/>
				</g>
				<g>
					<rect x="3.6" y="16.7" class="st2" width="1.3" height="0.6"/>
					<path class="st2" d="M4.9,17.3H3.6v-0.6h1.3V17.3z M3.6,17.3h1.3v-0.6H3.6V17.3z"/>
				</g>
				<g>
					<rect x="3.3" y="16.1" class="st2" width="1.9" height="0.6"/>
					<path class="st2" d="M5.2,16.7H3.3v-0.6h1.9V16.7z M3.3,16.7h1.8v-0.6H3.3V16.7z"/>
				</g>
				<g>
					<rect x="4.1" y="15.5" class="st2" width="1.3" height="0.6"/>
					<path class="st2" d="M5.4,16.1H4.1v-0.6h1.3V16.1z M4.1,16.1h1.3v-0.6H4.1V16.1z"/>
				</g>
				<g>
					<rect x="3.8" y="14.9" class="st2" width="1.3" height="0.6"/>
					<path class="st2" d="M5.2,15.5H3.8v-0.6h1.3V15.5z M3.9,15.5h1.3v-0.6H3.9V15.5z"/>
				</g>
				<g>
					<rect x="4.1" y="14.4" class="st2" width="0.8" height="0.5"/>
					<path class="st2" d="M4.9,14.9H4.1v-0.6h0.8V14.9z M4.1,14.9h0.8v-0.5H4.1V14.9z"/>
				</g>
				<g>
					<rect x="4.4" y="13.8" class="st2" width="0.2" height="0.5"/>
					<path class="st2" d="M4.6,14.4H4.4v-0.6h0.3V14.4z M4.4,14.4h0.2v-0.5H4.4V14.4z"/>
				</g>
			</g>
			<g>
				<rect x="2.5" y="15.8" class="st2" width="1.3" height="0.3"/>
				<path class="st2" d="M3.8,16.1H2.5v-0.4h1.3V16.1z M2.5,16.1h1.3v-0.3H2.5V16.1z"/>
			</g>
			<g>
				<rect x="2.8" y="14.8" class="st2" width="0.8" height="1"/>
				<path class="st2" d="M3.5,15.8H2.7v-1h0.8V15.8z M2.8,15.8h0.7v-0.9H2.8V15.8z"/>
			</g>
			<g>
				<rect x="2.9" y="14.2" class="st2" width="0.5" height="0.6"/>
				<path class="st2" d="M3.4,14.8H2.9v-0.6h0.5V14.8z M2.9,14.8h0.5v-0.6H2.9V14.8z"/>
			</g>
			<g>
				<rect x="0.8" y="14.4" class="st2" width="0.3" height="0.4"/>
				<path class="st2" d="M1.1,14.8H0.8v-0.4h0.3V14.8z M0.8,14.8h0.3v-0.4H0.8V14.8z"/>
			</g>
			<g>
				<rect x="5.2" y="14.4" class="st2" width="0.3" height="0.4"/>
				<path class="st2" d="M5.4,14.8H5.2v-0.4h0.3V14.8z M5.2,14.8h0.2v-0.4H5.2V14.8z"/>
			</g>
			<g>
				<rect x="0.8" y="13.1" class="st2" width="0.3" height="1"/>
				<path class="st2" d="M1.1,14.1H0.8v-1h0.3V14.1z M0.8,14.1h0.3v-1H0.8V14.1z"/>
			</g>
			<g>
				<rect x="1.1" y="12.6" class="st2" width="0.3" height="1.1"/>
				<path class="st2" d="M1.4,13.8H1.1v-1.1h0.3V13.8z M1.1,13.7h0.2v-1.1H1.1V13.7z"/>
			</g>
			<g>
				<rect x="1.4" y="12.3" class="st2" width="0.3" height="1.1"/>
				<path class="st2" d="M1.7,13.4H1.4v-1.1h0.3V13.4z M1.4,13.4h0.3v-1.1H1.4V13.4z"/>
			</g>
			<g>
				<rect x="1.6" y="12.3" class="st2" width="0.5" height="0.6"/>
				<path class="st2" d="M2.2,12.9H1.6v-0.6h0.5V12.9z M1.7,12.8h0.5v-0.5H1.7V12.8z"/>
			</g>
			<g>
				<rect x="1.9" y="12.6" class="st2" width="0.5" height="0.8"/>
				<path class="st2" d="M2.4,13.4H1.9v-0.8h0.5V13.4z M1.9,13.4h0.5v-0.8H1.9V13.4z"/>
			</g>
			<g>
				<rect x="2.2" y="13.1" class="st2" width="0.6" height="0.6"/>
				<path class="st2" d="M2.8,13.8H2.2v-0.7h0.6V13.8z M2.2,13.7h0.6v-0.6H2.2V13.7z"/>
			</g>
			<g>
				<rect x="2.5" y="13.8" class="st2" width="1.3" height="0.4"/>
				<path class="st2" d="M3.8,14.2H2.5v-0.4h1.3V14.2z M2.5,14.2h1.3v-0.3H2.5V14.2z"/>
			</g>
			<g>
				<rect x="2.5" y="13.6" class="st2" width="0.5" height="0.6"/>
				<path class="st2" d="M3,14.2H2.5v-0.6H3V14.2z M2.5,14.2H3v-0.6H2.5V14.2z"/>
			</g>
			<g>
				<rect x="5.2" y="13.1" class="st2" width="0.3" height="1"/>
				<path class="st2" d="M5.5,14.1H5.2v-1h0.3V14.1z M5.2,14.1h0.3v-1H5.2V14.1z"/>
			</g>
			<g>
				<rect x="4.9" y="12.6" class="st2" width="0.3" height="1.1"/>
				<path class="st2" d="M5.2,13.8H4.9v-1.1h0.3V13.8z M4.9,13.7h0.2v-1.1H4.9V13.7z"/>
			</g>
			<g>
				<rect x="4.6" y="12.3" class="st2" width="0.3" height="1.1"/>
				<path class="st2" d="M4.9,13.4H4.6v-1.1h0.3V13.4z M4.6,13.4h0.3v-1.1H4.6V13.4z"/>
			</g>
			<g>
				<rect x="4.1" y="12.3" class="st2" width="0.5" height="0.6"/>
				<path class="st2" d="M4.6,12.9H4.1v-0.6h0.5V12.9z M4.1,12.8h0.5v-0.5H4.1V12.8z"/>
			</g>
			<g>
				<rect x="3.9" y="12.6" class="st2" width="0.5" height="0.8"/>
				<path class="st2" d="M4.4,13.4H3.9v-0.8h0.5V13.4z M3.9,13.4h0.5v-0.8H3.9V13.4z"/>
			</g>
			<g>
				<rect x="3.5" y="13.1" class="st2" width="0.6" height="0.6"/>
				<path class="st2" d="M4.1,13.8H3.5v-0.7h0.6V13.8z M3.5,13.7h0.6v-0.6H3.5V13.7z"/>
			</g>
			<g>
				<rect x="3.3" y="13.6" class="st2" width="0.5" height="0.6"/>
				<path class="st2" d="M3.8,14.2H3.3v-0.6h0.5V14.2z M3.3,14.2h0.5v-0.6H3.3V14.2z"/>
			</g>
			<g>
				<rect x="2.9" y="11.7" class="st2" width="0.5" height="0.6"/>
				<path class="st2" d="M3.4,12.3H2.9v-0.6h0.5V12.3z M2.9,12.3h0.5v-0.6H2.9V12.3z"/>
			</g>
			<g>
				<rect x="2.6" y="11.3" class="st2" width="0.2" height="0.3"/>
				<path class="st2" d="M2.8,11.6H2.6v-0.3h0.2V11.6z M2.6,11.6h0.2v-0.3H2.6V11.6z"/>
			</g>
			<g>
				<rect x="2.8" y="11.5" class="st2" width="0.2" height="0.3"/>
				<path class="st2" d="M3,11.8H2.7v-0.3H3V11.8z M2.8,11.8H3v-0.3H2.8V11.8z"/>
			</g>
			<g>
				<rect x="2.3" y="11.7" class="st2" width="0.2" height="0.6"/>
				<path class="st2" d="M2.6,12.3H2.3v-0.6h0.2V12.3z M2.4,12.3h0.2v-0.6H2.4V12.3z"/>
			</g>
			<g>
				<rect x="3" y="10.8" class="st2" width="0.2" height="0.6"/>
				<path class="st2" d="M3.2,11.4H3v-0.6h0.2V11.4z M3,11.4h0.2v-0.6H3V11.4z"/>
			</g>
			<g>
				<rect x="3" y="12.7" class="st2" width="0.2" height="0.6"/>
				<path class="st2" d="M3.2,13.3H3v-0.6h0.2V13.3z M3,13.3h0.2v-0.6H3V13.3z"/>
			</g>
			<g>
				<rect x="3.7" y="11.7" class="st2" width="0.2" height="0.6"/>
				<path class="st2" d="M3.9,12.3H3.7v-0.6h0.2V12.3z M3.7,12.3h0.2v-0.6H3.7V12.3z"/>
			</g>
			<g>
				<rect x="2.6" y="12.4" class="st2" width="0.2" height="0.3"/>
				<path class="st2" d="M2.8,12.7H2.6v-0.3h0.2V12.7z M2.6,12.7h0.2v-0.3H2.6V12.7z"/>
			</g>
			<g>
				<rect x="2.8" y="12.2" class="st2" width="0.2" height="0.3"/>
				<path class="st2" d="M3,12.5H2.7v-0.3H3V12.5z M2.8,12.5H3v-0.3H2.8V12.5z"/>
			</g>
			<g>
				<rect x="3.4" y="11.3" class="st2" width="0.2" height="0.3"/>
				<path class="st2" d="M3.7,11.6H3.4v-0.3h0.2V11.6z M3.4,11.6h0.2v-0.3H3.4V11.6z"/>
			</g>
			<g>
				<rect x="3.3" y="11.5" class="st2" width="0.2" height="0.3"/>
				<path class="st2" d="M3.5,11.8H3.3v-0.3h0.2V11.8z M3.3,11.8h0.2v-0.3H3.3V11.8z"/>
			</g>
			<g>
				<rect x="3.4" y="12.4" class="st2" width="0.2" height="0.3"/>
				<path class="st2" d="M3.7,12.7H3.4v-0.3h0.2V12.7z M3.4,12.7h0.2v-0.3H3.4V12.7z"/>
			</g>
			<g>
				<rect x="3.3" y="12.2" class="st2" width="0.2" height="0.3"/>
				<path class="st2" d="M3.5,12.5H3.3v-0.3h0.2V12.5z M3.3,12.5h0.2v-0.3H3.3V12.5z"/>
			</g>
		</g>
	</g>
</g>
<g>
</g>
</svg>
