<?xml version="1.0" encoding="utf-8"?>
<!-- Generator: Adobe Illustrator 23.0.1, SVG Export Plug-In . SVG Version: 6.00 Build 0)  -->
<svg version="1.1" id="Слой_1" xmlns="http://www.w3.org/2000/svg" xmlns:xlink="http://www.w3.org/1999/xlink" x="0px" y="0px"
	 viewBox="0 0 24 24" style="enable-background:new 0 0 24 24;" xml:space="preserve">
<style type="text/css">
	.st0{clip-path:url(#SVGID_2_);fill:#008B39;}
	.st1{clip-path:url(#SVGID_2_);}
	.st2{fill:#008B39;}
	.st3{fill:#F8C400;}
	.st4{fill:#2F2566;}
	.st5{fill:#FAFBFB;}
	.st6{fill:#EAE7F1;}
	.st7{fill:#249040;}
</style>
<title>Таиланд Copy</title>
<desc>Created with Sketch.</desc>
<g>
	<defs>
		<circle id="SVGID_1_" cx="12" cy="12" r="12"/>
	</defs>
	<clipPath id="SVGID_2_">
		<use xlink:href="#SVGID_1_"  style="overflow:visible;"/>
	</clipPath>
	<rect x="-10" y="-5.9" class="st0" width="44" height="35.8"/>
	<g class="st1">
		<path id="XMLID_377_" class="st2" d="M25.6,21.1c-9.1,0-18.1,0-27.2,0c0-6,0-12.1,0-18.1c9.1,0,18.1,0,27.2,0
			C25.6,9,25.6,15,25.6,21.1z M1.3,12C1.3,12,1.3,12,1.3,12c0.8,0.5,1.5,1,2.2,1.4c0.9,0.6,1.9,1.2,2.8,1.8c0.7,0.5,1.5,0.9,2.2,1.4
			c0.8,0.5,1.6,1,2.4,1.5c0.3,0.2,0.7,0.4,1,0.7c0.1,0,0.1,0,0.1,0c0,0,0,0,0,0c0.5-0.3,1-0.6,1.4-0.9c1-0.7,2.1-1.3,3.1-2
			c0.8-0.5,1.6-1,2.4-1.5c1.2-0.8,2.4-1.5,3.6-2.3c0,0,0.1,0,0.1-0.1c0,0,0,0-0.1-0.1c-0.5-0.3-1-0.6-1.5-0.9
			c-1.2-0.8-2.4-1.5-3.6-2.3c-0.8-0.5-1.7-1.1-2.5-1.6c-1-0.6-2-1.3-3-1.9c-0.1,0-0.1,0-0.1,0c-0.5,0.3-1,0.6-1.4,0.9
			C9.7,6.6,8.9,7.2,8,7.7C6.9,8.4,5.8,9.1,4.6,9.9c-0.8,0.5-1.5,1-2.3,1.4C2,11.5,1.7,11.7,1.3,12C1.3,12,1.3,12,1.3,12z"/>
		<path id="XMLID_374_" class="st3" d="M1.3,12C1.3,12,1.3,12,1.3,12c0.4-0.3,0.7-0.5,1.1-0.7c0.8-0.5,1.5-1,2.3-1.4
			C5.8,9.1,6.9,8.4,8,7.7c0.8-0.5,1.7-1.1,2.5-1.6c0.5-0.3,1-0.6,1.4-0.9c0.1,0,0.1,0,0.1,0c1,0.6,2,1.3,3,1.9
			c0.8,0.5,1.7,1.1,2.5,1.6c1.2,0.8,2.4,1.5,3.6,2.3c0.5,0.3,1,0.6,1.5,0.9c0,0,0.1,0,0.1,0.1c0,0,0,0-0.1,0.1
			c-1.2,0.8-2.4,1.5-3.6,2.3c-0.8,0.5-1.6,1-2.4,1.5c-1,0.7-2.1,1.3-3.1,2c-0.5,0.3-1,0.6-1.4,0.9c0,0,0,0,0,0c-0.1,0-0.1,0-0.1,0
			c-0.3-0.2-0.7-0.4-1-0.7c-0.8-0.5-1.6-1-2.4-1.5c-0.7-0.5-1.5-0.9-2.2-1.4c-0.9-0.6-1.9-1.2-2.8-1.8C2.8,13,2.1,12.5,1.3,12
			C1.3,12,1.3,12,1.3,12z M7.9,10.2C7.9,10.2,7.9,10.2,7.9,10.2c-0.1,0.2-0.2,0.4-0.2,0.6c0,0,0,0.1,0,0.1c0,0,0,0,0,0
			c-0.1,0.3-0.1,0.6-0.1,0.9c0,0.2,0,0.3,0,0.5c0,0.2,0,0.4,0.1,0.6C7.6,13.3,7.8,13.7,8,14c0.2,0.5,0.5,0.9,0.9,1.2
			c0.3,0.3,0.7,0.6,1.1,0.8c0.6,0.3,1.2,0.5,1.9,0.5c0.3,0,0.6,0,0.8,0c0.3,0,0.6-0.1,0.8-0.2c0.7-0.2,1.3-0.6,1.8-1.2
			c0.4-0.4,0.7-0.9,0.9-1.4c0-0.1,0.1-0.2,0.1-0.3c0,0,0,0,0,0c0.1-0.2,0.1-0.3,0.1-0.5c0-0.1,0-0.1,0-0.2c0,0,0,0,0,0
			c0-0.2,0-0.3,0-0.5c0-0.2,0-0.4,0-0.6c0-0.2-0.1-0.5-0.1-0.7c-0.2-0.8-0.7-1.6-1.3-2.2c-0.9-0.8-1.9-1.2-3.1-1.2
			c-0.2,0-0.5,0-0.7,0.1c-0.3,0-0.6,0.1-0.9,0.2c-1.1,0.4-2,1.3-2.5,2.3C7.9,10.1,7.9,10.1,7.9,10.2z"/>
		<path id="XMLID_346_" class="st4" d="M16.3,13.4c0,0.1-0.1,0.2-0.1,0.3c-0.2,0.5-0.5,1-0.9,1.4c-0.5,0.5-1.1,0.9-1.8,1.2
			c-0.3,0.1-0.6,0.2-0.8,0.2c-0.3,0-0.6,0.1-0.8,0c-0.7,0-1.3-0.2-1.9-0.5c-0.4-0.2-0.8-0.5-1.1-0.8C8.5,14.9,8.2,14.5,8,14
			c-0.2-0.4-0.3-0.7-0.4-1.1c0-0.2-0.1-0.4-0.1-0.6c0-0.2,0-0.3,0-0.5c0-0.3,0.1-0.6,0.1-0.9c0,0,0,0,0,0c0,0,0,0,0,0
			c0.1,0,0.2-0.1,0.3-0.1c0.3-0.1,0.6-0.1,0.9-0.1c0.2,0,0.5,0,0.7,0c0.3,0,0.6,0,0.8,0.1c0.2,0,0.4,0,0.5,0.1
			c0.3,0.1,0.7,0.1,1,0.2c0.6,0.2,1.2,0.4,1.7,0.6c0.5,0.3,1.1,0.6,1.6,0.9c0.2,0.2,0.5,0.3,0.7,0.5C16.1,13.2,16.2,13.3,16.3,13.4z
			 M12,15.6C12,15.6,12,15.6,12,15.6C12,15.6,12.1,15.6,12,15.6C12,15.6,12.1,15.6,12,15.6C12.1,15.5,12.1,15.5,12,15.6
			C12,15.5,12,15.5,12,15.6C12,15.5,12,15.5,12,15.6C12,15.5,12,15.5,12,15.6C12,15.5,12,15.6,12,15.6C12,15.6,12,15.6,12,15.6
			L12,15.6L12,15.6z M9.4,14.1C9.5,14.1,9.5,14.1,9.4,14.1c0.1,0,0.1,0,0.1,0c0,0,0,0,0,0c0,0,0,0,0-0.1c0,0,0,0,0-0.1
			c0,0,0,0,0.1,0c0,0-0.1,0-0.1,0c0,0,0-0.1,0-0.1c0,0,0,0,0,0c0,0.1,0,0.1-0.1,0.1c0,0,0,0,0,0c0,0,0,0,0.1,0
			C9.5,14,9.5,14,9.4,14.1C9.5,14.1,9.4,14.1,9.4,14.1L9.4,14.1L9.4,14.1z M9.8,13.7L9.8,13.7L9.8,13.7C9.7,13.6,9.7,13.6,9.8,13.7
			c0-0.1,0-0.1,0-0.1c0,0,0,0,0.1-0.1c0,0-0.1,0-0.1,0c0,0,0,0,0,0c0,0,0,0,0-0.1c0,0,0,0,0,0.1c0,0,0,0-0.1,0c0,0,0,0,0,0
			c0,0,0,0,0,0c0,0,0,0,0,0c0,0,0,0,0,0.1c0,0,0,0,0,0.1C9.6,13.6,9.6,13.6,9.8,13.7C9.7,13.6,9.7,13.6,9.8,13.7
			C9.7,13.7,9.7,13.7,9.8,13.7z M8.4,11.3C8.4,11.3,8.4,11.3,8.4,11.3c0-0.1,0-0.1,0-0.1c0,0,0,0,0,0c0,0-0.1,0-0.1,0c0,0,0,0,0,0
			c0,0,0-0.1,0-0.1c0,0,0,0.1,0,0.1c0,0,0,0,0,0c0,0-0.1,0-0.1,0c0,0,0,0,0.1,0.1c0,0,0,0,0,0c0,0,0,0.1,0,0.1c0,0,0,0,0,0
			c0,0,0,0,0.1,0C8.3,11.3,8.3,11.3,8.4,11.3C8.4,11.3,8.4,11.3,8.4,11.3z M8.8,13.2C8.8,13.2,8.8,13.2,8.8,13.2c0-0.1,0-0.1,0-0.1
			c0,0,0,0,0,0c0,0,0,0,0,0c0,0-0.1,0-0.1,0c0,0,0,0,0,0c0,0,0,0,0-0.1c0,0,0,0,0,0c0,0,0,0.1,0,0.1c0,0,0,0,0,0c0,0-0.1,0-0.1,0
			c0,0,0,0,0,0c0,0,0,0,0.1,0c0,0,0,0,0,0c0,0,0,0.1,0,0.1c0,0,0.1,0,0.1-0.1C8.7,13.2,8.7,13.2,8.8,13.2
			C8.8,13.2,8.8,13.2,8.8,13.2z M15.3,13.7C15.3,13.7,15.3,13.7,15.3,13.7c0-0.1,0-0.1,0-0.1c0,0,0,0,0.1,0c0,0,0,0,0,0
			c0,0,0,0-0.1,0c0,0,0,0,0,0c0,0,0,0,0-0.1c0,0,0,0,0,0c0,0,0,0,0,0.1c0,0,0,0,0,0c0,0,0,0-0.1,0c0,0,0,0,0,0c0,0,0,0,0.1,0
			c0,0,0,0,0,0c0,0,0,0.1,0,0.1c0,0,0.1,0,0.1-0.1C15.2,13.7,15.2,13.7,15.3,13.7C15.2,13.7,15.3,13.7,15.3,13.7z M10.2,14.2
			C10.2,14.3,10.2,14.3,10.2,14.2c0,0.1,0,0.1-0.1,0.1c0,0-0.1,0-0.1,0c0,0,0,0,0,0c0,0,0,0,0,0c0,0,0,0,0.1,0c0,0,0,0,0,0
			c0,0,0,0.1,0,0.1c0,0,0,0,0,0c0,0,0,0,0.1,0c0,0,0,0,0.1,0c0,0,0,0,0.1,0c0,0,0-0.1,0-0.1c0,0,0,0,0,0c0,0,0,0,0,0c0,0,0,0,0,0
			c0,0,0,0-0.1,0C10.2,14.4,10.2,14.4,10.2,14.2C10.2,14.3,10.2,14.3,10.2,14.2z M11.9,14C11.9,14,11.9,14,11.9,14
			c0.1,0.1,0.1,0.1,0.1,0.1c0,0,0,0,0,0.1c0,0,0,0,0,0c0,0,0,0,0.1,0c0,0,0,0,0.1,0c0,0,0,0,0,0c0,0,0,0,0-0.1c0,0,0,0,0-0.1
			c0,0,0,0,0,0c0,0,0,0,0,0c0,0-0.1,0-0.1,0c0,0,0-0.1,0-0.1c0,0,0,0.1,0,0.1C12,14,12,14,11.9,14C11.9,14,11.9,14,11.9,14z
			 M15.2,14.3C15.2,14.3,15.2,14.3,15.2,14.3C15.2,14.3,15.2,14.3,15.2,14.3c-0.1,0-0.1,0-0.1,0c0,0,0,0,0-0.1c0,0,0,0,0,0
			c0,0,0,0,0,0c0,0,0,0,0,0c0,0,0,0,0,0c0,0,0,0-0.1,0c0,0,0,0,0.1,0c0,0,0,0,0,0c0,0,0,0,0,0.1c0,0,0,0,0.1,0c0,0,0,0,0,0
			c0,0,0,0,0.1,0C15.2,14.4,15.2,14.4,15.2,14.3C15.2,14.4,15.2,14.4,15.2,14.3C15.2,14.4,15.2,14.3,15.2,14.3z M10.4,12.3
			C10.4,12.3,10.4,12.3,10.4,12.3c0-0.1,0-0.1,0-0.1c0,0,0,0,0.1,0c0,0-0.1,0-0.1,0c0,0,0,0,0,0c0,0,0,0,0-0.1c0,0,0,0.1,0,0.1
			c0,0,0,0,0,0c0,0-0.1,0-0.1,0c0,0,0,0,0.1,0.1c0,0,0,0,0,0c0,0,0,0,0,0.1c0,0,0,0,0.1,0C10.3,12.3,10.3,12.3,10.4,12.3
			C10.3,12.3,10.4,12.3,10.4,12.3z M15.5,14.1C15.5,14.1,15.5,14.1,15.5,14.1C15.5,14.1,15.4,14,15.5,14.1c0-0.1,0-0.1,0-0.1
			c0,0,0,0,0,0c0,0,0,0,0,0c0,0,0,0-0.1,0c0,0,0,0,0,0c0,0,0,0,0,0c0,0,0,0,0,0c0,0,0,0,0,0c0,0,0,0,0,0c0,0,0,0,0,0c0,0,0,0,0,0
			c0,0,0,0,0,0c0,0,0,0,0.1,0c0,0,0,0,0,0.1c0,0,0,0,0,0c0,0,0,0,0,0C15.3,14.1,15.3,14.1,15.5,14.1C15.4,14.1,15.4,14.1,15.5,14.1
			C15.4,14.1,15.4,14.1,15.5,14.1z M13.5,15C13.5,15,13.5,15,13.5,15C13.5,15,13.4,15,13.5,15c-0.1,0-0.1-0.1-0.1-0.1c0,0,0,0,0,0
			c0,0,0,0,0,0c0,0,0,0,0,0.1c0,0,0,0,0,0c0,0,0,0-0.1,0c0,0,0,0,0,0c0,0,0,0,0,0c0,0,0,0,0.1,0c0,0,0,0,0,0c0,0,0,0,0,0.1
			c0,0,0,0,0.1,0c0,0,0,0,0,0c0,0,0,0,0,0c0,0,0,0,0,0C13.5,15.1,13.5,15.1,13.5,15C13.4,15.1,13.4,15.1,13.5,15
			C13.5,15,13.5,15,13.5,15z M12,12.6C12,12.6,12,12.6,12,12.6C12,12.7,12,12.7,12,12.6c-0.1,0.1-0.1,0.1-0.1,0.1c0,0,0,0,0,0
			c0.1,0,0.1,0,0,0.1c0,0,0,0,0,0c0,0,0.1,0,0.1-0.1c0,0,0,0,0,0c0,0,0,0,0,0c0,0,0,0,0,0c0,0,0-0.1,0-0.1c0,0,0,0,0.1-0.1
			c0,0,0,0,0,0c0,0,0,0,0,0C12.1,12.7,12.1,12.7,12,12.6C12.1,12.7,12.1,12.7,12,12.6C12,12.6,12,12.6,12,12.6z M14.4,15.1
			C14.4,15,14.4,15,14.4,15.1c0-0.1,0-0.1,0-0.1c0,0,0,0,0,0c0,0,0,0,0,0c0,0,0,0,0,0c0,0-0.1,0-0.1,0c0,0,0,0,0-0.1c0,0,0,0,0,0
			c0,0,0,0,0,0c0,0,0,0,0,0.1c0,0,0,0,0,0c0,0,0,0,0,0c0,0,0,0,0,0c0,0,0,0,0.1,0c0,0,0,0,0,0c0,0,0,0,0,0.1c0,0,0,0,0.1,0
			C14.3,15,14.3,15,14.4,15.1C14.3,15,14.3,15,14.4,15.1z M12.4,13.1C12.4,13.1,12.4,13.1,12.4,13.1c0.1,0.1,0.1,0.1,0.1,0.1
			c0,0,0,0,0,0.1c0,0,0,0,0.1,0c0,0,0,0,0,0c0,0,0,0,0.1,0c0,0,0,0,0,0c0-0.1,0-0.1,0-0.1c0,0,0,0,0,0c0,0,0,0,0,0c0,0,0,0-0.1,0
			c0,0,0,0,0,0c0,0,0,0,0-0.1c0,0,0,0,0,0.1c0,0,0,0,0,0C12.5,13.1,12.5,13.1,12.4,13.1C12.5,13.1,12.4,13.1,12.4,13.1z M13.1,14.5
			C13.1,14.5,13.1,14.5,13.1,14.5C13.1,14.5,13,14.5,13.1,14.5C13,14.5,13,14.4,13,14.4c0,0,0,0,0,0c0,0,0,0,0,0c0,0,0,0,0,0
			c0,0,0.1,0.1,0,0.1c0,0,0,0,0,0c0,0,0,0,0,0c0,0,0.1,0,0.1,0c0,0,0,0,0,0C13.1,14.6,13.1,14.5,13.1,14.5z M13.7,14.7
			C13.7,14.7,13.7,14.7,13.7,14.7C13.8,14.7,13.8,14.7,13.7,14.7c0.1,0,0.1,0,0.1,0c0,0,0,0,0,0c0,0,0,0,0,0c0,0,0,0,0,0
			c0,0,0,0-0.1,0c0,0,0,0,0-0.1c0,0,0,0,0,0c0,0,0,0,0,0.1c0,0,0,0-0.1,0c0,0,0,0,0,0C13.7,14.6,13.7,14.6,13.7,14.7
			C13.7,14.7,13.7,14.7,13.7,14.7C13.7,14.7,13.7,14.7,13.7,14.7z M8.2,13.6C8.2,13.6,8.2,13.6,8.2,13.6c0-0.1,0-0.1,0-0.1
			c0,0,0,0,0,0c0,0,0,0,0,0c0,0-0.1,0-0.1,0c0,0,0,0,0,0c0,0,0,0,0,0c0,0,0,0,0,0c0,0,0,0,0,0.1c0,0,0,0,0,0c0,0,0,0,0,0
			c0,0,0,0,0,0c0,0,0,0,0,0.1c0,0,0,0,0,0C8.1,13.6,8.1,13.6,8.2,13.6C8.2,13.6,8.2,13.6,8.2,13.6C8.2,13.6,8.2,13.6,8.2,13.6z
			 M14.4,15.4C14.4,15.4,14.4,15.4,14.4,15.4C14.3,15.4,14.3,15.4,14.4,15.4c-0.1,0-0.1-0.1-0.1-0.1c0,0,0,0,0,0.1c0,0,0,0-0.1,0
			c0,0,0,0,0,0c0,0,0,0,0,0c0,0,0,0,0,0.1c0,0,0,0,0,0c0,0,0,0,0.1,0c0,0,0,0,0.1,0c0,0,0,0,0,0C14.3,15.5,14.3,15.4,14.4,15.4
			C14.3,15.4,14.4,15.4,14.4,15.4z M13.2,11.7C13.2,11.8,13.2,11.8,13.2,11.7C13.2,11.8,13.2,11.8,13.2,11.7
			C13.2,11.8,13.2,11.8,13.2,11.7C13.2,11.8,13.2,11.8,13.2,11.7c0,0.1,0,0.1,0,0.1c0,0,0,0,0,0c0,0,0.1,0,0.1,0c0,0,0,0,0,0
			c0,0,0,0,0-0.1c0,0,0,0,0,0c0,0,0,0,0,0c0,0,0,0,0,0c0,0,0,0,0,0c0,0,0,0,0,0c0,0,0,0,0,0C13.3,11.7,13.2,11.7,13.2,11.7
			C13.2,11.7,13.2,11.7,13.2,11.7C13.2,11.7,13.2,11.7,13.2,11.7z M14.3,14.6C14.3,14.6,14.3,14.6,14.3,14.6
			C14.3,14.6,14.3,14.6,14.3,14.6C14.3,14.5,14.3,14.5,14.3,14.6C14.4,14.5,14.4,14.5,14.3,14.6c0-0.1,0-0.1,0-0.2c0,0,0,0,0,0
			C14.3,14.5,14.2,14.5,14.3,14.6C14.2,14.5,14.2,14.5,14.3,14.6C14.2,14.5,14.2,14.5,14.3,14.6C14.2,14.5,14.2,14.5,14.3,14.6
			C14.2,14.5,14.2,14.6,14.3,14.6C14.2,14.6,14.3,14.6,14.3,14.6z M15.9,13.6C15.9,13.6,15.9,13.6,15.9,13.6
			C15.9,13.6,15.9,13.6,15.9,13.6C15.8,13.6,15.8,13.6,15.9,13.6c-0.1-0.1-0.1-0.1-0.1-0.1c0,0,0,0,0,0c0,0,0,0,0,0.1c0,0,0,0-0.1,0
			c0,0,0,0,0,0c0,0,0,0,0,0.1c0,0,0,0,0,0c0,0,0,0,0,0C15.8,13.7,15.8,13.7,15.9,13.6c-0.1,0.1-0.1,0.1,0,0.1
			C15.9,13.7,15.9,13.7,15.9,13.6C15.9,13.6,15.9,13.6,15.9,13.6z M11.5,13.2C11.5,13.2,11.5,13.2,11.5,13.2
			C11.6,13.2,11.6,13.2,11.5,13.2c0.1,0,0.1,0,0.1,0c0,0,0,0,0,0c0,0,0,0,0,0c0,0,0,0,0,0c0,0,0,0,0,0c0,0-0.1,0-0.1,0c0,0,0,0,0,0
			c0,0.1,0,0.1-0.1,0.1c0,0,0,0,0,0c0,0,0,0,0,0C11.5,13.1,11.5,13.1,11.5,13.2C11.5,13.2,11.5,13.2,11.5,13.2z M14.8,14.6
			C14.8,14.6,14.8,14.6,14.8,14.6C14.8,14.5,14.8,14.5,14.8,14.6c-0.1-0.1-0.1-0.1-0.1-0.1c0,0,0,0,0,0c0,0,0,0.1-0.1,0.1
			c0,0,0,0,0,0c0,0,0,0,0,0c0,0,0,0.1,0,0.1c0,0,0,0,0,0c0,0,0,0,0.1,0c0,0,0,0,0.1,0c0,0,0,0,0,0c0,0,0,0,0,0
			C14.8,14.6,14.8,14.6,14.8,14.6C14.8,14.6,14.8,14.6,14.8,14.6z M11.7,13.4C11.8,13.5,11.8,13.5,11.7,13.4
			C11.8,13.5,11.8,13.5,11.7,13.4C11.8,13.5,11.8,13.5,11.7,13.4c0.1,0.1,0.1,0.1,0.1,0.1c0,0,0,0,0,0c0,0,0,0,0,0
			C11.8,13.4,11.8,13.4,11.7,13.4C11.8,13.4,11.8,13.4,11.7,13.4C11.8,13.4,11.8,13.4,11.7,13.4z M9.2,12.8
			C9.2,12.8,9.2,12.8,9.2,12.8c-0.1,0-0.1,0-0.1,0c0,0,0,0,0,0.1C9.2,12.9,9.2,12.9,9.2,12.8C9.2,12.8,9.2,12.8,9.2,12.8z"/>
		<path id="XMLID_343_" class="st4" d="M7.9,10.2c0,0,0-0.1,0-0.1C8.4,9,9.3,8.2,10.5,7.7c0.3-0.1,0.6-0.2,0.9-0.2
			c0.2,0,0.5-0.1,0.7-0.1c1.2,0,2.2,0.4,3.1,1.2c0.6,0.6,1.1,1.3,1.3,2.2c0.1,0.2,0.1,0.5,0.1,0.7c0,0.2,0,0.4,0,0.6
			c0,0.2,0,0.3,0,0.5c0,0,0,0,0,0c0,0-0.1-0.1-0.1-0.1c-0.2-0.2-0.4-0.3-0.6-0.5c-0.5-0.3-1-0.6-1.5-0.9c-0.5-0.3-1.1-0.5-1.7-0.7
			c-0.8-0.2-1.6-0.4-2.4-0.4c-0.2,0-0.5,0-0.7,0c-0.3,0-0.7,0-1,0c-0.1,0-0.2,0-0.3,0C8.2,10.1,8,10.2,7.9,10.2z M13.3,10.5
			C13.3,10.5,13.3,10.6,13.3,10.5C13.3,10.6,13.3,10.6,13.3,10.5c0.1,0.1,0.1,0.1,0.1,0.1c0,0,0,0,0,0.1c0,0,0,0,0.1,0c0,0,0,0,0,0
			c0,0,0,0,0,0c0,0,0,0,0.1,0c0,0,0,0,0,0c0,0,0-0.1,0-0.1c0,0,0,0,0,0c0,0,0.1,0,0.1-0.1c0,0,0,0-0.1,0c0,0-0.1,0-0.1-0.1
			c0,0,0,0,0,0c0,0,0,0,0,0.1C13.4,10.5,13.4,10.5,13.3,10.5C13.3,10.5,13.3,10.5,13.3,10.5z"/>
		<path id="XMLID_326_" class="st5" d="M7.9,10.2c0.1,0,0.3-0.1,0.4-0.1c0.1,0,0.2,0,0.3,0c0.3,0,0.7,0,1,0c0.2,0,0.5,0,0.7,0
			c0.8,0.1,1.6,0.2,2.4,0.4c0.6,0.2,1.1,0.4,1.7,0.7c0.5,0.3,1,0.6,1.5,0.9c0.2,0.1,0.4,0.3,0.6,0.5c0,0,0.1,0.1,0.1,0.1
			c0,0.1,0,0.1,0,0.2c0,0.2-0.1,0.3-0.1,0.5c0,0,0,0,0,0c-0.1-0.1-0.2-0.2-0.4-0.3c-0.2-0.2-0.4-0.3-0.7-0.5c-0.5-0.3-1-0.6-1.6-0.9
			c-0.6-0.3-1.1-0.5-1.7-0.6c-0.3-0.1-0.7-0.2-1-0.2c-0.2,0-0.4-0.1-0.5-0.1c-0.3,0-0.6-0.1-0.8-0.1c-0.2,0-0.5,0-0.7,0
			c-0.3,0-0.6,0-0.9,0.1c-0.1,0-0.2,0-0.3,0.1c0,0,0,0,0,0c0,0,0-0.1,0-0.1C7.7,10.6,7.8,10.4,7.9,10.2C7.9,10.2,7.9,10.2,7.9,10.2z
			 M10.4,10.5C10.4,10.5,10.4,10.4,10.4,10.5c0-0.1,0-0.1,0-0.2c0-0.1,0-0.1-0.1-0.1c0,0,0,0,0,0c0,0,0,0,0,0c0,0,0,0.1,0,0.1
			c0,0.1,0,0.2,0,0.2c0,0,0,0,0,0c0,0,0,0,0,0c0,0,0,0,0,0c0-0.1,0-0.1,0-0.2c0,0,0,0,0,0c0,0,0,0,0,0c0,0.1,0,0.1,0,0.2
			c0,0,0,0,0,0c0,0,0,0,0,0c0,0,0,0,0,0c0-0.1,0-0.1,0.1-0.2c0,0,0,0,0,0c0,0.1,0,0.2,0,0.3c0,0,0,0,0,0c0,0,0,0,0,0
			c0-0.1,0-0.2,0-0.3c0-0.1,0-0.1-0.1-0.1c-0.1,0-0.1,0-0.1,0.1C10.4,10.3,10.4,10.4,10.4,10.5z M9.6,10.4
			C9.6,10.4,9.6,10.4,9.6,10.4c0,0.1,0,0.1,0,0.2c0,0,0,0,0,0c0.1,0,0.2,0,0.3,0c0,0,0,0,0,0c0,0,0,0,0,0c0,0-0.1,0-0.1,0
			c0,0-0.1,0-0.1,0c0,0,0,0,0,0c0-0.1,0-0.1,0.1-0.1c0,0,0,0,0,0c0,0,0.1,0,0.1,0c0,0,0,0,0,0c0,0,0,0,0,0c0,0,0,0,0,0
			c0,0,0,0-0.1,0c0,0-0.1,0-0.1,0C9.7,10.3,9.7,10.3,9.6,10.4c0.1-0.1,0.1-0.1,0.1-0.1c0,0,0,0,0,0c0.1,0,0.1,0,0.2,0c0,0,0,0,0,0
			c0,0,0,0,0,0c0,0,0,0,0,0c-0.1,0-0.2,0-0.3,0c0,0,0,0,0,0C9.6,10.3,9.6,10.3,9.6,10.4z M12.5,10.6c0,0.1-0.1,0.3-0.1,0.4
			c0,0,0,0,0,0c0,0,0,0,0,0c0,0,0-0.1,0-0.1c0,0,0,0,0.1,0c0,0,0,0,0,0c0,0,0,0.1,0,0.1c0,0,0,0,0,0c0,0,0.1,0,0.1,0
			c0-0.1,0-0.1-0.1-0.2c0,0,0,0,0,0c0,0,0.1,0,0.1-0.1c0-0.1,0-0.1-0.1-0.1c0,0,0,0,0,0C12.7,10.7,12.6,10.7,12.5,10.6z M8.8,10.4
			C8.8,10.4,8.8,10.4,8.8,10.4c0.1-0.1,0.1-0.1,0.1-0.1c0,0,0-0.1-0.1-0.1c0,0-0.1,0-0.1,0c-0.1,0-0.1,0-0.2,0c0,0,0,0,0,0
			c0,0.1,0,0.2,0,0.3c0,0.1,0,0.1,0.1,0.1c0,0,0,0,0,0c0,0,0-0.1,0-0.1c0,0,0-0.1,0.1,0C8.7,10.5,8.7,10.5,8.8,10.4
			c0,0.1,0,0.1,0,0.1c0,0,0.1,0,0.1,0c0,0,0,0,0,0c0,0,0,0,0,0C8.9,10.5,8.8,10.5,8.8,10.4z M14.2,11.6
			C14.3,11.6,14.3,11.6,14.2,11.6c0.1,0,0.1,0,0.2-0.1c0,0,0-0.1-0.1-0.1c-0.1,0-0.1-0.1-0.2-0.1c0,0,0,0,0,0c0,0,0,0,0,0
			c0,0.1-0.1,0.2-0.1,0.3c0,0.1,0,0.1,0,0.1c0,0,0,0,0,0c0,0,0-0.1,0.1-0.1c0,0,0,0,0,0C14.1,11.5,14.2,11.6,14.2,11.6
			c-0.1,0.1-0.1,0.1-0.1,0.1c0,0,0,0,0,0c0,0,0,0,0.1,0C14.3,11.7,14.3,11.6,14.2,11.6z M9.1,10.4C9.1,10.4,9.1,10.4,9.1,10.4
			C9.1,10.4,9.1,10.4,9.1,10.4c0,0.1,0,0.1,0,0.2c0,0,0,0,0,0c0.1,0,0.1,0,0.2,0c0.1,0,0.1-0.1,0.1-0.1c0,0,0-0.1,0-0.1
			c0-0.1-0.1-0.2-0.2-0.2c-0.1,0-0.1,0-0.2,0c0,0,0,0,0,0C9.1,10.3,9.1,10.3,9.1,10.4z M15.2,12.3c0.1,0,0.2-0.1,0.1-0.2
			c0,0,0,0-0.1-0.1c0,0,0,0-0.1-0.1c0,0,0,0,0,0c0,0,0,0,0,0c0,0,0.1,0,0.1,0c0,0,0,0,0,0.1c0,0,0,0,0,0.1c0,0,0,0,0,0c0,0,0,0,0,0
			c0,0,0-0.1,0-0.1c0-0.1-0.1-0.1-0.2-0.1c-0.1,0-0.1,0-0.1,0.1c0,0,0,0,0,0.1c0,0,0,0,0.1,0.1c0,0,0,0,0,0.1
			C15.2,12.2,15.2,12.2,15.2,12.3C15.2,12.2,15.2,12.2,15.2,12.3c-0.1-0.1-0.1-0.1-0.1-0.2c0,0,0,0,0,0c0,0,0,0-0.1,0c0,0,0,0,0,0.1
			c0,0,0,0.1,0,0.1C15,12.2,15.1,12.3,15.2,12.3C15.1,12.3,15.2,12.3,15.2,12.3z M15.8,12.3C15.8,12.3,15.8,12.3,15.8,12.3
			c-0.1-0.1-0.1-0.2-0.2-0.2c-0.1,0-0.1,0.1-0.1,0.1c0,0,0,0,0,0.1c0,0,0,0,0.1,0.1c0,0,0,0,0,0c0,0,0,0,0,0.1c0,0,0,0,0,0
			c0,0-0.1,0-0.1-0.1c0,0,0,0,0-0.1c0,0,0,0,0,0c0,0,0,0-0.1,0c0,0,0,0,0,0.1c0,0,0,0.1,0,0.1c0,0,0.1,0.1,0.1,0.1c0,0,0,0,0,0
			c0.1,0,0.2-0.1,0.1-0.2c0,0,0,0,0,0c0,0,0,0-0.1-0.1c0,0,0,0,0,0c0,0,0,0,0,0C15.7,12.2,15.8,12.3,15.8,12.3
			C15.7,12.3,15.8,12.4,15.8,12.3C15.8,12.4,15.8,12.4,15.8,12.3C15.8,12.4,15.8,12.4,15.8,12.3C15.8,12.4,15.8,12.3,15.8,12.3z
			 M13.7,11.3C13.7,11.3,13.7,11.3,13.7,11.3C13.7,11.4,13.7,11.4,13.7,11.3c0,0.1,0,0.1,0,0.1c0,0,0,0,0,0c0,0-0.1,0-0.1,0
			c0,0,0-0.1,0-0.1c0-0.1,0-0.1,0.1-0.2c0.1,0,0.2,0,0.2,0.1c0,0,0,0,0,0c0,0,0,0,0,0c0-0.1,0-0.1,0-0.1c0,0-0.1,0-0.1-0.1
			c-0.1,0-0.1,0-0.2,0c-0.1,0-0.1,0.1-0.1,0.2c0,0.1,0,0.2,0.1,0.2c0.1,0,0.1,0,0.2,0c0,0,0,0,0,0c0,0,0-0.1,0.1-0.1c0,0,0,0,0,0
			C13.8,11.3,13.8,11.3,13.7,11.3z M13.2,11.3c0.1,0,0.1,0,0.2-0.1c0,0,0.1-0.1,0.1-0.2c0-0.1,0-0.1-0.1-0.2c0,0-0.1,0-0.1,0
			c-0.1,0-0.1,0-0.2,0.1c0,0,0,0.1,0,0.1c0,0.1,0,0.1,0.1,0.2C13.1,11.3,13.1,11.3,13.2,11.3z M14.6,11.7
			C14.6,11.8,14.6,11.8,14.6,11.7c0.1,0.1,0.1,0.1,0.2,0.1c0,0,0,0,0,0c0,0,0,0,0,0c0,0,0,0,0,0C14.8,11.8,14.7,11.7,14.6,11.7
			c0-0.1,0-0.1,0.1-0.1c0,0,0,0,0,0c0,0,0.1,0.1,0.1,0.1c0,0,0,0,0.1,0c0,0,0,0,0,0c-0.1,0-0.2-0.1-0.3-0.2c0,0,0,0,0,0
			c-0.1,0.1-0.1,0.2-0.2,0.3c0,0,0,0,0,0c0,0,0,0,0,0c0.1,0,0.2,0.1,0.3,0.1c0,0,0,0,0-0.1C14.7,11.9,14.6,11.9,14.6,11.7
			C14.6,11.8,14.6,11.8,14.6,11.7z M12,10.8C12,10.8,12.1,10.8,12,10.8c0.1,0,0.2,0,0.2,0c0.1,0,0.1-0.1,0.1-0.1
			c0-0.1,0-0.1-0.1-0.1c-0.1,0-0.1,0-0.2-0.1c0,0,0,0,0,0c0,0,0,0,0,0c0,0.1-0.1,0.2-0.1,0.3c0,0,0,0,0,0.1c0,0,0,0,0,0c0,0,0,0,0,0
			C12,10.9,12,10.8,12,10.8C12,10.8,12,10.8,12,10.8z M16.3,12.7c0-0.1-0.1-0.3-0.3-0.2c-0.1,0-0.1,0.1-0.1,0.2c0,0.1,0,0.1,0.1,0.2
			c0.1,0.1,0.1,0.1,0.2,0C16.2,12.9,16.3,12.8,16.3,12.7C16.3,12.7,16.3,12.7,16.3,12.7z M7.9,10.5C7.9,10.5,7.9,10.5,7.9,10.5
			C7.9,10.5,7.9,10.5,7.9,10.5c0,0.2,0.1,0.2,0.2,0.2c0.1,0,0.2,0,0.2-0.1c0,0,0,0,0,0c0,0,0-0.1,0-0.1c0-0.1-0.1-0.1-0.2-0.2
			C8,10.3,8,10.3,7.9,10.5C7.9,10.4,7.9,10.4,7.9,10.5z M11.4,10.5C11.4,10.4,11.4,10.4,11.4,10.5C11.4,10.4,11.4,10.4,11.4,10.5
			C11.4,10.4,11.4,10.4,11.4,10.5c-0.1-0.1-0.1-0.1-0.1-0.1c0,0-0.1,0-0.1,0c0,0,0,0,0,0c0,0,0,0.1,0,0.1c0,0.1,0,0.1,0,0.2
			c0,0,0,0,0,0c0.1,0,0.2,0,0.2,0c0,0,0,0,0,0c0,0,0,0,0,0c0,0,0,0,0-0.1c0,0,0,0-0.1,0c0,0-0.1,0-0.1,0c0,0,0,0,0,0c0,0,0,0,0,0
			c0-0.1,0-0.1,0.1-0.1c0,0,0.1,0,0.1,0c0,0,0,0,0,0C11.4,10.5,11.4,10.5,11.4,10.5C11.3,10.5,11.3,10.5,11.4,10.5
			c-0.1,0.1-0.2,0.1-0.2,0.1c0,0,0,0,0,0c0-0.1,0-0.1,0.1-0.1C11.3,10.4,11.3,10.4,11.4,10.5z"/>
		<path id="XMLID_325_" class="st6" d="M8.4,11.3C8.4,11.3,8.4,11.3,8.4,11.3c-0.1-0.1-0.1-0.1-0.1-0.1c0,0,0,0-0.1,0c0,0,0,0,0,0
			c0,0,0-0.1,0-0.1c0,0,0,0,0,0c0,0,0,0-0.1-0.1c0,0,0.1,0,0.1,0c0,0,0,0,0,0c0,0,0-0.1,0-0.1c0,0,0,0.1,0,0.1c0,0,0,0,0,0
			c0,0,0.1,0,0.1,0c0,0,0,0,0,0C8.4,11.2,8.4,11.2,8.4,11.3C8.4,11.3,8.4,11.3,8.4,11.3z"/>
		<path id="XMLID_324_" class="st6" d="M8.8,13.2C8.8,13.2,8.8,13.2,8.8,13.2c-0.1-0.1-0.1-0.1-0.1,0c0,0,0,0-0.1,0.1
			c0,0,0-0.1,0-0.1c0,0,0,0,0,0c0,0,0,0-0.1,0c0,0,0,0,0,0c0,0,0.1,0,0.1,0c0,0,0,0,0,0c0,0,0-0.1,0-0.1c0,0,0,0,0,0c0,0,0,0,0,0.1
			c0,0,0,0,0,0c0,0,0.1,0,0.1,0c0,0,0,0,0,0c0,0,0,0,0,0C8.8,13.1,8.8,13.1,8.8,13.2C8.8,13.2,8.8,13.2,8.8,13.2z"/>
		<path id="XMLID_323_" class="st6" d="M15.3,13.7C15.3,13.7,15.2,13.7,15.3,13.7c-0.1-0.1-0.1-0.1-0.1-0.1c0,0,0,0-0.1,0.1
			c0,0,0-0.1,0-0.1c0,0,0,0,0,0c0,0,0,0-0.1,0c0,0,0,0,0,0c0,0,0,0,0.1,0c0,0,0,0,0,0c0,0,0,0,0-0.1c0,0,0,0,0,0c0,0,0,0,0,0.1
			c0,0,0,0,0,0c0,0,0.1,0,0.1,0c0,0,0,0,0,0c0,0,0,0-0.1,0C15.3,13.6,15.3,13.6,15.3,13.7C15.3,13.7,15.3,13.7,15.3,13.7z"/>
		<path id="XMLID_322_" class="st6" d="M10.2,14.2C10.2,14.3,10.2,14.3,10.2,14.2c0,0.1,0,0.1,0.1,0.1c0,0,0,0,0.1,0c0,0,0,0,0,0
			c0,0,0,0,0,0c0,0,0,0,0,0c0,0,0,0.1,0,0.1c0,0,0,0-0.1,0c0,0,0,0-0.1,0c0,0,0,0-0.1,0c0,0,0,0,0,0c0,0,0-0.1,0-0.1c0,0,0,0,0,0
			c0,0,0,0-0.1,0c0,0,0,0,0,0c0,0,0,0,0,0c0,0,0.1,0,0.1,0C10.2,14.4,10.2,14.3,10.2,14.2C10.2,14.3,10.2,14.3,10.2,14.2z"/>
		<path id="XMLID_321_" class="st6" d="M11.9,14C11.9,14,11.9,14,11.9,14c0.1,0,0.1,0,0.1,0c0,0,0-0.1,0-0.1c0,0,0,0.1,0,0.1
			c0,0,0.1,0,0.1,0c0,0,0,0,0,0c0,0,0,0,0,0c0,0,0,0,0,0.1c0,0,0,0,0,0.1c0,0,0,0,0,0c0,0,0,0-0.1,0c0,0,0,0-0.1,0c0,0,0,0,0,0
			c0,0,0-0.1,0-0.1C12,14.1,12,14.1,11.9,14C11.9,14,11.9,14,11.9,14z"/>
		<path id="XMLID_320_" class="st6" d="M15.2,14.3C15.2,14.3,15.2,14.4,15.2,14.3C15.2,14.4,15.2,14.4,15.2,14.3
			c-0.1,0.1-0.1,0.1-0.1,0.2c0,0,0,0-0.1,0c0,0,0,0,0,0c0,0,0,0-0.1,0c0,0,0,0,0-0.1c0,0,0,0,0,0c0,0,0,0-0.1,0c0,0,0,0,0.1,0
			c0,0,0,0,0,0c0,0,0,0,0,0c0,0,0,0,0,0c0,0,0,0,0,0c0,0,0,0,0,0.1C15.1,14.3,15.1,14.3,15.2,14.3C15.2,14.3,15.2,14.3,15.2,14.3
			C15.2,14.3,15.2,14.3,15.2,14.3z"/>
		<path id="XMLID_319_" class="st6" d="M10.4,12.3C10.4,12.3,10.3,12.3,10.4,12.3c-0.1-0.1-0.1-0.1-0.1,0c0,0,0,0-0.1,0
			c0,0,0-0.1,0-0.1c0,0,0,0,0,0c0,0,0,0-0.1-0.1c0,0,0.1,0,0.1,0c0,0,0,0,0,0c0,0,0-0.1,0-0.1c0,0,0,0.1,0,0.1c0,0,0,0,0,0
			c0,0,0.1,0,0.1,0c0,0,0,0-0.1,0C10.4,12.2,10.4,12.2,10.4,12.3C10.4,12.3,10.4,12.3,10.4,12.3z"/>
		<path id="XMLID_318_" class="st6" d="M15.5,14.1C15.4,14.1,15.4,14.1,15.5,14.1C15.4,14.1,15.4,14.1,15.5,14.1c-0.1,0-0.1,0-0.2,0
			c0,0,0,0,0,0c0,0,0,0,0,0c0,0,0,0,0-0.1c0,0,0,0-0.1,0c0,0,0,0,0,0c0,0,0,0,0,0c0,0,0,0,0,0c0,0,0,0,0,0c0,0,0,0,0,0c0,0,0,0,0,0
			c0,0,0,0,0,0c0,0,0,0,0,0c0,0,0,0,0.1,0c0,0,0,0,0,0c0,0,0,0,0,0C15.5,14,15.5,14,15.5,14.1C15.4,14,15.5,14.1,15.5,14.1
			C15.5,14.1,15.5,14.1,15.5,14.1z"/>
		<path id="XMLID_317_" class="st6" d="M13.5,15C13.5,15,13.5,15,13.5,15C13.4,15.1,13.4,15.1,13.5,15c-0.1,0.1-0.1,0.1-0.1,0.2
			c0,0,0,0,0,0c0,0,0,0,0,0c0,0,0,0,0,0c0,0,0,0-0.1,0c0,0,0-0.1,0-0.1c0,0,0,0,0,0c0,0,0,0-0.1,0c0,0,0,0,0,0c0,0,0,0,0,0
			c0,0,0,0,0.1,0c0,0,0,0,0,0c0,0,0,0,0-0.1c0,0,0,0,0,0c0,0,0,0,0,0C13.4,15,13.4,15,13.5,15C13.4,15,13.5,15,13.5,15
			C13.5,15,13.5,15,13.5,15z"/>
		<path id="XMLID_316_" class="st6" d="M12,12.6C12,12.6,12,12.6,12,12.6C12.1,12.7,12.1,12.7,12,12.6c0.1,0.1,0.1,0.1,0.1,0.1
			c0,0,0,0,0,0c0,0,0,0,0,0c0,0-0.1,0-0.1,0.1c0,0,0,0.1,0,0.1c0,0,0,0,0,0c0,0,0,0,0,0c0,0,0,0,0,0c0,0,0,0-0.1,0.1c0,0,0,0,0,0
			c0-0.1,0-0.1,0-0.1c0,0,0,0,0,0C11.9,12.7,11.9,12.7,12,12.6C12,12.7,12,12.7,12,12.6C12,12.6,12,12.6,12,12.6z"/>
		<path id="XMLID_315_" class="st6" d="M9.8,13.7C9.7,13.7,9.7,13.7,9.8,13.7C9.7,13.6,9.7,13.6,9.8,13.7c-0.1,0-0.1,0-0.2,0
			c0,0,0,0,0-0.1c0,0,0,0,0-0.1c0,0,0,0,0,0c0,0,0,0,0,0c0,0,0,0,0,0c0,0,0,0,0.1,0c0,0,0,0,0-0.1c0,0,0,0,0,0.1c0,0,0,0,0,0
			c0,0,0,0,0.1,0c0,0,0,0-0.1,0.1C9.7,13.6,9.7,13.6,9.8,13.7C9.7,13.6,9.7,13.6,9.8,13.7L9.8,13.7z"/>
		<path id="XMLID_314_" class="st6" d="M9.4,14.1C9.4,14.1,9.5,14.1,9.4,14.1c0-0.1,0-0.1,0-0.1c0,0,0,0-0.1,0c0,0,0,0,0,0
			c0.1,0,0.1,0,0.1-0.1c0,0,0,0,0,0c0,0,0,0.1,0,0.1c0,0,0.1,0,0.1,0c0,0,0,0-0.1,0c0,0,0,0,0,0.1c0,0,0,0,0,0.1c0,0,0,0,0,0
			C9.6,14.1,9.5,14.1,9.4,14.1C9.5,14.1,9.5,14.1,9.4,14.1L9.4,14.1z"/>
		<path id="XMLID_313_" class="st6" d="M14.4,15.1C14.3,15,14.3,15,14.4,15.1c-0.1-0.1-0.1-0.1-0.1,0c0,0,0,0-0.1,0c0,0,0,0,0-0.1
			c0,0,0,0,0,0c0,0,0,0-0.1,0c0,0,0,0,0,0c0,0,0,0,0,0c0,0,0,0,0,0c0,0,0,0,0-0.1c0,0,0,0,0,0c0,0,0,0,0,0c0,0,0,0.1,0,0.1
			c0,0,0.1,0,0.1,0c0,0,0,0,0,0c0,0,0,0,0,0c0,0,0,0,0,0C14.4,15,14.3,15,14.4,15.1C14.4,15,14.4,15,14.4,15.1z"/>
		<path id="XMLID_312_" class="st6" d="M12.4,13.1C12.4,13.1,12.5,13.1,12.4,13.1c0.1,0,0.1,0,0.1,0c0,0,0,0,0,0c0,0,0,0,0-0.1
			c0,0,0,0,0,0.1c0,0,0,0,0,0c0,0,0,0,0.1,0c0,0,0,0,0,0c0,0,0,0,0,0c0,0-0.1,0,0,0.1c0,0,0,0,0,0c0,0,0,0-0.1,0c0,0,0,0,0,0
			c0,0,0,0-0.1,0c0,0,0,0,0-0.1C12.5,13.2,12.5,13.2,12.4,13.1C12.4,13.1,12.4,13.1,12.4,13.1z"/>
		<path id="XMLID_311_" class="st6" d="M13.1,14.5c0,0-0.1,0.1,0,0.1c0,0,0,0,0,0c0,0-0.1,0-0.1,0c0,0,0,0,0,0c0,0,0,0,0,0
			c0,0,0-0.1,0-0.1c0,0,0,0,0,0c0,0,0,0,0,0c0,0,0,0,0,0C13,14.4,13,14.5,13.1,14.5C13,14.5,13.1,14.5,13.1,14.5
			C13.1,14.5,13.1,14.5,13.1,14.5z"/>
		<path id="XMLID_310_" class="st6" d="M13.7,14.7C13.7,14.7,13.7,14.7,13.7,14.7C13.7,14.7,13.7,14.7,13.7,14.7c0-0.1,0-0.1,0-0.1
			c0,0,0,0,0,0c0,0,0,0,0.1,0c0,0,0,0,0-0.1c0,0,0,0,0,0c0,0,0,0.1,0,0.1c0,0,0,0,0.1,0c0,0,0,0,0,0c0,0,0,0,0,0c0,0,0,0,0,0
			C13.8,14.7,13.8,14.7,13.7,14.7C13.8,14.7,13.8,14.7,13.7,14.7C13.7,14.7,13.7,14.7,13.7,14.7z"/>
		<path id="XMLID_309_" class="st6" d="M8.2,13.6C8.2,13.6,8.2,13.6,8.2,13.6C8.2,13.6,8.2,13.6,8.2,13.6c-0.1,0-0.1,0-0.1,0
			c0,0,0,0,0,0c0,0,0-0.1,0-0.1c0,0,0,0,0,0c0,0,0,0,0,0c0,0,0,0,0,0c0,0,0,0,0-0.1c0,0,0,0,0,0c0,0,0,0,0,0c0,0,0,0,0,0
			c0,0,0,0,0.1,0c0,0,0,0,0,0c0,0,0,0,0,0C8.2,13.5,8.2,13.5,8.2,13.6C8.2,13.6,8.2,13.6,8.2,13.6z"/>
		<path id="XMLID_308_" class="st6" d="M14.4,15.4C14.4,15.4,14.3,15.4,14.4,15.4c-0.1,0.1,0,0.1,0,0.1c0,0,0,0,0,0c0,0,0,0-0.1,0
			c0,0,0,0-0.1,0c0,0,0,0,0,0c0,0,0,0,0-0.1c0,0,0,0,0,0c0,0,0,0,0,0c0,0,0,0,0.1,0c0,0,0,0,0-0.1C14.3,15.3,14.3,15.3,14.4,15.4
			C14.3,15.4,14.3,15.4,14.4,15.4C14.4,15.4,14.4,15.4,14.4,15.4z"/>
		<path id="XMLID_307_" class="st6" d="M13.2,11.7C13.2,11.7,13.2,11.7,13.2,11.7C13.2,11.7,13.2,11.7,13.2,11.7
			c0.1-0.1,0.1-0.1,0.1-0.1c0,0,0,0,0,0c0,0,0,0,0,0c0,0,0,0,0,0c0,0,0,0,0,0c0,0,0,0,0,0c0,0,0,0,0,0c0,0,0,0,0,0.1c0,0,0,0,0,0
			c0,0-0.1,0-0.1,0c0,0,0,0,0,0C13.2,11.9,13.2,11.8,13.2,11.7C13.2,11.8,13.2,11.8,13.2,11.7C13.2,11.8,13.2,11.8,13.2,11.7
			C13.2,11.8,13.2,11.8,13.2,11.7C13.2,11.8,13.2,11.8,13.2,11.7z"/>
		<path id="XMLID_306_" class="st6" d="M14.3,14.6C14.3,14.6,14.2,14.6,14.3,14.6C14.2,14.6,14.2,14.5,14.3,14.6
			C14.2,14.5,14.2,14.5,14.3,14.6C14.2,14.5,14.2,14.5,14.3,14.6C14.2,14.5,14.2,14.5,14.3,14.6c0-0.1,0-0.1,0-0.1c0,0,0,0,0,0
			C14.3,14.5,14.3,14.5,14.3,14.6C14.4,14.5,14.4,14.5,14.3,14.6C14.3,14.5,14.3,14.5,14.3,14.6C14.3,14.6,14.3,14.6,14.3,14.6
			C14.3,14.6,14.3,14.6,14.3,14.6z"/>
		<path id="XMLID_305_" class="st6" d="M15.9,13.6C15.9,13.6,15.9,13.6,15.9,13.6c0,0.1,0,0.1,0,0.1C15.9,13.7,15.9,13.7,15.9,13.6
			c-0.1,0.1-0.1,0.1-0.1,0.1c0,0,0,0,0,0c0,0,0,0,0,0c0,0,0-0.1,0-0.1c0,0,0,0,0,0c0,0,0.1,0,0.1,0c0,0,0,0,0-0.1c0,0,0,0,0,0
			C15.8,13.5,15.8,13.5,15.9,13.6C15.8,13.6,15.8,13.6,15.9,13.6C15.9,13.6,15.9,13.6,15.9,13.6C15.9,13.6,15.9,13.6,15.9,13.6z"/>
		<path id="XMLID_304_" class="st6" d="M11.5,13.2C11.5,13.2,11.5,13.2,11.5,13.2c0-0.1,0-0.1,0-0.1c0,0,0,0,0,0c0,0,0,0,0,0
			c0.1,0,0.1,0,0.1-0.1c0,0,0,0,0,0c0,0,0,0,0.1,0c0,0,0,0,0,0c0,0,0,0,0,0c0,0,0,0,0,0c0,0,0,0,0,0C11.6,13.2,11.6,13.2,11.5,13.2
			C11.6,13.2,11.6,13.2,11.5,13.2C11.5,13.2,11.5,13.2,11.5,13.2z"/>
		<path id="XMLID_303_" class="st6" d="M14.8,14.6C14.8,14.6,14.8,14.6,14.8,14.6c-0.1,0.1,0,0.1,0,0.1c0,0,0,0,0,0c0,0,0,0,0,0
			c0,0,0,0-0.1,0c0,0,0,0-0.1,0c0,0,0,0,0,0c0,0,0-0.1,0-0.1c0,0,0,0,0,0c0,0,0,0,0,0c0,0,0.1,0,0.1-0.1c0,0,0,0,0,0
			C14.7,14.5,14.7,14.5,14.8,14.6C14.8,14.5,14.8,14.5,14.8,14.6C14.8,14.6,14.8,14.6,14.8,14.6z"/>
		<path id="XMLID_302_" class="st6" d="M11.7,13.4C11.8,13.4,11.8,13.4,11.7,13.4C11.8,13.4,11.8,13.4,11.7,13.4c0.1,0,0.1,0,0.1,0
			c0,0,0,0,0,0c0,0,0,0,0,0C11.8,13.5,11.8,13.5,11.7,13.4C11.8,13.5,11.8,13.5,11.7,13.4C11.8,13.5,11.8,13.5,11.7,13.4
			C11.8,13.5,11.8,13.5,11.7,13.4z"/>
		<path id="XMLID_301_" class="st6" d="M9.2,12.8C9.2,12.8,9.2,12.8,9.2,12.8c-0.1,0.1-0.1,0.1-0.1,0.1c0,0,0,0,0-0.1
			C9.1,12.8,9.1,12.8,9.2,12.8C9.2,12.8,9.2,12.8,9.2,12.8z"/>
		<path id="XMLID_300_" class="st6" d="M12,15.6C12,15.6,12,15.6,12,15.6C12,15.6,12,15.5,12,15.6C12,15.5,12,15.5,12,15.6
			C12,15.5,12,15.5,12,15.6C12,15.5,12,15.5,12,15.6C12.1,15.5,12.1,15.5,12,15.6C12.1,15.6,12,15.6,12,15.6
			C12.1,15.6,12,15.6,12,15.6C12,15.6,12,15.6,12,15.6L12,15.6z"/>
		<polygon id="XMLID_299_" class="st6" points="9.4,14.1 9.4,14.1 9.4,14.1 		"/>
		<polygon id="XMLID_298_" class="st6" points="9.8,13.7 9.8,13.7 9.8,13.7 		"/>
		<polygon id="XMLID_297_" class="st6" points="12,15.6 12,15.6 12,15.6 		"/>
		<path id="XMLID_296_" class="st6" d="M13.3,10.5C13.3,10.5,13.3,10.5,13.3,10.5c0.1,0,0.1,0,0.1,0c0,0,0,0,0-0.1c0,0,0,0,0,0
			c0,0.1,0,0.1,0.1,0.1c0,0,0,0,0.1,0c0,0-0.1,0-0.1,0.1c0,0,0,0,0,0c0,0,0,0.1,0,0.1c0,0,0,0,0,0c0,0,0,0-0.1,0c0,0,0,0,0,0
			c0,0,0,0,0,0c0,0,0,0-0.1,0c0,0,0,0,0-0.1C13.4,10.6,13.4,10.6,13.3,10.5C13.3,10.6,13.3,10.6,13.3,10.5
			C13.3,10.6,13.3,10.5,13.3,10.5z"/>
		<path id="XMLID_295_" class="st7" d="M10.4,10.5c0-0.1,0-0.1,0.1-0.2c0-0.1,0-0.1,0.1-0.1c0.1,0,0.1,0,0.1,0.1c0,0.1,0,0.2,0,0.3
			c0,0,0,0,0,0c0,0,0,0,0,0c0-0.1,0-0.2,0-0.3c0,0,0,0,0,0c0,0.1,0,0.1-0.1,0.2c0,0,0,0,0,0c0,0,0,0,0,0c0,0,0,0,0,0
			c0-0.1,0-0.1,0-0.2c0,0,0,0,0,0c0,0,0,0,0,0c0,0.1,0,0.1,0,0.2c0,0,0,0,0,0c0,0,0,0,0,0c0,0,0,0,0,0c0-0.1,0-0.2,0-0.2
			c0,0,0-0.1,0-0.1c0,0,0,0,0,0c0,0,0,0,0,0c0.1,0,0.1,0,0.1,0.1C10.3,10.3,10.3,10.4,10.4,10.5C10.4,10.4,10.4,10.5,10.4,10.5z"/>
		<path id="XMLID_294_" class="st7" d="M9.6,10.4c0-0.1,0-0.1,0-0.2c0,0,0,0,0,0c0.1,0,0.2,0,0.3,0c0,0,0,0,0,0c0,0,0,0,0,0
			c0,0,0,0,0,0c-0.1,0-0.1,0-0.2,0c0,0,0,0,0,0C9.7,10.3,9.7,10.3,9.6,10.4c0.1-0.1,0.1-0.1,0.1-0.1c0,0,0.1,0,0.1,0c0,0,0,0,0.1,0
			c0,0,0,0,0,0c0,0,0,0,0,0c0,0,0,0,0,0c0,0-0.1,0-0.1,0c0,0,0,0,0,0c-0.1,0-0.1,0-0.1,0.1c0,0,0,0,0,0c0,0,0.1,0,0.1,0
			c0,0,0.1,0,0.1,0c0,0,0,0,0,0c0,0,0,0,0,0c-0.1,0-0.2,0-0.3,0c0,0,0,0,0,0C9.6,10.5,9.6,10.5,9.6,10.4C9.6,10.4,9.6,10.4,9.6,10.4
			z"/>
		<path id="XMLID_291_" class="st7" d="M12.5,10.6c0.1,0,0.1,0,0.2,0.1c0,0,0,0,0,0c0.1,0,0.1,0.1,0.1,0.1c0,0.1,0,0.1-0.1,0.1
			c0,0,0,0,0,0c0,0.1,0.1,0.2,0.1,0.2c0,0-0.1,0-0.1,0c0,0,0,0,0,0c0,0,0-0.1,0-0.1c0,0,0,0,0,0c0,0-0.1,0-0.1,0c0,0,0,0.1,0,0.1
			c0,0,0,0,0,0c0,0,0,0,0,0C12.4,11,12.5,10.7,12.5,10.6z M12.7,10.9C12.7,10.9,12.7,10.9,12.7,10.9C12.8,10.8,12.8,10.8,12.7,10.9
			c0-0.1,0-0.1-0.1-0.1c0,0,0,0-0.1,0C12.6,10.8,12.6,10.8,12.7,10.9C12.7,10.8,12.7,10.9,12.7,10.9z"/>
		<path id="XMLID_288_" class="st7" d="M8.8,10.4c0.1,0,0.1,0.1,0.1,0.2c0,0,0,0,0,0c0,0,0,0,0,0c0,0-0.1,0-0.1,0
			C8.7,10.5,8.7,10.5,8.8,10.4c-0.1,0-0.1,0-0.1,0c0,0-0.1,0-0.1,0c0,0,0,0.1,0,0.1c0,0,0,0,0,0c-0.1,0-0.1,0-0.1-0.1
			c0-0.1,0-0.2,0-0.3c0,0,0,0,0,0c0.1,0,0.1,0,0.2,0c0,0,0.1,0,0.1,0c0,0,0.1,0,0.1,0.1C8.9,10.3,8.9,10.4,8.8,10.4
			C8.8,10.4,8.8,10.4,8.8,10.4z M8.7,10.3C8.7,10.3,8.7,10.3,8.7,10.3C8.7,10.3,8.7,10.3,8.7,10.3C8.6,10.3,8.6,10.3,8.7,10.3
			c-0.1,0.1-0.1,0.1,0,0.1c0,0,0,0,0,0C8.7,10.4,8.7,10.4,8.7,10.3C8.7,10.4,8.8,10.3,8.7,10.3C8.8,10.3,8.7,10.3,8.7,10.3
			C8.7,10.3,8.7,10.3,8.7,10.3z"/>
		<path id="XMLID_285_" class="st7" d="M14.2,11.6c0,0.1,0,0.1,0,0.2c0,0,0,0-0.1,0c0,0,0,0,0,0C14.2,11.7,14.2,11.6,14.2,11.6
			c-0.1,0-0.1,0-0.1-0.1c0,0,0,0,0,0c0,0,0,0.1-0.1,0.1c0,0,0,0,0,0c-0.1,0-0.1,0,0-0.1c0-0.1,0.1-0.2,0.1-0.3c0,0,0,0,0,0
			c0,0,0,0,0,0c0.1,0,0.1,0.1,0.2,0.1c0.1,0,0.1,0.1,0.1,0.1C14.4,11.5,14.3,11.6,14.2,11.6C14.3,11.6,14.3,11.6,14.2,11.6z
			 M14.1,11.4C14.2,11.5,14.2,11.5,14.1,11.4c0.1,0,0.1,0.1,0.1,0.1c0,0,0,0,0.1,0c0,0,0,0,0-0.1c0,0,0,0,0,0
			C14.2,11.3,14.2,11.3,14.1,11.4z"/>
		<path id="XMLID_282_" class="st7" d="M9.1,10.4c0-0.1,0-0.1,0-0.2c0,0,0,0,0,0c0.1,0,0.1,0,0.2,0c0.1,0,0.2,0.1,0.2,0.2
			c0,0,0,0.1,0,0.1c0,0.1-0.1,0.1-0.1,0.1c-0.1,0-0.1,0-0.2,0c0,0,0,0,0,0C9.1,10.5,9.1,10.5,9.1,10.4C9.1,10.4,9.1,10.4,9.1,10.4
			C9.1,10.4,9.1,10.4,9.1,10.4z M9.2,10.4C9.2,10.4,9.2,10.4,9.2,10.4C9.2,10.4,9.2,10.4,9.2,10.4c0,0.2,0,0.1,0.1,0.1c0,0,0,0,0,0
			c0,0,0.1,0,0.1-0.1c0-0.1,0-0.1,0-0.1c0,0,0-0.1-0.1-0.1c0,0-0.1,0-0.1,0c0,0,0,0,0,0C9.2,10.3,9.2,10.4,9.2,10.4z"/>
		<path id="XMLID_281_" class="st7" d="M15.2,12.3C15.2,12.3,15.1,12.3,15.2,12.3c-0.1,0-0.1-0.1-0.2-0.1c0,0,0-0.1,0-0.1
			c0,0,0-0.1,0-0.1c0,0,0,0,0.1,0c0,0,0,0,0,0C15,12.1,15.1,12.2,15.2,12.3C15.2,12.2,15.2,12.2,15.2,12.3c0-0.1,0-0.1,0-0.1
			c0,0,0,0,0-0.1c0,0,0,0-0.1-0.1c0,0,0,0,0-0.1c0-0.1,0.1-0.1,0.1-0.1c0.1,0,0.1,0.1,0.2,0.1c0,0,0,0.1,0,0.1c0,0,0,0,0,0
			c0,0,0,0,0,0c0,0,0,0,0-0.1c0,0,0,0,0-0.1c0,0,0,0-0.1,0c0,0,0,0,0,0c0,0,0,0,0,0c0,0,0,0,0.1,0.1c0,0,0,0,0.1,0.1
			C15.3,12.2,15.3,12.3,15.2,12.3z"/>
		<path id="XMLID_280_" class="st7" d="M15.8,12.3C15.8,12.3,15.8,12.4,15.8,12.3C15.8,12.4,15.8,12.4,15.8,12.3
			C15.8,12.4,15.8,12.4,15.8,12.3C15.8,12.4,15.7,12.3,15.8,12.3c-0.1-0.1-0.2-0.1-0.2-0.1c0,0,0,0,0,0c0,0,0,0,0,0c0,0,0,0,0.1,0.1
			c0,0,0,0,0,0c0,0.1,0,0.2-0.1,0.2c0,0,0,0,0,0c-0.1,0-0.1-0.1-0.1-0.1c0,0,0-0.1,0-0.1c0,0,0-0.1,0-0.1c0,0,0,0,0.1,0c0,0,0,0,0,0
			c0,0,0,0.1,0,0.1c0,0,0,0,0.1,0.1c0,0,0,0,0,0c0,0,0,0,0-0.1c0,0,0,0,0,0c0,0,0,0-0.1-0.1c0,0,0,0,0-0.1c0-0.1,0-0.2,0.1-0.1
			C15.7,12.2,15.8,12.2,15.8,12.3C15.8,12.3,15.8,12.3,15.8,12.3z"/>
		<path id="XMLID_279_" class="st7" d="M13.7,11.3c0,0,0.1,0.1,0.1,0.1c0,0,0,0,0,0c0,0,0,0.1-0.1,0.1c0,0,0,0,0,0
			c-0.1,0-0.1,0-0.2,0c-0.1,0-0.1-0.1-0.1-0.2c0-0.1,0-0.1,0.1-0.2c0,0,0.1,0,0.2,0c0,0,0.1,0,0.1,0.1c0,0,0.1,0.1,0,0.1
			c0,0,0,0,0,0c0,0,0,0,0,0c0-0.1-0.1-0.1-0.2-0.1c-0.1,0-0.1,0.1-0.1,0.2c0,0,0,0.1,0,0.1c0,0,0.1,0,0.1,0c0,0,0,0,0,0
			C13.8,11.4,13.7,11.4,13.7,11.3C13.7,11.4,13.7,11.4,13.7,11.3C13.7,11.3,13.7,11.3,13.7,11.3z"/>
		<path id="XMLID_276_" class="st7" d="M13.2,11.3c-0.1,0-0.1,0-0.1-0.1c-0.1,0-0.1-0.1-0.1-0.2c0,0,0-0.1,0-0.1
			c0-0.1,0.1-0.1,0.2-0.1c0,0,0.1,0,0.1,0c0.1,0,0.1,0.1,0.1,0.2c0,0.1,0,0.1-0.1,0.2C13.3,11.3,13.2,11.3,13.2,11.3z M13.2,11.2
			C13.2,11.2,13.2,11.2,13.2,11.2c0.1-0.1,0.1-0.1,0.1-0.2c0,0,0-0.1-0.1-0.1c0,0-0.1,0-0.1,0c0,0-0.1,0.1-0.1,0.1
			C13,11.2,13.1,11.2,13.2,11.2z"/>
		<path id="XMLID_275_" class="st7" d="M14.6,11.7C14.6,11.8,14.6,11.8,14.6,11.7c0,0.1,0.1,0.2,0.1,0.2c0,0,0,0,0,0.1
			c-0.1,0-0.2-0.1-0.3-0.1c0,0,0,0,0,0c0,0,0,0,0,0c0.1-0.1,0.1-0.2,0.2-0.3c0,0,0,0,0,0c0.1,0.1,0.2,0.1,0.3,0.2c0,0,0,0,0,0
			c0,0.1,0,0.1-0.1,0c0,0-0.1-0.1-0.1-0.1c0,0,0,0,0,0C14.6,11.7,14.6,11.7,14.6,11.7c0.1,0,0.2,0,0.2,0c0,0,0,0,0,0c0,0,0,0,0,0
			c0,0,0,0,0,0C14.7,11.8,14.7,11.8,14.6,11.7C14.6,11.8,14.6,11.8,14.6,11.7z"/>
		<path id="XMLID_272_" class="st7" d="M12,10.8C12,10.8,12,10.8,12,10.8c0,0.1,0,0.1,0,0.1c0,0,0,0,0,0c0,0,0,0,0,0c0,0,0,0,0-0.1
			c0-0.1,0.1-0.2,0.1-0.3c0,0,0,0,0,0c0,0,0,0,0,0c0.1,0,0.1,0,0.2,0.1c0.1,0,0.1,0.1,0.1,0.1c0,0.1,0,0.1-0.1,0.1
			C12.2,10.8,12.1,10.8,12,10.8C12.1,10.8,12,10.8,12,10.8z M12,10.7c0,0,0.1,0,0.1,0c0,0,0,0,0,0c0,0,0,0,0,0c0,0,0,0,0-0.1
			c0,0,0,0,0,0c0,0-0.1,0-0.1,0C12.1,10.6,12.1,10.6,12,10.7C12.1,10.6,12,10.6,12,10.7z"/>
		<path id="XMLID_269_" class="st7" d="M16.3,12.7C16.3,12.7,16.3,12.7,16.3,12.7c0,0.1-0.1,0.2-0.1,0.2c-0.1,0-0.1,0-0.2,0
			c-0.1-0.1-0.1-0.1-0.1-0.2c0-0.1,0.1-0.1,0.1-0.2C16.1,12.4,16.3,12.6,16.3,12.7z M16.2,12.7c0-0.1-0.1-0.1-0.1-0.1
			c-0.1,0-0.1,0.1-0.1,0.1c0,0,0,0.1,0,0.1c0,0,0.1,0,0.1,0C16.2,12.8,16.2,12.8,16.2,12.7C16.2,12.7,16.2,12.7,16.2,12.7z"/>
		<path id="XMLID_266_" class="st7" d="M7.9,10.5C7.9,10.4,7.9,10.4,7.9,10.5c0-0.2,0.1-0.2,0.2-0.2c0.1,0,0.1,0.1,0.2,0.2
			c0,0,0,0.1,0,0.1c0,0,0,0,0,0c0,0.1-0.1,0.1-0.2,0.1C8,10.7,8,10.6,7.9,10.5C7.9,10.5,7.9,10.5,7.9,10.5
			C7.9,10.5,7.9,10.5,7.9,10.5z M8.2,10.5C8.2,10.4,8.2,10.4,8.2,10.5c0-0.1-0.1-0.1-0.1-0.1c0,0-0.1,0-0.1,0.1c0,0.1,0,0.1,0,0.2
			c0,0,0.1,0,0.1,0C8.2,10.6,8.2,10.6,8.2,10.5C8.2,10.5,8.2,10.5,8.2,10.5z"/>
		<path id="XMLID_265_" class="st7" d="M11.4,10.5c-0.1,0-0.1,0-0.1,0c-0.1,0-0.1,0-0.1,0.1c0,0,0,0,0,0
			C11.2,10.5,11.3,10.5,11.4,10.5C11.3,10.5,11.3,10.5,11.4,10.5c0,0.1,0,0.1,0,0.1c0,0,0,0,0,0c0,0-0.1,0-0.1,0
			c-0.1,0-0.1,0-0.1,0.1c0,0,0,0,0,0c0,0,0,0,0,0c0,0,0.1,0,0.1,0c0,0,0,0,0.1,0c0,0,0,0,0,0.1c0,0,0,0,0,0c0,0,0,0,0,0
			c-0.1,0-0.2,0-0.2,0c0,0,0,0,0,0c0-0.1,0-0.1,0-0.2c0,0,0-0.1,0-0.1c0,0,0,0,0,0c0,0,0.1,0,0.1,0C11.3,10.4,11.3,10.4,11.4,10.5
			C11.4,10.4,11.4,10.4,11.4,10.5C11.4,10.4,11.4,10.4,11.4,10.5C11.4,10.4,11.4,10.4,11.4,10.5z"/>
		<path id="XMLID_264_" class="st5" d="M12.7,10.9C12.7,10.9,12.7,10.8,12.7,10.9c-0.1,0-0.1,0-0.1-0.1c0,0,0,0,0.1,0
			C12.7,10.7,12.7,10.8,12.7,10.9C12.8,10.8,12.8,10.8,12.7,10.9C12.7,10.9,12.7,10.9,12.7,10.9z"/>
		<path id="XMLID_263_" class="st5" d="M8.7,10.3C8.7,10.3,8.7,10.3,8.7,10.3C8.7,10.3,8.8,10.3,8.7,10.3
			C8.8,10.3,8.7,10.4,8.7,10.3c0,0.1,0,0.1,0,0.1c0,0,0,0,0,0C8.6,10.4,8.6,10.4,8.7,10.3C8.6,10.3,8.6,10.3,8.7,10.3
			C8.7,10.3,8.7,10.3,8.7,10.3C8.7,10.3,8.7,10.3,8.7,10.3z"/>
		<path id="XMLID_262_" class="st5" d="M14.1,11.4c0.1-0.1,0-0.1,0.1-0.1c0,0,0,0,0,0c0,0,0,0,0,0.1c0,0,0,0-0.1,0
			C14.2,11.5,14.2,11.5,14.1,11.4C14.2,11.5,14.2,11.5,14.1,11.4z"/>
		<path id="XMLID_261_" class="st5" d="M9.2,10.4c0,0,0-0.1,0-0.1c0,0,0,0,0,0c0,0,0.1,0,0.1,0c0,0,0.1,0,0.1,0.1c0,0,0,0.1,0,0.1
			c0,0,0,0.1-0.1,0.1c0,0,0,0,0,0C9.1,10.5,9.2,10.5,9.2,10.4C9.2,10.4,9.2,10.4,9.2,10.4C9.2,10.4,9.2,10.4,9.2,10.4z"/>
		<path id="XMLID_260_" class="st5" d="M13.2,11.2c-0.1,0-0.1,0-0.1-0.1c0-0.1,0-0.1,0.1-0.1c0,0,0.1,0,0.1,0c0,0,0.1,0.1,0.1,0.1
			C13.3,11.1,13.3,11.1,13.2,11.2C13.2,11.2,13.2,11.2,13.2,11.2z"/>
		<path id="XMLID_259_" class="st5" d="M12,10.7C12,10.6,12.1,10.6,12,10.7c0-0.1,0-0.1,0-0.1c0,0,0.1,0,0.1,0c0,0,0,0,0,0
			c0,0,0,0,0,0.1c0,0,0,0,0,0c0,0,0,0,0,0C12.1,10.7,12.1,10.7,12,10.7z"/>
		<path id="XMLID_258_" class="st5" d="M16.2,12.7C16.2,12.7,16.2,12.7,16.2,12.7c0,0.1-0.1,0.1-0.1,0.1c0,0-0.1,0-0.1,0
			c0,0,0-0.1,0-0.1c0-0.1,0.1-0.1,0.1-0.1C16.1,12.5,16.2,12.6,16.2,12.7z"/>
		<path id="XMLID_257_" class="st5" d="M8.2,10.5C8.2,10.5,8.2,10.5,8.2,10.5c0,0.1-0.1,0.1-0.1,0.1c0,0-0.1,0-0.1,0
			c0-0.1,0-0.1,0-0.2c0,0,0.1-0.1,0.1-0.1C8.2,10.3,8.2,10.3,8.2,10.5C8.2,10.4,8.2,10.4,8.2,10.5z"/>
	</g>
</g>
<g>
</g>
</svg>
