<?xml version="1.0" encoding="UTF-8"?>
<svg width="24px" height="24px" viewBox="0 0 24 24" version="1.1" xmlns="http://www.w3.org/2000/svg" xmlns:xlink="http://www.w3.org/1999/xlink">
    <!-- Generator: Sketch 55.2 (78181) - https://sketchapp.com -->
    <title>Китай</title>
    <desc>Created with Sketch.</desc>
    <defs>
        <path d="M23.8701395,11.968186 C23.8701395,18.5211163 18.5570233,23.8334884 12.003907,23.8334884 C5.45023256,23.8334884 0.137116279,18.5211163 0.137116279,11.968186 C0.137116279,5.41469767 5.45023256,0.102139535 12.003907,0.102139535 C18.5570233,0.102139535 23.8701395,5.41469767 23.8701395,11.968186 L23.8701395,11.968186 Z" id="path-1"></path>
    </defs>
    <g id="Page-1" stroke="none" stroke-width="1" fill="none" fill-rule="evenodd">
        <g id="Китай">
            <mask id="mask-2" fill="white">
                <use xlink:href="#path-1"></use>
            </mask>
            <g id="Clip-3162"></g>
            <polygon id="Fill-3161" fill="#FF1612" mask="url(#mask-2)" points="0.137116279 23.8334884 35.736 23.8334884 35.736 0.102139535 0.137116279 0.102139535"></polygon>
            <path d="M12.415814,1.3332093 L11.8896744,2.04390698 L11.051907,1.75944186 L11.5648372,2.48 L11.0351628,3.18827907 L11.8794419,2.92316279 L12.3895814,3.64539535 L12.3979535,2.76093023 L13.2433488,2.49897674 L12.4042791,2.21767442 L12.415814,1.3332093 Z M15.3285581,4.12055814 L14.4917209,4.40762791 L13.9622326,3.6987907 L13.9773023,4.58306977 L13.1393488,4.86697674 L13.9853023,5.12651163 L13.9957209,6.0107907 L14.5043721,5.28706977 L15.3490233,5.5495814 L14.8173023,4.84260465 L15.3285581,4.12055814 Z M15.5373023,8.05376744 L14.6524651,8.04 L14.3955349,7.19330233 L14.1086512,8.03013953 L13.2245581,8.01283721 L13.9322791,8.54381395 L13.6418605,9.37990698 L14.3657674,8.87106977 L15.0712558,9.40502326 L14.8117209,8.55981395 L15.5373023,8.05376744 Z M13.2102326,10.7825116 L12.3642791,10.5226047 L12.3536744,9.63813953 L11.8457674,10.3622326 L11.0005581,10.0989767 L11.532093,10.8061395 L11.0206512,11.528 L11.8578605,11.2413023 L12.3864186,11.9503256 L12.371907,11.0660465 L13.2102326,10.7825116 Z M6.07032558,2.47534884 L5.26139535,4.98139535 L2.62809302,4.97618605 L4.76130233,6.52 L3.94288372,9.02269767 L6.07032558,7.47106977 L8.19776744,9.02269767 L7.37897674,6.52 L9.51218605,4.97618605 L6.87925581,4.98139535 L6.07032558,2.47534884 L6.07032558,2.47534884 Z" id="Fill-3163" fill="#FEDF00" mask="url(#mask-2)"></path>
        </g>
    </g>
</svg>