<?xml version="1.0" encoding="UTF-8"?>
<svg width="24px" height="24px" viewBox="0 0 24 24" version="1.1" xmlns="http://www.w3.org/2000/svg" xmlns:xlink="http://www.w3.org/1999/xlink">
    <!-- Generator: Sketch 55.2 (78181) - https://sketchapp.com -->
    <title>Хорватия</title>
    <desc>Created with Sketch.</desc>
    <defs>
        <path d="M23.8692093,11.967814 C23.8692093,18.5213023 18.5570233,23.8338605 12.0031628,23.8338605 C5.45023256,23.8338605 0.137488372,18.5213023 0.137488372,11.967814 C0.137488372,5.41432558 5.45023256,0.101953488 12.0031628,0.101953488 C18.5570233,0.101953488 23.8692093,5.41432558 23.8692093,11.967814 L23.8692093,11.967814 Z" id="path-1"></path>
        <path d="M23.8692093,11.967814 C23.8692093,18.5213023 18.5570233,23.8338605 12.0031628,23.8338605 C5.45023256,23.8338605 0.137488372,18.5213023 0.137488372,11.967814 C0.137488372,5.41432558 5.45023256,0.101953488 12.0031628,0.101953488 C18.5570233,0.101953488 23.8692093,5.41432558 23.8692093,11.967814 L23.8692093,11.967814 Z" id="path-3"></path>
        <path d="M0.0176744186,0.0868837209 C1.53488372,0.0868837209 3.05209302,0.0868837209 4.56855814,0.0868837209 C6.08613953,0.0868837209 7.60372093,0.0868837209 9.12074419,0.0868837209 C9.12074419,1.99888372 9.12074419,3.91106977 9.12074419,5.82306977 C9.12074419,7.97190698 7.04167442,10.0829767 4.56855814,10.0829767 C2.096,10.0829767 0.0176744186,7.97190698 0.0176744186,5.82306977" id="path-5"></path>
        <path d="M23.8692093,11.967814 C23.8692093,18.5213023 18.5570233,23.8338605 12.0031628,23.8338605 C5.45023256,23.8338605 0.137488372,18.5213023 0.137488372,11.967814 C0.137488372,5.41432558 5.45023256,0.101953488 12.0031628,0.101953488 C18.5570233,0.101953488 23.8692093,5.41432558 23.8692093,11.967814 L23.8692093,11.967814 Z" id="path-7"></path>
    </defs>
    <g id="Page-1" stroke="none" stroke-width="1" fill="none" fill-rule="evenodd">
        <g id="Хорватия">
            <g id="Group-3210">
                <mask id="mask-2" fill="white">
                    <use xlink:href="#path-1"></use>
                </mask>
                <g id="Clip-3206"></g>
                <polygon id="Fill-3205" fill="#F90805" mask="url(#mask-2)" points="-5.79497674 8.01265116 29.8024186 8.01265116 29.8024186 0.101953488 -5.79497674 0.101953488"></polygon>
                <polygon id="Fill-3207" fill="#F0F0F0" mask="url(#mask-2)" points="-5.79497674 15.9233488 29.8024186 15.9233488 29.8024186 8.01265116 -5.79497674 8.01265116"></polygon>
                <polygon id="Fill-3208" fill="#0437A0" mask="url(#mask-2)" points="-5.79497674 23.8338605 29.8024186 23.8338605 29.8024186 15.9233488 -5.79497674 15.9233488"></polygon>
                <path d="M7.47460465,9.09004651 L6.39962791,6.65860465 L7.20539535,5.35069767 L8.59348837,5.85581395 L9.58251163,4.74548837 L10.8597209,5.47609302 L12.008186,4.55051163 L13.1434419,5.48390698 L14.4325581,4.75088372 L15.4111628,5.8584186 L16.7990698,5.35088372 L17.6070698,6.65060465 L16.5276279,9.08316279 C16.5276279,9.08316279 12.2954419,6.94902326 7.47460465,9.09004651" id="Fill-3209" fill="#0093DD" mask="url(#mask-2)"></path>
            </g>
            <g id="Group-3659">
                <mask id="mask-4" fill="white">
                    <use xlink:href="#path-3"></use>
                </mask>
                <g id="Clip-3655"></g>
                <path d="M7.47460465,9.09004651 L6.39962791,6.65860465 L7.20539535,5.35069767 L8.59348837,5.85581395 L9.58251163,4.74548837 L10.8597209,5.47609302 L12.008186,4.55051163 L13.1434419,5.48390698 L14.4325581,4.75088372 L15.4111628,5.8584186 L16.7990698,5.35088372 L17.6070698,6.65060465 L16.5276279,9.08316279 C16.5276279,9.08316279 12.2954419,6.94902326 7.47460465,9.09004651 Z" id="Stroke-3654" stroke="#F4F4F4" stroke-width="0.544" mask="url(#mask-4)"></path>
                <path d="M7.45953488,9.3892093 C8.97674419,9.3892093 10.4939535,9.3892093 12.0104186,9.3892093 C13.528,9.3892093 15.0455814,9.3892093 16.5626047,9.3892093 C16.5626047,11.3012093 16.5626047,13.2133953 16.5626047,15.1253953 C16.5626047,17.2742326 14.4835349,19.3853023 12.0104186,19.3853023 C9.53786047,19.3853023 7.45953488,17.2742326 7.45953488,15.1253953 C7.45953488,13.2133953 7.45953488,11.3012093 7.45953488,9.3892093 Z" id="Fill-3656" fill="#FFFFFF" mask="url(#mask-4)"></path>
                <path d="M7.45953488,9.3892093 C8.97674419,9.3892093 10.4939535,9.3892093 12.0104186,9.3892093 C13.528,9.3892093 15.0455814,9.3892093 16.5626047,9.3892093 C16.5626047,11.3012093 16.5626047,13.2133953 16.5626047,15.1253953 C16.5626047,17.2742326 14.4835349,19.3853023 12.0104186,19.3853023 C9.53786047,19.3853023 7.45953488,17.2742326 7.45953488,15.1253953 C7.45953488,13.2133953 7.45953488,11.3012093 7.45953488,9.3892093 Z" id="Stroke-3657" stroke="#F0120D" stroke-width="1.814" mask="url(#mask-4)"></path>
                <path d="M7.45953488,9.3892093 C8.97674419,9.3892093 10.4939535,9.3892093 12.0104186,9.3892093 C13.528,9.3892093 15.0455814,9.3892093 16.5626047,9.3892093 C16.5626047,11.3012093 16.5626047,13.2133953 16.5626047,15.1253953 C16.5626047,17.2742326 14.4835349,19.3853023 12.0104186,19.3853023 C9.53786047,19.3853023 7.45953488,17.2742326 7.45953488,15.1253953 C7.45953488,13.2133953 7.45953488,11.3012093 7.45953488,9.3892093" id="Fill-3658" fill="#F4F4F4" mask="url(#mask-4)"></path>
            </g>
            <g id="Group-3662" transform="translate(7.441860, 9.302326)">
                <mask id="mask-6" fill="white">
                    <use xlink:href="#path-5"></use>
                </mask>
                <g id="Clip-3661"></g>
                <polyline id="Fill-3660" fill="#F90805" mask="url(#mask-6)" points="9.04334884 0.147348837 7.25134884 0.147348837 7.25134884 2.13451163 5.45897674 2.13451163 5.45897674 0.147348837 3.66772093 0.147348837 3.66772093 2.13451163 1.87534884 2.13451163 1.87534884 0.147348837 0.0835348837 0.147348837 0.0835348837 2.13451163 1.87534884 2.13451163 1.87534884 4.12148837 3.66772093 4.12148837 3.66772093 8.09544186 5.45897674 8.09544186 5.45897674 4.12148837 3.66772093 4.12148837 3.66772093 2.13451163 5.45897674 2.13451163 5.45897674 4.12148837 7.25134884 4.12148837 7.25134884 8.09544186 9.04334884 8.09544186 9.04334884 10.0827907 7.25134884 10.0827907 7.25134884 8.09544186 5.45897674 8.09544186 5.45897674 10.0827907 3.66772093 10.0827907 3.66772093 8.09544186 1.87534884 8.09544186 1.87534884 10.0827907 0.0835348837 10.0827907 0.0835348837 8.09544186 1.87534884 8.09544186 1.87534884 6.10883721 0.0835348837 6.10883721 0.0835348837 4.12148837 1.87534884 4.12148837 1.87534884 6.10883721 9.04334884 6.10883721 9.04334884 4.12148837 7.25134884 4.12148837 7.25134884 2.13451163 9.04334884 2.13451163 9.04334884 0.147348837"></polyline>
            </g>
            <g id="Group-3665">
                <mask id="mask-8" fill="white">
                    <use xlink:href="#path-7"></use>
                </mask>
                <g id="Clip-3664"></g>
                <path d="M7.45953488,9.3892093 C8.97674419,9.3892093 10.4939535,9.3892093 12.0104186,9.3892093 C13.528,9.3892093 15.0455814,9.3892093 16.5626047,9.3892093 C16.5626047,11.3012093 16.5626047,13.2133953 16.5626047,15.1253953 C16.5626047,17.2742326 14.4835349,19.3853023 12.0104186,19.3853023 C9.53786047,19.3853023 7.45953488,17.2742326 7.45953488,15.1253953 C7.45953488,13.2133953 7.45953488,11.3012093 7.45953488,9.3892093 Z" id="Stroke-3663" stroke="#F4F4F4" stroke-width="0.871" mask="url(#mask-8)"></path>
            </g>
        </g>
    </g>
</svg>