<?xml version="1.0" encoding="UTF-8"?>
<svg width="24px" height="24px" viewBox="0 0 24 24" version="1.1" xmlns="http://www.w3.org/2000/svg" xmlns:xlink="http://www.w3.org/1999/xlink">
    <!-- Generator: Sketch 55.2 (78181) - https://sketchapp.com -->
    <title>Куба</title>
    <desc>Created with Sketch.</desc>
    <defs>
        <path d="M23.99325,11.9676279 C23.99325,18.5211163 18.6391875,23.8336744 12.0345,23.8336744 C5.4301875,23.8336744 0.0759375,18.5211163 0.0759375,11.9676279 C0.0759375,5.41432558 5.4301875,0.102139535 12.0345,0.102139535 C18.6391875,0.102139535 23.99325,5.41432558 23.99325,11.9676279 L23.99325,11.9676279 Z" id="path-1"></path>
    </defs>
    <g id="Page-1" stroke="none" stroke-width="1" fill="none" fill-rule="evenodd">
        <g id="Куба">
            <mask id="mask-2" fill="white">
                <use xlink:href="#path-1"></use>
            </mask>
            <g id="Clip-3673"></g>
            <path d="M-5.90325,23.8336744 L29.9724375,23.8336744 L29.9724375,19.0872558 L2.381625,19.0872558 L-5.90325,23.8336744 Z M29.9724375,14.3410233 L29.9724375,9.5947907 L10.6666875,9.5947907 L14.8093125,11.9676279 L10.6666875,14.3410233 L29.9724375,14.3410233 Z M29.9724375,4.84818605 L29.9724375,0.102139535 L-5.90325,0.102139535 L2.381625,4.84818605 L29.9724375,4.84818605 L29.9724375,4.84818605 Z" id="Fill-3672" fill="#0437A0" mask="url(#mask-2)"></path>
            <polyline id="Fill-3674" fill="#F90805" mask="url(#mask-2)" points="-5.90325 0.102139535 -5.90325 23.8336744 14.8093125 11.968 -5.90325 0.102139535"></polyline>
            <polyline id="Fill-3675" fill="#F0F0F0" mask="url(#mask-2)" points="2.381625 19.0872558 29.9724375 19.0872558 29.9724375 14.3410233 10.6666875 14.3410233 2.381625 19.0872558"></polyline>
            <polyline id="Fill-3676" fill="#F0F0F0" mask="url(#mask-2)" points="3.9905625 8.40818605 3.18525 10.8684651 0.578625 10.8684651 2.6863125 12.3886512 1.8811875 14.8470698 3.9905625 13.3266977 6.100125 14.8470698 5.294625 12.3886512 7.4025 10.8684651 4.795875 10.8684651 3.9905625 8.40818605"></polyline>
            <polyline id="Fill-3677" fill="#F0F0F0" mask="url(#mask-2)" points="10.6666875 9.5947907 29.9724375 9.5947907 29.9724375 4.84855814 2.381625 4.84855814 10.6666875 9.5947907"></polyline>
        </g>
    </g>
</svg>