<?xml version="1.0" encoding="UTF-8"?>
<svg width="24px" height="24px" viewBox="0 0 24 24" version="1.1" xmlns="http://www.w3.org/2000/svg" xmlns:xlink="http://www.w3.org/1999/xlink">
    <!-- Generator: Sketch 55.2 (78181) - https://sketchapp.com -->
    <title>Кипр</title>
    <desc>Created with Sketch.</desc>
    <defs>
        <path d="M23.930625,11.9676279 C23.930625,18.5211163 18.57675,23.8336744 11.9720625,23.8336744 C5.3675625,23.8336744 0.0133125,18.5211163 0.0133125,11.9676279 C0.0133125,5.41432558 5.3675625,0.101953488 11.9720625,0.101953488 C18.57675,0.101953488 23.930625,5.41432558 23.930625,11.9676279 L23.930625,11.9676279 Z" id="path-1"></path>
    </defs>
    <g id="Page-1" stroke="none" stroke-width="1" fill="none" fill-rule="evenodd">
        <g id="Кипр">
            <mask id="mask-2" fill="white">
                <use xlink:href="#path-1"></use>
            </mask>
            <g id="Clip-3680"></g>
            <polygon id="Fill-3679" fill="#F0F0F0" mask="url(#mask-2)" points="-5.965875 23.8336744 29.9098125 23.8336744 29.9098125 0.101953488 -5.965875 0.101953488"></polygon>
            <path d="M4.0629375,10.1778605 C4.2555,10.347907 4.5305625,10.6997209 4.8945,10.660093 C5.258625,10.6206512 5.5404375,10.3687442 5.637,10.0984186 C5.7331875,9.82827907 5.9116875,9.73525581 5.9349375,9.66065116 C5.958375,9.58586047 5.9116875,9.49488372 5.9844375,9.51590698 C6.0571875,9.53674419 6.19125,9.52297674 6.28725,9.50902326 C6.383625,9.49488372 6.3624375,9.44372093 6.460875,9.41339535 C6.559875,9.38325581 6.665625,9.38548837 6.74025,9.34567442 C6.8158125,9.30623256 7.1458125,9.48204651 7.336125,9.48669767 C7.52625,9.49153488 7.603875,9.55906977 7.6790625,9.64986047 C7.75425,9.74083721 7.960875,9.83646512 8.151,9.75255814 C8.341125,9.66865116 8.5760625,9.58697674 8.6844375,9.26548837 C8.7924375,8.94381395 8.92275,8.24130233 8.8243125,8.05004651 C8.7255,7.85897674 8.775,7.79832558 8.739375,7.67497674 C8.7043125,7.55125581 8.6833125,7.46939535 8.767875,7.53023256 C8.8524375,7.59106977 9.1741875,7.84260465 9.31725,7.85451163 C9.4606875,7.86586047 9.488625,7.81916279 9.5825625,7.87032558 C9.676875,7.92167442 9.9301875,7.99162791 10.041,7.90995349 C10.1514375,7.82846512 10.4424375,7.94976744 10.519875,7.96390698 C10.5975,7.97786047 10.8035625,7.8932093 10.87275,7.93730233 C10.942125,7.98176744 10.974,7.95627907 11.027625,7.98865116 C11.082,8.02139535 11.09925,8.08539535 11.1639375,8.03069767 C11.228625,7.97581395 11.2695,8.0692093 11.3341875,8.03665116 C11.3990625,8.00390698 11.4320625,7.97823256 11.5059375,8.01451163 C11.5798125,8.0504186 11.7136875,8.04 11.7913125,8.06213953 C11.8689375,8.08446512 11.892375,8.12967442 11.964,8.12855814 C12.0354375,8.12744186 12.1948125,8.09283721 12.2863125,8.11386047 C12.378,8.13506977 12.6549375,8.1012093 12.7303125,8.10697674 C12.8053125,8.11293023 12.85575,8.04874419 12.9474375,8.06753488 C13.0389375,8.08595349 13.245375,8.02939535 13.3801875,8.03069767 C13.515375,8.032 13.621125,7.93376744 13.69275,7.91869767 C13.764375,7.90362791 13.8219375,7.95627907 13.9486875,7.912 C14.0754375,7.86753488 14.0518125,7.90846512 14.1155625,7.93376744 C14.17875,7.95962791 14.29875,7.89786047 14.3715,7.85581395 C14.44425,7.81395349 14.5629375,7.72074419 14.7155625,7.64595349 C14.8681875,7.57134884 15.04425,7.52725581 15.18075,7.53432558 C15.316875,7.5412093 15.406125,7.52725581 15.5071875,7.5412093 C15.6080625,7.55534884 15.8805,7.40595349 16.0051875,7.38046512 C16.1295,7.3547907 16.2868125,7.34809302 16.4300625,7.27088372 C16.5735,7.19404651 16.99275,7.03683721 17.1688125,6.90846512 C17.3450625,6.78046512 17.4414375,6.78716279 17.530875,6.73376744 C17.6199375,6.68018605 17.7088125,6.54493023 17.7890625,6.45637209 C17.86875,6.36781395 17.9165625,6.38362791 17.926875,6.31813953 C17.9375625,6.25302326 17.941125,6.23088372 18.0421875,6.27069767 C18.1430625,6.30995349 18.1171875,6.2904186 18.19725,6.2904186 C18.277125,6.2904186 18.320625,6.32893023 18.3650625,6.29488372 C18.4095,6.26102326 18.43425,6.20316279 18.5000625,6.18790698 C18.5660625,6.17283721 18.6234375,6.17376744 18.675,6.14009302 C18.72675,6.10623256 18.7513125,6.13097674 18.8210625,6.10939535 C18.891,6.08781395 18.875625,6.07962791 18.942,6.03590698 C19.008375,5.99237209 18.9980625,5.98437209 19.0194375,5.93637209 C19.040625,5.88874419 19.10475,5.94102326 19.157625,5.8984186 C19.2105,5.85581395 19.1938125,5.82009302 19.242375,5.75609302 C19.291125,5.69190698 19.3183125,5.72818605 19.3861875,5.70232558 C19.45425,5.67665116 19.4473125,5.65451163 19.509,5.64595349 C19.5705,5.6372093 19.634625,5.65693023 19.6989375,5.60576744 C19.763625,5.55423256 19.817625,5.48725581 19.8789375,5.46604651 C19.941,5.4452093 20.0000625,5.50772093 20.047125,5.496 C20.094,5.48427907 20.111625,5.45283721 20.1545625,5.43646512 C20.1975,5.42009302 20.244375,5.46027907 20.306625,5.42288372 C20.3690625,5.38567442 20.347125,5.34623256 20.371125,5.30716279 C20.395125,5.26790698 20.4245625,5.28818605 20.4984375,5.28409302 C20.5723125,5.27981395 20.695125,5.16986047 20.7556875,5.14548837 C20.81625,5.12093023 20.8389375,5.14288372 20.8906875,5.1227907 C20.94225,5.10232558 20.9799375,5.06437209 21.0058125,5.0632363 C21.0315,5.06195349 20.9529375,5.12613953 20.92875,5.16874419 C20.904375,5.21116279 20.913375,5.26139535 20.8888125,5.29637209 C20.8644375,5.33134884 20.8948125,5.47125581 20.8366875,5.52074419 C20.778375,5.57004651 20.6690625,5.55274419 20.6270625,5.56595349 C20.5846875,5.57972093 20.590125,5.60651163 20.56725,5.6264186 C20.544375,5.64613953 20.5153125,5.6375814 20.4361875,5.65916279 C20.357625,5.68055814 19.9021875,5.88390698 19.8410625,5.96893023 C19.7799375,6.05432558 19.7870625,6.07851163 19.7424375,6.09339535 C19.697625,6.10902326 19.7270625,6.19497674 19.6719375,6.25451163 C19.6168125,6.31386047 19.5624375,6.38102326 19.479375,6.41655814 C19.396125,6.45153488 19.1878125,6.53916279 19.0831875,6.64539535 C18.97875,6.75125581 18.897,6.88167442 18.7936875,6.9144186 C18.690375,6.9467907 18.2098125,7.15776744 18.0151875,7.26734884 C17.8201875,7.37711628 17.2935,7.74809302 17.213625,8.00706977 C17.13375,8.26548837 17.1245625,8.25506977 16.9621875,8.29116279 C16.8001875,8.32725581 16.75425,8.24911628 16.6100625,8.27032558 C16.4653125,8.29116279 16.393875,8.2747907 16.2901875,8.40874419 C16.1870625,8.54288372 16.2,8.57432558 16.1154375,8.66269767 C16.0310625,8.75144186 15.951,9.00651163 15.936,9.13488372 C15.9204375,9.26325581 15.9451875,9.3784186 15.97575,9.44613953 C16.006125,9.51348837 15.9735,9.52167442 15.9406875,9.56613953 C15.9076875,9.61023256 15.9496875,9.60111628 15.983625,9.60446512 C16.0179375,9.608 16.092375,9.70995349 16.150125,9.80074419 C16.2075,9.89153488 16.2969375,9.93823256 16.3355625,9.99795349 C16.374375,10.0571163 16.419,10.1867907 16.486125,10.2446512 C16.552875,10.3032558 16.7776875,10.5252093 16.875375,10.5763721 C16.9726875,10.6277209 17.1148125,10.9458605 17.1855,11.0052093 C17.2558125,11.0647442 17.23125,11.1023256 17.2119375,11.123907 C17.192625,11.1453023 17.211375,11.2146977 17.25375,11.2362791 C17.296125,11.2578605 17.337375,11.2450233 17.3499375,11.2820465 C17.3630625,11.319814 17.3079375,11.3633488 17.2861875,11.3326512 C17.26425,11.3013953 17.2389375,11.296186 17.18025,11.3045581 C17.121375,11.3125581 17.0499375,11.2344186 16.98075,11.208186 C16.9111875,11.1821395 16.8800625,11.1715349 16.8358125,11.1453023 C16.7911875,11.1188837 16.7745,11.1339535 16.707,11.1242791 C16.6395,11.1142326 16.6370625,11.1218605 16.5718125,11.1317209 C16.506375,11.1415814 16.4788125,11.0850233 16.4154375,11.088 C16.3520625,11.0909767 16.39425,11.1291163 16.3085625,11.1626047 C16.2226875,11.1957209 16.1690625,11.1668837 16.059375,11.1988837 C15.9495,11.2310698 15.9448125,11.3149767 15.8855625,11.3456744 C15.8263125,11.3763721 15.7310625,11.448186 15.6676875,11.4669767 C15.6043125,11.4855814 15.4779375,11.3252093 15.35475,11.268093 C15.2315625,11.2111628 15.1704375,11.1704186 15.00225,11.1784186 C14.83425,11.1867907 14.5895625,11.1291163 14.4298125,11.1791628 C14.2700625,11.2292093 14.1586875,11.3108837 14.1091875,11.3923721 C14.0600625,11.4738605 14.01975,11.6347907 14.01525,11.7233488 C14.0105625,11.811907 14.027625,11.8580465 14.00175,11.9696744 C13.9760625,12.0816744 13.9725,12.167814 13.892625,12.251907 C13.81275,12.3354419 13.821,12.3938605 13.77525,12.4662326 C13.7295,12.5384186 13.61775,12.4546977 13.444875,12.4906047 C13.272375,12.5268837 13.287375,12.5533023 13.2376875,12.623814 C13.187625,12.6943256 13.1685,12.6956279 13.137,12.7227907 C13.1053125,12.7501395 13.062,12.7175814 13.0108125,12.7627907 C12.959625,12.8083721 12.9973125,12.8219535 12.915,12.848 C12.8326875,12.8744186 12.7591875,12.8267907 12.6735,12.8582326 C12.588,12.8896744 12.5664375,12.9224186 12.444,13.0053953 C12.321,13.087814 12.2319375,13.0340465 12.1685625,13.1034419 C12.1051875,13.1726512 12.06675,13.2150698 12.0133125,13.2245581 C11.9596875,13.2338605 11.9398125,13.2100465 11.8839375,13.2511628 C11.8280625,13.2926512 11.76,13.2837209 11.687625,13.3203721 C11.61525,13.3570233 11.5584375,13.2853953 11.4609375,13.2987907 C11.36325,13.312186 11.331375,13.3711628 11.278875,13.4152558 C11.22675,13.4595349 11.207625,13.4375814 11.1515625,13.4472558 C11.0949375,13.4573023 10.666875,13.3992558 10.5639375,13.3979535 C10.4611875,13.3972093 10.1806875,13.4098605 9.9725625,13.5054884 C9.764625,13.6007442 9.716625,13.6346047 9.6436875,13.7209302 C9.5709375,13.8072558 9.48525,13.7873488 9.423,13.8933953 C9.36075,13.9994419 9.3635625,14.0803721 9.3436875,14.1979535 C9.324,14.3157209 9.47175,14.4636279 9.5176875,14.5164651 C9.56325,14.5685581 9.551625,14.6619535 9.4704375,14.627907 C9.3894375,14.5944186 9.3849375,14.5253953 9.3013125,14.5572093 C9.21825,14.5882791 9.204,14.5021395 9.156,14.5293023 C9.107625,14.555907 9.08925,14.6117209 9.037125,14.5933023 C8.9855625,14.5745116 8.943375,14.5652093 8.8891875,14.6024186 C8.835,14.639814 8.8175625,14.6 8.8490625,14.5419535 C8.881125,14.4835349 8.904375,14.4115349 8.8318125,14.3531163 C8.7586875,14.2950698 8.748375,14.1354419 8.6836875,14.064186 C8.619,13.9931163 8.5783125,13.9771163 8.59425,13.9326512 C8.61,13.8883721 8.571375,13.8965581 8.5295625,13.8835349 C8.48775,13.8697674 8.461875,13.7970233 8.4061875,13.7808372 C8.3503125,13.7644651 8.3034375,13.7492093 8.245125,13.7546047 C8.185875,13.7596279 8.1568125,13.8061395 8.083125,13.7676279 C8.0090625,13.7293023 8.005875,13.7546047 7.9385625,13.7927442 C7.8710625,13.8305116 7.8463125,13.7693023 7.768875,13.7914419 C7.6914375,13.8137674 7.626375,13.7975814 7.572375,13.8288372 C7.518375,13.8604651 7.4908125,13.9443721 7.4145,13.9423256 C7.338,13.9408372 7.3333125,13.900093 7.273125,13.9257674 C7.2125625,13.9512558 7.17075,14.0053953 7.1235,13.9780465 C7.0768125,13.9506977 6.8503125,13.8539535 6.7299375,13.8409302 C6.60975,13.828093 6.532125,13.7810233 6.337125,13.6597209 C6.142125,13.5386047 6.0613125,13.5082791 5.9788125,13.4989767 C5.896875,13.4898605 5.830125,13.4950698 5.7961875,13.475907 C5.7620625,13.4565581 5.741625,13.3787907 5.67225,13.4117209 C5.6030625,13.4442791 5.5966875,13.4826047 5.569125,13.4617674 C5.541375,13.4405581 5.529,13.4026047 5.47875,13.3895814 C5.4283125,13.376 5.3461875,13.2444651 5.28975,13.2226977 C5.233125,13.2013023 5.2036875,13.1815814 5.1519375,13.1787907 C5.1001875,13.175814 5.102625,13.1129302 5.0540625,13.0692093 C5.0049375,13.0253023 4.9395,13.0587907 4.911,13.0340465 C4.8830625,13.0096744 4.8924375,12.9663256 4.89975,12.9019535 C4.9065,12.8377674 4.8706875,12.7886512 4.855125,12.7186977 C4.839375,12.6487442 4.855125,12.6117209 4.831125,12.5614884 C4.8069375,12.5114419 4.7866875,12.4749767 4.785375,12.3992558 C4.7844375,12.3233488 4.7476875,12.2855814 4.714875,12.272186 C4.6820625,12.2586047 4.6245,12.2284651 4.5999375,12.2066977 C4.575375,12.1853023 4.481625,12.2193488 4.447125,12.1149767 C4.41225,12.0107907 4.3460625,11.9722791 4.296375,11.9350698 C4.2474375,11.8976744 4.216125,11.8954419 4.2901875,11.7462326 C4.3644375,11.5972093 4.2699375,11.5704186 4.2114375,11.4608372 C4.15275,11.3510698 4.1758125,11.4106047 4.207875,11.2930233 C4.239375,11.1752558 4.2339375,11.1123721 4.1975625,11.059907 C4.1608125,11.0074419 4.1274375,10.7925581 4.0183125,10.6935814 C3.909375,10.5944186 3.8750625,10.480186 3.9009375,10.36 C3.926625,10.240186 3.976125,10.1093953 4.0629375,10.1778605" id="Fill-3681" fill="#F39229" mask="url(#mask-2)"></path>
            <path d="M5.019,14.420093 C5.019,14.420093 5.389875,14.3966512 5.7376875,14.9631628 C6.085125,15.5293023 5.9514375,15.5365581 5.9278125,15.5246512 C5.904375,15.5131163 5.329125,15.2660465 5.173875,15.0820465 C5.019,14.8978605 4.9955625,14.5508837 5.019,14.420093 Z M13.419,17.0437209 C13.425375,17.2870698 13.280625,17.3728372 13.2136875,17.3069767 C13.1390625,17.2333023 13.174125,17.1105116 13.419,17.0437209 Z M12.9883125,17.1888372 C12.9883125,17.1888372 12.345,17.1306047 11.966625,17.9789767 C11.966625,17.9789767 12.9298125,17.8762791 12.9883125,17.1888372 Z M13.3936875,18.2344186 C13.3936875,18.2344186 13.1259375,17.7704186 12.0991875,18.2504186 C12.0991875,18.2504186 12.7055625,18.6256744 13.3936875,18.2344186 Z M13.890375,17.9101395 C13.6081875,17.9750698 13.6115625,18.1436279 13.689,18.187907 C13.7724375,18.236093 13.9269375,18.1592558 13.890375,17.9101395 Z M13.8886875,17.5426977 C13.8886875,17.5426977 13.4656875,17.3025116 12.787125,17.8362791 C12.787125,17.8362791 13.804125,17.9830698 13.8886875,17.5426977 Z M15.2791875,17.5285581 C14.9304375,17.4550698 14.102625,17.4050233 14.0589375,17.6974884 C14.0154375,17.9899535 15.2064375,17.7105116 15.2791875,17.5285581 Z M14.66025,16.5425116 C14.66025,16.5425116 14.466,17.0911628 13.67775,17.220093 C13.67775,17.220093 13.9445625,16.4152558 14.66025,16.5425116 Z M16.0711875,15.5226047 C16.0711875,15.5226047 15.747375,16.2543256 15.1978125,16.5177674 C15.1978125,16.5177674 15.4606875,15.4059535 16.0711875,15.5226047 Z M15.0676875,16.3771163 C15.06675,16.6282791 14.93475,16.7036279 14.8599375,16.635907 C14.7796875,16.5627907 14.862,16.3633488 15.0676875,16.3771163 Z M15.4066875,16.7367442 C15.4066875,16.7367442 15.319875,17.2331163 14.2933125,17.2773953 C14.2933125,17.2773953 14.9465625,16.5806512 15.4066875,16.7367442 Z M15.42525,17.1226047 C15.430125,17.279814 15.3583125,17.408 15.270375,17.3635349 C15.1824375,17.3194419 15.3091875,17.1131163 15.42525,17.1226047 Z M16.7473125,16.6666047 C16.7473125,16.6666047 15.94875,16.4483721 15.5304375,16.9728372 C15.5304375,16.9728372 16.5478125,17.1732093 16.7473125,16.6666047 Z M16.7248125,16.2500465 C16.5465,16.2293953 16.3269375,16.3084651 16.3531875,16.4366512 C16.378875,16.5648372 16.7495625,16.4658605 16.7248125,16.2500465 Z M16.5433125,15.7192558 C16.5433125,15.7192558 16.0269375,15.7382326 15.6931875,16.5421395 C15.6931875,16.5421395 16.5388125,16.2811163 16.5433125,15.7192558 Z M17.5723125,15.5374884 C17.5723125,15.5374884 17.569875,16.1505116 16.6963125,16.020093 C16.6963125,16.020093 16.7030625,15.5771163 17.5723125,15.5374884 Z M16.615125,14.6811163 C16.5988125,14.8396279 16.5988125,15.123907 16.5305625,15.2684651 C16.4625,15.4128372 16.3708125,15.5387907 16.3708125,15.5387907 C16.3708125,15.5387907 16.2110625,14.800186 16.615125,14.6811163 Z M17.6510625,14.420093 C17.6510625,14.420093 17.2798125,14.3966512 16.932375,14.9631628 C16.5845625,15.5293023 16.71825,15.5365581 16.741875,15.5246512 C16.7655,15.5131163 17.3409375,15.2660465 17.4958125,15.0820465 C17.6510625,14.8978605 17.6746875,14.5508837 17.6510625,14.420093 Z M10.87875,18.2264186 L10.9798125,18.1170233 L11.3368125,18.2755349 L11.6938125,18.1170233 L11.7924375,18.2290233 L11.5903125,18.3289302 L12.0954375,18.6948837 L11.7995625,18.9748837 L11.3341875,18.3990698 L10.8763125,18.9724651 L10.5639375,18.6786977 L11.089875,18.3172093 L10.87875,18.2264186 Z M9.250875,17.0437209 C9.2445,17.2870698 9.388875,17.3728372 9.456,17.3069767 C9.530625,17.2333023 9.49575,17.1105116 9.250875,17.0437209 Z M9.6815625,17.1888372 C9.6815625,17.1888372 10.3246875,17.1306047 10.7030625,17.9789767 C10.7030625,17.9789767 9.7400625,17.8762791 9.6815625,17.1888372 Z M9.2761875,18.2344186 C9.2761875,18.2344186 9.54375,17.7704186 10.5703125,18.2504186 C10.5703125,18.2504186 9.9645,18.6256744 9.2761875,18.2344186 Z M8.7793125,17.9101395 C9.0615,17.9750698 9.058125,18.1436279 8.980875,18.187907 C8.89725,18.236093 8.74275,18.1592558 8.7793125,17.9101395 Z M8.781375,17.5426977 C8.781375,17.5426977 9.2038125,17.3025116 9.8825625,17.8362791 C9.8825625,17.8362791 8.8655625,17.9830698 8.781375,17.5426977 Z M7.3906875,17.5285581 C7.7394375,17.4550698 8.56725,17.4050233 8.61075,17.6974884 C8.65425,17.9899535 7.4634375,17.7105116 7.3906875,17.5285581 Z M8.0094375,16.5425116 C8.0094375,16.5425116 8.203875,17.0911628 8.992125,17.220093 C8.992125,17.220093 8.7253125,16.4152558 8.0094375,16.5425116 Z M6.5983125,15.5226047 C6.5983125,15.5226047 6.9226875,16.2543256 7.47225,16.5177674 C7.47225,16.5177674 7.209,15.4059535 6.5983125,15.5226047 Z M7.602,16.3771163 C7.6029375,16.6282791 7.735125,16.7036279 7.80975,16.635907 C7.89,16.5627907 7.80825,16.3633488 7.602,16.3771163 Z M7.2631875,16.7367442 C7.2631875,16.7367442 7.35,17.2331163 8.37675,17.2773953 C8.37675,17.2773953 7.7233125,16.5806512 7.2631875,16.7367442 Z M7.2444375,17.1226047 C7.23975,17.279814 7.3111875,17.408 7.3993125,17.3635349 C7.4874375,17.3194419 7.3606875,17.1131163 7.2444375,17.1226047 Z M5.92275,16.6666047 C5.92275,16.6666047 6.7213125,16.4483721 7.1390625,16.9728372 C7.1390625,16.9728372 6.12225,17.1732093 5.92275,16.6666047 Z M5.944875,16.2500465 C6.123375,16.2293953 6.3425625,16.3084651 6.316875,16.4366512 C6.2911875,16.5648372 5.9203125,16.4658605 5.944875,16.2500465 Z M6.126375,15.7192558 C6.126375,15.7192558 6.6433125,15.7382326 6.9766875,16.5421395 C6.9766875,16.5421395 6.1310625,16.2811163 6.126375,15.7192558 Z M5.0979375,15.5374884 C5.0979375,15.5374884 5.0998125,16.1505116 5.97375,16.020093 C5.97375,16.020093 5.966625,15.5771163 5.0979375,15.5374884 Z M6.0545625,14.6811163 C6.0710625,14.8396279 6.0710625,15.123907 6.139125,15.2684651 C6.2075625,15.4128372 6.2990625,15.5387907 6.2990625,15.5387907 C6.2990625,15.5387907 6.4588125,14.800186 6.0545625,14.6811163 L6.0545625,14.6811163 Z" id="Fill-3682" fill="#40AB19" mask="url(#mask-2)"></path>
        </g>
    </g>
</svg>