<?xml version="1.0" encoding="utf-8"?>
<!-- Generator: Adobe Illustrator 23.0.1, SVG Export Plug-In . SVG Version: 6.00 Build 0)  -->
<svg version="1.1" id="Слой_1" xmlns="http://www.w3.org/2000/svg" xmlns:xlink="http://www.w3.org/1999/xlink" x="0px" y="0px"
	 viewBox="0 0 24 24" style="enable-background:new 0 0 24 24;" xml:space="preserve">
<style type="text/css">
	.st0{clip-path:url(#SVGID_2_);}
	.st1{fill-rule:evenodd;clip-rule:evenodd;fill:#CE1528;}
	.st2{fill-rule:evenodd;clip-rule:evenodd;fill:#FFFFFF;}
	.st3{fill-rule:evenodd;clip-rule:evenodd;}
	.st4{fill:none;}
	.st5{fill:#FFFFFF;}
	.st6{fill:#C09309;}
	.st7{fill:none;stroke:#C09309;stroke-width:0.892;stroke-linecap:round;stroke-linejoin:round;}
</style>
<title>Таиланд Copy</title>
<desc>Created with Sketch.</desc>
<g>
	<defs>
		<circle id="SVGID_1_" cx="12" cy="12" r="12"/>
	</defs>
	<clipPath id="SVGID_2_">
		<use xlink:href="#SVGID_1_"  style="overflow:visible;"/>
	</clipPath>
	<g class="st0">
		<rect x="-10.1" y="-2.9" class="st1" width="43.7" height="9.7"/>
		<rect x="-10.1" y="6.8" class="st2" width="43.7" height="9.7"/>
		<rect x="-10.1" y="16.6" class="st3" width="43.7" height="9.7"/>
		<g>
			<g>
				<path class="st4" d="M10.7,10.1c0,0.2,0,1.2,0.8,2.2V9.9C11.1,10.1,10.8,10.1,10.7,10.1z"/>
				<g>
					<g>
						<path class="st5" d="M9.8,15.6C9.7,15.5,9.7,15.5,9.8,15.6C9.7,15.6,9.7,15.6,9.8,15.6C9.7,15.6,9.7,15.6,9.8,15.6
							C9.7,15.6,9.7,15.6,9.8,15.6C9.8,15.6,9.8,15.6,9.8,15.6z"/>
						<path class="st5" d="M12.5,15.8L12.5,15.8C12.5,15.8,12.5,15.8,12.5,15.8C12.5,15.9,12.5,15.9,12.5,15.8
							C12.5,15.9,12.5,15.9,12.5,15.8C12.5,15.9,12.5,15.9,12.5,15.8L12.5,15.8L12.5,15.8L12.5,15.8z"/>
						<path class="st5" d="M13.2,15.8C13.2,15.8,13.2,15.8,13.2,15.8C13.2,15.8,13.2,15.8,13.2,15.8C13.2,15.8,13.2,15.8,13.2,15.8
							C13.2,15.8,13.2,15.8,13.2,15.8C13.2,15.8,13.2,15.8,13.2,15.8C13.2,15.8,13.2,15.8,13.2,15.8C13.2,15.7,13.2,15.7,13.2,15.8z
							"/>
						<path class="st5" d="M11.9,15.9L11.9,15.9C11.9,15.8,11.9,15.8,11.9,15.9c-0.1,0-0.2,0-0.2,0c0,0,0,0,0,0c0,0,0,0,0,0
							c-0.1,0-0.1,0-0.1,0c0,0,0,0,0,0c0,0,0,0,0,0c0,0,0,0,0,0c0,0,0,0,0.1,0c0,0,0.1,0,0.1,0c0,0,0.1,0,0.1,0
							C11.8,15.9,11.9,15.9,11.9,15.9L11.9,15.9L11.9,15.9c-0.1,0.1-0.1,0.1,0,0.1c0,0,0,0,0,0c0,0,0,0,0,0
							C11.9,16,11.9,16,11.9,15.9L11.9,15.9z"/>
						<path class="st5" d="M10.8,15.7C10.8,15.7,10.7,15.7,10.8,15.7C10.7,15.6,10.7,15.6,10.8,15.7C10.7,15.6,10.7,15.6,10.8,15.7
							l-0.1,0L10.8,15.7C10.7,15.7,10.7,15.7,10.8,15.7C10.7,15.7,10.8,15.7,10.8,15.7C10.8,15.7,10.8,15.7,10.8,15.7z"/>
						<path class="st5" d="M12.2,15.8C12.2,15.8,12.2,15.8,12.2,15.8C12.1,15.9,12.1,15.9,12.2,15.8C12.2,15.9,12.2,15.9,12.2,15.8
							C12.2,15.9,12.2,15.9,12.2,15.8C12.2,15.9,12.2,15.9,12.2,15.8C12.2,15.8,12.2,15.8,12.2,15.8z"/>
						<path class="st5" d="M13.5,15.7C13.5,15.7,13.5,15.7,13.5,15.7C13.5,15.7,13.5,15.7,13.5,15.7C13.5,15.7,13.5,15.8,13.5,15.7
							C13.5,15.8,13.5,15.8,13.5,15.7C13.5,15.7,13.5,15.7,13.5,15.7C13.5,15.7,13.5,15.7,13.5,15.7z"/>
						<path class="st5" d="M13.6,15.8C13.6,15.8,13.6,15.8,13.6,15.8C13.6,15.8,13.6,15.8,13.6,15.8C13.7,15.8,13.7,15.8,13.6,15.8
							C13.7,15.8,13.7,15.8,13.6,15.8C13.7,15.8,13.7,15.8,13.6,15.8z"/>
						<path class="st5" d="M13.9,15.7C13.9,15.7,13.9,15.7,13.9,15.7C13.9,15.7,13.9,15.7,13.9,15.7C13.9,15.7,13.9,15.7,13.9,15.7
							C13.9,15.7,13.9,15.7,13.9,15.7C14,15.7,14,15.7,13.9,15.7C14,15.7,13.9,15.7,13.9,15.7z"/>
						<path class="st5" d="M13.7,15.7C13.7,15.7,13.7,15.7,13.7,15.7C13.6,15.6,13.6,15.6,13.7,15.7C13.6,15.7,13.6,15.7,13.7,15.7
							C13.6,15.7,13.6,15.7,13.7,15.7C13.6,15.7,13.6,15.7,13.7,15.7C13.6,15.7,13.6,15.7,13.7,15.7C13.7,15.7,13.7,15.7,13.7,15.7z
							"/>
						<path class="st6" d="M10.2,15.8C10.2,15.8,10.2,15.7,10.2,15.8C10.2,15.7,10.2,15.7,10.2,15.8c0-0.1,0-0.1,0-0.1
							c0,0,0,0,0-0.1c0,0,0,0,0,0c0,0,0,0,0,0c0,0,0,0,0,0c0,0,0,0,0,0c0,0,0,0,0,0c0,0,0,0,0,0c0,0,0,0,0,0c0,0,0,0,0,0
							C10.2,15.7,10.2,15.7,10.2,15.8c-0.1-0.1-0.1-0.1-0.1-0.1c0,0,0,0,0,0c0,0,0,0,0,0c0,0,0,0,0,0c0,0,0,0,0,0c0,0,0,0,0,0
							c0,0,0,0,0,0c0,0,0,0,0,0c0,0,0,0,0,0c0,0,0,0,0,0c0,0,0,0,0,0c0,0,0,0,0,0c0,0,0,0,0,0c0,0,0,0,0,0c0,0,0,0,0,0c0,0,0,0,0,0
							c0,0,0,0,0,0c0,0,0,0,0,0c0,0,0,0,0,0c0,0,0,0,0,0c0,0,0,0,0,0c0,0,0,0,0,0c0,0,0,0,0,0c0,0,0,0,0,0c0,0-0.1,0-0.1,0
							c0,0,0,0,0,0c0,0,0,0,0,0c0,0,0,0,0,0c0,0,0,0,0,0c0,0,0,0,0,0c0,0,0,0,0,0c0,0,0,0,0,0c0,0,0,0,0,0c0,0,0,0,0,0c0,0,0,0,0,0
							c0,0,0,0,0,0c0,0,0,0,0,0c0,0,0,0,0,0c0,0,0,0,0,0c0,0,0,0,0,0c0,0,0,0,0,0c0,0,0,0,0,0c0,0,0,0,0,0c0,0,0,0,0,0c0,0,0,0,0,0
							c0,0,0,0,0,0c0,0,0,0,0,0c0,0,0,0,0,0c0,0,0,0,0,0c0,0,0,0,0,0c0,0,0,0-0.1,0c0,0,0,0,0,0c0,0,0,0,0,0c0,0,0,0,0,0
							c0,0,0,0,0,0c0,0,0,0,0,0c0,0,0,0,0,0c0,0,0,0,0,0c0,0,0,0,0,0.1c0,0,0,0,0,0c0,0,0,0,0,0c0,0,0,0,0,0l0,0l0,0c0,0,0,0,0,0
							c0,0,0,0,0,0c0,0,0,0-0.1,0c0,0,0,0,0,0c0,0,0,0,0,0c0,0,0,0,0,0c0,0,0,0,0,0c0,0,0,0,0,0c0,0,0,0,0.1,0c0,0,0,0,0,0
							c0,0,0,0,0,0c0,0,0,0,0,0c0,0,0,0,0.1,0c0,0,0,0,0.1,0c0,0,0,0,0.1,0c0,0,0,0,0,0c0,0,0.1,0,0.2,0
							C10.1,15.8,10.2,15.8,10.2,15.8C10.2,15.8,10.2,15.8,10.2,15.8z M9.8,15.6C9.7,15.6,9.7,15.6,9.8,15.6
							C9.7,15.6,9.7,15.6,9.8,15.6C9.7,15.6,9.7,15.6,9.8,15.6C9.7,15.5,9.7,15.5,9.8,15.6C9.8,15.6,9.8,15.6,9.8,15.6z"/>
						<path class="st6" d="M9.7,15.7C9.7,15.8,9.7,15.8,9.7,15.7C9.7,15.8,9.7,15.8,9.7,15.7C9.7,15.8,9.7,15.8,9.7,15.7
							C9.8,15.8,9.8,15.8,9.7,15.7C9.7,15.7,9.7,15.7,9.7,15.7z"/>
						<path class="st6" d="M9.9,15.8C9.8,15.8,9.8,15.8,9.9,15.8C9.8,15.8,9.8,15.8,9.9,15.8C9.9,15.8,9.9,15.8,9.9,15.8
							C9.9,15.8,9.9,15.8,9.9,15.8C9.9,15.8,9.9,15.8,9.9,15.8z"/>
						<path class="st6" d="M9.7,15.4C9.7,15.4,9.7,15.4,9.7,15.4C9.7,15.4,9.7,15.4,9.7,15.4C9.7,15.4,9.8,15.4,9.7,15.4
							C9.8,15.4,9.7,15.3,9.7,15.4C9.7,15.3,9.7,15.3,9.7,15.4C9.7,15.4,9.7,15.4,9.7,15.4z"/>
						<path class="st6" d="M11.1,15.4C11.1,15.4,11,15.4,11.1,15.4C11,15.4,11,15.4,11.1,15.4C11,15.4,11,15.4,11.1,15.4
							c-0.1,0-0.1,0.1-0.1,0.1C11,15.5,11,15.5,11.1,15.4L11.1,15.4L11,15.5c0,0,0,0,0,0.1c0,0,0,0,0,0.1c0,0,0,0,0,0c0,0,0,0,0,0
							c0,0,0,0,0,0.1c0,0,0,0,0,0.1c0,0,0,0,0,0.1c0,0,0,0,0,0c0,0,0,0,0,0c0,0,0,0,0,0l0,0l0,0c0,0,0,0,0,0c0,0,0,0,0,0
							c0,0,0,0,0,0c0,0,0,0,0,0c0,0,0,0,0,0l0,0l0,0c0,0,0,0,0.1,0c0,0,0,0,0,0c0,0,0,0,0,0c0,0,0,0,0,0c0,0-0.1-0.1-0.1-0.1
							c0,0,0,0,0,0c0,0,0,0,0-0.1c0,0,0,0,0,0c0,0,0,0,0,0c0,0-0.1,0-0.1,0.1l0,0l0,0c0,0,0,0,0,0c0,0,0,0,0,0c0,0,0,0,0,0
							c0,0,0.1,0,0.1,0c0,0,0,0,0,0c0,0,0,0,0,0c0,0,0,0,0,0c0,0,0,0,0,0c0,0,0,0,0,0c0,0,0,0,0-0.1c0,0,0,0,0,0c0,0,0,0,0,0
							c0,0,0,0,0,0c0,0,0,0,0,0c0,0,0,0,0,0c0,0,0,0,0,0.1c0,0,0,0,0,0c0,0,0,0,0,0c0,0,0,0,0,0c0,0,0,0,0,0c0,0,0,0,0,0
							c0,0,0,0,0,0c0,0,0,0,0,0c0,0,0,0,0,0c0,0,0,0,0,0c0,0,0,0,0,0c0,0,0,0,0,0c0,0,0,0,0,0c0,0,0,0,0,0c0,0,0,0,0.1,0
							c0,0,0,0,0,0c0,0,0,0,0,0c0,0,0,0,0,0c0,0,0.1,0,0.1-0.1c0,0,0,0,0.1,0c0,0,0.1,0,0.1,0c0,0,0,0,0,0c0,0,0,0,0,0c0,0,0,0,0,0
							c0,0,0,0,0,0c0,0,0,0,0,0c0,0,0,0,0,0c0,0,0,0,0,0c0,0,0,0,0,0c0,0,0,0,0.1,0c0,0,0,0,0,0c0,0,0,0,0,0c0,0,0,0,0,0
							c0,0,0,0,0,0c0,0,0,0,0,0c0,0,0,0,0,0c0,0,0,0,0,0c0,0,0,0,0.1,0c0,0,0,0,0,0c0,0,0,0,0,0c0,0,0,0,0,0c0,0,0,0,0,0
							c0,0,0,0,0,0c0,0,0,0,0,0c0,0,0,0,0,0c0,0,0,0,0,0c0,0,0,0,0-0.1c0,0,0,0,0-0.1c0,0,0,0,0,0c0,0,0,0,0-0.1c0,0,0-0.1,0-0.1
							C11.1,15.5,11.1,15.5,11.1,15.4C11.1,15.5,11.1,15.5,11.1,15.4C11.1,15.4,11.1,15.4,11.1,15.4C11.1,15.4,11.1,15.4,11.1,15.4z
							 M10.8,15.7C10.8,15.7,10.7,15.7,10.8,15.7C10.7,15.7,10.7,15.7,10.8,15.7l-0.1,0L10.8,15.7C10.7,15.6,10.7,15.6,10.8,15.7
							C10.7,15.6,10.7,15.6,10.8,15.7C10.7,15.7,10.8,15.7,10.8,15.7C10.8,15.7,10.8,15.7,10.8,15.7z"/>
						<path class="st6" d="M10.1,15.8C10.1,15.8,10.1,15.8,10.1,15.8C10,15.8,10,15.8,10.1,15.8C10,15.8,10,15.8,10.1,15.8
							C10,15.9,10,15.9,10.1,15.8C10.1,15.9,10.1,15.9,10.1,15.8C10.1,15.9,10.1,15.8,10.1,15.8z"/>
						<path class="st6" d="M14.2,15.7C14.2,15.7,14.2,15.7,14.2,15.7C14.2,15.8,14.2,15.8,14.2,15.7C14.2,15.8,14.2,15.8,14.2,15.7
							C14.2,15.8,14.2,15.8,14.2,15.7C14.3,15.8,14.3,15.8,14.2,15.7C14.2,15.7,14.2,15.7,14.2,15.7z"/>
						<path class="st6" d="M13,15.8C13,15.8,13,15.8,13,15.8C13,15.8,13,15.8,13,15.8C13,15.8,13,15.7,13,15.8
							C13,15.7,13,15.7,13,15.7c0,0,0,0,0,0c0,0,0,0,0,0c0,0,0,0,0,0c0,0,0,0,0,0c0,0,0,0,0,0C12.9,15.8,12.9,15.8,13,15.8
							C13,15.8,13,15.8,13,15.8C13,15.9,13,15.9,13,15.9c0,0,0,0,0,0c0,0,0,0,0,0c0,0,0,0-0.1,0c0,0,0,0,0,0l0,0l0,0c0,0,0,0,0.1,0
							c0,0,0,0,0.1,0c0,0,0,0,0,0c0,0,0,0,0.1,0c0,0,0,0,0,0c0,0,0,0,0,0C13.1,15.9,13.1,15.9,13,15.8C13,15.8,13,15.8,13,15.8z"/>
						<path class="st6" d="M14.4,15.6C14.4,15.6,14.3,15.6,14.4,15.6C14.3,15.5,14.3,15.5,14.4,15.6C14.3,15.5,14.3,15.5,14.4,15.6
							c-0.1,0-0.1,0-0.2,0c0,0-0.1,0-0.1,0c0,0,0,0,0,0c0,0,0,0,0,0c0,0,0,0,0,0c0,0,0-0.1,0-0.1c0-0.1,0-0.1,0-0.1c0,0,0,0,0,0
							c0,0,0,0,0,0c0,0,0,0,0,0c0,0,0,0-0.1,0c0,0,0,0,0,0c0,0-0.1,0-0.1,0c0,0,0,0,0,0c0,0,0,0,0,0c0,0,0,0,0,0c0,0,0,0,0,0
							c0,0,0,0,0,0c0,0,0,0,0,0c0,0,0,0,0,0c0,0,0,0,0,0c0,0,0,0,0,0c0,0,0,0,0,0c0,0,0,0,0,0c0,0,0,0,0,0c0,0,0,0,0,0
							c0,0,0,0,0,0.1c0,0,0,0,0,0c0,0,0,0,0,0.1c0,0,0,0,0,0c0,0,0,0,0,0c0,0,0,0,0,0c0,0,0,0,0,0.1c0,0,0,0,0,0c0,0,0,0,0,0
							c0,0-0.1,0-0.1,0c0,0,0,0,0,0c0,0,0,0,0,0c0,0,0,0,0,0c0,0,0,0,0,0c0,0,0,0,0,0c0,0,0,0,0,0c0,0,0,0,0,0c0,0,0,0,0,0
							c0,0,0-0.1,0-0.1c0,0,0,0,0,0c0,0,0,0,0,0c0,0,0,0,0,0c0,0,0,0,0,0c0,0,0,0,0,0c0,0,0,0,0,0c0,0,0,0,0-0.1c0,0,0,0,0,0
							c0,0,0,0,0,0c0,0,0,0,0,0c0,0,0,0,0,0c0,0,0,0,0,0c0,0,0,0,0,0c0,0,0,0,0,0c0,0,0,0,0,0c0,0,0,0,0,0c0,0,0,0,0,0
							c0,0,0,0.1,0,0.1c0,0,0,0,0,0c0,0,0,0,0,0c0,0,0,0,0,0c0,0-0.1,0-0.1,0c0,0,0,0,0,0c0,0,0,0,0,0c0,0,0,0,0,0c0,0,0,0,0,0
							c0,0,0,0,0,0c0,0,0,0,0,0c0,0,0,0,0,0c0,0,0,0-0.1,0c0,0,0,0,0,0c0,0,0,0,0,0c0,0,0,0,0,0l0,0l0,0.1l0,0.1l0,0c0,0,0,0,0,0
							c0,0,0.1,0,0.1,0c0,0,0,0,0,0c0,0,0,0.1-0.1,0.1c0,0,0,0,0,0c0,0,0,0,0,0c0,0,0,0,0,0c0,0,0,0,0,0c0,0,0,0,0,0c0,0,0,0,0.1,0
							c0,0,0,0,0,0c0,0,0.1,0,0.1-0.1c0,0,0,0,0,0c0,0,0,0,0,0c0,0,0,0,0,0c0,0,0,0,0,0c0,0,0,0,0,0c0,0,0,0,0,0c0,0,0,0,0,0
							c0,0,0,0,0,0c0,0,0,0,0,0c0,0,0,0,0,0.1c0,0,0,0,0.1,0c0,0,0,0,0,0c0,0,0,0,0,0c0,0,0,0,0,0c0,0,0,0,0,0c0,0,0,0,0,0
							c0,0,0,0,0,0l0,0l0,0c0,0,0,0,0.1,0c0,0,0,0,0,0c0,0,0,0,0,0c0,0,0,0,0.1,0c0,0,0,0,0.1,0c0,0,0.1,0,0.1-0.1c0,0,0,0,0,0
							c0,0,0,0,0,0c0,0,0.1,0,0.1,0C14.2,15.7,14.3,15.7,14.4,15.6C14.3,15.6,14.3,15.6,14.4,15.6C14.3,15.6,14.3,15.6,14.4,15.6
							C14.4,15.6,14.4,15.6,14.4,15.6C14.4,15.6,14.4,15.6,14.4,15.6C14.4,15.6,14.4,15.6,14.4,15.6z M13.2,15.8
							C13.2,15.8,13.2,15.8,13.2,15.8C13.2,15.8,13.2,15.8,13.2,15.8C13.2,15.8,13.2,15.8,13.2,15.8C13.2,15.8,13.2,15.8,13.2,15.8
							C13.2,15.8,13.2,15.8,13.2,15.8C13.2,15.7,13.2,15.7,13.2,15.8C13.2,15.8,13.2,15.8,13.2,15.8z M13.5,15.7
							C13.5,15.8,13.5,15.8,13.5,15.7C13.5,15.8,13.5,15.7,13.5,15.7C13.5,15.7,13.5,15.7,13.5,15.7C13.5,15.7,13.5,15.7,13.5,15.7
							C13.5,15.7,13.5,15.7,13.5,15.7C13.5,15.7,13.5,15.7,13.5,15.7z M13.6,15.7C13.6,15.7,13.6,15.7,13.6,15.7
							C13.6,15.7,13.6,15.7,13.6,15.7C13.6,15.6,13.6,15.6,13.6,15.7C13.7,15.7,13.7,15.7,13.6,15.7C13.7,15.7,13.7,15.7,13.6,15.7
							C13.6,15.7,13.6,15.7,13.6,15.7C13.6,15.7,13.6,15.7,13.6,15.7z M13.7,15.8C13.7,15.8,13.7,15.8,13.7,15.8
							C13.6,15.8,13.6,15.8,13.7,15.8C13.6,15.8,13.6,15.8,13.7,15.8C13.7,15.8,13.7,15.8,13.7,15.8C13.7,15.8,13.7,15.8,13.7,15.8z
							 M13.9,15.7C13.9,15.7,13.9,15.7,13.9,15.7C13.9,15.7,13.9,15.7,13.9,15.7C13.9,15.7,13.9,15.7,13.9,15.7
							C13.9,15.7,13.9,15.7,13.9,15.7C13.9,15.7,14,15.7,13.9,15.7C14,15.7,14,15.7,13.9,15.7z"/>
						<path class="st6" d="M12.8,15.9C12.8,15.9,12.8,15.9,12.8,15.9C12.8,15.8,12.8,15.8,12.8,15.9c0-0.1,0-0.1,0-0.2
							c0,0,0-0.1,0-0.1c0,0,0,0,0,0c0,0,0,0,0,0c0,0,0,0,0,0c0,0,0,0,0,0c0,0,0,0,0,0C12.7,15.8,12.7,15.8,12.8,15.9
							c-0.1,0-0.1,0-0.1,0c0,0,0,0,0,0c0,0-0.1,0-0.1,0c0,0,0,0,0-0.1c0,0,0-0.1,0-0.1c0,0,0,0,0-0.1c0,0,0-0.1,0-0.1c0,0,0,0,0-0.1
							c0,0,0,0,0,0c0,0,0,0,0,0c0,0,0,0-0.1,0.1c0,0,0,0,0,0c0,0,0,0,0,0c0,0,0,0,0,0c0,0,0,0,0,0c0,0,0,0,0,0c0,0,0,0,0,0
							c0,0,0,0,0,0c0,0,0,0,0,0c0,0,0,0,0,0c0,0,0,0,0,0c0,0,0,0,0,0c0,0,0,0,0,0c0,0,0,0,0,0c0,0,0,0,0,0c0,0,0,0,0,0c0,0,0,0,0,0
							c0,0,0,0,0,0v0l0,0l0,0c0,0,0,0,0,0c0,0,0.1,0,0.2,0C12.7,15.9,12.7,15.9,12.8,15.9C12.8,15.9,12.8,15.9,12.8,15.9
							C12.8,15.9,12.8,15.9,12.8,15.9C12.8,15.9,12.8,15.9,12.8,15.9C12.8,15.9,12.8,15.9,12.8,15.9z M12.5,15.9
							C12.5,15.9,12.5,15.9,12.5,15.9C12.5,15.9,12.5,15.9,12.5,15.9C12.5,15.9,12.5,15.9,12.5,15.9C12.5,15.8,12.5,15.8,12.5,15.9
							L12.5,15.9L12.5,15.9L12.5,15.9L12.5,15.9z"/>
						<path class="st6" d="M12.3,15.8C12.3,15.8,12.3,15.8,12.3,15.8c0-0.1,0-0.1,0-0.1c0,0,0,0,0,0c0,0,0,0,0,0c0,0,0,0-0.1,0
							c0,0,0,0,0,0c0,0,0,0,0,0c0,0,0,0,0,0c0,0,0,0,0,0c0,0,0,0,0,0c0,0,0,0,0,0c0,0,0,0,0-0.1l0,0l0,0c0,0,0,0-0.1,0
							c0,0-0.1,0-0.1,0c0,0,0,0,0,0c0,0-0.1,0-0.1,0c-0.1,0-0.1,0-0.1,0c0,0,0,0,0,0c0,0,0,0,0,0c0,0,0,0,0,0c0,0,0,0,0,0
							c0,0,0,0-0.1,0c0,0,0,0,0,0c0,0,0,0,0,0c0,0,0,0,0,0c0,0,0,0.1,0,0.1c0,0,0,0,0,0c0,0,0,0,0,0c0,0,0,0,0,0c0,0,0,0,0,0
							c0,0,0,0,0,0c0,0,0,0,0,0c0,0,0-0.1,0-0.1c0,0,0,0,0,0c0,0,0,0,0,0c0,0,0,0,0,0c0,0,0,0,0,0c0,0,0,0,0,0.1c0,0,0,0,0,0.1
							c0,0,0,0,0,0c0,0,0,0,0,0c0,0,0,0,0,0c0,0,0,0-0.1,0c0,0,0,0,0,0c0,0-0.1,0-0.1,0c0,0,0,0,0,0c0,0,0,0,0,0c0,0,0,0,0,0
							c0,0,0.1,0,0.1,0c0,0,0,0,0,0c0,0,0,0,0,0c0,0,0,0,0,0c0,0,0,0,0,0c0,0,0,0,0,0c0,0,0,0,0,0c0,0,0,0,0,0c0,0,0,0,0.1,0
							c0,0,0.1,0,0.1,0c0,0,0.1,0,0.1,0c0,0,0,0,0,0c0,0,0,0,0,0.1c0,0,0,0,0.1,0c0,0,0,0,0,0c0,0,0,0,0,0c0,0,0,0,0,0c0,0,0,0,0,0
							c0,0,0,0,0,0c0,0,0,0,0,0c0,0,0,0,0,0c0,0,0,0,0,0c0,0,0.1,0,0.1,0l0.1,0l0,0l0,0L12.3,15.8C12.3,15.9,12.3,15.8,12.3,15.8z
							 M11.9,16C11.9,16,11.9,16,11.9,16C11.9,16,11.9,16,11.9,16C11.9,16,11.9,16,11.9,16L11.9,16L11.9,16
							C11.9,15.9,11.8,15.9,11.9,16c-0.1-0.1-0.1-0.1-0.2-0.1c0,0-0.1,0-0.1,0c0,0,0,0-0.1,0c0,0,0,0,0,0c0,0,0,0,0,0c0,0,0,0,0,0
							c0,0,0,0,0.1,0c0,0,0,0,0,0c0,0,0,0,0,0c0,0,0,0,0.1,0c0.1,0,0.1,0,0.1,0l0,0L11.9,16C11.9,16,11.9,16,11.9,16z M12.2,15.9
							C12.2,15.9,12.2,15.9,12.2,15.9C12.1,15.9,12.1,15.9,12.2,15.9C12.2,15.8,12.2,15.8,12.2,15.9C12.2,15.8,12.2,15.8,12.2,15.9
							C12.2,15.9,12.2,15.9,12.2,15.9C12.2,15.9,12.2,15.9,12.2,15.9z"/>
						<path class="st6" d="M11.2,15.9C11.2,15.9,11.2,15.9,11.2,15.9C11.2,15.8,11.2,15.8,11.2,15.9c0-0.1,0-0.1,0-0.1c0,0,0,0,0,0
							c0-0.1,0-0.1,0-0.1c0,0,0,0,0,0c0,0,0,0,0,0c0,0,0,0,0,0c0,0,0,0,0,0c0,0,0,0,0-0.1c0,0,0,0,0,0c0,0,0,0,0,0c0,0,0,0,0,0
							c0,0,0,0,0,0c0,0,0,0,0,0c0,0,0,0,0,0.1c0,0,0,0,0,0c0,0,0,0,0,0c0,0,0,0,0,0.1c0,0,0,0.1,0,0.1
							C11.1,15.8,11.1,15.8,11.2,15.9C11.1,15.8,11.1,15.8,11.2,15.9C11.1,15.9,11.1,15.9,11.2,15.9L11.2,15.9L11.2,15.9
							C11.1,15.9,11.1,15.9,11.2,15.9C11.2,15.9,11.2,15.9,11.2,15.9C11.2,15.9,11.2,15.9,11.2,15.9z"/>
						<path class="st6" d="M12.4,15.6C12.4,15.6,12.4,15.6,12.4,15.6C12.4,15.6,12.4,15.5,12.4,15.6C12.4,15.5,12.4,15.5,12.4,15.6
							C12.4,15.5,12.3,15.5,12.4,15.6C12.3,15.5,12.4,15.6,12.4,15.6z"/>
						<path class="st6" d="M12.7,16C12.7,16,12.7,16,12.7,16C12.7,16,12.6,16,12.7,16c-0.1,0-0.1,0-0.1,0c0,0,0,0-0.1,0c0,0,0,0,0,0
							c0,0,0,0,0,0c0,0,0,0,0,0c0,0,0,0,0,0C12.6,16.1,12.6,16.1,12.7,16C12.6,16.1,12.6,16,12.7,16C12.6,16,12.6,16,12.7,16
							C12.6,16.1,12.6,16.1,12.7,16C12.7,16.1,12.7,16.1,12.7,16C12.7,16.1,12.7,16.1,12.7,16C12.7,16,12.7,16,12.7,16z"/>
						<path class="st6" d="M12.4,15.7C12.4,15.7,12.5,15.7,12.4,15.7C12.5,15.6,12.4,15.6,12.4,15.7L12.4,15.7L12.4,15.7
							C12.4,15.6,12.4,15.6,12.4,15.7C12.4,15.7,12.4,15.7,12.4,15.7C12.4,15.7,12.4,15.7,12.4,15.7z"/>
					</g>
					<g>
						<path class="st6" d="M15,15.4C15,15.4,15,15.4,15,15.4C15,15.4,15,15.4,15,15.4C15,15.3,15,15.3,15,15.4
							C15,15.3,15,15.3,15,15.4C15,15.3,15,15.3,15,15.4C15,15.3,15,15.3,15,15.4C14.9,15.3,14.9,15.3,15,15.4
							C14.9,15.3,14.9,15.3,15,15.4C14.9,15.3,14.9,15.3,15,15.4C14.9,15.3,14.9,15.3,15,15.4c-0.1,0-0.1-0.1-0.2-0.1
							c0-0.1-0.1-0.1-0.2-0.1c0,0,0,0,0-0.1c0.1-0.2,0-0.3-0.1-0.4c-0.1-0.1-0.1-0.1-0.2-0.1c-0.1-0.1-0.1-0.1-0.2,0
							c0,0-0.1,0-0.1,0c0,0,0,0-0.1,0l-0.4-1.4l1.9,1.7l-0.2-5.7c0,0,0-0.4-0.3-0.6c-0.2-0.1-0.4-0.1-0.7,0
							c-0.2,0.1-0.3,0.1-0.4,0.2c-0.3,0.1-0.4,0.2-0.7,0.2c-0.1,0-0.2,0-0.3,0c-0.2-0.2-0.3-0.7-0.3-1.1c0-0.5-0.1-0.7-0.2-0.8
							c0,0-0.1-0.1-0.1-0.1C12.2,7.1,12,7,11.8,7c0,0,0,0,0,0c0,0-0.1,0-0.1,0c0,0,0,0,0,0c0,0,0,0,0,0c0,0,0,0,0,0
							c-0.2,0-0.3-0.1-0.4,0c0,0-0.1,0-0.1,0c0,0,0,0,0,0c0,0,0,0,0,0c0,0,0,0,0,0c0,0,0,0,0,0c0,0,0,0,0,0c0,0,0,0,0,0c0,0,0,0,0,0
							c0,0,0,0,0,0c0,0,0,0,0,0c0,0,0,0,0,0l0,0l0,0c0,0.1,0,0.2,0,0.2c0,0,0,0,0,0l0,0.1l0.1-0.1c0,0,0.1,0,0.1,0
							c0.1,0,0.2,0.1,0.2,0.2c0,0,0,0,0,0.1c0,0,0,0,0,0c0,0,0,0,0,0c0,0,0,0,0,0c0,0,0,0,0,0c0,0.2,0,0.4-0.1,0.7
							c-0.1,0.3-0.2,0.6-0.3,0.7c-0.1,0-0.2,0-0.3,0c-0.3,0-0.4-0.1-0.7-0.2C10.1,8.9,10,8.8,9.8,8.7c-0.3-0.1-0.6-0.2-0.7,0
							C8.8,8.9,8.8,9.3,8.8,9.3l-0.2,5.7l1.9-1.7L10,14.6c0,0,0,0-0.1,0c0,0-0.1,0-0.1,0c-0.1,0-0.2,0-0.2,0c-0.1,0-0.1,0-0.2,0.1
							c0,0-0.1,0.2-0.1,0.4c0,0,0,0.1,0,0.1c-0.1,0-0.2,0.1-0.2,0.2c0,0.1-0.1,0.1-0.1,0.1c0,0,0,0,0,0c0,0,0,0,0,0c0,0,0,0,0,0
							c0,0,0,0,0,0c0,0,0,0,0,0c0,0,0,0,0,0c0,0,0,0,0,0c0,0,0,0,0,0c0,0,0,0,0,0c0,0,0,0,0,0c0,0,0,0,0,0c0,0,0,0,0,0c0,0,0,0,0,0
							c0,0,0,0,0,0c0,0,0,0,0,0c0,0,0,0,0,0c0,0,0,0,0,0c0,0,0,0,0,0c0,0,0,0,0,0c0,0,0,0,0,0c0,0,0,0,0,0c0,0,0,0,0,0c0,0,0,0,0,0
							c0,0,0,0,0,0.1c0,0.1,0,0.2,0.2,0.2c0,0.1,0,0.3,0.2,0.3c0.3,0.1,1,0.2,2.5,0.2c0,0,0.1,0,0.1,0l0.1,0c0.9,0,2.1-0.1,2.4-0.3
							c0.2-0.1,0.2-0.2,0.1-0.3c0.1-0.1,0.1-0.2,0.2-0.2C14.9,15.4,14.9,15.4,15,15.4C14.9,15.4,14.9,15.4,15,15.4
							C14.9,15.4,14.9,15.4,15,15.4C14.9,15.4,14.9,15.4,15,15.4C15,15.4,15,15.4,15,15.4C15,15.4,15,15.4,15,15.4
							C15,15.4,15,15.4,15,15.4C15,15.4,15,15.4,15,15.4C15,15.4,15,15.4,15,15.4C15,15.4,15,15.4,15,15.4C15,15.4,15,15.4,15,15.4
							C15,15.4,15,15.4,15,15.4C15,15.4,15,15.4,15,15.4z M14.3,14.7C14.3,14.7,14.3,14.7,14.3,14.7C14.3,14.7,14.3,14.7,14.3,14.7
							C14.4,14.7,14.4,14.7,14.3,14.7c0.1,0,0.1,0,0.2,0c0,0,0.1,0.1,0.1,0.3c0,0-0.1,0-0.1-0.1c-0.1,0-0.1,0-0.1,0c0,0,0,0,0,0
							c0,0,0,0,0,0c0,0,0,0,0,0c0,0,0,0,0,0C14.3,14.7,14.3,14.7,14.3,14.7z M14,14.7c0,0,0.1,0,0.1,0c0.1,0,0.1,0,0.1,0
							c-0.1,0.1-0.1,0.1,0,0.2c0,0,0,0,0,0c-0.1,0-0.2,0.1-0.3,0.1c-0.1,0-0.3,0.1-0.5,0.1l0,0c0-0.1,0-0.2-0.1-0.2c0,0-0.1,0-0.1,0
							c-0.2,0-0.1,0.1-0.1,0.2c0,0,0,0,0,0c-0.3,0-0.6,0.1-0.8,0c0,0,0,0,0,0c0-0.1,0-0.2-0.1-0.2c0,0,0,0,0,0c0.1,0,0.2,0,0.3,0
							c0.2,0,0.4,0,0.6,0c0.2,0,0.3-0.1,0.5-0.1v0C13.9,14.7,14,14.7,14,14.7z M13.4,15.1C13.4,15.2,13.4,15.2,13.4,15.1
							C13.4,15.2,13.4,15.2,13.4,15.1c-0.1,0.1-0.1,0.1-0.1,0.1C13.4,15.2,13.3,15.2,13.4,15.1c-0.1,0.1-0.1,0.1-0.1,0.1
							c0,0,0,0,0,0c0,0,0,0,0,0c0,0,0,0,0,0c0,0,0,0,0,0c0-0.1,0-0.1,0.1-0.1c0,0,0.1,0,0.1,0C13.4,14.9,13.4,15,13.4,15.1
							L13.4,15.1L13.4,15.1C13.4,15.1,13.4,15.1,13.4,15.1z M12.1,15C12.1,15.1,12.1,15.1,12.1,15l-0.1,0.1c0,0,0,0,0-0.1
							c0-0.1-0.1-0.1-0.1-0.1c0,0,0,0,0,0c0,0-0.1-0.1-0.1-0.1c-0.1,0-0.2,0-0.3,0l0-0.2l0.1,0.1l0.2-0.1l0.2-1.3l-0.1,1.3l0.2,0.2
							l0.2-0.2l-0.1-1.3l0.2,1.3l0.2,0.1l0.1-0.1l0,0.2c-0.1,0-0.2,0-0.3,0c0,0-0.1,0-0.1,0.1c0,0,0,0,0,0
							C12.2,14.9,12.1,15,12.1,15z M11.9,15.3c0,0-0.1,0-0.1-0.1c-0.1,0-0.1-0.1-0.1-0.1c0,0,0,0,0,0c0,0,0,0,0,0c0,0,0,0,0,0
							c0,0,0,0,0,0c0-0.1,0-0.1,0.1-0.1c0,0,0,0,0,0c0,0,0,0,0,0c0,0,0,0,0,0c0,0,0,0,0.1,0.1C11.9,15.1,11.9,15.2,11.9,15.3z
							 M11.4,14.6l-0.1,0.3c-0.1,0-0.1,0-0.2,0L11,14.5c0,0,0,0,0,0c0,0,0,0,0,0l-0.2,0.3c0,0,0,0-0.1,0l-0.1-0.4l0.2-0.4l0.1,0.4
							c0,0,0,0,0,0c0,0,0,0,0,0l0.3-0.4L11.4,14.6L11.4,14.6L11.4,14.6z M11,14.8c-0.1,0-0.1,0-0.2,0l0.1-0.2L11,14.8z M10.6,14.8
							c-0.1,0-0.2,0-0.3-0.1l0.2-0.3L10.6,14.8z M10.6,10c0.1,0,0.9,0,1.4-0.4c0.6,0.4,1.3,0.4,1.4,0.4c0,0.2,0,1.8-1.4,3
							C10.5,11.8,10.6,10.2,10.6,10z M11.1,12.5l-0.3,0.3l-0.1-0.2c0,0,0,0,0,0l0.3-0.9c0,0.1,0.1,0.1,0.1,0.2L11.1,12.5z M10.7,11
							l-0.1,1.6l-0.2,0.6l0,0l0.1-2.6C10.6,10.7,10.6,10.9,10.7,11z M13.5,13.1l-0.1-0.5L13.3,11c0-0.2,0.1-0.3,0.1-0.4L13.5,13.1z
							 M13,11.9c0-0.1,0.1-0.1,0.1-0.2l0.3,0.9c0,0,0,0,0,0l-0.1,0.2l-0.3-0.3L13,11.9C13,11.9,13,11.9,13,11.9z M13.3,14.8
							C13.3,14.8,13.3,14.8,13.3,14.8l-0.2-0.3c0,0,0,0,0,0c0,0,0,0,0,0l-0.1,0.3c-0.1,0-0.2,0-0.2,0l-0.1-0.3l0,0l0-0.1l0.1-0.5
							l0.3,0.4c0,0,0,0,0,0c0,0,0,0,0,0l0.1-0.4l0.2,0.4L13.3,14.8z M13.5,14.4l0.2,0.3c-0.1,0-0.2,0-0.3,0.1L13.5,14.4z M13.2,14.8
							c-0.1,0-0.1,0-0.2,0l0.1-0.2L13.2,14.8z M12.6,14.3l-0.2-0.8l0.3,0.4L12.6,14.3z M12.4,12.6c0.1-0.1,0.1-0.2,0.2-0.2l0.2,0.2
							L12.8,13L12.4,12.6z M12.5,12.8l-0.2,0.6l0,0l-0.1-0.6c0.1,0,0.1-0.1,0.2-0.1L12.5,12.8z M12.7,12.3c0.1-0.1,0.2-0.2,0.2-0.3
							l-0.1,0.5L12.7,12.3z M11.3,12.3l-0.2,0.2L11.1,12C11.2,12.1,11.2,12.2,11.3,12.3z M11.4,12.4c0.1,0.1,0.1,0.2,0.2,0.2
							L11.2,13l-0.1-0.5L11.4,12.4z M11.6,12.6c0,0,0.1,0.1,0.2,0.1l-0.1,0.6l0,0l-0.2-0.6L11.6,12.6z M11.3,13.9l0.3-0.4l-0.2,0.8
							L11.3,13.9z M12.1,15.1C12.2,15,12.2,15,12.1,15.1C12.2,15,12.2,15,12.1,15.1c0.1-0.1,0.1-0.1,0.1-0.1c0,0,0,0,0,0
							c0.1,0,0.1,0.1,0.1,0.1c0,0,0,0,0,0c0,0,0,0,0,0c0,0,0,0,0,0c0,0,0,0,0,0c0,0,0,0-0.1,0.1c-0.1,0-0.1,0-0.1,0.1
							C12.1,15.2,12.1,15.1,12.1,15.1z M13.9,14.6C13.9,14.6,13.8,14.7,13.9,14.6L13.9,14.6c-0.1,0-0.2,0-0.2,0.1l-0.2-0.4l0.2-0.6
							L13.9,14.6z M13.6,13.6l-0.2,0.6l-0.2-0.4c0,0,0,0,0,0c0,0,0,0,0,0L13,14.3l-0.3-0.4l0.1-0.6l0.2,0.3c0,0,0,0,0,0c0,0,0,0,0,0
							l0.1-0.4L13.6,13.6C13.6,13.6,13.6,13.6,13.6,13.6z M13.6,13.5l-0.3-0.3c0,0,0,0,0,0c0,0,0,0,0,0l-0.1,0.4l-0.3-0.3
							c0,0,0,0,0,0c0,0,0,0,0,0l-0.1,0.6l-0.3-0.4l0.2-0.6l0.2,0.2c0,0,0,0,0,0c0,0,0,0,0,0c0,0,0,0,0,0l0.1-0.5l0.3,0.3
							c0,0,0,0,0,0c0,0,0,0,0,0c0,0,0,0,0,0l0.1-0.2L13.6,13.5z M11.9,7.2C11.9,7.2,12,7.3,11.9,7.2c0.1,0.1,0,0.1,0,0.1
							C11.9,7.4,11.8,7.3,11.9,7.2C11.8,7.3,11.9,7.2,11.9,7.2z M11.5,8.5c0.1-0.3,0.1-0.6,0.1-0.7l0,0c0,0,0,0,0,0c0,0,0,0,0,0
							c0,0,0,0,0,0c0,0,0.1,0,0.1,0l0.1,0l0-0.1c-0.2-0.3-0.4-0.4-0.5-0.4c0,0,0,0,0,0c-0.1,0-0.2,0.1-0.2,0.1c0,0,0-0.1,0-0.1
							c0,0,0,0,0,0c0,0,0.1-0.1,0.2-0.1c0.1,0,0.2,0,0.3,0.1c0.1,0.1,0.2,0.1,0.3,0.1c0,0,0,0,0,0c0,0,0,0,0,0c0,0,0,0,0,0
							c0,0,0,0,0,0c0,0,0,0,0.1,0c0,0,0.1,0,0.1-0.1c0,0,0,0,0,0c0,0,0.1,0,0.1,0l0,0c0,0,0.1,0,0.1,0c0,0,0,0,0,0c0,0,0,0,0,0
							c0.1,0,0.1,0,0.2,0l0,0c0,0.1,0.1,0.3,0.1,0.7c0,0.4,0.1,1,0.3,1.2c-0.1,0-0.2,0-0.3-0.1c-0.2-0.3-0.2-1-0.2-1l-0.1,0
							c0,0,0.1,0.7,0.2,1c0,0,0,0.1,0,0.1c-0.2,0-0.3-0.1-0.4-0.2l0,0c-0.1-0.2-0.1-1-0.1-1l-0.1,0c0,0,0,0.7,0.1,1
							c0,0-0.1,0.1-0.2,0.2l-0.2-0.2c0.1-0.3,0.1-1,0.1-1l-0.1,0c0,0,0,0.7-0.1,1c0,0-0.1,0.1-0.3,0.2l0-0.2c0.2-0.2,0.3-1,0.3-1
							l-0.1,0c0,0-0.1,0.7-0.2,0.9c0,0-0.2,0.1-0.4,0.2C11.2,9.2,11.4,8.8,11.5,8.5z M10.3,9.8l-0.2,3.6L10,13.6l0.2-3.8L9.9,9.5
							l-0.2,4.3L9.5,14l0.2-4.6L9.4,9.1l-0.2,5.3L9,14.5L9.2,9C9,9,8.9,9.2,8.9,9.2c0-0.1,0-0.4,0.2-0.5c0.2-0.1,0.4-0.1,0.7,0.1
							C9.9,8.8,10,8.9,10.2,9c0.3,0.1,0.4,0.2,0.7,0.2c0.1,0,0.2,0,0.2,0C11,9.3,11,9.3,11,9.3l0,0H11c0.1,0,0.3-0.1,0.4-0.1
							l-0.1,0.3l0.1,0c0.2-0.1,0.3-0.2,0.4-0.2L12,9.4l0,0c0-0.1,0.1-0.1,0.2-0.2c0.1,0,0.2,0.2,0.4,0.2l0,0c0,0,0,0,0,0
							c0,0,0,0,0-0.1c0.1,0.1,0.3,0.1,0.3,0.1l0-0.1c0,0,0,0-0.1-0.1c0.1,0,0.2,0,0.3,0c0.3,0,0.4-0.1,0.7-0.2
							c0.1-0.1,0.2-0.1,0.4-0.2c0.3-0.1,0.5-0.2,0.7-0.1c0.2,0.1,0.2,0.4,0.2,0.5c0,0-0.2-0.2-0.4-0.2l0.2,5.5l-0.1-0.1l-0.2-5.3
							l-0.3,0.3l0.2,4.6l-0.2-0.1l-0.2-4.3l-0.3,0.2l0.2,3.8l-0.1-0.1l-0.2-3.6c-0.1,0.1-0.2,0.1-0.2,0.1c0,0,0,0,0,0l0,0l0,0
							c0,0-0.8,0-1.4-0.4l0,0l0,0c-0.6,0.5-1.4,0.4-1.4,0.4l0,0l0,0c0,0,0,0,0,0C10.5,9.9,10.3,9.9,10.3,9.8z M10.6,12.7l0.1,0.2
							c0,0,0,0,0,0c0,0,0,0,0,0c0,0,0,0,0,0l0.3-0.3l0.1,0.5c0,0,0,0,0,0c0,0,0,0,0,0c0,0,0,0,0,0l0.2-0.2l0.2,0.6l-0.3,0.4
							l-0.1-0.6c0,0,0,0,0,0c0,0,0,0,0,0l-0.3,0.3l-0.1-0.4c0,0,0,0,0,0c0,0,0,0,0,0l-0.3,0.3L10.6,12.7z M10.4,13.6l0.3-0.4
							l0.1,0.4c0,0,0,0,0,0c0,0,0,0,0,0l0.2-0.3l0.1,0.6L11,14.3l-0.1-0.4c0,0,0,0,0,0c0,0,0,0,0,0l-0.2,0.4L10.4,13.6
							C10.4,13.6,10.4,13.6,10.4,13.6z M10.4,13.7l0.2,0.6l-0.2,0.4c0,0-0.1,0-0.1,0h0c0,0-0.1,0-0.1,0L10.4,13.7z M9.9,14.6
							c0,0,0.1,0,0.1,0c0.1,0,0.1,0,0.2,0.1l0,0c0.2,0,0.3,0.1,0.5,0.1c0.2,0,0.4,0,0.6,0c0.1,0,0.3,0,0.3,0c0,0,0,0,0,0
							c-0.1,0.1-0.1,0.1-0.1,0.2c0,0,0,0,0,0c-0.2,0-0.5,0-0.8,0c0,0,0,0,0,0c0-0.1,0-0.2-0.1-0.2c-0.1,0-0.1,0-0.1,0
							c-0.1,0-0.1,0.1-0.1,0.2l0,0c-0.2,0-0.3-0.1-0.5-0.1c-0.1,0-0.2-0.1-0.3-0.1c0,0,0,0,0,0c0-0.1,0-0.1,0-0.2
							C9.7,14.6,9.8,14.6,9.9,14.6z M10.8,15.1C10.8,15.1,10.8,15.1,10.8,15.1C10.8,15.1,10.8,15.1,10.8,15.1
							C10.8,15.1,10.8,15.2,10.8,15.1c0,0.1-0.1,0.1-0.1,0.1c0,0,0,0-0.1,0c0,0,0,0,0,0c0,0,0,0,0,0c0,0,0,0,0-0.1c0,0,0,0,0,0
							c0,0,0,0,0-0.1l0,0l0,0c0-0.1,0-0.1,0.1-0.2c0,0,0,0,0.1,0C10.8,14.9,10.8,15,10.8,15.1z M9.5,14.7
							C9.6,14.7,9.6,14.7,9.5,14.7c0.1,0,0.1,0,0.1,0c0,0,0,0,0,0c0,0,0,0,0,0c0,0,0,0.1,0,0.1c0,0,0,0,0,0c0,0,0,0,0,0c0,0,0,0,0,0
							c0,0,0,0,0,0c0,0,0,0-0.1,0c0,0-0.1,0-0.1,0l0,0c0,0,0,0,0,0C9.4,14.8,9.5,14.7,9.5,14.7z M14.8,15.5c0,0.1,0,0.1-0.1,0.2
							c0,0,0,0.1,0,0.1c0,0.1,0,0.2-0.1,0.2c-0.3,0.2-1.5,0.3-2.4,0.3l-0.1,0c-1.5,0-2.3-0.1-2.5-0.2c-0.2,0-0.2-0.1-0.2-0.2
							c0,0,0-0.1,0-0.1c-0.1,0-0.1-0.1-0.1-0.2c0,0,0-0.1,0-0.1c0,0,0.1-0.1,0.1-0.1c0.1-0.1,0.1-0.1,0.2-0.1c0,0,0,0,0,0
							c0,0,0,0,0-0.1c0,0,0-0.1,0-0.2c0,0,0,0,0.1,0c0.1,0,0.1,0,0.1-0.1C9.8,15,9.9,15,10,15c0.1,0,0.3,0.1,0.5,0.1
							c0,0,0,0.1,0,0.1c0,0,0,0,0,0c0,0,0,0.1,0,0.1c0,0,0,0,0,0c0,0,0,0,0,0c0,0,0,0,0,0c0,0,0-0.1,0.1-0.1c0,0,0,0,0,0
							c0,0,0.1,0,0.1-0.1c0.4,0,0.6,0.1,0.8,0c0,0,0,0.1,0.1,0.1c0.1,0,0.1,0.1,0.1,0.1c0,0,0,0,0,0c0,0,0,0,0,0
							c0-0.1,0-0.1,0.1-0.2h0.1c0,0.1,0,0.1,0.1,0.2c0,0,0,0,0,0c0,0,0,0,0,0c0,0,0-0.1,0.1-0.1c0.1,0,0.1-0.1,0.1-0.1
							c0.2,0,0.4,0,0.8,0c0,0,0.1,0.1,0.1,0.1c0,0,0,0,0,0c0,0,0.1,0.1,0.1,0.1c0,0,0,0,0,0c0,0,0,0,0,0c0,0,0,0,0,0
							c0,0,0-0.1,0-0.1c0,0,0,0,0,0c0,0,0,0,0-0.1c0.2,0,0.3-0.1,0.5-0.1c0.1,0,0.2-0.1,0.3-0.1c0,0,0.1,0,0.1,0.1c0,0,0,0,0,0
							c0,0,0,0.1,0,0.1c0,0,0,0,0,0.1c0,0,0,0,0,0c0.1,0,0.1,0,0.2,0.1C14.7,15.3,14.8,15.4,14.8,15.5
							C14.8,15.4,14.8,15.5,14.8,15.5z"/>
						<path class="st6" d="M12,12.8L12,12.8c0.2-0.2,0.4-0.3,0.5-0.5c0.9-1.1,0.9-2.3,0.9-2.3l0,0l0,0c0,0-0.4,0-0.8-0.1
							c-0.2-0.1-0.3-0.1-0.5-0.2l0,0l0,0c-0.2,0.1-0.3,0.2-0.5,0.2C11.1,10,10.7,10,10.6,10l0,0l0,0c0,0-0.1,1.2,0.9,2.3
							C11.6,12.5,11.8,12.7,12,12.8L12,12.8z M11.5,12.3V9.9c0.2-0.1,0.3-0.1,0.5-0.3c0.2,0.1,0.3,0.2,0.5,0.2v2.4
							c-0.1,0.2-0.3,0.3-0.5,0.5C11.8,12.6,11.6,12.4,11.5,12.3z"/>
					</g>
				</g>
			</g>
			<path class="st7" d="M9.9,14.7l0.3,0.1L9.9,14.7z"/>
			<path class="st7" d="M10.2,14.9c0,0,0.2,0,0.3,0.1C10.5,14.9,10.2,14.9,10.2,14.9z"/>
			<path class="st7" d="M9.9,14.7c0,0,0.1,0.1,0.3,0.1C10.1,14.8,9.9,14.7,9.9,14.7z"/>
			<path class="st6" d="M11.1,15c-0.1,0-0.2,0-0.2,0c0,0,0,0,0,0c0,0,0,0,0,0C10.9,15,11,15,11.1,15C11.1,15,11.1,15,11.1,15
				c0.1,0,0.1,0,0.1,0C11.2,15,11.2,15,11.1,15C11.2,15,11.1,15,11.1,15z"/>
			<path class="st6" d="M11.4,15.1C11.3,15.1,11.3,15,11.4,15.1c-0.1,0-0.1,0-0.1,0C11.3,15,11.3,15,11.4,15.1
				C11.3,15,11.3,15,11.4,15.1c0.1-0.1,0.1-0.1,0.2-0.1c0,0,0,0,0,0c0,0,0,0,0,0C11.5,15,11.4,15.1,11.4,15.1z"/>
			<path class="st6" d="M12.5,15.1C12.5,15.1,12.5,15,12.5,15.1c-0.1,0-0.1,0-0.1,0C12.4,15,12.4,15,12.5,15.1
				C12.5,15,12.5,15,12.5,15.1c0.1-0.1,0.1-0.1,0.1-0.1c0,0,0,0,0,0c0,0,0,0,0,0C12.7,15,12.6,15.1,12.5,15.1z"/>
			<path class="st6" d="M12.8,15C12.8,15,12.8,15,12.8,15C12.7,15,12.7,15,12.8,15C12.7,15,12.7,15,12.8,15C12.8,15,12.9,15,13,15
				c0,0,0.1,0,0.1,0c0,0,0,0,0,0c0,0,0,0,0,0C13,15,12.9,15,12.8,15z"/>
			<path class="st6" d="M13.6,15C13.5,15,13.5,15,13.6,15C13.5,15,13.5,14.9,13.6,15C13.5,14.9,13.5,14.9,13.6,15
				c0,0,0.1-0.1,0.2-0.1c0,0,0,0,0,0c0,0,0,0,0,0C13.8,14.9,13.6,15,13.6,15z"/>
			<path class="st6" d="M13.9,14.9L13.9,14.9C13.9,14.9,13.9,14.9,13.9,14.9C13.9,14.8,13.9,14.8,13.9,14.9c0,0,0.2-0.1,0.3-0.1
				c0,0,0,0,0,0c0,0,0,0,0,0C14.2,14.8,14,14.9,13.9,14.9z"/>
		</g>
	</g>
</g>
<g>
</g>
</svg>
