<?xml version="1.0" encoding="UTF-8"?>
<svg width="24px" height="24px" viewBox="0 0 24 24" version="1.1" xmlns="http://www.w3.org/2000/svg" xmlns:xlink="http://www.w3.org/1999/xlink">
    <!-- Generator: Sketch 55.2 (78181) - https://sketchapp.com -->
    <title>Грузия</title>
    <desc>Created with Sketch.</desc>
    <defs>
        <path d="M23.8693953,11.967 C23.8693953,18.5709375 18.5566512,23.924625 12.0029767,23.924625 C5.44967442,23.924625 0.13655814,18.5709375 0.13655814,11.967 C0.13655814,5.3626875 5.44967442,0.009 12.0029767,0.009 C18.5566512,0.009 23.8693953,5.3626875 23.8693953,11.967 L23.8693953,11.967 Z" id="path-1"></path>
    </defs>
    <g id="Page-1" stroke="none" stroke-width="1" fill="none" fill-rule="evenodd">
        <g id="Грузия">
            <mask id="mask-2" fill="white">
                <use xlink:href="#path-1"></use>
            </mask>
            <g id="Clip-6142"></g>
            <path d="M-5.79627907,9.600375 L9.65413953,9.600375 L9.65413953,0.0088125 L-5.79627907,0.0088125 L-5.79627907,9.600375 Z M14.3512558,9.600375 L29.8022326,9.600375 L29.8022326,0.0088125 L14.3512558,0.0088125 L14.3512558,9.600375 Z M14.3512558,23.9248125 L29.8022326,23.9248125 L29.8022326,14.333625 L14.3512558,14.333625 L14.3512558,23.9248125 Z M-5.79627907,23.9248125 L9.65413953,23.9248125 L9.65413953,14.333625 L-5.79627907,14.333625 L-5.79627907,23.9248125 Z M2.65004651,7.03725 C2.65004651,7.03725 2.47386047,6.058125 2.43013953,5.3203125 C3.1624186,5.3649375 4.13339535,5.542125 4.13339535,5.542125 C4.05488372,5.247375 4.05488372,4.17375 4.13339535,3.879 C4.13339535,3.879 3.1624186,4.0561875 2.43013953,4.100625 C2.47386047,3.3631875 2.65004651,2.3840625 2.65004651,2.3840625 C2.3572093,2.4631875 1.29246512,2.4631875 0.999813953,2.3840625 C0.999813953,2.3840625 1.17544186,3.3631875 1.22046512,4.100625 C0.487627907,4.0561875 -0.48427907,3.879 -0.48427907,3.879 C-0.405767442,4.17375 -0.405767442,5.247375 -0.48427907,5.542125 C-0.48427907,5.542125 0.487627907,5.3649375 1.22046512,5.3203125 C1.17544186,6.058125 0.999813953,7.03725 0.999813953,7.03725 C1.29246512,6.9579375 2.3572093,6.9579375 2.65004651,7.03725 Z M22.9010233,21.5229375 C22.9010233,21.5229375 22.7253953,20.543625 22.6813023,19.8058125 C23.4133953,19.8504375 24.3845581,20.027625 24.3845581,20.027625 C24.3058605,19.7326875 24.3058605,18.65925 24.3845581,18.3645 C24.3845581,18.3645 23.4133953,18.5415 22.6813023,18.5863125 C22.7253953,17.8486875 22.9010233,16.86975 22.9010233,16.86975 C22.6083721,16.9486875 21.5432558,16.9486875 21.2506047,16.86975 C21.2506047,16.86975 21.4264186,17.8486875 21.4712558,18.5863125 C20.7389767,18.5415 19.7672558,18.3645 19.7672558,18.3645 C19.8457674,18.65925 19.8457674,19.7326875 19.7672558,20.027625 C19.7672558,20.027625 20.7389767,19.8504375 21.4712558,19.8058125 C21.4264186,20.543625 21.2506047,21.5229375 21.2506047,21.5229375 C21.5432558,21.4434375 22.6083721,21.4434375 22.9010233,21.5229375 Z M2.65004651,21.5229375 C2.65004651,21.5229375 2.47386047,20.543625 2.43013953,19.8058125 C3.1624186,19.8504375 4.13339535,20.027625 4.13339535,20.027625 C4.05488372,19.7326875 4.05488372,18.65925 4.13339535,18.3645 C4.13339535,18.3645 3.1624186,18.5415 2.43013953,18.5863125 C2.47386047,17.8486875 2.65004651,16.86975 2.65004651,16.86975 C2.3572093,16.9486875 1.29246512,16.9486875 0.999813953,16.86975 C0.999813953,16.86975 1.17544186,17.8486875 1.22046512,18.5863125 C0.487627907,18.5415 -0.48427907,18.3645 -0.48427907,18.3645 C-0.405767442,18.65925 -0.405767442,19.7326875 -0.48427907,20.027625 C-0.48427907,20.027625 0.487627907,19.8504375 1.22046512,19.8058125 C1.17544186,20.543625 0.999813953,21.5229375 0.999813953,21.5229375 C1.29246512,21.4434375 2.3572093,21.4434375 2.65004651,21.5229375 Z M22.9010233,7.03725 C22.9010233,7.03725 22.7253953,6.058125 22.6813023,5.3203125 C23.4133953,5.3649375 24.3845581,5.542125 24.3845581,5.542125 C24.3058605,5.247375 24.3058605,4.17375 24.3845581,3.879 C24.3845581,3.879 23.4133953,4.0561875 22.6813023,4.100625 C22.7253953,3.3631875 22.9010233,2.3840625 22.9010233,2.3840625 C22.6083721,2.4631875 21.5432558,2.4631875 21.2506047,2.3840625 C21.2506047,2.3840625 21.4264186,3.3631875 21.4712558,4.100625 C20.7389767,4.0561875 19.7672558,3.879 19.7672558,3.879 C19.8457674,4.17375 19.8457674,5.247375 19.7672558,5.542125 C19.7672558,5.542125 20.7389767,5.3649375 21.4712558,5.3203125 C21.4264186,6.058125 21.2506047,7.03725 21.2506047,7.03725 C21.5432558,6.9579375 22.6083721,6.9579375 22.9010233,7.03725 L22.9010233,7.03725 Z" id="Fill-6141" fill="#F0F0F0" mask="url(#mask-2)"></path>
            <path d="M9.65413953,23.924625 L9.65413953,14.333625 L-5.79627907,14.333625 L-5.79627907,9.6001875 L9.65413953,9.6001875 L9.65413953,0.0088125 L14.3512558,0.0088125 L14.3512558,9.6001875 L29.8022326,9.6001875 L29.8022326,14.333625 L14.3512558,14.333625 L14.3512558,23.924625 L9.65413953,23.924625 Z M2.65004651,7.03725 C2.65004651,7.03725 2.47386047,6.058125 2.43013953,5.3203125 C3.16186047,5.3649375 4.13339535,5.542125 4.13339535,5.542125 C4.05488372,5.247375 4.05488372,4.17375 4.13339535,3.879 C4.13339535,3.879 3.16186047,4.0561875 2.43013953,4.100625 C2.47386047,3.3631875 2.65004651,2.3840625 2.65004651,2.3840625 C2.3572093,2.4631875 1.29246512,2.4631875 0.999813953,2.3840625 C0.999813953,2.3840625 1.17544186,3.3631875 1.21972093,4.100625 C0.487627907,4.0561875 -0.48427907,3.879 -0.48427907,3.879 C-0.405767442,4.17375 -0.405767442,5.247375 -0.48427907,5.542125 C-0.48427907,5.542125 0.487627907,5.3649375 1.21972093,5.3203125 C1.17544186,6.058125 0.999813953,7.03725 0.999813953,7.03725 C1.29246512,6.9579375 2.3572093,6.9579375 2.65004651,7.03725 Z M22.9010233,21.52275 C22.9010233,21.52275 22.7253953,20.543625 22.6813023,19.8058125 C23.4133953,19.8504375 24.3845581,20.027625 24.3845581,20.027625 C24.3058605,19.7326875 24.3058605,18.65925 24.3845581,18.3645 C24.3845581,18.3645 23.4133953,18.5415 22.6813023,18.5863125 C22.7253953,17.8486875 22.9010233,16.86975 22.9010233,16.86975 C22.6083721,16.9486875 21.5432558,16.9486875 21.2506047,16.86975 C21.2506047,16.86975 21.4264186,17.8486875 21.4712558,18.5863125 C20.7389767,18.5415 19.7672558,18.3645 19.7672558,18.3645 C19.8457674,18.65925 19.8457674,19.7326875 19.7672558,20.027625 C19.7672558,20.027625 20.7389767,19.8504375 21.4712558,19.8058125 C21.4264186,20.543625 21.2506047,21.52275 21.2506047,21.52275 C21.5432558,21.4434375 22.6083721,21.4434375 22.9010233,21.52275 Z M2.65004651,21.52275 C2.65004651,21.52275 2.47386047,20.543625 2.43013953,19.8058125 C3.16186047,19.8504375 4.13339535,20.027625 4.13339535,20.027625 C4.05488372,19.7326875 4.05488372,18.65925 4.13339535,18.3645 C4.13339535,18.3645 3.16186047,18.5415 2.43013953,18.5863125 C2.47386047,17.8486875 2.65004651,16.86975 2.65004651,16.86975 C2.3572093,16.9486875 1.29246512,16.9486875 0.999813953,16.86975 C0.999813953,16.86975 1.17544186,17.8486875 1.21972093,18.5863125 C0.487627907,18.5415 -0.48427907,18.3645 -0.48427907,18.3645 C-0.405767442,18.65925 -0.405767442,19.7326875 -0.48427907,20.027625 C-0.48427907,20.027625 0.487627907,19.8504375 1.21972093,19.8058125 C1.17544186,20.543625 0.999813953,21.52275 0.999813953,21.52275 C1.29246512,21.4434375 2.3572093,21.4434375 2.65004651,21.52275 Z M22.9010233,7.03725 C22.9010233,7.03725 22.7253953,6.058125 22.6813023,5.3203125 C23.4133953,5.3649375 24.3845581,5.542125 24.3845581,5.542125 C24.3058605,5.247375 24.3058605,4.17375 24.3845581,3.879 C24.3845581,3.879 23.4133953,4.0561875 22.6813023,4.100625 C22.7253953,3.3631875 22.9010233,2.3840625 22.9010233,2.3840625 C22.6083721,2.4631875 21.5432558,2.4631875 21.2506047,2.3840625 C21.2506047,2.3840625 21.4264186,3.3631875 21.4712558,4.100625 C20.7389767,4.0561875 19.7672558,3.879 19.7672558,3.879 C19.8457674,4.17375 19.8457674,5.247375 19.7672558,5.542125 C19.7672558,5.542125 20.7389767,5.3649375 21.4712558,5.3203125 C21.4264186,6.058125 21.2506047,7.03725 21.2506047,7.03725 C21.5432558,6.9579375 22.6083721,6.9579375 22.9010233,7.03725 Z" id="Fill-6143" fill="#FF1612" mask="url(#mask-2)"></path>
            <path d="M9.65413953,23.924625 L9.65413953,14.333625 L-5.79627907,14.333625 L-5.79627907,9.6001875 L9.65413953,9.6001875 L9.65413953,0.0088125 L14.3512558,0.0088125 L14.3512558,9.6001875 L29.8022326,9.6001875 L29.8022326,14.333625 L14.3512558,14.333625 L14.3512558,23.924625 L9.65413953,23.924625 Z M2.65004651,7.03725 C2.65004651,7.03725 2.47386047,6.058125 2.43013953,5.3203125 C3.16186047,5.3649375 4.13339535,5.542125 4.13339535,5.542125 C4.05488372,5.247375 4.05488372,4.17375 4.13339535,3.879 C4.13339535,3.879 3.16186047,4.0561875 2.43013953,4.100625 C2.47386047,3.3631875 2.65004651,2.3840625 2.65004651,2.3840625 C2.3572093,2.4631875 1.29246512,2.4631875 0.999813953,2.3840625 C0.999813953,2.3840625 1.17544186,3.3631875 1.21972093,4.100625 C0.487627907,4.0561875 -0.48427907,3.879 -0.48427907,3.879 C-0.405767442,4.17375 -0.405767442,5.247375 -0.48427907,5.542125 C-0.48427907,5.542125 0.487627907,5.3649375 1.21972093,5.3203125 C1.17544186,6.058125 0.999813953,7.03725 0.999813953,7.03725 C1.29246512,6.9579375 2.3572093,6.9579375 2.65004651,7.03725 Z M22.9010233,21.52275 C22.9010233,21.52275 22.7253953,20.543625 22.6813023,19.8058125 C23.4133953,19.8504375 24.3845581,20.027625 24.3845581,20.027625 C24.3058605,19.7326875 24.3058605,18.65925 24.3845581,18.3645 C24.3845581,18.3645 23.4133953,18.5415 22.6813023,18.5863125 C22.7253953,17.8486875 22.9010233,16.86975 22.9010233,16.86975 C22.6083721,16.9486875 21.5432558,16.9486875 21.2506047,16.86975 C21.2506047,16.86975 21.4264186,17.8486875 21.4712558,18.5863125 C20.7389767,18.5415 19.7672558,18.3645 19.7672558,18.3645 C19.8457674,18.65925 19.8457674,19.7326875 19.7672558,20.027625 C19.7672558,20.027625 20.7389767,19.8504375 21.4712558,19.8058125 C21.4264186,20.543625 21.2506047,21.52275 21.2506047,21.52275 C21.5432558,21.4434375 22.6083721,21.4434375 22.9010233,21.52275 Z M2.65004651,21.52275 C2.65004651,21.52275 2.47386047,20.543625 2.43013953,19.8058125 C3.16186047,19.8504375 4.13339535,20.027625 4.13339535,20.027625 C4.05488372,19.7326875 4.05488372,18.65925 4.13339535,18.3645 C4.13339535,18.3645 3.16186047,18.5415 2.43013953,18.5863125 C2.47386047,17.8486875 2.65004651,16.86975 2.65004651,16.86975 C2.3572093,16.9486875 1.29246512,16.9486875 0.999813953,16.86975 C0.999813953,16.86975 1.17544186,17.8486875 1.21972093,18.5863125 C0.487627907,18.5415 -0.48427907,18.3645 -0.48427907,18.3645 C-0.405767442,18.65925 -0.405767442,19.7326875 -0.48427907,20.027625 C-0.48427907,20.027625 0.487627907,19.8504375 1.21972093,19.8058125 C1.17544186,20.543625 0.999813953,21.52275 0.999813953,21.52275 C1.29246512,21.4434375 2.3572093,21.4434375 2.65004651,21.52275 Z M22.9010233,7.03725 C22.9010233,7.03725 22.7253953,6.058125 22.6813023,5.3203125 C23.4133953,5.3649375 24.3845581,5.542125 24.3845581,5.542125 C24.3058605,5.247375 24.3058605,4.17375 24.3845581,3.879 C24.3845581,3.879 23.4133953,4.0561875 22.6813023,4.100625 C22.7253953,3.3631875 22.9010233,2.3840625 22.9010233,2.3840625 C22.6083721,2.4631875 21.5432558,2.4631875 21.2506047,2.3840625 C21.2506047,2.3840625 21.4264186,3.3631875 21.4712558,4.100625 C20.7389767,4.0561875 19.7672558,3.879 19.7672558,3.879 C19.8457674,4.17375 19.8457674,5.247375 19.7672558,5.542125 C19.7672558,5.542125 20.7389767,5.3649375 21.4712558,5.3203125 C21.4264186,6.058125 21.2506047,7.03725 21.2506047,7.03725 C21.5432558,6.9579375 22.6083721,6.9579375 22.9010233,7.03725 Z" id="Stroke-6144" stroke="#F4F5F7" stroke-width="0.243" mask="url(#mask-2)"></path>
        </g>
    </g>
</svg>