<?xml version="1.0" encoding="UTF-8"?>
<svg width="24px" height="24px" viewBox="0 0 24 24" version="1.1" xmlns="http://www.w3.org/2000/svg" xmlns:xlink="http://www.w3.org/1999/xlink">
    <!-- Generator: Sketch 55.2 (78181) - https://sketchapp.com -->
    <title>Греция</title>
    <desc>Created with Sketch.</desc>
    <defs>
        <path d="M23.931,11.9663256 C23.931,18.519814 18.577125,23.832186 11.9724375,23.832186 C5.368125,23.832186 0.013875,18.519814 0.013875,11.9663256 C0.013875,5.41302326 5.368125,0.100651163 11.9724375,0.100651163 C18.577125,0.100651163 23.931,5.41302326 23.931,11.9663256 L23.931,11.9663256 Z" id="path-1"></path>
    </defs>
    <g id="Page-1" stroke="none" stroke-width="1" fill="none" fill-rule="evenodd">
        <g id="Греция">
            <mask id="mask-2" fill="white">
                <use xlink:href="#path-1"></use>
            </mask>
            <g id="Clip-6164"></g>
            <path d="M0.013875,23.832186 L35.8899375,23.832186 L35.8899375,21.1951628 L0.013875,21.1951628 L0.013875,23.832186 Z M0.013875,18.5585116 L35.8899375,18.5585116 L35.8899375,15.9220465 L0.013875,15.9220465 L0.013875,18.5585116 Z M35.8899375,13.2846512 L35.8899375,10.6476279 L13.3014375,10.6476279 L13.3014375,8.0107907 L35.8899375,8.0107907 L35.8899375,5.37395349 L13.3014375,5.37395349 L13.3014375,2.73748837 L35.8899375,2.73748837 L35.8899375,0.100465116 L7.9861875,0.100465116 L7.9861875,5.37395349 L13.3014375,5.37395349 L13.3014375,8.0107907 L7.9861875,8.0107907 L7.9861875,13.2846512 L35.8899375,13.2846512 Z M0.013875,5.37395349 L5.329125,5.37395349 L5.329125,0.10027907 L0.013875,0.10027907 L0.013875,5.37395349 Z M0.013875,13.2846512 L5.329125,13.2846512 L5.329125,8.0107907 L0.013875,8.0107907 L0.013875,13.2846512 Z" id="Fill-6163" fill="#207BF2" mask="url(#mask-2)"></path>
            <path d="M5.329125,0.100465116 L7.9861875,0.100465116 L7.9861875,5.37395349 L13.3014375,5.37395349 L13.3014375,8.01116279 L7.9861875,8.01116279 L7.9861875,13.2846512 L35.8899375,13.2846512 L35.8899375,15.9218605 L0.013875,15.9218605 L0.013875,13.2846512 L5.329125,13.2846512 L5.329125,8.01116279 L0.013875,8.01116279 L0.013875,5.37395349 L5.329125,5.37395349 L5.329125,0.100465116 Z M13.3014375,5.37413953 L35.8899375,5.37413953 L35.8899375,2.73748837 L13.3014375,2.73748837 L13.3014375,5.37413953 Z M13.3014375,10.6476279 L35.8899375,10.6476279 L35.8899375,8.01116279 L13.3014375,8.01116279 L13.3014375,10.6476279 Z M0.013875,13.2846512 L0.013875,15.9218605 L0.013875,13.2846512 Z M0.013875,21.1953488 L35.8899375,21.1953488 L35.8899375,18.5588837 L0.013875,18.5588837 L0.013875,21.1953488 Z" id="Fill-6165" fill="#F0F0F0" mask="url(#mask-2)"></path>
        </g>
    </g>
</svg>