<?xml version="1.0" encoding="UTF-8"?>
<svg width="24px" height="24px" viewBox="0 0 24 24" version="1.1" xmlns="http://www.w3.org/2000/svg" xmlns:xlink="http://www.w3.org/1999/xlink">
    <!-- Generator: Sketch 55.2 (78181) - https://sketchapp.com -->
    <title>Индия</title>
    <desc>Created with Sketch.</desc>
    <defs>
        <path d="M23.8690233,11.9659535 C23.8690233,18.5196279 18.556093,23.8323721 12.0033488,23.8323721 C5.45023256,23.8323721 0.137302326,18.5196279 0.137302326,11.9659535 C0.137302326,5.4132093 5.45023256,0.100465116 12.0033488,0.100465116 C18.556093,0.100465116 23.8690233,5.4132093 23.8690233,11.9659535 L23.8690233,11.9659535 Z" id="path-1"></path>
    </defs>
    <g id="Page-1" stroke="none" stroke-width="1" fill="none" fill-rule="evenodd">
        <g id="Индия">
            <mask id="mask-2" fill="white">
                <use xlink:href="#path-1"></use>
            </mask>
            <g id="Clip-7094"></g>
            <polygon id="Fill-7093" fill="#F0F0F0" mask="url(#mask-2)" points="-5.79534884 15.9216744 29.8016744 15.9216744 29.8016744 8.01116279 -5.79534884 8.01116279"></polygon>
            <polygon id="Fill-7095" fill="#F39229" mask="url(#mask-2)" points="-5.79534884 8.01116279 29.8027907 8.01116279 29.8027907 0.100465116 -5.79534884 0.100465116"></polygon>
            <polygon id="Fill-7096" fill="#47B71D" mask="url(#mask-2)" points="-5.79534884 23.8323721 29.8027907 23.8323721 29.8027907 15.9216744 -5.79534884 15.9216744"></polygon>
            <path d="M12.0308837,11.3488372 C12.0673488,11.3506977 12.1025116,11.3557209 12.1363721,11.3631628 L12.2316279,10.7138605 L12.796093,9.00651163 L12.4323721,10.7674419 L12.1899535,11.3773023 C12.224186,11.3877209 12.256186,11.4016744 12.287814,11.4184186 L12.5482791,10.815814 L13.5354419,9.31274419 L12.7274419,10.92 L12.335814,11.4452093 C12.3659535,11.4651163 12.3936744,11.4861395 12.4204651,11.5103256 L12.8273488,10.9955349 L14.1702326,9.79962791 L12.9737674,11.1426977 L12.4593488,11.5493953 C12.4824186,11.5752558 12.5053023,11.6033488 12.5237209,11.6338605 L13.0507907,11.2422326 L14.6569302,10.4340465 L13.1540465,11.4217674 L12.552186,11.6818605 C12.5676279,11.7127442 12.5813953,11.7460465 12.5923721,11.7802791 L13.2020465,11.5384186 L14.9627907,11.1732093 L13.255814,11.7382326 L12.6066977,11.8333023 C12.6141395,11.8673488 12.6189767,11.9025116 12.620093,11.9384186 L13.271814,11.8626977 L15.0673488,11.9666977 L13.271814,12.0697674 L12.620093,11.9942326 C12.6189767,12.0299535 12.6141395,12.0651163 12.6066977,12.0991628 L13.255814,12.1947907 L14.9627907,12.76 L13.2020465,12.3947907 L12.5923721,12.1529302 C12.5815814,12.1871628 12.5676279,12.219907 12.552186,12.2513488 L13.1540465,12.5106977 L14.6569302,13.4984186 L13.0507907,12.6906047 L12.5237209,12.2993488 C12.5053023,12.3283721 12.4824186,12.3572093 12.4593488,12.3834419 L12.9737674,12.7897674 L14.1702326,14.1337674 L12.8273488,12.936186 L12.4204651,12.4221395 C12.3936744,12.4463256 12.3659535,12.468093 12.335814,12.4872558 L12.7274419,13.0135814 L13.5354419,14.620093 L12.5482791,13.1168372 L12.287814,12.5147907 C12.256186,12.5307907 12.224186,12.5447442 12.1899535,12.5555349 L12.4323721,13.1646512 L12.796093,14.9259535 L12.2316279,13.2186047 L12.1363721,12.5693023 C12.1025116,12.5769302 12.0673488,12.5821395 12.0308837,12.5836279 L12.1073488,13.2346047 L12.0033488,15.0305116 L11.8991628,13.2346047 L11.9756279,12.5836279 C11.9389767,12.5821395 11.904,12.5769302 11.8699535,12.5693023 L11.7750698,13.2186047 L11.2106047,14.9259535 L11.5748837,13.1646512 L11.8163721,12.5555349 C11.7828837,12.5447442 11.7501395,12.5315349 11.7186977,12.5147907 L11.4582326,13.1168372 L10.4708837,14.620093 L11.2792558,13.0135814 L11.6706977,12.4872558 C11.6405581,12.468093 11.6126512,12.4463256 11.5858605,12.4221395 L11.1791628,12.936186 L9.83683721,14.1337674 L11.0327442,12.7897674 L11.5469767,12.3834419 C11.5237209,12.3572093 11.5015814,12.3283721 11.4826047,12.2993488 L10.9564651,12.6906047 L9.34939535,13.4984186 L10.8526512,12.5106977 L11.4548837,12.2513488 C11.4385116,12.219907 11.4251163,12.1871628 11.4146977,12.1529302 L10.8046512,12.3947907 L9.04372093,12.76 L10.7506977,12.1947907 L11.3996279,12.0991628 C11.3923721,12.0651163 11.3875349,12.0299535 11.3862326,11.9942326 L10.7346977,12.0697674 L8.93897674,11.9666977 L10.7346977,11.8626977 L11.3862326,11.9384186 C11.3875349,11.9025116 11.3923721,11.8673488 11.3996279,11.8333023 L10.7506977,11.7382326 L9.04372093,11.1732093 L10.8046512,11.5384186 L11.4141395,11.7802791 C11.4251163,11.7460465 11.4385116,11.7127442 11.4543256,11.6818605 L10.8526512,11.4217674 L9.34939535,10.4340465 L10.9564651,11.2422326 L11.4826047,11.6338605 C11.5015814,11.6033488 11.5237209,11.5752558 11.5469767,11.5493953 L11.0327442,11.1426977 L9.83683721,9.79962791 L11.1791628,10.9955349 L11.5858605,11.5103256 C11.6126512,11.4861395 11.6405581,11.4651163 11.6706977,11.4452093 L11.2792558,10.92 L10.4708837,9.31274419 L11.4582326,10.815814 L11.7186977,11.4184186 C11.7501395,11.4016744 11.7828837,11.3877209 11.8167442,11.3773023 L11.5748837,10.7674419 L11.2106047,9.00651163 L11.7750698,10.7138605 L11.8699535,11.3631628 C11.904,11.3557209 11.9389767,11.3506977 11.9756279,11.3488372 L11.8991628,10.6978605 L12.0033488,8.90195349 L12.1073488,10.6978605 L12.0308837,11.3488372 Z M11.7533023,8.86046512 C11.7627907,8.94530233 11.7019535,9.02195349 11.6171163,9.03367442 C11.5317209,9.04446512 11.4532093,8.98604651 11.4405581,8.90102326 C11.2749767,8.93116279 11.1134884,8.97544186 10.9581395,9.03106977 C10.9892093,9.11051163 10.9510698,9.20055814 10.8708837,9.23367442 C10.791814,9.26623256 10.7010233,9.22995349 10.6666047,9.15088372 C10.5147907,9.22288372 10.3704186,9.30697674 10.2336744,9.40148837 C10.2846512,9.47051163 10.2706977,9.56744186 10.2024186,9.61972093 C10.1345116,9.672 10.0377674,9.66027907 9.98418605,9.59386047 C9.92074419,9.64744186 9.85916279,9.70418605 9.79944186,9.76334884 C9.7412093,9.82195349 9.68446512,9.88334884 9.63069767,9.94697674 C9.69711628,10.0005581 9.70902326,10.0976744 9.65618605,10.1653953 C9.60483721,10.2338605 9.50697674,10.2472558 9.43869767,10.1968372 C9.34381395,10.3335814 9.26009302,10.4783256 9.18809302,10.6297674 C9.2664186,10.664 9.30325581,10.7549767 9.27051163,10.8342326 C9.2375814,10.9138605 9.14697674,10.952186 9.0667907,10.9205581 C9.01190698,11.0766512 8.96874419,11.2375814 8.93804651,11.4037209 C9.02306977,11.4167442 9.08186047,11.4956279 9.07032558,11.5802791 C9.05934884,11.6651163 8.98195349,11.7253953 8.89730233,11.715907 C8.89060465,11.7986977 8.88725581,11.8820465 8.88725581,11.9666977 C8.88725581,12.0504186 8.89060465,12.1341395 8.89730233,12.2165581 C8.98195349,12.2072558 9.05934884,12.2675349 9.07032558,12.3525581 C9.08186047,12.4375814 9.02306977,12.5157209 8.93804651,12.5289302 C8.96874419,12.6950698 9.01190698,12.8563721 9.0667907,13.011907 C9.14697674,12.9808372 9.2375814,13.0186047 9.27051163,13.0984186 C9.30325581,13.1778605 9.2664186,13.2688372 9.18809302,13.3034419 C9.26009302,13.4541395 9.34381395,13.5988837 9.43869767,13.7356279 C9.50697674,13.6853953 9.60483721,13.6995349 9.65618605,13.7670698 C9.70902326,13.8347907 9.69711628,13.9326512 9.63069767,13.9862326 C9.68446512,14.0494884 9.7412093,14.1108837 9.79944186,14.1694884 C9.85916279,14.2288372 9.92074419,14.2850233 9.98418605,14.3393488 C10.0377674,14.2731163 10.1345116,14.2610233 10.2024186,14.3131163 C10.2706977,14.3659535 10.2846512,14.4619535 10.2336744,14.5317209 C10.3704186,14.6254884 10.5147907,14.7095814 10.6666047,14.7810233 C10.7010233,14.7032558 10.791814,14.6664186 10.8708837,14.6995349 C10.9510698,14.7326512 10.9892093,14.8228837 10.9581395,14.9021395 C11.1134884,14.9577674 11.2749767,15.0014884 11.4405581,15.0316279 C11.4532093,14.9471628 11.5317209,14.888186 11.6171163,14.8995349 C11.7019535,14.9103256 11.7627907,14.9873488 11.7533023,15.0723721 C11.835907,15.0788837 11.9188837,15.0824186 12.0033488,15.0824186 C12.0874419,15.0824186 12.1706047,15.0788837 12.2537674,15.0723721 C12.2435349,14.9873488 12.304186,14.9103256 12.3892093,14.8995349 C12.4747907,14.888186 12.5531163,14.9471628 12.5659535,15.0316279 C12.7313488,15.0014884 12.8935814,14.9577674 13.0483721,14.9021395 C13.0171163,14.8228837 13.0554419,14.7326512 13.1354419,14.6995349 C13.2145116,14.6664186 13.3053023,14.7032558 13.3406512,14.7810233 C13.4915349,14.7095814 13.6357209,14.6254884 13.7728372,14.5317209 C13.7224186,14.4619535 13.736,14.3659535 13.803907,14.3131163 C13.871814,14.2610233 13.9689302,14.2731163 14.0225116,14.3393488 C14.0863256,14.2850233 14.1473488,14.2288372 14.2070698,14.1694884 C14.2651163,14.1108837 14.3218605,14.0494884 14.3765581,13.9862326 C14.3101395,13.9326512 14.2976744,13.8347907 14.3503256,13.7670698 C14.4024186,13.6995349 14.4993488,13.6853953 14.568,13.7356279 C14.6623256,13.5988837 14.7462326,13.4541395 14.8184186,13.3034419 C14.7406512,13.2688372 14.7032558,13.1778605 14.7365581,13.0984186 C14.7691163,13.0186047 14.8597209,12.9808372 14.9395349,13.011907 C14.9953488,12.8563721 15.0379535,12.6950698 15.0684651,12.5289302 C14.984,12.5157209 14.9246512,12.4375814 14.936,12.3525581 C14.9469767,12.2675349 15.0243721,12.2072558 15.1092093,12.2165581 C15.116093,12.1341395 15.1192558,12.0504186 15.1192558,11.9666977 C15.1192558,11.8820465 15.116093,11.7986977 15.1092093,11.715907 C15.0243721,11.7253953 14.9469767,11.6651163 14.936,11.5802791 C14.9246512,11.4956279 14.984,11.4167442 15.0684651,11.4037209 C15.0379535,11.2375814 14.9953488,11.0766512 14.9395349,10.9205581 C14.8597209,10.952186 14.7691163,10.9138605 14.7365581,10.8342326 C14.7032558,10.7549767 14.7406512,10.664 14.8184186,10.6297674 C14.7462326,10.4783256 14.6623256,10.3335814 14.568,10.1968372 C14.4993488,10.2472558 14.4024186,10.2338605 14.3503256,10.1653953 C14.2976744,10.0976744 14.3101395,10.0005581 14.3765581,9.94697674 C14.3218605,9.88334884 14.2651163,9.82195349 14.2070698,9.76334884 C14.1473488,9.70418605 14.0863256,9.64744186 14.0225116,9.59386047 C13.9689302,9.66027907 13.871814,9.672 13.803907,9.61972093 C13.736,9.56744186 13.7224186,9.47051163 13.7728372,9.40148837 C13.6357209,9.30697674 13.4915349,9.22288372 13.3406512,9.15088372 C13.3053023,9.22995349 13.2145116,9.26623256 13.1354419,9.23367442 C13.0554419,9.20055814 13.0171163,9.11051163 13.0483721,9.03106977 C12.8935814,8.97544186 12.7313488,8.93116279 12.5659535,8.90102326 C12.5531163,8.98604651 12.4747907,9.04446512 12.3892093,9.03367442 C12.304186,9.02195349 12.2435349,8.94530233 12.2537674,8.86046512 C12.1706047,8.85413953 12.0874419,8.8504186 12.0033488,8.8504186 C11.9188837,8.8504186 11.835907,8.85413953 11.7533023,8.86046512 Z M12.0033488,8.40632558 C12.9860465,8.40632558 13.875907,8.80483721 14.5205581,9.44948837 C15.1648372,10.0933953 15.5627907,10.9836279 15.5627907,11.9666977 C15.5627907,12.9488372 15.1648372,13.8394419 14.5205581,14.4837209 C13.875907,15.1276279 12.9860465,15.5261395 12.0033488,15.5261395 C11.0204651,15.5261395 10.1306047,15.1276279 9.48632558,14.4837209 C8.84167442,13.8394419 8.44353488,12.9488372 8.44353488,11.9666977 C8.44353488,10.9836279 8.8424186,10.0933953 9.48632558,9.44948837 C10.1306047,8.80483721 11.0204651,8.40632558 12.0033488,8.40632558 L12.0033488,8.40632558 Z" id="Fill-7097" fill="#0437A0" mask="url(#mask-2)"></path>
        </g>
    </g>
</svg>