<?xml version="1.0" encoding="UTF-8"?>
<svg width="24px" height="24px" viewBox="0 0 24 24" version="1.1" xmlns="http://www.w3.org/2000/svg" xmlns:xlink="http://www.w3.org/1999/xlink">
    <!-- Generator: Sketch 55.2 (78181) - https://sketchapp.com -->
    <title>Израиль</title>
    <desc>Created with Sketch.</desc>
    <defs>
        <path d="M23.993625,11.9649375 C23.993625,18.5698125 18.6391875,23.9240625 12.034875,23.9240625 C5.4301875,23.9240625 0.0763125,18.5698125 0.0763125,11.9649375 C0.0763125,5.3608125 5.4301875,0.0069375 12.034875,0.0069375 C18.6391875,0.0069375 23.993625,5.3608125 23.993625,11.9649375 L23.993625,11.9649375 Z" id="path-1"></path>
    </defs>
    <g id="Page-1" stroke="none" stroke-width="1" fill="none" fill-rule="evenodd">
        <g id="Израиль">
            <mask id="mask-2" fill="white">
                <use xlink:href="#path-1"></use>
            </mask>
            <g id="Clip-7125"></g>
            <path d="M-5.9025,2.249625 L29.973,2.249625 L29.973,0.0069375 L-5.9025,0.0069375 L-5.9025,2.249625 Z M-5.9025,17.9446875 L29.973,17.9446875 L29.973,5.9865 L-5.9025,5.9865 L-5.9025,17.9446875 Z M-5.9025,23.9240625 L29.973,23.9240625 L29.973,21.68175 L-5.9025,21.68175 L-5.9025,23.9240625 Z" id="Fill-7124" fill="#F0F0F0" mask="url(#mask-2)"></path>
            <path d="M12.035625,8.3445 L11.415,9.41925 L12.6553125,9.41925 L12.035625,8.3445 Z M-5.9025,5.9865 L29.972625,5.9865 L29.972625,2.2494375 L-5.9025,2.2494375 L-5.9025,5.9865 Z M-5.9025,21.68175 L29.972625,21.68175 L29.972625,17.94525 L-5.9025,17.94525 L-5.9025,21.68175 Z M10.989375,10.1563125 L9.9444375,11.9649375 L10.989375,13.77525 L13.08075,13.77525 L14.125875,11.9660625 L13.08075,10.1563125 L10.989375,10.1563125 Z M9.5205,12.7005 L8.8996875,13.77525 L10.1401875,13.77525 L9.5205,12.7005 Z M13.930125,13.77525 L15.170625,13.77525 L14.550375,12.7005 L13.930125,13.77525 Z M12.035625,15.5865 L12.6553125,14.51175 L11.415,14.51175 L12.035625,15.5865 Z M14.550375,11.2305 L15.17025,10.1563125 L13.930125,10.1563125 L14.550375,11.2305 Z M10.1401875,10.1563125 L8.8996875,10.1563125 L9.5205,11.2305 L10.1401875,10.1563125 Z M16.12575,9.972 L14.9745,11.9660625 L16.12575,13.959 L16.12575,13.9595625 L16.3535625,14.354625 L16.4445,14.51175 L13.5045,14.51175 L12.1258125,16.899375 L12.035625,17.0565 L11.9439375,16.899375 L10.566,14.51175 L7.6254375,14.51175 L7.7165625,14.354625 L7.9445625,13.9595625 L7.9445625,13.959 L9.096,11.9660625 L7.7165625,9.57675 L7.6254375,9.41925 L10.5654375,9.41925 L11.716875,7.4251875 L11.7174375,7.4251875 L11.9439375,7.0321875 L12.035625,6.8745 L12.1258125,7.0318125 L13.5045,9.41925 L16.4445,9.41925 L16.3535625,9.57675 L16.12575,9.972 L16.12575,9.972 Z" id="Fill-7126" fill="#207BF2" mask="url(#mask-2)"></path>
        </g>
    </g>
</svg>