<?xml version="1.0" encoding="UTF-8"?>
<svg width="24px" height="24px" viewBox="0 0 24 24" version="1.1" xmlns="http://www.w3.org/2000/svg" xmlns:xlink="http://www.w3.org/1999/xlink">
    <!-- Generator: Sketch 55.2 (78181) - https://sketchapp.com -->
    <title>Малайзия</title>
    <desc>Created with Sketch.</desc>
    <defs>
        <path d="M23.993625,11.9655814 C23.993625,18.5183256 18.63975,23.8306977 12.0350625,23.8306977 C5.43,23.8306977 0.075375,18.5183256 0.075375,11.9655814 C0.075375,5.41172093 5.43,0.0993488372 12.0350625,0.0993488372 C18.63975,0.0993488372 23.993625,5.41172093 23.993625,11.9655814 L23.993625,11.9655814 Z" id="path-1"></path>
    </defs>
    <g id="Page-1" stroke="none" stroke-width="1" fill="none" fill-rule="evenodd">
        <g id="Малайзия">
            <mask id="mask-2" fill="white">
                <use xlink:href="#path-1"></use>
            </mask>
            <g id="Clip-7318"></g>
            <path d="M-5.903625,22.136 L29.972625,22.136 L29.972625,20.4413023 L-5.903625,20.4413023 L-5.903625,22.136 Z M-5.903625,18.7453023 L29.972625,18.7453023 L29.972625,17.0502326 L-5.903625,17.0502326 L-5.903625,18.7453023 Z M-5.903625,15.3557209 L29.972625,15.3557209 L29.972625,13.6602791 L-5.903625,13.6602791 L-5.903625,15.3557209 Z M12.0350625,11.9655814 L29.972625,11.9655814 L29.972625,10.2705116 L12.0350625,10.2705116 L12.0350625,11.9655814 Z M12.0350625,8.57562791 L29.972625,8.57562791 L29.972625,6.87981395 L12.0350625,6.87981395 L12.0350625,8.57562791 Z M12.0350625,5.18474419 L29.972625,5.18474419 L29.972625,3.48967442 L12.0350625,3.48967442 L12.0350625,5.18474419 Z M12.0350625,1.79460465 L29.972625,1.79460465 L29.972625,0.0993488372 L12.0350625,0.0993488372 L12.0350625,1.79460465 Z" id="Fill-7317" fill="#FF1612" mask="url(#mask-2)"></path>
            <path d="M12.0350625,3.48948837 L29.972625,3.48948837 L29.972625,1.79460465 L12.0350625,1.79460465 L12.0350625,3.48948837 Z M-5.903625,23.8306977 L29.972625,23.8306977 L29.972625,22.136 L-5.903625,22.136 L-5.903625,23.8306977 Z M-5.903625,20.4411163 L29.972625,20.4411163 L29.972625,18.7453023 L-5.903625,18.7453023 L-5.903625,20.4411163 Z M-5.903625,17.0502326 L29.972625,17.0502326 L29.972625,15.355907 L-5.903625,15.355907 L-5.903625,17.0502326 Z M12.0350625,13.6602791 L29.972625,13.6602791 L29.972625,11.9655814 L12.0350625,11.9655814 L12.0350625,13.6602791 Z M12.0350625,10.2703256 L29.972625,10.2703256 L29.972625,8.57488372 L12.0350625,8.57488372 L12.0350625,10.2703256 Z M12.0350625,6.87981395 L29.972625,6.87981395 L29.972625,5.18474419 L12.0350625,5.18474419 L12.0350625,6.87981395 Z" id="Fill-7319" fill="#F4F4F4" mask="url(#mask-2)"></path>
            <polygon id="Fill-7320" fill="#0437A0" mask="url(#mask-2)" points="-5.903625 13.6602791 12.0350625 13.6602791 12.0350625 0.0989767442 -5.903625 0.0989767442"></polygon>
            <path d="M6.7288125,4.56074419 C4.5751875,3.54009302 2.0236875,5.09376744 2.0236875,7.51981395 C2.0236875,9.94623256 4.5751875,11.4993488 6.7288125,10.4790698 C4.2825,12.416186 0.5675625,10.7136744 0.5675625,7.51981395 C0.5675625,4.32632558 4.2825,2.62344186 6.7288125,4.56074419 Z M8.4466875,8.72130233 L9.54225,10.2954419 L8.956125,8.48334884 L10.6471875,9.44093023 L9.3088125,8.05451163 L11.260125,8.20576744 L9.434625,7.51981395 L11.260125,6.83386047 L9.3088125,6.98511628 L10.6471875,5.59925581 L8.956125,6.55702326 L9.54225,4.74418605 L8.4466875,6.31832558 L8.1645,4.43944186 L7.88175,6.31832558 L6.7858125,4.74418605 L7.372125,6.55702326 L5.68125,5.59925581 L7.02,6.98511628 L5.0679375,6.83386047 L6.894,7.51981395 L5.0679375,8.20576744 L7.02,8.05451163 L5.68125,9.44093023 L7.372125,8.48334884 L6.7858125,10.2954419 L7.88175,8.72130233 L8.1645,10.6007442 L8.4466875,8.72130233 L8.4466875,8.72130233 Z" id="Fill-7321" fill="#FFDE27" mask="url(#mask-2)"></path>
        </g>
    </g>
</svg>