<?xml version="1.0" encoding="UTF-8"?>
<svg width="24px" height="24px" viewBox="0 0 24 24" version="1.1" xmlns="http://www.w3.org/2000/svg" xmlns:xlink="http://www.w3.org/1999/xlink">
    <!-- Generator: Sketch 55.2 (78181) - https://sketchapp.com -->
    <title>Мальдивы</title>
    <desc>Created with Sketch.</desc>
    <defs>
        <path d="M23.930625,11.9650233 C23.930625,18.5181395 18.57675,23.8308837 11.9724375,23.8308837 C5.36775,23.8308837 0.0133125,18.5181395 0.0133125,11.9650233 C0.0133125,5.41153488 5.36775,0.0991627907 11.9724375,0.0991627907 C18.57675,0.0991627907 23.930625,5.41153488 23.930625,11.9650233 L23.930625,11.9650233 Z" id="path-1"></path>
    </defs>
    <g id="Page-1" stroke="none" stroke-width="1" fill="none" fill-rule="evenodd">
        <g id="Мальдивы">
            <mask id="mask-2" fill="white">
                <use xlink:href="#path-1"></use>
            </mask>
            <g id="Clip-7324"></g>
            <path d="M-5.965875,23.8308837 L29.91,23.8308837 L29.91,0.0989767442 L-5.965875,0.0989767442 L-5.965875,23.8308837 Z M0.0133125,17.8982326 L23.930625,17.8982326 L23.930625,6.03237209 L0.0133125,6.03237209 L0.0133125,17.8982326 Z" id="Fill-7323" fill="#FF1612" mask="url(#mask-2)"></path>
            <polygon id="Fill-7325" fill="#47B71D" mask="url(#mask-2)" points="0.0133125 17.8982326 23.930625 17.8982326 23.930625 6.03181395 0.0133125 6.03181395"></polygon>
            <path d="M14.21475,8.07962791 C11.769375,7.61916279 9.481125,9.47181395 9.481125,11.9650233 C9.481125,14.4584186 11.769375,16.3112558 14.21475,15.8506047 C12.3705,15.5034419 10.9756875,13.896 10.9756875,11.9650233 C10.9756875,10.0344186 12.3705,8.42716279 14.21475,8.07962791" id="Fill-7326" fill="#F4F4F4" mask="url(#mask-2)"></path>
        </g>
    </g>
</svg>