<?xml version="1.0" encoding="UTF-8"?>
<svg width="24px" height="24px" viewBox="0 0 24 24" version="1.1" xmlns="http://www.w3.org/2000/svg" xmlns:xlink="http://www.w3.org/1999/xlink">
    <!-- Generator: Sketch 55.2 (78181) - https://sketchapp.com -->
    <title>Марокко</title>
    <desc>Created with Sketch.</desc>
    <defs>
        <path d="M23.9938125,11.964 C23.9938125,18.5683125 18.639375,23.9221875 12.0346875,23.9221875 C5.4298125,23.9221875 0.0755625,18.5683125 0.0755625,11.964 C0.0755625,5.3593125 5.4298125,0.0058125 12.0346875,0.0058125 C18.639375,0.0058125 23.9938125,5.3593125 23.9938125,11.964 L23.9938125,11.964 Z" id="path-1"></path>
    </defs>
    <g id="Page-1" stroke="none" stroke-width="1" fill="none" fill-rule="evenodd">
        <g id="Марокко">
            <mask id="mask-2" fill="white">
                <use xlink:href="#path-1"></use>
            </mask>
            <g id="Clip-7983"></g>
            <polygon id="Fill-7982" fill="#C20B18" mask="url(#mask-2)" points="-5.9045625 23.922375 29.9728125 23.922375 29.9728125 0.0058125 -5.9045625 0.0058125"></polygon>
            <path d="M12.277125,9.03825 L12.8596875,10.7683125 L15.7273125,10.7683125 L14.9296875,11.3270625 L13.407375,12.3946875 L13.9880625,14.118375 L14.2854375,15.0031875 L13.521,14.467125 L11.986125,13.3910625 L10.4505,14.467125 L9.68625,15.0031875 L10.5646875,12.3946875 L9.042,11.3270625 L8.2445625,10.7683125 L11.112375,10.7683125 L11.986125,8.1740625 L12.277125,9.03825 Z M13.06725,11.383875 L13.1326875,11.5783125 L13.2031875,11.788875 L13.7805,11.383875 L13.06725,11.383875 Z M12.5503125,11.773125 L12.41925,11.383875 L11.553,11.383875 L11.4211875,11.773125 L11.292375,12.1558125 L11.6326875,12.3946875 L11.986125,12.6418125 L12.3391875,12.3946875 L12.6793125,12.1558125 L12.5503125,11.773125 Z M12.2116875,10.7683125 L11.986125,10.0978125 L11.760375,10.7683125 L12.2116875,10.7683125 Z M13.1075625,13.4281875 L12.883125,12.762 L12.69,12.897375 L12.5205,13.0164375 L13.1075625,13.4281875 Z M11.45175,13.0164375 L11.2813125,12.897375 L11.0881875,12.762 L10.8645,13.4281875 L11.45175,13.0164375 Z M10.191,11.383875 L10.768125,11.788875 L10.839,11.5783125 L10.905,11.383875 L10.191,11.383875 L10.191,11.383875 Z" id="Fill-7984" fill="#0C7843" mask="url(#mask-2)"></path>
        </g>
    </g>
</svg>