<?xml version="1.0" encoding="utf-8"?>
<!-- Generator: Adobe Illustrator 23.0.1, SVG Export Plug-In . SVG Version: 6.00 Build 0)  -->
<svg version="1.1" id="Слой_1" xmlns="http://www.w3.org/2000/svg" xmlns:xlink="http://www.w3.org/1999/xlink" x="0px" y="0px"
	 viewBox="0 0 24 24" style="enable-background:new 0 0 24 24;" xml:space="preserve">
<style type="text/css">
	.st0{clip-path:url(#SVGID_2_);fill:#7C0040;}
	.st1{clip-path:url(#SVGID_2_);fill:#FFFFFF;}
	.st2{clip-path:url(#SVGID_2_);fill:none;stroke:#000000;stroke-width:0.5;}
	.st3{fill-rule:evenodd;clip-rule:evenodd;fill:none;stroke:#CCCCCC;stroke-width:0.1;stroke-miterlimit:10;}
</style>
<title>Таиланд Copy</title>
<desc>Created with Sketch.</desc>
<g>
	<defs>
		<circle id="SVGID_1_" cx="12" cy="12" r="12"/>
	</defs>
	<clipPath id="SVGID_2_">
		<use xlink:href="#SVGID_1_"  style="overflow:visible;"/>
	</clipPath>
	
		<rect x="-8.8" y="-11.1" transform="matrix(1 -2.202490e-03 2.202490e-03 1 -1.588863e-02 4.010773e-02)" class="st0" width="54" height="36.6"/>
	<polygon class="st1" points="5.5,-11 10.6,-9.1 5.5,-7 10.6,-5 5.5,-2.9 10.6,-0.9 5.5,1.2 10.6,3.2 5.5,5.3 10.6,7.2 5.5,9.3 
		10.6,11.3 5.5,13.4 10.6,15.4 5.6,17.5 10.7,19.5 5.6,21.6 10.7,23.6 5.6,25.6 -8.8,25.7 -8.8,-11 	"/>
	<rect x="-8.8" y="-11.1" class="st2" width="54" height="36.6"/>
</g>
<g>
</g>
<circle class="st3" cx="12" cy="12" r="12"/>
<g>
</g>
</svg>
