<?xml version="1.0" encoding="UTF-8"?>
<svg width="24px" height="24px" viewBox="0 0 24 24" version="1.1" xmlns="http://www.w3.org/2000/svg" xmlns:xlink="http://www.w3.org/1999/xlink">
    <!-- Generator: Sketch 55.2 (78181) - https://sketchapp.com -->
    <title>Сингапур</title>
    <desc>Created with Sketch.</desc>
    <defs>
        <path d="M23.9930625,11.9630625 C23.9930625,18.567 18.638625,23.9210625 12.0343125,23.9210625 C5.4298125,23.9210625 0.07575,18.567 0.07575,11.9630625 C0.07575,5.3581875 5.4298125,0.004125 12.0343125,0.004125 C18.638625,0.004125 23.9930625,5.3581875 23.9930625,11.9630625 L23.9930625,11.9630625 Z" id="path-1"></path>
    </defs>
    <g id="Page-1" stroke="none" stroke-width="1" fill="none" fill-rule="evenodd">
        <g id="Сингапур">
            <mask id="mask-2" fill="white">
                <use xlink:href="#path-1"></use>
            </mask>
            <g id="Clip-9202"></g>
            <polygon id="Fill-9201" fill="#F90805" mask="url(#mask-2)" points="0.075375 11.9630625 35.9514375 11.9630625 35.9514375 0.004125 0.075375 0.004125"></polygon>
            <path d="M0.07575,23.9218125 L35.9514375,23.9218125 L35.9514375,11.96325 L0.07575,11.96325 L0.07575,23.9218125 Z M7.9081875,1.4788125 C8.418375,1.4788125 8.9090625,1.564125 9.366375,1.721625 C7.10475,1.939125 5.3401875,3.75525 5.3401875,5.9626875 C5.3401875,8.1703125 7.10475,9.985875 9.366375,10.204125 C8.9090625,10.36125 8.418375,10.4465625 7.9081875,10.4465625 C5.4313125,10.4465625 3.4239375,8.439375 3.4239375,5.9626875 C3.4239375,3.486375 5.4313125,1.4788125 7.9081875,1.4788125 Z M10.2755625,2.313375 L10.5155625,3.0568125 L11.2963125,3.055125 L10.6635,3.5131875 L10.9065,4.2555 L10.2755625,3.7951875 L9.6444375,4.2555 L9.88725,3.5131875 L9.25425,3.055125 L10.0359375,3.0568125 L10.2755625,2.313375 Z M12.670875,4.1401875 L12.9110625,4.88325 L13.692,4.88175 L13.059375,5.3401875 L13.302375,6.0825 L12.670875,5.6218125 L12.03975,6.0825 L12.28275,5.3401875 L11.6499375,4.88175 L12.43125,4.88325 L12.670875,4.1401875 Z M7.879875,4.1401875 L8.1200625,4.88325 L8.901375,4.88175 L8.2685625,5.3401875 L8.5111875,6.0825 L7.879875,5.6218125 L7.2493125,6.0825 L7.492125,5.3401875 L6.85875,4.88175 L7.6400625,4.88325 L7.879875,4.1401875 Z M8.7748125,6.954375 L9.0148125,7.6978125 L9.79575,7.6963125 L9.1629375,8.1545625 L9.4055625,8.89725 L8.7748125,8.4365625 L8.1435,8.89725 L8.3865,8.1545625 L7.753875,7.6963125 L8.5344375,7.6978125 L8.7748125,6.954375 Z M11.7765,6.954375 L12.016125,7.6978125 L12.7978125,7.6963125 L12.1648125,8.1545625 L12.407625,8.89725 L11.7765,8.4365625 L11.1455625,8.89725 L11.3885625,8.1545625 L10.75575,7.6963125 L11.5365,7.6978125 L11.7765,6.954375 L11.7765,6.954375 Z" id="Fill-9203" fill="#F0F0F0" mask="url(#mask-2)"></path>
        </g>
    </g>
</svg>