<?xml version="1.0" encoding="UTF-8"?>
<svg width="24px" height="24px" viewBox="0 0 24 24" version="1.1" xmlns="http://www.w3.org/2000/svg" xmlns:xlink="http://www.w3.org/1999/xlink">
    <!-- Generator: Sketch 55.2 (78181) - https://sketchapp.com -->
    <title>Южная Корея</title>
    <desc>Created with Sketch.</desc>
    <defs>
        <path d="M23.9311875,11.9653125 C23.9311875,18.569625 18.5765625,23.923875 11.972625,23.923875 C5.3675625,23.923875 0.0129375,18.569625 0.0129375,11.9653125 C0.0129375,5.3608125 5.3675625,0.007125 11.972625,0.007125 C18.5765625,0.007125 23.9311875,5.3608125 23.9311875,11.9653125 L23.9311875,11.9653125 Z" id="path-1"></path>
    </defs>
    <g id="Page-1" stroke="none" stroke-width="1" fill="none" fill-rule="evenodd">
        <g id="Южная-Корея">
            <mask id="mask-2" fill="white">
                <use xlink:href="#path-1"></use>
            </mask>
            <g id="Clip-7220"></g>
            <polygon id="Fill-7219" fill="#F0F0F0" mask="url(#mask-2)" points="-5.966625 23.923875 29.909625 23.923875 29.909625 0.007125 -5.966625 0.007125"></polygon>
            <polygon id="Stroke-7221" stroke="#F3F3F4" stroke-width="0.178" mask="url(#mask-2)" points="-5.966625 23.923875 29.909625 23.923875 29.909625 0.007125 -5.966625 0.007125"></polygon>
            <path d="M16.6179375,14.0289375 C15.826125,15.8251875 14.0304375,17.0784375 11.9416875,17.0784375 C9.1201875,17.0784375 6.833625,14.7916875 6.833625,11.970375 C6.833625,11.1264375 7.0381875,10.3303125 7.401,9.6286875 C6.91425,12.1515 8.8753125,13.6708125 10.68975,12.945375 C11.695875,12.5431875 11.888625,11.8704375 12.639,11.31675 C14.4995625,9.94425 16.941,11.48325 16.6273125,14.00775 C16.6235625,14.0146875 16.6231875,14.01825 16.6179375,14.0289375" id="Fill-7222" fill="#0437A0" mask="url(#mask-2)"></path>
            <path d="M11.9416875,6.8623125 C14.7628125,6.8623125 17.0505,9.149625 17.0505,11.970375 C17.0505,12.694875 16.899375,13.38375 16.6273125,14.00775 C16.941,11.48325 14.4995625,9.94425 12.639,11.31675 C11.888625,11.8704375 11.695875,12.5431875 10.68975,12.945375 C8.8753125,13.6708125 6.91425,12.1515 7.401,9.6286875 C8.2501875,7.985625 9.9646875,6.8623125 11.9416875,6.8623125" id="Fill-7223" fill="#FF1612" mask="url(#mask-2)"></path>
            <path d="M2.4091875,8.6525625 L5.248875,4.39575 L5.9533125,4.86825 L3.1145625,9.1246875 L2.4091875,8.6525625 Z M3.450375,9.365625 L6.2900625,5.109 L6.9943125,5.581125 L4.1551875,9.8379375 L3.450375,9.365625 Z M1.3215,7.9610625 L4.160625,3.7044375 L4.866,4.176375 L2.0266875,8.4331875 L1.3215,7.9610625 L1.3215,7.9610625 Z" id="Fill-7224" fill="#000000" mask="url(#mask-2)"></path>
            <path d="M20.8288125,9.1246875 L17.989875,4.86825 L18.6946875,4.39575 L21.534,8.6525625 L20.8288125,9.1246875 Z M21.916875,8.4331875 L20.59425,6.4501875 L21.2998125,5.979375 L22.621875,7.9610625 L21.916875,8.4331875 Z M20.368125,6.111375 L19.0771875,4.176375 L19.7821875,3.7044375 L21.073875,5.6405625 L20.368125,6.111375 Z M19.788375,9.8379375 L18.4726875,7.86525 L19.1780625,7.3944375 L20.493,9.365625 L19.788375,9.8379375 Z M18.2465625,7.52625 L16.948875,5.581125 L17.6536875,5.109 L18.9525,7.055625 L18.2465625,7.52625 L18.2465625,7.52625 Z" id="Fill-7225" fill="#000000" mask="url(#mask-2)"></path>
            <path d="M20.493,14.565 L19.1780625,16.536375 L18.4726875,16.0651875 L19.788375,14.0926875 L20.493,14.565 Z M18.9525,16.8751875 L17.6536875,18.822 L16.948875,18.349875 L18.2465625,16.404 L18.9525,16.8751875 Z M22.621875,15.9699375 L21.2998125,17.9514375 L20.59425,17.48025 L21.916875,15.498 L22.621875,15.9699375 Z M21.073875,18.29025 L19.7821875,20.2269375 L19.0771875,19.7548125 L20.368125,17.8194375 L21.073875,18.29025 Z M21.534,15.2780625 L20.2276875,17.2365 L19.5223125,16.7656875 L20.8288125,14.8059375 L21.534,15.2780625 Z M20.002125,17.5755 L18.6946875,19.534875 L17.989875,19.0625625 L19.295625,17.1043125 L20.002125,17.5755 L20.002125,17.5755 Z" id="Fill-7226" fill="#000000" mask="url(#mask-2)"></path>
            <path d="M3.130875,14.8059375 L4.4383125,16.7656875 L3.732375,17.2365 L2.4260625,15.2780625 L3.130875,14.8059375 Z M4.17225,14.0926875 L7.01175,18.349875 L6.3065625,18.822 L3.4670625,14.565 L4.17225,14.0926875 Z M2.04375,15.498 L4.882875,19.7548125 L4.177875,20.2269375 L1.338375,15.9699375 L2.04375,15.498 Z M4.66425,17.1043125 L5.9709375,19.0625625 L5.26575,19.534875 L3.9585,17.5755 L4.66425,17.1043125 L4.66425,17.1043125 Z" id="Fill-7227" fill="#000000" mask="url(#mask-2)"></path>
        </g>
    </g>
</svg>