<?xml version="1.0" encoding="UTF-8"?>
<svg width="24px" height="24px" viewBox="0 0 24 24" version="1.1" xmlns="http://www.w3.org/2000/svg" xmlns:xlink="http://www.w3.org/1999/xlink">
    <!-- Generator: Sketch 55.2 (78181) - https://sketchapp.com -->
    <title>Шри-Ланка</title>
    <desc>Created with Sketch.</desc>
    <defs>
        <path d="M23.931,11.9626047 C23.931,18.5153488 18.576375,23.827907 11.97225,23.827907 C5.3675625,23.827907 0.0136875,18.5153488 0.0136875,11.9626047 C0.0136875,5.40893023 5.3675625,0.096372093 11.97225,0.096372093 C18.576375,0.096372093 23.931,5.40893023 23.931,11.9626047 L23.931,11.9626047 Z" id="path-1"></path>
    </defs>
    <g id="Page-1" stroke="none" stroke-width="1" fill="none" fill-rule="evenodd">
        <g id="Шри-Ланка">
            <mask id="mask-2" fill="white">
                <use xlink:href="#path-1"></use>
            </mask>
            <g id="Clip-9805"></g>
            <polygon id="Fill-9804" fill="#FFC703" mask="url(#mask-2)" points="0.0136875 23.827907 23.931 23.827907 23.931 0.096372093 0.0136875 0.096372093"></polygon>
            <polygon id="Fill-9806" fill="#FF6600" mask="url(#mask-2)" points="3.2293125 21.832186 7.9284375 21.832186 7.9284375 1.82455814 3.2293125 1.82455814"></polygon>
            <polygon id="Fill-9807" fill="#007A26" mask="url(#mask-2)" points="-1.469625 21.832186 3.2293125 21.832186 3.2293125 1.82455814 -1.469625 1.82455814"></polygon>
            <polygon id="Fill-9808" fill="#C20B18" mask="url(#mask-2)" points="9.6256875 21.832186 31.395 21.832186 31.395 1.82455814 9.6256875 1.82455814"></polygon>
            <path d="M13.6078125,13.1146047 C13.4191875,13.3133023 13.6565625,13.4489302 13.6565625,13.4489302 C13.5129375,13.6978605 13.7675625,13.7908837 13.7675625,13.7908837 C13.7675625,13.7908837 13.7626875,13.9311628 13.7420625,13.9873488 C13.720875,14.0444651 13.6314375,13.9953488 13.597125,13.9644651 C13.56225,13.9343256 13.4715,13.9049302 13.404375,13.9529302 C13.3365,14.000186 13.2774375,14.1410233 13.368,14.2373953 C13.4585625,14.3339535 13.621125,14.3285581 13.6965,14.3231628 C13.772625,14.3177674 13.7510625,14.3871628 13.7274375,14.416186 C13.704375,14.4455814 13.6314375,14.5499535 13.575375,14.6106047 C13.5193125,14.6708837 13.5665625,14.7054884 13.61475,14.7693023 C13.6625625,14.8329302 13.716375,15.004093 13.7120625,15.147907 C13.7086875,15.2915349 13.54875,15.4584186 13.54875,15.4584186 C13.4986875,15.3631628 13.4004375,15.2991628 13.363875,15.2933953 C13.3276875,15.2872558 13.14975,15.2636279 13.156125,15.5023256 C13.1625,15.7413953 13.6261875,15.8584186 13.6261875,15.8584186 C13.6261875,15.8584186 13.4525625,16.0357209 13.395375,16.0738605 C13.3389375,16.112 13.391625,16.1382326 13.4248125,16.1421395 C13.4585625,16.1466047 13.6610625,16.1784186 13.7341875,16.2 C13.8069375,16.2221395 13.8084375,16.3540465 13.8418125,16.4165581 C13.87425,16.4786977 13.9430625,16.556093 13.983375,16.556093 C14.023875,16.556093 14.097,16.4805581 14.1358125,16.423814 C14.1740625,16.3666977 14.1909375,16.2413023 14.224875,16.2076279 C14.2588125,16.1737674 14.5036875,16.1493953 14.558625,16.1389767 C14.6131875,16.128 14.61825,16.108093 14.5974375,16.0894884 C14.5764375,16.0706977 14.3540625,15.8526512 14.3540625,15.8526512 C14.688,15.7947907 14.8455,15.5973953 14.8455,15.4764651 C14.8455,15.3547907 14.72925,15.2613953 14.6019375,15.28 C14.4751875,15.2987907 14.4320625,15.4329302 14.4320625,15.4329302 C14.340375,15.3739535 14.260125,15.2733023 14.2485,15.1341395 C14.2374375,14.9957209 14.287875,14.8805581 14.3458125,14.7966512 C14.403375,14.7131163 14.4343125,14.6533953 14.397,14.6124651 C14.359125,14.5709767 14.2558125,14.4433488 14.23575,14.4066977 C14.2155,14.3685581 14.176125,14.2946977 14.217375,14.2747907 C14.259375,14.2548837 14.35275,14.312186 14.4185625,14.335814 C14.484,14.359814 14.6589375,14.3274419 14.6655,14.1916279 C14.6713125,14.0546977 14.5494375,13.9986977 14.4736875,13.9895814 C14.3983125,13.980093 14.2543125,13.9884651 14.2543125,13.9884651 C14.2441875,13.9626047 14.2096875,13.9071628 14.2096875,13.9071628 C14.34975,13.9034419 14.3930625,13.8416744 14.3930625,13.8416744 C14.3930625,13.8416744 14.418,13.9030698 14.4909375,13.911814 C14.56425,13.9205581 14.63625,13.816186 14.63625,13.816186 C14.63625,13.816186 14.701875,13.8450233 14.7500625,13.896186 C14.7976875,13.9473488 14.858625,13.9914419 14.858625,14.0651163 C14.858625,14.1393488 14.872875,14.5172093 14.87025,14.6667907 C14.868,14.8173023 14.9244375,14.8546977 14.985,14.9384186 C15.045375,15.0223256 15.11475,14.9586977 15.12075,14.8984186 C15.1275,14.8383256 15.14625,14.8275349 15.1929375,14.7908837 C15.239625,14.7547907 15.2750625,14.7391628 15.3219375,14.7908837 C15.3680625,14.8420465 15.7790625,15.2115349 16.0085625,15.404093 C16.2380625,15.5968372 16.548,15.4215814 16.70175,15.3242791 C16.855125,15.2264186 17.1148125,14.9289302 17.1148125,14.9289302 C17.7751875,15.424186 17.9866875,15.3769302 17.9866875,15.3769302 C17.9866875,15.3769302 18.2578125,16.108093 18.3230625,16.568 C18.3885,17.028093 18.0650625,17.2115349 17.9540625,17.2625116 C17.8434375,17.311814 17.4395625,17.3071628 17.3015625,17.3021395 C17.1624375,17.2969302 17.0799375,17.3045581 16.986375,17.3594419 C16.893,17.4143256 16.6865625,17.6072558 16.6284375,17.9469767 C16.5705,18.2872558 17.0645625,17.9248372 17.0645625,17.9248372 C17.3266875,18.3144186 17.727375,17.9270698 17.727375,17.9270698 C18.0980625,18.2842791 18.46725,17.935814 18.46725,17.935814 C18.696375,18.1032558 18.9988125,18.1058605 19.0670625,18.0535814 C19.13475,18.0009302 19.311,17.7733953 19.285875,17.6487442 C19.2605625,17.5233488 19.2076875,17.168 19.2380625,17.0935814 C19.2680625,17.0178605 19.328625,17.0379535 19.6363125,16.928186 C19.943625,16.8184186 19.95,16.7144186 20.0990625,16.5294884 C20.247,16.344186 20.1114375,16.3391628 19.95,16.304186 C19.78875,16.2690233 19.5744375,16.2545116 19.5016875,16.0963721 C19.4278125,15.9393488 19.556625,15.7417674 19.63725,15.6018605 C19.7180625,15.4615814 19.953,15.0948837 19.953,15.0948837 C20.283375,15.0422326 21.2896875,14.5655814 21.9225,14.3105116 C22.5553125,14.0552558 23.057625,14.131907 23.057625,14.131907 C23.0075625,14.6293953 23.3060625,15.0109767 23.530125,15.2885581 C23.75475,15.5663256 23.96475,15.871814 23.985,16.0848372 C24.0050625,16.2973023 24.026625,17.1962791 24.026625,17.1962791 C23.9514375,17.3365581 23.7316875,17.3990698 23.5501875,17.4063256 C23.36925,17.4135814 23.0945625,17.424186 22.970625,17.4917209 C22.84725,17.5590698 22.5675,17.9186977 22.713375,18.0491163 C22.8601875,18.1787907 23.205,17.8965581 23.205,17.8965581 C23.530125,18.3017674 23.84925,17.907907 23.84925,17.907907 C24.2218125,18.2853953 24.4966875,17.920186 24.4966875,17.920186 C24.93525,18.2675349 25.114125,17.9826977 25.114125,17.9826977 C25.1769375,18.2453953 25.585125,17.9129302 25.585125,17.9129302 C25.875375,18.3028837 26.2291875,17.9084651 26.2291875,17.9084651 C26.6855625,18.3266977 26.922,17.8965581 26.922,17.8965581 C27.4411875,18.2515349 27.6376875,17.9892093 27.5649375,17.8489302 C27.4918125,17.7090233 27.1659375,17.3555349 27.246,17.0476279 C27.3264375,16.7402791 27.671625,16.5901395 27.8506875,16.3525581 C28.030125,16.1149767 27.7955625,16.0796279 27.661875,16.0223256 C27.528,15.9652093 27.19425,15.7912558 27.219375,14.9910698 C27.244875,14.1908837 27.817125,13.3533023 27.8319375,12.3975814 C27.847125,11.4427907 27.2956875,10.8150698 27.2956875,10.8150698 C28.318125,10.0048372 27.80925,9.1095814 27.3435,8.83516279 C26.876625,8.56 26.262,8.61451163 25.840875,8.66474419 C25.4205,8.7144186 24.69825,8.8107907 24.2671875,8.79125581 C23.8365,8.77116279 23.7845625,8.50809302 23.7598125,8.37618605 C23.7346875,8.24316279 23.6265,8.2424186 23.501625,8.32093023 C23.3769375,8.39944186 23.2351875,8.59311628 23.2351875,8.59311628 C23.2351875,8.59311628 23.081625,8.44893023 23.090625,8.21711628 C23.0994375,7.98548837 23.581125,7.81376744 23.581125,7.81376744 C22.9321875,7.29265116 22.5384375,7.99330233 22.5384375,7.99330233 C22.025625,7.55925581 22.3614375,7.25265116 22.513875,7.15423256 C22.6666875,7.05488372 22.917,7.07162791 22.978875,7.23013953 C23.0409375,7.3892093 23.161875,7.28613953 23.23125,7.16874419 C23.3004375,7.05097674 23.264625,6.75627907 23.264625,6.75627907 C23.9053125,6.7947907 24.19725,7.47348837 23.761125,8.02232558 C24.34275,8.07348837 24.7730625,7.48186047 24.5266875,6.89934884 C25.0905,7.11739535 25.108875,7.49823256 24.801375,7.94567442 C24.76125,8.00483721 24.7764375,8.05786047 24.84975,8.0532093 C24.9230625,8.048 25.04325,8.056 25.251375,7.9144186 C25.4593125,7.77302326 25.5204375,7.5652093 25.5204375,7.5652093 C25.624875,7.7627907 25.87575,7.91906977 25.9651875,7.97246512 C26.0548125,8.02623256 26.3304375,8.15162791 26.3825625,8.07795349 C26.43375,8.00372093 26.2955625,7.9252093 26.2351875,7.79367442 C26.1740625,7.66213953 26.1525,7.48706977 26.1525,7.48706977 C26.2831875,7.56446512 26.9146875,8.10083721 27.1265625,8.26827907 C27.33825,8.43609302 27.73125,8.51609302 28.0359375,8.38846512 C28.340625,8.26102326 28.373625,7.94809302 28.302,7.72837209 C28.23,7.50809302 27.96825,7.41544186 27.7561875,7.54548837 C27.544875,7.67534884 27.6324375,7.9304186 27.6324375,7.9304186 C27.3549375,7.90772093 26.9128125,7.49655814 26.6656875,7.3067907 C26.419125,7.11646512 25.921125,6.73990698 25.2961875,6.44744186 C24.6718125,6.15497674 24.19875,6.11609302 23.60625,6.13823256 C23.0143125,6.16074419 22.840875,6.27888372 22.7120625,6.33116279 C22.5838125,6.38381395 22.4146875,6.46846512 22.0768125,6.71590698 C21.7396875,6.96372093 21.6525,7.32781395 21.705,7.70288372 C21.75825,8.07795349 22.147125,8.46195349 22.147125,8.46195349 C22.147125,8.46195349 21.96675,8.64837209 21.979125,8.90567442 C21.991875,9.16334884 22.1330625,9.31832558 22.2286875,9.4184186 C22.3245,9.51869767 22.35075,9.36483721 22.3786875,9.18102326 C22.40625,8.99683721 22.5838125,8.94381395 22.755375,8.99869767 C22.9269375,9.0535814 23.34675,9.2427907 23.795625,9.32781395 C24.244125,9.4132093 25.0065,9.36930233 25.3014375,9.29693023 C25.596,9.224 25.9160625,9.17153488 26.432625,9.16148837 C26.949375,9.15162791 27.206625,9.36427907 27.252,9.71162791 C27.297,10.0589767 27.069,10.2656744 26.865,10.3579535 C26.6608125,10.4506047 26.343375,10.5557209 26.1136875,10.5957209 C25.88475,10.6357209 25.5369375,10.6284651 25.1235,10.6130233 C24.7100625,10.5981395 24.2405625,10.6217674 23.96325,10.6770233 C23.686125,10.7322791 23.3859375,10.7395349 22.9524375,10.7345116 C22.5193125,10.7296744 21.60525,10.6956279 21.60525,10.6956279 C21.60525,10.6956279 21.4063125,10.4645581 21.3433125,10.3082791 C21.2803125,10.152 21.292125,9.97172093 21.292125,9.97172093 C21.292125,9.97172093 21.4573125,10.1181395 21.5454375,10.0628837 C21.6335625,10.008186 21.4715625,9.74102326 21.43725,9.61023256 C21.4033125,9.47869767 21.4275,9.37004651 21.4275,9.37004651 C21.4275,9.37004651 21.4966875,9.40595349 21.53175,9.36483721 C21.567,9.32353488 21.5626875,8.97786047 21.5679375,8.81004651 C21.5728125,8.64297674 21.607875,8.09246512 21.547875,7.86381395 C21.4873125,7.63497674 21.345375,7.4852093 21.345375,7.4852093 C21.345375,7.4852093 21.5281875,7.30567442 21.660375,7.05823256 C21.79275,6.8104186 21.7815,6.51646512 21.7815,6.51646512 C21.6530625,6.64651163 21.3915,6.86381395 21.225375,6.8612093 C21.0585,6.8587907 21.0435,6.78455814 20.9004375,6.66362791 C20.7564375,6.54232558 20.5385625,6.44632558 20.4073125,6.41506977 C20.27625,6.38306977 20.278875,6.5095814 20.245875,6.61339535 C20.2134375,6.71739535 20.1279375,6.82567442 20.1279375,6.82567442 C20.1279375,6.82567442 20.0124375,6.696 19.828125,6.55925581 C19.6441875,6.42344186 19.486875,6.40818605 19.379625,6.41283721 C19.2729375,6.41804651 19.26375,6.55460465 19.269,6.75051163 C19.2740625,6.9467907 19.0695,6.80465116 18.9755625,6.72148837 C18.8825625,6.63739535 18.7981875,6.6052093 18.5851875,6.58772093 C18.372375,6.56948837 18.0135,6.63609302 18.0135,6.63609302 C18.0135,6.63609302 18.0885,6.82381395 18.0838125,6.89581395 C18.0789375,6.96855814 17.967375,7.06437209 17.8768125,7.13302326 C17.7856875,7.20167442 17.64225,7.22437209 17.4433125,7.22753488 C17.2441875,7.232 17.1230625,7.27962791 17.0248125,7.32576744 C16.926375,7.37227907 16.6635,7.33395349 16.4934375,7.40706977 C16.555875,6.84669767 15.8109375,6.7387907 15.6973125,7.18325581 C15.6121875,7.51534884 15.7936875,7.89693023 16.004625,8.14362791 C16.20375,8.37618605 16.4401875,8.61060465 16.492875,8.68688372 C16.54575,8.7627907 16.7259375,8.84055814 16.791375,8.87144186 C16.8571875,8.90344186 16.8675,8.88353488 16.8635625,8.86195349 C16.859625,8.84055814 16.8575625,8.63348837 16.8575625,8.63348837 C16.8575625,8.63348837 17.034,8.80093023 17.123625,8.84502326 C17.21325,8.88855814 17.2396875,8.83627907 17.251875,8.75590698 C17.264625,8.67665116 17.31,8.61339535 17.31,8.61339535 C17.3655,8.76130233 17.772,9.26325581 17.772,9.26325581 C17.772,9.26325581 17.467125,9.26176744 17.34075,9.23404651 C17.2149375,9.20688372 16.7566875,9.08874419 16.5165,8.98381395 C16.2755625,8.87832558 15.856125,8.55609302 15.7426875,8.77525581 C15.6294375,8.99348837 15.96375,9.20316279 15.96375,9.20316279 C15.87825,9.22176744 15.8330625,9.3067907 15.8188125,9.3892093 C15.805125,9.47181395 15.694875,9.79981395 15.6620625,9.87404651 C15.6294375,9.94772093 15.5863125,10.020093 15.6924375,10.0174884 C15.7981875,10.0150698 16.2279375,9.94623256 16.264125,9.93897674 C16.3006875,9.93097674 16.308,9.93897674 16.2909375,9.9735814 C16.273125,10.0087442 16.2301875,10.1142326 16.210125,10.1566512 C16.1900625,10.1992558 16.1683125,10.243907 16.215,10.2327442 C16.2616875,10.2213953 16.5571875,10.1637209 16.6186875,10.131907 C16.6805625,10.1012093 16.728375,10.0785116 16.7836875,10.1546047 C16.83975,10.2308837 16.93875,10.336186 16.99725,10.3333953 C17.055375,10.3307907 17.0878125,10.264186 17.107875,10.1546047 C17.1279375,10.0444651 17.1973125,10.2180465 17.2569375,10.3220465 C17.3158125,10.4260465 17.4140625,10.5534884 17.4845625,10.532093 C17.55525,10.5106977 17.5910625,10.3525581 17.664,10.287814 C17.737125,10.2228837 17.8831875,10.1901395 17.89125,10.4048372 C17.8985625,10.620093 17.59575,10.6396279 16.728375,11.4372093 C15.861375,12.2347907 16.077,13.5737674 16.077,13.5737674 L14.8055625,12.3322791 C14.8055625,12.3322791 15.193875,12.1257674 15.105375,11.7676279 C15.0174375,11.4089302 14.5554375,11.4535814 14.5554375,11.4535814 C14.5554375,11.4535814 14.577,11.3605581 14.5794375,11.248 C14.5816875,11.1348837 14.5936875,10.576 14.61375,9.63125581 C14.634,8.68613953 14.7436875,7.14213953 14.8516875,6.30176744 C14.9604375,5.4615814 15.1314375,5.38418605 15.0789375,5.34902326 C15.025875,5.3144186 14.7886875,5.4215814 14.4864375,5.72204651 C14.184,6.02195349 13.832625,6.75125581 13.7218125,7.27590698 C13.4625,8.50195349 13.542,10.1985116 13.55925,11.4775814 C13.425375,11.4574884 13.304625,11.4729302 13.1835,11.5328372 C13.06275,11.5927442 12.876,11.7977674 13.0400625,12.088 C13.20375,12.3776744 13.6104375,12.4390698 13.6104375,12.4390698 C13.4578125,12.5741395 13.5931875,12.707907 13.5931875,12.707907 C13.3209375,12.7741395 13.4908125,13.0109767 13.6078125,13.1146047 Z M25.29825,15.3034419 C25.5538125,15.4584186 26.1200625,15.787907 26.268375,16.0593488 C26.417625,16.3311628 26.42475,17.0731163 26.2861875,17.1832558 C26.147625,17.2933953 25.671375,17.3529302 25.4769375,17.4734884 C25.3033125,17.5808372 25.269,17.6044651 25.22775,17.6835349 C25.2226875,17.6930233 25.1319375,17.9564651 25.1265,17.9674419 C25.1265,17.9674419 25.1034375,17.9946047 25.10925,17.9613023 C25.115625,17.9255814 25.215375,17.6911628 25.215375,17.6792558 C25.217625,17.6228837 25.2110625,17.4989767 25.14225,17.3330233 C25.04625,17.1032558 25.1019375,16.9311628 25.2305625,16.7730233 C25.359,16.616 25.7090625,16.267907 25.6284375,16.1207442 C25.548375,15.9732093 25.2665625,16.0811163 25.1806875,16.0052093 C25.0951875,15.9285581 24.8566875,15.7060465 25.29825,15.3034419 Z" id="Fill-9809" fill="#FFC703" mask="url(#mask-2)"></path>
            <path d="M13.6078125,13.1146047 C13.4191875,13.3133023 13.6565625,13.4489302 13.6565625,13.4489302 C13.5129375,13.6978605 13.7675625,13.7908837 13.7675625,13.7908837 C13.7675625,13.7908837 13.7626875,13.9311628 13.7420625,13.9873488 C13.720875,14.0444651 13.6314375,13.9953488 13.597125,13.9644651 C13.56225,13.9343256 13.4715,13.9049302 13.404375,13.9529302 C13.3365,14.000186 13.2774375,14.1410233 13.368,14.2373953 C13.4585625,14.3339535 13.621125,14.3285581 13.6965,14.3231628 C13.772625,14.3177674 13.7510625,14.3871628 13.7274375,14.416186 C13.704375,14.4455814 13.6314375,14.5499535 13.575375,14.6106047 C13.5193125,14.6708837 13.5665625,14.7054884 13.61475,14.7693023 C13.6625625,14.8329302 13.716375,15.004093 13.7120625,15.147907 C13.7086875,15.2915349 13.54875,15.4584186 13.54875,15.4584186 C13.4986875,15.3631628 13.4004375,15.2991628 13.363875,15.2933953 C13.3276875,15.2872558 13.14975,15.2636279 13.156125,15.5023256 C13.1625,15.7413953 13.6261875,15.8584186 13.6261875,15.8584186 C13.6261875,15.8584186 13.4525625,16.0357209 13.395375,16.0738605 C13.3389375,16.112 13.391625,16.1382326 13.4248125,16.1421395 C13.4585625,16.1466047 13.6610625,16.1784186 13.7341875,16.2 C13.8069375,16.2221395 13.8084375,16.3540465 13.8418125,16.4165581 C13.87425,16.4786977 13.9430625,16.556093 13.983375,16.556093 C14.023875,16.556093 14.097,16.4805581 14.1358125,16.423814 C14.1740625,16.3666977 14.1909375,16.2413023 14.224875,16.2076279 C14.2588125,16.1737674 14.5036875,16.1493953 14.558625,16.1389767 C14.6131875,16.128 14.61825,16.108093 14.5974375,16.0894884 C14.5764375,16.0706977 14.3540625,15.8526512 14.3540625,15.8526512 C14.688,15.7947907 14.8455,15.5973953 14.8455,15.4764651 C14.8455,15.3547907 14.72925,15.2613953 14.6019375,15.28 C14.4751875,15.2987907 14.4320625,15.4329302 14.4320625,15.4329302 C14.340375,15.3739535 14.260125,15.2733023 14.2485,15.1341395 C14.2374375,14.9957209 14.287875,14.8805581 14.3458125,14.7966512 C14.403375,14.7131163 14.4343125,14.6533953 14.397,14.6124651 C14.359125,14.5709767 14.2558125,14.4433488 14.23575,14.4066977 C14.2155,14.3685581 14.176125,14.2946977 14.217375,14.2747907 C14.259375,14.2548837 14.35275,14.312186 14.4185625,14.335814 C14.484,14.359814 14.6589375,14.3274419 14.6655,14.1916279 C14.6713125,14.0546977 14.5494375,13.9986977 14.4736875,13.9895814 C14.3983125,13.980093 14.2543125,13.9884651 14.2543125,13.9884651 C14.2441875,13.9626047 14.2096875,13.9071628 14.2096875,13.9071628 C14.34975,13.9034419 14.3930625,13.8416744 14.3930625,13.8416744 C14.3930625,13.8416744 14.418,13.9030698 14.4909375,13.911814 C14.56425,13.9205581 14.63625,13.816186 14.63625,13.816186 C14.63625,13.816186 14.701875,13.8450233 14.7500625,13.896186 C14.7976875,13.9473488 14.858625,13.9914419 14.858625,14.0651163 C14.858625,14.1393488 14.872875,14.5172093 14.87025,14.6667907 C14.868,14.8173023 14.9244375,14.8546977 14.985,14.9384186 C15.045375,15.0223256 15.11475,14.9586977 15.12075,14.8984186 C15.1275,14.8383256 15.14625,14.8275349 15.1929375,14.7908837 C15.239625,14.7547907 15.2750625,14.7391628 15.3219375,14.7908837 C15.3680625,14.8420465 15.7790625,15.2115349 16.0085625,15.404093 C16.2380625,15.5968372 16.548,15.4215814 16.70175,15.3242791 C16.855125,15.2264186 17.1148125,14.9289302 17.1148125,14.9289302 C17.7751875,15.424186 17.9866875,15.3769302 17.9866875,15.3769302 C17.9866875,15.3769302 18.2578125,16.108093 18.3230625,16.568 C18.3885,17.028093 18.0650625,17.2115349 17.9540625,17.2625116 C17.8434375,17.311814 17.4395625,17.3071628 17.3015625,17.3021395 C17.1624375,17.2969302 17.0799375,17.3045581 16.986375,17.3594419 C16.893,17.4143256 16.6865625,17.6072558 16.6284375,17.9469767 C16.5705,18.2872558 17.0645625,17.9248372 17.0645625,17.9248372 C17.3266875,18.3144186 17.727375,17.9270698 17.727375,17.9270698 C18.0980625,18.2842791 18.46725,17.935814 18.46725,17.935814 C18.696375,18.1032558 18.9988125,18.1058605 19.0670625,18.0535814 C19.13475,18.0009302 19.311,17.7733953 19.285875,17.6487442 C19.2605625,17.5233488 19.2076875,17.168 19.2380625,17.0935814 C19.2680625,17.0178605 19.328625,17.0379535 19.6363125,16.928186 C19.943625,16.8184186 19.95,16.7144186 20.0990625,16.5294884 C20.247,16.344186 20.1114375,16.3391628 19.95,16.304186 C19.78875,16.2690233 19.5744375,16.2545116 19.5016875,16.0963721 C19.4278125,15.9393488 19.556625,15.7417674 19.63725,15.6018605 C19.7180625,15.4615814 19.953,15.0948837 19.953,15.0948837 C20.283375,15.0422326 21.2896875,14.5655814 21.9225,14.3105116 C22.5553125,14.0552558 23.057625,14.131907 23.057625,14.131907 C23.0075625,14.6293953 23.3060625,15.0109767 23.530125,15.2885581 C23.75475,15.5663256 23.96475,15.871814 23.985,16.0848372 C24.0050625,16.2973023 24.026625,17.1962791 24.026625,17.1962791 C23.9514375,17.3365581 23.7316875,17.3990698 23.5501875,17.4063256 C23.36925,17.4135814 23.0945625,17.424186 22.970625,17.4917209 C22.84725,17.5590698 22.5675,17.9186977 22.713375,18.0491163 C22.8601875,18.1787907 23.205,17.8965581 23.205,17.8965581 C23.530125,18.3017674 23.84925,17.907907 23.84925,17.907907 C24.2218125,18.2853953 24.4966875,17.920186 24.4966875,17.920186 C24.93525,18.2675349 25.114125,17.9826977 25.114125,17.9826977 C25.1769375,18.2453953 25.585125,17.9129302 25.585125,17.9129302 C25.875375,18.3028837 26.2291875,17.9084651 26.2291875,17.9084651 C26.6855625,18.3266977 26.922,17.8965581 26.922,17.8965581 C27.4411875,18.2515349 27.6376875,17.9892093 27.5649375,17.8489302 C27.4918125,17.7090233 27.1659375,17.3555349 27.246,17.0476279 C27.3264375,16.7402791 27.671625,16.5901395 27.8506875,16.3525581 C28.030125,16.1149767 27.7955625,16.0796279 27.661875,16.0223256 C27.528,15.9652093 27.19425,15.7912558 27.219375,14.9910698 C27.244875,14.1908837 27.817125,13.3533023 27.8319375,12.3975814 C27.847125,11.4427907 27.2956875,10.8150698 27.2956875,10.8150698 C28.318125,10.0048372 27.80925,9.1095814 27.3435,8.83516279 C26.876625,8.56 26.262,8.61451163 25.840875,8.66474419 C25.4205,8.7144186 24.69825,8.8107907 24.2671875,8.79125581 C23.8365,8.77116279 23.7845625,8.50809302 23.7598125,8.37618605 C23.7346875,8.24316279 23.6265,8.2424186 23.501625,8.32093023 C23.3769375,8.39944186 23.2351875,8.59311628 23.2351875,8.59311628 C23.2351875,8.59311628 23.081625,8.44893023 23.090625,8.21711628 C23.0994375,7.98548837 23.581125,7.81376744 23.581125,7.81376744 C22.9321875,7.29265116 22.5384375,7.99330233 22.5384375,7.99330233 C22.025625,7.55925581 22.3614375,7.25265116 22.513875,7.15423256 C22.6666875,7.05488372 22.917,7.07162791 22.978875,7.23013953 C23.0409375,7.3892093 23.161875,7.28613953 23.23125,7.16874419 C23.3004375,7.05097674 23.264625,6.75627907 23.264625,6.75627907 C23.9053125,6.7947907 24.19725,7.47348837 23.761125,8.02232558 C24.34275,8.07348837 24.7730625,7.48186047 24.5266875,6.89934884 C25.0905,7.11739535 25.108875,7.49823256 24.801375,7.94567442 C24.76125,8.00483721 24.7764375,8.05786047 24.84975,8.0532093 C24.9230625,8.048 25.04325,8.056 25.251375,7.9144186 C25.4593125,7.77302326 25.5204375,7.5652093 25.5204375,7.5652093 C25.624875,7.7627907 25.87575,7.91906977 25.9651875,7.97246512 C26.0548125,8.02623256 26.3304375,8.15162791 26.3825625,8.07795349 C26.43375,8.00372093 26.2955625,7.9252093 26.2351875,7.79367442 C26.1740625,7.66213953 26.1525,7.48706977 26.1525,7.48706977 C26.2831875,7.56446512 26.9146875,8.10083721 27.1265625,8.26827907 C27.33825,8.43609302 27.73125,8.51609302 28.0359375,8.38846512 C28.340625,8.26102326 28.373625,7.94809302 28.302,7.72837209 C28.23,7.50809302 27.96825,7.41544186 27.7561875,7.54548837 C27.544875,7.67534884 27.6324375,7.9304186 27.6324375,7.9304186 C27.3549375,7.90772093 26.9128125,7.49655814 26.6656875,7.3067907 C26.419125,7.11646512 25.921125,6.73990698 25.2961875,6.44744186 C24.6718125,6.15497674 24.19875,6.11609302 23.60625,6.13823256 C23.0143125,6.16074419 22.840875,6.27888372 22.7120625,6.33116279 C22.5838125,6.38381395 22.4146875,6.46846512 22.0768125,6.71590698 C21.7396875,6.96372093 21.6525,7.32781395 21.705,7.70288372 C21.75825,8.07795349 22.147125,8.46195349 22.147125,8.46195349 C22.147125,8.46195349 21.96675,8.64837209 21.979125,8.90567442 C21.991875,9.16334884 22.1330625,9.31832558 22.2286875,9.4184186 C22.3245,9.51869767 22.35075,9.36483721 22.3786875,9.18102326 C22.40625,8.99683721 22.5838125,8.94381395 22.755375,8.99869767 C22.9269375,9.0535814 23.34675,9.2427907 23.795625,9.32781395 C24.244125,9.4132093 25.0065,9.36930233 25.3014375,9.29693023 C25.596,9.224 25.9160625,9.17153488 26.432625,9.16148837 C26.949375,9.15162791 27.206625,9.36427907 27.252,9.71162791 C27.297,10.0589767 27.069,10.2656744 26.865,10.3579535 C26.6608125,10.4506047 26.343375,10.5557209 26.1136875,10.5957209 C25.88475,10.6357209 25.5369375,10.6284651 25.1235,10.6130233 C24.7100625,10.5981395 24.2405625,10.6217674 23.96325,10.6770233 C23.686125,10.7322791 23.3859375,10.7395349 22.9524375,10.7345116 C22.5193125,10.7296744 21.60525,10.6956279 21.60525,10.6956279 C21.60525,10.6956279 21.4063125,10.4645581 21.3433125,10.3082791 C21.2803125,10.152 21.292125,9.97172093 21.292125,9.97172093 C21.292125,9.97172093 21.4573125,10.1181395 21.5454375,10.0628837 C21.6335625,10.008186 21.4715625,9.74102326 21.43725,9.61023256 C21.4033125,9.47869767 21.4275,9.37004651 21.4275,9.37004651 C21.4275,9.37004651 21.4966875,9.40595349 21.53175,9.36483721 C21.567,9.32353488 21.5626875,8.97786047 21.5679375,8.81004651 C21.5728125,8.64297674 21.607875,8.09246512 21.547875,7.86381395 C21.4873125,7.63497674 21.345375,7.4852093 21.345375,7.4852093 C21.345375,7.4852093 21.5281875,7.30567442 21.660375,7.05823256 C21.79275,6.8104186 21.7815,6.51646512 21.7815,6.51646512 C21.6530625,6.64651163 21.3915,6.86381395 21.225375,6.8612093 C21.0585,6.8587907 21.0435,6.78455814 20.9004375,6.66362791 C20.7564375,6.54232558 20.5385625,6.44632558 20.4073125,6.41506977 C20.27625,6.38306977 20.278875,6.5095814 20.245875,6.61339535 C20.2134375,6.71739535 20.1279375,6.82567442 20.1279375,6.82567442 C20.1279375,6.82567442 20.0124375,6.696 19.828125,6.55925581 C19.6441875,6.42344186 19.486875,6.40818605 19.379625,6.41283721 C19.2729375,6.41804651 19.26375,6.55460465 19.269,6.75051163 C19.2740625,6.9467907 19.0695,6.80465116 18.9755625,6.72148837 C18.8825625,6.63739535 18.7981875,6.6052093 18.5851875,6.58772093 C18.372375,6.56948837 18.0135,6.63609302 18.0135,6.63609302 C18.0135,6.63609302 18.0885,6.82381395 18.0838125,6.89581395 C18.0789375,6.96855814 17.967375,7.06437209 17.8768125,7.13302326 C17.7856875,7.20167442 17.64225,7.22437209 17.4433125,7.22753488 C17.2441875,7.232 17.1230625,7.27962791 17.0248125,7.32576744 C16.926375,7.37227907 16.6635,7.33395349 16.4934375,7.40706977 C16.555875,6.84669767 15.8109375,6.7387907 15.6973125,7.18325581 C15.6121875,7.51534884 15.7936875,7.89693023 16.004625,8.14362791 C16.20375,8.37618605 16.4401875,8.61060465 16.492875,8.68688372 C16.54575,8.7627907 16.7259375,8.84055814 16.791375,8.87144186 C16.8571875,8.90344186 16.8675,8.88353488 16.8635625,8.86195349 C16.859625,8.84055814 16.8575625,8.63348837 16.8575625,8.63348837 C16.8575625,8.63348837 17.034,8.80093023 17.123625,8.84502326 C17.21325,8.88855814 17.2396875,8.83627907 17.251875,8.75590698 C17.264625,8.67665116 17.31,8.61339535 17.31,8.61339535 C17.3655,8.76130233 17.772,9.26325581 17.772,9.26325581 C17.772,9.26325581 17.467125,9.26176744 17.34075,9.23404651 C17.2149375,9.20688372 16.7566875,9.08874419 16.5165,8.98381395 C16.2755625,8.87832558 15.856125,8.55609302 15.7426875,8.77525581 C15.6294375,8.99348837 15.96375,9.20316279 15.96375,9.20316279 C15.87825,9.22176744 15.8330625,9.3067907 15.8188125,9.3892093 C15.805125,9.47181395 15.694875,9.79981395 15.6620625,9.87404651 C15.6294375,9.94772093 15.5863125,10.020093 15.6924375,10.0174884 C15.7981875,10.0150698 16.2279375,9.94623256 16.264125,9.93897674 C16.3006875,9.93097674 16.308,9.93897674 16.2909375,9.9735814 C16.273125,10.0087442 16.2301875,10.1142326 16.210125,10.1566512 C16.1900625,10.1992558 16.1683125,10.243907 16.215,10.2327442 C16.2616875,10.2213953 16.5571875,10.1637209 16.6186875,10.131907 C16.6805625,10.1012093 16.728375,10.0785116 16.7836875,10.1546047 C16.83975,10.2308837 16.93875,10.336186 16.99725,10.3333953 C17.055375,10.3307907 17.0878125,10.264186 17.107875,10.1546047 C17.1279375,10.0444651 17.1973125,10.2180465 17.2569375,10.3220465 C17.3158125,10.4260465 17.4140625,10.5534884 17.4845625,10.532093 C17.55525,10.5106977 17.5910625,10.3525581 17.664,10.287814 C17.737125,10.2228837 17.8831875,10.1901395 17.89125,10.4048372 C17.8985625,10.620093 17.59575,10.6396279 16.728375,11.4372093 C15.861375,12.2347907 16.077,13.5737674 16.077,13.5737674 L14.8055625,12.3322791 C14.8055625,12.3322791 15.193875,12.1257674 15.105375,11.7676279 C15.0174375,11.4089302 14.5554375,11.4535814 14.5554375,11.4535814 C14.5554375,11.4535814 14.577,11.3605581 14.5794375,11.248 C14.5816875,11.1348837 14.5936875,10.576 14.61375,9.63125581 C14.634,8.68613953 14.7436875,7.14213953 14.8516875,6.30176744 C14.9604375,5.4615814 15.1314375,5.38418605 15.0789375,5.34902326 C15.025875,5.3144186 14.7886875,5.4215814 14.4864375,5.72204651 C14.184,6.02195349 13.832625,6.75125581 13.7218125,7.27590698 C13.4625,8.50195349 13.542,10.1985116 13.55925,11.4775814 C13.425375,11.4574884 13.304625,11.4729302 13.1835,11.5328372 C13.06275,11.5927442 12.876,11.7977674 13.0400625,12.088 C13.20375,12.3776744 13.6104375,12.4390698 13.6104375,12.4390698 C13.4578125,12.5741395 13.5931875,12.707907 13.5931875,12.707907 C13.3209375,12.7741395 13.4908125,13.0109767 13.6078125,13.1146047 Z M25.29825,15.3034419 C25.5538125,15.4584186 26.1200625,15.787907 26.268375,16.0593488 C26.417625,16.3311628 26.42475,17.0731163 26.2861875,17.1832558 C26.147625,17.2933953 25.671375,17.3529302 25.4769375,17.4734884 C25.3033125,17.5808372 25.269,17.6044651 25.22775,17.6835349 C25.2226875,17.6930233 25.1319375,17.9564651 25.1265,17.9674419 C25.1265,17.9674419 25.1034375,17.9946047 25.10925,17.9613023 C25.115625,17.9255814 25.215375,17.6911628 25.215375,17.6792558 C25.217625,17.6228837 25.2110625,17.4989767 25.14225,17.3330233 C25.04625,17.1032558 25.1019375,16.9311628 25.2305625,16.7730233 C25.359,16.616 25.7090625,16.267907 25.6284375,16.1207442 C25.548375,15.9732093 25.2665625,16.0811163 25.1806875,16.0052093 C25.0951875,15.9285581 24.8566875,15.7060465 25.29825,15.3034419 Z" id="Stroke-9810" stroke="#000000" stroke-width="0.323" mask="url(#mask-2)"></path>
            <path d="M21.2578125,7.15013953 C21.1723125,7.20316279 21.03225,7.28725581 20.835,7.35869767 C20.6383125,7.4295814 20.3848125,7.48818605 20.07,7.48948837 L20.07,7.44967442 C20.3788125,7.44818605 20.6278125,7.39106977 20.8213125,7.32130233 C21.0144375,7.25116279 21.1520625,7.168 21.23625,7.11646512 L21.2578125,7.15013953" id="Fill-9811" fill="#000000" mask="url(#mask-2)"></path>
            <path d="M20.163375,7.56762791 C20.2190625,7.62139535 20.4,7.79739535 20.400375,7.79776744 L20.427375,7.82418605 L20.390625,7.83144186 C20.389125,7.83181395 19.836,7.94567442 19.358625,7.73451163 C19.3854375,7.79944186 19.4383125,7.91516279 19.483875,7.96372093 L19.5099375,7.99181395 L19.4715,7.99683721 C19.4713125,7.9975814 19.1604375,8.04334884 18.7336875,7.80967442 C18.525375,7.696 18.3826875,7.63460465 18.2775,7.61823256 C18.1771875,7.60334884 18.109875,7.63088372 18.0493125,7.69488372 C18.0256875,7.72037209 18.0095625,7.74753488 17.9998125,7.77581395 C17.985,7.8187907 17.9859375,7.86418605 17.9971875,7.9064186 C18.009,7.94734884 18.0316875,7.98493023 18.061125,8.01246512 C18.0795,8.0295814 18.1005,8.04260465 18.123,8.05023256 C18.167625,8.06586047 18.2353125,8.05172093 18.2889375,8.01934884 C18.3135,8.00483721 18.3345,7.98548837 18.349125,7.96483721 C18.363,7.94493023 18.3706875,7.9224186 18.3695625,7.89730233 C18.3669375,7.86232558 18.3448125,7.82269767 18.2926875,7.78065116 L18.318375,7.75013953 C18.38025,7.79944186 18.4063125,7.84930233 18.4096875,7.89506977 C18.41175,7.92930233 18.400875,7.95981395 18.3826875,7.98734884 C18.3645,8.0132093 18.339,8.03534884 18.309375,8.0532093 C18.246375,8.09097674 18.1659375,8.10660465 18.11025,8.08837209 C18.0823125,8.07813953 18.05625,8.06213953 18.0335625,8.04111628 C17.99925,8.00911628 17.9720625,7.9652093 17.958375,7.91646512 C17.9450625,7.86790698 17.944125,7.81413953 17.9619375,7.7627907 C17.9735625,7.72967442 17.9919375,7.69711628 18.0196875,7.66772093 C18.0905625,7.59348837 18.1674375,7.56111628 18.2833125,7.57897674 C18.3939375,7.59534884 18.5405625,7.65860465 18.7528125,7.77451163 C19.0828125,7.95497674 19.33875,7.96409302 19.4304375,7.96055814 C19.3659375,7.8695814 19.3014375,7.70213953 19.3014375,7.70176744 L19.28325,7.65376744 L19.329,7.67702326 C19.7326875,7.87553488 20.2085625,7.82102326 20.3443125,7.79888372 C20.290875,7.74716279 20.1755625,7.63572093 20.13525,7.59646512 L20.163375,7.56762791" id="Fill-9812" fill="#000000" mask="url(#mask-2)"></path>
            <path d="M18.5300625,8.75776744 C18.5379375,8.81804651 18.5836875,8.89246512 18.6440625,8.96334884 C18.7134375,9.04409302 18.801,9.11851163 18.8743125,9.16334884 C18.9155625,9.11888372 19.060125,8.96055814 19.0764375,8.88595349 L19.08225,8.8584186 L19.10625,8.87293023 C19.107375,8.87293023 19.3471875,9.01637209 19.448625,9.11460465 C19.4619375,9.04297674 19.4878125,8.88706977 19.4805,8.78251163 L19.4765625,8.72837209 L19.515,8.76725581 C19.515375,8.76725581 19.6250625,8.88055814 19.679625,8.94623256 C19.7090625,8.90493023 19.7746875,8.79944186 19.798125,8.64837209 L19.8039375,8.61283721 L19.8315,8.63609302 C19.8320625,8.63627907 19.9903125,8.77116279 20.0596875,8.87553488 C20.0960625,8.80669767 20.1755625,8.63348837 20.1560625,8.48372093 L20.1958125,8.47832558 C20.223375,8.68427907 20.077875,8.9255814 20.0773125,8.92632558 L20.05875,8.95832558 L20.041875,8.92483721 C20.0045625,8.84930233 19.8855,8.73730233 19.8320625,8.68911628 C19.79325,8.87795349 19.6955625,8.99106977 19.6948125,8.99181395 L19.6786875,9.01060465 L19.6633125,8.99069767 C19.6348125,8.95255814 19.5650625,8.8775814 19.5223125,8.83255814 C19.519875,8.97544186 19.4799375,9.16037209 19.4799375,9.16148837 L19.4713125,9.20427907 L19.444125,9.16911628 C19.3875,9.09451163 19.175625,8.96130233 19.107375,8.91981395 C19.063125,9.02474419 18.8934375,9.20167442 18.8930625,9.20260465 L18.8818125,9.21413953 L18.8685,9.20613953 C18.7888125,9.16037209 18.6898125,9.07795349 18.6136875,8.9892093 C18.5484375,8.91330233 18.49875,8.83106977 18.4899375,8.7624186 L18.5300625,8.75776744" id="Fill-9813" fill="#000000" mask="url(#mask-2)"></path>
            <path d="M20.3349375,8.62325581 C20.4043125,8.66753488 20.468625,8.70865116 20.526,8.75162791 C20.5749375,8.78716279 20.61825,8.82418605 20.6559375,8.86567442 C20.6844375,8.77655814 20.7525,8.52372093 20.6934375,8.32390698 L20.6821875,8.28576744 L20.719875,8.29990698 C20.719875,8.29990698 20.8029375,8.32855814 20.8723125,8.47106977 C20.9116875,8.55237209 20.9289375,8.64111628 20.945625,8.72316279 C20.9563125,8.77953488 20.9668125,8.83255814 20.983875,8.87795349 C21.0238125,8.98623256 21.4378125,9.36483721 21.4393125,9.3652093 L21.41175,9.39516279 C21.410625,9.39404651 20.9893125,9.00874419 20.9461875,8.89190698 C20.928375,8.84390698 20.9169375,8.78865116 20.905875,8.7304186 C20.890125,8.65134884 20.872875,8.5652093 20.8359375,8.48893023 C20.8035,8.42195349 20.769,8.38344186 20.7440625,8.36204651 C20.7935625,8.61283721 20.6835,8.91106977 20.6829375,8.91218605 L20.6713125,8.94567442 L20.6488125,8.91832558 C20.60775,8.86827907 20.5580625,8.82455814 20.5025625,8.78306977 C20.44575,8.74139535 20.3821875,8.70102326 20.313,8.65711628 L20.3349375,8.62325581" id="Fill-9814" fill="#000000" mask="url(#mask-2)"></path>
            <path d="M21.152625,8.14176744 C21.1948125,8.19125581 21.2475,8.25004651 21.2971875,8.30027907 C21.3375,8.34232558 21.375375,8.3787907 21.4033125,8.40018605 L21.3785625,8.43181395 C21.3481875,8.40855814 21.309375,8.37116279 21.2679375,8.32818605 C21.217875,8.27627907 21.1648125,8.21711628 21.1220625,8.16762791 L21.152625,8.14176744" id="Fill-9815" fill="#000000" mask="url(#mask-2)"></path>
            <path d="M19.7145,9.42306977 C19.7589375,9.45897674 19.810875,9.50995349 19.8601875,9.56111628 C19.9115625,9.61562791 19.9599375,9.67125581 19.992375,9.71125581 C20.029125,9.65990698 20.1196875,9.52446512 20.1298125,9.41972093 L20.133375,9.38772093 L20.1609375,9.4052093 C20.1615,9.4052093 20.330625,9.51181395 20.437875,9.61023256 C20.464125,9.55162791 20.531625,9.4104186 20.5989375,9.33804651 L20.61525,9.32130233 L20.6295,9.33953488 C20.629875,9.33990698 20.761125,9.50009302 20.90175,9.62902326 C21.0418125,9.75851163 21.3245625,9.9732093 21.3256875,9.9735814 L21.3015,10.0059535 C21.3005625,10.0048372 21.0159375,9.78865116 20.874375,9.65823256 C20.760375,9.55423256 20.6525625,9.42883721 20.6131875,9.38269767 C20.5370625,9.47646512 20.46375,9.65172093 20.4631875,9.65190698 L20.4519375,9.67962791 L20.4309375,9.65860465 C20.3518125,9.58009302 20.220375,9.49097674 20.1654375,9.45581395 C20.13525,9.59311628 20.0090625,9.75590698 20.0086875,9.75665116 L19.992375,9.77767442 L19.976625,9.75665116 C19.9471875,9.71702326 19.891125,9.65190698 19.83,9.58846512 C19.782375,9.53786047 19.73175,9.48893023 19.689,9.4532093 L19.7145,9.42306977" id="Fill-9816" fill="#000000" mask="url(#mask-2)"></path>
            <path d="M15.967875,9.184 C16.009875,9.19274419 16.058625,9.20837209 16.1210625,9.22865116 C16.2474375,9.26939535 16.4300625,9.32855814 16.7165625,9.38232558 C17.143125,9.46195349 17.3709375,9.45693023 17.3715,9.45693023 L17.40825,9.45618605 L17.3885625,9.48744186 L17.261625,9.69153488 C17.3398125,9.69004651 17.5239375,9.68762791 17.654625,9.70102326 C17.701875,9.70548837 17.7526875,9.71702326 17.8025625,9.72837209 C17.87025,9.744 17.93475,9.75813953 17.9735625,9.75125581 C17.9971875,9.7467907 18.0099375,9.73116279 18.0035625,9.69302326 C17.9889375,9.61246512 17.9535,9.51646512 17.9038125,9.43367442 C17.86125,9.36130233 17.808,9.29916279 17.748,9.264 L17.768625,9.22939535 C17.8344375,9.26865116 17.8925625,9.33618605 17.9383125,9.4132093 C17.9908125,9.50046512 18.02775,9.60148837 18.04275,9.68688372 C18.0553125,9.75293023 18.0286875,9.78213953 17.9805,9.79088372 C17.9338125,9.79906977 17.8659375,9.78306977 17.7935625,9.76688372 C17.7455625,9.75590698 17.6953125,9.74511628 17.6505,9.74065116 C17.4834375,9.72316279 17.226375,9.73265116 17.2258125,9.73302326 L17.188125,9.73413953 L17.207625,9.70251163 L17.3360625,9.49655814 C17.2554375,9.49469767 17.0413125,9.48334884 16.7090625,9.4212093 C16.420125,9.36706977 16.236375,9.30790698 16.108875,9.2667907 C16.047375,9.24651163 15.999375,9.23125581 15.9598125,9.22251163 L15.967875,9.184" id="Fill-9817" fill="#000000" mask="url(#mask-2)"></path>
            <path d="M18.7651875,9.56483721 C18.8355,9.73153488 19.0501875,9.90790698 19.107375,9.95181395 C19.1398125,9.9175814 19.230375,9.81376744 19.2759375,9.66716279 L19.28325,9.64539535 L19.3040625,9.65488372 C19.305,9.65562791 19.5654375,9.77953488 19.690875,10.1116279 C19.7205,10.0775814 19.7709375,10.0132093 19.7893125,9.96167442 L19.8015,9.92744186 L19.824,9.95609302 C19.82475,9.95646512 20.0030625,10.1882791 20.4073125,10.3826977 C20.4253125,10.3384186 20.46975,10.2253023 20.471625,10.1626047 L20.511375,10.1629767 C20.5089375,10.2507907 20.4358125,10.4176744 20.4358125,10.4180465 L20.427375,10.4368372 L20.4088125,10.428093 C20.0641875,10.2656744 19.873875,10.0742326 19.813875,10.0059535 C19.7754375,10.0814884 19.6981875,10.163907 19.6978125,10.1642791 L19.6745625,10.1890233 L19.6644375,10.1570233 C19.569,9.87330233 19.3708125,9.7387907 19.306875,9.70176744 C19.244625,9.87906977 19.123125,9.99218605 19.123125,9.99237209 L19.110375,10.0044651 L19.0970625,9.99386047 C19.0959375,9.99348837 18.8128125,9.78288372 18.727875,9.58009302 L18.7651875,9.56483721" id="Fill-9818" fill="#000000" mask="url(#mask-2)"></path>
            <path d="M20.6510625,10.3086512 C20.7421875,10.3986977 20.882625,10.4866977 21.0538125,10.544 C21.196875,10.5916279 21.361125,10.6174884 21.5355,10.6033488 L21.5386875,10.6435349 C21.3585,10.6574884 21.189,10.6312558 21.0410625,10.5819535 C20.8640625,10.5229767 20.7174375,10.4306977 20.623125,10.3376744 L20.6510625,10.3086512" id="Fill-9819" fill="#000000" mask="url(#mask-2)"></path>
            <path d="M21.35175,10.6137674 C21.3890625,10.6677209 21.46425,10.7577674 21.5821875,10.8463256 C21.6639375,10.9077209 21.766125,10.9691163 21.891,11.0186047 L21.9376875,11.0372093 L21.891,11.0556279 C21.8900625,11.056 21.601875,11.1730233 21.28425,11.1073488 C21.2701875,11.1711628 21.2248125,11.3864186 21.244125,11.5469767 L21.246375,11.572093 L21.2214375,11.5687442 C21.2205,11.5687442 20.8453125,11.524093 20.5291875,11.3620465 C20.481,11.423814 20.2711875,11.6777674 20.0415,11.744 L20.0206875,11.7497674 L20.016375,11.7293023 C20.016375,11.7283721 19.946625,11.4089302 19.8575625,11.2468837 C19.8166875,11.1730233 19.7881875,11.1028837 19.7690625,11.0403721 C19.7505,10.9819535 19.7405625,10.9307907 19.7368125,10.8915349 C19.6955625,10.9266977 19.6183125,11.0132093 19.5905625,11.1882791 C19.5489375,11.4517209 19.429875,11.5302326 19.4295,11.5306047 L19.407375,11.5454884 L19.3989375,11.52 C19.3989375,11.52 19.3513125,11.3732093 19.260375,11.2777674 C19.2091875,11.2249302 19.18125,11.1709767 19.16625,11.1313488 C19.1146875,11.264 18.977625,11.5786047 18.80775,11.643907 L18.7846875,11.6530233 L18.7809375,11.6284651 C18.7809375,11.628093 18.7524375,11.4413023 18.6855,11.2507907 C18.660375,11.3497674 18.594,11.5302326 18.429375,11.6487442 C18.19875,11.8150698 18.1460625,11.8383256 18.1460625,11.8383256 L18.108,11.8550698 L18.1183125,11.8150698 C18.1186875,11.8148837 18.187125,11.564093 18.111375,11.4489302 C18.055875,11.3648372 18.052875,11.2824186 18.05775,11.2334884 C17.9784375,11.2751628 17.787375,11.3648372 17.61225,11.3590698 L17.571,11.3575814 L17.5970625,11.3263256 C17.5970625,11.3261395 17.7538125,11.1389767 17.7538125,11.024186 C17.7538125,10.8935814 17.8595625,10.7810233 17.8595625,10.7806512 L17.8895625,10.807814 C17.889,10.808186 17.7935625,10.9092093 17.7935625,11.024186 C17.7935625,11.1214884 17.70075,11.2569302 17.6540625,11.3186977 C17.8591875,11.3082791 18.073875,11.1784186 18.075,11.1782326 L18.12,11.1516279 L18.10425,11.2014884 C18.103875,11.2020465 18.0695625,11.3125581 18.1445625,11.4267907 C18.2086875,11.5244651 18.1845,11.6982326 18.167625,11.779907 C18.2053125,11.7566512 18.276375,11.7097674 18.4063125,11.6167442 C18.6279375,11.4573023 18.6598125,11.1767442 18.6598125,11.1756279 L18.669375,11.0982326 L18.69825,11.1702326 C18.767625,11.3423256 18.8045625,11.5283721 18.816375,11.596093 C19.003125,11.4943256 19.1491875,11.0604651 19.1495625,11.0589767 L19.1780625,10.9750698 L19.1889375,11.0630698 C19.1889375,11.0630698 19.19925,11.1566512 19.288875,11.2504186 C19.361625,11.3261395 19.40775,11.4303256 19.426875,11.4794419 C19.4593125,11.4463256 19.5223125,11.3609302 19.5508125,11.1821395 C19.592625,10.9172093 19.744875,10.8362791 19.7454375,10.8362791 L19.776,10.8195349 L19.7754375,10.8539535 C19.7746875,10.8915349 19.7836875,10.9533023 19.807125,11.0288372 C19.8255,11.0887442 19.8538125,11.1566512 19.892625,11.2275349 C19.9708125,11.3696744 20.0334375,11.624 20.05125,11.6991628 C20.290875,11.6171163 20.5066875,11.3253953 20.5070625,11.3250233 L20.517375,11.3106977 L20.53275,11.3190698 C20.798625,11.4586047 21.11175,11.5127442 21.2011875,11.5259535 C21.1865625,11.3311628 21.2499375,11.0796279 21.2505,11.0785116 L21.2548125,11.0597209 L21.2745,11.064 C21.510375,11.1185116 21.7321875,11.0654884 21.827625,11.0357209 C21.7209375,10.9884651 21.6313125,10.9335814 21.55875,10.8783256 C21.435375,10.7856744 21.3575625,10.6926512 21.31875,10.6357209 L21.35175,10.6137674" id="Fill-9820" fill="#000000" mask="url(#mask-2)"></path>
            <path d="M18.165,10.1869767 C18.1745625,10.2976744 18.247875,10.4794419 18.276375,10.5469767 C18.329625,10.496186 18.46875,10.3551628 18.5090625,10.2331163 L18.522375,10.1931163 L18.544875,10.2286512 C18.5454375,10.2293953 18.6245625,10.3525581 18.6403125,10.5916279 C18.7126875,10.535814 18.894,10.383814 18.9579375,10.2413023 L18.969375,10.2174884 L18.9894375,10.2340465 C18.990375,10.2351628 19.210125,10.415814 19.3365,10.6667907 C19.3629375,10.6225116 19.4113125,10.5175814 19.433625,10.3136744 L19.436625,10.288186 L19.461375,10.2969302 C19.4619375,10.2976744 19.8020625,10.420093 20.023875,10.6967442 C20.0454375,10.6258605 20.0878125,10.452093 20.0769375,10.2187907 L20.1166875,10.2174884 C20.1324375,10.5343256 20.050125,10.7451163 20.04975,10.7453023 L20.037,10.779907 L20.014875,10.7501395 C19.8350625,10.5069767 19.5538125,10.3780465 19.4713125,10.343814 C19.4353125,10.6254884 19.3486875,10.7188837 19.348125,10.7188837 L19.3276875,10.7425116 L19.3149375,10.7142326 C19.2165,10.5004651 19.041375,10.3337674 18.9834375,10.2813023 C18.8865,10.4630698 18.634875,10.6461395 18.6345,10.6468837 L18.60375,10.6697674 L18.6024375,10.6316279 C18.5964375,10.4573023 18.555375,10.3419535 18.5300625,10.2872558 C18.459375,10.4375814 18.2836875,10.5949767 18.2833125,10.5957209 L18.262125,10.6141395 L18.250875,10.5888372 C18.250875,10.5884651 18.1378125,10.3339535 18.1245,10.1901395 L18.165,10.1869767" id="Fill-9821" fill="#000000" mask="url(#mask-2)"></path>
            <path d="M20.5501875,13.208 C20.5753125,13.8485581 19.9666875,15.1101395 19.964625,15.1134884 L19.9284375,15.0963721 C19.9303125,15.0924651 20.535,13.8394419 20.509875,13.2098605 L20.5501875,13.208" id="Fill-9822" fill="#000000" mask="url(#mask-2)"></path>
            <path d="M17.9735625,13.916093 C17.918625,14.0615814 17.88225,14.3877209 17.8895625,14.7075349 C17.895,14.9666977 17.9293125,15.2202791 18.0045,15.3674419 L17.9686875,15.3856744 C17.8905,15.2323721 17.8550625,14.9724651 17.84925,14.7082791 C17.8419375,14.384186 17.8790625,14.0517209 17.935875,13.9019535 L17.9735625,13.916093" id="Fill-9823" fill="#000000" mask="url(#mask-2)"></path>
            <path d="M16.0843125,13.5313488 C16.1461875,13.7060465 16.3595625,14.0986047 16.6126875,14.4303256 C16.7863125,14.6578605 16.978125,14.8554419 17.150625,14.9313488 L17.134875,14.968186 C16.9550625,14.8889302 16.758375,14.6865116 16.5804375,14.4543256 C16.3250625,14.1196279 16.1094375,13.7220465 16.0464375,13.5443721 L16.0843125,13.5313488" id="Fill-9824" fill="#000000" mask="url(#mask-2)"></path>
            <path d="M23.05875,14.112 C23.1309375,14.1142326 23.2021875,14.1142326 23.2715625,14.1138605 C23.6131875,14.1138605 23.9210625,14.1138605 24.2274375,14.3773023 C24.3463125,14.480186 24.459375,14.5892093 24.5715,14.6978605 C24.801,14.9194419 25.02825,15.1389767 25.2995625,15.2937674 L25.2795,15.3285581 C25.0040625,15.1706047 24.7749375,14.9495814 24.543375,14.7261395 C24.431625,14.6182326 24.319125,14.5095814 24.200625,14.4074419 C23.9056875,14.1538605 23.6053125,14.1538605 23.2715625,14.1538605 C23.2018125,14.1538605 23.1305625,14.1538605 23.05725,14.152 L23.05875,14.112" id="Fill-9825" fill="#000000" mask="url(#mask-2)"></path>
            <path d="M13.5705,11.4619535 C13.622625,11.4986047 13.6635,11.5447442 13.688625,11.5938605 C13.7135625,11.6429767 13.7229375,11.6952558 13.712625,11.7443721 C13.7023125,11.7947907 13.6771875,11.8122791 13.654125,11.8293953 C13.635375,11.8431628 13.6183125,11.8550698 13.621125,11.8980465 C13.6235625,11.940093 13.6610625,11.9743256 13.73025,11.9986977 C13.8050625,12.0243721 13.9141875,12.0383256 14.05725,12.0383256 C14.16975,12.0383256 14.2648125,12.0258605 14.3375625,12.0063256 C14.387625,11.9933023 14.4264375,11.9765581 14.4530625,11.9586977 C14.4751875,11.9434419 14.487375,11.9285581 14.487375,11.9147907 C14.487375,11.912186 14.4868125,11.9103256 14.4864375,11.9084651 C14.4785625,11.8805581 14.4545625,11.8576744 14.430375,11.8351628 C14.397,11.8046512 14.3645625,11.7741395 14.3645625,11.7257674 C14.3645625,11.683907 14.3881875,11.6232558 14.423625,11.5672558 C14.455875,11.5146047 14.49975,11.4649302 14.5438125,11.4364651 L14.5659375,11.4703256 C14.5261875,11.4950698 14.487375,11.5404651 14.457375,11.5884651 C14.4260625,11.6385116 14.404875,11.6911628 14.404875,11.7257674 C14.404875,11.7566512 14.4315,11.7813953 14.4579375,11.8063256 C14.4860625,11.8325581 14.5145625,11.8591628 14.5254375,11.8980465 C14.52675,11.9034419 14.527125,11.9088372 14.527125,11.9147907 C14.527125,11.9415814 14.5096875,11.9685581 14.4755625,11.991814 C14.446125,12.012093 14.40225,12.0310698 14.3473125,12.0455814 C14.272125,12.0654884 14.173875,12.0781395 14.05725,12.0781395 C13.9096875,12.0781395 13.7956875,12.0632558 13.717125,12.036093 C13.6305,12.0059535 13.58475,11.960186 13.5808125,11.9008372 C13.576875,11.8362791 13.6025625,11.8176744 13.6305,11.7977674 C13.64775,11.7849302 13.6659375,11.7711628 13.6734375,11.7369302 C13.6816875,11.696 13.6738125,11.6530233 13.652625,11.6117209 C13.6305,11.5676279 13.594125,11.5272558 13.5474375,11.4943256 L13.5705,11.4619535" id="Fill-9826" fill="#000000" mask="url(#mask-2)"></path>
            <path d="M13.59375,12.416186 C13.6993125,12.4204651 13.9265625,12.4284651 14.16675,12.4176744 C14.4058125,12.4063256 14.6566875,12.3765581 14.8104375,12.3067907 L14.827125,12.3430698 C14.66775,12.4150698 14.41125,12.4459535 14.16825,12.4573023 C13.9269375,12.4688372 13.6981875,12.4612093 13.59225,12.456186 L13.59375,12.416186" id="Fill-9827" fill="#000000" mask="url(#mask-2)"></path>
            <path d="M13.7675625,13.7849302 C13.8315,13.7871628 13.933875,13.8005581 14.027625,13.8223256 C14.104875,13.8405581 14.17725,13.8634419 14.2205625,13.8893023 L14.199375,13.9235349 C14.1598125,13.8997209 14.092125,13.8786977 14.019,13.8615814 C13.9269375,13.8405581 13.828125,13.8264186 13.76625,13.8245581 L13.7675625,13.7849302" id="Fill-9828" fill="#000000" mask="url(#mask-2)"></path>
            <path d="M13.6565625,13.4288372 C13.7405625,13.4288372 13.9003125,13.452093 14.044875,13.484093 C14.173875,13.5127442 14.2914375,13.548093 14.3325,13.5786047 C14.3745,13.6102326 14.40075,13.6563721 14.41425,13.7021395 C14.4309375,13.7577674 14.4283125,13.815814 14.4106875,13.8507907 L14.374875,13.8333023 C14.3881875,13.8061395 14.389125,13.760186 14.376,13.7133023 C14.3645625,13.6749767 14.3424375,13.6366512 14.3085,13.6109767 C14.2715625,13.5836279 14.1598125,13.5503256 14.0360625,13.5237209 C13.8945,13.4917209 13.738125,13.4684651 13.6565625,13.4688372 L13.6565625,13.4288372" id="Fill-9829" fill="#000000" mask="url(#mask-2)"></path>
            <path d="M13.6095,13.0941395 C13.6835625,13.0986047 13.875375,13.1244651 14.0469375,13.1614884 C14.1643125,13.1875349 14.2730625,13.2184186 14.3304375,13.2530233 C14.3630625,13.271814 14.386125,13.296186 14.4013125,13.3235349 C14.4195,13.3566512 14.4260625,13.3944186 14.4230625,13.4303256 C14.4200625,13.4666047 14.4084375,13.5015814 14.3900625,13.5313488 C14.371875,13.5614884 14.3465625,13.5869767 14.3188125,13.6022326 L14.299125,13.5676279 C14.32125,13.5557209 14.340375,13.535814 14.3551875,13.5110698 C14.3705625,13.4859535 14.3803125,13.4573023 14.38275,13.4273488 C14.385,13.3979535 14.3806875,13.3689302 14.3660625,13.3426977 C14.3540625,13.3216744 14.3360625,13.3021395 14.31,13.2872558 C14.2569375,13.256 14.1519375,13.2253023 14.038125,13.2007442 C13.8684375,13.1637209 13.6801875,13.1382326 13.6074375,13.1341395 L13.6095,13.0941395" id="Fill-9830" fill="#000000" mask="url(#mask-2)"></path>
            <path d="M13.597125,12.6883721 C13.6880625,12.7064186 13.853625,12.752 14.008125,12.8031628 C14.1324375,12.8446512 14.2505625,12.8893023 14.3158125,12.9270698 C14.3491875,12.9456744 14.3724375,12.9702326 14.3881875,12.9986977 C14.4103125,13.0386977 14.416125,13.084093 14.4121875,13.1268837 C14.4084375,13.1694884 14.3953125,13.2098605 14.3776875,13.2396279 C14.3649375,13.2621395 14.3491875,13.2792558 14.3330625,13.287814 L14.3139375,13.2533953 C14.323125,13.248 14.333625,13.235907 14.343,13.2195349 C14.3581875,13.1947907 14.3690625,13.1596279 14.3724375,13.1237209 C14.376,13.0872558 14.37075,13.0498605 14.35275,13.0182326 C14.340375,12.9957209 14.3221875,12.976186 14.296125,12.9616744 C14.23275,12.9255814 14.1178125,12.8816744 13.9951875,12.8413023 C13.8429375,12.7905116 13.67925,12.7453023 13.58925,12.728 L13.597125,12.6883721" id="Fill-9831" fill="#000000" mask="url(#mask-2)"></path>
            <path d="M13.9220625,12.4249302 C14.0326875,12.455814 14.147625,12.4982326 14.2426875,12.5454884 C14.31,12.5793488 14.3675625,12.6156279 14.4058125,12.6533953 C14.4474375,12.6941395 14.4673125,12.7369302 14.4553125,12.7795349 C14.454,12.7853023 14.4515625,12.7916279 14.449125,12.7966512 C14.38275,12.9263256 14.281875,12.9484651 14.2815,12.9484651 L14.2726875,12.9099535 C14.2726875,12.9099535 14.3551875,12.891907 14.41275,12.7791628 C14.41425,12.7756279 14.416125,12.7722791 14.4165,12.7683721 C14.4238125,12.7421395 14.4084375,12.7123721 14.3773125,12.6814884 C14.3424375,12.6472558 14.28825,12.6130233 14.2243125,12.5812093 C14.1320625,12.5346977 14.019375,12.4935814 13.9111875,12.4634419 L13.9220625,12.4249302" id="Fill-9832" fill="#000000" mask="url(#mask-2)"></path>
            <path d="M14.6240625,13.8005581 C14.668875,13.7650233 14.729625,13.7082791 14.762625,13.6533953 C14.782875,13.6193488 14.7924375,13.5866047 14.776875,13.5629767 C14.7740625,13.5579535 14.7699375,13.5531163 14.766375,13.5488372 C14.7515625,13.5339535 14.731125,13.5272558 14.70825,13.5287442 C14.6825625,13.5302326 14.6535,13.5415814 14.623125,13.5607442 C14.6004375,13.5741395 14.577375,13.5923721 14.5554375,13.6141395 C14.457375,13.7082791 14.4165,13.7562791 14.4165,13.7562791 L14.3855625,13.7307907 C14.3855625,13.7304186 14.4279375,13.6818605 14.527125,13.5854884 C14.5513125,13.5614884 14.577,13.5415814 14.6019375,13.5266977 C14.637375,13.504 14.673375,13.4909767 14.705625,13.4889302 C14.7406875,13.4870698 14.771625,13.4967442 14.79525,13.5211163 C14.8010625,13.5272558 14.8065,13.5339535 14.811375,13.5415814 C14.836125,13.5812093 14.82525,13.6273488 14.7976875,13.6738605 C14.7616875,13.7333953 14.6964375,13.7936744 14.6491875,13.831814 L14.6240625,13.8005581" id="Fill-9833" fill="#000000" mask="url(#mask-2)"></path>
            <path d="M14.7061875,13.4971163 C14.7474375,13.4215814 14.794125,13.2777674 14.803125,13.1875349 C14.8055625,13.1642791 14.8055625,13.1458605 14.802,13.1341395 C14.8005,13.1294884 14.7995625,13.1268837 14.799,13.1276279 C14.792625,13.1276279 14.782875,13.1333953 14.769,13.1454884 C14.6334375,13.2636279 14.4091875,13.4626977 14.4091875,13.4626977 L14.3821875,13.4329302 C14.38275,13.4325581 14.608875,13.2323721 14.7425625,13.1153488 C14.76375,13.0971163 14.7819375,13.088 14.79675,13.0868837 C14.8201875,13.0853953 14.8340625,13.0993488 14.841,13.1237209 C14.8455,13.1406512 14.8456875,13.163907 14.8434375,13.1908837 C14.8335,13.2861395 14.78475,13.4368372 14.7421875,13.5164651 L14.7061875,13.4971163" id="Fill-9834" fill="#000000" mask="url(#mask-2)"></path>
            <path d="M14.758875,13.1051163 C14.776875,13.0459535 14.7916875,12.9933023 14.7924375,12.952186 C14.792625,12.9172093 14.782875,12.8907907 14.754375,12.8775814 C14.6930625,12.8496744 14.41125,13.1244651 14.4103125,13.1250233 L14.3821875,13.0971163 C14.3833125,13.0963721 14.6840625,12.8020465 14.7710625,12.8416744 C14.8171875,12.8619535 14.8329375,12.9015814 14.8325625,12.9529302 C14.8314375,12.9986977 14.81625,13.0546977 14.797125,13.1168372 L14.758875,13.1051163" id="Fill-9835" fill="#000000" mask="url(#mask-2)"></path>
            <path d="M14.720625,12.8485581 C14.7465,12.799814 14.767125,12.7475349 14.7765,12.6991628 C14.784375,12.6593488 14.784375,12.6228837 14.7725625,12.5970233 C14.754375,12.556093 14.452125,12.7741395 14.4515625,12.7752558 L14.4279375,12.7428837 C14.428875,12.7421395 14.7699375,12.4946977 14.8095,12.5812093 C14.82525,12.6145116 14.825625,12.6593488 14.8156875,12.7067907 C14.8055625,12.7588837 14.7838125,12.815814 14.755875,12.8671628 L14.720625,12.8485581" id="Fill-9836" fill="#000000" mask="url(#mask-2)"></path>
            <path d="M10.4398125,2.72930233 L10.459875,2.96483721 C10.459875,2.96483721 10.1953125,3.35590698 10.3531875,3.6055814 C10.5114375,3.85581395 10.7671875,3.9172093 11.0109375,3.98697674 C11.2543125,4.05674419 11.671875,4.13413953 11.836125,4.38865116 C12.000375,4.64260465 12.0286875,4.68762791 12.0598125,4.68316279 C12.09075,4.67925581 12.04875,4.36167442 12.02025,4.24688372 C11.991375,4.13227907 11.8940625,3.80930233 11.890125,3.62939535 C11.8786875,3.16948837 11.7631875,2.73804651 11.4406875,2.62511628 C11.2854375,2.57023256 11.0851875,2.57674419 10.819875,2.71367442 L10.4398125,2.72930233 Z" id="Fill-9837" fill="#FFC703" mask="url(#mask-2)"></path>
            <path d="M10.4398125,2.72930233 L10.459875,2.96483721 C10.459875,2.96483721 10.1953125,3.35590698 10.3531875,3.6055814 C10.5114375,3.85581395 10.7671875,3.9172093 11.0109375,3.98697674 C11.2543125,4.05674419 11.671875,4.13413953 11.836125,4.38865116 C12.000375,4.64260465 12.0286875,4.68762791 12.0598125,4.68316279 C12.09075,4.67925581 12.04875,4.36167442 12.02025,4.24688372 C11.991375,4.13227907 11.8940625,3.80930233 11.890125,3.62939535 C11.8786875,3.16948837 11.7631875,2.73804651 11.4406875,2.62511628 C11.2854375,2.57023256 11.0851875,2.57674419 10.819875,2.71367442 L10.4398125,2.72930233 Z" id="Stroke-9838" stroke="#000000" stroke-width="0.228" mask="url(#mask-2)"></path>
            <path d="M10.4398125,20.9739535 L10.459875,20.7395349 C10.459875,20.7395349 10.1953125,20.3482791 10.3531875,20.0986047 C10.5114375,19.8485581 10.7671875,19.7867907 11.0109375,19.7170233 C11.2543125,19.6468837 11.671875,19.5694884 11.836125,19.3155349 C12.000375,19.0615814 12.0286875,19.016 12.0598125,19.0208372 C12.09075,19.0247442 12.04875,19.3423256 12.02025,19.4569302 C11.991375,19.5709767 11.8940625,19.8939535 11.890125,20.0746047 C11.8786875,20.5346977 11.7631875,20.9659535 11.4406875,21.0788837 C11.2854375,21.1333953 11.0851875,21.1272558 10.819875,20.9903256 L10.4398125,20.9739535 Z" id="Fill-9839" fill="#FFC703" mask="url(#mask-2)"></path>
            <path d="M10.4398125,20.9739535 L10.459875,20.7395349 C10.459875,20.7395349 10.1953125,20.3482791 10.3531875,20.0986047 C10.5114375,19.8485581 10.7671875,19.7867907 11.0109375,19.7170233 C11.2543125,19.6468837 11.671875,19.5694884 11.836125,19.3155349 C12.000375,19.0615814 12.0286875,19.016 12.0598125,19.0208372 C12.09075,19.0247442 12.04875,19.3423256 12.02025,19.4569302 C11.991375,19.5709767 11.8940625,19.8939535 11.890125,20.0746047 C11.8786875,20.5346977 11.7631875,20.9659535 11.4406875,21.0788837 C11.2854375,21.1333953 11.0851875,21.1272558 10.819875,20.9903256 L10.4398125,20.9739535 Z" id="Stroke-9840" stroke="#000000" stroke-width="0.228" mask="url(#mask-2)"></path>
        </g>
    </g>
</svg>