<?xml version="1.0" encoding="UTF-8"?>
<svg width="24px" height="24px" viewBox="0 0 24 24" version="1.1" xmlns="http://www.w3.org/2000/svg" xmlns:xlink="http://www.w3.org/1999/xlink">
    <!-- Generator: Sketch 55.2 (78181) - https://sketchapp.com -->
    <title>Танзания</title>
    <desc>Created with Sketch.</desc>
    <defs>
        <path d="M23.9930625,11.9616744 C23.9930625,18.5151628 18.639,23.828093 12.0345,23.828093 C5.4298125,23.828093 0.07575,18.5151628 0.07575,11.9616744 C0.07575,5.40874419 5.4298125,0.0961860465 12.0345,0.0961860465 C18.639,0.0961860465 23.9930625,5.40874419 23.9930625,11.9616744" id="path-1"></path>
    </defs>
    <g id="Page-1" stroke="none" stroke-width="1" fill="none" fill-rule="evenodd">
        <g id="Танзания">
            <mask id="mask-2" fill="white">
                <use xlink:href="#path-1"></use>
            </mask>
            <g id="Clip-9911"></g>
            <polyline id="Fill-9910" fill="#47B71D" mask="url(#mask-2)" points="20.9180625 0.0961860465 -5.903625 0.0961860465 -5.903625 17.8385116 20.9180625 0.0961860465"></polyline>
            <polyline id="Fill-9912" fill="#49A9F6" mask="url(#mask-2)" points="3.1509375 23.828093 29.97225 23.828093 29.97225 6.08539535 3.1509375 23.828093"></polyline>
            <path d="M-5.903625,17.8385116 L20.9180625,0.0961860465 L23.5048125,0.0961860465 L-5.903625,19.5501395 L-5.903625,17.8385116 Z M29.97225,4.37376744 L29.97225,6.08576744 L3.1509375,23.828093 L0.564,23.828093 L29.97225,4.37376744 L29.97225,4.37376744 Z" id="Fill-9913" fill="#FFD80F" mask="url(#mask-2)"></path>
            <polyline id="Fill-9914" fill="#000000" mask="url(#mask-2)" points="-5.903625 19.5501395 23.5048125 0.0961860465 29.97225 0.0961860465 29.97225 4.37376744 0.564 23.828093 -5.903625 23.828093 -5.903625 19.5501395"></polyline>
        </g>
    </g>
</svg>