<?xml version="1.0" encoding="UTF-8"?>
<svg width="24px" height="24px" viewBox="0 0 24 24" version="1.1" xmlns="http://www.w3.org/2000/svg" xmlns:xlink="http://www.w3.org/1999/xlink">
    <!-- Generator: Sketch 55.2 (78181) - https://sketchapp.com -->
    <title>Таиланд</title>
    <desc>Created with Sketch.</desc>
    <defs>
        <path d="M23.9304375,11.9618605 C23.9304375,18.5153488 18.5758125,23.827907 11.9716875,23.827907 C5.367375,23.827907 0.0133125,18.5153488 0.0133125,11.9618605 C0.0133125,5.40893023 5.367375,0.096372093 11.9716875,0.096372093 C18.5758125,0.096372093 23.9304375,5.40893023 23.9304375,11.9618605 L23.9304375,11.9618605 Z" id="path-1"></path>
    </defs>
    <g id="Page-1" stroke="none" stroke-width="1" fill="none" fill-rule="evenodd">
        <g id="Таиланд">
            <mask id="mask-2" fill="white">
                <use xlink:href="#path-1"></use>
            </mask>
            <g id="Clip-9917"></g>
            <path d="M-5.9660625,8.00706977 L29.9094375,8.00706977 L29.9094375,4.05134884 L-5.9660625,4.05134884 L-5.9660625,8.00706977 Z M-5.9660625,19.8729302 L29.9094375,19.8729302 L29.9094375,15.9172093 L-5.9660625,15.9172093 L-5.9660625,19.8729302 Z" id="Fill-9916" fill="#F4F4F4" mask="url(#mask-2)"></path>
            <path d="M-5.9660625,23.8282791 L29.9094375,23.8282791 L29.9094375,19.8729302 L-5.9660625,19.8729302 L-5.9660625,23.8282791 Z M-5.9660625,4.05172093 L29.9094375,4.05172093 L29.9094375,0.096372093 L-5.9660625,0.096372093 L-5.9660625,4.05172093 Z" id="Fill-9918" fill="#FF1612" mask="url(#mask-2)"></path>
            <polygon id="Fill-9919" fill="#0437A0" mask="url(#mask-2)" points="-5.9660625 15.9172093 29.9094375 15.9172093 29.9094375 8.00688372 -5.9660625 8.00688372"></polygon>
        </g>
    </g>
</svg>