<?xml version="1.0" encoding="UTF-8"?>
<svg width="24px" height="24px" viewBox="0 0 24 24" version="1.1" xmlns="http://www.w3.org/2000/svg" xmlns:xlink="http://www.w3.org/1999/xlink">
    <!-- Generator: Sketch 55.2 (78181) - https://sketchapp.com -->
    <title>Тунис</title>
    <desc>Created with Sketch.</desc>
    <defs>
        <path d="M23.931,11.961 C23.931,18.5655 18.577125,23.9195625 11.9724375,23.9195625 C5.368125,23.9195625 0.013875,18.5655 0.013875,11.961 C0.013875,5.3566875 5.368125,0.002625 11.9724375,0.002625 C18.577125,0.002625 23.931,5.3566875 23.931,11.961 L23.931,11.961 Z" id="path-1"></path>
    </defs>
    <g id="Page-1" stroke="none" stroke-width="1" fill="none" fill-rule="evenodd">
        <g id="Тунис">
            <mask id="mask-2" fill="white">
                <use xlink:href="#path-1"></use>
            </mask>
            <g id="Clip-9944"></g>
            <path d="M-5.965125,23.9199375 L29.9105625,23.9199375 L29.9105625,0.002625 L-5.965125,0.002625 L-5.965125,23.9199375 Z M11.9724375,5.9818125 C8.6701875,5.9818125 5.99325,8.65875 5.99325,11.961375 C5.99325,15.2638125 8.6701875,17.94075 11.9724375,17.94075 C15.2746875,17.94075 17.9518125,15.2638125 17.9518125,11.961375 C17.9518125,8.65875 15.2746875,5.9818125 11.9724375,5.9818125 Z M11.9724375,7.477125 C13.462125,7.477125 14.7823125,8.2036875 15.5983125,9.3215625 C14.9585625,8.7335625 14.105625,8.3739375 13.168125,8.3739375 C11.1868125,8.3739375 9.5805,9.9793125 9.5805,11.961375 C9.5805,13.9425 11.1868125,15.548625 13.168125,15.548625 C14.105625,15.548625 14.9585625,15.189375 15.5983125,14.600625 C14.7823125,15.7190625 13.462125,16.445625 11.9724375,16.445625 C9.4955625,16.445625 7.4881875,14.4376875 7.4881875,11.961375 C7.4881875,9.4843125 9.4955625,7.477125 11.9724375,7.477125 Z M12.3369375,9.4021875 L13.4855625,10.9835625 L15.345,10.379625 L14.1961875,11.961375 L15.345,13.5429375 L13.4855625,12.938625 L12.3369375,14.520375 L12.3369375,12.5655 L10.4775,11.961375 L12.3369375,11.3570625 L12.3369375,9.4021875 L12.3369375,9.4021875 Z" id="Fill-9943" fill="#FF1612" mask="url(#mask-2)"></path>
            <path d="M11.9724375,5.9818125 C8.6701875,5.9818125 5.99325,8.65875 5.99325,11.961375 C5.99325,15.2638125 8.6701875,17.94075 11.9724375,17.94075 C15.2746875,17.94075 17.9518125,15.2638125 17.9518125,11.961375 C17.9518125,8.65875 15.2746875,5.9818125 11.9724375,5.9818125 Z M11.9724375,7.477125 C13.462125,7.477125 14.7823125,8.2036875 15.5983125,9.3215625 C14.9585625,8.7335625 14.105625,8.3739375 13.168125,8.3739375 C11.1868125,8.3739375 9.5805,9.9793125 9.5805,11.961375 C9.5805,13.9425 11.1868125,15.548625 13.168125,15.548625 C14.105625,15.548625 14.9585625,15.189375 15.5983125,14.600625 C14.7823125,15.7190625 13.462125,16.445625 11.9724375,16.445625 C9.4955625,16.445625 7.4881875,14.4376875 7.4881875,11.961375 C7.4881875,9.4843125 9.4955625,7.477125 11.9724375,7.477125 Z M12.3369375,9.4021875 L13.4855625,10.9835625 L15.345,10.379625 L14.1961875,11.961375 L15.345,13.5429375 L13.4855625,12.938625 L12.3369375,14.520375 L12.3369375,12.5655 L10.4775,11.961375 L12.3369375,11.3570625 L12.3369375,9.4021875 L12.3369375,9.4021875 Z" id="Fill-9945" fill="#FFFFFF" mask="url(#mask-2)"></path>
        </g>
    </g>
</svg>