<?xml version="1.0" encoding="UTF-8"?>
<svg width="24px" height="24px" viewBox="0 0 24 24" version="1.1" xmlns="http://www.w3.org/2000/svg" xmlns:xlink="http://www.w3.org/1999/xlink">
    <!-- Generator: Sketch 55.2 (78181) - https://sketchapp.com -->
    <title>Турция</title>
    <desc>Created with Sketch.</desc>
    <defs>
        <path d="M23.8695814,11.961 C23.8695814,18.5655 18.5564651,23.9195625 12.0035349,23.9195625 C5.4504186,23.9195625 0.137674419,18.5655 0.137674419,11.961 C0.137674419,5.3566875 5.4504186,0.002625 12.0035349,0.002625 C18.5564651,0.002625 23.8695814,5.3566875 23.8695814,11.961 L23.8695814,11.961 Z" id="path-1"></path>
    </defs>
    <g id="Page-1" stroke="none" stroke-width="1" fill="none" fill-rule="evenodd">
        <g id="Турция">
            <mask id="mask-2" fill="white">
                <use xlink:href="#path-1"></use>
            </mask>
            <g id="Clip-9948"></g>
            <polygon id="Fill-9947" fill="#FF1612" mask="url(#mask-2)" points="-2.82865116 23.9195625 32.7683721 23.9195625 32.7683721 0.002625 -2.82865116 0.002625"></polygon>
            <path d="M8.94995349,5.7009375 C11.104186,5.7009375 13.0011163,6.805125 14.1162791,8.4819375 C13.2076279,7.5553125 11.9386047,6.9815625 10.5345116,6.9815625 C7.76781395,6.9815625 5.5255814,9.2120625 5.5255814,11.9645625 C5.5255814,14.7170625 7.76781395,16.9483125 10.5345116,16.9483125 C11.9386047,16.9483125 13.2076279,16.3730625 14.1170233,15.4468125 C13.0014884,17.1238125 11.104186,18.2285625 8.94995349,18.2285625 C5.5172093,18.2285625 2.73413953,15.42375 2.73413953,11.9645625 C2.73413953,8.505375 5.5172093,5.7009375 8.94995349,5.7009375 Z M16.3972093,8.9825625 L17.6792558,10.804125 L19.7916279,10.129125 L18.4701395,11.9210625 L19.7590698,13.737375 L17.6593488,13.02375 L16.344186,14.820375 L16.368186,12.5881875 L14.2666047,11.882625 L16.3813953,11.2160625 L16.3972093,8.9825625 L16.3972093,8.9825625 Z" id="Fill-9949" fill="#FFFFFF" mask="url(#mask-2)"></path>
        </g>
    </g>
</svg>