<svg width="11" height="9" viewBox="0 0 11 9" fill="none" xmlns="http://www.w3.org/2000/svg">
<path fill-rule="evenodd" clip-rule="evenodd" d="M9.61656 1.25833C8.75013 0.469334 7.34507 0.469334 6.47863 1.25833L5.7596 1.91265C5.69067 1.97532 5.59717 2.01033 5.5 2.01033C5.40283 2.01033 5.30934 1.97532 5.24078 1.91265L4.52137 1.25833C3.65493 0.469334 2.24987 0.469334 1.38344 1.25833C0.516641 2.047 0.516641 3.32633 1.38344 4.11533C1.38674 4.11833 1.39041 4.12167 1.39371 4.12467L5.5 8.17501L9.60629 4.12467C9.60959 4.12167 9.61326 4.11833 9.61656 4.11533C10.4834 3.32633 10.4834 2.047 9.61656 1.25833ZM5.95981 0.787001C7.11261 -0.262334 8.98224 -0.262334 10.1354 0.787001C11.2864 1.83467 11.2882 3.532 10.1409 4.58134L5.76949 8.89266C5.70019 8.96099 5.6023 9 5.5 9C5.3977 9 5.29981 8.96099 5.23051 8.89266L0.85911 4.58134C-0.288189 3.532 -0.286373 1.83467 0.864593 0.787001C2.01776 -0.262334 3.88739 -0.262334 5.04019 0.787001L5.5 1.20534L5.95981 0.787001Z" fill="white"/>
</svg>
