<svg width="16" height="14" viewBox="0 0 16 14" fill="none" xmlns="http://www.w3.org/2000/svg">
<path fill-rule="evenodd" clip-rule="evenodd" d="M13.9279 2.33202C12.6803 1.19586 10.657 1.19586 9.40931 2.33202L8.37391 3.27424C8.27464 3.36448 8.14 3.41489 8.00008 3.41489C7.86016 3.41489 7.72553 3.36448 7.6268 3.27424L6.59084 2.33202C5.34318 1.19586 3.3199 1.19586 2.07223 2.33202C0.824041 3.4677 0.824041 5.30994 2.07223 6.4461C2.07698 6.45042 2.08227 6.45522 2.08702 6.45954L8.00008 12.292L13.9131 6.45954C13.9179 6.45522 13.9232 6.45042 13.9279 6.4461C15.1761 5.30994 15.1761 3.4677 13.9279 2.33202ZM8.6622 1.6533C10.3222 0.142259 13.0145 0.142259 14.6751 1.6533C16.3325 3.16194 16.3351 5.6061 14.683 7.11714L8.38815 13.3254C8.28836 13.4238 8.14739 13.48 8.00008 13.48C7.85277 13.48 7.7118 13.4238 7.61201 13.3254L1.3172 7.11714C-0.334914 5.6061 -0.332299 3.16194 1.32509 1.6533C2.98565 0.142259 5.67792 0.142259 7.33795 1.6533L8.00008 2.2557L8.6622 1.6533Z" fill="white"/>
</svg>
