<?xml version="1.0" encoding="UTF-8"?>
<svg width="20px" height="19px" viewBox="0 0 20 19" version="1.1" xmlns="http://www.w3.org/2000/svg" xmlns:xlink="http://www.w3.org/1999/xlink">
    <!-- Generator: Sketch 57.1 (83088) - https://sketch.com -->
    <title>Architecture_40*40 </title>
    <desc>Created with Sketch.</desc>
    <g id="Page-1" stroke="none" stroke-width="1" fill="none" fill-rule="evenodd">
        <g id="Architecture_40*40-" transform="translate(-10.000000, -10.000000)">
            <g id="Architecture_40*40">
                <g id="Rectangle">
                    <rect x="0" y="0" width="40" height="40"></rect>
                </g>
                <g id="Fill-2727-+-Fill-2728-+-Fill-2729" transform="translate(10.000000, 10.000000)" fill="#2A2A2F">
                    <path d="M18,9.5 C19.104,9.5 20,8.604 20,7.5 C20,6.396 18,4.5 18,4.5 C18,4.5 16,6.396 16,7.5 C16,8.604 16.896,9.5 18,9.5" id="Fill-2727"></path>
                    <path d="M2,9.5 C3.104,9.5 4,8.604 4,7.5 C4,6.396 2,4.5 2,4.5 C2,4.5 0,6.396 0,7.5 C0,8.604 0.896,9.5 2,9.5" id="Fill-2728"></path>
                    <path d="M15,15 C15,14.448 15.448,14 16,14 C16.552,14 17,14.448 17,15 L17,17 L15,17 L15,15 Z M5,17 L3,17 L3,15 C3,14.448 3.448,14 4,14 C4.552,14 5,14.448 5,15 L5,17 Z M13,7.185 C13.615,6.708 14,6.007 14,5 C14,2.791 10,0 10,0 C10,0 6,2.791 6,5 C6,6.007 6.385,6.708 7,7.185 L7,10 L0,10 L0,19 L8,19 L8,16 L10,14 L12,16 L12,19 L20,19 L20,10 L13,10 L13,7.185 Z" id="Fill-2729"></path>
                </g>
            </g>
        </g>
    </g>
</svg>