<?xml version="1.0" encoding="UTF-8"?>
<svg width="20px" height="20px" viewBox="0 0 20 20" version="1.1" xmlns="http://www.w3.org/2000/svg" xmlns:xlink="http://www.w3.org/1999/xlink">
    <!-- Generator: Sketch 57.1 (83088) - https://sketch.com -->
    <title>beach__40*40 </title>
    <desc>Created with Sketch.</desc>
    <g id="Page-1" stroke="none" stroke-width="1" fill="none" fill-rule="evenodd">
        <g id="beach__40*40-" transform="translate(-11.000000, -9.000000)">
            <g id="Rectangle">
                <rect x="0" y="0" width="40" height="40"></rect>
            </g>
            <g id="Group-39" transform="translate(9.134628, 6.595715)" fill="#2A2A2F">
                <path d="M4.94229554,21.5144252 L21.0192186,21.5144252 L21.0192186,17.2923972 C11.7115263,17.2923972 4.94229554,20.6700196 4.94229554,21.5144252" id="Fill-2775"></path>
                <path d="M18.2307692,6.46618179 C16.0018129,4.17583763 12.7094887,3.26108027 9.61518256,4.07238009 C6.52087642,4.88367992 4.10430359,7.29525982 3.29132406,10.3831728 C2.47834452,13.4710857 3.3949958,16.7566076 5.69008187,18.9809586 C5.69008187,18.9809586 5.86265066,12.9166251 12.1579371,12.9166251 C12.1565514,12.9180079 11.9839826,6.46618179 18.2307692,6.46618179 Z M6.10587649,8.37747542 L9.55070608,11.8361359 C7.8379885,12.4896509 7.24234634,12.9164245 6.64008873,13.5131096 C6.03783113,14.1097948 5.48275128,15.1393077 5.23383533,15.9060314 C4.09500508,13.3897627 4.10871517,11.0609617 6.10587649,8.37747542 Z" id="Shape" fill-rule="nonzero" transform="translate(10.615385, 11.381308) rotate(30.000000) translate(-10.615385, -11.381308) "></path>
                <path d="M14.1125491,16.0990623 L12.7061589,14.8158542 L10.0936946,12.4873307 L8.9325346,13.6836788 L12.9089546,17.2907329 C13.7113509,16.4962858 14.1125491,16.0990623 14.1125491,16.0990623 Z" id="Path" fill-rule="nonzero" transform="translate(11.522542, 14.889032) rotate(32.000000) translate(-11.522542, -14.889032) "></path>
                <path d="M9.28317019,3.91425568 C9.08406211,3.73126342 8.24458714,2.46164827 7.40150182,3.26261346 C6.55841649,4.06357866 7.97872646,4.91239384 8.16283831,5.11037371 L9.28317019,3.91425568 Z" id="Path" fill-rule="nonzero" transform="translate(8.209739, 4.055187) rotate(30.000000) translate(-8.209739, -4.055187) "></path>
            </g>
        </g>
    </g>
</svg>