<?xml version="1.0" encoding="UTF-8"?>
<svg width="20px" height="18px" viewBox="0 0 20 18" version="1.1" xmlns="http://www.w3.org/2000/svg" xmlns:xlink="http://www.w3.org/1999/xlink">
    <!-- Generator: Sketch 57.1 (83088) - https://sketch.com -->
    <title>diving_40*40 </title>
    <desc>Created with Sketch.</desc>
    <g id="Page-1" stroke="none" stroke-width="1" fill="none" fill-rule="evenodd">
        <g id="diving_40*40-" transform="translate(-11.000000, -11.000000)">
            <g id="Rectangle">
                <rect x="0" y="0" width="40" height="40"></rect>
            </g>
            <path d="M30.9999,11 L30.9999,24 C30.9999,25.654 29.6539,27 27.9999,27 L27.9999,27 L21.8159,27 C21.4009,28.162 20.3019,29 18.9999,29 C17.3459,29 15.9999,27.654 15.9999,26 C15.9999,24.346 17.3459,23 18.9999,23 C20.3019,23 21.4009,23.838 21.8159,25 L21.8159,25 L27.9999,25 C28.5509,25 28.9999,24.551 28.9999,24 L28.9999,24 L28.9999,11 L30.9999,11 Z M18.9999,25 C18.4489,25 17.9999,25.449 17.9999,26 C17.9999,26.551 18.4489,27 18.9999,27 C19.5509,27 19.9999,26.551 19.9999,26 C19.9999,25.449 19.5509,25 18.9999,25 Z M25,15.9998 C26.104,15.9998 27,16.8958 27,17.9998 L27,17.9998 L27,20.9998 C27,22.1048 26.104,22.9998 25,22.9998 L25,22.9998 L22.441,22.9998 C21.581,22.9998 20.816,22.4488 20.544,21.6328 L20.544,21.6328 L20.04,19.7928 C19.912,19.3238 19.486,18.9998 19,18.9998 C18.514,18.9998 18.088,19.3238 17.96,19.7928 L17.96,19.7928 L17.456,21.6328 C17.183,22.4488 16.419,22.9998 15.558,22.9998 L15.558,22.9998 L13,22.9998 C11.895,22.9998 11,22.1048 11,20.9998 L11,20.9998 L11,17.9998 C11,16.8958 11.895,15.9998 13,15.9998 L13,15.9998 Z" id="Combined-Shape" fill="#2A2A2F"></path>
        </g>
    </g>
</svg>