<?xml version="1.0" encoding="UTF-8"?>
<svg width="24px" height="20px" viewBox="0 0 24 20" version="1.1" xmlns="http://www.w3.org/2000/svg" xmlns:xlink="http://www.w3.org/1999/xlink">
    <!-- Generator: Sketch 57.1 (83088) - https://sketch.com -->
    <title>Exotic_40*40 </title>
    <desc>Created with Sketch.</desc>
    <g id="Page-1" stroke="none" stroke-width="1" fill="none" fill-rule="evenodd">
        <g id="Exotic_40*40-" transform="translate(-8.000000, -10.000000)">
            <g id="Exotic_40*40">
                <g id="Rectangle">
                    <rect x="0" y="0" width="40" height="40"></rect>
                </g>
                <g id="Fill-1210" transform="translate(8.000000, 10.000000)" fill="#2A2A2F">
                    <path d="M17.0444,2.2397 C18.8524,1.7567 20.7364,2.0037 22.3564,2.9397 L23.3564,1.2067 C19.5014,-1.0173 14.6734,-0.0513 11.9284,3.2717 C9.1824,-0.0513 4.3534,-1.0173 0.5004,1.2067 L1.5004,2.9397 C3.1204,2.0047 5.0064,1.7557 6.8124,2.2397 C8.0824,2.5797 9.2004,3.2597 10.0814,4.1937 C6.0024,5.0477 2.9284,8.6717 2.9284,13.0007 L4.9284,13.0007 C4.9284,9.2937 7.8274,6.2577 11.4774,6.0247 L8.8564,19.9997 L14.8564,19.9997 L14.4814,17.9997 L11.8564,17.9997 L11.8564,16.9997 L14.2944,16.9997 L13.9194,14.9997 L11.8564,14.9997 L11.8564,13.9997 L13.7314,13.9997 L13.3564,11.9997 L11.8564,11.9997 L11.8564,10.9997 L13.1694,10.9997 L12.2344,6.0167 C15.9514,6.1787 18.9284,9.2437 18.9284,13.0007 L20.9284,13.0007 C20.9284,8.6717 17.8544,5.0477 13.7754,4.1937 C14.6554,3.2597 15.7744,2.5797 17.0444,2.2397"></path>
                </g>
            </g>
        </g>
    </g>
</svg>