<?xml version="1.0" encoding="UTF-8"?>
<svg width="22px" height="20px" viewBox="0 0 22 20" version="1.1" xmlns="http://www.w3.org/2000/svg" xmlns:xlink="http://www.w3.org/1999/xlink">
    <!-- Generator: Sketch 57.1 (83088) - https://sketch.com -->
    <title>Family_40*40 </title>
    <desc>Created with Sketch.</desc>
    <g id="Page-1" stroke="none" stroke-width="1" fill="none" fill-rule="evenodd">
        <g id="Family_40*40-" transform="translate(-10.000000, -10.000000)">
            <g id="Family_40*40">
                <g id="Rectangle">
                    <rect x="0" y="0" width="40" height="40"></rect>
                </g>
                <path d="M27.106645,16.0006818 C29.282942,16.0239453 29.4661881,16.6690226 30.968633,21.9586154 C31.2423819,22.9235385 31.5673806,24.0693846 31.962379,25.4306154 C32.0548786,25.7493846 31.974879,26.0853846 31.7436299,26.346 C31.5136308,26.6055385 31.1573822,26.7616923 30.7773838,26.7692308 L30.7359899,26.7699312 C30.5479511,26.7730673 29.7556691,26.7857885 29.1136405,26.7886154 C28.8736414,27.4056923 28.5148929,28.3663077 28.1923942,29.2472308 C28.0286448,29.6952308 27.5461468,30 26.999899,30 C26.4549011,30 25.9711531,29.6952308 25.8086537,29.2472308 C25.5312451,28.4894738 25.2270146,27.672751 24.9946141,27.0664348 L25,27.0032959 L25,24.5714286 L24.9944294,24.3451159 C24.9386455,23.222468 24.4627409,22.2388942 23.5144529,21.6345844 C23.8214318,21.1640223 24,20.6024417 24,20 C24,19.6895058 23.952567,19.3898655 23.8645676,19.1079459 C24.7075981,16.4165853 25.1835475,16.0188748 26.8436811,16.0006831 L27.106645,16.0006818 Z M15,16 C16.5718027,16 17.9765403,16.7290407 18.893823,17.8667323 C18.3421317,18.4105053 18,19.1661083 18,20 C18,20.6024417 18.1785682,21.1640223 18.4859439,21.6339416 C17.5372839,22.238854 17.061356,23.2224655 17.0055707,24.3451157 L17,24.5714286 L17,27.0032959 L17.0074266,27.10886 C17.0661242,27.5300781 17.4641327,27.929961 17.8924642,27.988989 L18,27.99646 L17.999,29.009 L17.9932682,29.1165685 C17.9399155,29.5754723 17.5754723,29.9399155 17.1165685,29.9932682 L17,30 L13,30 C12.4874286,30 12.0645306,29.6137143 12.0067318,29.1165685 L12,29 L12,25 L11,25 C10.4874286,25 10.0645306,24.6137143 10.0067318,24.1165685 L10,24 L10,21 C10,18.243 12.243,16 15,16 Z M21,22 C23.1295448,22 23.9435358,23.1948442 23.9971409,24.6952557 L24,24.8571429 L24,26 C24,26.4669495 23.5654568,26.9310571 23.1062276,26.9949757 L23,27.0024414 L23.0014648,27.0024414 L23.0014648,28.9993286 C23.0014648,29.4653429 22.5726317,29.9287259 22.1114572,29.9925458 L22.0046387,30 L20,30 C19.533844,30 19.0711614,29.5720089 19.0074422,29.1070941 L19,28.9993286 L19,27.0024414 C18.5232173,27.0024414 18.0696433,26.6308028 18.0072796,26.1201939 L18,26 L18,24.8571429 C18,23.2817143 18.7944,22 21,22 Z M21,18 C22.1026667,18 23,18.8973333 23,20 C23,21.1026667 22.1026667,22 21,22 C19.8973333,22 19,21.1026667 19,20 C19,18.8973333 19.8973333,18 21,18 Z M27,10 C28.6572,10 30,11.3452 30,13 C30,14.6572 28.6572,16 27,16 C25.344,16 24,14.6572 24,13 C24,11.3452 25.344,10 27,10 Z M15,10 C16.654,10 18,11.346 18,13 C18,14.654 16.654,16 15,16 C13.346,16 12,14.654 12,13 C12,11.346 13.346,10 15,10 Z" id="Combined-Shape" fill="#2A2A2F"></path>
            </g>
        </g>
    </g>
</svg>