<?xml version="1.0" encoding="UTF-8"?>
<svg width="24px" height="17px" viewBox="0 0 24 17" version="1.1" xmlns="http://www.w3.org/2000/svg" xmlns:xlink="http://www.w3.org/1999/xlink">
    <!-- Generator: Sketch 57.1 (83088) - https://sketch.com -->
    <title>Mountains_40*40 </title>
    <desc>Created with Sketch.</desc>
    <g id="Page-1" stroke="none" stroke-width="1" fill="none" fill-rule="evenodd">
        <g id="Mountains_40*40-" transform="translate(-8.000000, -11.000000)">
            <g id="Mountains_40*40">
                <g id="Rectangle">
                    <rect x="0" y="0" width="40" height="40"></rect>
                </g>
                <g id="Group-25" transform="translate(8.000000, 11.235849)" fill="#2A2A2F">
                    <path d="M9.4472136,0.105791866 C9.640741,0.202555567 9.79766349,0.359478059 9.89442719,0.553005461 L13,6.764 L8,16.7641511 L0,16.7641511 L8.10557281,0.553005461 C8.35256206,0.0590269636 8.9532351,-0.141197383 9.4472136,0.105791866 Z M9,1.76415108 L7,5.76415108 L8,5.26665352 L9,5.76415108 L10,5.26665352 L11,5.76415108 L9,1.76415108 Z" id="Combined-Shape"></path>
                    <path d="M17.4472136,4.10579187 C17.640741,4.20255557 17.7976635,4.35947806 17.8944272,4.55300546 L24,16.7641511 L10,16.7641511 L16.1055728,4.55300546 C16.3525621,4.05902696 16.9532351,3.85880262 17.4472136,4.10579187 Z M17,5.76415108 L15,9.76415108 L16,9.26073311 L17,9.76415108 L18,9.26073311 L19,9.76415108 L17,5.76415108 Z" id="Combined-Shape"></path>
                </g>
            </g>
        </g>
    </g>
</svg>