<?xml version="1.0" encoding="UTF-8"?>
<svg width="24px" height="21px" viewBox="0 0 24 21" version="1.1" xmlns="http://www.w3.org/2000/svg" xmlns:xlink="http://www.w3.org/1999/xlink">
    <!-- Generator: Sketch 57.1 (83088) - https://sketch.com -->
    <title>Nature_40*40 </title>
    <desc>Created with Sketch.</desc>
    <g id="Page-1" stroke="none" stroke-width="1" fill="none" fill-rule="evenodd">
        <g id="Nature_40*40-" transform="translate(-8.000000, -8.000000)">
            <g id="Nature_40*40">
                <g id="Rectangle">
                    <rect x="0" y="0" width="40" height="40"></rect>
                </g>
                <path d="M16,25 L16,29 L14,29 L14,25 L16,25 Z M15.0004,8.0003 L17.6394,11.7713 C17.8064,12.0093 17.8274,12.3213 17.6924,12.5793 C17.57515,12.805925 17.3560719,12.9582844 17.1081871,12.9928332 L17.0004,13.0003 L17.458882,13.6558907 C15.9681056,14.747524 15,16.5107054 15,18.5 C15,20.9608245 16.481446,23.0756388 18.6011413,24.0012461 L9.8684,24.0003 C9.4994,24.0003 9.1614,23.7973 8.9864,23.4723 C8.835025,23.187925 8.83065,22.8499562 8.96858555,22.5642414 L9.0364,22.4453 L12.0004,18.0003 L11.4214,18.0003 C11.0484,18.0003 10.7064,17.7923 10.5334,17.4623 C10.3805111,17.1680778 10.3840667,16.8201272 10.5370433,16.5315236 L10.6014,16.4263 L13.0004,13.0003 C12.7094,13.0003 12.4424,12.8383 12.3074,12.5793 C12.19015,12.35355 12.1908062,12.0864562 12.3046793,11.8637687 L12.3604,11.7713 L15.0004,8.0003 Z" id="Combined-Shape" fill="#2A2A2F"></path>
                <g id="Group-28" transform="translate(17.000000, 13.000000)" fill="#2A2A2F">
                    <path d="M9.5,0 C10.8807119,0 12,1.11928813 12,2.5 C12,2.68136319 11.9806877,2.85821574 11.9440074,3.0286134 C13.6672733,3.24597011 15,4.71734756 15,6.5 C15,8.43299662 13.4329966,10 11.5,10 C10.0701227,10 8.84051188,9.1425569 8.29729466,7.91379769 C7.49977415,9.16805132 6.09704309,10 4.5,10 C2.01471863,10 0,7.98528137 0,5.5 C0,3.01471863 2.01471863,1 4.5,1 C5.46605999,1 6.36101916,1.3044188 7.0941839,1.82256277 C7.38765071,0.771446777 8.35373483,0 9.5,0 Z" id="Combined-Shape"></path>
                    <polygon id="Path" transform="translate(9.499420, 13.000488) scale(-1, 1) translate(-9.499420, -13.000488) " points="11.9988403 10 11.9988403 16.0009766 9.99884033 16.0009766 9.99884033 14.0039368 7 10.9956055 9.00140381 10.9956055 9.998521 11.994 9.99884033 10"></polygon>
                </g>
            </g>
        </g>
    </g>
</svg>