<?xml version="1.0" encoding="UTF-8"?>
<svg width="23px" height="23px" viewBox="0 0 23 23" version="1.1" xmlns="http://www.w3.org/2000/svg" xmlns:xlink="http://www.w3.org/1999/xlink">
    <!-- Generator: Sketch 57.1 (83088) - https://sketch.com -->
    <title>wedding_40*40 </title>
    <desc>Created with Sketch.</desc>
    <g id="Page-1" stroke="none" stroke-width="1" fill="none" fill-rule="evenodd">
        <g id="wedding_40*40-" transform="translate(-9.000000, -8.000000)">
            <g id="Rectangle">
                <rect x="0" y="0" width="40" height="40"></rect>
            </g>
            <path d="M14.7502053,8 L18.8574948,8 L20.1562197,9.64279847 L13.4514804,9.64279847 L14.7502053,8 Z M9,19.9111103 C9,16.338845 11.4019429,13.3358094 14.6770955,12.4092711 L13.3676916,10.4641977 L20.2400084,10.4641977 L18.9289616,12.4109139 C19.9475694,12.7000464 20.8791027,13.192886 21.6841314,13.8376844 C21.8319938,13.9567873 21.975749,14.0808185 22.1145754,14.2105996 C22.1589341,14.2508482 22.2032928,14.2919181 22.2468301,14.3329881 C23.2900816,15.3507018 24.0376083,16.6583693 24.3809777,18.124567 C24.4278008,18.3184172 24.4696952,18.5130888 24.501732,18.7126888 C24.530483,18.8983251 24.5477337,19.0872469 24.5625199,19.2769901 C24.580592,19.4872683 24.6077001,19.6950823 24.6077001,19.9102889 C24.6077001,22.644727 23.1915067,25.0358201 21.0614663,26.4289133 C20.4675523,25.8539338 20.0321796,25.1220671 19.8235293,24.2965608 C21.1132182,23.4078069 21.9856065,21.9703582 22.1137539,20.3209885 L22.1227899,20.3209885 C22.1334689,20.1846363 22.1433264,20.0491054 22.1433264,19.9102889 C22.1433264,19.6195136 22.1153968,19.3369523 22.0693952,19.0584979 C22.0521446,18.9459662 22.0201077,18.8391843 21.995464,18.7291168 C21.9691773,18.6116567 21.9502838,18.4900896 21.9157825,18.3750937 C21.9116753,18.3767365 21.907568,18.3800221 21.9034607,18.3816649 C21.6594877,17.5693011 21.2298652,16.8456484 20.658952,16.2468483 C20.6630592,16.2452055 20.6671665,16.2419199 20.6712738,16.2394557 C20.6080216,16.1729224 20.5381976,16.1121389 20.4716596,16.0488911 C20.4190863,15.9996072 20.3706202,15.947859 20.316404,15.9010392 C20.1365047,15.7416878 19.9418192,15.5979429 19.7413835,15.4640549 C19.6912746,15.4311989 19.6403442,15.3991643 19.5894138,15.3679511 C19.3659772,15.2299561 19.1351476,15.1051034 18.891996,15.0007857 C18.8862458,14.9983215 18.8804956,14.9975001 18.8755669,14.9950359 C18.6094145,14.8816828 18.3317617,14.7913289 18.0458944,14.7231527 C18.0426086,14.7215099 18.0393227,14.7198671 18.0352154,14.7190457 L18.0352154,14.7198671 C17.6400942,14.6262276 17.2293652,14.5711939 16.80385,14.5711939 C13.8597449,14.5711939 11.4643737,16.9663941 11.4643737,19.9102889 C11.4643737,22.5075533 13.3331904,24.6702975 15.7959212,25.142602 C16.0103217,26.0633906 16.375049,26.9275026 16.8588877,27.7086533 C16.8408156,27.7102961 16.8227436,27.7144031 16.80385,27.7144031 C12.4936604,27.7144031 9,24.2201707 9,19.9111103 Z M24.1969711,31 C22.7684558,31 21.4368726,30.6057284 20.2851886,29.9338238 C20.0822885,29.8155423 19.8810313,29.6947966 19.6904531,29.5600871 C19.5688773,29.4746616 19.4563376,29.3760937 19.3413335,29.2832756 C19.20415,29.1740295 19.0661451,29.0656048 18.9371762,28.9481447 C18.8156004,28.8372558 18.7038822,28.7189743 18.5896995,28.5998714 C18.4788027,28.4848755 18.3679059,28.370701 18.2644022,28.2483126 C18.1543268,28.1185315 18.0508231,27.983822 17.9489624,27.8466483 C17.3722989,27.0753545 16.9303546,26.1981001 16.6707739,25.2428128 L16.6740597,25.2428128 C16.4958033,24.588979 16.3931211,23.9055748 16.3931211,23.1967073 C16.3931211,20.459805 17.8117789,18.0662476 19.9442836,16.6756187 C20.5381976,17.2505982 20.9628914,17.9890361 21.1715417,18.8153637 C19.7775276,19.778865 18.8574948,21.3781294 18.8574948,23.1967073 C18.8574948,23.3363451 18.8772098,23.4702332 18.8878887,23.6074069 L18.8780312,23.6074069 C18.8813171,23.6534052 18.8936389,23.696118 18.8985677,23.7421164 C18.9149968,23.899825 18.9371762,24.0550695 18.9675701,24.2078497 C18.9872851,24.311346 19.010286,24.4131995 19.0365726,24.5142316 C19.0538232,24.5856934 19.0636807,24.6604407 19.0842172,24.7302596 C19.0891459,24.7277954 19.0932532,24.7253312 19.0973605,24.722867 C19.3700845,25.6346202 19.8744597,26.4412342 20.5496981,27.0769973 C20.6244507,27.1468162 20.6983819,27.2166351 20.7764204,27.2823471 C20.8618521,27.3538088 20.9489266,27.4219849 21.0384655,27.4876969 C21.12554,27.5525874 21.2159004,27.6125496 21.3070822,27.6716903 C21.3908709,27.7259026 21.4713738,27.7825792 21.5584484,27.8318631 C21.7301331,27.9296097 21.9067465,28.0183208 22.0891102,28.0971751 C22.1071822,28.1053891 22.1244329,28.1152459 22.1425049,28.1242813 L22.1425049,28.1168887 C22.775849,28.383022 23.4675165,28.5349809 24.1961497,28.5349809 C27.1402548,28.5349809 29.535626,26.1397807 29.535626,23.1958859 C29.535626,20.5928717 27.6602376,18.4284847 25.1909352,17.9594657 C24.9781776,17.0394986 24.6159147,16.1778508 24.1345403,15.3958787 C24.1550768,15.3958787 24.1756132,15.3917717 24.1961497,15.3917717 C28.5063393,15.3917717 31.9999999,18.8851827 31.9999999,23.1950645 C32.0008212,27.5057677 28.5071607,31 24.1969711,31 L24.1969711,31 Z" id="Shape" fill="#231F20" fill-rule="nonzero"></path>
        </g>
    </g>
</svg>