<svg width="20" height="19" xmlns="http://www.w3.org/2000/svg"><g id="Page-1" stroke="none" stroke-width="1" fill="none" fill-rule="evenodd"><g id="Architecture_40*40-" transform="translate(-10 -10)"><g id="Architecture_40*40"><path d="M0 0h40v40H0z" id="Rectangle"/><g id="Fill-2727-+-Fill-2728-+-Fill-2729" transform="translate(10 10)" fill="#2A2A2F"><path d="M18 9.5a2 2 0 002-2c0-1.104-2-3-2-3s-2 1.896-2 3a2 2 0 002 2" id="Fill-2727"/><path d="M2 9.5a2 2 0 002-2c0-1.104-2-3-2-3s-2 1.896-2 3a2 2 0 002 2" id="Fill-2728"/><path d="M15 15a1 1 0 012 0v2h-2v-2zM5 17H3v-2a1 1 0 012 0v2zm8-9.815c.615-.477 1-1.178 1-2.185 0-2.209-4-5-4-5S6 2.791 6 5c0 1.007.385 1.708 1 2.185V10H0v9h8v-3l2-2 2 2v3h8v-9h-7V7.185z" id="Fill-2729"/></g></g></g></g></svg>