<svg width="20" height="20" xmlns="http://www.w3.org/2000/svg"><g id="Page-1" stroke="none" stroke-width="1" fill="none" fill-rule="evenodd"><g id="beach__40*40-" transform="translate(-11 -9)"><path d="M0 0h40v40H0z" id="Rectangle"/><g id="Group-39" transform="translate(9.135 6.596)" fill="#2A2A2F"><path d="M4.942 21.514H21.02v-4.222c-9.307 0-16.077 3.378-16.077 4.222" id="Fill-2775"/><path d="M18.23 6.466a8.88 8.88 0 00-8.615-2.394 8.86 8.86 0 00-6.324 6.311 8.838 8.838 0 002.4 8.598s.172-6.064 6.467-6.064c-.001.001-.174-6.45 6.073-6.45zM6.107 8.377l3.445 3.46c-1.713.653-2.309 1.08-2.91 1.676-.603.597-1.158 1.626-1.407 2.393-1.139-2.516-1.125-4.845.872-7.529z" id="Shape" fill-rule="nonzero" transform="rotate(30 10.615 11.381)"/><path d="M14.113 16.1l-1.407-1.284-2.612-2.329-1.161 1.197 3.976 3.607 1.204-1.192z" id="Path" fill-rule="nonzero" transform="rotate(32 11.523 14.889)"/><path d="M9.283 3.914c-.199-.183-1.038-1.452-1.881-.651-.844.8.577 1.65.76 1.847l1.121-1.196z" id="Path" fill-rule="nonzero" transform="rotate(30 8.21 4.055)"/></g></g></g></svg>