<svg width="20" height="18" xmlns="http://www.w3.org/2000/svg"><g id="Page-1" stroke="none" stroke-width="1" fill="none" fill-rule="evenodd"><g id="diving_40*40-" transform="translate(-11 -11)"><path d="M0 0h40v40H0z" id="Rectangle"/><path d="M31 11v13c0 1.654-1.346 3-3 3h-6.184A2.996 2.996 0 0119 29c-1.654 0-3-1.346-3-3s1.346-3 3-3c1.302 0 2.4.838 2.816 2H28c.55 0 1-.449 1-1V11h2zM19 25c-.551 0-1 .449-1 1 0 .551.449 1 1 1 .55 0 1-.449 1-1 0-.551-.45-1-1-1zm6-9a2 2 0 012 2v3a2 2 0 01-2 2h-2.559a2 2 0 01-1.897-1.367l-.504-1.84a1.077 1.077 0 00-2.08 0l-.504 1.84A2.002 2.002 0 0115.558 23H13a2 2 0 01-2-2v-3a2 2 0 012-2z" id="Combined-Shape" fill="#2A2A2F"/></g></g></svg>