<svg width="24" height="23" xmlns="http://www.w3.org/2000/svg"><g id="Page-1" stroke="none" stroke-width="1" fill="none" fill-rule="evenodd"><g id="Excursion_40*40-" transform="translate(-8 -7)"><g id="Excursion_40*40"><path d="M0 0h40v40H0z" id="Rectangle"/><g id="Group-2" transform="translate(8 7)" fill="#2A2A2F"><g id="Fill-1774-+-Fill-1775-+-Fill-1776" transform="matrix(-1 0 0 1 24 7)"><path d="M18 12a2 2 0 10.001 4.001A2 2 0 0018 12" id="Fill-1774"/><path d="M6 12a2 2 0 10.001 4.001A2 2 0 006 12" id="Fill-1775"/><path d="M22 7h-5V3h5v4zm-7 0h-5V3h5v4zM8 7L2 9V3h6v4zM2 0a2 2 0 00-2 2v11a1 1 0 001 1h2a3.001 3.001 0 016 0h6a3.001 3.001 0 016 0h2a1 1 0 001-1V2a2 2 0 00-2-2H2z" id="Fill-1776"/></g><path d="M15 0h1v6h-2V4h-3.276a.3.3 0 01-.212-.512L12 2 10.512.512A.3.3 0 0110.724 0H15z" id="Combined-Shape"/></g></g></g></g></svg>