<svg width="24" height="20" xmlns="http://www.w3.org/2000/svg"><g id="Page-1" stroke="none" stroke-width="1" fill="none" fill-rule="evenodd"><g id="Exotic_40*40-" transform="translate(-8 -10)"><g id="Exotic_40*40"><path d="M0 0h40v40H0z" id="Rectangle"/><path d="M17.044 2.24a6.954 6.954 0 015.312.7l1-1.733c-3.855-2.224-8.683-1.258-11.428 2.065C9.182-.051 4.353-1.018.5 1.207l1 1.733a6.955 6.955 0 015.312-.7 6.948 6.948 0 013.27 1.954C6.001 5.048 2.927 8.672 2.927 13h2c0-3.707 2.9-6.743 6.55-6.976L8.855 20h6l-.375-2h-2.625v-1h2.438l-.375-2h-2.063v-1h1.875l-.375-2h-1.5v-1h1.313l-.935-4.983c3.717.162 6.694 3.227 6.694 6.984h2c0-4.33-3.074-7.953-7.153-8.807a6.943 6.943 0 013.27-1.954" transform="translate(8 10)" id="Fill-1210" fill="#2A2A2F"/></g></g></g></svg>