<svg width="22" height="20" xmlns="http://www.w3.org/2000/svg"><g id="Page-1" stroke="none" stroke-width="1" fill="none" fill-rule="evenodd"><g id="Family_40*40-" transform="translate(-10 -10)"><g id="Family_40*40"><path d="M0 0h40v40H0z" id="Rectangle"/><path d="M27.107 16c2.176.024 2.36.669 3.862 5.959.273.965.598 2.11.993 3.472a.96.96 0 01-.218.915c-.23.26-.587.416-.967.423h-.041c-.188.004-.98.017-1.622.02-.24.617-.6 1.577-.922 2.458-.163.448-.646.753-1.192.753-.545 0-1.029-.305-1.191-.753-.278-.758-.582-1.574-.814-2.18l.005-.064v-2.432l-.006-.226c-.055-1.123-.531-2.106-1.48-2.71a2.982 2.982 0 00.35-2.527c.844-2.691 1.32-3.09 2.98-3.107h.263zM15 16c1.572 0 2.977.729 3.894 1.867a2.987 2.987 0 00-.408 3.767c-.949.605-1.425 1.588-1.48 2.711l-.006.226v2.432l.007.106c.06.421.457.821.885.88l.108.007-.001 1.013-.006.108a1 1 0 01-.876.876L17 30h-4a1 1 0 01-.993-.883L12 29v-4h-1a1 1 0 01-.993-.883L10 24v-3c0-2.757 2.243-5 5-5zm6 6c2.13 0 2.944 1.195 2.997 2.695l.003.162V26c0 .467-.435.931-.894.995l-.106.007h.001V29c0 .466-.428.93-.89.994l-.106.007H20c-.466 0-.929-.428-.993-.893L19 29v-1.997c-.477 0-.93-.371-.993-.882L18 26v-1.143c0-1.575.794-2.857 3-2.857zm0-4c1.103 0 2 .897 2 2s-.897 2-2 2-2-.897-2-2 .897-2 2-2zm6-8a3.001 3.001 0 010 6 3 3 0 010-6zm-12 0c1.654 0 3 1.346 3 3s-1.346 3-3 3-3-1.346-3-3 1.346-3 3-3z" id="Combined-Shape" fill="#2A2A2F"/></g></g></g></svg>