<svg width="24" height="17" xmlns="http://www.w3.org/2000/svg"><g id="Page-1" stroke="none" stroke-width="1" fill="none" fill-rule="evenodd"><g id="Mountains_40*40-" transform="translate(-8 -11)"><g id="Mountains_40*40"><path d="M0 0h40v40H0z" id="Rectangle"/><g id="Group-25" transform="translate(8 11.236)" fill="#2A2A2F"><path d="M9.447.106a1 1 0 01.447.447L13 6.764l-5 10H0L8.106.553A1 1 0 019.447.106zM9 1.764l-2 4 1-.497 1 .497 1-.497 1 .497-2-4zm8.447 2.342a1 1 0 01.447.447L24 16.764H10l6.106-12.211a1 1 0 011.341-.447zM17 5.764l-2 4 1-.503 1 .503 1-.503 1 .503-2-4z" id="Combined-Shape"/></g></g></g></g></svg>