<svg width="24" height="21" xmlns="http://www.w3.org/2000/svg"><g id="Page-1" stroke="none" stroke-width="1" fill="none" fill-rule="evenodd"><g id="Nature_40*40-" transform="translate(-8 -8)"><g id="Nature_40*40"><path d="M0 0h40v40H0z" id="Rectangle"/><path d="M16 25v4h-2v-4h2zM15 8l2.64 3.771a.779.779 0 01-.532 1.222L17 13l.459.656A6.001 6.001 0 0018.6 24H9.868a1.002 1.002 0 01-.9-1.437l.068-.119L12 18h-.579a1.001 1.001 0 01-.884-1.469l.064-.105 2.4-3.426a.782.782 0 01-.696-1.136l.055-.093L15 8.001z" id="Combined-Shape" fill="#2A2A2F"/><g id="Group-28" transform="translate(17 13)" fill="#2A2A2F"><path d="M9.5 0a2.5 2.5 0 012.444 3.029 3.5 3.5 0 11-3.647 4.885 4.5 4.5 0 11-1.203-6.091A2.498 2.498 0 019.5 0z" id="Combined-Shape"/><path id="Path" transform="matrix(-1 0 0 1 18.999 0)" d="M11.999 10v6.001h-2v-1.997L7 10.996h2.001l.998.998V10z"/></g></g></g></g></svg>