<svg width="23" height="23" xmlns="http://www.w3.org/2000/svg"><g id="Page-1" stroke="none" stroke-width="1" fill="none" fill-rule="evenodd"><g id="wedding_40*40-" transform="translate(-9 -8)"><path d="M0 0h40v40H0z" id="Rectangle"/><path d="M14.75 8h4.107l1.3 1.643H13.45L14.751 8zM9 19.911c0-3.572 2.402-6.575 5.677-7.502l-1.31-1.945h6.873l-1.311 1.947a7.827 7.827 0 013.186 1.8l.132.122a7.759 7.759 0 012.134 3.792c.047.193.089.388.12.588.03.185.047.374.062.564.018.21.045.418.045.633 0 2.735-1.416 5.126-3.547 6.519a4.501 4.501 0 01-1.237-2.132 5.321 5.321 0 002.29-3.976h.009c.01-.136.02-.272.02-.41 0-.291-.028-.574-.074-.853-.017-.112-.049-.219-.074-.329-.026-.117-.045-.239-.08-.354l-.012.007a5.292 5.292 0 00-1.244-2.135l.012-.008c-.063-.066-.133-.127-.2-.19-.052-.05-.1-.101-.155-.148a5.323 5.323 0 00-.727-.533 5.319 5.319 0 00-.697-.367c-.006-.003-.012-.003-.016-.006a5.187 5.187 0 00-.84-.276 5.325 5.325 0 00-1.232-.148 5.345 5.345 0 00-5.34 5.34c0 2.597 1.87 4.76 4.332 5.232a8.56 8.56 0 001.063 2.566c-.018.001-.036.005-.055.005A7.804 7.804 0 019 19.911zM24.197 31a7.733 7.733 0 01-3.912-1.066 8.04 8.04 0 01-.595-.374c-.121-.085-.234-.184-.349-.277-.137-.109-.275-.217-.404-.335-.121-.11-.233-.229-.347-.348-.111-.115-.222-.23-.326-.352a7.887 7.887 0 01-.315-.401 7.737 7.737 0 01-1.278-2.604h.003a7.757 7.757 0 01-.28-2.046c0-2.737 1.418-5.13 3.55-6.521a4.502 4.502 0 011.228 2.14 5.32 5.32 0 00-2.315 4.38c0 .14.02.274.03.411h-.009c.003.046.016.09.02.135a5.086 5.086 0 00.139.772c.017.072.027.146.047.216l.013-.007a5.323 5.323 0 001.453 2.354c.074.07.148.14.226.205a5.235 5.235 0 00.531.39c.084.054.164.11.251.16.172.098.349.186.531.265l.054.027v-.007a5.284 5.284 0 002.053.418 5.345 5.345 0 005.34-5.34c0-2.602-1.876-4.767-4.345-5.236a8.572 8.572 0 00-1.056-2.563c.02 0 .04-.004.061-.004A7.803 7.803 0 0132 23.195 7.803 7.803 0 0124.197 31z" id="Shape" fill="#231F20" fill-rule="nonzero"/></g></g></svg>