<svg width="20" height="22" xmlns="http://www.w3.org/2000/svg"><g id="Page-1" stroke="none" stroke-width="1" fill="none" fill-rule="evenodd"><g id="Youth_40*40-" transform="translate(-10 -9)"><g id="Youth_40*40"><path d="M0 0h40v40H0z" id="Rectangle"/><g id="Group" transform="translate(10 9)" fill="#2A2A2F"><path d="M13.5 7.5C13.5 5.57 11.93 4 10 4S6.5 5.57 6.5 7.5 8.07 11 10 11s3.5-1.57 3.5-3.5" id="Fill-2492"/><path d="M3 11h2V7c0-2.757 2.243-5 5-5s5 2.243 5 5v4h2a3 3 0 000-6h-.295c-.863-2.888-3.54-5-6.705-5S4.158 2.112 3.295 5H3a3 3 0 100 6" id="Fill-2493"/><path d="M10 12a5.999 5.999 0 00-5.188 3h10.376A5.999 5.999 0 0010 12" id="Fill-2494"/><path id="Fill-2495" d="M0 22h20v-3H0z"/><path d="M2 16a1 1 0 00-1 1v1h8v-1a1 1 0 00-1-1H2z" id="Fill-2496"/><path d="M19 17a1 1 0 00-1-1h-6a1 1 0 00-1 1v1h8v-1z" id="Fill-2497"/></g></g></g></g></svg>