<svg xmlns="http://www.w3.org/2000/svg" xmlns:xlink="http://www.w3.org/1999/xlink" viewBox="0 0 186.6 210.62"><defs><linearGradient id="linear-gradient" x1="-4.5" y1="105.31" x2="64.87" y2="105.31" gradientUnits="userSpaceOnUse"><stop offset="0" stop-color="#fff" stop-opacity=".3"/><stop offset="1" stop-color="#fff" stop-opacity="0"/></linearGradient><linearGradient id="linear-gradient-2" x1="48.62" y1="35.77" x2="61.9" y2="35.77" gradientUnits="userSpaceOnUse"><stop offset="0" stop-color="#fff" stop-opacity=".4"/><stop offset="1" stop-color="#fff" stop-opacity="0"/></linearGradient><linearGradient id="linear-gradient-3" x1="23.82" y1="94.16" x2="23.82" y2="165.54" xlink:href="#linear-gradient-2"/><linearGradient id="linear-gradient-4" x1="63.52" y1="130.03" x2="103.23" y2="130.03" xlink:href="#linear-gradient"/><linearGradient id="linear-gradient-5" x1="66.22" y1="106.34" x2="66.22" y2="137.44" xlink:href="#linear-gradient-2"/></defs><g id="Слой_2" data-name="Слой 2"><g id="Objects"><path d="M156.43 49.43H124l27.74-27.74a12.7 12.7 0 10-18-18L93.3 44.17l-24.7-24.7a12.7 12.7 0 00-18 18l12 12H30.17A30.21 30.21 0 000 79.6v100.85a30.21 30.21 0 0030.17 30.17h126.26a30.21 30.21 0 0030.17-30.17V79.6a30.21 30.21 0 00-30.17-30.17zm4.76 131a4.82 4.82 0 01-4.76 4.76H30.17a4.82 4.82 0 01-4.76-4.76V79.6a4.82 4.82 0 014.76-4.76h126.26a4.82 4.82 0 014.76 4.76z" fill="#da1c5c"/><path d="M30.17 207.45a27 27 0 01-27-27V79.6a27 27 0 0127-27H70.3L52.88 35.19a9.53 9.53 0 0113.48-13.47L93.3 48.66 136 6a9.53 9.53 0 1113.48 13.47L116.3 52.61h40.13a27 27 0 0127 27v100.84a27 27 0 01-27 27zm0-135.79a8.05 8.05 0 00-7.94 7.94v100.85a8.05 8.05 0 007.94 7.94h126.26a8.05 8.05 0 007.94-7.94V79.6a8.05 8.05 0 00-7.94-7.94z" fill="url(#linear-gradient)"/><path d="M70.3 52.61h14.29L67.18 35.19a9.49 9.49 0 01-.39-13l-.43-.42a9.53 9.53 0 10-13.48 13.42z" fill="url(#linear-gradient-2)"/><path d="M17.47 180.45V79.6a27 27 0 0127-27h-14.3a27 27 0 00-27 27v100.85a27 27 0 0027 27h14.3a27 27 0 01-27-27z" fill="url(#linear-gradient-3)"/><path d="M123.25 137.21c6.85-4 6.85-10.42 0-14.37L70.67 92.48c-6.85-4-12.45-.72-12.45 7.19v60.71c0 7.91 5.6 11.15 12.45 7.19l52.58-30.36c6.85-4 6.85-10.42 0-14.37L70.67 92.48c-6.85-4-12.45-.72-12.45 7.19v60.71c0 7.91 5.6 11.15 12.45 7.19z" fill="#9e1f63"/><path d="M65.14 166.08c-3.38 0-3.75-4-3.75-5.7V99.67c0-1.72.37-5.7 3.75-5.7a8.15 8.15 0 013.94 1.26l52.58 30.36c2.26 1.3 3.55 2.92 3.55 4.44s-1.29 3.13-3.55 4.43l-52.58 30.36a8.15 8.15 0 01-3.94 1.26z" fill="url(#linear-gradient-4)"/><path d="M70.52 160.38V99.67a9.57 9.57 0 01.54-3.3l-2-1.14A8.15 8.15 0 0065.14 94c-3.38 0-3.75 4-3.75 5.7v60.71c0 1.72.37 5.7 3.75 5.7a8.15 8.15 0 003.94-1.26l2-1.14a9.57 9.57 0 01-.56-3.33z" fill="url(#linear-gradient-5)"/></g></g></svg>