<?xml version="1.0" standalone="no"?>
<!DOCTYPE svg PUBLIC "-//W3C//DTD SVG 1.1//EN" "http://www.w3.org/Graphics/SVG/1.1/DTD/svg11.dtd" >
<svg xmlns="http://www.w3.org/2000/svg">
<metadata>Generated by IcoMoon</metadata>
<defs>
<font id="aah" horiz-adv-x="1024">
<font-face units-per-em="1024" ascent="960" descent="-64" />
<missing-glyph horiz-adv-x="1024" />
<glyph unicode="&#x20;" horiz-adv-x="512" d="" />
<glyph unicode="&#xe900;" glyph-name="accumulator" d="M829.44 138.752c0-6.144-4.096-10.24-10.24-12.288-202.752-28.672-407.552-28.672-610.304 0-4.096 0-10.24 6.144-10.24 12.288v313.344h-36.864v-313.344c0-24.576 18.432-45.056 40.96-49.152 102.4-14.336 206.848-22.528 311.296-22.528s206.848 8.192 311.296 22.528c22.528 4.096 40.96 24.576 40.96 49.152v313.344h-36.864v-313.344zM858.112 669.184c-24.576 4.096-49.152 6.144-73.728 10.24v45.056c0 16.384-12.288 30.72-26.624 34.816-36.864 10.24-77.824 10.24-114.688 0-14.336-4.096-26.624-18.432-26.624-34.816v-32.768c-69.632 2.048-137.216 2.048-206.848 0v32.768c0 16.384-12.288 30.72-26.624 34.816-36.864 10.24-77.824 10.24-114.688 0-14.336-4.096-26.624-18.432-26.624-34.816v-45.056c-24.576-2.048-49.152-6.144-73.728-10.24-22.528-4.096-40.96-24.576-40.96-49.152v-81.92c0-24.576 20.48-45.056 45.056-45.056h684.032c24.576 0 45.056 20.48 45.056 45.056v81.92c0 24.576-18.432 47.104-43.008 49.152zM653.312 724.48c30.72 8.192 63.488 8.192 94.208 0v-40.96c-30.72 4.096-63.488 6.144-94.208 8.192v32.768zM280.576 724.48c30.72 8.192 63.488 8.192 94.208 0v-32.768c-30.72-2.048-63.488-4.096-94.208-8.192v40.96zM864.256 540.16c0-4.096-4.096-8.192-8.192-8.192h-684.032c-4.096 0-8.192 4.096-8.192 8.192v81.92c0 4.096 6.144 10.24 10.24 10.24 112.64 16.384 225.28 24.576 339.968 24.576 112.64 0 227.328-8.192 339.968-24.576 6.144 0 10.24-6.144 10.24-12.288v-79.872zM262.144 351.744v-36.864h155.648v36.864h-155.648zM669.696 411.136v-59.392h-59.392v-36.864h59.392v-59.392h36.864v59.392h59.392v36.864h-59.392v59.392h-36.864z" />
<glyph unicode="&#xe901;" glyph-name="back" d="M368.64 128.512c-12.288 0-22.528 4.096-32.768 14.336l-280.576 282.624c-18.432 18.432-18.432 47.104 0 63.488l282.624 282.624c18.432 18.432 47.104 18.432 63.488 0 18.432-18.432 18.432-47.104 0-63.488l-249.856-249.856 249.856-249.856c18.432-18.432 18.432-47.104 0-63.488-8.192-12.288-20.48-16.384-32.768-16.384zM911.36 411.136h-630.784c-24.576 0-45.056 20.48-45.056 45.056s20.48 45.056 45.056 45.056h630.784c24.576 0 45.056-20.48 45.056-45.056s-20.48-45.056-45.056-45.056z" />
<glyph unicode="&#xe902;" glyph-name="car2" d="M786.432 220.672v57.344c28.672 10.24 51.2 34.816 55.296 67.584 4.096 34.816 8.192 69.632 14.336 102.4 4.096 30.72-8.192 69.632-26.624 94.208 22.528 0 40.96 16.384 43.008 38.912l2.048 28.672c2.048 10.24-2.048 22.528-10.24 30.72s-18.432 12.288-28.672 12.288h-65.536c-4.096 16.384-8.192 34.816-12.288 51.2-8.192 32.768-38.912 61.44-71.68 65.536-100.352 8.192-200.704 8.192-301.056 0-32.768-2.048-63.488-30.72-71.68-65.536-4.096-18.432-8.192-34.816-12.288-51.2h-65.536c-10.24 0-22.528-4.096-28.672-12.288-8.192-8.192-10.24-18.432-10.24-30.72l2.048-28.672c2.048-22.528 20.48-38.912 43.008-38.912-18.432-22.528-30.72-63.488-26.624-94.208 4.096-34.816 8.192-67.584 14.336-102.4 4.096-30.72 26.624-57.344 55.296-65.536v-57.344zM462.848 183.808c10.24 0 18.432 8.192 18.432 18.432s-8.192 18.432-18.432 18.432h-36.864v53.248h219.136v-53.248h-36.864c-10.24 0-18.432-8.192-18.432-18.432s8.192-18.432 18.432-18.432zM835.584 613.888c0 0 0 0 0 0s0-2.048 0 0v-30.72c0-2.048-4.096-6.144-6.144-6.144h-40.96c-2.048 12.288-6.144 22.528-8.192 34.816h55.296zM350.208 695.808c4.096 16.384 22.528 34.816 38.912 36.864 98.304 8.192 196.608 8.192 294.912 0 16.384-2.048 34.816-18.432 38.912-36.864 8.192-38.912 16.384-73.728 24.576-108.544-4.096 0-6.144 2.048-10.24 2.048-133.12 12.288-266.24 12.288-399.36 0-4.096 0-6.144 0-10.24-2.048 6.144 34.816 14.336 69.632 22.528 108.544zM239.616 585.216l-2.048 26.624c0 0 0 2.048 0 2.048s0 0 2.048 0h57.344c-2.048-12.288-6.144-24.576-8.192-34.816h-40.96c-4.096 0-8.192 2.048-8.192 6.144zM389.12 220.672h-65.536v53.248h65.536v-53.248zM749.568 220.672h-65.536v53.248h65.536v-53.248zM313.344 310.784c-20.48 0-40.96 18.432-43.008 38.912-4.096 34.816-8.192 69.632-14.336 102.4-2.048 20.48 6.144 51.2 20.48 67.584s43.008 30.72 65.536 32.768c65.536 6.144 131.072 10.24 196.608 10.24s131.072-4.096 196.608-10.24c22.528-2.048 51.2-16.384 65.536-32.768 14.336-14.336 22.528-45.056 20.48-67.584-4.096-34.816-8.192-67.584-14.336-102.4-2.048-20.48-22.528-38.912-43.008-38.912h-450.56zM430.080 482.816v0c-16.384 2.048-71.68 12.288-83.968 12.288-32.768 0-59.392-26.624-59.392-59.392s26.624-59.392 59.392-59.392h71.68c28.672 0 53.248 24.576 53.248 53.248 0 26.624-16.384 49.152-40.96 53.248zM417.792 415.232h-71.68c-12.288 0-22.528 10.24-22.528 22.528s10.24 22.528 22.528 22.528c6.144 0 43.008-6.144 75.776-12.288 8.192-2.048 12.288-8.192 12.288-16.384 0-10.24-6.144-16.384-16.384-16.384zM727.040 495.104c-12.288 0-65.536-10.24-81.92-12.288v0c-24.576-6.144-40.96-26.624-40.96-53.248 0-28.672 24.576-53.248 53.248-53.248h71.68c32.768 0 59.392 26.624 59.392 59.392s-28.672 59.392-61.44 59.392zM727.040 415.232h-71.68c-10.24 0-16.384 8.192-16.384 16.384s6.144 14.336 12.288 16.384c30.72 6.144 69.632 12.288 75.776 12.288 12.288 0 22.528-10.24 22.528-22.528s-10.24-22.528-22.528-22.528z" />
<glyph unicode="&#xe903;" glyph-name="car-list" d="M307.2 425.472c-14.336 2.048-81.92 14.336-98.304 14.336-36.864 0-67.584-30.72-67.584-67.584s30.72-67.584 67.584-67.584h83.968c32.768 0 61.44 26.624 61.44 61.44 0 28.672-18.432 53.248-47.104 59.392v0zM317.44 366.080c0-12.288-10.24-22.528-22.528-22.528h-83.968c-16.384 0-28.672 12.288-28.672 28.672s12.288 28.672 28.672 28.672c8.192 0 51.2-6.144 90.112-14.336 8.192 0 16.384-10.24 16.384-20.48zM360.448 220.672h-192.512c-26.624 0-51.2 22.528-55.296 49.152-6.144 40.96-10.24 81.92-16.384 122.88-4.096 26.624 8.192 63.488 24.576 81.92s53.248 36.864 79.872 38.912c51.2 4.096 104.448 8.192 155.648 10.24 10.24 0 18.432 8.192 18.432 20.48 0 10.24-8.192 18.432-20.48 18.432-53.248-2.048-106.496-6.144-157.696-10.24-6.144 0-10.24-2.048-16.384-2.048 10.24 43.008 20.48 86.016 28.672 133.12 4.096 22.528 28.672 43.008 49.152 45.056 71.68 6.144 143.36 8.192 215.040 8.192 10.24 0 18.432 8.192 18.432 18.432s-8.192 18.432-18.432 18.432c-73.728 2.048-145.408-2.048-219.136-8.192-36.864-4.096-73.728-36.864-81.92-75.776-4.096-22.528-10.24-43.008-14.336-63.488h-77.824c-12.288 0-24.576-4.096-32.768-14.336-8.192-8.192-12.288-20.48-10.24-32.768l4.096-34.816c2.048-24.576 22.528-43.008 49.152-43.008h6.144c0 0-2.048-2.048-2.048-2.048-24.576-26.624-38.912-75.776-32.768-112.64 6.144-40.96 10.24-81.92 16.384-122.88 4.096-34.816 32.768-65.536 65.536-77.824v-65.536c0-24.576 20.48-45.056 45.056-45.056h67.584c24.576 0 45.056 20.48 45.056 45.056v61.44h57.344c10.24 0 18.432 8.192 18.432 18.432 2.048 12.288-6.144 20.48-16.384 20.48zM88.064 538.112c-4.096 0-10.24 4.096-10.24 10.24l-4.096 32.768c0 2.048 0 4.096 2.048 4.096 0 2.048 2.048 2.048 4.096 2.048h71.68c-4.096-16.384-8.192-32.768-10.24-49.152h-53.248zM264.192 120.32c0-4.096-4.096-8.192-8.192-8.192h-67.584c-4.096 0-8.192 4.096-8.192 8.192v61.44h83.968v-61.44zM911.36 681.472h-59.392v26.624c0 18.432-14.336 30.72-30.72 30.72h-38.912c-18.432 34.816-55.296 57.344-96.256 57.344s-75.776-22.528-96.256-57.344h-36.864c-18.432 0-30.72-14.336-30.72-30.72v-26.624h-59.392c-24.576 0-45.056-20.48-45.056-45.056v-516.096c0-24.576 20.48-45.056 45.056-45.056h450.56c24.576 0 45.056 20.48 45.056 45.056v516.096c-2.048 24.576-22.528 45.056-47.104 45.056zM559.104 701.952h45.056c8.192 0 14.336 4.096 18.432 12.288 10.24 26.624 36.864 45.056 65.536 45.056s55.296-18.432 65.536-45.056c2.048-8.192 10.24-12.288 18.432-12.288h45.056v-77.824h-258.048v77.824zM919.552 120.32c0-4.096-4.096-8.192-8.192-8.192h-450.56c-4.096 0-8.192 4.096-8.192 8.192v516.096c0 4.096 4.096 8.192 8.192 8.192h59.392v-26.624c0-18.432 14.336-30.72 30.72-30.72h268.288c18.432 0 30.72 14.336 30.72 30.72v26.624h59.392c4.096 0 8.192-4.096 8.192-8.192v-516.096zM649.216 218.624v-36.864h184.32v36.864h-184.32zM540.672 519.68v-36.864h63.488v36.864h-63.488zM540.672 321.024v-36.864h63.488v36.864h-63.488zM649.216 517.632v-36.864h184.32v36.864h-184.32zM649.216 318.976v-36.864h184.32v36.864h-184.32zM833.536 417.28h-184.32v-36.864h184.32v36.864zM540.672 218.624v-36.864h63.488v36.864h-63.488zM540.672 417.28v-36.864h63.488v36.864h-63.488zM686.080 726.528c-16.384 0-28.672-12.288-28.672-28.672s12.288-28.672 28.672-28.672c16.384 0 28.672 12.288 28.672 28.672s-12.288 28.672-28.672 28.672z" />
<glyph unicode="&#xe904;" glyph-name="check-engine" d="M966.656 450.048c0 0 0 0 0 0-6.144 20.48-28.672 38.912-49.152 38.912h-20.48c-22.528 0-43.008-18.432-43.008-43.008v-6.144h-10.24c-4.096 0-6.144 2.048-6.144 6.144v63.488c0 18.432-10.24 43.008-24.576 55.296l-69.632 63.488c-14.336 12.288-36.864 22.528-55.296 22.528h-65.536v16.384h30.72c28.672 0 53.248 24.576 53.248 53.248s-24.576 53.248-53.248 53.248h-272.384c-28.672 0-53.248-24.576-53.248-53.248s24.576-53.248 53.248-53.248h30.72v-16.384h-65.536c-24.576 0-43.008-18.432-43.008-43.008v-24.576c0-4.096-2.048-6.144-6.144-6.144h-65.536c-24.576 0-43.008-18.432-43.008-43.008v-86.016h-18.432v67.584c0 34.816-28.672 61.44-61.44 61.44-34.816 0-61.44-28.672-61.44-61.44v-129.024c0-18.432 8.192-34.816 22.528-47.104v-83.968c0-26.624 22.528-49.152 49.152-49.152s49.152 22.528 49.152 49.152v67.584h22.528v-96.256c0-24.576 18.432-43.008 43.008-43.008h86.016c8.192 0 22.528-6.144 26.624-12.288l57.344-65.536c12.288-14.336 36.864-24.576 55.296-24.576h286.72c24.576 0 43.008 18.432 43.008 43.008v81.92c0 4.096 2.048 6.144 6.144 6.144h63.488v-6.144c0-24.576 20.48-43.008 43.008-43.008h20.48c22.528 0 43.008 16.384 49.152 38.912 18.432 77.824 18.432 165.888-4.096 247.808zM931.84 208.384c-2.048-6.144-10.24-10.24-14.336-10.24h-20.48c-4.096 0-6.144 2.048-6.144 6.144v24.576c0 10.24-8.192 18.432-18.432 18.432h-81.92c-24.576 0-43.008-18.432-43.008-43.008v-81.92c0-4.096-2.048-6.144-6.144-6.144h-286.72c-8.192 0-22.528 6.144-26.624 12.288l-57.344 65.536c-12.288 14.336-36.864 24.576-55.296 24.576h-86.016c-4.096 0-6.144 2.048-6.144 6.144v114.688c0 10.24-8.192 18.432-18.432 18.432h-57.344c-10.24 0-18.432-8.192-18.432-18.432v-86.016c0-6.144-6.144-12.288-12.288-12.288s-12.288 6.144-12.288 12.288v92.16c0 6.144-4.096 12.288-8.192 16.384-8.192 4.096-12.288 12.288-12.288 22.528v129.024c0 14.336 10.24 24.576 24.576 24.576s24.576-10.24 24.576-24.576v-86.016c0-10.24 8.192-18.432 18.432-18.432h55.296c10.24 0 18.432 8.192 18.432 18.432v102.4c0 4.096 2.048 6.144 6.144 6.144h65.536c24.576 0 43.008 18.432 43.008 43.008v24.576c0 4.096 2.048 6.144 6.144 6.144h83.968c10.24 0 18.432 8.192 18.432 18.432v55.296c0 10.24-8.192 18.432-18.432 18.432h-49.152c-8.192 0-16.384 8.192-16.384 16.384s8.192 16.384 16.384 16.384h270.336c8.192 0 16.384-8.192 16.384-16.384s-8.192-16.384-16.384-16.384h-49.152c-10.24 0-18.432-8.192-18.432-18.432v-55.296c0-10.24 8.192-18.432 18.432-18.432h83.968c8.192 0 24.576-6.144 30.72-12.288l69.632-63.488c6.144-6.144 12.288-18.432 12.288-28.672v-63.488c0-24.576 18.432-43.008 43.008-43.008h28.672c10.24 0 18.432 8.192 18.432 18.432v24.576c0 4.096 2.048 6.144 6.144 6.144h20.48c4.096 0 12.288-6.144 14.336-10.24 22.528-73.728 22.528-153.6 2.048-229.376zM301.056 415.232h4.096c8.192 0 14.336-6.144 16.384-12.288 2.048-8.192 10.24-12.288 16.384-10.24 8.192 2.048 12.288 10.24 10.24 16.384-6.144 18.432-24.576 32.768-43.008 32.768h-4.096c-24.576 0-45.056-20.48-45.056-45.056v-36.864c0-24.576 20.48-45.056 45.056-45.056h4.096c20.48 0 38.912 14.336 43.008 32.768 2.048 8.192-2.048 14.336-10.24 16.384s-14.336-2.048-16.384-10.24c-2.048-8.192-10.24-12.288-16.384-12.288h-4.096c-10.24 0-18.432 8.192-18.432 18.432v36.864c0 10.24 8.192 18.432 18.432 18.432zM438.272 443.904c-8.192 0-14.336-6.144-14.336-14.336v-36.864h-34.816v36.864c0 8.192-6.144 14.336-14.336 14.336s-14.336-6.144-14.336-14.336v-102.4c0-8.192 6.144-14.336 14.336-14.336s14.336 6.144 14.336 14.336v36.864h34.816v-36.864c0-8.192 6.144-14.336 14.336-14.336s14.336 6.144 14.336 14.336v102.4c0 6.144-6.144 14.336-14.336 14.336zM739.328 386.56l26.624 32.768c4.096 6.144 4.096 14.336-2.048 20.48-6.144 4.096-14.336 4.096-20.48-2.048l-32.768-38.912v30.72c0 8.192-6.144 14.336-14.336 14.336s-14.336-6.144-14.336-14.336v-102.4c0-8.192 6.144-14.336 14.336-14.336s14.336 6.144 14.336 14.336v26.624l8.192 10.24 24.576-43.008c2.048-4.096 8.192-6.144 12.288-6.144 2.048 0 4.096 0 6.144 2.048 6.144 4.096 8.192 12.288 4.096 18.432l-26.624 51.2zM620.544 415.232h4.096c8.192 0 14.336-6.144 16.384-12.288 2.048-8.192 10.24-12.288 16.384-10.24 8.192 2.048 12.288 10.24 10.24 16.384-6.144 18.432-24.576 32.768-43.008 32.768h-4.096c-24.576 0-45.056-20.48-45.056-45.056v-36.864c0-24.576 20.48-45.056 45.056-45.056h4.096c20.48 0 38.912 14.336 43.008 32.768 2.048 8.192-2.048 14.336-10.24 16.384s-14.336-2.048-16.384-10.24c-2.048-8.192-10.24-12.288-16.384-12.288h-4.096c-10.24 0-18.432 8.192-18.432 18.432v36.864c0 10.24 8.192 18.432 18.432 18.432zM550.912 415.232c8.192 0 14.336 6.144 14.336 14.336s-6.144 14.336-14.336 14.336h-69.632c-8.192 0-14.336-6.144-14.336-14.336v-102.4c0-8.192 6.144-14.336 14.336-14.336h69.632c8.192 0 14.336 6.144 14.336 14.336s-6.144 14.336-14.336 14.336h-55.296v22.528h47.104c8.192 0 14.336 6.144 14.336 14.336s-6.144 14.336-14.336 14.336h-47.104v22.528h55.296z" />
<glyph unicode="&#xe905;" glyph-name="checklist" d="M323.584 548.352c0 16.384 14.336 30.72 30.72 30.72s30.72-14.336 30.72-30.72c0-16.384-14.336-30.72-30.72-30.72s-30.72 14.336-30.72 30.72zM354.304 355.84c16.384 0 30.72 14.336 30.72 30.72s-14.336 30.72-30.72 30.72c-16.384 0-30.72-14.336-30.72-30.72 0-18.432 14.336-30.72 30.72-30.72zM354.304 255.488c-16.384 0-30.72-14.336-30.72-30.72s14.336-30.72 30.72-30.72c16.384 0 30.72 14.336 30.72 30.72s-14.336 30.72-30.72 30.72zM499.712 833.024c-16.384 0-30.72-14.336-30.72-30.72s14.336-30.72 30.72-30.72c16.384 0 30.72 14.336 30.72 30.72s-14.336 30.72-30.72 30.72zM985.088 433.664v-233.472h-116.736v-145.408c0-45.056-36.864-81.92-81.92-81.92h-575.488c-45.056 0-81.92 36.864-81.92 81.92v696.32c0 45.056 36.864 81.92 81.92 81.92h180.224c12.288 47.104 57.344 81.92 108.544 81.92s94.208-34.816 106.496-81.92h182.272c45.056 0 81.92-36.864 81.92-81.92v-225.28h-208.896v-284.672h284.672v192.512h38.912zM675.84 744.96h61.44c22.528 0 40.96-18.432 40.96-40.96v-137.216h51.2v184.32c0 22.528-18.432 40.96-40.96 40.96h-112.64v-47.104zM362.496 695.808h272.384v96.256h-67.584c0 4.096 2.048 6.144 2.048 10.24 0 38.912-32.768 69.632-71.68 69.632s-71.68-30.72-71.68-69.632c0-4.096 0-8.192 2.048-10.24h-67.584v-96.256zM323.584 677.376v26.624h-61.44v-600.064h475.136v94.208h-309.248v38.912h192.512v126.976h-192.512v38.912h192.512v124.928h-192.512v38.912h309.248v137.216h-61.44v-26.624c0-10.24-8.192-20.48-20.48-20.48h-311.296c-12.288 0-20.48 10.24-20.48 20.48zM829.44 198.144h-51.2v-94.208c0-22.528-18.432-40.96-40.96-40.96h-475.136c-22.528 0-40.96 18.432-40.96 40.96v600.064c0 22.528 18.432 40.96 40.96 40.96h61.44v47.104h-112.64c-22.528 0-40.96-18.432-40.96-40.96v-696.32c0-22.528 18.432-40.96 40.96-40.96h575.488c22.528 0 40.96 18.432 40.96 40.96v143.36zM972.8 542.208l-34.816 22.528-135.168-212.992-77.824 61.44-24.576-32.768 114.688-90.112 157.696 251.904z" />
<glyph unicode="&#xe906;" glyph-name="close" d="M851.968 69.12c-12.288 0-24.576 4.096-34.816 14.336l-679.936 681.984c-18.432 18.432-18.432 49.152 0 67.584s49.152 18.432 67.584 0l681.984-681.984c18.432-18.432 18.432-49.152 0-67.584-10.24-10.24-22.528-14.336-34.816-14.336zM172.032 69.12c-12.288 0-24.576 4.096-34.816 14.336-18.432 18.432-18.432 49.152 0 67.584l681.984 681.984c18.432 18.432 49.152 18.432 67.584 0s18.432-49.152 0-67.584l-681.984-681.984c-8.192-10.24-20.48-14.336-32.768-14.336z" />
<glyph unicode="&#xe907;" glyph-name="done" d="M512-64c-276.48 0-501.76 225.28-501.76 501.76s225.28 501.76 501.76 501.76 501.76-225.28 501.76-501.76-225.28-501.76-501.76-501.76zM512 898.56c-253.952 0-460.8-206.848-460.8-460.8s206.848-460.8 460.8-460.8 460.8 206.848 460.8 460.8-206.848 460.8-460.8 460.8zM440.32 220.672c-6.144 0-10.24 2.048-14.336 6.144l-178.176 178.176c-8.192 8.192-8.192 20.48 0 28.672l71.68 71.68c8.192 8.192 20.48 8.192 28.672 0l92.16-92.16 235.52 235.52c8.192 8.192 20.48 8.192 28.672 0l71.68-71.68c8.192-8.192 8.192-20.48 0-28.672l-321.536-321.536c-4.096-4.096-8.192-6.144-14.336-6.144zM290.816 419.328l149.504-149.504 292.864 292.864-43.008 43.008-235.52-235.52c-8.192-8.192-20.48-8.192-28.672 0l-92.16 92.16-43.008-43.008z" />
<glyph unicode="&#xe908;" glyph-name="drop-down-list" d="M520.192 237.056c-14.336 0-28.672 6.144-38.912 16.384l-284.672 284.672c-20.48 20.48-20.48 55.296 0 77.824 20.48 20.48 55.296 20.48 77.824 0l245.76-245.76 245.76 245.76c20.48 20.48 55.296 20.48 77.824 0 20.48-20.48 20.48-55.296 0-77.824l-284.672-284.672c-10.24-10.24-24.576-16.384-38.912-16.384z" />
<glyph unicode="&#xe909;" glyph-name="email" d="M778.24 136.704h-514.048c-79.872 0-143.36 63.488-143.36 143.36v331.776c0 79.872 63.488 143.36 143.36 143.36h514.048c79.872 0 143.36-63.488 143.36-143.36v-331.776c0-79.872-63.488-143.36-143.36-143.36zM264.192 714.24c-57.344 0-102.4-45.056-102.4-102.4v-331.776c0-57.344 45.056-102.4 102.4-102.4h514.048c57.344 0 102.4 45.056 102.4 102.4v331.776c0 57.344-45.056 102.4-102.4 102.4h-514.048zM520.192 372.224c-20.48 0-40.96 8.192-55.296 22.528l-245.76 233.472c-8.192 8.192-8.192 20.48 0 28.672s20.48 8.192 28.672 0l247.808-233.472c16.384-14.336 38.912-14.336 55.296 0l247.808 233.472c8.192 8.192 20.48 8.192 28.672 0s8.192-20.48 0-28.672l-249.856-233.472c-16.384-14.336-36.864-22.528-57.344-22.528zM231.424 228.864c-6.144 0-10.24 2.048-14.336 6.144-8.192 8.192-8.192 20.48 0 28.672l208.896 196.608c8.192 8.192 20.48 8.192 28.672 0s8.192-20.48 0-28.672l-208.896-198.656c-4.096-4.096-8.192-4.096-14.336-4.096zM808.96 228.864c-4.096 0-10.24 2.048-14.336 6.144l-208.896 196.608c-8.192 8.192-8.192 20.48 0 28.672s20.48 8.192 28.672 0l208.896-196.608c8.192-8.192 8.192-20.48 0-28.672-2.048-4.096-8.192-6.144-14.336-6.144z" />
<glyph unicode="&#xe90a;" glyph-name="error" d="M522.24-64c-276.48 0-501.76 225.28-501.76 501.76s225.28 501.76 501.76 501.76 501.76-225.28 501.76-501.76-225.28-501.76-501.76-501.76zM522.24 898.56c-253.952 0-460.8-206.848-460.8-460.8s206.848-460.8 460.8-460.8 460.8 206.848 460.8 460.8-206.848 460.8-460.8 460.8zM647.168 220.672c-6.144 0-10.24 2.048-14.336 6.144l-110.592 110.592-110.592-110.592c-8.192-8.192-20.48-8.192-28.672 0l-71.68 71.68c-8.192 8.192-8.192 20.48 0 28.672l110.592 110.592-110.592 110.592c-8.192 8.192-8.192 20.48 0 28.672l71.68 71.68c8.192 8.192 20.48 8.192 28.672 0l110.592-110.592 110.592 110.592c8.192 8.192 20.48 8.192 28.672 0l71.68-71.68c8.192-8.192 8.192-20.48 0-28.672l-110.592-110.592 110.592-110.592c8.192-8.192 8.192-20.48 0-28.672l-71.68-71.68c-4.096-4.096-10.24-6.144-14.336-6.144zM522.24 386.56c6.144 0 10.24-2.048 14.336-6.144l110.592-110.592 43.008 43.008-110.592 110.592c-8.192 8.192-8.192 20.48 0 28.672l110.592 110.592-43.008 43.008-110.592-110.592c-8.192-8.192-20.48-8.192-28.672 0l-110.592 110.592-43.008-43.008 110.592-110.592c8.192-8.192 8.192-20.48 0-28.672l-110.592-110.592 43.008-43.008 110.592 110.592c4.096 4.096 8.192 6.144 14.336 6.144z" />
<glyph unicode="&#xe90b;" glyph-name="exit" d="M512 58.88c-100.352 0-198.656 38.912-274.432 114.688-151.552 151.552-151.552 397.312 0 548.864 147.456 147.456 385.024 151.552 536.576 12.288l57.344 57.344c6.144 6.144 14.336 8.192 20.48 4.096 8.192-2.048 12.288-8.192 14.336-16.384l34.816-276.48c0-6.144-2.048-12.288-6.144-16.384s-10.24-6.144-16.384-6.144l-278.528 34.816c-8.192 0-14.336 6.144-16.384 14.336s0 16.384 4.096 20.48l55.296 55.296c-36.864 30.72-81.92 47.104-131.072 47.104-55.296 0-106.496-20.48-143.36-59.392s-61.44-90.112-61.44-145.408 20.48-106.496 59.392-143.36c79.872-79.872 208.896-79.872 288.768 0 4.096 4.096 8.192 6.144 14.336 6.144v0c6.144 0 10.24-2.048 14.336-6.144l102.4-102.4c4.096-4.096 6.144-8.192 6.144-14.336s-2.048-10.24-6.144-14.336c-75.776-75.776-174.080-114.688-274.432-114.688zM512 796.16c-90.112 0-178.176-34.816-245.76-102.4-135.168-135.168-135.168-356.352 0-491.52 131.072-131.072 339.968-135.168 477.184-14.336l-73.728 73.728c-96.256-81.92-239.616-75.776-331.776 14.336-45.056 45.056-71.68 106.496-71.68 172.032s24.576 126.976 71.68 174.080c47.104 47.104 108.544 71.68 174.080 71.68s126.976-24.576 174.080-71.68c0 0 2.048-2.048 2.048-2.048 6.144-8.192 8.192-20.48 0-28.672l-40.96-40.96 210.944-26.624-26.624 210.944-40.96-40.96c-8.192-8.192-20.48-8.192-28.672 0 0 0-2.048 2.048-2.048 2.048-69.632 65.536-157.696 100.352-247.808 100.352z" />
<glyph unicode="&#xe90c;" glyph-name="favorite" d="M684.032 58.88c-12.288 0-24.576 4.096-34.816 10.24l-139.264 77.824c-12.288 6.144-26.624 6.144-36.864 0 0 0 0 0 0 0l-139.264-77.824c-24.576-14.336-55.296-12.288-77.824 4.096s-34.816 45.056-30.72 71.68l28.672 172.032c2.048 12.288-2.048 24.576-10.24 32.768l-118.784 122.88c-18.432 20.48-26.624 49.152-16.384 75.776 8.192 26.624 30.72 45.056 59.392 49.152l159.744 24.576c12.288 2.048 24.576 10.24 28.672 22.528l69.632 149.504c10.24 26.624 36.864 43.008 65.536 43.008s55.296-16.384 67.584-43.008l69.632-149.504c6.144-12.288 16.384-20.48 28.672-22.528l159.744-24.576c26.624-4.096 49.152-22.528 59.392-49.152s2.048-55.296-16.384-75.776l-120.832-122.88c-8.192-8.192-12.288-20.48-10.24-32.768l28.672-172.032c4.096-28.672-6.144-55.296-30.72-71.68-12.288-10.24-28.672-14.336-43.008-14.336zM491.52 192c12.288 0 26.624-4.096 38.912-10.24l139.264-77.824c10.24-6.144 24.576-6.144 34.816 2.048s16.384 20.48 14.336 32.768l-28.672 172.032c-4.096 24.576 4.096 51.2 20.48 67.584l120.832 122.88c8.192 8.192 12.288 22.528 8.192 32.768-4.096 12.288-14.336 20.48-26.624 22.528l-159.744 24.576c-26.624 4.096-49.152 20.48-59.392 45.056l-69.632 149.504c-8.192 14.336-20.48 20.48-32.768 20.48s-24.576-6.144-28.672-18.432l-69.632-149.504c-12.288-24.576-32.768-40.96-59.392-45.056l-159.744-24.576c-12.288-2.048-22.528-10.24-26.624-22.528s-4.096-24.576 6.144-34.816l118.784-122.88c18.432-18.432 24.576-43.008 20.48-67.584l-26.624-172.032c-2.048-12.288 2.048-24.576 14.336-32.768 10.24-8.192 22.528-8.192 34.816-2.048l139.264 77.824c10.24 6.144 22.528 10.24 36.864 10.24z" />
<glyph unicode="&#xe90d;" glyph-name="lock" d="M729.088 568.832h-61.44v104.448c0 63.488-51.2 114.688-114.688 114.688h-90.112c-63.488 0-114.688-51.2-114.688-114.688v-104.448h-61.44v104.448c0 98.304 79.872 176.128 176.128 176.128h90.112c98.304 0 176.128-79.872 176.128-176.128v-104.448zM653.312 568.832h-61.44v104.448c0 22.528-18.432 38.912-38.912 38.912h-90.112c-22.528 0-38.912-18.432-38.912-38.912v-104.448h-61.44v104.448c0 55.296 45.056 100.352 100.352 100.352h90.112c55.296 0 100.352-45.056 100.352-100.352v-104.448zM751.616 48.64h-489.472c-49.152 0-88.064 38.912-88.064 88.064v372.736c0 49.152 38.912 88.064 88.064 88.064h489.472c49.152 0 88.064-38.912 88.064-88.064v-372.736c0-49.152-38.912-88.064-88.064-88.064zM262.144 536.064c-14.336 0-26.624-12.288-26.624-26.624v-372.736c0-14.336 12.288-26.624 26.624-26.624h489.472c14.336 0 26.624 12.288 26.624 26.624v372.736c0 14.336-12.288 26.624-26.624 26.624h-489.472zM507.904 153.088c-49.152 0-88.064 38.912-88.064 88.064v40.96c0 0 0 0 0 0-49.152 49.152-49.152 129.024 0 176.128 24.576 24.576 55.296 36.864 88.064 36.864s65.536-12.288 88.064-36.864v0c0 0 0 0 0 0s0 0 0 0c24.576-24.576 36.864-55.296 36.864-88.064s-12.288-65.536-36.864-88.064c0 0 0 0 0 0v-40.96c0-49.152-40.96-88.064-88.064-88.064zM507.904 433.664c-16.384 0-32.768-6.144-45.056-18.432-24.576-24.576-24.576-65.536 0-90.112 2.048-2.048 4.096-4.096 6.144-6.144 8.192-6.144 12.288-14.336 12.288-24.576v-55.296c0-14.336 12.288-26.624 26.624-26.624s26.624 12.288 26.624 26.624v55.296c0 10.24 4.096 18.432 12.288 24.576 2.048 2.048 4.096 4.096 6.144 6.144 12.288 12.288 18.432 28.672 18.432 45.056s-6.144 32.768-18.432 45.056c0 0 0 0 0 0-12.288 12.288-28.672 18.432-45.056 18.432z" />
<glyph unicode="&#xe90e;" glyph-name="maker" d="M968.704 552.448l-143.36 43.008c-6.144 2.048-12.288 2.048-18.432 4.096l-126.976 161.792c-20.48 26.624-65.536 49.152-100.352 49.152h-290.816c-34.816 0-75.776-24.576-92.16-57.344l-75.776-147.456h-45.056c-24.576 0-45.056-20.48-45.056-45.056v-118.784c0-4.096 0-8.192-2.048-10.24-12.288-6.144-18.432-20.48-18.432-43.008v-38.912c0-24.576 20.48-45.056 45.056-45.056h26.624c10.24 0 18.432 8.192 18.432 18.432s-8.192 18.432-18.432 18.432h-26.624c-4.096 0-8.192 4.096-8.192 8.192v38.912c0 4.096 0 8.192 2.048 10.24 12.288 6.144 18.432 20.48 18.432 43.008v118.784c0 4.096 4.096 8.192 8.192 8.192h692.224c12.288 0 34.816-4.096 45.056-6.144l143.36-43.008c6.144-2.048 12.288-10.24 12.288-16.384v-151.552c0-4.096-2.048-6.144-2.048-8.192h-18.432c-10.24 0-18.432-8.192-18.432-18.432s8.192-18.432 18.432-18.432h20.48c20.48 0 38.912 20.48 38.912 45.056v151.552c-2.048 20.48-18.432 43.008-38.912 49.152zM393.216 605.696h-231.424l67.584 131.072c10.24 20.48 36.864 36.864 59.392 36.864h104.448v-167.936zM430.080 605.696v167.936h149.504c22.528 0 55.296-16.384 69.632-34.816l106.496-135.168h-325.632zM778.24 417.28c-51.2 0-96.256-30.72-116.736-73.728h-286.72c-20.48 43.008-65.536 73.728-116.736 73.728-69.632 0-126.976-57.344-126.976-126.976s57.344-126.976 126.976-126.976 126.976 57.344 126.976 126.976c0 6.144 0 10.24-2.048 16.384h264.192c0-6.144-2.048-10.24-2.048-16.384 0-69.632 57.344-126.976 126.976-126.976s126.976 57.344 126.976 126.976c6.144 69.632-51.2 126.976-120.832 126.976zM260.096 198.144c-49.152 0-90.112 40.96-90.112 90.112s40.96 90.112 90.112 90.112c49.152 0 90.112-40.96 90.112-90.112s-40.96-90.112-90.112-90.112zM778.24 198.144c-49.152 0-90.112 40.96-90.112 90.112s40.96 90.112 90.112 90.112c49.152 0 90.112-40.96 90.112-90.112s-40.96-90.112-90.112-90.112z" />
<glyph unicode="&#xe90f;" glyph-name="menu" d="M929.792 636.416h-665.6c-18.432 0-32.768 14.336-32.768 32.768s14.336 32.768 32.768 32.768h665.6c18.432 0 32.768-14.336 32.768-32.768s-14.336-32.768-32.768-32.768zM929.792 411.136h-665.6c-18.432 0-32.768 14.336-32.768 32.768s14.336 32.768 32.768 32.768h665.6c18.432 0 32.768-14.336 32.768-32.768s-14.336-32.768-32.768-32.768zM929.792 187.904h-665.6c-18.432 0-32.768 14.336-32.768 32.768s14.336 32.768 32.768 32.768h665.6c18.432 0 32.768-14.336 32.768-32.768s-14.336-32.768-32.768-32.768zM102.4 636.416v0c-20.48 0-34.816 14.336-34.816 32.768s14.336 32.768 32.768 32.768h2.048c18.432 0 32.768-14.336 32.768-32.768s-14.336-32.768-32.768-32.768zM102.4 411.136v0c-20.48 0-34.816 14.336-34.816 32.768s14.336 32.768 32.768 32.768h2.048c18.432 0 32.768-14.336 32.768-32.768s-14.336-32.768-32.768-32.768zM102.4 187.904v0c-20.48 0-34.816 14.336-34.816 32.768s14.336 32.768 32.768 32.768h2.048c18.432 0 32.768-14.336 32.768-32.768s-14.336-32.768-32.768-32.768z" />
<glyph unicode="&#xe910;" glyph-name="model" d="M385.024 333.312c-6.144 22.528-22.528 40.96-47.104 51.2 0 2.048 0 6.144 0 10.24 0 71.68-59.392 131.072-131.072 131.072s-131.072-59.392-131.072-131.072v-24.576c0-59.392 47.104-108.544 106.496-110.592 10.24-26.624 30.72-43.008 61.44-43.008h137.216c32.768 0 57.344 26.624 57.344 59.392 2.048 30.72-22.528 57.344-53.248 57.344zM382.976 251.392h-135.168c-10.24 0-24.576 4.096-28.672 28.672-2.048 8.192-10.24 14.336-18.432 14.336 0 0-2.048 0-2.048 0-2.048 0-4.096 0-8.192 0-40.96 0-73.728 32.768-73.728 73.728v24.576c0 51.2 40.96 92.16 92.16 92.16s92.16-40.96 92.16-92.16c0-6.144 0-12.288-2.048-18.432-2.048-10.24 4.096-18.432 14.336-22.528 30.72-8.192 36.864-24.576 36.864-38.912 0 0 0 0 0-2.048 2.048-16.384 16.384-16.384 32.768-16.384 12.288 0 20.48-10.24 20.48-22.528 0-10.24-10.24-20.48-20.48-20.48zM919.552 534.016h-278.528l73.728 145.408c10.24 20.48 36.864 36.864 59.392 36.864h145.408c10.24 0 18.432 8.192 18.432 18.432s-8.192 18.432-18.432 18.432h-145.408c-34.816 0-75.776-24.576-92.16-57.344l-81.92-163.84h-51.2c-24.576 0-45.056-20.48-45.056-45.056v-131.072c0-4.096 0-8.192-2.048-10.24-12.288-4.096-20.48-20.48-20.48-43.008v-45.056c0-24.576 20.48-45.056 45.056-45.056h30.72c10.24 0 18.432 8.192 18.432 18.432s-8.192 18.432-18.432 18.432h-30.72c-4.096 0-8.192 4.096-8.192 8.192v47.104c0 4.096 0 8.192 2.048 10.24 12.288 4.096 20.48 20.48 20.48 43.008v131.072c0 4.096 4.096 8.192 8.192 8.192h61.44c0 0 0 0 0 0s0 0 0 0h309.248c10.24 0 18.432 8.192 18.432 18.432s-8.192 18.432-18.432 18.432zM919.552 251.392h-49.152c-20.48 47.104-67.584 79.872-122.88 79.872-75.776 0-135.168-61.44-135.168-135.168 0-75.776 61.44-135.168 135.168-135.168 75.776 0 135.168 61.44 135.168 135.168 0 6.144 0 12.288-2.048 18.432h36.864c10.24 0 18.432 8.192 18.432 18.432 2.048 10.24-6.144 18.432-16.384 18.432zM749.568 97.792c-55.296 0-98.304 45.056-98.304 98.304 0 55.296 45.056 98.304 98.304 98.304 55.296 0 98.304-45.056 98.304-98.304 0-55.296-45.056-98.304-98.304-98.304z" />
<glyph unicode="&#xe911;" glyph-name="paymentcard" d="M272.384 493.056h-79.872c-22.528 0-40.96 18.432-40.96 40.96v79.872c0 22.528 18.432 40.96 40.96 40.96h79.872c22.528 0 40.96-18.432 40.96-40.96v-79.872c0-22.528-18.432-40.96-40.96-40.96zM192.512 613.888v-79.872h79.872v79.872h-79.872zM262.144 433.664h-90.112c-12.288 0-20.48 8.192-20.48 20.48s8.192 20.48 20.48 20.48h90.112c12.288 0 20.48-8.192 20.48-20.48s-8.192-20.48-20.48-20.48zM413.696 433.664h-90.112c-12.288 0-20.48 8.192-20.48 20.48s8.192 20.48 20.48 20.48h90.112c12.288 0 20.48-8.192 20.48-20.48s-8.192-20.48-20.48-20.48zM565.248 433.664h-90.112c-12.288 0-20.48 8.192-20.48 20.48s8.192 20.48 20.48 20.48h90.112c12.288 0 20.48-8.192 20.48-20.48s-10.24-20.48-20.48-20.48zM714.752 433.664h-90.112c-12.288 0-20.48 8.192-20.48 20.48s8.192 20.48 20.48 20.48h90.112c12.288 0 20.48-8.192 20.48-20.48s-8.192-20.48-20.48-20.48zM292.864 341.504h-120.832c-12.288 0-20.48 8.192-20.48 20.48s8.192 20.48 20.48 20.48h120.832c12.288 0 20.48-8.192 20.48-20.48s-8.192-20.48-20.48-20.48zM413.696 341.504h-59.392c-12.288 0-20.48 8.192-20.48 20.48s8.192 20.48 20.48 20.48h59.392c12.288 0 20.48-8.192 20.48-20.48s-8.192-20.48-20.48-20.48zM694.272 251.392h-530.432c-57.344 0-102.4 45.056-102.4 102.4v319.488c0 57.344 45.056 102.4 102.4 102.4h530.432c57.344 0 102.4-45.056 102.4-102.4v-319.488c0-55.296-45.056-102.4-102.4-102.4zM163.84 734.72c-34.816 0-61.44-26.624-61.44-61.44v-319.488c0-34.816 26.624-61.44 61.44-61.44h530.432c34.816 0 61.44 26.624 61.44 61.44v319.488c0 34.816-26.624 61.44-61.44 61.44h-530.432zM835.584 161.28h-573.44c-45.056 0-79.872 36.864-79.872 79.872v30.72c0 12.288 8.192 20.48 20.48 20.48s20.48-8.192 20.48-20.48v-30.72c0-22.528 18.432-38.912 38.912-38.912h573.44c22.528 0 38.912 18.432 38.912 38.912v362.496c0 22.528-18.432 38.912-38.912 38.912h-59.392c-12.288 0-20.48 8.192-20.48 20.48s8.192 20.48 20.48 20.48h59.392c45.056 0 79.872-36.864 79.872-79.872v-362.496c2.048-43.008-34.816-79.872-79.872-79.872zM624.64 523.776c-45.056 0-79.872 36.864-79.872 79.872s36.864 79.872 79.872 79.872 79.872-36.864 79.872-79.872-34.816-79.872-79.872-79.872zM624.64 644.608c-22.528 0-38.912-18.432-38.912-38.912s18.432-38.912 38.912-38.912 38.912 18.432 38.912 38.912-16.384 38.912-38.912 38.912z" />
<glyph unicode="&#xe912;" glyph-name="piston" d="M958.464 607.744l-161.792 112.64c-12.288 8.192-28.672 12.288-43.008 10.24s-28.672-10.24-36.864-24.576l-147.456-210.944c-18.432-26.624-12.288-61.44 14.336-79.872l24.576-16.384-63.488-75.776c-8.192 2.048-18.432 2.048-28.672 2.048s-18.432 0-28.672-2.048l-63.488 75.776 24.576 16.384c12.288 8.192 20.48 22.528 24.576 36.864 2.048 14.336 0 30.72-10.24 43.008l-147.456 210.944c-8.192 12.288-22.528 20.48-36.864 24.576-14.336 2.048-30.72 0-43.008-10.24l-161.792-112.64c-26.624-18.432-32.768-55.296-14.336-79.872l147.456-210.944c8.192-12.288 22.528-20.48 36.864-24.576 4.096 0 6.144 0 10.24 0 12.288 0 22.528 4.096 32.768 10.24l24.576 16.384 61.44-106.496c-2.048-12.288-4.096-24.576-4.096-36.864 0-81.92 67.584-149.504 149.504-149.504s149.504 67.584 149.504 149.504c0 12.288-2.048 24.576-4.096 36.864l61.44 106.496 24.576-16.384c10.24-6.144 20.48-10.24 32.768-10.24 4.096 0 6.144 0 10.24 0 14.336 2.048 28.672 10.24 36.864 24.576l147.456 210.944c14.336 26.624 8.192 63.488-18.432 79.872zM86.016 548.352c-6.144 10.24-4.096 22.528 4.096 30.72l161.792 112.64c4.096 2.048 8.192 4.096 12.288 4.096 2.048 0 2.048 0 4.096 0 6.144 0 10.24-4.096 14.336-8.192l36.864-53.248-196.608-137.216-36.864 51.2zM262.144 333.312c-4.096-4.096-10.24-4.096-16.384-4.096s-10.24 4.096-14.336 8.192l-88.064 129.024 196.608 137.216 88.064-126.976c4.096-4.096 4.096-10.24 4.096-16.384s-4.096-10.24-8.192-14.336l-161.792-112.64zM337.92 341.504l53.248 36.864 57.344-67.584c-24.576-12.288-47.104-30.72-61.44-55.296l-49.152 86.016zM514.048 65.024c-61.44 0-112.64 51.2-112.64 112.64s51.2 112.64 112.64 112.64c61.44 0 112.64-51.2 112.64-112.64s-51.2-112.64-112.64-112.64zM641.024 255.488c-14.336 24.576-36.864 43.008-61.44 55.296l57.344 67.584 53.248-36.864-49.152-86.016zM794.624 339.456c-4.096-4.096-8.192-8.192-14.336-8.192s-10.24 0-16.384 4.096l-159.744 112.64c-10.24 6.144-12.288 20.48-6.144 28.672l88.064 126.976 196.608-137.216-88.064-126.976zM942.080 548.352l-36.864-53.248-196.608 137.216 36.864 53.248c4.096 4.096 8.192 8.192 14.336 8.192 2.048 0 2.048 0 4.096 0 4.096 0 8.192-2.048 12.288-4.096l161.792-112.64c8.192-6.144 10.24-18.432 4.096-28.672zM704.512 417.28c10.24-8.192 22.528-10.24 34.816-10.24 18.432 0 36.864 8.192 49.152 24.576 8.192 12.288 12.288 28.672 10.24 45.056s-12.288 28.672-24.576 38.912c-26.624 18.432-63.488 12.288-81.92-14.336-20.48-28.672-14.336-65.536 12.288-83.968zM718.848 478.72c4.096 6.144 10.24 10.24 18.432 10.24 4.096 0 8.192-2.048 12.288-4.096 4.096-4.096 8.192-8.192 8.192-14.336s0-12.288-4.096-16.384c-6.144-10.24-20.48-12.288-30.72-6.144-4.096 4.096-8.192 8.192-8.192 14.336s2.048 12.288 4.096 16.384zM301.056 523.776c-16.384 2.048-30.72 0-45.056-10.24-12.288-8.192-22.528-22.528-24.576-38.912s0-30.72 10.24-45.056c12.288-16.384 30.72-24.576 49.152-24.576 12.288 0 22.528 4.096 34.816 10.24 12.288 8.192 22.528 22.528 24.576 38.912s0 30.72-10.24 45.056c-10.24 14.336-24.576 22.528-38.912 24.576zM311.296 462.336c-2.048-6.144-4.096-10.24-8.192-14.336-10.24-6.144-24.576-4.096-30.72 6.144-4.096 4.096-4.096 10.24-4.096 16.384 2.048 6.144 4.096 10.24 8.192 14.336 4.096 2.048 8.192 4.096 12.288 4.096 6.144 0 14.336-4.096 18.432-10.24 4.096-4.096 6.144-10.24 4.096-16.384zM514.048 247.296c-38.912 0-71.68-32.768-71.68-71.68s32.768-71.68 71.68-71.68c38.912 0 71.68 32.768 71.68 71.68 0 40.96-32.768 71.68-71.68 71.68zM514.048 142.848c-18.432 0-34.816 14.336-34.816 34.816 0 18.432 14.336 34.816 34.816 34.816 18.432 0 34.816-14.336 34.816-34.816s-16.384-34.816-34.816-34.816z" />
<glyph unicode="&#xe913;" glyph-name="plan-free" d="M565.248 390.656c-4.096 6.144-10.24 10.24-16.384 14.336h20.48c10.24 0 18.432 8.192 18.432 18.432s-8.192 18.432-18.432 18.432h-36.864c-4.096 20.48-10.24 43.008-14.336 65.536-6.144 26.624-30.72 49.152-57.344 51.2-75.776 6.144-151.552 6.144-227.328 0-26.624-2.048-51.2-24.576-57.344-51.2-4.096-22.528-10.24-43.008-14.336-65.536h-38.912c-10.24 0-18.432-8.192-18.432-18.432s8.192-18.432 18.432-18.432h20.48c-6.144-4.096-12.288-10.24-16.384-14.336-16.384-18.432-26.624-51.2-22.528-75.776s6.144-51.2 10.24-77.824c4.096-24.576 20.48-43.008 40.96-53.248v-36.864c0-18.432 16.384-34.816 34.816-34.816h43.008c18.432 0 34.816 16.384 34.816 34.816v34.816h155.648v-32.768c0-18.432 16.384-34.816 34.816-34.816h43.008c18.432 0 34.816 16.384 34.816 34.816v36.864c22.528 8.192 38.912 28.672 40.96 53.248l10.24 77.824c4.096 22.528-6.144 55.296-22.528 73.728v0zM210.944 499.2c2.048 10.24 14.336 22.528 24.576 22.528 73.728 6.144 147.456 6.144 219.136 0 10.24 0 22.528-12.288 24.576-22.528 6.144-24.576 10.24-49.152 16.384-73.728 0 0 0 0 0 0-100.352 10.24-200.704 10.24-299.008 0 0 0 0 0 0 0 4.096 24.576 10.24 49.152 14.336 73.728zM231.424 151.040h-38.912v30.72h38.912v-30.72zM499.712 151.040h-38.912v30.72h38.912v-30.72zM550.912 318.976l-10.24-75.776c-2.048-14.336-14.336-24.576-28.672-24.576h-333.824c-14.336 0-26.624 12.288-28.672 24.576-4.096 26.624-6.144 51.2-10.24 77.824-2.048 14.336 4.096 36.864 14.336 47.104 10.24 8.192 30.72 18.432 47.104 20.48 49.152 4.096 98.304 6.144 145.408 6.144 49.152 0 98.304-2.048 145.408-6.144 14.336-2.048 36.864-12.288 45.056-22.528 10.24-10.24 16.384-32.768 14.336-47.104zM276.48 347.648v0c-16.384 2.048-53.248 10.24-63.488 10.24-26.624 0-49.152-22.528-49.152-49.152s22.528-49.152 49.152-49.152h53.248c24.576 0 45.056 20.48 45.056 45.056 0 18.432-14.336 36.864-34.816 43.008zM268.288 294.4h-53.248c-6.144 0-12.288 6.144-12.288 12.288s6.144 12.288 12.288 12.288c4.096 0 32.768-4.096 55.296-8.192 4.096 0 6.144-4.096 6.144-8.192-2.048-4.096-4.096-8.192-8.192-8.192zM477.184 355.84c-10.24 0-47.104-6.144-61.44-8.192v0c-20.48-4.096-34.816-22.528-34.816-43.008 0-24.576 20.48-45.056 45.056-45.056h53.248c26.624 0 49.152 22.528 49.152 49.152-2.048 24.576-22.528 47.104-51.2 47.104zM477.184 294.4h-53.248c-4.096 0-8.192 4.096-8.192 8.192s2.048 6.144 6.144 8.192c22.528 4.096 51.2 8.192 55.296 8.192 6.144 0 12.288-6.144 12.288-12.288s-4.096-12.288-12.288-12.288zM923.648 308.736l-118.784 104.448c26.624 38.912 40.96 88.064 43.008 137.216 2.048 69.632-24.576 135.168-73.728 186.368-49.152 49.152-112.64 77.824-182.272 79.872-116.736 2.048-223.232-75.776-256-188.416-2.048-10.24 2.048-20.48 12.288-22.528s20.48 2.048 22.528 12.288c26.624 96.256 114.688 161.792 215.040 161.792 2.048 0 2.048 0 4.096 0 59.392-2.048 114.688-24.576 157.696-67.584 40.96-43.008 63.488-100.352 63.488-159.744-2.048-102.4-71.68-190.464-172.032-212.992-10.24-2.048-16.384-12.288-14.336-22.528 2.048-8.192 10.24-14.336 18.432-14.336 2.048 0 2.048 0 4.096 0 26.624 6.144 51.2 16.384 73.728 30.72l104.448-118.784c12.288-14.336 30.72-22.528 49.152-22.528 0 0 2.048 0 2.048 0 18.432 0 34.816 6.144 47.104 20.48l2.048 2.048c14.336 14.336 20.48 30.72 20.48 49.152 0 14.336-8.192 32.768-22.528 45.056zM901.12 235.008l-2.048-2.048c-6.144-6.144-14.336-10.24-22.528-8.192-8.192 0-16.384 4.096-22.528 10.24l-102.4 116.736c12.288 10.24 22.528 20.48 32.768 30.72l116.736-102.4c6.144-6.144 10.24-14.336 10.24-22.528s-4.096-14.336-10.24-22.528z" />
<glyph unicode="&#xe914;" glyph-name="plan-year" d="M837.632 822.784h-266.24c-49.152 0-90.112-40.96-90.112-90.112v-165.888c0-40.96 26.624-75.776 65.536-86.016v-47.104c0-20.48 10.24-26.624 16.384-28.672 2.048-2.048 6.144-2.048 10.24-2.048 6.144 0 14.336 2.048 22.528 8.192l79.872 65.536h163.84c49.152 0 90.112 40.96 90.112 90.112v165.888c-2.048 51.2-43.008 90.112-92.16 90.112zM890.88 568.832c0-28.672-24.576-53.248-53.248-53.248h-169.984c-4.096 0-8.192-2.048-12.288-4.096l-71.68-59.392v45.056c0 10.24-8.192 18.432-16.384 18.432-26.624 2.048-49.152 26.624-49.152 53.248v165.888c0 28.672 24.576 53.248 53.248 53.248h264.192c28.672 0 53.248-24.576 53.248-53.248v-165.888zM815.104 675.328c-4.096 4.096-8.192 8.192-12.288 10.24 0 0 0 2.048 0 2.048h8.192c8.192 0 14.336 6.144 14.336 14.336s-6.144 14.336-14.336 14.336h-14.336c0 4.096-2.048 8.192-2.048 14.336-4.096 16.384-18.432 28.672-34.816 30.72-36.864 4.096-73.728 4.096-110.592 0-16.384-2.048-30.72-14.336-34.816-30.72 0-4.096-2.048-8.192-2.048-14.336h-14.336c-8.192 0-14.336-6.144-14.336-14.336s6.144-14.336 14.336-14.336h8.192c0 0 0-2.048 0-2.048-4.096-2.048-10.24-6.144-12.288-10.24-8.192-10.24-14.336-28.672-12.288-43.008l4.096-36.864c2.048-18.432 18.432-34.816 38.912-34.816h2.048v-24.576h36.864v24.576h81.92v-24.576h36.864v24.576h2.048c18.432 0 36.864 14.336 38.912 34.816l4.096 36.864c4.096 16.384-2.048 32.768-12.288 43.008v0zM645.12 722.432c0 2.048 4.096 6.144 6.144 6.144 34.816 4.096 69.632 4.096 104.448 0 2.048 0 4.096-4.096 6.144-6.144 2.048-8.192 4.096-18.432 6.144-26.624-43.008 4.096-86.016 4.096-126.976 0 2.048 8.192 2.048 18.432 4.096 26.624zM792.576 599.552c0-2.048-4.096-6.144-6.144-6.144h-161.792c-2.048 0-6.144 2.048-6.144 6.144l-4.096 36.864c0 4.096 2.048 12.288 4.096 16.384 4.096 4.096 12.288 8.192 18.432 8.192 22.528 2.048 47.104 4.096 69.632 4.096s47.104-2.048 69.632-4.096c6.144 0 14.336-4.096 18.432-8.192s6.144-12.288 4.096-16.384l-6.144-36.864zM763.904 640.512h-26.624c-8.192 0-16.384-8.192-16.384-16.384s8.192-16.384 16.384-16.384h26.624c8.192 0 16.384 8.192 16.384 16.384s-8.192 16.384-16.384 16.384zM669.696 640.512h-26.624c-8.192 0-16.384-8.192-16.384-16.384s8.192-16.384 16.384-16.384h26.624c8.192 0 16.384 8.192 16.384 16.384s-8.192 16.384-16.384 16.384zM825.344 341.504v94.208h-36.864v-81.92h-569.344v350.208c0 4.096 4.096 8.192 8.192 8.192h206.848v36.864h-208.896c-24.576 0-45.056-20.48-45.056-45.056v-364.544l-71.68-96.256c-12.288-16.384-18.432-43.008-14.336-61.44l8.192-32.768c4.096-22.528 26.624-40.96 49.152-40.96h698.368c22.528 0 45.056 18.432 49.152 40.96l8.192 32.768c4.096 18.432-2.048 45.056-14.336 61.44l-67.584 98.304zM874.496 189.952l-8.192-32.768c-2.048-6.144-8.192-10.24-14.336-10.24h-698.368c-6.144 0-12.288 6.144-14.336 10.24l-8.192 32.768c-2.048 8.192 2.048 24.576 6.144 30.72l69.632 94.208h587.776l69.632-94.208c8.192-6.144 12.288-20.48 10.24-30.72zM589.824 261.632c-6.144 12.288-20.48 20.48-32.768 20.48h-106.496c-14.336 0-26.624-8.192-32.768-20.48l-16.384-32.768c-4.096-8.192-4.096-16.384 0-24.576 4.096-6.144 12.288-10.24 20.48-10.24h161.792c8.192 0 16.384 4.096 20.48 10.24s4.096 16.384 0 24.576l-14.336 32.768zM434.176 226.816l10.24 20.48c0 2.048 4.096 2.048 4.096 2.048h106.496c2.048 0 4.096-2.048 4.096-2.048l10.24-20.48h-135.168zM294.912 415.232h190.464v36.864h-190.464v-36.864zM294.912 513.536h110.592v36.864h-110.592v-36.864zM405.504 648.704h-110.592v-36.864h110.592v36.864z" />
<glyph unicode="&#xe915;" glyph-name="search" d="M458.752 247.296c-151.552 0-274.432 122.88-274.432 274.432s122.88 274.432 274.432 274.432 274.432-122.88 274.432-274.432c0-151.552-122.88-274.432-274.432-274.432zM458.752 755.2c-129.024 0-233.472-104.448-233.472-233.472s104.448-233.472 233.472-233.472 233.472 104.448 233.472 233.472c0 129.024-104.448 233.472-233.472 233.472zM458.752 323.072c-108.544 0-198.656 88.064-198.656 198.656s88.064 198.656 198.656 198.656c108.544 0 198.656-88.064 198.656-198.656s-90.112-198.656-198.656-198.656zM458.752 679.424c-86.016 0-157.696-69.632-157.696-157.696 0-86.016 69.632-157.696 157.696-157.696 86.016 0 157.696 69.632 157.696 157.696 0 86.016-71.68 157.696-157.696 157.696zM786.432 120.32c-18.432 0-38.912 8.192-53.248 22.528l-151.552 151.552c-8.192 8.192-8.192 20.48 0 28.672s20.48 8.192 28.672 0l151.552-151.552c12.288-12.288 34.816-12.288 47.104 0s12.288 34.816 0 47.104l-151.552 151.552c-8.192 8.192-8.192 20.48 0 28.672s20.48 8.192 28.672 0l151.552-151.552c28.672-28.672 28.672-75.776 0-104.448-14.336-14.336-32.768-22.528-51.2-22.528z" />
<glyph unicode="&#xe916;" glyph-name="searchlist" d="M860.16 673.28h-163.84c-12.288 0-20.48 8.192-20.48 20.48v163.84c0 12.288 8.192 20.48 20.48 20.48s20.48-8.192 20.48-20.48v-143.36h143.36c12.288 0 20.48-8.192 20.48-20.48s-10.24-20.48-20.48-20.48zM811.008 17.92h-524.288c-38.912 0-69.632 30.72-69.632 69.632v147.456c0 12.288 8.192 20.48 20.48 20.48s20.48-8.192 20.48-20.48v-147.456c0-16.384 12.288-28.672 28.672-28.672h524.288c16.384 0 28.672 12.288 28.672 28.672v598.016l-153.6 151.552h-399.36c-16.384 0-28.672-12.288-28.672-28.672v-180.224c0-12.288-8.192-20.48-20.48-20.48s-20.48 8.192-20.48 20.48v180.224c0 38.912 30.72 69.632 69.632 69.632h409.6c6.144 0 10.24-2.048 14.336-6.144l163.84-163.84c4.096-4.096 6.144-8.192 6.144-14.336v-606.208c0-38.912-32.768-69.632-69.632-69.632zM761.856 509.44h-40.96c-12.288 0-20.48 8.192-20.48 20.48s8.192 20.48 20.48 20.48h40.96c12.288 0 20.48-8.192 20.48-20.48s-10.24-20.48-20.48-20.48zM638.976 509.44h-57.344c-12.288 0-20.48 8.192-20.48 20.48s8.192 20.48 20.48 20.48h57.344c12.288 0 20.48-8.192 20.48-20.48s-10.24-20.48-20.48-20.48zM761.856 574.976h-73.728c-12.288 0-20.48 8.192-20.48 20.48s8.192 20.48 20.48 20.48h73.728c12.288 0 20.48-8.192 20.48-20.48s-10.24-20.48-20.48-20.48zM606.208 574.976h-40.96c-12.288 0-20.48 8.192-20.48 20.48s8.192 20.48 20.48 20.48h40.96c12.288 0 20.48-8.192 20.48-20.48s-10.24-20.48-20.48-20.48zM761.856 443.904h-40.96c-12.288 0-20.48 8.192-20.48 20.48s8.192 20.48 20.48 20.48h40.96c12.288 0 20.48-8.192 20.48-20.48s-10.24-20.48-20.48-20.48zM638.976 443.904h-40.96c-12.288 0-20.48 8.192-20.48 20.48s8.192 20.48 20.48 20.48h40.96c12.288 0 20.48-8.192 20.48-20.48s-10.24-20.48-20.48-20.48zM761.856 378.368h-40.96c-12.288 0-20.48 8.192-20.48 20.48s8.192 20.48 20.48 20.48h40.96c12.288 0 20.48-8.192 20.48-20.48s-10.24-20.48-20.48-20.48zM638.976 378.368h-57.344c-12.288 0-20.48 8.192-20.48 20.48s8.192 20.48 20.48 20.48h57.344c12.288 0 20.48-8.192 20.48-20.48s-10.24-20.48-20.48-20.48zM761.856 312.832h-106.496c-12.288 0-20.48 8.192-20.48 20.48s8.192 20.48 20.48 20.48h106.496c12.288 0 20.48-8.192 20.48-20.48s-10.24-20.48-20.48-20.48zM573.44 312.832h-40.96c-12.288 0-20.48 8.192-20.48 20.48s8.192 20.48 20.48 20.48h40.96c12.288 0 20.48-8.192 20.48-20.48s-10.24-20.48-20.48-20.48zM761.856 247.296h-16.384c-10.24 0-20.48 10.24-20.48 20.48s10.24 20.48 20.48 20.48h16.384c12.288 0 20.48-10.24 20.48-20.48s-10.24-20.48-20.48-20.48zM663.552 247.296h-81.92c-10.24 0-20.48 10.24-20.48 20.48s10.24 20.48 20.48 20.48h81.92c10.24 0 20.48-10.24 20.48-20.48s-10.24-20.48-20.48-20.48zM499.712 247.296h-163.84c-10.24 0-20.48 10.24-20.48 20.48s10.24 20.48 20.48 20.48h163.84c10.24 0 20.48-10.24 20.48-20.48s-10.24-20.48-20.48-20.48zM745.472 181.76h-286.72c-12.288 0-20.48 8.192-20.48 20.48s8.192 20.48 20.48 20.48h286.72c12.288 0 20.48-8.192 20.48-20.48s-10.24-20.48-20.48-20.48zM376.832 181.76h-40.96c-12.288 0-20.48 8.192-20.48 20.48s8.192 20.48 20.48 20.48h40.96c12.288 0 20.48-8.192 20.48-20.48s-10.24-20.48-20.48-20.48zM385.024 312.832c-92.16 0-167.936 75.776-167.936 167.936s75.776 167.936 167.936 167.936 167.936-75.776 167.936-167.936-75.776-167.936-167.936-167.936zM385.024 607.744c-69.632 0-126.976-57.344-126.976-126.976s57.344-126.976 126.976-126.976c69.632 0 126.976 57.344 126.976 126.976s-57.344 126.976-126.976 126.976zM172.032 247.296c-6.144 0-10.24 2.048-14.336 6.144-8.192 8.192-8.192 20.48 0 28.672l108.544 108.544c8.192 8.192 20.48 8.192 28.672 0s8.192-20.48 0-28.672l-108.544-108.544c-4.096-4.096-10.24-6.144-14.336-6.144z" />
<glyph unicode="&#xe917;" glyph-name="settings" d="M749.568 36.352c-12.288 0-20.48 8.192-20.48 20.48v260.096c0 6.144 2.048 10.24 6.144 14.336 55.296 51.2 83.968 120.832 83.968 194.56 0 147.456-120.832 268.288-268.288 268.288s-268.288-120.832-268.288-268.288c0-8.192 0-8.192-118.784-126.976-2.048-4.096-2.048-10.24 0-12.288 0-2.048 4.096-6.144 10.24-6.144h59.392c12.288 0 20.48-8.192 20.48-20.48v-151.552c0-22.528 18.432-40.96 40.96-40.96h120.832c12.288 0 20.48-8.192 20.48-20.48v-90.112c0-12.288-8.192-20.48-20.48-20.48s-20.48 8.192-20.48 20.48v69.632h-100.352c-45.056 0-81.92 36.864-81.92 81.92v131.072h-40.96c-20.48 0-38.912 12.288-47.104 32.768s-4.096 40.96 10.24 57.344c0 0 83.968 83.968 106.496 106.496 4.096 165.888 141.312 301.056 309.248 301.056 169.984 0 309.248-139.264 309.248-309.248 0-81.92-32.768-159.744-90.112-219.136v-251.904c0-12.288-10.24-20.48-20.48-20.48zM550.912 429.568c-53.248 0-96.256 43.008-96.256 96.256s43.008 96.256 96.256 96.256c53.248 0 96.256-43.008 96.256-96.256s-43.008-96.256-96.256-96.256zM550.912 581.12c-30.72 0-55.296-24.576-55.296-55.296s24.576-55.296 55.296-55.296 55.296 24.576 55.296 55.296-24.576 55.296-55.296 55.296zM573.44 308.736h-43.008c-16.384 0-30.72 14.336-30.72 30.72v16.384c-10.24 4.096-22.528 8.192-30.72 12.288l-10.24-10.24c-12.288-12.288-32.768-14.336-45.056-2.048l-30.72 30.72c-12.288 12.288-12.288 30.72 0 43.008l12.288 12.288c-6.144 10.24-10.24 20.48-12.288 30.72h-14.336c-18.432 0-32.768 12.288-32.768 30.72v43.008c0 16.384 14.336 30.72 32.768 30.72h14.336c4.096 10.24 8.192 22.528 12.288 30.72l-12.288 12.288c-12.288 12.288-12.288 30.72 0 43.008l30.72 30.72c12.288 12.288 30.72 12.288 45.056-2.048l10.24-10.24c10.24 6.144 20.48 10.24 30.72 12.288v20.48c0 16.384 14.336 30.72 30.72 30.72h43.008c16.384 0 30.72-14.336 30.72-32.768v-14.336c10.24-4.096 22.528-8.192 30.72-12.288l12.288 12.288c12.288 12.288 30.72 12.288 43.008 0l30.72-30.72c6.144-6.144 10.24-14.336 8.192-22.528 0-8.192-4.096-14.336-10.24-20.48l-10.24-10.24c6.144-10.24 10.24-20.48 12.288-30.72h16.384c16.384 0 30.72-14.336 30.72-30.72v-43.008c0-16.384-14.336-30.72-30.72-30.72h-16.384c-4.096-10.24-8.192-22.528-12.288-30.72l10.24-10.24c12.288-12.288 14.336-32.768 2.048-45.056l-30.72-30.72c-12.288-12.288-30.72-12.288-43.008 0l-12.288 8.192c-10.24-6.144-20.48-10.24-30.72-12.288v-14.336c0-20.48-14.336-34.816-30.72-34.816zM540.672 349.696h22.528v14.336c0 14.336 10.24 26.624 22.528 28.672 12.288 4.096 24.576 8.192 34.816 14.336 12.288 6.144 26.624 6.144 36.864-4.096l10.24-10.24 16.384 16.384-10.24 10.24c-10.24 10.24-12.288 24.576-4.096 36.864 6.144 10.24 12.288 22.528 14.336 36.864 4.096 14.336 16.384 22.528 28.672 22.528h14.336v22.528h-14.336c-14.336 0-26.624 10.24-28.672 22.528-4.096 12.288-8.192 24.576-14.336 34.816-6.144 12.288-6.144 26.624 4.096 36.864l10.24 10.24-16.384 16.384-10.24-10.24c-10.24-10.24-24.576-12.288-36.864-4.096-12.288 6.144-22.528 12.288-36.864 14.336-14.336 4.096-22.528 16.384-22.528 28.672v14.336h-22.528v-14.336c0-14.336-10.24-26.624-22.528-28.672-12.288-4.096-24.576-8.192-36.864-14.336s-26.624-6.144-36.864 4.096l-10.24 10.24-16.384-16.384 10.24-10.24c10.24-10.24 12.288-24.576 4.096-36.864-6.144-12.288-12.288-22.528-14.336-36.864-4.096-14.336-16.384-22.528-28.672-22.528h-14.336v-22.528h16.384c14.336 0 26.624-10.24 28.672-22.528 4.096-12.288 8.192-24.576 14.336-36.864s6.144-26.624-4.096-36.864l-10.24-10.24 16.384-16.384 10.24 10.24c10.24 10.24 24.576 12.288 36.864 4.096 10.24-6.144 22.528-12.288 36.864-14.336 14.336-4.096 22.528-16.384 22.528-28.672v-12.288zM595.968 353.792c0 0 0 0 0 0s0 0 0 0zM724.992 482.816c0 0 0 0 0 0s0 0 0 0zM724.992 570.88c0 0 0 0 0 0s0 0 0 0zM628.736 677.376c0 0 0 0 0 0v0z" />
<glyph unicode="&#xe918;" glyph-name="sign-in" d="M317.44 314.88c-6.144 0-10.24 2.048-14.336 6.144-8.192 8.192-8.192 20.48 0 28.672l73.728 73.728-73.728 73.728c-8.192 8.192-8.192 20.48 0 28.672s20.48 8.192 28.672 0l88.064-88.064c8.192-8.192 8.192-20.48 0-28.672l-88.064-88.064c-4.096-4.096-8.192-6.144-14.336-6.144zM405.504 402.944h-323.584c-12.288 0-20.48 8.192-20.48 20.48s8.192 20.48 20.48 20.48h323.584c12.288 0 20.48-8.192 20.48-20.48s-8.192-20.48-20.48-20.48zM819.2 79.36c-2.048 0-4.096 0-4.096 0l-235.52 59.392c-10.24 2.048-18.432 14.336-14.336 24.576 2.048 10.24 14.336 18.432 24.576 14.336l208.896-51.2v624.64l-210.944-53.248c-10.24-2.048-22.528 4.096-24.576 14.336s4.096 22.528 14.336 24.576l235.52 59.392c6.144 2.048 12.288 0 18.432-4.096 6.144-2.048 8.192-8.192 8.192-14.336v-677.888c0-6.144-2.048-12.288-8.192-16.384-4.096-2.048-8.192-4.096-12.288-4.096zM583.68 138.752h-354.304c-12.288 0-20.48 8.192-20.48 20.48v206.848c0 12.288 8.192 20.48 20.48 20.48s20.48-8.192 20.48-20.48v-186.368h313.344v518.144h-313.344v-215.040c0-12.288-8.192-20.48-20.48-20.48s-20.48 8.192-20.48 20.48v235.52c0 12.288 8.192 20.48 20.48 20.48h354.304c12.288 0 20.48-8.192 20.48-20.48v-561.152c0-10.24-10.24-18.432-20.48-18.432zM819.2 402.944h-59.392c-12.288 0-20.48 8.192-20.48 20.48s8.192 20.48 20.48 20.48h59.392c12.288 0 20.48-8.192 20.48-20.48s-8.192-20.48-20.48-20.48z" />
<glyph unicode="&#xe919;" glyph-name="unlock" d="M903.168 359.936c-38.912 0-69.632 30.72-69.632 69.632v247.808c0 22.528-18.432 40.96-40.96 40.96h-94.208c-22.528 0-40.96-18.432-40.96-40.96v-106.496h-61.44v106.496c0 55.296 45.056 102.4 102.4 102.4h94.208c55.296 0 102.4-45.056 102.4-102.4v-247.808c0-4.096 4.096-8.192 8.192-8.192s8.192 4.096 8.192 8.192v247.808c0 65.536-53.248 118.784-118.784 118.784h-94.208c-65.536 0-118.784-53.248-118.784-118.784v-106.496h-61.44v106.496c2.048 98.304 81.92 180.224 182.272 180.224h94.208c98.304 0 180.224-79.872 180.224-180.224v-247.808c-2.048-36.864-32.768-69.632-71.68-69.632zM681.984 40.448h-499.712c-49.152 0-90.112 40.96-90.112 90.112v380.928c0 49.152 40.96 90.112 90.112 90.112h499.712c49.152 0 90.112-40.96 90.112-90.112v-380.928c0-49.152-38.912-90.112-90.112-90.112zM182.272 540.16c-16.384 0-28.672-12.288-28.672-28.672v-380.928c0-16.384 12.288-28.672 28.672-28.672h499.712c16.384 0 28.672 12.288 28.672 28.672v380.928c0 16.384-12.288 28.672-28.672 28.672h-499.712zM432.128 146.944c-49.152 0-88.064 40.96-88.064 90.112v40.96c0 0 0 0 0 0-49.152 49.152-49.152 131.072 0 180.224 24.576 24.576 55.296 36.864 90.112 36.864s65.536-12.288 90.112-36.864c49.152-49.152 49.152-131.072 0-180.224 0 0 0 0 0 0v-40.96c-2.048-51.2-43.008-90.112-92.16-90.112zM432.128 433.664c-18.432 0-34.816-6.144-47.104-18.432s-18.432-28.672-18.432-47.104c0-18.432 6.144-34.816 18.432-47.104 2.048-2.048 4.096-4.096 6.144-6.144 8.192-6.144 12.288-14.336 12.288-24.576v-55.296c0-14.336 12.288-28.672 26.624-28.672s28.672 12.288 28.672 28.672v55.296c0 10.24 4.096 18.432 12.288 24.576 2.048 2.048 4.096 4.096 6.144 6.144 26.624 26.624 26.624 67.584 0 92.16-10.24 14.336-26.624 20.48-45.056 20.48z" />
<glyph unicode="&#xe91a;" glyph-name="user" d="M311.296 79.36l24.576-4.096c118.784-20.48 272.384-16.384 382.976 10.24l24.576 6.144c61.44 16.384 104.448 40.96 116.736 71.68-10.24 133.12-61.44 221.184-221.184 272.384-36.864-26.624-79.872-40.96-129.024-40.96s-92.16 16.384-129.024 43.008c-163.84-47.104-212.992-139.264-221.184-272.384 18.432-43.008 75.776-69.632 151.552-86.016zM327.68 591.36c4.096-22.528 22.528-45.056 38.912-43.008 0 0 0 0 0 0 28.672-63.488 75.776-118.784 143.36-118.784s116.736 55.296 143.36 118.784c16.384-2.048 34.816 20.48 38.912 43.008 4.096 18.432-4.096 32.768-16.384 38.912 2.048 14.336 4.096 28.672 4.096 40.96 0 94.208-75.776 165.888-169.984 165.888s-169.984-69.632-169.984-165.888c0-12.288 2.048-26.624 4.096-40.96-12.288-6.144-20.48-20.48-16.384-38.912z" />
<glyph unicode="&#xe91b;" glyph-name="view" d="M522.24 140.8c-188.416 0-358.4 112.64-458.752 299.008-4.096 6.144-4.096 12.288 0 18.432 100.352 188.416 270.336 301.056 458.752 301.056s358.4-112.64 458.752-299.008c4.096-6.144 4.096-12.288 0-18.432-100.352-188.416-270.336-301.056-458.752-301.056zM104.448 450.048c94.208-167.936 249.856-268.288 417.792-268.288s323.584 100.352 417.792 268.288c-92.16 167.936-247.808 268.288-417.792 268.288s-323.584-100.352-417.792-268.288zM522.24 230.912c-120.832 0-217.088 98.304-217.088 217.088 0 120.832 98.304 217.088 217.088 217.088s217.088-94.208 217.088-215.040c0-120.832-96.256-219.136-217.088-219.136zM522.24 626.176c-98.304 0-176.128-79.872-176.128-176.128 0-98.304 79.872-176.128 176.128-176.128s176.128 79.872 176.128 176.128c0 96.256-77.824 176.128-176.128 176.128zM522.24 323.072c-69.632 0-126.976 57.344-126.976 126.976 0 12.288 8.192 20.48 20.48 20.48s20.48-8.192 20.48-20.48c0-47.104 38.912-86.016 86.016-86.016s86.016 38.912 86.016 86.016-38.912 86.016-86.016 86.016c-12.288 0-20.48 8.192-20.48 20.48s8.192 20.48 20.48 20.48c69.632 0 126.976-57.344 126.976-126.976s-57.344-126.976-126.976-126.976z" />
<glyph unicode="&#xe91c;" glyph-name="wallet" d="M823.296 134.656h-557.056c-34.816 0-61.44 28.672-61.44 61.44v419.84c0 34.816 28.672 61.44 61.44 61.44h557.056c34.816 0 61.44-28.672 61.44-61.44v-126.976c0-12.288-8.192-20.48-20.48-20.48s-20.48 8.192-20.48 20.48v124.928c0 12.288-10.24 20.48-20.48 20.48h-557.056c-12.288 0-20.48-10.24-20.48-20.48v-417.792c0-12.288 10.24-20.48 20.48-20.48h557.056c12.288 0 20.48 10.24 20.48 20.48v55.296c0 12.288 8.192 20.48 20.48 20.48s20.48-8.192 20.48-20.48v-55.296c2.048-32.768-26.624-61.44-61.44-61.44zM892.928 302.592h-139.264c-57.344 0-104.448 47.104-104.448 104.448s47.104 104.448 104.448 104.448h139.264c26.624 0 49.152-22.528 49.152-49.152v-110.592c0-28.672-22.528-49.152-49.152-49.152zM753.664 468.48c-34.816 0-63.488-28.672-63.488-63.488s28.672-63.488 63.488-63.488h139.264c4.096 0 8.192 4.096 8.192 8.192v110.592c0 4.096-4.096 8.192-8.192 8.192h-139.264zM753.664 357.888c-26.624 0-49.152 22.528-49.152 49.152s22.528 49.152 49.152 49.152c26.624 0 49.152-22.528 49.152-49.152s-22.528-49.152-49.152-49.152zM753.664 413.184c-4.096 0-8.192-4.096-8.192-8.192s4.096-8.192 8.192-8.192 8.192 4.096 8.192 8.192-4.096 8.192-8.192 8.192zM530.432 636.416c-6.144 0-14.336 4.096-18.432 10.24-6.144 10.24-2.048 22.528 8.192 28.672l167.936 98.304c10.24 6.144 22.528 2.048 28.672-8.192l55.296-98.304c6.144-10.24 2.048-22.528-8.192-28.672s-22.528-2.048-28.672 8.192l-45.056 79.872-151.552-88.064c0-2.048-4.096-2.048-8.192-2.048zM346.112 636.416c-6.144 0-14.336 4.096-18.432 10.24-6.144 10.24-2.048 22.528 8.192 28.672l241.664 139.264c4.096 2.048 10.24 2.048 16.384 2.048 6.144-2.048 10.24-4.096 12.288-10.24l45.056-79.872c6.144-10.24 2.048-22.528-8.192-28.672s-22.528-2.048-28.672 8.192l-34.816 61.44-223.232-129.024c-2.048-2.048-6.144-2.048-10.24-2.048z" />
<glyph unicode="&#xe91d;" glyph-name="wheel" d="M516.096 781.824c-196.608 0-354.304-157.696-354.304-354.304s157.696-352.256 352.256-352.256c194.56 0 352.256 157.696 352.256 352.256s-155.648 354.304-350.208 354.304zM516.096 112.128c-174.080 0-315.392 141.312-315.392 315.392s141.312 315.392 315.392 315.392c174.080 0 315.392-141.312 315.392-315.392s-141.312-315.392-315.392-315.392zM276.48 480.768c49.152 22.528 141.312 38.912 239.616 38.912s188.416-14.336 239.616-38.912c2.048-2.048 6.144-2.048 8.192-2.048 4.096 0 8.192 2.048 12.288 4.096 6.144 4.096 8.192 12.288 6.144 18.432-32.768 118.784-141.312 200.704-264.192 200.704s-231.424-81.92-264.192-200.704c-2.048-6.144 0-14.336 6.144-18.432 2.048-4.096 10.24-6.144 16.384-2.048zM516.096 667.136c94.208 0 176.128-55.296 215.040-137.216-55.296 16.384-133.12 26.624-215.040 26.624s-159.744-10.24-215.040-26.624c36.864 81.92 120.832 137.216 215.040 137.216zM473.088 253.44c-16.384 116.736-174.080 135.168-206.848 137.216-6.144 0-12.288-2.048-16.384-6.144s-6.144-10.24-4.096-16.384c24.576-106.496 108.544-188.416 215.040-208.896 2.048 0 2.048 0 4.096 0 4.096 0 10.24 2.048 12.288 6.144 4.096 4.096 6.144 10.24 6.144 16.384l-10.24 71.68zM290.816 349.696c47.104-8.192 135.168-30.72 145.408-102.4l6.144-45.056c-69.632 22.528-126.976 77.824-151.552 147.456zM778.24 384.512c-4.096 4.096-10.24 6.144-16.384 6.144-30.72-2.048-190.464-20.48-206.848-137.216l-10.24-73.728c0-6.144 2.048-12.288 6.144-16.384s8.192-6.144 12.288-6.144c2.048 0 2.048 0 4.096 0 106.496 20.48 190.464 102.4 215.040 208.896 2.048 8.192 0 14.336-4.096 18.432zM587.776 202.24l6.144 45.056c0 0 0 0 0 0 10.24 71.68 98.304 94.208 145.408 102.4-24.576-69.632-81.92-124.928-151.552-147.456zM585.728 411.136c0 38.912-32.768 71.68-71.68 71.68s-71.68-32.768-71.68-71.68 32.768-71.68 71.68-71.68c40.96 0 71.68 32.768 71.68 71.68zM516.096 378.368c-18.432 0-34.816 14.336-34.816 34.816 0 18.432 14.336 34.816 34.816 34.816s34.816-14.336 34.816-34.816c-2.048-20.48-16.384-34.816-34.816-34.816z" />
</font>
</defs>
</svg>
