<svg width="30" height="36" viewBox="0 0 30 36" fill="none" xmlns="http://www.w3.org/2000/svg">
<path d="M22.1335 25.536C19.6658 28.9096 17.3488 31.5831 16.8149 32.1904L15.0093 34.2646L13.1836 32.1915C12.6494 31.5846 10.3298 28.9122 7.86009 25.5382C3.00866 26.4644 0 28.2912 0 30.4502C0 34.0551 7.72821 36 15 36C22.2718 36 30 34.0551 30 30.4502C30 28.2835 26.9925 26.46 22.1335 25.536Z" fill="#359088"/>
<path d="M15.0026 31.9192L15.6026 31.2293C16.0841 30.6817 27.3657 17.7671 27.3657 11.5872C27.3657 5.19737 21.8236 0 15.0026 0C8.18149 0 2.63151 5.19737 2.63151 11.5872C2.63151 17.7671 13.9131 30.6817 14.3946 31.2293L15.0026 31.9192ZM6.31834 11.9322C6.31834 7.3798 10.2104 3.68239 15.0026 3.68239C19.7868 3.68239 23.6868 7.3798 23.6868 11.9322C23.6868 16.4771 19.7868 20.182 15.0026 20.182C10.2104 20.182 6.31834 16.4771 6.31834 11.9322Z" fill="#359088"/>
<path d="M13.6617 11.6716C13.6617 11.8562 13.8727 12.0343 14.0653 12.0343H15.8991C16.0923 12.0343 16.1907 11.8562 16.1907 11.6716V10.8274H21.0689V15.3595C21.0689 15.959 21.0271 16 20.3995 16H9.56512C8.93693 16 8.96385 15.959 8.96385 15.3595V10.8276H13.6613L13.6617 11.6716Z" fill="#359088"/>
<path d="M16.1911 6.68965H13.8423V7.89655H12.939V6.72965C12.939 6.33776 13.3473 6 13.758 6H16.2073C16.618 6 16.9138 6.33776 16.9138 6.72965V7.89655H16.1911V6.68965Z" fill="#359088"/>
<path d="M9.56566 8.06887H20.3998C21.0275 8.06887 21.0692 8.17387 21.0692 8.77301V10.4827H8.9642V8.77301C8.9642 8.17387 8.93746 8.06887 9.56566 8.06887Z" fill="#359088"/>
<path d="M14.4508 11.5171C14.3182 11.5171 14.2039 11.4869 14.2039 11.3606V10.8276H15.8299V11.3606C15.8299 11.4869 15.6476 11.5171 15.515 11.5171H14.4508Z" fill="#359088"/>
</svg>
