<svg width="34" height="36" viewBox="0 0 34 36" fill="none" xmlns="http://www.w3.org/2000/svg">
<path d="M13.5344 24.0012C12.8158 19.0306 9.61254 18.3528 9.61254 18.3528C8.7918 17.6228 7.55278 15.7908 7.55278 15.7908C6.60972 13.4042 5.60332 12.502 5.0851 12.1769C4.63459 12.0948 4.03665 12.052 3.6828 12.3029C3.47639 12.4638 3.36772 12.7158 3.36663 13.0791C3.3426 14.3413 5.13588 17.4574 6.82323 19.9474C7.02801 20.2613 7.15415 20.6151 7.18254 20.9784C7.21039 21.4228 7.29667 22.0792 7.54895 22.7266C7.61667 22.9088 7.5282 23.1102 7.36111 23.1906C7.19401 23.2508 7.01818 23.1794 6.93026 23.0275C6.93026 23.0174 6.92043 23.0073 6.9106 22.987C6.63866 22.2592 6.53327 21.5218 6.49559 21.0268C6.47648 20.7844 6.39894 20.5521 6.26242 20.3496C5.17957 18.7404 2.65401 14.8132 2.6895 13.0667C2.70206 12.3198 3.02643 11.9272 3.29182 11.7359C3.66533 11.4648 4.14586 11.3956 4.57726 11.4075C4.33426 10.8006 3.88594 10.1127 3.69099 9.62724C3.42833 8.97984 3.30601 7.44486 3.30601 7.44486C3.42123 5.24391 2.46452 4.00873 2.46452 4.00873C1.66017 1.67392 0.206538 2.45631 0.0203292 2.59693C-0.156596 2.74767 0.882569 5.6697 0.771717 6.57809C0.651037 7.48648 0.605713 9.2532 0.591515 10.6768C0.576771 12.1105 0.781 15.5444 0.861818 17.6346C0.943182 19.7253 1.60556 20.8986 4.69139 24.3932C6.18542 26.0845 6.84671 27.6522 7.12739 28.8041L13.3913 28.8266L13.2608 26.8675C13.6261 25.859 13.5344 24.0012 13.5344 24.0012Z" fill="#359088"/>
<path d="M15.2119 35.2453L15.2245 31.61C15.2261 31.1859 14.9034 30.8518 14.4818 30.8501L6.2182 30.8203C5.8163 30.8186 5.48156 31.1511 5.48046 31.5752L5.46845 35.2104C5.46681 35.6244 5.79937 35.9686 6.20127 35.9703L14.4649 36.0001C14.8859 36.0012 15.2108 35.6592 15.2119 35.2453ZM12.9933 33.4195C12.9949 32.9751 13.3389 32.623 13.7703 32.6247C14.1919 32.6264 14.5435 32.9808 14.5419 33.4251C14.5403 33.8695 14.1864 34.2216 13.7648 34.2199C13.3335 34.2188 12.9916 33.8638 12.9933 33.4195Z" fill="#359088"/>
<path d="M20.464 24.0007C21.1826 19.0302 24.3858 18.3524 24.3858 18.3524C25.2071 17.6223 26.4456 15.7903 26.4456 15.7903C27.3887 13.4038 28.3951 12.5016 28.9133 12.1765C29.3638 12.0943 29.9617 12.0516 30.3156 12.3025C30.522 12.4633 30.6307 12.7153 30.6318 13.0787C30.6558 14.3408 28.8625 17.4569 27.1752 19.947C26.9704 20.2608 26.8442 20.6146 26.8158 20.978C26.788 21.4223 26.7017 22.0787 26.4494 22.7261C26.3812 22.9084 26.4702 23.1098 26.6373 23.1902C26.8044 23.2504 26.9802 23.1789 27.0681 23.0271C27.0681 23.0169 27.078 23.0068 27.0878 22.9866C27.3597 22.2587 27.4651 21.5213 27.5028 21.0264C27.5219 20.7839 27.5994 20.5516 27.736 20.3491C28.8188 18.7399 31.3444 14.8128 31.3089 13.0663C31.2963 12.3193 30.9714 11.9267 30.7066 11.7355C30.3331 11.4644 29.8525 11.3952 29.4211 11.407C29.6641 10.8001 30.113 10.1122 30.3074 9.62678C30.57 8.97938 30.6924 7.4444 30.6924 7.4444C30.5771 5.24345 31.5339 4.00827 31.5339 4.00827C32.3393 1.67289 33.7929 2.45529 33.9797 2.59591C34.1566 2.74665 33.1175 5.66868 33.2283 6.57707C33.349 7.48546 33.3943 9.25218 33.4085 10.6758C33.4232 12.1095 33.219 15.5434 33.1382 17.6335C33.0568 19.7242 32.3945 20.8976 29.3086 24.3922C27.8146 26.0835 27.1533 27.6511 26.8726 28.8031L20.6087 28.8256L20.7392 26.8665C20.3722 25.8585 20.464 24.0007 20.464 24.0007Z" fill="#359088"/>
<path d="M19.534 35.9991L27.7976 35.9693C28.1995 35.9676 28.5315 35.6234 28.5304 35.2094L28.5184 31.5742C28.5168 31.1501 28.1826 30.8182 27.7807 30.8193L19.5165 30.8497C19.095 30.8514 18.7728 31.1855 18.7739 31.6096L18.7859 35.2449C18.7875 35.6588 19.1124 36.0008 19.534 35.9991ZM20.2335 34.2195C19.8119 34.2212 19.4581 33.8691 19.4565 33.4247C19.4548 32.9803 19.8065 32.626 20.228 32.6243C20.6594 32.6226 21.0035 32.9747 21.0051 33.4191C21.0067 33.8634 20.6649 34.2183 20.2335 34.2195Z" fill="#359088"/>
<path d="M25.2367 3.24672L17.1511 0.0282641C17.0517 -0.00942137 16.9419 -0.00942137 16.842 0.0282641L8.76184 3.24672C8.5942 3.3114 8.48444 3.47339 8.48444 3.65619V10.61C8.48444 13.9955 10.0129 17.1273 12.5663 18.9976C13.6759 19.8008 14.9422 20.4476 16.3341 20.9111C17.0965 21.1676 16.8862 21.167 17.6529 20.9167C19.0552 20.4476 20.327 19.8008 21.4311 18.9925C23.9851 17.1324 25.513 13.9955 25.513 10.61V3.65619C25.5141 3.47283 25.4043 3.3114 25.2367 3.24672ZM24.6557 10.61C24.6557 13.7148 23.2637 16.5773 20.9348 18.2754C19.8989 19.0302 18.7106 19.6337 17.3919 20.0758L16.9943 20.2108L16.5968 20.0758C15.2939 19.6337 14.1007 19.0302 13.0588 18.2754C10.7299 16.5773 9.3434 13.7092 9.3434 10.61V3.95824L16.9938 0.912467L24.6557 3.95824V10.61Z" fill="#359088"/>
<path d="M23.8026 4.86335V11.073H23.7868C23.6612 13.7093 22.426 16.1077 20.4427 17.5527C19.5739 18.1888 18.5746 18.7063 17.4857 19.1051V2.04932L23.5301 4.45331C23.6929 4.518 23.8026 4.68561 23.8026 4.86335Z" fill="#359088"/>
<path d="M16.5175 2.04932V11.073H16.512V19.1051C15.4231 18.7063 14.4238 18.1888 13.5496 17.5527C11.5663 16.1083 10.3365 13.7093 10.2109 11.073H10.2006V4.86335C10.2006 4.68561 10.3158 4.51856 10.478 4.45388L16.5175 2.04932Z" fill="#359088"/>
</svg>
