<svg width="40" height="36" viewBox="0 0 40 36" fill="none" xmlns="http://www.w3.org/2000/svg">
<path d="M15.8352 24.5997C15.3551 25.3037 15.5152 26.2477 16.1953 26.7037C16.8755 27.1677 17.8196 26.9677 18.2997 26.2637C18.7798 25.5597 18.6198 24.6157 17.9397 24.1597C17.2595 23.6957 16.3153 23.8957 15.8352 24.5997Z" fill="#359088"/>
<path d="M3.32815 31.5041H12.41C12.586 31.5041 12.754 31.4481 12.8821 31.3521C13.0101 31.2961 13.1381 31.2161 13.2501 31.1121L15.9547 28.5281C16.4508 28.0561 16.4508 27.2881 15.9547 26.8081C15.4586 26.3361 14.6504 26.3361 14.1543 26.8081L11.4498 29.3921C11.4258 29.4161 11.4018 29.4401 11.3858 29.4641L9.34535 26.9441C9.20133 26.7681 8.99328 26.6641 8.76124 26.6481C8.52919 26.6321 8.30515 26.7121 8.13711 26.8641L4.79244 29.9601H3.32815C2.88006 29.9601 2.51999 30.3041 2.51999 30.7361C2.51999 31.1521 2.88006 31.5041 3.32815 31.5041ZM8.62521 28.5681L9.74543 29.9521H7.12891L8.62521 28.5681Z" fill="#359088"/>
<path d="M9.22594 17.048C9.90607 17.048 10.5542 16.832 11.0903 16.416C11.4024 16.176 11.8345 16.176 12.1465 16.416C12.6906 16.832 13.3308 17.048 14.0109 17.048C15.0111 17.048 15.9473 16.56 16.5234 15.736C16.6994 15.48 17.0115 15.344 17.3236 15.368C17.4276 15.376 17.5316 15.384 17.6356 15.384C18.6358 15.384 19.572 14.896 20.1481 14.08C20.3802 13.752 20.8043 13.624 21.1803 13.776C21.9005 14.056 22.7166 14.056 23.4368 13.776C23.8129 13.632 24.2369 13.752 24.469 14.08C25.1011 14.984 26.1893 15.48 27.2936 15.368C27.6056 15.336 27.9097 15.48 28.0937 15.736C28.6698 16.56 29.606 17.048 30.6062 17.048C31.2864 17.048 31.9345 16.832 32.4706 16.416C32.6226 16.304 32.8067 16.24 32.9987 16.24C33.1907 16.24 33.3748 16.304 33.5268 16.416C34.0709 16.832 34.711 17.048 35.3912 17.048C37.0875 17.048 38.4638 15.672 38.4638 13.984C38.4638 12.448 37.3116 11.136 35.7913 10.944C35.5432 10.912 35.3192 10.776 35.1751 10.56C35.0391 10.352 34.9991 10.088 35.0631 9.848C35.1431 9.576 35.1831 9.288 35.1831 9.008C35.1831 7.32 33.8069 5.944 32.1105 5.944C31.9025 5.944 31.6944 5.968 31.4944 6.008C31.2303 6.064 30.9663 5.992 30.7662 5.824C30.5662 5.656 30.4462 5.408 30.4542 5.144V5.072C30.4542 3.392 29.0779 2.016 27.3816 2.016C26.9735 2.016 26.5814 2.096 26.2133 2.248C25.7812 2.424 25.2851 2.232 25.0931 1.808C24.613 0.704001 23.5168 0 22.3166 0C21.1163 0 20.0201 0.704 19.524 1.8C19.332 2.224 18.8359 2.424 18.4038 2.24C18.0357 2.088 17.6356 2.008 17.2355 2.008C15.5392 2.008 14.1629 3.384 14.1629 5.072V5.128C14.1709 5.392 14.0509 5.64 13.8509 5.808C13.6508 5.976 13.3788 6.048 13.1227 5.992C12.9227 5.952 12.7146 5.928 12.5066 5.928C10.8103 5.928 9.43398 7.304 9.43398 8.992C9.43398 9.28 9.47398 9.56 9.554 9.84C9.62602 10.08 9.58601 10.344 9.44198 10.552C9.30595 10.76 9.08191 10.904 8.82586 10.936C7.29755 11.128 6.15332 12.44 6.15332 13.976C6.15332 15.672 7.5296 17.048 9.22594 17.048Z" fill="#359088"/>
<path d="M39.5359 35.0718H25.141C23.8928 29.8958 23.6767 19.8158 23.5807 15.3438C23.5727 15.0718 23.5727 14.8238 23.5647 14.5918C22.7646 14.8638 21.8684 14.8638 21.0602 14.5918C21.0522 14.8238 21.0522 15.0718 21.0442 15.3438C20.9482 19.8158 20.7321 29.8958 19.4839 35.0718H14.963C14.963 35.0158 14.947 34.9518 14.923 34.8958L13.8268 32.4398L18.9558 27.5678C19.1478 27.3918 19.1478 27.0958 18.9558 26.9198C18.7718 26.7438 18.4597 26.7358 18.2757 26.9198L13.0746 31.8638H2.0004C1.73635 31.8638 1.5203 32.0718 1.5203 32.3198C1.5203 32.5678 1.73635 32.7758 2.0004 32.7758H2.96859L2.02441 34.8958C2.0004 34.9518 1.9844 35.0158 1.9844 35.0718H0.464093C0.208042 35.0718 0 35.2798 0 35.5358C0 35.7918 0.208042 35.9998 0.464093 35.9998H39.5359C39.792 35.9998 40 35.7918 40 35.5358C40 35.2798 39.792 35.0718 39.5359 35.0718ZM4.0088 32.7758H12.9306L13.9548 35.0718H2.9846L4.0088 32.7758Z" fill="#359088"/>
</svg>
