<svg width="36" height="36" viewBox="0 0 36 36" fill="none" xmlns="http://www.w3.org/2000/svg">
<path d="M31.946 17.8372C33.3841 19.2933 35.6925 17.2241 34.368 15.653C34.3301 15.6147 34.2923 15.5764 34.2545 15.4998L19.5336 0.632252C18.7011 -0.210751 17.3387 -0.210751 16.5062 0.632252L10.7541 6.45664V2.47153C10.7541 2.12667 10.4892 1.85844 10.1486 1.85844H6.5914C6.25082 1.85844 5.98592 2.12667 5.98592 2.47153V11.3231L1.82322 15.5381C1.78537 15.5764 1.74753 15.6147 1.70969 15.6914C0.38519 17.2624 2.6936 19.3316 4.13162 17.8755L15.9764 5.88186C16.6197 5.23045 17.4901 4.9239 18.3983 5.00054C19.1174 5.07718 19.7607 5.42204 20.2526 5.92018L31.946 17.8372Z" fill="#359088"/>
<path d="M12.6841 20.7491C13.8754 20.7491 14.8411 19.7713 14.8411 18.565C14.8411 17.3587 13.8754 16.3809 12.6841 16.3809C11.4928 16.3809 10.5271 17.3587 10.5271 18.565C10.5271 19.7713 11.4928 20.7491 12.6841 20.7491Z" fill="#359088"/>
<path d="M15.4465 22.3588C15.0681 21.6691 14.3491 21.2476 13.5922 21.2476H11.8136C11.0189 21.2476 10.3377 21.6691 9.95931 22.3588L7.95365 26.1523C7.68875 26.6121 7.87796 27.2252 8.33207 27.4551C8.48344 27.5318 8.63481 27.5701 8.78619 27.5701C9.12677 27.5701 9.46736 27.3785 9.61873 27.0719L10.7919 24.8112L9.84578 34.7356C9.7701 35.3487 10.2242 35.9235 10.8297 35.9618C10.8675 35.9618 10.9054 35.9618 10.9432 35.9618C11.5109 35.9618 12.0028 35.5403 12.0407 34.9272L12.6461 28.528L13.2516 34.9272C13.2895 35.502 13.7814 35.9618 14.3491 35.9618C14.3869 35.9618 14.4248 35.9618 14.4626 35.9618C15.0681 35.8852 15.5222 35.3487 15.4465 34.7356L14.5004 24.8112L15.6736 27.0719C15.9385 27.5318 16.5061 27.7234 16.9602 27.4551C17.4143 27.1869 17.6035 26.6121 17.3386 26.1523L15.4465 22.3588Z" fill="#359088"/>
<path d="M23.3557 20.7491C24.547 20.7491 25.5128 19.7713 25.5128 18.565C25.5128 17.3587 24.547 16.3809 23.3557 16.3809C22.1645 16.3809 21.1987 17.3587 21.1987 18.565C21.1987 19.7713 22.1645 20.7491 23.3557 20.7491Z" fill="#359088"/>
<path d="M26.0804 22.3588C25.7019 21.6691 24.9829 21.2476 24.2261 21.2476H22.4475C21.6528 21.2476 20.9716 21.6691 20.5932 22.3588L18.5875 26.1523C18.3226 26.6121 18.5118 27.2252 18.9659 27.4551C19.42 27.7234 20.0255 27.5318 20.2526 27.0719L21.5014 24.7345L21.35 26.1906C21.3122 26.5355 21.2365 26.842 21.0473 27.1486L19.5336 30.0225C19.2687 30.5206 19.6093 31.172 20.1769 31.172H20.8959L20.5553 34.7739C20.4796 35.387 20.9337 35.8852 21.5014 35.9618C21.5392 35.9618 21.5771 35.9618 21.6149 35.9618C22.1447 35.9618 22.6367 35.5403 22.6745 34.9655L23.0529 31.1337H23.6206L23.999 34.9655C24.0369 35.5403 24.5288 35.9618 25.0586 35.9618C25.0965 35.9618 25.1343 35.9618 25.1721 35.9618C25.7776 35.8852 26.1939 35.387 26.1182 34.7739L25.7776 31.172H26.4966C27.0643 31.172 27.4427 30.5589 27.14 30.0225L25.5884 27.1869C25.437 26.8804 25.3235 26.5738 25.2857 26.2289L25.1343 24.7728L26.3831 27.1103C26.5723 27.4168 26.8751 27.6084 27.2156 27.6084C27.367 27.6084 27.5184 27.5701 27.6698 27.4934C28.1239 27.2252 28.3131 26.6504 28.0482 26.1906L26.0804 22.3588Z" fill="#359088"/>
<path d="M32.2865 24.3128C33.3106 24.3128 34.1408 23.4722 34.1408 22.4352C34.1408 21.3982 33.3106 20.5576 32.2865 20.5576C31.2624 20.5576 30.4323 21.3982 30.4323 22.4352C30.4323 23.4722 31.2624 24.3128 32.2865 24.3128Z" fill="#359088"/>
<path d="M35.9195 28.4896L34.368 25.5774C34.1031 25.0409 33.5354 24.7344 32.9299 24.7344H31.5676C30.9621 24.7344 30.4323 25.0792 30.1296 25.5774L28.578 28.4896C28.3888 28.8344 28.5402 29.2943 28.8808 29.4858C28.9943 29.5625 29.1078 29.5625 29.2213 29.5625C29.4862 29.5625 29.7511 29.4092 29.8647 29.1793L30.7729 27.455L30.1296 35.042C30.0917 35.5018 30.4323 35.9233 30.8864 36C30.9243 36 30.9243 36 30.9621 36C31.3784 36 31.7568 35.6551 31.7946 35.2336L32.2488 30.3288L32.7029 35.2336C32.7407 35.6934 33.1191 36 33.5354 36C33.5733 36 33.5733 36 33.6111 36C34.0652 35.9616 34.4058 35.5401 34.368 35.042L33.6489 27.455L34.5572 29.1793C34.7464 29.5242 35.2005 29.6774 35.5411 29.4858C35.9574 29.2943 36.1087 28.8344 35.9195 28.4896Z" fill="#359088"/>
<path d="M3.75317 24.3128C4.77726 24.3128 5.60746 23.4722 5.60746 22.4352C5.60746 21.3982 4.77726 20.5576 3.75317 20.5576C2.72907 20.5576 1.89887 21.3982 1.89887 22.4352C1.89887 23.4722 2.72907 24.3128 3.75317 24.3128Z" fill="#359088"/>
<path d="M5.87237 25.5774C5.60747 25.0409 5.03983 24.7344 4.43434 24.7344H3.07201C2.46652 24.7344 1.93672 25.0792 1.63398 25.5774L0.0824273 28.4896C-0.106786 28.8344 0.0445846 29.2943 0.385169 29.4858C0.725754 29.6774 1.17987 29.5242 1.36908 29.1793L2.31515 27.3783L2.20162 28.4896C2.16378 28.7578 2.08809 28.9877 1.97457 29.2176L0.839282 31.4018C0.612226 31.7849 0.914968 32.2831 1.33124 32.2831H1.86104L1.59614 35.042C1.55829 35.5018 1.89888 35.885 2.31515 35.9616C2.35299 35.9616 2.35299 35.9616 2.39084 35.9616C2.80711 35.9616 3.14769 35.6551 3.22338 35.1953L3.48828 32.2831H3.94239L4.20729 35.1953C4.24513 35.6168 4.62356 35.9616 5.03983 35.9616C5.07767 35.9616 5.07767 35.9616 5.11551 35.9616C5.56963 35.9233 5.91021 35.5018 5.83453 35.042L5.56963 32.2831H6.09943C6.55354 32.2831 6.81844 31.8233 6.59138 31.4018L5.41826 29.2176C5.30473 28.9877 5.22904 28.7578 5.1912 28.4896L5.15336 27.3783L6.09943 29.1793C6.21295 29.4092 6.47785 29.5625 6.74275 29.5625C6.85628 29.5625 6.96981 29.5242 7.08334 29.4858C7.42392 29.2943 7.57529 28.8344 7.38608 28.4896L5.87237 25.5774Z" fill="#359088"/>
</svg>
