<svg width="20" height="12" viewBox="0 0 20 12" fill="none" xmlns="http://www.w3.org/2000/svg">
<path d="M6.69778 0.806307C6.50049 0.63211 6.25387 0.545011 6.01342 0.545011C5.71748 0.545011 5.4277 0.669438 5.22425 0.91207L1.25372 5.52829C1.04409 5.72115 0.908453 6.00111 0.908453 6.31218C0.908453 6.64813 1.06259 6.94675 1.3092 7.13961L5.27974 11.1461C5.68665 11.5568 6.35252 11.5568 6.75944 11.1461C7.16635 10.7355 7.16635 10.0636 6.75944 9.65303L4.49673 7.3698L18.0422 7.3698C18.6217 7.3698 19.0903 6.89698 19.0903 6.31218C19.0903 5.72737 18.6217 5.25455 18.0422 5.25455L4.26244 5.25455L6.80259 2.29942C7.18485 1.85771 7.13553 1.18581 6.69778 0.806307Z" fill="white"/>
</svg>
