<svg width="20" height="12" viewBox="0 0 20 12" fill="none" xmlns="http://www.w3.org/2000/svg">
<path d="M13.3022 11.1937C13.4995 11.3679 13.7461 11.455 13.9866 11.455C14.2825 11.455 14.5723 11.3306 14.7758 11.0879L18.7463 6.47171C18.9559 6.27885 19.0915 5.99889 19.0915 5.68782C19.0915 5.35187 18.9374 5.05325 18.6908 4.86039L14.7203 0.853854C14.3133 0.443247 13.6475 0.443247 13.2406 0.853854C12.8336 1.26446 12.8336 1.93636 13.2406 2.34697L15.5033 4.6302L1.95785 4.6302C1.3783 4.6302 0.909729 5.10302 0.909729 5.68782C0.909729 6.27263 1.3783 6.74545 1.95785 6.74545L15.7376 6.74545L13.1974 9.70058C12.8152 10.1423 12.8645 10.8142 13.3022 11.1937Z" fill="white"/>
</svg>
