<svg width="168" height="38" viewBox="0 0 168 38" fill="none" xmlns="http://www.w3.org/2000/svg">
<g clip-path="url(#clip0)">
<path d="M27.8412 37.3003V34.7978H37.6344V25.0041H40.1371V37.2999L27.8412 37.3003Z" fill="#359088"/>
<path d="M0 37.3003V25.0046H2.50265V34.7983H12.2959V37.3008L0 37.3003Z" fill="#359088"/>
<path d="M37.6354 12.2958V2.50253H27.8412V0H40.1371V12.2958H37.6354Z" fill="#359088"/>
<path d="M0 12.2958V0H12.2959V2.50253H2.50265V12.2958H0Z" fill="#359088"/>
<path d="M32.6084 7.26392H7.41572V12.2933H32.6084V7.26392Z" fill="#151718"/>
<path d="M32.6084 25.0051H7.41572V30.0344H32.6084V25.0051Z" fill="#151718"/>
<path d="M27.4962 16.1346H7.41572V21.164H27.4962V16.1346Z" fill="#151718"/>
<path d="M65.6292 25.5729V11.7267H77.1267C77.9933 11.6608 78.8553 11.9037 79.56 12.4124C79.8349 12.6968 80.0461 13.0363 80.1796 13.4087C80.313 13.7811 80.3657 14.1777 80.3341 14.572V16.1981C80.3445 16.5129 80.2914 16.8267 80.178 17.1206C80.0645 17.4145 79.8931 17.6825 79.6738 17.9087C79.5017 18.0821 79.3045 18.2288 79.0889 18.3439L78.8772 18.4577L79.0879 18.5739C79.3371 18.7106 79.5624 18.8868 79.7551 19.0958C80.2249 19.616 80.4709 20.3006 80.4398 21.0009V22.7024C80.4603 23.1281 80.3718 23.5519 80.1826 23.9337C79.9934 24.3155 79.7099 24.6427 79.3589 24.8843C78.6832 25.3479 77.6865 25.5729 76.3147 25.5729H65.6292ZM69.1435 22.6491H75.8486C76.5313 22.6491 76.7704 22.5277 76.8522 22.4549C76.9358 22.3542 76.9979 22.2377 77.0351 22.1123C77.0722 21.9869 77.0835 21.8552 77.0682 21.7253V20.7172C77.0837 20.5862 77.0725 20.4535 77.0353 20.3269C76.9981 20.2003 76.9357 20.0827 76.8517 19.9809C76.7669 19.908 76.5268 19.7876 75.8486 19.7876H69.1435V22.6491ZM69.1435 17.0714H75.8486C76.1677 17.0976 76.4884 17.0461 76.7834 16.9215L76.7938 16.9157L76.8027 16.9076C76.8719 16.8393 76.925 16.7564 76.958 16.6649C76.9909 16.5735 77.003 16.4758 76.9934 16.3791V15.1096C77.0027 15.0129 76.9905 14.9154 76.9576 14.824C76.9247 14.7326 76.8719 14.6497 76.8032 14.5811L76.7948 14.5735L76.7848 14.5681C76.4896 14.4427 76.1682 14.3914 75.8486 14.4185H69.1435V17.0714Z" fill="#151718"/>
<path d="M82.4919 25.5729V11.7266H93.9659C94.8339 11.6598 95.6988 11.8909 96.4177 12.3819C96.6979 12.6694 96.913 13.0138 97.0485 13.3917C97.184 13.7696 97.2368 14.172 97.2032 14.572V17.5409C97.2355 17.9349 97.1828 18.3311 97.0489 18.703C96.9149 19.0749 96.7027 19.4138 96.4266 19.6967C95.7149 20.2137 94.8416 20.4585 93.9649 20.3866H86.0067V25.5729H82.4919ZM86.0067 17.5629H92.6224C92.9446 17.6018 93.271 17.5399 93.5566 17.3857C93.6963 17.2108 93.7615 16.9879 93.7383 16.7653V15.3471C93.7527 15.236 93.7436 15.1231 93.7116 15.0157C93.6796 14.9084 93.6254 14.809 93.5526 14.7238C93.268 14.5711 92.943 14.5104 92.6224 14.5501H86.0067V17.5629Z" fill="#151718"/>
<path d="M102.818 25.5728C101.479 25.5728 100.572 25.3317 100.046 24.8352C99.5466 24.3307 99.3051 23.4544 99.3051 22.1604V15.1394C99.3051 13.8494 99.5452 12.9786 100.039 12.4775C100.564 11.973 101.474 11.729 102.818 11.729H112.485C113.84 11.729 114.741 11.9745 115.239 12.4775C115.754 12.9721 116.004 13.8419 116.004 15.1394V22.1604C116.004 23.4614 115.754 24.3362 115.234 24.8337C114.735 25.3328 113.836 25.5728 112.485 25.5728H102.818ZM102.876 22.5481H112.433V14.6253H102.876V22.5481Z" fill="#151718"/>
<path d="M129.884 25.5728V14.781H121.705V25.5728H118.135V11.7563H133.455V25.5728H129.884Z" fill="#151718"/>
<path d="M156.528 11.7571C155.656 11.6919 154.788 11.9235 154.065 12.4142C153.789 12.6977 153.578 13.037 153.445 13.4094C153.312 13.7818 153.261 14.1785 153.295 14.5725V17.6666C153.264 18.0575 153.316 18.4505 153.45 18.8192C153.583 19.1879 153.795 19.5235 154.069 19.8034C154.722 20.2754 155.517 20.511 156.321 20.4708L152.129 25.5746H156.595L160.357 20.4757H164.484V25.5746H167.998V11.758L156.528 11.7571ZM164.486 17.7124H157.875C157.551 17.7461 157.224 17.6832 156.936 17.5314C156.8 17.3596 156.737 17.1412 156.76 16.9234V15.3395C156.737 15.1207 156.8 14.9014 156.937 14.7291C157.225 14.5767 157.551 14.5145 157.875 14.5505H164.486V17.7124Z" fill="#151718"/>
<path d="M63.5766 11.727H48.257V14.7328H63.5766V11.727Z" fill="#151718"/>
<path d="M63.5766 22.5681H48.257V25.5738H63.5766V22.5681Z" fill="#151718"/>
<path d="M60.4681 17.1476H48.257V20.1533H60.4681V17.1476Z" fill="#151718"/>
<path d="M151.034 11.727H135.714V14.7328H151.034V11.727Z" fill="#151718"/>
<path d="M151.034 22.5681H135.714V25.5738H151.034V22.5681Z" fill="#151718"/>
<path d="M147.925 17.1476H135.714V20.1533H147.925V17.1476Z" fill="#151718"/>
</g>
<defs>
<clipPath id="clip0">
<rect width="168" height="37.301" fill="white"/>
</clipPath>
</defs>
</svg>
