<svg width="18" height="14" viewBox="0 0 18 14" fill="none" xmlns="http://www.w3.org/2000/svg">
<path d="M18 6.86275C18 7.33333 17.82 7.76471 17.5199 8.05882C14.7391 10.7647 11.8583 12.1373 8.93748 12.1373C8.87747 12.1373 8.79744 12.1373 8.73743 12.1373C7.9372 12.1176 7.197 12 6.4768 11.8235L7.59711 10.7255C8.03723 10.8824 8.51737 10.9608 9.0175 10.9608C11.3181 10.9608 13.1987 9.11765 13.1987 6.86275C13.1987 6.37255 13.0986 5.90196 12.9586 5.4902L14.9391 3.54902C15.8194 4.13726 16.6996 4.84314 17.5599 5.68628C17.82 5.96078 18 6.39216 18 6.86275ZM8.9975 9.58824C10.5379 9.58824 11.7783 8.37255 11.7783 6.86275C11.7783 6.78431 11.7783 6.68628 11.7583 6.60784L8.73743 9.58824C8.81745 9.58824 8.91748 9.58824 8.9975 9.58824ZM15.9194 0.882353L2.61573 13.9216C2.5157 13.9804 2.41567 14 2.31564 14C2.1556 14 2.01556 13.9412 1.89553 13.8235C1.65546 13.5882 1.65546 13.2157 1.89553 13L4.07613 10.8627C2.45568 9.98039 1.19533 8.84314 0.435121 8.01961C-0.14504 7.41177 -0.14504 6.31373 0.435121 5.70588C1.83551 4.19608 4.79633 1.68627 8.73743 1.58824C10.0778 1.54902 11.4182 1.82353 12.7385 2.37255L14.9792 0.176471C15.2192 -0.0588235 15.5993 -0.0588235 15.8194 0.176471C16.0194 0.372549 16.0395 0.666667 15.9194 0.882353ZM8.01723 7C8.01723 6.96078 7.99722 6.90196 7.99722 6.86275C7.99722 6.64706 7.81717 6.47059 7.59711 6.47059C7.37705 6.47059 7.197 6.64706 7.197 6.86275C7.197 7.13726 7.25702 7.39216 7.37705 7.60784L8.01723 7ZM11.4982 3.58824C10.798 3.07843 9.93776 2.76471 8.9975 2.76471C6.69686 2.76471 4.81634 4.60784 4.81634 6.86275C4.81634 7.78431 5.13643 8.62745 5.65657 9.31373L6.65685 8.33333C6.37677 7.90196 6.21673 7.41177 6.21673 6.86275C6.21673 5.35294 7.45707 4.13726 8.9975 4.13726C9.55765 4.13726 10.0578 4.29412 10.4979 4.56863L11.4982 3.58824Z" fill="#B8BDCE"/>
</svg>
