<svg width="20" height="26" xmlns="http://www.w3.org/2000/svg"><g id="Page-1" stroke="none" stroke-width="1" fill="none" fill-rule="evenodd"><g id="Artboard" transform="translate(-1234 -63)"><g id="icon_first-line" transform="translate(1224 56)"><g id="Group-13-Copy-2"><path d="M0 0h40v40H0z" id="Rectangle"/><path d="M30 24.997v-3.996c-9.308 0-15.997 3.152-15.997 3.996" id="Fill-2775" fill="#7E8292"/><path d="M21.434 7.232a.807.807 0 011.132 0l7.2 7.105a.782.782 0 01.173.86.8.8 0 01-.74.487H28l-.001 4.362a40.75 40.75 0 00-3.998.392V18h-3.998v3.25c-1.638.43-2.994.917-4 1.37v-6.936H14.8a.8.8 0 01-.739-.487.782.782 0 01.174-.86zm6.564 13.266V22h-3.997L24 21.497l3.998-.999z" id="Combined-Shape" fill="#7E8292"/></g><path d="M26 31.104c-.487 0-1.058-.311-1.663-.643-.733-.401-1.491-.815-2.337-.815-.846 0-1.604.415-2.337.815-.604.332-1.176.643-1.663.643-.377 0-.686-.184-1.199-.509-.667-.423-1.496-.95-2.801-.95-1.305 0-2.135.527-2.801.95-.513.325-.822.51-1.199.51v1.457c.803 0 1.387-.37 1.952-.729.592-.374 1.15-.729 2.048-.729.897 0 1.456.355 2.048.73.565.358 1.15.729 1.952.729.846 0 1.604-.415 2.337-.816.604-.33 1.175-.643 1.663-.643.487 0 1.058.312 1.663.643.733.401 1.491.816 2.337.816.846 0 1.604-.415 2.338-.816.604-.33 1.174-.643 1.662-.643v-1.458c-.846 0-1.604.415-2.337.815-.604.332-1.175.643-1.663.643zm1.663-4.289c.733-.4 1.49-.815 2.337-.815v1.458c-.488 0-1.058.312-1.662.643-.734.402-1.492.816-2.338.816-.846 0-1.604-.415-2.337-.816-.605-.33-1.176-.643-1.663-.643-.488 0-1.059.312-1.663.643-.733.402-1.49.816-2.337.816-.803 0-1.387-.37-1.952-.73-.592-.374-1.15-.729-2.048-.729-.897 0-1.456.355-2.048.73-.565.358-1.15.729-1.952.729v-1.459c.377 0 .686-.183 1.199-.509C11.865 26.526 12.695 26 14 26c1.305 0 2.134.526 2.801.95.513.325.822.508 1.199.508.487 0 1.059-.311 1.663-.643.733-.4 1.49-.815 2.337-.815.846 0 1.604.415 2.337.815.605.332 1.176.643 1.663.643.488 0 1.059-.311 1.663-.643z" id="Shape" fill="#7E8292"/></g></g></g></svg>