<svg width="20" height="21" xmlns="http://www.w3.org/2000/svg"><g id="Page-1" stroke="none" stroke-width="1" fill="none" fill-rule="evenodd"><g id="Artboard" transform="translate(-631 -42)"><g id="icon_wifi" transform="translate(621 32)"><path d="M0 0h40v40H0z" id="Rectangle"/><g id="Group-211" transform="translate(10 10)" fill="#7E8292" fill-rule="nonzero"><g id="Group"><path d="M9.673 19.318a.838.838 0 01-.834-.84c0-.463.375-.84.834-.84.459 0 .833.377.833.84 0 .462-.374.84-.833.84m0-3.36c-1.379 0-2.5 1.13-2.5 2.52 0 1.389 1.121 2.52 2.5 2.52 1.378 0 2.5-1.131 2.5-2.52 0-1.39-1.122-2.52-2.5-2.52" id="Fill-4341"/><path d="M4.959 13.726l1.18 1.188a4.941 4.941 0 013.533-1.477c1.336 0 2.592.524 3.536 1.477l1.178-1.188a6.597 6.597 0 00-4.714-1.969c-1.78 0-3.454.7-4.713 1.97" id="Fill-4342"/><path d="M7.5 5.228A13.19 13.19 0 00.244 8.974l1.179 1.188A11.55 11.55 0 017.5 6.925V5.228z" id="Fill-4343"/><path d="M15.833 9.224H12.5v-3.36l-1.667 1.68v2.52c0 .464.374.84.834.84h5c.46 0 .833-.376.833-.84v-2.52l-1.667-1.68v3.36z" id="Fill-4344"/><path d="M14.756 1.07a.828.828 0 00-1.178 0l-5 5.04 1.178 1.188 4.41-4.446 4.412 4.446 1.178-1.188-5-5.04z" id="Fill-4345"/><path d="M7.5 8.651a9.913 9.913 0 00-4.898 2.698l1.178 1.188a8.26 8.26 0 013.72-2.16V8.651z" id="Fill-4346"/></g></g></g></g></g></svg>