<svg width="22" height="18" xmlns="http://www.w3.org/2000/svg"><g id="Page-1" stroke="none" stroke-width="1" fill="none" fill-rule="evenodd"><g id="Artboard" transform="translate(-1100 -39)"><g id="icon_sand" transform="translate(1091 27)"><path d="M0 0h40v40H0z" id="Rectangle"/><g id="Group-15" transform="translate(9 12)" fill="#7E8292" fill-rule="nonzero"><path d="M13.997 9C13.997 3.927 9.052.5 1 .5v1c7.562 0 11.997 3.074 11.997 7.5h1z" id="Path"/><path d="M21.314 2.954C20.18 2.04 15.729.5 12.394.5v1c1.771 0 3.683.388 5.56 1.038 1.267.438 2.517 1.021 2.732 1.195l.628-.78z" id="Path" transform="matrix(-1 0 0 1 33.707 0)"/><circle id="Oval-Copy-5" cx="7.5" cy="8.5" r="1"/><circle id="Oval-Copy-20" cx="9.5" cy="7.5" r="1"/><circle id="Oval-Copy-19" cx="7.5" cy="6.5" r="1"/><circle id="Oval-Copy-8" cx="20.5" cy="7.5" r="1"/><circle id="Oval-Copy-22" cx="20.5" cy="5.5" r="1"/><circle id="Oval-Copy-9" cx="18.5" cy="8.5" r="1"/><circle id="Oval-Copy-10" cx="18.5" cy="6.5" r="1"/><circle id="Oval-Copy-21" cx="18.5" cy="4.5" r="1"/><circle id="Oval-Copy-11" cx="16.5" cy="7.5" r="1"/><circle id="Oval-Copy-24" cx="16.5" cy="5.5" r="1"/><g id="Group-5" transform="translate(0 3)"><g id="Group-2"><circle id="Oval-Copy" cx="1.5" cy="4.5" r="1"/><circle id="Oval-Copy-14" cx="1.5" cy="2.5" r="1"/><circle id="Oval-Copy-2" cx="3.5" cy="5.5" r="1"/><circle id="Oval-Copy-15" cx="3.5" cy="3.5" r="1"/><circle id="Oval-Copy-18" cx="3.5" cy="1.5" r="1"/><circle id="Oval-Copy-4" cx="5.5" cy="4.5" r="1"/><circle id="Oval-Copy-17" cx="5.5" cy="2.5" r="1"/></g></g><path d="M17 16.104c-.487 0-1.058-.311-1.663-.643-.733-.401-1.491-.815-2.337-.815-.846 0-1.604.415-2.337.815-.604.332-1.176.643-1.663.643-.377 0-.686-.184-1.199-.509-.667-.423-1.496-.95-2.801-.95-1.305 0-2.135.527-2.801.95-.513.325-.822.51-1.199.51v1.457c.803 0 1.387-.37 1.952-.729.592-.374 1.15-.729 2.048-.729.897 0 1.456.355 2.048.73.565.358 1.15.729 1.952.729.846 0 1.604-.415 2.337-.816.604-.33 1.175-.643 1.663-.643.487 0 1.058.312 1.663.643.733.401 1.491.816 2.337.816.846 0 1.604-.415 2.338-.816.604-.33 1.174-.643 1.662-.643v-1.458c-.846 0-1.604.415-2.337.815-.604.332-1.175.643-1.663.643zm1.663-4.289c.733-.4 1.49-.815 2.337-.815v1.458c-.488 0-1.058.312-1.662.643-.734.401-1.492.816-2.338.816-.846 0-1.604-.415-2.337-.816-.605-.33-1.176-.643-1.663-.643-.488 0-1.059.312-1.663.643-.733.401-1.49.816-2.337.816-.803 0-1.387-.37-1.952-.73-.592-.374-1.15-.729-2.048-.729-.897 0-1.456.355-2.048.73-.565.358-1.15.729-1.952.729v-1.459c.377 0 .686-.183 1.199-.509C2.865 11.526 3.695 11 5 11c1.305 0 2.134.526 2.801.95.513.325.822.508 1.199.508.487 0 1.059-.311 1.663-.643.733-.4 1.49-.815 2.337-.815.846 0 1.604.415 2.337.815.605.332 1.176.643 1.663.643.488 0 1.059-.311 1.663-.643z" id="Shape"/></g></g></g></g></svg>