<svg width="18" height="23" xmlns="http://www.w3.org/2000/svg"><g id="Page-1" stroke="none" stroke-width="1" fill="none" fill-rule="evenodd"><g id="distance-to-airport_icon-" transform="translate(-11 -9)" fill-rule="nonzero"><g id="Group-71" transform="translate(12 10)"><path d="M5.971 12.746v.286l2.087-.004 2.093-.004v-.286c0-.158-.137-.325-.308-.374l-1.08-.406.131-2.777 3.673.637v-.644a.449.449 0 00-.308-.41L8.997 7.015l.079-1.663c.001-.679-.445-1.321-.997-1.32-.553.001-1.002.646-1.003 1.325l.072 1.66-3.27 1.757a.464.464 0 00-.309.417l-.001.644 3.674-.652.12 2.773-1.083.408c-.17.053-.308.224-.308.382z" id="Path" fill="#7E8292" transform="rotate(-1 8.068 8.532)"/><path d="M8 21c5.333-5.85 8-10.226 8-13.125C16 3.525 12.418 0 8 0S0 3.526 0 7.875c0 2.9 2.667 7.274 8 13.125z" id="Combined-Shape" stroke="#7E8292" stroke-width="1.3"/></g></g></g></svg>