<svg width="18" height="23" xmlns="http://www.w3.org/2000/svg"><g id="Page-1" stroke="none" stroke-width="1" fill="none" fill-rule="evenodd"><g id="distance-to-the-beacht_icon-" transform="translate(-11 -9)"><g id="Group-175" transform="translate(12 10)"><g id="Group-165" transform="translate(2 2)" fill="#7E8292"><g id="Group-161"><path d="M9.942 10.251v-1.85c-4.08 0-7.048 1.48-7.048 1.85h7.048z" id="Fill-2775"/><g id="iconfinder_Web_UI-28_1634133" transform="rotate(30 .616 7.955)" fill-rule="nonzero"><path d="M7.29 1.267A3.893 3.893 0 00.74 2.985a3.875 3.875 0 001.05 3.769s.076-2.659 2.836-2.659c0 0-.076-2.828 2.662-2.828zm-5.316.838l1.51 1.517c-.75.286-1.012.473-1.276.735-.264.261-.507.713-.617 1.049-.499-1.103-.493-2.124.383-3.3z" id="Shape"/><path d="M6.41 5.167l-.616-.563-1.145-1.02-.51.524 1.744 1.581.528-.522z" id="Path" transform="rotate(2 5.275 4.636)"/><path d="M2.113 1.188c-.087-.08-.455-.637-.825-.286-.37.351.253.723.334.81l.491-.524z" id="Path"/></g></g></g><path d="M8 21c5.333-5.85 8-10.226 8-13.125C16 3.525 12.418 0 8 0S0 3.526 0 7.875c0 2.9 2.667 7.274 8 13.125z" id="Combined-Shape" stroke="#7E8292" stroke-width="1.3" fill-rule="nonzero"/></g></g></g></svg>