<svg width="52" height="41" viewBox="0 0 52 41" fill="none" xmlns="http://www.w3.org/2000/svg">
<path d="M46.4034 13.9722H41.0133C39.9463 13.9722 38.9031 13.6566 38.0145 13.0642L37.4957 12.7182C36.607 12.1258 35.5638 11.8102 34.4969 11.8102H26.3026C25.5254 11.8102 24.774 12.0891 24.186 12.5961L21.0888 15.7289C21.0888 15.7289 19.491 17.3472 17.8911 19.0401C19.5256 20.6746 21.2942 20.7784 22.8239 20.2563C24.3524 19.733 26.3589 18.2964 26.3589 18.2964H29.1068L33.1412 22.0508" stroke="#2978BE" stroke-width="1.5" stroke-miterlimit="10" stroke-linecap="round" stroke-linejoin="round"/>
<path d="M40.368 29.3318C41.3702 28.3308 42.6155 28.0259 44.2414 28.0259H46.4035" stroke="#2978BE" stroke-width="1.5" stroke-miterlimit="10" stroke-linecap="round" stroke-linejoin="round"/>
<path d="M33.1413 22.051C33.1413 22.051 38.7475 27.9361 40.368 29.3317C41.9895 30.7284 39.7593 34.445 37.1497 32.3975C35.593 31.0668 30.5933 26.2767 30.5933 26.2767" stroke="#2978BE" stroke-width="1.5" stroke-miterlimit="10" stroke-linecap="round" stroke-linejoin="round"/>
<path d="M37.8946 32.8353C37.4179 33.9671 35.4936 36.6243 33.0408 34.7692C31.4841 33.4406 28.2507 30.3792 28.2507 30.3792" stroke="#2978BE" stroke-width="1.5" stroke-miterlimit="10" stroke-linecap="round" stroke-linejoin="round"/>
<path d="M33.9716 35.2947C32.8581 37.5422 30.9058 38.4492 29.1339 37.0547C27.8951 36.0785 26.0098 34.1521 26.0098 34.1521" stroke="#2978BE" stroke-width="1.5" stroke-miterlimit="10" stroke-linecap="round" stroke-linejoin="round"/>
<path d="M29.7155 37.4221C29.0442 39.0869 27.1254 40.1647 25.5708 39.1961C24.6725 38.6372 23.0618 37.4545 23.0618 37.4545" stroke="#2978BE" stroke-width="1.5" stroke-miterlimit="10" stroke-linecap="round" stroke-linejoin="round"/>
<path d="M5.32422 13.9724H10.5013C11.3553 13.9724 12.1899 13.7195 12.9001 13.246L13.9638 12.5368C14.6741 12.0633 15.5086 11.8103 16.3627 11.8103H21.5927C22.0716 11.8103 22.5353 11.9682 22.9137 12.2611L23.8434 12.8914" stroke="#2978BE" stroke-width="1.5" stroke-miterlimit="10" stroke-linecap="round" stroke-linejoin="round"/>
<path d="M13.2093 30.8537C13.9833 30.1035 13.8503 29.0311 13.1033 28.256L13.0925 28.2452C12.3412 27.4669 11.1013 27.4453 10.3251 28.1987L9.22027 29.2571C8.443 30.0105 8.42247 31.2505 9.17379 32.0299C9.93051 32.8147 11.1802 32.8353 11.9628 32.0764" stroke="#2978BE" stroke-width="1.5" stroke-miterlimit="10" stroke-linecap="round" stroke-linejoin="round"/>
<path d="M17.7009 29.2399L17.6901 29.228C16.9398 28.4507 15.6999 28.4291 14.9237 29.1815L11.7109 32.3176C10.9336 33.071 10.9131 34.3099 11.6644 35.0893C12.42 35.8742 13.6708 35.8947 14.4534 35.1369L17.6544 32.0127C18.4284 31.2625 18.4489 30.015 17.7009 29.2399V29.2399Z" stroke="#2978BE" stroke-width="1.5" stroke-miterlimit="10" stroke-linecap="round" stroke-linejoin="round"/>
<path d="M14.9886 34.6094C14.2059 35.3564 14.1756 36.5964 14.9205 37.3812C15.6707 38.1714 16.9204 38.2028 17.7095 37.4504L20.6434 34.5824C21.4229 33.8386 21.4542 32.5911 20.7126 31.8095L20.7018 31.7987C19.957 31.015 18.717 30.9836 17.9355 31.7306" stroke="#2978BE" stroke-width="1.5" stroke-miterlimit="10" stroke-linecap="round" stroke-linejoin="round"/>
<path d="M19.0933 36.0936C18.3204 36.8514 18.3063 38.0925 19.0619 38.8665C19.823 39.647 21.0726 39.661 21.8521 38.8978L22.5969 38.1757C23.3655 37.4211 23.3796 36.1747 22.6283 35.4029L22.6174 35.3909C21.8618 34.618 20.6219 34.6029 19.85 35.3607" stroke="#2978BE" stroke-width="1.5" stroke-miterlimit="10" stroke-linecap="round" stroke-linejoin="round"/>
<path d="M37.7444 23.0369C35.1726 23.5666 34.5175 22.9115 33.1414 22.0509" stroke="#2978BE" stroke-width="1.5" stroke-miterlimit="10" stroke-linecap="round" stroke-linejoin="round"/>
<path d="M9.13594 29.3447C8.45381 28.6939 7.11333 28.0713 5.32422 28.0713" stroke="#2978BE" stroke-width="1.5" stroke-miterlimit="10" stroke-linecap="round" stroke-linejoin="round"/>
<path d="M1 11.8104H5.32413V30.188H1" stroke="#2978BE" stroke-width="1.5" stroke-miterlimit="10" stroke-linecap="round" stroke-linejoin="round"/>
<path d="M50.7275 11.8104H46.4033V30.188H50.7275" stroke="#2978BE" stroke-width="1.5" stroke-miterlimit="10" stroke-linecap="round" stroke-linejoin="round"/>
<path d="M24.7827 0.999844V5.32397" stroke="#2978BE" stroke-width="1.5" stroke-miterlimit="10" stroke-linecap="round" stroke-linejoin="round"/>
<path d="M31.269 3.16217L29.1069 6.40527" stroke="#2978BE" stroke-width="1.5" stroke-miterlimit="10" stroke-linecap="round" stroke-linejoin="round"/>
<path d="M18.2965 3.16217L20.4586 6.40527" stroke="#2978BE" stroke-width="1.5" stroke-miterlimit="10" stroke-linecap="round" stroke-linejoin="round"/>
</svg>
