<svg width="12" height="9" viewBox="0 0 12 9" fill="none" xmlns="http://www.w3.org/2000/svg">
<path d="M4.28553 9C4.05822 8.99995 3.84023 8.9051 3.67952 8.7363L0.250892 5.13632C0.0901684 4.96745 -8.03205e-05 4.73845 5.36389e-08 4.49971C8.04278e-05 4.26096 0.0904831 4.03203 0.251321 3.86328C0.412158 3.69452 0.630256 3.59976 0.857634 3.59985C1.08501 3.59993 1.30305 3.69485 1.46377 3.86373L4.28553 6.82651L10.5359 0.263749C10.6968 0.0948737 10.9149 -3.55879e-09 11.1424 0C11.3698 3.55879e-09 11.588 0.0948737 11.7488 0.263749C11.9096 0.432625 12 0.661669 12 0.900495C12 1.13932 11.9096 1.36837 11.7488 1.53724L4.89154 8.7372C4.73069 8.90566 4.51272 9.00019 4.28553 9Z" fill="white"/>
</svg>
