<svg width="18" height="18" viewBox="0 0 18 18" fill="none" xmlns="http://www.w3.org/2000/svg">
<path d="M6.66 12.54C7.06 12.94 7.68 12.94 8.08 12.54L10.2 10.42L10.9 9.72C11.3 9.32 11.3 8.7 10.9 8.3L10.2 7.6L8.06 5.46C7.66 5.06 7.04 5.06 6.64 5.46C6.24 5.86 6.24 6.48 6.64 6.88L7.76 8H1C0.44 8 0 8.44 0 9C0 9.56 0.44 10 1 10H7.78L6.66 11.12C6.26 11.52 6.26 12.14 6.66 12.54Z" fill="#8B98A7"/>
<path d="M2 0.8V5.2C2 5.64 2.36 6 2.8 6H3.2C3.64 6 4 5.64 4 5.2V2.4C4 2.18 4.18 2 4.4 2H15.6C15.82 2 16 2.18 16 2.4V15.6C16 15.82 15.82 16 15.6 16H4.4C4.18 16 4 15.82 4 15.6V12.8C4 12.36 3.64 12 3.2 12H2.8C2.36 12 2 12.36 2 12.8V17.2C2 17.64 2.36 18 2.8 18H17.2C17.64 18 18 17.64 18 17.2V0.8C18 0.36 17.64 0 17.2 0H2.8C2.36 0 2 0.36 2 0.8Z" fill="#8B98A7"/>
</svg>
