<?xml version="1.0" encoding="utf-8"?>
<!-- Generator: Adobe Illustrator 22.0.1, SVG Export Plug-In . SVG Version: 6.00 Build 0)  -->
<svg version="1.1" id="Слой_1" xmlns="http://www.w3.org/2000/svg" xmlns:xlink="http://www.w3.org/1999/xlink" x="0px" y="0px"
	 viewBox="0 0 270.5 88" style="enable-background:new 0 0 270.5 88;" xml:space="preserve">
<style type="text/css">
	.st0{opacity:0.5;}
	.st1{fill:#FFFFFF;}
</style>
<g class="st0">
	<g>
		<path class="st1" d="M1.8,68.8c0,0-3.2-7.7-1.1-13.8c2.5-6.6,14.9-8.3,23.9-10.4c9-2.2,16-3.4,19.6-6.1c3.4-2.3,4.8-4.8,4.8-4.8
			s2.2,6.6-0.4,12.9s-8.6,7.5-13.8,8.8s-20.5,4.8-25.1,6.1C3.1,63,1.8,68.8,1.8,68.8z"/>
		<path class="st1" d="M4.7,79.7c0,0-2.3-5.7-0.4-11c2-5.4,9.3-6.1,13.6-7s15.8-3.4,18.9-4.3c3.1-0.9,4.5-1.3,4.5-1.3
			s1.4,6.3-2.2,9.5c-3.6,3.2-6.6,3.6-10.6,4.3s-14.2,2.7-17.8,3.8C7.2,74.9,5.2,77.8,4.7,79.7z"/>
		<path class="st1" d="M7.4,88c0,0-2.3-4-0.9-7.9c1.6-4,4-4.3,8.6-5c4.7-0.7,19.4-4.1,19.4-4.1s1.3,4-0.7,7.2s-6.8,3.6-10.2,4
			c-3.2,0.4-10.6,1.3-12.9,2.3C8.3,85.5,7.7,86.7,7.4,88z"/>
		<path class="st1" d="M36.1,6.6c-0.4-0.4-0.7-0.7-1.1-1.1c-2.9-2.7-6.3-4.5-10.2-5.2c-0.9-0.2-2-0.4-3.1-0.4c-0.4,0-0.5,0-0.9,0
			c-0.4,0-0.5,0-0.9,0c-1.1,0-2,0.2-3.1,0.4C13.3,1.1,9.7,2.9,6.8,5.6C6.5,5.9,6.1,6.3,5.8,6.6c-3.4,3.8-5.4,8.6-5.4,14
			s2.2,10.4,5.6,14C6.3,35,6.7,35.4,7,35.7c2.9,2.7,6.3,4.5,10.2,5.2c0.9,0.2,2,0.4,3.1,0.4c0.4,0,0.5,0,0.9,0c0.4,0,0.5,0,0.9,0
			c1.1,0,2-0.2,3.1-0.4c4-0.7,7.4-2.5,10.2-5.2c0.4-0.4,0.7-0.7,1.1-1.1c3.4-3.8,5.6-8.6,5.6-14S39.5,10.4,36.1,6.6z M39,19.9h-6.5
			c-0.2-3.2-0.9-6.1-2-8.8c1.4-0.7,2.7-1.6,3.8-2.5C37,11.5,38.8,15.4,39,19.9z M21.8,2.9c2.7,2,5,4.5,6.6,7.5
			c-2,0.9-4.3,1.4-6.6,1.4C21.8,11.9,21.8,2.9,21.8,2.9z M20.1,2.9v9c-2.3,0-4.5-0.5-6.6-1.4C15.1,7.4,17.4,4.8,20.1,2.9z
			 M20.1,13.5v6.5H11c0.2-2.9,0.7-5.7,2-8.3C15.1,12.8,17.6,13.3,20.1,13.5z M20.1,21.6V28c-2.5,0.2-5,0.7-7.4,1.6
			c-1.1-2.5-1.8-5.2-2-8.1H20.1z M20.1,29.6v9c-2.7-2-5-4.5-6.6-7.5C15.6,30.2,17.8,29.6,20.1,29.6z M21.8,38.6v-9
			c2.3,0.2,4.7,0.5,6.6,1.4C26.8,33.9,24.4,36.6,21.8,38.6z M21.8,28v-6.5h9.2c-0.2,2.9-0.7,5.7-2,8.1C26.8,28.7,24.4,28,21.8,28z
			 M21.8,19.9v-6.5c2.5-0.2,5-0.7,7.4-1.6c1.1,2.5,1.8,5.2,2,8.1H21.8z M33.2,7.4c-1.1,0.9-2.2,1.6-3.4,2.3
			c-1.4-2.5-3.2-4.8-5.4-6.6C27.7,3.6,30.7,5.2,33.2,7.4z M17.6,3.1c-2.2,1.8-4,4.1-5.4,6.6C11,9,9.9,8.3,8.8,7.4
			C11.2,5.2,14.2,3.6,17.6,3.1z M7.7,8.4c1.1,1.1,2.3,1.8,3.8,2.5c-1.3,2.7-2,5.7-2,8.8H2.9C3.1,15.4,4.9,11.5,7.7,8.4z M2.9,21.6
			h6.5c0.2,3.2,0.9,6.1,2,8.8c-1.4,0.7-2.7,1.6-3.8,2.5C4.9,29.8,3.1,25.9,2.9,21.6z M8.8,33.9c1.1-0.9,2.2-1.6,3.4-2.3
			c1.4,2.5,3.2,4.8,5.4,6.6C14.2,37.7,11.2,36.3,8.8,33.9z M24.4,38.4c2.2-1.8,4-4.1,5.4-6.6c1.3,0.7,2.3,1.4,3.4,2.3
			C30.7,36.3,27.7,37.7,24.4,38.4z M34.3,32.9c-1.1-1.1-2.3-1.8-3.8-2.5c1.3-2.7,2-5.7,2-8.8H39C38.8,25.9,37,29.8,34.3,32.9z"/>
	</g>
	<g>
		<path class="st1" d="M67.4,22.1l7.7-17.8H78l7.7,17.8h-3.2l-1.8-4.3h-8.3l-1.8,4.3C70.6,22.1,67.4,22.1,67.4,22.1z M73.5,15.1h6.1
			l-3.1-7L73.5,15.1z"/>
		<path class="st1" d="M87.7,15.4L87.7,15.4c0-1.3,0.4-2.5,0.9-3.6c0.5-1.1,1.4-2,2.5-2.5c1.1-0.7,2.2-0.9,3.6-0.9
			c1.3,0,2.2,0.2,3.1,0.5c0.9,0.4,1.6,0.9,2.3,1.6l-2,2c-0.5-0.5-1.1-0.9-1.6-1.3C95.9,11,95.4,11,94.7,11c-1.1,0-2,0.4-2.7,1.3
			c-0.7,0.9-1.3,2-1.3,3.2l0,0c0,1.3,0.4,2.2,1.1,3.1c0.7,0.9,1.6,1.3,2.9,1.3c0.7,0,1.3-0.2,1.8-0.4c0.5-0.4,1.1-0.7,1.6-1.3
			l1.8,1.8c-0.7,0.9-1.4,1.4-2.3,1.8c-0.9,0.4-1.8,0.7-3.1,0.7c-1.3,0-2.5-0.4-3.6-0.9c-1.1-0.5-1.8-1.4-2.5-2.5
			C88,18,87.7,16.7,87.7,15.4z"/>
		<path class="st1" d="M102,15.4L102,15.4c0-1.3,0.4-2.5,0.9-3.6c0.5-1.1,1.4-2,2.5-2.5c1.1-0.7,2.2-0.9,3.6-0.9
			c1.3,0,2.2,0.2,3.1,0.5c0.9,0.4,1.6,0.9,2.3,1.6l-2.2,2.2c-0.5-0.5-1.1-0.9-1.6-1.3c-0.5-0.4-1.1-0.4-1.8-0.4
			c-1.1,0-2,0.4-2.7,1.3c-0.7,0.9-1.1,1.8-1.1,3.1l0,0c0,1.3,0.4,2.2,1.1,3.1c0.7,0.9,1.6,1.3,2.9,1.3c0.7,0,1.3-0.2,1.8-0.4
			c0.5-0.4,1.1-0.7,1.6-1.3l1.8,1.8c-0.7,0.9-1.4,1.4-2.3,1.8c-0.9,0.4-1.8,0.7-3.1,0.7c-1.3,0-2.5-0.4-3.6-0.9
			c-1.1-0.5-1.8-1.4-2.5-2.5C102.2,18,102,16.7,102,15.4z"/>
		<path class="st1" d="M116.2,15.4c0-1.3,0.4-2.3,0.9-3.4s1.4-2,2.5-2.5c1.1-0.5,2.3-0.9,3.6-0.9c1.3,0,2.5,0.4,3.6,0.9
			c1.1,0.5,2,1.4,2.5,2.5c0.5,1.1,0.9,2.2,0.9,3.4c0,0.9-0.2,1.8-0.5,2.7c-0.4,0.9-0.9,1.6-1.4,2.2c-0.5,0.7-1.4,1.1-2.3,1.4
			c-0.9,0.4-1.8,0.5-2.9,0.5c-1.3,0-2.5-0.4-3.6-0.9c-1.1-0.5-2-1.4-2.5-2.5C116.6,18,116.2,16.7,116.2,15.4z M119.3,15.4
			c0,1.3,0.4,2.2,1.1,3.1c0.7,0.9,1.8,1.3,2.9,1.3c1.3,0,2.2-0.4,2.9-1.3c0.7-0.9,1.1-1.8,1.1-3.1s-0.4-2.2-1.1-3.1
			c-0.7-0.9-1.8-1.3-2.9-1.3c-1.3,0-2.2,0.4-2.9,1.3C119.6,13.3,119.3,14.2,119.3,15.4z"/>
		<path class="st1" d="M133.6,22.1V8.8h3.1v10.6h5.7V8.8h3.1v10.6h2.2l-0.4,5.7h-2.9v-3.2h-10.8V22.1z"/>
		<path class="st1" d="M149.8,22.1V8.8h3.1v9c2.3-3.2,4.3-6.3,6.3-9h2.9v13.3H159v-8.8l-6.3,8.8H149.8z"/>
		<path class="st1" d="M164.9,18.1c0-1.4,0.5-2.5,1.4-3.2c1.1-0.7,2.3-1.1,4-1.1c1.3,0,2.5,0.2,3.6,0.5v-0.2c0-0.9-0.4-1.6-0.9-2.2
			c-0.5-0.5-1.4-0.7-2.5-0.7c-1.3,0-2.5,0.4-3.8,0.9l-0.5-2.5c0.9-0.4,1.6-0.7,2.3-0.9c0.7-0.2,1.6-0.4,2.7-0.4c2,0,3.4,0.5,4.3,1.4
			c0.9,0.9,1.4,2.3,1.4,4.1v7.9h-3.1v-1.6c-0.9,1.4-2.3,2.2-4.1,2.2c-0.9,0-1.6-0.2-2.3-0.5c-0.7-0.4-1.3-0.7-1.8-1.4
			C165.1,19.9,164.9,19,164.9,18.1z M167.9,18.1c0,0.5,0.2,1.1,0.7,1.4c0.5,0.4,1.1,0.5,1.8,0.5c1.1,0,1.8-0.2,2.5-0.7
			s1.1-1.3,1.1-2v-0.9c-0.9-0.4-2-0.5-3.1-0.5c-0.9,0-1.6,0.2-2.2,0.5C168.3,16.9,167.9,17.4,167.9,18.1z"/>
		<path class="st1" d="M180.7,22.1V8.8h3.1v10.6h5.7V8.8h3.1v10.6h2.2l-0.4,5.7h-2.9v-3.2h-10.8V22.1z"/>
		<path class="st1" d="M196.9,22.1V8.8h3.1v9c2.3-3.2,4.3-6.3,6.3-9h2.9v13.3H206v-8.8l-6.3,8.8H196.9z"/>
		<path class="st1" d="M211.6,22.1l3.8-5c-0.9-0.4-1.6-0.7-2.3-1.4c-0.5-0.7-0.9-1.4-0.9-2.5c0-1.3,0.5-2.3,1.4-3.2
			c0.9-0.7,2.2-1.3,3.8-1.3h6.6v13.3h-3.1v-4.5h-2.7l-3.2,4.5h-3.4V22.1z M215.4,13.3c0,0.5,0.2,1.1,0.7,1.4c0.5,0.4,1.1,0.5,2,0.5
			h3.2v-4H218c-0.7,0-1.4,0.2-2,0.5C215.5,12.2,215.4,12.8,215.4,13.3z"/>
		<path class="st1" d="M67.5,38.3v-2.9h14.4v2.9h-5.6V53h-3.1V38.3H67.5z"/>
		<path class="st1" d="M83.7,39.7h3.2l3.8,9.9l3.4-9.9h3.2l-5.2,13.6c-0.5,1.4-1.1,2.3-1.8,2.9c-0.7,0.5-1.4,0.9-2.5,0.9
			c-1.1,0-2.2-0.4-3.2-0.9l1.1-2.3c0.5,0.4,1.3,0.5,1.8,0.5c0.4,0,0.7-0.2,1.1-0.4c0.4-0.2,0.5-0.7,0.7-1.3L83.7,39.7z"/>
		<path class="st1" d="M99.9,57.1V39.7h3.1v2.2c1.3-1.6,2.7-2.5,4.5-2.5c0.7,0,1.6,0.2,2.3,0.5c0.7,0.4,1.4,0.7,2,1.3
			c0.5,0.5,1.1,1.3,1.4,2.2c0.4,0.9,0.5,1.8,0.5,2.9c0,1.1-0.2,2-0.5,2.9c-0.4,0.9-0.9,1.6-1.4,2.2c-0.5,0.5-1.3,1.1-2,1.3
			c-0.7,0.4-1.4,0.5-2.3,0.5c-1.8,0-3.4-0.7-4.5-2.3v6.1h-3.1V57.1z M102.9,46.3c0,1.3,0.4,2.3,1.1,3.1c0.7,0.7,1.6,1.3,2.7,1.3
			c1.1,0,2-0.4,2.7-1.3c0.7-0.7,1.1-1.8,1.1-3.1c0-1.3-0.4-2.3-1.1-3.1c-0.7-0.7-1.6-1.3-2.7-1.3c-1.1,0-2,0.4-2.7,1.3
			C103.3,44.2,102.9,45.1,102.9,46.3z"/>
		<path class="st1" d="M116,46.3c0-1.3,0.4-2.3,0.9-3.4c0.5-1.1,1.4-2,2.5-2.5c1.1-0.5,2.3-0.9,3.6-0.9c1.3,0,2.5,0.4,3.6,0.9
			c1.1,0.5,2,1.4,2.5,2.5c0.5,1.1,0.9,2.2,0.9,3.4c0,0.9-0.2,1.8-0.5,2.7c-0.4,0.9-0.9,1.6-1.4,2.2c-0.5,0.7-1.4,1.1-2.3,1.4
			c-0.9,0.4-1.8,0.5-2.9,0.5c-1.3,0-2.5-0.4-3.6-0.9c-1.1-0.5-2-1.4-2.5-2.5C116.4,48.8,116,47.6,116,46.3z M119.1,46.3
			c0,1.3,0.4,2.2,1.1,3.1c0.7,0.9,1.8,1.3,2.9,1.3c1.3,0,2.2-0.4,2.9-1.3c0.7-0.9,1.1-1.8,1.1-3.1c0-1.3-0.4-2.2-1.1-3.1
			c-0.7-0.9-1.8-1.3-2.9-1.3c-1.3,0-2.2,0.4-2.9,1.3S119.1,45.3,119.1,46.3z"/>
		<path class="st1" d="M133.5,53V39.7h11.9V53h-3.1V42.4h-5.7V53H133.5z"/>
		<path class="st1" d="M148.4,46.3c0-1.3,0.4-2.3,0.9-3.4c0.5-1.1,1.3-2,2.3-2.5c1.1-0.5,2.2-0.9,3.4-0.9c0.9,0,1.6,0.2,2.3,0.4
			s1.3,0.5,1.8,1.1c0.5,0.4,0.9,0.9,1.3,1.6c0.4,0.5,0.5,1.3,0.7,2c0.2,0.7,0.2,1.4,0.2,2.2c0,0.4,0,0.7,0,0.9h-9.9
			c0.2,1.1,0.5,2,1.3,2.5c0.7,0.5,1.6,0.9,2.5,0.9c0.7,0,1.4-0.2,2-0.4c0.5-0.2,1.1-0.7,1.6-1.3l1.8,1.6c-1.4,1.6-3.2,2.5-5.4,2.5
			c-1.3,0-2.5-0.4-3.4-0.9c-1.1-0.5-1.8-1.4-2.5-2.5C148.7,49,148.4,47.8,148.4,46.3z M151.4,45.4h6.8c-0.2-1.1-0.5-1.8-1.1-2.5
			c-0.5-0.7-1.4-0.9-2.3-0.9c-0.9,0-1.6,0.4-2.3,0.9C152,43.6,151.6,44.4,151.4,45.4z"/>
		<path class="st1" d="M164.3,57.1V39.7h3.1v2.2c1.3-1.6,2.7-2.5,4.5-2.5c0.7,0,1.6,0.2,2.3,0.5c0.7,0.4,1.4,0.7,2,1.3
			s1.1,1.3,1.4,2.2c0.4,0.9,0.5,1.8,0.5,2.9c0,1.1-0.2,2-0.5,2.9c-0.4,0.9-0.9,1.6-1.4,2.2c-0.5,0.5-1.3,1.1-2,1.3
			c-0.7,0.4-1.4,0.5-2.3,0.5c-1.8,0-3.4-0.7-4.5-2.3v6.1h-3.1V57.1z M167.2,46.3c0,1.3,0.4,2.3,1.1,3.1c0.7,0.7,1.6,1.3,2.7,1.3
			c1.1,0,2-0.4,2.7-1.3c0.7-0.7,1.1-1.8,1.1-3.1c0-1.3-0.4-2.3-1.1-3.1S172.1,42,171,42c-1.1,0-2,0.4-2.7,1.3
			C167.8,44.2,167.2,45.1,167.2,46.3z"/>
		<path class="st1" d="M180.3,49.2c0-1.4,0.5-2.5,1.4-3.2c1.1-0.7,2.3-1.1,4-1.1c1.3,0,2.5,0.2,3.6,0.5v-0.2c0-0.9-0.4-1.6-0.9-2.2
			c-0.5-0.5-1.4-0.7-2.5-0.7c-1.3,0-2.5,0.4-3.8,0.9l-0.9-2.5c0.9-0.4,1.6-0.7,2.3-0.9s1.6-0.4,2.7-0.4c2,0,3.4,0.5,4.3,1.4
			s1.4,2.3,1.4,4.1V53H189v-1.6c-1.1,1.3-2.5,2-4.3,2c-0.9,0-1.6-0.2-2.3-0.5c-0.7-0.4-1.3-0.7-1.8-1.4
			C180.5,50.8,180.3,50.1,180.3,49.2z M183.4,49c0,0.5,0.2,1.1,0.7,1.4s1.1,0.5,1.8,0.5c1.1,0,1.8-0.2,2.5-0.7
			c0.7-0.5,1.1-1.3,1.1-2v-0.7c-0.9-0.4-2-0.5-3.1-0.5c-0.9,0-1.6,0.2-2.2,0.5C183.6,47.8,183.4,48.3,183.4,49z"/>
		<path class="st1" d="M194.5,42.4v-2.7h11.7v2.7h-4.3V53h-3.1V42.4H194.5z"/>
		<path class="st1" d="M208,46.3c0-1.3,0.4-2.3,0.9-3.4c0.5-1.1,1.4-2,2.5-2.5c1.1-0.5,2.3-0.9,3.6-0.9s2.5,0.4,3.6,0.9
			c1.1,0.5,2,1.4,2.5,2.5c0.5,1.1,0.9,2.2,0.9,3.4c0,0.9-0.2,1.8-0.5,2.7c-0.4,0.9-0.9,1.6-1.4,2.2c-0.5,0.7-1.4,1.1-2.3,1.4
			c-0.9,0.4-1.8,0.5-2.9,0.5c-1.3,0-2.5-0.4-3.6-0.9c-1.1-0.5-2-1.4-2.5-2.5C208.2,48.8,208,47.6,208,46.3z M211,46.3
			c0,1.3,0.4,2.2,1.1,3.1c0.7,0.9,1.8,1.3,2.9,1.3c1.3,0,2.2-0.4,2.9-1.3c0.7-0.9,1.1-1.8,1.1-3.1c0-1.3-0.4-2.2-1.1-3.1
			c-0.7-0.9-1.8-1.3-2.9-1.3c-1.3,0-2.2,0.4-2.9,1.3S211,45.3,211,46.3z"/>
		<path class="st1" d="M225.2,57.1V39.7h3.1v2.2c1.3-1.6,2.7-2.5,4.5-2.5c0.7,0,1.6,0.2,2.3,0.5c0.7,0.4,1.4,0.7,2,1.3
			c0.5,0.5,1.1,1.3,1.4,2.2c0.4,0.9,0.5,1.8,0.5,2.9c0,1.1-0.2,2-0.5,2.9c-0.4,0.9-0.9,1.6-1.4,2.2c-0.5,0.5-1.3,1.1-2,1.3
			c-0.7,0.4-1.4,0.5-2.3,0.5c-1.8,0-3.4-0.7-4.5-2.3v6.1h-3.1V57.1z M228.3,46.3c0,1.3,0.4,2.3,1.1,3.1c0.7,0.7,1.6,1.3,2.7,1.3
			s2-0.4,2.7-1.3c0.7-0.7,1.1-1.8,1.1-3.1c0-1.3-0.4-2.3-1.1-3.1c-0.7-0.7-1.6-1.3-2.7-1.3s-2,0.4-2.7,1.3S228.3,45.1,228.3,46.3z"
			/>
		<path class="st1" d="M241.4,46.3c0-1.3,0.4-2.3,0.9-3.4c0.5-1.1,1.4-2,2.5-2.5c1.1-0.5,2.3-0.9,3.6-0.9s2.5,0.4,3.6,0.9
			c1.1,0.5,2,1.4,2.5,2.5c0.5,1.1,0.9,2.2,0.9,3.4c0,0.9-0.2,1.8-0.5,2.7c-0.4,0.9-0.9,1.6-1.4,2.2c-0.5,0.7-1.4,1.1-2.3,1.4
			c-0.9,0.4-1.8,0.5-2.9,0.5c-1.3,0-2.5-0.4-3.6-0.9c-1.1-0.5-2-1.4-2.5-2.5C241.8,48.8,241.4,47.6,241.4,46.3z M244.4,46.3
			c0,1.3,0.4,2.2,1.1,3.1c0.7,0.9,1.8,1.3,2.9,1.3c1.3,0,2.2-0.4,2.9-1.3c0.7-0.9,1.1-1.8,1.1-3.1c0-1.3-0.4-2.2-1.1-3.1
			c-0.7-0.9-1.8-1.3-2.9-1.3c-1.3,0-2.2,0.4-2.9,1.3S244.4,45.3,244.4,46.3z"/>
		<path class="st1" d="M258.6,53V39.7h6.8c1.3,0,2.3,0.4,3.2,0.9c0.7,0.5,1.3,1.4,1.3,2.3c0,1.4-0.7,2.5-2.2,3.1
			c1.8,0.5,2.7,1.6,2.7,3.2c0,1.1-0.4,2-1.3,2.7c-0.9,0.7-2.2,0.9-3.6,0.9h-7V53z M261.7,45.3h3.1c0.5,0,1.1-0.2,1.4-0.5
			c0.4-0.4,0.5-0.7,0.5-1.3s-0.2-0.9-0.5-1.1c-0.4-0.4-0.9-0.4-1.4-0.4h-3.2v3.2H261.7z M261.7,50.6h3.4c0.7,0,1.3-0.2,1.6-0.5
			c0.4-0.4,0.5-0.7,0.5-1.3c0-0.5-0.2-0.9-0.5-1.3c-0.4-0.4-1.1-0.4-1.8-0.4h-3.2L261.7,50.6L261.7,50.6z"/>
		<path class="st1" d="M68.8,84V66.4h7c2,0,3.8,0.5,4.8,1.6c1.3,1.1,1.8,2.5,1.8,4.3c0,1.3-0.4,2.3-0.9,3.4c-0.7,0.9-1.4,1.6-2.5,2
			c-1.1,0.4-2.2,0.7-3.6,0.7h-3.6V84C71.9,84,68.8,84,68.8,84z M72,75.4h3.6c1.1,0,2.2-0.4,2.7-0.9c0.7-0.5,1.1-1.4,1.1-2.3
			c0-1.1-0.4-1.8-1.1-2.3c-0.7-0.5-1.6-0.9-2.9-0.9h-3.6v6.5H72z"/>
		<path class="st1" d="M84.6,77.4c0-1.3,0.4-2.3,0.9-3.4c0.5-1.1,1.4-2,2.5-2.5c1.1-0.5,2.3-0.9,3.6-0.9c1.3,0,2.5,0.4,3.6,0.9
			c1.1,0.5,2,1.4,2.5,2.5c0.5,1.1,0.9,2.2,0.9,3.4c0,0.9-0.2,1.8-0.5,2.7c-0.4,0.9-0.9,1.6-1.4,2.2c-0.5,0.7-1.4,1.1-2.3,1.4
			c-0.9,0.4-1.8,0.5-2.9,0.5c-1.3,0-2.5-0.4-3.6-0.9c-1.1-0.5-2-1.4-2.5-2.5C85,79.7,84.6,78.7,84.6,77.4z M87.7,77.4
			c0,1.3,0.4,2.2,1.1,3.1c0.7,0.9,1.8,1.3,2.9,1.3c1.3,0,2.2-0.4,2.9-1.3c0.7-0.9,1.1-1.8,1.1-3.1c0-1.3-0.4-2.2-1.1-3.1
			c-0.7-0.9-1.8-1.3-2.9-1.3c-1.3,0-2.2,0.4-2.9,1.3C88,75.1,87.7,76.1,87.7,77.4z"/>
		<path class="st1" d="M101.3,77.4L101.3,77.4c0-1.3,0.4-2.5,0.9-3.6c0.5-1.1,1.4-2,2.5-2.5c1.1-0.7,2.2-0.9,3.6-0.9
			c1.3,0,2.2,0.2,3.1,0.5c0.9,0.4,1.6,0.9,2.3,1.6l-2,2c-0.5-0.5-1.1-0.9-1.6-1.3c-0.5-0.4-1.1-0.4-1.8-0.4c-1.1,0-2,0.4-2.7,1.3
			c-0.7,0.9-1.1,1.8-1.1,3.1l0,0c0,1.3,0.4,2.2,1.1,3.1c0.7,0.9,1.6,1.3,2.9,1.3c0.7,0,1.3-0.2,1.8-0.4c0.5-0.4,1.1-0.7,1.6-1.3
			l1.8,1.8c-0.7,0.9-1.4,1.4-2.3,1.8c-0.9,0.4-1.8,0.7-3.1,0.7c-1.3,0-2.5-0.4-3.6-0.9c-1.1-0.5-1.8-1.4-2.5-2.5
			C101.5,79.7,101.3,78.7,101.3,77.4z"/>
		<path class="st1" d="M115.5,77.4L115.5,77.4c0-1.3,0.4-2.5,0.9-3.6c0.5-1.1,1.4-2,2.5-2.5c1.1-0.5,2.2-0.9,3.6-0.9
			c1.3,0,2.2,0.2,3.1,0.5s1.6,0.9,2.3,1.6l-2,2c-0.5-0.5-1.1-0.9-1.6-1.3s-1.1-0.4-1.8-0.4c-1.1,0-2,0.4-2.7,1.3
			c-0.7,0.9-1.1,1.8-1.1,3.1l0,0c0,1.3,0.4,2.2,1.1,3.1c0.7,0.9,1.6,1.3,2.9,1.3c0.7,0,1.3-0.2,1.8-0.4c0.5-0.4,1.1-0.7,1.6-1.3
			l1.8,1.8c-0.7,0.9-1.4,1.4-2.3,1.8c-0.9,0.4-1.8,0.7-3.1,0.7s-2.5-0.4-3.6-0.9c-1.1-0.5-1.8-1.4-2.5-2.5
			C115.9,79.7,115.5,78.7,115.5,77.4z"/>
		<path class="st1" d="M130.6,84V70.8h3.1v9c2.3-3.2,4.3-6.3,6.3-9h2.9V84h-3.1v-8.8l-6.3,8.8H130.6z"/>
		<path class="st1" d="M146.6,84V70.8h3.1v9c2.3-3.2,4.3-6.3,6.3-9h2.9V84h-3.1v-8.8l-6.3,8.8H146.6z"/>
	</g>
</g>
</svg>
