<?xml version="1.0" encoding="utf-8"?>
<!-- Generator: Adobe Illustrator 22.0.1, SVG Export Plug-In . SVG Version: 6.00 Build 0)  -->
<svg version="1.1" id="Слой_1" xmlns="http://www.w3.org/2000/svg" xmlns:xlink="http://www.w3.org/1999/xlink" x="0px" y="0px"
	 viewBox="0 0 269.5 88" style="enable-background:new 0 0 269.5 88;" xml:space="preserve">
<style type="text/css">
	.st0{opacity:0.5;}
	.st1{fill:#FFFFFF;}
</style>
<g class="st0">
	<g>
		<path class="st1" d="M173.5,62.6c-6.3-9.4-15.4-14.7-24.8-14.7h-24.4l17.2,25.4c6.3,9.2,15.3,14.7,24.8,14.7h24.4L173.5,62.6z"/>
		<path class="st1" d="M242.3,8c-10.6,0-22.1,8.2-31.7,22.5l-26.8,39.9L195.8,88h3.3c10.6,0,22.1-8.2,31.7-22.5L269.5,8
			C269.5,8,242.3,8,242.3,8z"/>
		<path class="st1" d="M18.6,28h-4.1c-0.8,0-1.4,0.2-2,0.6c-0.4,0.4-0.8,1-0.8,2c0,0.6,0.2,1,0.4,1.4c0.4,0.2,1,0.4,1.6,0.4
			c0.8,0,1.6-0.2,2.3-0.4c1-0.4,1.8-0.6,2.3-1V28H18.6z M19.9,36.2c-0.8,1-1.8,1.8-2.7,2.3s-2,1-3.1,1.4c-1,0.4-2,0.6-2.9,0.6
			c-1,0.2-1.6,0.2-2.2,0.2c-2,0-3.5-0.2-4.7-0.8c-1.2-0.6-2.2-1.4-2.7-2.2c-0.6-1-1-2-1.2-3.1S0,32.5,0,31.3c0-2,0.2-3.7,0.8-5.1
			c0.6-1.4,1.6-2.3,2.5-3.1c1.2-0.8,2.3-1.4,3.9-1.8c1.6-0.4,3.1-0.6,4.9-0.6h6.6v-0.6c0-0.4,0-0.8-0.2-1.2c0,0-0.2-0.4-0.6-0.6
			c-0.4-0.2-0.8-0.4-1.4-0.4c-0.6-0.2-1.6-0.2-2.5-0.2c-0.4,0-1,0-1.6,0s-1.4,0-2.2,0.2c-0.8,0-1.6,0.2-2.3,0.2
			c-0.8,0-1.4,0.2-2,0.2c-0.4,0-0.8,0.2-1.2,0.2s-0.6,0-0.8,0c-0.2,0-0.4-0.2-0.4-0.4c-0.2-0.4-0.4-0.8-0.4-1.2l-0.8-3.9
			c-0.2-0.6,0-1.2,0.2-1.6c0.2-0.4,1-1,2.2-1.4C5.7,10,6.5,9.6,7.4,9.4c1-0.2,2-0.4,2.9-0.6s2-0.2,2.9-0.2s1.8,0,2.5,0
			c3.1,0,5.7,0.2,7.4,0.8c2,0.6,3.3,1.4,4.3,2.3c1,1,1.8,2.3,2,3.9c0.4,1.6,0.6,3.3,0.6,5.3v8c0,1.4,0.2,2.2,0.4,2.5
			c0.4,0.4,1,0.6,2,0.6c0.6,0,1,0.2,1.2,0.4s0.2,0.4,0.2,1v5.1c0,0.6-0.2,1-0.6,1.2s-0.8,0.4-1.6,0.6c-0.8,0.2-1.6,0.4-2.3,0.4
			c-0.8,0-1.6,0-2.3,0c-0.8,0-1.6,0-2.3-0.2c-0.8-0.2-1.6-0.4-2.2-0.6c-0.6-0.4-1.2-0.8-1.8-1.4C20.7,37.9,20.3,37.2,19.9,36.2
			L19.9,36.2z"/>
		<path class="st1" d="M62.6,31.1c1,0,1.6,0.6,1.6,1.6v6.1c0,1-0.6,1.6-1.6,1.6H38.3c-0.6,0-1-0.2-1.2-0.4s-0.2-0.6-0.2-1V34
			c0-0.4,0-0.8,0.2-1.2c0-0.4,0.4-1,1-1.6l11.5-12.9H39.3c-1,0-1.6-0.6-1.6-1.6v-6.3c0-1,0.6-1.6,1.6-1.6h23.1c0.6,0,1,0.2,1.2,0.4
			c0.2,0.2,0.2,0.6,0.2,1v5.1c0,0.4,0,0.8-0.2,1.2c-0.2,0.4-0.4,1-1,1.6L51,30.9h11.5V31.1z"/>
		<path class="st1" d="M87.2,37.5L87.2,37.5c-1.8,1.2-3.3,2-5.1,2.5c-1.8,0.4-3.1,0.8-4.3,0.8c-2.3,0-4.1-0.4-5.3-1.2
			c-1.2-0.8-2.2-1.8-2.7-2.9c-0.6-1.2-1-2.5-1-3.9c-0.2-1.6-0.2-2.9-0.2-4.5V10.8c0-0.2,0-0.6,0.2-1C69,9.4,69.4,9.2,70,9.2h8.8
			c0.6,0,1,0.2,1.2,0.4c0.2,0.2,0.4,0.6,0.4,1V26c0,1.6,0.2,2.7,0.8,3.1c0.6,0.4,1.4,0.6,2.3,0.6c0.8,0,1.4-0.2,2-0.4
			c0.6-0.2,1.2-0.4,1.8-0.6V10.6c0-0.2,0-0.6,0.2-1C87.6,9.2,88,9,88.6,9h8.8c0.6,0,1,0.2,1.2,0.4c0.2,0.2,0.4,0.6,0.4,1v28.2
			c0,0.4-0.2,0.8-0.4,1s-0.6,0.4-1.2,0.4h-8.8c-0.6,0-1.2-0.2-1.2-0.6c-0.2-0.4-0.2-0.8-0.2-1V37.5z"/>
		<path class="st1" d="M117.1,13.7L117.1,13.7c0.8-0.6,1.4-1.2,2.3-1.8c0.8-0.6,1.6-1.2,2.3-1.6c0.8-0.4,1.6-0.8,2.3-1.2
			c0.6-0.2,1.4-0.4,2-0.4c0.8-0.2,1.6-0.2,1.8,0c0.4,0.2,0.6,0.8,0.8,1.6l1,7.8c0,0.4,0,0.6,0,0.8s0,0.4-0.2,0.6
			c-0.2,0.2-0.4,0.2-0.6,0.4c-0.4,0.2-0.8,0.2-1.4,0.4c-2,0.4-3.7,0.8-5.3,1.2s-3.3,0.8-5.1,1.6v15.6c0,0.2,0,0.6-0.2,1
			c-0.2,0.4-0.6,0.6-1.2,0.6H107c-0.6,0-1-0.2-1.2-0.4c-0.2-0.2-0.4-0.6-0.4-1V10.6c0-0.4,0.2-0.8,0.4-1c0.2-0.2,0.6-0.4,1.2-0.4
			h8.8c0.6,0,1,0.2,1.2,0.6c0.2,0.4,0.2,0.8,0.2,1C117.1,10.8,117.1,13.7,117.1,13.7z"/>
		<path class="st1" d="M153.5,25h-10.2c-1.2,0-2.2,0.2-2.9,0.4c-0.8,0.2-1.6,0.6-2.3,1.2c-0.6,0.6-1.2,1.4-1.4,2.2
			c-0.4,1-0.6,2.2-0.6,3.5c0,2.2,0.4,3.5,1.2,4.3s2.3,1.2,4.5,1.2c1,0,2-0.2,3.1-0.4s2.2-0.6,3.3-1c1.2-0.4,2.2-0.8,2.9-1.4
			c1-0.4,1.8-0.8,2.3-1.2V25z M153.5,36.6c-1,0.6-1.8,1-2.7,1.6c-1,0.4-2,1-2.9,1.4s-2.2,0.6-3.3,1c-1.2,0.2-2.3,0.4-3.9,0.4
			c-2.9,0-4.9-0.8-6.1-2.2c-1.2-1.4-2-3.5-2-6.3c0-3.5,1-6.3,2.7-7.8c1.8-1.8,4.7-2.5,8.6-2.5h9.8v-2.7c0-1.2-0.2-2.3-0.4-3.1
			c-0.2-0.8-0.6-1.6-1.2-2.2c-0.8-0.8-1.6-1.2-2.5-1.4c-1-0.2-2.3-0.4-3.9-0.4c-1.4,0-2.7,0-4.5,0.2c-1.8,0-3.3,0.2-4.7,0.4
			c-0.6,0-1-0.2-1-0.4l-0.2-1.2c0-0.4,0.2-0.8,0.8-1s1.4-0.4,2.3-0.6c0.8-0.2,1.8-0.4,2.7-0.4c1-0.2,1.8-0.2,2.7-0.2
			c0.8,0,1.6,0,2.3,0c2.3,0,4.3,0.2,5.7,0.6c1.4,0.4,2.5,1.2,3.3,2c0.8,1,1.4,2,1.6,3.3c0.2,1.4,0.4,2.9,0.4,4.7v15.4
			c0,0.6,0,1,0.2,1.4c0,0.4,0.2,0.6,0.4,0.8s0.4,0.2,0.8,0.4c0.4,0,0.8,0.2,1.4,0.2c0.4,0,0.8,0.2,0.8,0.6v1.2c0,0.2,0,0.4-0.2,0.6
			c-0.2,0.2-0.4,0.2-0.8,0.4c-2,0.2-3.5,0-4.3-0.4C154.3,39.5,153.7,38.3,153.5,36.6L153.5,36.6z"/>
		<path class="st1" d="M166.4,10.6c0-0.4,0-0.6,0.2-0.8s0.4-0.2,0.8-0.2h1.6c0.4,0,0.6,0,0.6,0.2c0.2,0.2,0.2,0.4,0.2,0.8v28.6
			c0,0.4,0,0.6-0.2,0.8s-0.4,0.2-0.6,0.2h-1.6c-0.4,0-0.6,0-0.8-0.2s-0.2-0.4-0.2-0.8V10.6z M170.1,2.2c0,0.6-0.2,1.2-0.4,1.6
			c-0.2,0.4-0.8,0.8-1.8,0.8s-1.6-0.2-1.8-0.8c-0.2-0.4-0.4-1-0.4-1.6s0.2-1.2,0.4-1.6C166.4,0.2,167,0,168,0c0.8,0,1.4,0.2,1.8,0.6
			C170.1,1,170.1,1.6,170.1,2.2"/>
		<path class="st1" d="M190.7,12.9c-0.8,0.2-1.6,0.4-2.5,0.8c-0.8,0.2-1.6,0.6-2.3,1c-0.8,0.4-1.4,0.6-2,1c-0.6,0.2-1,0.6-1.4,0.8
			v23.3c0,0.6-0.4,1-1,1h-1.8c-0.4,0-0.6,0-0.6-0.2c-0.2-0.6-0.2-0.8-0.2-1.2V10.6c0-0.6,0.2-1,0.8-1h1.6c0.4,0,0.6,0,0.8,0.2
			c0.2,0.2,0.2,0.4,0.2,0.8v2.7c0.2-0.2,0.8-0.6,1.4-0.8c0.6-0.4,1.2-0.8,2-1.2c0.8-0.4,1.6-0.8,2.3-1.2c0.8-0.4,1.6-0.6,2.5-0.8
			c0.2,0,0.4,0,0.4,0s0.2,0.2,0.2,0.4l0.2,2.2C191.3,12.5,191.1,12.7,190.7,12.9"/>
	</g>
</g>
</svg>
