<?xml version="1.0" encoding="utf-8"?>
<!-- Generator: Adobe Illustrator 22.0.1, SVG Export Plug-In . SVG Version: 6.00 Build 0)  -->
<svg version="1.1" id="Слой_1" xmlns="http://www.w3.org/2000/svg" xmlns:xlink="http://www.w3.org/1999/xlink" x="0px" y="0px"
	 viewBox="0 0 137.2 88" style="enable-background:new 0 0 137.2 88;" xml:space="preserve">
<style type="text/css">
	.st0{opacity:0.5;fill:#FFFFFF;enable-background:new    ;}
</style>
<path class="st0" d="M19.6,88l5.6-27.9h9.1L28.7,88H19.6L19.6,88z M47.1,78.8h5.7l-1.5-10.1L47.1,78.8L47.1,78.8z M34.3,88L48,60.1
	h8.9L62.5,88h-8.4l-0.4-3.3h-8.9L43.3,88H34.3L34.3,88z M71.1,88l3.1-21.1h-8l1.3-7.1H92l-1.3,7.1h-7.6L80,88H71.1L71.1,88z
	 M101.7,78.8h5.7L106,68.7L101.7,78.8L101.7,78.8z M88.9,88l13.7-27.9h8.9l5.6,27.9h-8.5l-0.3-3.3h-8.9L98,88H88.9L88.9,88z
	 M137.2,28.5H94.4c-1.6,7.9-7.1,14.4-17.9,18.9c1.2,3.7,5.5,7.2,9.9,7.2h23.2c3.6,0,6.4-2.9,7.5-5.3H93.5c-1.5-0.3-1.5-1.5,0-1.6
	h23.2c3.1,0,5.7-2.5,7.3-5.3H96.8c-1.3-0.3-1.3-1.3,0-1.6h27.3c2.8,0,5.2-3.2,6.3-5.3h-29.9c-1.5-0.1-1.5-1.6,0-1.6h30.4
	C133.3,33.7,135.6,31.2,137.2,28.5L137.2,28.5z M0,28.5h42.8c1.6,7.9,7.1,14.4,17.9,18.9c-1.2,3.7-5.5,7.2-9.9,7.2H27.7
	c-3.6,0-6.4-2.9-7.5-5.3h23.6c1.5-0.3,1.5-1.5,0-1.6H20.7c-3.1,0-5.7-2.5-7.3-5.3h27.1c1.3-0.3,1.3-1.3,0-1.6H13.2
	c-2.8,0-5.2-3.2-6.3-5.3h29.9c1.5-0.1,1.5-1.6,0-1.6H6.3C3.9,33.7,1.6,31.2,0,28.5L0,28.5z M54.7,4.9c1.6,1.3,3.3,2.5,5.2,3.3
	c1.6-3.2,3.9-5.9,6.4-8.3C62.1,0.5,58.1,2.1,54.7,4.9L54.7,4.9z M47.1,20.5h9.6c0.3-3.9,1.1-7.3,2.5-10.9c-2-0.9-3.9-2-5.6-3.6
	C49.6,10,47.5,15.1,47.1,20.5L47.1,20.5z M67.9,11.6v8.9h-9.6c0-3.5,0.9-7.1,2.4-10.4C62.9,11.1,65.5,11.6,67.9,11.6L67.9,11.6z
	 M82.5,4.9c-1.6,1.3-3.3,2.5-5.2,3.3c-1.7-3.2-3.9-5.9-6.5-8.3C75.1,0.5,79.1,2.1,82.5,4.9L82.5,4.9z M90.1,20.5h-9.5
	c-0.1-3.9-1.1-7.5-2.5-10.9C80,8.7,82,7.5,83.7,6C87.7,10.1,89.9,15.2,90.1,20.5L90.1,20.5z M69.5,11.6v8.9h9.5
	c0-3.6-0.9-7.1-2.4-10.4C74.3,11.1,71.9,11.6,69.5,11.6L69.5,11.6z M54.7,37.7c1.6-1.2,3.5-2.5,5.2-3.2c1.7,3.2,3.9,5.9,6.4,8.1
	C62.1,42.1,58.1,40.5,54.7,37.7L54.7,37.7z M47.1,22.1h9.6c0.3,4,1.1,7.5,2.5,11.1c-2.1,0.9-4,2.1-5.7,3.6
	C49.6,32.8,47.5,27.7,47.1,22.1L47.1,22.1z M67.9,31.1v-8.9h-9.6c0,3.6,0.9,7.2,2.4,10.4C62.9,31.6,65.5,31.2,67.9,31.1L67.9,31.1z
	 M82.5,37.7c-1.5-1.3-3.3-2.5-5.2-3.2c-1.7,3.2-3.9,5.9-6.5,8.1C75.1,42.1,79.1,40.5,82.5,37.7L82.5,37.7z M90.1,22.1h-9.5
	c-0.1,4-0.9,7.5-2.5,11.1c2,0.9,3.9,2.1,5.6,3.6C87.6,32.8,89.9,27.6,90.1,22.1L90.1,22.1z M69.5,31.1v-8.9h9.5
	c0,3.6-0.9,7.1-2.4,10.4C74.4,31.6,71.7,31.2,69.5,31.1L69.5,31.1z M67.9,0.9c-2.5,2.1-4.9,4.9-6.4,7.9c2,0.7,4.3,1.2,6.4,1.2V0.9
	L67.9,0.9z M69.5,0.9c2.5,2.1,4.8,4.8,6.4,7.9c-2,0.8-4.3,1.2-6.4,1.2V0.9L69.5,0.9z M67.9,41.7c-2.5-2-4.9-4.9-6.4-8
	c2-0.7,4.3-1.2,6.4-1.2V41.7L67.9,41.7z M69.5,41.9c2.5-2.1,4.8-4.9,6.4-8c-2-0.7-4.3-1.2-6.4-1.2V41.9L69.5,41.9z"/>
</svg>
