<?xml version="1.0" encoding="utf-8"?>
<!-- Generator: Adobe Illustrator 22.0.1, SVG Export Plug-In . SVG Version: 6.00 Build 0)  -->
<svg version="1.1" id="Слой_1" xmlns="http://www.w3.org/2000/svg" xmlns:xlink="http://www.w3.org/1999/xlink" x="0px" y="0px"
	 viewBox="0 0 86.7 88" style="enable-background:new 0 0 86.7 88;" xml:space="preserve">
<style type="text/css">
	.st0{opacity:0.5;}
	.st1{fill:#FFFFFF;}
</style>
<g class="st0">
	<path class="st1" d="M6,33c0.7,0.3,1.5-0.1,1.6-0.8c0.3-0.7-0.1-1.5-0.8-1.6c-0.7-0.3-1.5,0.1-1.6,0.8C4.9,32.1,5.2,32.9,6,33z"/>
	<path class="st1" d="M11.3,26.5c0.1,0,0.1,0.1,0.3,0l0.5-0.8c0.1-0.1,0-0.3,0-0.3L10,24.1l0.3-0.4c0.7-1.1,0.4-2.3-0.7-2.9
		c-0.8-0.5-1.3-0.4-1.7-0.1c-0.4,0.3-0.8,0.7-0.9,1.1L6.1,23c0,0.1-0.1,0.1,0,0.3L11.3,26.5z M7.7,22.2C8,22,8.3,21.4,9.1,22
		s0.5,0.9,0.3,1.5l-0.1,0.3l-1.6-0.9L7.7,22.2z"/>
	<path class="st1" d="M17.6,18.8c1.6-1.6-0.3-3.5-0.8-4c-0.4-0.4-2.4-2.3-4-0.7s0.3,3.5,0.8,4C14,18.5,16,20.4,17.6,18.8z
		 M13.6,14.8c0.7-0.7,1.7,0.3,2.4,0.9c0.5,0.5,1.6,1.7,0.9,2.3c-0.7,0.7-1.9-0.4-2.4-0.9C13.9,16.5,12.9,15.4,13.6,14.8z"/>
	<path class="st1" d="M24,13.6c0.4-0.3,0.8-0.8,0.9-1.2v-0.1c0,0,0,0-0.1-0.1l-0.5-0.3h-0.1c0,0-0.1,0.1-0.1,0.3
		c-0.1,0.3-0.3,0.4-0.5,0.7c-0.4,0.3-0.7,0.1-0.9,0.1c-0.5-0.1-1.1-1.1-1.3-1.5c-0.7-1.1-0.8-1.6-0.8-2c0-0.3,0.3-0.5,0.4-0.7
		c0.5-0.1,0.8-0.1,1.1-0.1c0,0,0.1,0,0.3,0V8.5V7.9V7.7c0,0-0.1-0.1-0.3-0.1c-0.5-0.1-1.1,0.1-1.5,0.4c-0.8,0.5-1.6,1.7-0.1,4.1
		C21.1,13.2,22.3,14.6,24,13.6z"/>
	<path class="st1" d="M30.6,10.3c0.5-0.3,0.9-0.5,1.2-0.9c0,0,0.1-0.1,0-0.1c0,0,0,0-0.1-0.1l-0.4-0.4c0,0-0.1-0.1-0.1,0L31,8.8
		c-0.1,0.3-0.4,0.4-0.7,0.5c-0.4,0.1-0.7,0-0.9,0c-0.5-0.3-0.9-1.3-1.1-1.6C28,6.5,27.8,6,28,5.7c0.1-0.3,0.3-0.4,0.5-0.5
		c0.3-0.1,0.5,0,0.8,0c0,0,0.1,0,0.3,0V5.1l0.1-0.7V4.3c0,0-0.1-0.1-0.3-0.1C29,4,28.4,4,28,4.3c-0.9,0.4-2,1.3-0.9,4
		C27.7,9.3,28.6,11,30.6,10.3z"/>
	<path class="st1" d="M35.8,8.5l0.9-0.1c0.1,0,0.1-0.1,0.1-0.1l0.8-2.9C37.8,5.1,37.8,4.7,38,4l0,0c0,0.3,0.1,0.8,0.1,1.1L38.5,8
		c0,0.1,0,0.1,0.3,0.1L39.7,8c0.1,0,0.1-0.1,0.1-0.3l-0.9-5.9c0-0.1,0-0.1-0.3-0.1L38,1.9c-0.1,0-0.1,0.1-0.3,0.3l-0.8,2.7
		c0,0.3-0.3,1.1-0.3,1.3l0,0c-0.1-1.1-0.1-0.8-0.1-1.3l-0.4-2.7c0-0.1,0-0.1-0.3-0.1l-0.9,0.1c-0.1,0-0.1,0-0.1,0.3l0.9,5.9
		C35.7,8.4,35.7,8.5,35.8,8.5z"/>
	<path class="st1" d="M47,1.3c0.7,0,1.1-0.1,1.2-0.4c0.3-0.3,0.4-0.4,0.4-0.5s0-0.1-0.1-0.1l-0.5-0.1h-0.1c0,0,0,0.1-0.1,0.1
		c-0.1,0.3-0.3,0.4-0.5,0.4c-0.3,0-0.4-0.1-0.5-0.4c0-0.1,0-0.1-0.1-0.3c0,0,0,0-0.1,0h-0.7c0,0-0.1,0-0.1,0.1s0,0.3,0.1,0.5
		C46.1,0.9,46.5,1.2,47,1.3z"/>
	<path class="st1" d="M44.5,7.7l0.9,0.1c0.1,0,0.1,0,0.3-0.1l1.5-2.7c0.1-0.3,0.4-0.5,0.7-1.2l0,0c0,0.3-0.1,0.8-0.1,1.1l-0.3,2.9
		c0,0.1,0,0.1,0.1,0.1l0.9,0.1c0.1,0,0.1-0.1,0.1-0.1l0.5-6c0-0.1,0-0.1-0.1-0.1l-0.9-0.1c-0.1,0-0.1,0-0.3,0.1l-1.3,2.4
		c-0.1,0.3-0.5,1.1-0.7,1.3l0,0c0.1-1.1,0.1-0.8,0.1-1.3l0.3-2.7c0-0.1,0-0.1-0.1-0.1l-0.9-0.1c-0.1,0-0.1,0-0.1,0.1l-0.5,6
		C44.4,7.6,44.4,7.7,44.5,7.7z"/>
	<path class="st1" d="M54.9,9.7c0.5,0.1,1.1,0.1,1.5,0c0,0,0.1,0,0.1-0.1V9.5l-0.1-0.5c0,0,0-0.1-0.1-0.1c0,0-0.1,0-0.3,0
		c-0.3,0-0.5,0.1-0.8,0c-0.4-0.1-0.5-0.4-0.7-0.7c-0.1-0.5,0.1-1.6,0.3-1.9c0.5-1.1,0.8-1.6,1.1-1.7c0.3-0.1,0.5-0.1,0.8,0
		s0.4,0.3,0.7,0.5l0.1,0.1h0.1l0.5-0.5c0,0,0,0,0.1-0.1c0,0,0-0.1-0.1-0.3c-0.3-0.4-0.8-0.7-1.2-0.8c-0.9-0.3-2.4-0.1-3.3,2.5
		C53.1,7.2,52.9,9.2,54.9,9.7z"/>
	<path class="st1" d="M60.9,12.2c0.1,0,0.1,0.1,0.3-0.1l1.3-2.3l0.4,0.1c0.5,0.3,0.4,0.7,0.3,0.9L62.7,12c-0.1,0.3-0.3,0.7-0.1,0.9
		c0.1,0.4,0.5,0.7,0.7,0.8c0.1,0.1,0.1,0,0.3,0l0.5-0.5c0,0,0.1-0.1,0-0.3l-0.1-0.1c-0.3-0.1-0.1-0.3,0-0.8l0.1-0.7
		c0-0.1,0.3-0.8-0.3-1.2l0,0c0.5,0.1,0.8-0.1,1.1-0.4l0.4-0.5c0.3-0.4,0.4-0.4,0.7-0.3h0.3c0.1,0,0.1,0,0.1-0.1l0.1-0.7
		c0-0.1,0-0.1-0.1-0.1c-0.1-0.1-0.5-0.3-0.8-0.1c-0.5,0-0.8,0.3-0.9,0.5l-0.5,0.7c-0.4,0.4-0.7,0.4-1.1,0.3l-0.3-0.1l1.2-2
		c0.1-0.1,0-0.3-0.1-0.3L63,6.5c-0.1,0-0.1-0.1-0.3,0.1l-2.9,5.2c-0.1,0.1,0,0.3,0.1,0.3L60.9,12.2z"/>
	<path class="st1" d="M67.4,16.8c0.1,0.1,0.1,0.1,0.3,0l2.8-1.2c0.3-0.1,0.7-0.3,1.2-0.5l0,0c-0.3,0.3-0.5,0.5-0.7,0.7L69,18
		c0,0-0.1,0.1,0,0.3l0.7,0.7c0.1,0.1,0.3,0,0.3,0l4-4.4c0,0,0.1-0.1,0-0.3l-0.7-0.5c-0.1-0.1-0.1-0.1-0.3,0l-2.5,1.1
		c-0.3,0.1-1.1,0.4-1.5,0.7l0,0c0.7-0.8,0.7-0.7,0.9-0.9l1.9-2c0,0,0.1-0.1,0-0.3l-0.7-0.7c0,0-0.1-0.1-0.3,0l-4,4.4
		c0,0-0.1,0.1,0,0.3L67.4,16.8z"/>
	<path class="st1" d="M80.6,21.2c0.3,0,0.4,0,0.5-0.1c0.1,0,0.1-0.1,0-0.1l-0.3-0.5c0,0,0-0.1-0.1-0.1h-0.1c-0.3,0-0.4,0-0.5-0.3
		c-0.1-0.3-0.1-0.4,0-0.7c0-0.1,0.1-0.1,0.1-0.3l0,0l-0.4-0.4h-0.1c-0.1,0.1-0.3,0.3-0.3,0.4c-0.1,0.3-0.1,0.8,0.3,1.3
		C79.8,21,80.2,21.2,80.6,21.2z"/>
	<path class="st1" d="M72.7,22.5l0.5,0.8c0.1,0.1,0.1,0.1,0.3,0.1l2.9-0.4c0.3,0,0.7-0.1,1.3-0.3l0,0c-0.3,0.1-0.7,0.4-0.9,0.5
		l-2.4,1.6c-0.1,0-0.1,0.1,0,0.3L75,26c0.1,0.1,0.1,0.1,0.3,0l4.9-3.3c0.1,0,0.1-0.1,0-0.3l-0.5-0.7c-0.1-0.1-0.1-0.1-0.3-0.1
		L76.7,22c-0.3,0-1.2,0.3-1.5,0.3l0,0c0.9-0.5,0.8-0.4,1.1-0.7l2.3-1.5c0.1,0,0.1-0.1,0-0.3L78,19c0-0.1-0.1-0.1-0.3,0l-4.9,3.3
		C72.7,22.2,72.7,22.4,72.7,22.5z"/>
	<path class="st1" d="M80,30.4c-0.7,0.3-1.1,0.9-0.8,1.6c0.3,0.7,0.9,1.1,1.6,0.8s1.1-0.9,0.8-1.6C81.4,30.5,80.7,30.2,80,30.4z"/>
	<path class="st1" d="M0.6,40.7h0.1l0.5-0.3c0,0,0.1,0,0.1-0.1c0,0,0-0.1-0.1-0.3c-0.1-0.3-0.1-0.5-0.1-0.8c0-0.4,0.3-0.7,0.5-0.8
		c0.5-0.3,1.6-0.1,2-0.1c1.2,0.1,1.7,0.3,2,0.7c0.1,0.1,0.3,0.5,0.3,0.8c0,0.3-0.3,0.5-0.4,0.7l-0.1,0.1c0,0,0,0.1,0.1,0.1L6,41.1
		h0.1c0,0,0.1,0,0.3-0.1c0.4-0.3,0.5-0.9,0.7-1.3c0.1-0.9-0.3-2.4-3.1-2.8c-1.3-0.1-3.2-0.1-3.5,2c-0.1,0.5,0,1.1,0.3,1.5
		C0.4,40.7,0.4,40.7,0.6,40.7z"/>
	<path class="st1" d="M3.5,49.8c0.7,0,3.3-0.3,3.1-2.5c-0.1-2.3-2.8-2.1-3.5-2c-0.7,0-3.3,0.3-3.1,2.5C0.2,49.9,2.8,49.8,3.5,49.8z
		 M1.1,47.7c-0.1-0.9,1.5-1.1,2.3-1.2c0.9-0.1,2.3-0.1,2.4,0.8c0.1,0.9-1.3,1.1-2.3,1.2C2.7,48.5,1.1,48.6,1.1,47.7z"/>
	<path class="st1" d="M8.9,57.4C8.7,56.6,8.1,56,7.2,56c-0.5-0.1-1.2,0-1.6,0.1l-0.3-0.7l2.3-0.8c0.1,0,0.1-0.1,0.1-0.3l-0.3-0.8
		c0-0.1,0-0.1-0.3-0.1l-5.6,1.9c-0.1,0-0.1,0.1-0.1,0.3l0.3,0.8c0,0.1,0.1,0.1,0.3,0.1l2.4-0.8l0.3,0.7c-0.4,0.1-1.1,0.4-1.5,0.9
		c-0.7,0.7-0.8,1.3-0.5,2.1c0.7,2.1,3.2,1.3,3.9,1.1C7.1,60.4,9.6,59.5,8.9,57.4z M3.6,59.2c-0.3-0.9,1.2-1.5,1.9-1.7
		c0.8-0.3,2.3-0.7,2.5,0.1c0.3,0.9-1.2,1.5-1.9,1.7C5.3,59.6,3.9,60,3.6,59.2z"/>
	<path class="st1" d="M11.1,63.1c-0.1,0-0.3-0.1-0.4,0c0,0,0,0-0.1,0.1l-0.3,0.5c0,0.1,0,0.1,0,0.1s0.1,0,0.1,0.1
		c0.4,0.1,0.7,0.4,0.7,0.5c0.4,0.7-0.1,1.1-0.3,1.2c-0.1,0.1-0.8,0.5-1.3-0.4l-0.1-0.1c-0.1-0.1-0.1-0.1-0.3,0l-0.5,0.4
		c-0.1,0-0.1,0.1,0,0.3l0.1,0.3c0.1,0.1,0.3,0.4,0.3,0.7c0,0.3-0.1,0.5-0.5,0.8c-0.1,0.1-0.4,0.1-0.7,0.1c-0.4,0-0.5-0.3-0.7-0.5
		c-0.3-0.4-0.3-0.8-0.3-0.9c0-0.1,0-0.1,0-0.3H6.7H6.1C6,66,6,66,6,66l-0.1,0.1c0,0.4,0.1,1.1,0.5,1.6c0.9,1.5,2,1.3,2.8,0.8
		c0.7-0.4,0.9-1.1,0.7-1.7c0.3,0.1,0.9,0.5,1.7,0c0.9-0.5,1.1-1.5,0.4-2.4C11.9,63.5,11.5,63.2,11.1,63.1z"/>
	<path class="st1" d="M22,74.7l-3.1-2.4c-0.1-0.1-0.1,0-0.1,0L18.3,73c0,0-0.1,0.1,0,0.1l0.9,0.8L16,77.7c0,0-0.1,0.1,0,0.3l0.7,0.5
		c0,0,0.1,0.1,0.3,0l3.2-3.9l0.9,0.7c0,0,0.1,0.1,0.3,0l0.7-0.5C22,74.8,22.1,74.8,22,74.7z"/>
	<path class="st1" d="M28.4,78.4l-0.8-0.5c-0.1-0.1-0.1,0-0.3,0.1l-1.5,1.7c-0.3,0.3-0.4,0.5-0.9,1.1l0,0c0.1-0.5,0.1-0.9,0.3-1.3
		l0.4-2.3c0-0.1,0-0.1-0.1-0.3l-0.8-0.5c-0.1-0.1-0.3-0.1-0.3,0v0.1l-0.5,4.4v0.1l0.5,0.3l-0.3,0.3c-0.1,0.1-0.4,0.5-0.9,0.3
		c-0.1-0.1-0.3-0.3-0.4-0.4l-0.1-0.1h-0.1L22,81.7c-0.1,0-0.1,0.1,0.1,0.4s0.5,0.5,0.8,0.7c0.4,0.3,0.8,0.3,1.1,0.1
		c0.4-0.1,0.7-0.4,0.9-0.5l3.6-3.7c0.1-0.1,0.1-0.1,0.1-0.1C28.5,78.5,28.4,78.4,28.4,78.4z"/>
	<path class="st1" d="M33.7,80.3l-1.5-0.4c-0.1,0-0.1,0-0.3,0.1l-1.6,5.7c0,0.1,0,0.1,0.1,0.3l0.8,0.3c0.1,0,0.3,0,0.3-0.1l0.7-2.3
		l0.5,0.1c1.2,0.4,2.3-0.3,2.5-1.5c0.3-0.8,0-1.3-0.3-1.6C34.6,80.5,34.1,80.3,33.7,80.3z M34.1,82.3c-0.3,0.8-0.8,0.8-1.3,0.7
		l-0.3-0.1l0.5-1.7l0.4,0.1C33.7,81.2,34.4,81.3,34.1,82.3z"/>
	<path class="st1" d="M44,81.6H43c-0.1,0-0.1,0.1-0.3,0.1l-1.2,2.5c-0.1,0.3-0.5,1.1-0.7,1.5l0,0c0-1.1,0.1-0.8,0.1-1.3l0.1-2.7
		c0-0.1,0-0.1-0.1-0.1h-0.9c-0.1,0-0.1,0-0.1,0.1l-0.3,6c0,0.1,0,0.1,0.1,0.1h0.9c0.1,0,0.1,0,0.3-0.1l1.3-2.7
		c0.1-0.3,0.3-0.5,0.5-1.2l0,0c0,0.3,0,0.8-0.1,1.1l-0.1,2.9c0,0.1,0,0.1,0.1,0.1h0.9c0.1,0,0.1-0.1,0.1-0.1l0.3-6
		C44.2,81.6,44.1,81.6,44,81.6z"/>
	<path class="st1" d="M52.5,80.4l-0.8,0.1c-0.1,0-0.1,0-0.1,0.3l0.5,2.3l-1.7,0.4l-0.5-2.3c0-0.1-0.1-0.1-0.3-0.1l-0.9,0.1
		c-0.1,0-0.1,0-0.1,0.3l1.2,5.9c0,0.1,0.1,0.1,0.3,0.1l0.9-0.1c0.1,0,0.1,0,0.1-0.3l-0.5-2.5l1.7-0.4l0.5,2.5c0,0.1,0.1,0.1,0.3,0.1
		l0.9-0.1c0.1,0,0.1-0.1,0.1-0.3l-1.3-5.9C52.7,80.4,52.7,80.4,52.5,80.4z"/>
	<path class="st1" d="M63.1,82.1c0-0.1-0.1-0.1-0.3-0.1l-0.4,0.1l-2.1-4.7c0-0.1-0.1-0.1-0.3-0.1l-2.8,1.2c-0.1,0.1-0.1,0.1-0.1,0.3
		l0.8,1.6c0.1,0.1,0.4,0.9,0.7,1.7c0.1,0.5,0.3,1.1,0.1,1.6l-0.1,0.1c-0.1,0.1-0.1,0.1-0.1,0.3l0.9,1.9c0,0.1,0.1,0.1,0.3,0.1
		l0.7-0.4c0.1,0,0.1-0.1,0.1-0.3l-0.5-0.9l2.4-1.1l0.5,1.2c0,0.1,0.1,0.1,0.3,0.1l0.7-0.4c0.1-0.1,0.1-0.1,0.1-0.3L63.1,82.1z
		 M59.9,83.5c0-0.4,0-0.8-0.1-1.2s-0.3-1.1-0.7-1.9l-0.4-1.2l0.8-0.4l1.9,4L59.9,83.5z"/>
	<path class="st1" d="M67.4,73c0-0.1,0-0.1,0-0.1c0-0.1-0.1,0-0.3,0l-0.8,0.4c-0.1,0.1-0.1,0.1,0,0.3l0.9,2.1
		c0.1,0.4,0.3,0.7,0.5,1.2l0,0c-0.5-0.4-0.8-0.5-1.1-0.8l-1.9-1.3c-0.1-0.1-0.1-0.1-0.4,0l-0.7,0.5c-0.1,0.1-0.1,0.1-0.1,0.3
		c0,0,0,0,0.1,0.1l3.7,2.4h0.1l0.5-0.4l0.1,0.3c0.1,0.1,0.3,0.7-0.1,0.9c-0.1,0.1-0.3,0.1-0.5,0.1c-0.1,0-0.1,0-0.1,0s0,0,0,0.1
		l0.1,0.7c0,0.1,0,0.1,0.4,0.1c0.4-0.1,0.7-0.3,0.9-0.4c0.4-0.3,0.5-0.7,0.7-0.9c0.1-0.4,0-0.8-0.1-1.1L67.4,73z"/>
	<path class="st1" d="M76.4,71.4l-0.5-0.1h-0.1c0,0,0,0.1-0.1,0.3c0,0.3-0.1,0.5-0.3,0.7c-0.3,0.3-0.7,0.4-0.8,0.4
		c-0.5,0-1.3-0.7-1.7-1.1c-0.9-0.8-1.2-1.2-1.3-1.6c0-0.3,0.1-0.5,0.3-0.8c0.1-0.3,0.4-0.3,0.8-0.4c0,0,0.1,0,0.3-0.1v-0.1L72.6,68
		v-0.1c0,0-0.1,0-0.3,0c-0.5,0-0.9,0.4-1.2,0.7c-0.7,0.7-1.2,2.1,0.9,4c0.9,0.9,2.5,2,4,0.4c0.4-0.4,0.7-0.9,0.7-1.3v-0.1
		C76.6,71.5,76.6,71.5,76.4,71.4z"/>
	<path class="st1" d="M76.2,63.5l0.5-0.9c0,0,0-0.1,0-0.3l-0.5-0.5c0,0-0.1-0.1-0.3,0l-2,3.3c-0.1,0.1,0,0.1,0,0.1l0.7,0.4
		c0,0,0.1,0.1,0.1,0l0.7-1.1l4.3,2.5c0.1,0,0.1,0.1,0.3,0l0.4-0.8c0-0.1,0.1-0.1,0-0.3L76.2,63.5z"/>
	<path class="st1" d="M83.8,59.2l-2.3-0.8l0.1-0.4c0.4-1.2,0-2.3-1.2-2.7c-0.8-0.3-1.3,0-1.7,0.3c-0.4,0.3-0.5,0.8-0.7,1.2l-0.5,1.5
		c0,0.1,0,0.1,0.1,0.3l5.6,2c0.1,0,0.1,0,0.3-0.1l0.3-0.8C83.9,59.4,83.8,59.4,83.8,59.2z M80.7,57.9l-0.1,0.3l-1.7-0.7l0.1-0.4
		c0.1-0.3,0.3-0.9,1.1-0.7C81,56.8,80.8,57.4,80.7,57.9z"/>
	<path class="st1" d="M86.4,47.3l-5.9-0.7c-0.1,0-0.1,0-0.3,0.1l-0.1,0.9c0,0.1,0,0.1,0.1,0.3l2.4,1.5c0.3,0.1,0.9,0.5,1.3,0.8l0,0
		c-1.1-0.3-0.8-0.3-1.3-0.3L80,49.7c-0.1,0-0.1,0-0.3,0.1l-0.1,0.9c0,0.1,0,0.1,0.1,0.3l5.9,0.7c0.1,0,0.1,0,0.3-0.1l0.1-0.9
		c0-0.1,0-0.1-0.1-0.3l-2.4-1.7c-0.3-0.1-0.5-0.4-1.2-0.7l0,0c0.3,0,0.8,0.1,1.1,0.1l2.9,0.4c0.1,0,0.1,0,0.3-0.1l0.1-0.9
		C86.6,47.3,86.4,47.3,86.4,47.3z"/>
	<path class="st1" d="M79.9,37.9l0.1,0.9c0,0.1,0.1,0.1,0.3,0.3l2.7,0.9c0.3,0.1,1.1,0.4,1.5,0.4l0,0c-1.1,0.1-0.8,0-1.3,0.1
		l-2.7,0.3c-0.1,0-0.1,0-0.1,0.3l0.1,0.9c0,0.1,0,0.1,0.3,0.1l5.9-0.7c0.1,0,0.1,0,0.1-0.3l-0.1-0.9c0-0.1-0.1-0.1-0.1-0.1l-2.8-0.9
		c-0.3-0.1-0.7-0.3-1.3-0.4l0,0c0.3,0,0.8,0,1.1-0.1l2.9-0.3c0.1,0,0.1,0,0.1-0.3l-0.1-0.9c0-0.1-0.1-0.1-0.3-0.1l-5.9,0.7
		C79.9,37.8,79.9,37.8,79.9,37.9z"/>
	<path class="st1" d="M18.5,65.8l0.5,0.7c2.4,2.7,5.2,4.8,8.3,6.5l0.4,0.3l0,0c4.8,2.5,10.1,4,15.7,4s11.2-1.5,16.1-4.1l0,0l0.4-0.3
		c1.9-1.1,3.6-2.3,5.2-3.7h2v-1.9c0.3-0.3,0.5-0.5,0.8-0.8l0.5-0.7l0,0c1.9-2.3,3.5-4.7,4.8-7.3l0,0l0.4-0.8
		c1.9-4.3,2.9-8.8,2.9-13.6c0-4.7-0.9-9.2-2.8-13.3l0,0l0,0L73.2,30l0,0c-1.3-2.7-2.9-5.2-4.9-7.5l0,0l-0.5-0.7
		c-2.4-2.7-5.2-4.8-8.3-6.5L59.3,15l0,0c-4.8-2.7-10.3-4-15.8-4c-5.5,0-10.9,1.3-15.7,4l0,0l-0.4,0.1c-2.3,1.3-4.4,2.8-6.4,4.7h-6.5
		v8.4c-0.3,0.5-0.5,0.9-0.8,1.5l0,0l-0.4,0.8c-1.9,4.1-2.9,8.8-2.9,13.6s0.9,9.3,2.9,13.6l0,0l0,0l0.4,0.8l0,0
		C14.9,61.1,16.5,63.5,18.5,65.8L18.5,65.8z M27.7,71.5c-2.5-1.5-4.9-3.3-6.9-5.5c6.3-4.3,13.6-6.7,21-6.9c0.8,0.3,1.7,0.4,2.7,0.5
		c1.2,0.1,2.3,0.3,3.6,0.3c0.9,0,1.9-0.1,2.7-0.1c1.3-0.1,2.4-0.4,3.6-0.7l0,0l0,0v1.5v1.2V69c-3.3-1.2-6.9-1.9-10.5-1.9
		C38.1,67.1,32.6,68.6,27.7,71.5z M38.5,33.1L38.5,33.1h0.1H39h0.1h0.1h0.8l0,0c-0.3,0.5-0.5,1.1-0.9,1.6c-0.1,0.1-0.3,0.4-0.4,0.5
		l0,0c-0.1,0.1-0.1,0.1-0.3,0.3c-0.8,0.7-1.6,1.3-2.7,1.7c-0.1,0-0.1,0-0.3,0.1l0,0c-0.5,0.3-1.2,0.4-1.9,0.5
		c-0.3,0-0.5,0.1-0.8,0.1c0,0,0,0-0.1,0c0,0,0,0-0.1,0c-0.4,0-0.8,0-1.2,0h-3.3h-2.5l0,0v6.7l0,0H16V33.3h0.9h0.4h0.1h0.1h2.5h18.4
		V33.1z M26,32.5V27h1.5c0.1,0,0.3,0,0.4,0c1.6,0,2.8,0.1,3.2,1.2c0.1,0.4,0.3,0.8,0.3,1.3c0,2-0.8,2.7-2.1,2.9H26z M65.5,67.4h-0.9
		h-8.8v-5.7v-0.8v-1.6v-0.8v-2.9l0,0h1.1h8.5v8.1v1.7v1.1v0.9H65.5z M49.9,52.1c1.9,0,2.5-0.4,4.4-0.9c0,0,0,0,0.1,0l0,0v1.1v0.1
		v5.1v0.1l0,0c-1.1,0.3-2.1,0.5-3.3,0.8c-0.8,0.1-1.7,0.3-2.8,0.3c-1.2,0-2.4-0.1-3.6-0.3c-0.9-0.1-1.9-0.3-2.7-0.5
		c-4.1-1.2-7.3-3.6-8.9-7.2c-0.1-0.4-0.4-0.9-0.4-1.3c-0.3-1.1-0.4-2.3-0.4-3.5l0,0c0-0.1,0-0.3,0-0.4h10.5l0,0c0,0.1,0,0.4,0,0.5
		l0,0c0,0.8,0.1,1.6,0.4,2.3c0.1,0.5,0.4,1.1,0.7,1.5c0.3,0.4,0.5,0.7,0.8,0.9c0.9,0.8,2,1.2,3.3,1.5c0,0,0,0,0.1,0c0,0,0,0,0.1,0
		C48.6,51.9,49.3,52.1,49.9,52.1z M43.4,75.6c-4.9,0-9.9-1.2-14.1-3.3c4.4-2.4,9.5-3.7,14.6-3.7c4.9,0,9.9,1.2,14.1,3.5
		C53.5,74.4,48.5,75.6,43.4,75.6z M59.5,71.2c-1.6-0.9-3.3-1.6-5.1-2.3h8.3C61.7,69.8,60.6,70.6,59.5,71.2z M67.3,64.7l-0.1-0.1
		v-9.7c1.7,0.8,3.3,1.7,4.9,2.7C70.7,60.2,69.1,62.6,67.3,64.7z M75,44.1c0,4.3-0.8,8.3-2.5,12.1c-1.7-1.1-3.6-2-5.5-2.9v-0.9h6.5
		V42.2H47.8V47v1.1v1.5v0.3c-0.4-0.1-0.7-0.1-1.1-0.3c-0.8-0.3-1.5-0.8-2-1.5c-0.1-0.1-0.3-0.4-0.3-0.5c-0.3-0.5-0.4-1.2-0.4-2
		c0.1-4.1,4.8-4.4,6.1-4.4c0.1,0,0.3,0,0.4,0h0.1l0,0h5.1v-0.9v-1.3c5.9-1.3,11.6-3.6,16.8-6.8C74.2,35.8,75,39.8,75,44.1z M72,30.8
		c-5.1,3.1-10.5,5.3-16.2,6.7v-5.7h-6.7c-0.4,0-0.7,0-1.1,0c-2.1,0-4.3,0.3-6,0.7c0.1-0.7,0.3-1.3,0.3-2.1c0.5,0,0.9,0,1.5,0
		c8.4,0,16.4-2.4,23.3-6.9C69.1,25.4,70.7,28,72,30.8z M43.4,12.4c4.9,0,9.9,1.2,14.4,3.5c-4.4,2.3-9.2,3.5-14.1,3.5
		c-5.1,0-10-1.2-14.2-3.6C33.6,13.6,38.5,12.4,43.4,12.4z M27.7,16.6c4.8,2.8,10.3,4.3,15.8,4.3c5.5,0,10.9-1.5,15.7-4.1
		c2.5,1.5,4.9,3.3,6.9,5.5c-6.7,4.3-14.4,6.7-22.4,6.7c-0.5,0-0.9,0-1.5,0c-0.4-6.5-6-8.9-10.8-8.9h-8.4
		C24.6,18.6,26.1,17.4,27.7,16.6z M11.7,44.1c0-4.3,0.8-8.4,2.5-12.4c0,0,0.1,0,0.1,0.1v14.5h12.8v-6.8h4.4c0.1,0,0.1,0,0.3,0
		c-0.8,1.7-1.3,3.6-1.3,5.7c0,0,0,0,0,0.1c0,0,0,0,0,0.1c0,0,0,0,0,0.1c0,0,0,0,0,0.1c0,1.3,0.1,2.7,0.5,3.9
		c-5.9,1.3-11.6,3.7-16.8,6.9C12.7,52.5,11.7,48.3,11.7,44.1z M14.8,57.6c5.2-3.2,10.8-5.5,16.6-6.9c1.2,3.2,3.7,5.6,7.1,7.2
		c-6.8,0.8-13.2,3.2-18.8,7.1C17.7,62.7,16.1,60.3,14.8,57.6z"/>
</g>
</svg>
