<?xml version="1.0" encoding="utf-8"?>
<!-- Generator: Adobe Illustrator 22.0.1, SVG Export Plug-In . SVG Version: 6.00 Build 0)  -->
<svg version="1.1" id="Слой_1" xmlns="http://www.w3.org/2000/svg" xmlns:xlink="http://www.w3.org/1999/xlink" x="0px" y="0px"
	 viewBox="0 0 68.2 88" style="enable-background:new 0 0 68.2 88;" xml:space="preserve">
<style type="text/css">
	.st0{opacity:0.5;}
	.st1{fill:#FFFFFF;}
</style>
<g class="st0">
	<g>
		<path class="st1" d="M63.9,29.3c-0.4,0-0.7,0-1.1,0.1c1.3-0.5,2.4-1,3.1-1.7c0.7-0.7,1.3-1.8,1.1-2c-0.2-0.5-2-0.4-2.9-0.2
			c-0.1,0-0.4,0.1-0.6,0.1c0.6-0.5,1.2-1,1.7-1.7c0.5-0.8,1-2.4,0.7-2.6c-0.4-0.4-2,0.1-2.9,0.5c-0.1,0-0.1,0-0.2,0.1
			c0.8-0.7,1.4-1.6,1.8-2.3c0.5-1.1,0.5-2.4,0-3.2c-0.1-0.1-0.2-0.2-0.2-0.2c-0.1,0-0.2,0-0.4,0.1c-0.5,0.5-1.8,1.8-2.4,2.4
			c-0.6,0.6-1.3,1.2-2.2,1.9c1.2-1.4,2.3-3,2.9-4.1c1-1.9,1.2-4.9,0-5.6c-0.2-0.1-0.5-0.2-0.6-0.1c-0.2,0-0.4,0.1-0.5,0.4
			c-1.1,2-3.2,5.7-5.4,8.5c-0.1-0.1-0.1-0.2-0.2-0.4l-0.1-0.1l-0.1,0.2c-0.5,1.3-1.6,2.9-2.9,3.8c-0.1-0.2-0.1-0.4-0.2-0.6l-0.2-0.4
			L52,22.5c-0.6,1.1-1.6,1.9-2.5,2.8c-0.5,0.4-0.8,0.8-1.2,1.2c-1,1.1-1.7,1.9-1.7,3.1c0,1,0.5,1.4,0.8,1.8c0.4,0.4,0.7,0.7,0.7,1.3
			c0,0.4-0.2,0.8-0.6,1.2c-0.4,0.4-1.1,0.8-2.2,1c-1,0-1.7-0.4-2.2-1.2c0.2,0,0.6-0.1,0.7-0.4c0.6-0.4,0.7-1.1,0.8-1.6
			c0-0.5,0-1-0.2-1.3l-0.1-0.1c0,0-0.1,0-0.1,0.1c-0.2,0.4-0.8,0.6-1.4,0.6c-1,0-1.6-0.5-2-1c0.2,0.1,0.5,0.1,0.7,0.1
			c0.5,0,1-0.2,1.2-0.6c0.2-0.2,0.4-0.6,0.4-1c0-0.1,0-0.1-0.1-0.1h-0.1c-0.2,0.2-0.6,0.4-1,0.4c-1,0-1.7-1.1-1.8-2
			c0-0.2,0-0.5,0-0.7c0.1-1.6,1.1-3.1,2.5-4.4l0.1,0.1c0.1,0.1,0.4,0.1,0.6,0c0.5-0.2,1-0.4,1.3-0.4c1,0,1.7,0.2,2,0.7
			c0.2,0.4,0.4,0.6,0.2,1c0,0.1,0,0.2-0.1,0.4c0.4-0.1,0.8-0.6,0.8-1.2c0-0.5-0.4-1-1-1.2c-0.1,0-0.1-0.1-0.2-0.1h0.1l0,0
			c0.4,0.1,0.7,0.4,1.1,0.6c0.6,0.4,1.2,0.7,2,0.7c1.4,0,2.2-1.2,2.3-2.2c0-0.1,0-0.1-0.1-0.1c-0.1,0-0.1,0-0.2,0.1
			C51.5,20.5,51,21,50.3,21c-0.7,0-1.4-0.2-2.2-0.5c-0.6-0.2-1.2-0.5-1.8-0.5c-0.1,0-0.2,0-0.5,0c0.4-0.1,0.7-0.2,1.1-0.4
			c0.8-0.2,2-0.1,2.5,0.6l0,0l0.1,0.1c0.1-0.1,0.4-0.2,0.5-0.5c0.2-0.4,0.5-0.8,0.5-1.4c0-0.7-0.4-1.3-0.8-1.7
			c-0.5-0.4-1.2-0.6-1.8-0.6c0-0.2-0.1-0.4-0.2-0.5c-0.1-0.1-0.4-0.1-0.5-0.1c0-0.1,0-0.2-0.1-0.2c0.6-0.1,1.1-0.1,1.4-0.2
			c0.2-0.1,0.5-0.1,0.7-0.2l0,0c1.8-0.6,2.2-1.6,2.2-2.2c0.1-0.8-0.1-1.3-0.4-1.8c0-0.4-0.1-0.7-0.1-1.2c0-0.4,0.1-0.6,0.2-0.7
			l0.5,0.2c0.4,0.1,0.6,0.2,1,0.4l0,0c1,0.4,1.2,1.1,1.2,1.4c0,0.7-0.2,1.1-0.5,1.6c-0.2,0.4-0.5,0.7-0.5,1.4s0.2,1.2,0.6,1.6
			c0.2,0.4,0.5,0.6,0.5,1s-0.1,0.6-0.2,0.8s-0.2,0.4-0.4,0.5c0.1,0,0.5-0.1,0.6-0.1c0.7-0.4,1.2-0.8,1.2-1.6c0-0.5-0.2-0.7-0.5-1
			c-0.1-0.2-0.2-0.4-0.4-0.6v-0.2c0.4,0.5,0.8,0.8,1.3,0.8c0.2,0,0.5-0.1,0.6-0.1c0.1,0,0.2-0.1,0.4-0.1c0.1,0,0.2,0,0.4,0.1
			c0.1,0.1,0.1,0.2,0.1,0.4c0,0.1-0.1,0.2-0.2,0.4c0.1,0,0.2-0.1,0.5-0.2l0,0c0.5-0.4,0.6-0.7,0.6-1.2c0-0.6-0.4-1.1-1-1.1
			c-0.2,0-0.4,0.1-0.5,0.1c-0.1,0.1-0.2,0.1-0.5,0.1s-0.2-0.1-0.2-0.4c0-0.2,0.2-0.5,0.5-0.7c0.4-0.4,0.8-0.8,0.8-1.6
			c0-0.8-0.7-1.8-2.6-2c-0.4-0.2-0.7-0.6-1-1l-0.5-0.5c-0.2-0.2-1-1-1.7-0.8c-0.2,0-0.5,0.2-0.7,0.4c-0.4,0.2-0.7,0.5-1.2,0.7l0,0
			c-0.1,0-0.2,0.1-0.4,0.2c-0.4,0.4-0.4,0.8-0.4,1.1c0,0.6,0.4,1.3,0.6,2c0.2,0.6,0.5,1.1,0.5,1.6c0.1,1.1-0.7,1.7-2.8,2.2
			c0-0.8,0.2-1.6,0.4-2c0.1-0.5,0.4-0.8,0.4-1.3c0-1.1-1-1.4-1.9-1.4c0,0-0.1,0-0.1,0.1c0,0.1,0,0.2,0,0.4h-0.4c0-0.1,0-0.4,0-0.5
			c0,0,0-0.1-0.1-0.1H45c0.1-0.1,0.2-0.2,0.2-0.5c0-0.1-0.1-0.4-0.2-0.5h0.1h0.1l0,0l0,0l-0.1-0.1c0-0.1-0.1-0.2-0.1-0.2
			c0.1,0,0.2,0.1,0.2,0.1l0.1,0.1h0.1c0,0,0,0,0-0.1V7.8c0,0,0,0,0-0.1h-0.1c-0.1,0-0.2,0.1-0.4,0.2c0.1-0.1,0.1-0.2,0.2-0.4l0,0
			l0,0c0,0,0,0-0.1,0h-1h-0.1l0,0l0,0l0.2,0.2c0,0.1,0.1,0.2,0.1,0.2c-0.1,0-0.2-0.1-0.2-0.1l-0.2-0.1h-0.1c0,0,0,0,0,0.1v1V9h0.1
			l0.1-0.1c0.1,0,0.2-0.1,0.2-0.1c0,0.1-0.1,0.2-0.1,0.2l-0.1,0.1l0,0l0,0c0,0,0,0,0.1,0h0.1c-0.1,0.1-0.2,0.2-0.2,0.5
			c0,0.2,0.1,0.4,0.2,0.5h-0.1c0,0-0.1,0-0.1,0.1c0,0.1,0,0.4,0,0.5h-0.4c0-0.1,0-0.2,0-0.4c0,0,0-0.1-0.1-0.1
			c-0.8,0-1.9,0.4-1.9,1.4c0,0.5,0.1,0.8,0.4,1.3c0.2,0.5,0.4,1.1,0.4,1.9c-0.5-0.1-0.8-0.2-1.1-0.4c-1.7-0.6-3.1-1.6-4.2-2.8v-1.1
			c0.5-0.8,1-1.8,1.3-2.8c0.8-2.4-0.5-3.4-2.5-3.8c0,0-0.2,0-0.6,0.1v0.4h-0.5V4.1c-0.1,0-0.1,0-0.2,0C35,4,35.1,3.6,35.1,3.2
			S35,2.6,34.7,2.5h0.4c-0.1-0.2-0.5-0.6-0.6-0.8c0.2,0,0.6,0.5,0.8,0.6v-2c-0.2,0.1-0.6,0.5-0.8,0.6c0-0.2,0.5-0.6,0.6-0.8h-1h-1
			c0.1,0.2,0.5,0.6,0.6,0.8c-0.2,0-0.6-0.5-0.8-0.6v1.9c0.2-0.1,0.6-0.5,0.8-0.6c0,0.2-0.5,0.6-0.6,0.8h0.4
			c-0.2,0.2-0.4,0.5-0.4,0.7c0,0.4,0.2,0.7,0.5,0.8c-0.1,0-0.1,0-0.2,0v0.5h-0.5V4.2c-0.4-0.1-0.6,0-0.8,0.1c-2,0.5-3.4,1.4-2.5,3.8
			c0.4,0.8,0.7,1.9,1.3,2.8V12c-1.1,1.2-2.5,2.2-4.2,2.8c-0.2,0.1-0.6,0.2-1.1,0.4c0-0.8,0.2-1.4,0.4-1.9c0.1-0.5,0.4-0.8,0.4-1.3
			c0.1-1.3-0.8-1.7-1.8-1.7c0,0-0.1,0-0.1,0.1c0,0.1,0,0.2,0,0.4h-0.4c0-0.1,0-0.4,0-0.5c0,0,0-0.1-0.1-0.1h-0.1
			c0.1-0.1,0.2-0.2,0.2-0.5c0-0.1-0.1-0.4-0.2-0.5h0.1h0.1l0,0l0,0L23.9,9c0-0.1-0.1-0.2-0.1-0.2c0.1,0,0.2,0.1,0.2,0.1L24.2,9h0.1
			c0,0,0,0,0-0.1V7.8c0,0,0,0,0-0.1h-0.1c-0.1,0-0.2,0.1-0.4,0.2c0.1-0.1,0.1-0.2,0.2-0.4l0,0l0,0c0,0,0,0-0.1,0h-1h-0.1l0,0l0,0
			l0.2,0.2c0,0.1,0.1,0.2,0.1,0.2C23.1,8,23,7.9,23,7.9l-0.1-0.1h-0.1c0,0,0,0,0,0.1v1V9h0.1L23,8.9c0.1,0,0.2-0.1,0.2-0.1
			c0,0.1-0.1,0.2-0.1,0.2L23,9.1l0,0l0,0c0,0,0,0,0.1,0h0.1C23.1,9.2,23,9.3,23,9.6c0,0.2,0.1,0.4,0.2,0.5h-0.1c0,0-0.1,0-0.1,0.1
			c0,0.1,0,0.4,0,0.5h-0.4c0-0.1,0-0.2,0-0.4c0,0,0-0.1-0.1-0.1c-0.8,0-1.9,0.4-1.9,1.4c0,0.5,0.1,0.8,0.4,1.3
			c0.2,0.6,0.5,1.2,0.4,2c-2-0.5-2.9-1.1-2.8-2.2c0-0.4,0.2-1,0.5-1.6c0.4-0.7,0.6-1.4,0.6-2c0-0.2,0-0.7-0.4-1.1
			C19.2,8,19,7.9,18.9,7.9l0,0c-0.5-0.1-0.8-0.5-1.2-0.7c-0.4-0.2-0.6-0.4-0.7-0.4c-0.7-0.1-1.3,0.5-1.7,0.8l-0.5,0.5
			c-0.2,0.4-0.6,0.7-1,1c-1.9,0.2-2.6,1.2-2.6,2c0,0.7,0.5,1.2,0.8,1.6c0.2,0.2,0.5,0.5,0.5,0.7s-0.1,0.4-0.2,0.4
			c-0.2,0-0.4,0-0.5-0.1c-0.1-0.1-0.2-0.1-0.5-0.1c-0.6,0-1,0.4-1,1.1c0,0.5,0.2,0.8,0.6,1.2l0,0c0.1,0.1,0.2,0.1,0.5,0.2
			c-0.1-0.4-0.1-0.5-0.1-0.6s0-0.2,0.1-0.4c0.1-0.1,0.2-0.1,0.4-0.1c0.1,0,0.2,0,0.4,0.1s0.4,0.1,0.6,0.1c0.5,0,1.1-0.4,1.3-0.8
			c0,0.1,0,0.2,0,0.2c0,0.2-0.2,0.4-0.4,0.6c-0.2,0.2-0.5,0.5-0.5,1c0,0.7,0.5,1.2,1.2,1.6c0.1,0,0.5,0.1,0.6,0.1
			c-0.1-0.1-0.2-0.2-0.4-0.5c-0.1-0.2-0.2-0.5-0.2-0.8c0-0.5,0.2-0.7,0.5-1c0.2-0.4,0.6-0.8,0.6-1.6c0-0.7-0.2-1.1-0.5-1.4
			c-0.2-0.4-0.5-0.7-0.5-1.6c0-0.4,0.1-1.2,1.2-1.4l0,0c0.4-0.1,0.6-0.2,1-0.4L17.1,9c0.1,0.2,0.2,0.5,0.2,0.7
			c0,0.5-0.1,0.8-0.4,1.3c-0.2,0.5-0.4,1-0.4,1.8c0,0.6,0.4,1.6,2.2,2.2l0,0c0.2,0.1,0.5,0.1,0.7,0.2c0.4,0.1,0.8,0.1,1.4,0.2
			c0,0.1-0.1,0.1-0.1,0.2c-0.1,0-0.4,0-0.5,0.1c-0.1,0.1-0.2,0.4-0.2,0.5c-0.4-0.1-1.1,0.1-1.6,0.5c-0.6,0.5-0.8,1.1-0.8,1.7
			c0,0.6,0.1,1.1,0.5,1.4c0.1,0.1,0.2,0.4,0.5,0.5c0,0,0-0.1,0.1-0.1l0,0c0.5-0.7,1.6-0.8,2.5-0.6c0.4,0.1,0.7,0.2,1.1,0.4
			c-0.1,0-0.4,0-0.5,0c-0.6,0-1.2,0.2-1.8,0.5c-0.7,0.2-1.4,0.6-2.2,0.5c-0.7,0-1.2-0.5-1.3-0.8c0-0.1-0.1-0.1-0.2-0.1
			s-0.1,0.1-0.1,0.1c0,0.8,0.8,2.2,2.3,2.2c0.8,0,1.4-0.4,2-0.7c0.4-0.2,0.7-0.5,1.1-0.6l0,0h0.1c-0.1,0-0.1,0-0.2,0.1
			c-0.6,0.2-1,0.7-1,1.2c0,0.6,0.5,1.1,0.8,1.2c0-0.1,0-0.2-0.1-0.4c0-0.4,0.1-0.6,0.2-1c0.4-0.5,1.2-0.7,2-0.7
			c0.4,0,0.8,0.1,1.3,0.4c0.2,0.1,0.4,0.1,0.6,0c0.1,0,0.1-0.1,0.1-0.1c1.6,1.3,2.4,2.9,2.5,4.4c0,0.2,0,0.6,0,0.7
			c-0.1,1.1-0.8,2-1.8,2c-0.4,0-0.7-0.1-1-0.4h-0.1l-0.1,0.1c0,0.4,0.1,0.7,0.4,1c0.2,0.4,0.7,0.5,1.2,0.6c0.2,0,0.5,0,0.7-0.1
			c-0.5,0.5-1.1,1-2,1c-0.6,0-1.2-0.2-1.4-0.6l-0.1-0.1c0,0-0.1,0-0.1,0.1c-0.2,0.4-0.4,0.7-0.2,1.3c0,0.5,0.2,1.1,0.8,1.6
			c0.2,0.1,0.5,0.2,0.7,0.4c-0.5,0.8-1.2,1.2-2.2,1.2c-1.1,0-1.8-0.6-2.2-1c-0.4-0.4-0.6-0.8-0.6-1.2c0-0.6,0.4-1,0.7-1.3
			c0.5-0.4,1-0.8,0.8-1.8c0-1.2-0.7-2-1.7-3.1c-0.4-0.4-0.7-0.7-1.2-1.2c-0.8-0.7-1.8-1.7-2.5-2.8l-0.1-0.2L16,22.5
			c-0.1,0.1-0.2,0.4-0.2,0.6c-1.2-1-2.3-2.4-2.9-3.8L12.8,19l-0.1,0.1c-0.1,0.1-0.2,0.2-0.2,0.4C10.2,16.8,8,13.1,6.9,11
			c-0.1-0.2-0.2-0.4-0.4-0.4c-0.2,0-0.4,0-0.6,0.1c-1.2,0.8-1,3.8,0,5.6c0.6,1.2,1.7,2.6,2.9,4.1C8,19.8,7.3,19,6.7,18.6
			c-0.7-0.6-2-1.9-2.4-2.4C4.2,16,4.1,16,4,16s-0.2,0-0.2,0.2c-0.5,0.8-0.5,2,0,3.2c0.4,0.7,1,1.6,1.8,2.3c-0.1,0-0.1-0.1-0.2-0.1
			c-0.7-0.2-2.5-0.8-2.9-0.5c-0.2,0.4,0.2,1.9,0.7,2.6c0.5,0.7,1.1,1.2,1.7,1.7c-0.2-0.1-0.5-0.1-0.6-0.1c-0.8-0.1-2.6-0.2-2.9,0.2
			c-0.1,0.4,0.4,1.4,1.1,2c0.7,0.7,1.8,1.2,3.1,1.7c-0.5,0-0.8,0-1.2,0c-0.8,0-2.6,0.2-2.8,0.7c-0.1,0.2,0.2,0.6,0.4,0.8
			c0.2,0.4,1.2,1.6,3.1,1.9c-0.1,0-0.2,0-0.2,0c-1.1,0.1-2.5,0.8-2.5,1.2c0,0.1,0.2,0.7,0.8,1.2c0.2,0.2,0.5,0.4,0.8,0.5H3.8
			c0,0,0,0-0.1,0.1l0,0c0,0,0,0,0,0.1L3.8,36l0,0l0,0c-0.1,0.1-0.1,0.1-0.1,0.2v0.1c0,0,0,0.1,0.1,0.1C4,36.6,4,36.6,4,36.6l0,0
			c0,0,0,0.1-0.1,0.1l0,0c0-0.1-0.1-0.1-0.2-0.1l0,0v-0.1c0,0,0-0.1-0.1-0.1H3.4H3.2c0,0-0.1,0-0.1,0.1v0.1v0.1l0,0l0,0L3,36.6
			c0,0,0,0-0.1,0c0,0,0,0-0.1,0H2.6c-0.1,0-0.1,0.1-0.1,0.2l0,0l0,0l0,0l0,0c-0.1,0.1-0.1,0.2-0.1,0.4v0.1l0,0
			c-0.1,0-0.1-0.1-0.1-0.1H2.2c0,0-0.1,0-0.1,0.1s0,0.2,0,0.4v0.1L1.9,38c0,0.1,0,0.1,0,0.2c0,0,0,0.1,0.1,0.1c0,0,0,0,0,0.1v0.1
			c0,0.1,0.1,0.1,0.1,0.1L2,38.8c0,0,0,0,0,0.1C2,39,2.2,39,2.2,39v0.1l0,0c0,0,0,0.1,0.1,0.1c0,0,0,0,0.1,0v0.1l0,0
			c0,0.1,0.1,0.1,0.1,0.1l0,0l0,0l0,0v0.1l0,0l0.1,0.1c0,0,0,0,0.1,0l0,0c0,0,0,0,0.1,0c0,0,0,0,0.1,0l0,0c0,0,0,0,0.1,0l0.5,0.5
			l0,0c0,0,0,0,0,0.1l0,0l0,0c0,0,0,0,0.1,0c0,0,0,0,0.1,0.1c0,0,0,0.1,0.1,0.1v0.1l0,0c0,0,0,0.1,0.1,0.1c0,0,0,0,0.1,0
			c0,0,0,0,0.1,0h0.1l0,0h0.1c0,0,0,0,0.1,0s0.1,0,0.2,0v-0.1l0,0l0,0l0,0l0,0l0,0l0,0l0,0l0,0c0,0,0,0,0-0.1l0,0c0,0,0,0,0,0.1
			c0,0.1,0,0.1,0,0.2l0,0L5,41.1l0,0l0,0l0,0c0,0,0,0,0.1,0.1h0.1l0,0l0,0c0.1,0,0.1,0,0.2,0h0.1h0.1c-0.1,0.2-0.2,0.4-0.2,0.6
			c0,0.5,0.2,0.7,0.7,0.8c-0.1,0.4,0,0.6,0.5,0.7l4,9.6c-0.1,0.5,0,0.8,0.4,1c-0.1,0.1-0.1,0.2-0.1,0.5c0.2-0.1,0.5-0.1,0.5,0.1
			c0.1,0.2-0.4,1,0.2,1.4c-0.1,0.5,0.1,0.8,0.6,1.1c0,0.2,0.2,1,0.2,1.2c-0.2,0.4-1,1-0.8,1.7c0.1,0.5,0.2,0.6,0.6,0.7
			c-0.1,0.8,0.4,1.2,1.1,1.3c0,0.6,0.6,0.8,1,0.8c0.4,0.2,0.5,0.4,0.8,0.6c-0.4,0.5-0.1,1.1,0.6,1.2c0.1,0.2,0.4,0.5,0.7,0.6
			c0.2,0.4,0.6,0.4,0.8,0.2c0.1-0.1,0.5-0.5,0.2-1c0.1-0.2,0.1-0.5,0-0.7c0.2-0.5,0-1-0.2-1.1c0-0.2-0.1-0.6-0.1-0.8
			c0.5-0.4,1.2-0.7,1.4-1c1.3-1,2.9-1.8,4.5-1.9c0.5,0,1.2,0,1.7,0c0.7,0.1,1.7,0.2,2.3-0.1c0.1-0.1,0.2-0.2,0.2-0.5
			c-0.1-0.5-0.6-0.8-0.7-1.2c0-0.1-0.1-0.2-0.1-0.4c0.2,0.1,0.5,0.1,0.7,0.1c0.7,0,1.6-0.7,1.6-1.7c-0.1,0-0.2,0.1-0.2,0.1
			c-0.4,0.1-1,0.2-1.4-0.1c-0.4-0.2-0.6-0.6-0.6-1.1c0-1.1,1-1.8,1.9-1.8c1.2,0,2.8,1.1,2.8,2.9c0,0.8-0.6,1.2-1.1,1.6
			s-1.1,0.7-1.2,1.4c0,0.4,0,0.7,0,0.7s0.2-0.4,0.5-0.6c0.2-0.1,0.6-0.4,1.1-0.4c0.1,0,0.2,0,0.5,0c-0.6,0.5-1.4,1-2.4,1.3
			c-1.1,0.5-2,1.1-2.6,1.6c-0.7,0.5-1.2,0.8-1.7,0.8c-0.4,0-0.6-0.2-0.6-0.4c-0.1-0.4,0-1.1,0.2-1.3c-0.1,0-0.4,0-0.6,0
			c-0.5,0.2-1.3,0.7-1.3,1.8c0,0.5,0.1,1.1,0.8,1.4c-0.4,0.1-0.7,0.4-1,0.7c-0.4,0.4-0.5,0.8-0.5,1.3c0,0.1,0,0.2,0,0.5
			c0.1,0.6,0.4,1,0.6,1.2c0.2,0.2,0.4,0.5,0.4,0.8c0,0.1,0,0.2,0,0.2l-0.1,0.2l0.2-0.1c0.6-0.2,0.7-0.7,0.8-1.2
			c0.1-0.4,0.1-0.7,0.4-0.8c0,0.1,0,0.1,0,0.2c0,0.7,0.2,1.3,0.6,1.8c0.5,0.6,1.1,0.8,1.8,0.8c0.8,0,1.3-0.4,1.8-0.7l0,0
			c0.5,1.2,1.4,1.9,2.8,1.9c0.6,0,1.2-0.2,1.7-0.5c0.2,0.5,0.5,1,0.8,1.3c0.2,0.2,0.5,0.5,0.7,0.6h0.1H34c0.7-0.5,1.2-1.1,1.6-1.9
			c0.5,0.4,1.1,0.5,1.7,0.5c0.8,0,1.6-0.4,2.2-1c0.2-0.2,0.5-0.6,0.6-1.1l0,0c0.5,0.4,1,0.7,1.8,0.7c0.7,0,1.3-0.2,1.8-0.8
			c0.4-0.5,0.6-1.1,0.6-1.8c0-0.1,0-0.1,0-0.2c0.2,0.2,0.4,0.5,0.4,0.8c0.1,0.4,0.1,0.7,0.4,1c0.1,0.1,0.6,0.4,0.7,0.4
			c-0.1-0.1-0.1-0.4-0.1-0.6c0-0.4,0.1-0.5,0.4-0.8s0.5-0.6,0.6-1.2c0-0.1,0-0.2,0-0.5c0-0.5-0.1-1-0.5-1.3c-0.2-0.4-0.6-0.6-1-0.7
			c0.7-0.4,0.8-1,0.8-1.4c0-1-0.6-1.4-1.2-1.8c-0.2-0.1-0.5-0.1-0.8-0.1c0.4,0.2,0.5,1,0.2,1.3c-0.1,0.1-0.2,0.4-0.6,0.4
			c-0.5,0-1-0.4-1.7-0.8c-0.7-0.5-1.6-1.1-2.6-1.6c-1-0.4-1.8-0.8-2.4-1.3c0.1,0,0.2,0,0.5,0c0.5,0,0.8,0.2,1.1,0.4
			c0.2,0.1,0.5,0.6,0.5,0.6s0-0.4,0-0.7c-0.1-0.7-0.7-1.1-1.2-1.4c-0.6-0.4-1.1-0.7-1.1-1.6c0-1.8,1.7-2.9,2.8-2.9
			c1,0,1.9,0.7,1.9,1.8c0,0.5-0.2,0.8-0.6,1.1c-0.5,0.4-1.1,0.2-1.4,0.1c0,0-0.1-0.1-0.2-0.1c0,1,0.8,1.6,1.6,1.7
			c0.4,0,0.7-0.1,1.1-0.2c0,0.1,0,0.2,0,0.2c-0.1,1.2-0.7,1.3-0.5,1.8c0.4,0.4,2.4,0.4,3,0.4c1,0.1,1.8,0.5,2.8,0.7
			c1.1,0.2,2.2,0.2,3.1,0.6c0.6,0.2,1.4,1,1.9,1.1c0.5,0.1,0.8,0.5,1.3,0.5c0.6,0,0.7-0.5,1.4-0.6c0.5-0.1,1.1,0.1,1.4-0.1
			c0.4-0.1,0.5-0.5,0.7-0.6c0.4-0.2,1-0.2,1.3-0.6c0.1-0.1,0.2-0.5,0.2-0.6c0.7-0.5,1.3-1.2,1.6-2.2c0.1,0,0.4-0.1,0.4-0.4
			c0,0,0,0,0-0.1c0.2-0.1,0.4-0.4,0.4-0.6s-0.1-0.5-0.4-0.6c0,0,0,0,0-0.1c0-0.1-0.1-0.2-0.1-0.4c-0.2-1.7-1.6-3-3.1-3.4l0,0l0,0
			l-0.1-0.1c-0.2-0.2-0.5-0.6-0.5-0.7c0.2,0,0.7,0.5,1,0.6V49c-0.2,0.2-0.6,0.6-1,0.6c0.1-0.2,0.5-0.7,0.6-1h-2.2
			c0.2,0.2,0.6,0.6,0.6,1c-0.2,0-0.7-0.5-1-0.6v2.2c0.2-0.2,0.6-0.6,1-0.6c0,0.2-0.5,0.7-0.6,1H55c-1.7,0.4-3,1.7-3.2,3.5
			c-0.1,0.1-0.2,0.2-0.2,0.4v0.1c-0.2,0.1-0.4,0.4-0.4,0.7c0,0.2,0.1,0.5,0.4,0.6c0,0,0,0,0,0.1c0,0.2,0.2,0.4,0.4,0.4
			c0.1,0.2,0.1,0.4,0.2,0.6c-0.1,0.6-0.8,1-1.1,1c-1.3,0.1-2.9-0.4-4.2-0.8c-0.6-0.2-1.4-0.5-1.8-1.1c-0.1-0.1-0.2-0.5-0.2-1
			c0.1,0.2,0.4,0.4,0.5,0.5l0.4,0.2l0.5-0.1c0-0.1,0-0.2,0-0.4V56c0.2,0.4,0.7,1,1.4,1h0.4l-0.2-0.1c-0.2-0.2-0.5-0.7-0.5-1.3
			c0-0.2,0-0.4,0.1-0.6c0.2,0.4,0.7,0.7,1.4,0.7c1.2,0,1.8-1.2,1.9-1.7c-0.2,0.5-0.6,0.5-1,0.6c-0.4,0-0.7-0.2-0.8-0.8
			c0-0.2,0-0.5,0.1-0.8c0.1-0.4,0.1-1,0.1-1.6c-0.1-1.1-0.7-1.7-1.2-2c-0.5-0.4-1.2-0.6-1.8-0.6c0.1-0.1,0.2-0.2,0.2-0.4l0.2-0.4
			l-0.5,0.2c-1,0.2-1.6,0.1-2-0.1c-0.4-0.2-0.6-0.6-0.8-1c0.2,0.1,0.4,0.1,0.6,0.2l0.4,0.1l-0.2-0.4c-0.8-1.3-1-3-0.1-4.7
			c0.1,0,0.2-0.1,0.4-0.2c0.2,0.4,0.5,0.5,0.8,0.6c0.2,0.1,0.5,0.1,0.6,0.4l0.1,0.1l0.1-0.1l0.1-0.1c0,1.3,0,2.5,0.2,2.9
			c0.2,0.5,0.6,0.7,1,1c0.2,0.1,0.5,0.2,0.6,0.5h0.1H48c0.2-0.2,0.4-0.4,0.6-0.5c0.4-0.2,0.6-0.5,0.7-1.1c0.1-0.6-0.1-1.6-0.4-2.5
			L48.8,43c0-0.1,0.1-0.2,0.1-0.4c0.4,1.2,1.1,3.8,1.4,4.5c0.2,0.4,0.5,0.5,0.8,0.5c0.2,0.1,0.6,0.1,0.8,0.4h0.1c0,0,0.1,0,0.1-0.1
			c0.1-0.2,0.2-0.4,0.4-0.6c0.4-0.5,0.7-1,0.5-1.7c-0.4-1-1.2-2.8-1.9-4.1l0,0l0,0l0.8,1.7l1.4,2.6c0.5,0.8,1.2,0.8,1.8,1l0.5,0.1
			c0.1,0,0.1,0,0.2-0.1c0-0.2,0.1-0.4,0.2-0.6c0.4-0.5,0.7-1.1,0.1-2.2c-0.4-0.6-1.1-1.4-1.8-2.4L53.3,40l0,0c0.2,0.2,0.8,1,1.6,1.7
			c0.8,1,1.9,2.2,2.5,2.9c0.5,0.5,1.4,0.6,2.6,0.1c0.1,0,0.1-0.1,0.1-0.1v-0.4c0-0.6,0.1-1.2-0.6-1.9l-0.1-0.1
			c0.6,0.2,1.3,0.2,1.7,0.1c0.4-0.1,0.7-0.2,0.8-0.5c0.1-0.2,0.1-0.6,0-1c-0.1-0.4-0.2-0.7-0.5-1c0.8,0.2,1.6,0.1,1.9-0.1
			c0.5-0.2,0.8-0.6,1-1c0.1-0.4,0-0.8-0.2-1.3c-0.2-0.4-0.6-1-1.4-1.2c0.5,0,0.8-0.1,1.2-0.2c0.5-0.1,1-0.5,1.2-0.7
			c0.6-0.5,0.8-1,0.8-1.2c0-0.4-1.4-1.1-2.5-1.2c-0.1,0-0.1,0-0.2,0c1.9-0.4,2.9-1.6,3.1-1.9c0.1-0.1,0.4-0.6,0.4-0.8
			C66.4,29.6,64.7,29.3,63.9,29.3z M3.8,35.9L3.8,35.9L4,35.8L3.8,35.9z M3.8,38.2H3.7l0,0l0,0C3.7,38.1,3.7,38.1,3.8,38.2
			C3.8,38.1,3.8,38.1,3.8,38.2C4,38.1,4,38.1,4,38l0,0l0,0l0,0c0,0,0,0,0.1,0c0.1,0,0.1,0.1,0.2,0.1l0,0l0,0v0.1H4.2v0.1l0,0l0,0
			C4,38.2,3.8,38.2,3.8,38.2z M4.4,40.5C4.4,40.5,4.3,40.5,4.4,40.5c-0.1,0-0.1,0-0.1,0s0,0-0.1,0l0,0l0,0c0,0,0,0-0.1,0
			c0,0-0.1-0.1-0.2-0.1l0,0l0,0c0,0,0,0,0.1,0l0,0l0,0h0.1c0,0,0.1,0,0.1-0.1l0,0c0,0,0.1,0,0.1-0.1l0,0l0,0c0,0.1,0,0.1,0,0.2l0,0
			l0,0l0,0C4.3,40.2,4.3,40.3,4.4,40.5C4.3,40.3,4.3,40.3,4.4,40.5C4.4,40.3,4.4,40.5,4.4,40.5L4.4,40.5z M4.5,37.1L4.5,37.1
			L4.5,37.1c-0.1,0.1-0.1,0.1-0.1,0.1l0,0l0,0l0,0l0,0l0,0l0,0l0,0l0,0l0,0l0,0l0,0l0,0l0,0l0,0l0,0l0,0C4.5,37,4.5,37,4.5,37.1
			C4.5,37,4.5,37,4.5,37.1C4.5,37,4.5,37,4.5,37.1C4.5,37.1,4.7,37.1,4.5,37.1L4.5,37.1z M4.7,36.5L4.7,36.5L4.7,36.5L4.7,36.5
			C4.5,36.5,4.5,36.5,4.7,36.5c-0.1,0-0.1-0.1-0.1-0.2v-0.1c0,0,0-0.1-0.1-0.1c-0.1,0-0.1-0.1-0.4,0l0,0l0,0l0,0l0,0h0.1
			c0.1,0,0.4,0.1,0.5,0.1l0,0v0.1v0.1l0,0C4.7,36.4,4.7,36.4,4.7,36.5z M7.7,43c0.2-0.4,0.1-0.7-0.2-0.8V42l0,0c0.4,0,0.8,0,1.2-0.2
			l-0.1,0.1c-0.6,0.6-0.6,1.2-0.6,1.8L7.7,43z M24.2,48.1c-0.4,0.2-1.1,0.5-2,0.1l-0.5-0.1l0.2,0.4c0.1,0.1,0.2,0.2,0.2,0.4
			c-0.6,0-1.3,0.2-1.8,0.6c-0.5,0.4-1.1,1-1.2,2c-0.1,0.6,0,1.1,0.1,1.6c0,0.4,0.1,0.6,0.1,0.8c-0.1,0.6-0.5,0.8-0.8,0.8
			c-0.4,0-0.6-0.1-1-0.6c0.1,0.5,0.7,1.7,1.9,1.7c0.7,0,1.1-0.4,1.4-0.7c0,0.2,0.1,0.4,0.1,0.6c0,0.6-0.2,1.1-0.5,1.3l-0.2,0.2h0.4
			c0.7,0,1.2-0.6,1.4-1v0.1c0,0.1,0,0.2,0,0.4l0,0.2l0.4-0.2c0.2-0.2,0.5-0.4,0.6-0.6c0,0.2,0.1,0.5,0.1,0.7l0,0
			c-0.4,0.2-0.7,0.5-1.3,0.7c-0.7,0.4-2.2,1-3,1.1c-0.6,0.1-1.8-0.2-2-1.2s-1.1-1.2-1.6-0.6c-0.1-0.1-0.6-0.2-0.7,0.1
			c0,0-0.2-0.4-0.4-0.6c0.1-0.5,0-1-0.4-1.2c0-0.8-0.6-1-0.7-1.2s-0.1-0.4,0.1-0.5c-0.4-0.2-0.6-0.2-0.7-0.2c0.1-0.4,0-0.8-0.5-1
			l-3.7-7.7c1.1,0.4,1.9,0.2,2.4-0.2c0.6-0.7,1.7-1.8,2.5-2.9c0.7-0.8,1.3-1.4,1.6-1.7l0,0l-1.3,1.7c-0.7,1-1.4,1.8-1.8,2.4
			c-0.6,1.1-0.2,1.7,0.1,2.2c0.1,0.2,0.2,0.4,0.2,0.6c0,0.1,0.1,0.1,0.2,0.1l0.5-0.1c0.6-0.1,1.3-0.1,1.8-1l1.4-2.6l0.8-1.7l0,0l0,0
			c-0.7,1.4-1.4,3.1-1.9,4.1c-0.2,0.7,0.1,1.2,0.5,1.7c0.1,0.2,0.4,0.4,0.4,0.6c0,0,0,0.1,0.1,0.1H16c0.4-0.2,0.6-0.2,0.8-0.4
			c0.4-0.1,0.6-0.1,0.8-0.5c0.4-0.7,1.1-3.4,1.4-4.5c0.1,0.1,0.1,0.2,0.1,0.4l-0.1,0.4c-0.2,1-0.5,1.9-0.4,2.5s0.5,0.7,0.7,1.1
			c0.2,0.1,0.4,0.2,0.6,0.5h0.1h0.1c0.2-0.2,0.5-0.4,0.6-0.5c0.4-0.2,0.7-0.5,1-1c0.2-0.4,0.2-1.6,0.2-2.9l0.1,0.1l0.1,0.1l0.1-0.1
			c0.1-0.1,0.4-0.2,0.6-0.4c0.2-0.1,0.6-0.2,0.8-0.6c0.1,0.1,0.2,0.2,0.4,0.2c0.8,1.8,0.8,3.4-0.1,4.7l-0.2,0.4l0.4-0.1
			c0.2-0.1,0.4-0.1,0.6-0.2C24.9,47.5,24.5,47.9,24.2,48.1z M34.1,2.4L34.1,2.4H34H34.1z M34.1,4L34.1,4C34,4,34,4,34,4
			C34,3.8,34.1,4,34.1,4z M27.9,66.4c-0.1,0-0.2,0-0.4,0c-0.5,0.1-0.7-0.2-0.8-0.4c-0.1-0.1-0.1-0.4-0.1-0.5c0-0.2,0-0.4,0.1-0.6
			c0.4,0.4,0.7,0.6,1.3,0.6C27.9,66,27.9,66.2,27.9,66.4z M30.7,60.7c-0.8,1-1.6,2-2.2,3.1c0,0-0.1,0-0.1-0.1
			c-0.2-0.1-0.4-0.5-0.4-0.8c0-1,1.4-2,2.4-2.8l0.6-0.5c0.5-0.4,1-0.8,1.3-1.3C31.8,59.4,31.2,60,30.7,60.7z M33.3,59.5
			c-0.1,0.8-0.4,1.7-0.5,2.5c-0.4,1.7-0.8,3.5-0.8,5.6c0,0.2,0,0.5,0,0.7c-0.5-0.2-0.8-1.1-0.8-2c0-1.8,0.6-3.2,1.2-4.8
			c0.4-0.8,0.6-1.6,0.8-2.4c0-0.1,0.1-0.4,0.1-0.5C33.4,58.9,33.4,59.1,33.3,59.5z M36.6,67.9c-0.1,0.2-0.2,0.4-0.4,0.4
			c0-0.2,0-0.5,0-0.7c0-2.2-0.4-4-0.8-5.6c-0.2-1.1-0.5-2.2-0.6-3.4c0.2,1.1,0.6,2,1,3c0.6,1.6,1.2,3,1.2,4.8
			C37,67,36.9,67.5,36.6,67.9z M41.5,65c0.1,0.1,0.1,0.4,0.1,0.6c0,0.1,0,0.4-0.1,0.5c-0.1,0.2-0.4,0.5-0.8,0.4c-0.1,0-0.2,0-0.4,0
			c0-0.2,0-0.5-0.1-0.7C40.8,65.6,41.3,65.4,41.5,65z M37.2,59.9l0.6,0.5c1,0.7,2.4,1.8,2.4,2.8c0,0.4-0.1,0.7-0.4,0.8
			c0,0-0.1,0-0.1,0.1c-0.6-1.2-1.3-2.2-2.2-3.1c-0.6-0.7-1.2-1.4-1.6-2.2C36.3,59,36.8,59.5,37.2,59.9z M37.2,15.2L37.2,15.2
			C37.2,15.3,37.2,15.3,37.2,15.2c0.1,0.1,0.1,0.1,0.1,0.1l0,0c0.6,0.6,1.3,1.1,2.3,1.3c-0.6,0-1.2,0-1.7-0.1l0,0
			c-0.1,0-0.2-0.1-0.4-0.1c0.1,0.1,0.1,0.2,0.2,0.4l0,0l0,0l0,0l0,0c0.4,0.4,0.7,0.6,1.1,0.7c-0.8,0.8-2,1.3-3.4,1.4
			c-0.2,0-0.4,0-0.6,0c0.1,0.1,0.2,0.2,0.4,0.4l0,0c0.4,0.2,1,0.4,1.4,0.4c-1,1.4-2.3,3.6-2.6,6.6l0,0c-0.5-3-1.7-5.1-2.6-6.6
			c0.6,0,1.1-0.2,1.4-0.4l0,0c0.1-0.1,0.2-0.2,0.4-0.4c-0.2,0-0.4,0-0.6,0c-1.3-0.1-2.5-0.6-3.4-1.4c0.5-0.1,0.8-0.4,1.1-0.7l0,0
			l0,0l0,0l0,0c0.1-0.1,0.1-0.2,0.2-0.4c-0.1,0-0.2,0.1-0.4,0.1l0,0c-0.5,0.1-1.1,0.2-1.7,0.1c1-0.2,1.7-0.7,2.3-1.3l0,0l0,0l0,0
			l0,0c0.1-0.1,0.1-0.2,0.2-0.5C31,15,30.8,15,30.7,15.1c-0.8,0.2-1.6,0.2-2.5,0.1h-0.7c0.1,0,0.1,0,0.2,0c1.2-0.2,3.6-1.1,5.1-2.5
			c0.4,0,0.8,0,1.3,0l0,0c0.5,0,0.8,0,1.3,0c1.6,1.6,4,2.3,5.1,2.5c0.1,0,0.1,0,0.2,0h-0.7c-1.1,0-1.8,0-2.5-0.1
			c-0.1,0-0.4-0.1-0.5-0.2C37,15,37.1,15.1,37.2,15.2z"/>
	</g>
	<g>
		<path class="st1" d="M0,85.2v-9.5h3.1c1.2,0,1.9,0,2.3,0.1c0.6,0.1,1,0.5,1.3,1c0.4,0.5,0.6,1.1,0.6,1.8c0,0.6-0.1,1.1-0.4,1.4
			s-0.5,0.7-0.8,1c-0.4,0.2-0.6,0.4-1,0.5c-0.5,0.1-1.1,0.1-2,0.1H1.9v3.6H0z M1.9,77.3V80H3c0.7,0,1.3,0,1.6-0.1
			c0.2-0.1,0.5-0.2,0.6-0.5c0.1-0.2,0.2-0.5,0.2-0.7c0-0.4-0.1-0.6-0.4-0.8c-0.2-0.2-0.5-0.4-0.7-0.5c-0.2,0-0.7-0.1-1.4-0.1h-1
			V77.3z"/>
		<path class="st1" d="M8,81.7c0-0.6,0.1-1.2,0.5-1.8c0.2-0.6,0.7-1,1.3-1.3c0.6-0.2,1.2-0.5,1.8-0.5c1.1,0,1.9,0.4,2.5,1
			c0.7,0.7,1,1.6,1,2.5c0,1.1-0.4,1.9-1,2.6c-0.7,0.7-1.6,1.1-2.5,1.1c-0.6,0-1.2-0.1-1.8-0.5c-0.6-0.2-1-0.7-1.3-1.2
			C8.3,83.1,8,82.5,8,81.7z M9.9,81.8c0,0.7,0.1,1.2,0.5,1.6s0.7,0.6,1.2,0.6c0.5,0,0.8-0.2,1.2-0.6c0.4-0.4,0.5-0.8,0.5-1.6
			c0-0.7-0.1-1.2-0.5-1.6c-0.4-0.4-0.7-0.6-1.2-0.6c-0.5,0-0.8,0.2-1.2,0.6C10.1,80.6,9.9,81.1,9.9,81.8z"/>
		<path class="st1" d="M22.4,80.3l-1.8,0.4c-0.1-0.4-0.2-0.6-0.4-0.8c-0.2-0.1-0.5-0.2-0.8-0.2c-0.5,0-0.8,0.1-1.1,0.5
			S18,80.9,18,81.7c0,0.8,0.1,1.4,0.4,1.7c0.2,0.2,0.6,0.5,1.1,0.5c0.4,0,0.6-0.1,0.8-0.2c0.2-0.2,0.4-0.5,0.5-1l1.8,0.4
			c-0.2,0.8-0.6,1.4-1.1,1.9c-0.5,0.4-1.2,0.6-2.2,0.6c-1,0-1.8-0.4-2.4-1C16.3,83.9,16,83,16,81.9c0-1.1,0.4-2,1-2.6s1.4-1,2.4-1
			c0.8,0,1.6,0.2,2,0.6C21.8,79,22.1,79.6,22.4,80.3z"/>
		<path class="st1" d="M23,78.3h6.2v1.4h-2.3v5.4h-1.8v-5.4H23V78.3z"/>
		<path class="st1" d="M29.7,78.3h1.9l1.7,4.9l1.6-4.9h1.9l-2.4,6.6l-0.5,1.2c-0.1,0.4-0.4,0.7-0.5,1c-0.1,0.2-0.4,0.4-0.5,0.5
			c-0.2,0.1-0.4,0.2-0.7,0.4C31.8,88,31.7,88,31.4,88c-0.4,0-0.7,0-1.1-0.1l-0.1-1.4c0.2,0,0.6,0.1,0.7,0.1c0.5,0,0.7-0.1,1-0.4
			c0.2-0.2,0.4-0.6,0.5-1L29.7,78.3z"/>
		<path class="st1" d="M37.7,78.3h1.7v1c0.2-0.4,0.5-0.6,0.8-0.8c0.4-0.2,0.8-0.4,1.2-0.4c0.8,0,1.4,0.4,2,1s0.8,1.4,0.8,2.6
			s-0.2,2-0.8,2.6s-1.2,1-2,1c-0.4,0-0.7-0.1-1.1-0.2c-0.4-0.1-0.6-0.4-1-0.7v3.5h-1.7V78.3z M39.5,81.7c0,0.7,0.1,1.3,0.5,1.7
			c0.4,0.4,0.7,0.6,1.1,0.6c0.5,0,0.7-0.1,1.1-0.5c0.2-0.4,0.5-0.8,0.5-1.7c0-0.7-0.1-1.2-0.5-1.6c-0.2-0.4-0.6-0.5-1.1-0.5
			c-0.5,0-0.8,0.1-1.1,0.5C39.6,80.5,39.5,80.9,39.5,81.7z"/>
		<path class="st1" d="M45.9,78.3h1.8v4.3l2.8-4.3h1.8v6.8h-1.8v-4.3l-2.9,4.4h-1.8v-6.9H45.9z"/>
		<path class="st1" d="M55.9,82.4v-1.2c0.4,0,0.6,0,0.7-0.1c0.1,0,0.2-0.1,0.4-0.2c0.1-0.1,0.2-0.4,0.2-0.6c0-0.2-0.1-0.4-0.2-0.6
			c-0.1-0.2-0.4-0.2-0.7-0.2c-0.2,0-0.5,0-0.6,0.1c-0.1,0.1-0.4,0.4-0.5,0.7l-1.6-0.4c0.1-0.6,0.5-1.1,1-1.3s1.1-0.5,1.8-0.5
			c0.8,0,1.4,0.2,1.9,0.6c0.5,0.4,0.7,0.8,0.7,1.4c0,0.4-0.1,0.6-0.2,0.8c-0.1,0.2-0.5,0.5-1,0.6c0.5,0.1,0.8,0.4,1.2,0.6
			c0.2,0.2,0.4,0.6,0.4,1.1s-0.2,1-0.7,1.4c-0.5,0.5-1.2,0.6-2.2,0.6c-1.7,0-2.6-0.6-3-1.9l1.7-0.4c0.2,0.7,0.7,1,1.3,1
			c0.4,0,0.6-0.1,0.8-0.2c0.2-0.1,0.4-0.4,0.4-0.6c0-0.2-0.1-0.5-0.4-0.6c-0.2-0.1-0.5-0.2-0.8-0.2h-0.6V82.4z"/>
		<path class="st1" d="M60.3,78.3h2.3l1.7,4.8l1.7-4.8h2.3v6.8h-1.6v-4.5L65,85.1h-1.6l-1.6-4.5v4.5h-1.6
			C60.3,85.1,60.3,78.3,60.3,78.3z"/>
	</g>
</g>
</svg>
