<?xml version="1.0" encoding="utf-8"?>
<!-- Generator: Adobe Illustrator 22.0.1, SVG Export Plug-In . SVG Version: 6.00 Build 0)  -->
<svg version="1.1" id="Слой_1" xmlns="http://www.w3.org/2000/svg" xmlns:xlink="http://www.w3.org/1999/xlink" x="0px" y="0px"
	 viewBox="0 0 257.5 88" style="enable-background:new 0 0 257.5 88;" xml:space="preserve">
<style type="text/css">
	.st0{opacity:0.5;}
	.st1{fill:#FFFFFF;}
</style>
<g class="st0">
	<polygon class="st1" points="161.3,35.1 185,0 163.9,0 146.3,26.3 137.5,26.3 137.5,0 120,0 120,70.2 137.5,70.2 137.5,43.9 
		146.3,43.9 163.9,70.2 185,70.2 	"/>
	<polygon class="st1" points="193,0 193,70.2 210.6,70.2 210.6,17.5 239.7,17.5 239.7,70.2 257.3,70.2 257.3,0 	"/>
	<polygon class="st1" points="46.7,17.5 47.5,17.5 64.3,17.5 64.3,16 64.3,0 46.7,0 	"/>
	<polygon class="st1" points="46.7,43.9 47.5,43.9 64.3,43.9 64.3,42.3 64.3,26.3 46.7,26.3 	"/>
	<polygon class="st1" points="46.7,70.2 47.5,70.2 64.3,70.2 64.3,68.6 64.3,52.6 46.7,52.6 	"/>
	<polygon class="st1" points="41,43.9 41,42.3 41,26.3 23.5,26.3 23.5,43.9 24.3,43.9 	"/>
	<polygon class="st1" points="23.5,70.2 24.3,70.2 41,70.2 41,68.6 41,52.6 23.5,52.6 	"/>
	<polygon class="st1" points="0,70.2 0.8,70.2 17.5,70.2 17.5,68.6 17.5,52.6 0,52.6 	"/>
	<polygon class="st1" points="93.7,17.5 95.2,17.5 95.2,17.5 111.2,17.5 111.2,0 93.7,0 	"/>
	<rect x="70.2" class="st1" width="17.5" height="70.2"/>
	<path class="st1" d="M2.6,81H0.3v-1.8h7V81H4.9v6.5H2.6V81z M8.3,79.2h4.1c1.8,0,2.8,1.3,2.8,2.8c0,1.5-1,2.8-2.8,2.8h-1.8v2.8H8.3
		V79.2z M12.1,81h-1.5v1.8h1.8c0.5,0,1-0.3,1-1C13.2,81.3,12.9,81,12.1,81z M20.9,86.2h-3.4L17,87.5h-2.3l3.1-8.5h2.8l3.1,8.5h-2.3
		L20.9,86.2z M18.1,84.4h2.3L19.1,81L18.1,84.4z M30.2,84.1h-3.6v3.4h-2.3V79h2.1v3.1h3.6V79h2.3v8.5h-2.1V84.1z M33.3,83.4
		c0-2.6,2.1-4.4,4.6-4.4c2.1,0,3.1,1,3.9,2.3L40,82.1c-0.3-0.8-1-1.3-1.8-1.3c-1.3,0-2.3,1-2.3,2.6c0,1.3,1,2.3,2.3,2.3
		c0.8,0,1.5-0.5,1.8-1.3l1.8,0.8c-0.5,1-1.5,2.3-3.9,2.3C35.4,87.7,33.3,85.9,33.3,83.4z M48.3,81h-3.6v6.5h-2.1V79h8v8.5h-2.1V81
		H48.3z M56,79c2.6,0,4.6,1.8,4.6,4.4c0,2.6-1.8,4.4-4.6,4.4c-2.6,0-4.6-1.8-4.6-4.4C51.6,80.8,53.4,79,56,79z M56,81
		c-1.3,0-2.3,1-2.3,2.6c0,1.3,0.8,2.3,2.3,2.3c1.3,0,2.3-1,2.3-2.3C58.3,82.1,57.5,81,56,81z M61.7,79.2h4.1c1.8,0,2.8,1.3,2.8,2.8
		c0,1.5-1,2.8-2.8,2.8h-2.1v2.8h-2.1C61.7,87.7,61.7,79.2,61.7,79.2z M65.8,81H64v1.8h1.8c0.5,0,1-0.3,1-1
		C66.6,81.3,66.3,81,65.8,81z M71.7,81h-2.3v-1.8h7V81h-2.3v6.5H72V81H71.7z M83.1,84.1h-3.6v3.4h-2.1V79h2.1v3.1h3.6V79h2.1v8.5
		h-2.1V84.1z M92.1,86.2h-3.6L88,87.5h-2.3l3.1-8.5h2.8l3.1,8.5h-2.3L92.1,86.2z M89.3,84.4h2.3L90.3,81L89.3,84.4z M97,84.4
		c-0.8-0.3-1.8-1-1.8-2.6c0-1.5,1-2.8,2.8-2.8h4.1v8.5h-2.3v-2.8h-1l-1.3,2.8H95L97,84.4z M100.4,81h-1.8c-0.5,0-1,0.3-1,0.8
		c0,0.5,0.5,1,1,1h1.8V81z M109.9,84.4l-0.5,0.8v2.6h-2.1v-8.5h2.1v3.4l2.6-3.4h2.6l-3.4,3.9l3.4,4.4H112L109.9,84.4z M116.9,81.5
		l0.3-2.3h6.2v8.5h-2.1v-6.5H119v1c-0.5,5.2-1.8,5.7-3.9,5.7v-2.1C115.9,85.7,116.6,85.2,116.9,81.5z M127.2,79.2v5.2l3.4-5.2h2.3
		v8.5h-2.3v-5.4l-3.6,5.4h-2.1v-8.5H127.2z M134.5,79.2h4.1c1.8,0,2.8,1.3,2.8,2.8c0,1.5-1,2.8-2.8,2.8h-2.1v2.8h-2.1V79.2z
		 M138.3,81h-1.8v1.8h1.8c0.5,0,1-0.3,1-1C139.4,81.3,138.8,81,138.3,81z M144.8,79.2v5.2l3.4-5.2h2.3v8.5h-2.3v-5.4l-3.6,5.4h-2.1
		v-8.5H144.8z M157.7,84.1h-3.6v3.4H152V79h2.1v3.1h3.6V79h2.1v8.5h-2.1V84.1z M161.3,79.2h6.2V81h-4.1v6.5h-2.1V79.2z M172.4,79
		c2.6,0,4.6,1.8,4.6,4.4c0,2.6-1.8,4.4-4.6,4.4c-2.6,0-4.6-1.8-4.6-4.4C167.7,80.8,169.8,79,172.4,79z M172.4,81
		c-1.3,0-2.3,1-2.3,2.6c0,1.3,0.8,2.3,2.3,2.3c1.3,0,2.3-1,2.3-2.3C174.7,82.1,173.7,81,172.4,81z M178.1,79.2h4.9
		c1.8,0,2.6,1,2.6,2.1c0,1-0.8,1.8-1.5,2.1c0.8,0.3,1.5,1,1.5,2.1c0,1.3-0.8,2.3-2.6,2.3h-4.9V79.2z M182.2,82.3
		c0.5,0,0.8-0.3,0.8-0.8c0-0.5-0.3-0.8-0.8-0.8h-2.1v1.5H182.2z M182.5,85.7c0.5,0,0.8-0.3,0.8-0.8c0-0.5-0.3-0.8-0.8-0.8h-2.3v1.5
		H182.5z M192,86.2h-3.6l-0.5,1.3h-2.3l3.1-8.5h2.8l3.1,8.5h-2.3L192,86.2z M189.2,84.4h2.3l-1.3-3.4L189.2,84.4z M196.9,84.4
		c-0.8-0.3-1.8-1-1.8-2.6c0-1.5,1-2.8,2.8-2.8h4.1v8.5h-2.3v-2.8h-1l-1.3,2.8h-2.6L196.9,84.4z M200.3,81h-1.8c-0.5,0-1,0.3-1,0.8
		c0,0.5,0.5,1,1,1h1.8V81z M212.9,81h-3.6v6.5h-2.1V79h8v8.5h-2.3V81z M221.9,86.2h-3.6l-0.3,1.3h-2.3l3.1-8.5h2.8l3.1,8.5h-2.3
		L221.9,86.2z M219.1,84.4h2.3l-1.3-3.4L219.1,84.4z M226.8,81.5l0.3-2.3h6.2v8.5h-2.1v-6.5h-2.3v1c-0.5,5.2-1.8,5.7-3.9,5.7v-2.1
		C225.8,85.7,226.6,85.2,226.8,81.5z M240.3,86.2h-3.6l-0.5,1.3h-2.3l3.1-8.5h2.8l3.1,8.5h-2.3L240.3,86.2z M237.2,84.4h2.3
		l-1.3-3.4L237.2,84.4z M244.6,81h-2.3v-1.8h7V81H247v6.5h-2.1V81H244.6z M255,86.2h-3.6l-0.5,1.3h-2.3l3.1-8.5h2.8l3.1,8.5h-2.3
		L255,86.2z M252.1,84.4h2.3l-1.3-3.4L252.1,84.4z"/>
</g>
</svg>
