<svg width="53" height="52" viewBox="0 0 53 52" fill="none" xmlns="http://www.w3.org/2000/svg">
<path d="M46.3325 25.4585H11.6658C11.1675 25.4585 10.7125 25.2418 10.4091 24.8518C10.1058 24.4835 9.97579 23.9635 10.0841 23.4868L12.5325 11.7868C13.3341 7.99517 14.9591 4.50684 21.3941 4.50684H36.6258C43.0608 4.50684 44.6858 8.01684 45.4875 11.7868L47.9358 23.5085C48.0441 23.9852 47.9141 24.4835 47.6108 24.8735C47.2858 25.2418 46.8308 25.4585 46.3325 25.4585ZM13.6591 22.2085H44.3175L42.2808 12.4585C41.6741 9.62017 40.9591 7.75684 36.6041 7.75684H21.3941C17.0391 7.75684 16.3241 9.62017 15.7175 12.4585L13.6591 22.2085Z" fill="#E7E6E6"/>
<path d="M46.2458 49.2916H42.1725C38.6625 49.2916 37.9908 47.2766 37.5575 45.9549L37.1241 44.6549C36.5608 43.0083 36.4958 42.7916 34.5458 42.7916H23.4525C21.5025 42.7916 21.3725 43.1599 20.8741 44.6549L20.4408 45.9549C19.9858 47.2983 19.3358 49.2916 15.8258 49.2916H11.7525C10.0408 49.2916 8.39413 48.5766 7.24579 47.3199C6.11913 46.0849 5.57746 44.4383 5.72913 42.7916L6.94246 29.5966C7.26746 26.0216 8.22079 22.2083 15.1758 22.2083H42.8225C49.7775 22.2083 50.7091 26.0216 51.0558 29.5966L52.2691 42.7916C52.4208 44.4383 51.8791 46.0849 50.7525 47.3199C49.6041 48.5766 47.9575 49.2916 46.2458 49.2916ZM23.4525 39.5416H34.5458C38.4891 39.5416 39.4208 41.2966 40.2008 43.5933L40.6558 44.9366C41.0241 46.0416 41.0241 46.0633 42.1941 46.0633H46.2675C47.0691 46.0633 47.8275 45.7383 48.3691 45.1533C48.8891 44.5899 49.1275 43.8749 49.0625 43.1166L47.8491 29.9216C47.5675 26.9966 47.2208 25.4799 42.8658 25.4799H15.1758C10.7991 25.4799 10.4525 26.9966 10.1925 29.9216L8.97913 43.1166C8.91413 43.8749 9.15246 44.5899 9.67246 45.1533C10.1925 45.7383 10.9725 46.0633 11.7741 46.0633H15.8475C17.0175 46.0633 17.0175 46.0416 17.3858 44.9583L17.8191 43.6366C18.3608 41.9033 19.1625 39.5416 23.4525 39.5416Z" fill="#E7E6E6"/>
<path d="M11.6657 18.9583H9.49902C8.61069 18.9583 7.87402 18.2216 7.87402 17.3333C7.87402 16.4449 8.61069 15.7083 9.49902 15.7083H11.6657C12.554 15.7083 13.2907 16.4449 13.2907 17.3333C13.2907 18.2216 12.554 18.9583 11.6657 18.9583Z" fill="#E7E6E6"/>
<path d="M48.4989 18.9583H46.3323C45.4439 18.9583 44.7073 18.2216 44.7073 17.3333C44.7073 16.4449 45.4439 15.7083 46.3323 15.7083H48.4989C49.3873 15.7083 50.1239 16.4449 50.1239 17.3333C50.1239 18.2216 49.3873 18.9583 48.4989 18.9583Z" fill="#E7E6E6"/>
<path d="M28.999 12.4583C28.1107 12.4583 27.374 11.7217 27.374 10.8333V6.5C27.374 5.61167 28.1107 4.875 28.999 4.875C29.8874 4.875 30.624 5.61167 30.624 6.5V10.8333C30.624 11.7217 29.8874 12.4583 28.999 12.4583Z" fill="#E7E6E6"/>
<path d="M32.249 12.4583H25.749C24.8607 12.4583 24.124 11.7216 24.124 10.8333C24.124 9.94492 24.8607 9.20825 25.749 9.20825H32.249C33.1374 9.20825 33.874 9.94492 33.874 10.8333C33.874 11.7216 33.1374 12.4583 32.249 12.4583Z" fill="#E7E6E6"/>
<path d="M22.499 34.125H15.999C15.1107 34.125 14.374 33.3883 14.374 32.5C14.374 31.6117 15.1107 30.875 15.999 30.875H22.499C23.3874 30.875 24.124 31.6117 24.124 32.5C24.124 33.3883 23.3874 34.125 22.499 34.125Z" fill="#E7E6E6"/>
<path d="M41.999 34.125H35.499C34.6107 34.125 33.874 33.3883 33.874 32.5C33.874 31.6117 34.6107 30.875 35.499 30.875H41.999C42.8874 30.875 43.624 31.6117 43.624 32.5C43.624 33.3883 42.8874 34.125 41.999 34.125Z" fill="#E7E6E6"/>
</svg>
