<svg width="58" height="58" viewBox="0 0 58 58" fill="none" xmlns="http://www.w3.org/2000/svg">
<path d="M53.1666 22.3542H4.83325C3.84242 22.3542 3.02075 21.5326 3.02075 20.5417C3.02075 19.5509 3.84242 18.7292 4.83325 18.7292H53.1666C54.1574 18.7292 54.9791 19.5509 54.9791 20.5417C54.9791 21.5326 54.1574 22.3542 53.1666 22.3542Z" fill="#E7E6E6"/>
<path d="M19.3333 41.6875H14.5C13.5092 41.6875 12.6875 40.8658 12.6875 39.875C12.6875 38.8842 13.5092 38.0625 14.5 38.0625H19.3333C20.3242 38.0625 21.1458 38.8842 21.1458 39.875C21.1458 40.8658 20.3242 41.6875 19.3333 41.6875Z" fill="#E7E6E6"/>
<path d="M35.0417 41.6875H25.375C24.3842 41.6875 23.5625 40.8658 23.5625 39.875C23.5625 38.8842 24.3842 38.0625 25.375 38.0625H35.0417C36.0325 38.0625 36.8542 38.8842 36.8542 39.875C36.8542 40.8658 36.0325 41.6875 35.0417 41.6875Z" fill="#E7E6E6"/>
<path d="M42.4366 51.3541H15.5633C5.94492 51.3541 3.02075 48.4541 3.02075 38.9324V19.0674C3.02075 9.54575 5.94492 6.64575 15.5633 6.64575H42.4124C52.0308 6.64575 54.9549 9.54575 54.9549 19.0674V38.9083C54.9791 48.4541 52.0549 51.3541 42.4366 51.3541ZM15.5633 10.2708C7.97492 10.2708 6.64575 11.5758 6.64575 19.0674V38.9083C6.64575 46.3999 7.97492 47.7049 15.5633 47.7049H42.4124C50.0008 47.7049 51.3299 46.3999 51.3299 38.9083V19.0674C51.3299 11.5758 50.0008 10.2708 42.4124 10.2708H15.5633Z" fill="#E7E6E6"/>
</svg>
