<svg width="58" height="58" viewBox="0 0 58 58" fill="none" xmlns="http://www.w3.org/2000/svg">
<path d="M35.0416 22.3542H4.83325C3.84242 22.3542 3.02075 21.5326 3.02075 20.5417C3.02075 19.5509 3.84242 18.7292 4.83325 18.7292H35.0416C36.0324 18.7292 36.8541 19.5509 36.8541 20.5417C36.8541 21.5326 36.0324 22.3542 35.0416 22.3542Z" fill="#E7E6E6"/>
<path d="M19.3333 41.6875H14.5C13.5092 41.6875 12.6875 40.8658 12.6875 39.875C12.6875 38.8842 13.5092 38.0625 14.5 38.0625H19.3333C20.3242 38.0625 21.1458 38.8842 21.1458 39.875C21.1458 40.8658 20.3242 41.6875 19.3333 41.6875Z" fill="#E7E6E6"/>
<path d="M35.0417 41.6875H25.375C24.3842 41.6875 23.5625 40.8658 23.5625 39.875C23.5625 38.8842 24.3842 38.0625 25.375 38.0625H35.0417C36.0325 38.0625 36.8542 38.8842 36.8542 39.875C36.8542 40.8658 36.0325 41.6875 35.0417 41.6875Z" fill="#E7E6E6"/>
<path d="M42.4366 51.3541H15.5633C5.94492 51.3541 3.02075 48.4541 3.02075 38.9324V19.0674C3.02075 9.54575 5.94492 6.64575 15.5633 6.64575H35.0416C36.0324 6.64575 36.8541 7.46742 36.8541 8.45825C36.8541 9.44909 36.0324 10.2708 35.0416 10.2708H15.5633C7.97492 10.2708 6.64575 11.5758 6.64575 19.0674V38.9083C6.64575 46.3999 7.97492 47.7049 15.5633 47.7049H42.4124C50.0008 47.7049 51.3299 46.3999 51.3299 38.9083V33.8816C51.3299 32.8908 52.1516 32.0691 53.1424 32.0691C54.1333 32.0691 54.9549 32.8908 54.9549 33.8816V38.9083C54.9791 48.4541 52.0549 51.3541 42.4366 51.3541Z" fill="#E7E6E6"/>
<path d="M48.3333 24.7708C47.3424 24.7708 46.5208 23.9492 46.5208 22.9583V8.45835C46.5208 7.73335 46.9557 7.05668 47.6324 6.79085C48.3091 6.52502 49.0824 6.67002 49.6141 7.17752L54.4474 12.0108C55.1483 12.7117 55.1483 13.8717 54.4474 14.5725C53.7466 15.2733 52.5866 15.2733 51.8858 14.5725L50.1458 12.8325V22.9583C50.1458 23.9492 49.3241 24.7708 48.3333 24.7708Z" fill="#E7E6E6"/>
<path d="M43.5001 15.1041C43.0409 15.1041 42.5817 14.935 42.2192 14.5725C41.5184 13.8716 41.5184 12.7116 42.2192 12.0108L47.0526 7.17748C47.7534 6.47665 48.9134 6.47665 49.6142 7.17748C50.3151 7.87831 50.3151 9.03831 49.6142 9.73915L44.7809 14.5725C44.4184 14.935 43.9592 15.1041 43.5001 15.1041Z" fill="#E7E6E6"/>
</svg>
