<svg width="58" height="58" viewBox="0 0 58 58" fill="none" xmlns="http://www.w3.org/2000/svg">
<path d="M35.0416 22.3542H4.83325C3.84242 22.3542 3.02075 21.5326 3.02075 20.5417C3.02075 19.5509 3.84242 18.7292 4.83325 18.7292H35.0416C36.0324 18.7292 36.8541 19.5509 36.8541 20.5417C36.8541 21.5326 36.0324 22.3542 35.0416 22.3542Z" fill="#E7E6E6"/>
<path d="M19.3333 41.6875H14.5C13.5092 41.6875 12.6875 40.8658 12.6875 39.875C12.6875 38.8842 13.5092 38.0625 14.5 38.0625H19.3333C20.3242 38.0625 21.1458 38.8842 21.1458 39.875C21.1458 40.8658 20.3242 41.6875 19.3333 41.6875Z" fill="#E7E6E6"/>
<path d="M35.0417 41.6875H25.375C24.3842 41.6875 23.5625 40.8658 23.5625 39.875C23.5625 38.8842 24.3842 38.0625 25.375 38.0625H35.0417C36.0325 38.0625 36.8542 38.8842 36.8542 39.875C36.8542 40.8658 36.0325 41.6875 35.0417 41.6875Z" fill="#E7E6E6"/>
<path d="M42.4366 51.3541H15.5633C5.94492 51.3541 3.02075 48.4541 3.02075 38.9324V19.0674C3.02075 9.54575 5.94492 6.64575 15.5633 6.64575H35.0416C36.0324 6.64575 36.8541 7.46742 36.8541 8.45825C36.8541 9.44909 36.0324 10.2708 35.0416 10.2708H15.5633C7.97492 10.2708 6.64575 11.5758 6.64575 19.0674V38.9083C6.64575 46.3999 7.97492 47.7049 15.5633 47.7049H42.4124C50.0008 47.7049 51.3299 46.3999 51.3299 38.9083V33.8816C51.3299 32.8908 52.1516 32.0691 53.1424 32.0691C54.1333 32.0691 54.9549 32.8908 54.9549 33.8816V38.9083C54.9791 48.4541 52.0549 51.3541 42.4366 51.3541Z" fill="#E7E6E6"/>
<path d="M48.3333 24.7708C48.0916 24.7708 47.8741 24.7224 47.6324 24.6258C46.9557 24.3358 46.5208 23.6833 46.5208 22.9583V8.45825C46.5208 7.46742 47.3424 6.64575 48.3333 6.64575C49.3241 6.64575 50.1458 7.46742 50.1458 8.45825V18.5841L51.8858 16.8441C52.5866 16.1433 53.7466 16.1433 54.4474 16.8441C55.1483 17.5449 55.1483 18.7049 54.4474 19.4058L49.6141 24.2391C49.2758 24.5774 48.8166 24.7708 48.3333 24.7708Z" fill="#E7E6E6"/>
<path d="M48.3334 24.7709C47.8742 24.7709 47.4151 24.6017 47.0526 24.2392L42.2192 19.4059C41.5184 18.7051 41.5184 17.5451 42.2192 16.8442C42.9201 16.1434 44.0801 16.1434 44.7809 16.8442L49.6142 21.6776C50.3151 22.3784 50.3151 23.5384 49.6142 24.2392C49.2517 24.6017 48.7926 24.7709 48.3334 24.7709Z" fill="#E7E6E6"/>
</svg>
