<svg width="54" height="54" viewBox="0 0 54 54" fill="none" xmlns="http://www.w3.org/2000/svg">
<path d="M36 51.1875H18C9.7875 51.1875 5.0625 46.4625 5.0625 38.25V15.75C5.0625 7.5375 9.7875 2.8125 18 2.8125H36C44.2125 2.8125 48.9375 7.5375 48.9375 15.75V38.25C48.9375 46.4625 44.2125 51.1875 36 51.1875ZM18 6.1875C11.565 6.1875 8.4375 9.315 8.4375 15.75V38.25C8.4375 44.685 11.565 47.8125 18 47.8125H36C42.435 47.8125 45.5625 44.685 45.5625 38.25V15.75C45.5625 9.315 42.435 6.1875 36 6.1875H18Z" fill="#E7E6E6"/>
<path d="M41.625 20.8125H37.125C33.705 20.8125 30.9375 18.045 30.9375 14.625V10.125C30.9375 9.2025 31.7025 8.4375 32.625 8.4375C33.5475 8.4375 34.3125 9.2025 34.3125 10.125V14.625C34.3125 16.1775 35.5725 17.4375 37.125 17.4375H41.625C42.5475 17.4375 43.3125 18.2025 43.3125 19.125C43.3125 20.0475 42.5475 20.8125 41.625 20.8125Z" fill="#E7E6E6"/>
<path d="M27 30.9375H18C17.0775 30.9375 16.3125 30.1725 16.3125 29.25C16.3125 28.3275 17.0775 27.5625 18 27.5625H27C27.9225 27.5625 28.6875 28.3275 28.6875 29.25C28.6875 30.1725 27.9225 30.9375 27 30.9375Z" fill="#E7E6E6"/>
<path d="M36 39.9375H18C17.0775 39.9375 16.3125 39.1725 16.3125 38.25C16.3125 37.3275 17.0775 36.5625 18 36.5625H36C36.9225 36.5625 37.6875 37.3275 37.6875 38.25C37.6875 39.1725 36.9225 39.9375 36 39.9375Z" fill="#E7E6E6"/>
</svg>
