<svg width="48" height="48" viewBox="0 0 48 48" fill="none" xmlns="http://www.w3.org/2000/svg">
<path d="M35 45.5H7C6.18 45.5 5.5 44.82 5.5 44V10C5.5 5.52 8.52 2.5 13 2.5H29C33.48 2.5 36.5 5.52 36.5 10V44C36.5 44.82 35.82 45.5 35 45.5ZM8.5 42.5H33.5V10C33.5 7.18 31.82 5.5 29 5.5H13C10.18 5.5 8.5 7.18 8.5 10V42.5Z" fill="#E7E6E6"/>
<path d="M38 45.5H4C3.18 45.5 2.5 44.82 2.5 44C2.5 43.18 3.18 42.5 4 42.5H38C38.82 42.5 39.5 43.18 39.5 44C39.5 44.82 38.82 45.5 38 45.5Z" fill="#E7E6E6"/>
<path d="M25.2205 21.4997H16.7605C13.5005 21.4997 11.4805 19.4797 11.4805 16.2197V13.7597C11.4805 10.4997 13.5005 8.47974 16.7605 8.47974H25.2205C28.4805 8.47974 30.5005 10.4997 30.5005 13.7597V16.2197C30.5005 19.4797 28.4805 21.4997 25.2205 21.4997ZM16.7805 11.4997C15.1605 11.4997 14.5005 12.1597 14.5005 13.7797V16.2397C14.5005 17.8597 15.1605 18.5197 16.7805 18.5197H25.2405C26.8605 18.5197 27.5205 17.8597 27.5205 16.2397V13.7797C27.5205 12.1597 26.8605 11.4997 25.2405 11.4997H16.7805Z" fill="#E7E6E6"/>
<path d="M19 27.5H13C12.18 27.5 11.5 26.82 11.5 26C11.5 25.18 12.18 24.5 13 24.5H19C19.82 24.5 20.5 25.18 20.5 26C20.5 26.82 19.82 27.5 19 27.5Z" fill="#E7E6E6"/>
<path d="M35 33.5198C34.18 33.5198 33.5 32.8598 33.5 32.0198C33.5 31.1998 34.16 30.5198 35 30.5198L42.5 30.4999V20.9199L39.32 19.3398C38.58 18.9598 38.28 18.0599 38.64 17.3199C39.02 16.5799 39.92 16.2799 40.66 16.6399L44.66 18.6399C45.16 18.8999 45.48 19.4199 45.48 19.9799V31.9799C45.48 32.7999 44.82 33.4799 43.98 33.4799L35 33.5198Z" fill="#E7E6E6"/>
</svg>
