<svg width="21" height="16" viewBox="0 0 21 16" fill="none" xmlns="http://www.w3.org/2000/svg">
<path d="M14.1484 0.633671C11.2494 0.633671 8.89042 2.97586 8.89042 5.85505C8.89042 9.33931 12.8755 13.4862 14.0971 14.6738C14.1308 14.7063 14.163 14.7068 14.1988 14.6728C15.4189 13.4867 19.4044 9.34232 19.4044 5.85505C19.4044 2.97586 17.0464 0.633671 14.1484 0.633671ZM14.1474 15.3264C13.96 15.3264 13.7842 15.2559 13.6517 15.1277C12.0277 13.5483 8.25269 9.48495 8.25269 5.85505C8.25269 2.62653 10.8973 7.82013e-05 14.1484 7.82013e-05C17.3981 7.82013e-05 20.0422 2.62653 20.0422 5.85505C20.0422 9.48745 16.2672 13.5493 14.6436 15.1267C14.5101 15.2558 14.3343 15.3264 14.1474 15.3264Z" fill="#4A5055"/>
<path d="M14.2318 4.83878C13.6961 4.83878 13.2602 5.27458 13.2602 5.81015C13.2602 6.34621 13.6961 6.78201 14.2318 6.78201C14.7676 6.78201 15.203 6.34621 15.203 5.81015C15.203 5.27458 14.7676 4.83878 14.2318 4.83878ZM14.2318 7.4104C13.3495 7.4104 12.6316 6.69217 12.6316 5.81015C12.6316 4.92813 13.3495 4.2104 14.2318 4.2104C15.1141 4.2104 15.8316 4.92813 15.8316 5.81015C15.8316 6.69217 15.1141 7.4104 14.2318 7.4104Z" fill="#4A5055"/>
<path d="M14.3694 8.29102H13.4341L12.3532 5.03195C12.2237 4.64234 11.8573 4.37893 11.4441 4.37893H3.88273C3.46952 4.37893 3.10316 4.64234 2.97416 5.03195L1.89274 8.29102H0.956949C0.428836 8.29102 0 8.71668 0 9.24199V10.562C0 10.9767 0.270608 11.3438 0.668708 11.469L0.955945 11.5591V15.049C0.955945 15.5743 1.38478 16 1.91289 16H4.17501C4.64215 16 5.04125 15.6645 5.11886 15.2063L5.23123 14.5402H10.0956L10.208 15.2063C10.2851 15.6645 10.6842 16 11.1518 16H13.4134C13.9421 16 14.3704 15.5743 14.3704 15.049V11.5611L14.6647 11.4665C15.0593 11.3393 15.3263 10.9742 15.3263 10.562V9.24199C15.3263 8.71668 14.898 8.29102 14.3694 8.29102Z" fill="white"/>
<path d="M14.0181 10.3307L13.2866 10.5657C13.2866 10.5657 13.2866 10.5657 13.2861 10.5657L11.0926 11.2471C10.9603 11.2883 10.87 11.4095 10.87 11.5472V12.5053C10.87 12.6787 11.0119 12.8194 11.1874 12.8194H13.067V14.6973H11.403L11.2641 13.8778H11.7058C11.8813 13.8778 12.0232 13.7372 12.0232 13.5633C12.0232 13.3894 11.8813 13.2487 11.7058 13.2487H10.8891H4.43805H3.62083C3.44586 13.2487 3.30347 13.3894 3.30347 13.5633C3.30347 13.7372 3.44586 13.8778 3.62083 13.8778H4.06303L3.92415 14.6973H2.25963V12.8194H4.13974C4.31472 12.8194 4.45711 12.6787 4.45711 12.5053V11.5472C4.45711 11.41 4.36736 11.2888 4.2355 11.2475L2.03804 10.5578L1.30855 10.3287V9.56392H2.61109C2.74796 9.56392 2.86929 9.47696 2.91241 9.34825L4.13172 5.68184H11.1954L12.4147 9.34825C12.4578 9.47696 12.5792 9.56392 12.7165 9.56392H14.0181V10.3307ZM13.067 12.1907H11.5047V11.7783L13.067 11.2933V12.1907ZM3.82238 11.7778V12.1907H2.25963V11.2868L3.82238 11.7778ZM14.3354 8.9348H12.9462L11.7268 5.26839C11.6837 5.13968 11.5624 5.05272 11.425 5.05272H3.9021C3.76523 5.05272 3.64339 5.13968 3.60078 5.26839L2.38147 8.9348H0.991189C0.816214 8.9348 0.673828 9.07543 0.673828 9.24936V10.5593C0.673828 10.6964 0.763573 10.8182 0.895431 10.8589L1.62491 11.088V12.5053V15.0119C1.62491 15.1858 1.7673 15.3264 1.94227 15.3264H4.19289C4.34781 15.3264 4.48016 15.2156 4.50573 15.064L4.70628 13.8778H10.6203L10.8214 15.064C10.847 15.2156 10.9793 15.3264 11.1342 15.3264H13.3843C13.5598 15.3264 13.7017 15.1858 13.7017 15.0119V12.5053V11.0935L14.4332 10.8584C14.564 10.8162 14.6528 10.6955 14.6528 10.5593V9.24936C14.6528 9.07543 14.5109 8.9348 14.3354 8.9348Z" fill="#4A5055"/>
<path d="M4.61727 8.80713L5.19982 6.85615H10.1264L10.709 8.80713H4.61727ZM10.6702 6.45609C10.6305 6.3229 10.5062 6.23164 10.3649 6.23164H4.96137C4.82001 6.23164 4.69575 6.3229 4.656 6.45609L3.8863 9.03158C3.85813 9.12629 3.87724 9.2284 3.93711 9.30684C3.99748 9.38527 4.09155 9.43164 4.19217 9.43164H11.1341C11.2347 9.43164 11.3288 9.38527 11.3891 9.30684C11.449 9.2284 11.4676 9.12629 11.4399 9.03158L10.6702 6.45609Z" fill="#4A5055"/>
<path d="M9.63448 12.1995H5.69205V11.8853H9.63448V12.1995ZM9.95413 11.2843H5.37239C5.19564 11.2843 5.05273 11.4186 5.05273 11.5848V12.5C5.05273 12.6657 5.19564 12.8 5.37239 12.8H9.95413C10.1309 12.8 10.2738 12.6657 10.2738 12.5V11.5848C10.2738 11.4186 10.1309 11.2843 9.95413 11.2843Z" fill="#4A5055"/>
</svg>
