<svg width="19" height="20" viewBox="0 0 19 20" fill="none" xmlns="http://www.w3.org/2000/svg">
<path d="M15.7576 19.2222L3.834 14.3026L7.82582 9.37706L18.2438 13.7614V19.2222H15.7576ZM0.756237 18.1005L3.32512 14.9311L13.7272 19.2222H0.756237V18.1005ZM4.02676 7.77806L7.09192 9.06811L0.756237 16.8859V7.77806H4.02676ZM18.2438 8.48V12.9208L15.6011 11.8084L18.2438 8.48ZM6.02333 7.77806H17.825L14.8688 11.5008L6.02333 7.77806ZM19 13.496V7.38919C19 7.38231 18.9964 7.37683 18.9964 7.37014C18.9952 7.3428 18.9881 7.31737 18.9809 7.29077C18.9749 7.26785 18.9707 7.24488 18.9612 7.22362C18.9516 7.20273 18.9367 7.18522 18.9235 7.16606C18.9074 7.14363 18.8931 7.12127 18.8728 7.10284C18.868 7.09823 18.8662 7.09221 18.8608 7.08803C18.8477 7.07685 18.8315 7.07323 18.8172 7.06389C18.7945 7.04976 18.773 7.03564 18.7479 7.02642C18.7228 7.01721 18.6971 7.01413 18.6709 7.01044C18.6541 7.00799 18.6392 7 18.6219 7H0.378118C0.169286 7 0 7.17441 0 7.38919V19.6111C0 19.8261 0.169286 20 0.378118 20H18.6219C18.8309 20 19 19.8261 19 19.6111V13.496Z" fill="#787878"/>
<path d="M9.50007 13.0526C8.47881 13.0526 7.82715 13.613 7.82715 13.9996C7.82715 14.3854 8.47881 14.9474 9.50007 14.9474C10.5213 14.9474 11.1729 14.3854 11.1729 13.9996C11.1729 13.613 10.5213 13.0526 9.50007 13.0526ZM9.50007 16C8.09816 16 7 15.1204 7 13.9996C7 12.8593 8.07477 12 9.50007 12C10.9254 12 12 12.8593 12 13.9996C12 15.1204 10.9019 16 9.50007 16Z" fill="#787878"/>
<path d="M9.50075 0C6.4677 0 4 2.48938 4 5.54961C4 8.78731 7.1598 12.256 8.5202 13.5991C8.7835 13.8574 9.1314 14 9.5 14C9.8686 14 10.2165 13.8574 10.4819 13.5973C11.8405 12.256 15 8.78731 15 5.54961C15 2.48938 12.5331 0 9.50075 0Z" fill="white"/>
<path d="M9.50087 0.823336C6.93189 0.823336 4.84179 2.86737 4.84179 5.37901C4.84179 8.41541 8.3471 12.0425 9.5 13.1525C10.6515 12.0441 14.1582 8.41606 14.1582 5.37901C14.1582 2.86737 12.069 0.823336 9.50087 0.823336ZM9.5 14C9.29554 14 9.10278 13.9233 8.95743 13.7854C7.46622 12.3585 4 8.68478 4 5.37901C4 2.41343 6.46765 0 9.50087 0C12.5332 0 15 2.41343 15 5.37901C15 8.68478 11.5338 12.3585 10.0434 13.7841C9.89729 13.9233 9.70453 14 9.5 14Z" fill="#787878"/>
<path d="M9.50075 4.68413C8.59344 4.68413 7.85529 5.27423 7.85529 5.99943C7.85529 6.72517 8.59344 7.31582 9.50075 7.31582C10.4074 7.31582 11.1448 6.72517 11.1448 5.99943C11.1448 5.27423 10.4074 4.68413 9.50075 4.68413ZM9.50075 8C8.12174 8 7 7.10236 7 5.99943C7 4.89704 8.12174 4 9.50075 4C10.8789 4 12 4.89704 12 5.99943C12 7.10236 10.8789 8 9.50075 8Z" fill="#787878"/>
</svg>
