<svg version="1.1" id="Слой_1" xmlns="http://www.w3.org/2000/svg" xmlns:xlink="http://www.w3.org/1999/xlink" x="0" y="0" viewBox="0 0 24 24" xml:space="preserve"><style>.st2{clip-path:url(#SVGID_4_);fill:#fff}</style><defs><circle id="SVGID_1_" cx="12" cy="12" r="12"/></defs><clipPath id="SVGID_2_"><use xlink:href="#SVGID_1_" overflow="visible"/></clipPath><g clip-path="url(#SVGID_2_)"><defs><path id="SVGID_3_" d="M-5-.2h41.9v24.4H-5z"/></defs><clipPath id="SVGID_4_"><use xlink:href="#SVGID_3_" overflow="visible"/></clipPath><path clip-path="url(#SVGID_4_)" fill="#358534" d="M-5-.2h41.9v24.4H-5z"/><path class="st2" d="M-5 3.3h41.9v3.5H-5zm0 7h41.9v3.5H-5zm0 6.9h41.9v3.5H-5z"/><path clip-path="url(#SVGID_4_)" fill="#d51024" d="M-5-.2h18.6v10.5H-5z"/><path class="st2" d="M4.7 1.5l.2.7-.6-.4-.6.4.3-.7-.7-.5.8.1.2-.8.3.8.7-.1zm5.6 5.1l.2.7-.6-.5-.6.5.2-.7-.6-.5h.8l.2-.7.2.7h.8zm-11.2 0l.3.7-.6-.5-.7.5.3-.7-.6-.5h.7l.3-.7.2.7h.8zM2 2.3l.2.7-.6-.5L1 3l.2-.7-.6-.5h.8l.2-.7.2.7h.8zm5.4 0l.3.7-.6-.5-.6.5.2-.7-.6-.5h.7l.3-.7.2.7h.8zm2 2l.2.7-.6-.5-.6.5.3-.7-.7-.5.8.1.2-.8.3.8.7-.1zM0 4.3l.3.7-.7-.5-.6.5.3-.7-.6-.5.7.1.2-.8.3.8.7-.1z"/><g clip-path="url(#SVGID_4_)"><defs><path id="SVGID_5_" d="M-5-.2h41.9v24.4H-5z"/></defs><clipPath id="SVGID_6_"><use xlink:href="#SVGID_5_" overflow="visible"/></clipPath><path d="M3.2 6.1s-.2.1-.1 1.3c.1 1.1.5 1.4.5 1.4l.2.7h1.6s0-.4.1-.5c.1-.3.7-.7 1-1.2.3-.3.1-1 .7-1.7.3-.3-.3-.2-.3-.2-.4.2-.6.5-.7.7 0 .3-.3.6-.3.3 0 0-.1-.4-.4-1.2 0-.2-.1-1.1-.2-1.7 0-.4-.4-.4-.4 0v1.7l-.1-2c0-.5-.5-.5-.5 0v2l-.1-2c0-.3-.3-.1-.3.3l-.1 1.9s-.1-1-.1-1.5c0-.3-.3-.2-.4.1 0 .6 0 1-.1 1.6z" clip-path="url(#SVGID_6_)" fill="#fff"/><g clip-path="url(#SVGID_6_)"><path d="M5.4 9.5H3.8l-.2-.7s-.4-.3-.5-1.4C3 6.1 3.1 6 3.2 6c0-.3 0-.6.1-.9 0-.2 0-.4.1-.6 0-.4.4-.4.4-.1 0 .4.1 1.5.1 1.5V4c0-.3.1-.5.3-.5 0 0 .1 0 .2.2l.1 2v-2c0-.3.1-.4.3-.4.1 0 .2.1.3.4l.1 1.9V3.9c0-.5.4-.4.5 0 0 .5.1 1.2.1 1.5v.2c.3.8.4 1.2.4 1.2v.1c-.2.1 0-.1 0-.4.1-.3.3-.5.6-.6H7c.1 0 .1 0 .2.1 0 0 0 .1-.1.2-.3.3-.4.7-.4 1 0 .2-.1.4-.2.6-.2.3-.4.5-.7.7-.1.2-.3.3-.3.5-.1.1-.1.5-.1.5zM3.6 4.2c-.1 0-.2.1-.2.3 0 .2 0 .4-.1.6 0 .3-.1.6-.1.9 0 0-.2.1-.1 1.3.1 1 .5 1.4.5 1.4l.2.7h1.5c0-.1 0-.4.1-.5.1-.1.2-.3.4-.4.2-.2.5-.5.6-.8.1-.1.2-.3.2-.6.1-.3.2-.7.5-1.1.1 0 .1 0 .1-.1s-.4 0-.4 0c-.2.2-.4.4-.5.7-.1.2-.2.4-.3.4 0 0-.1 0-.1-.1 0 0-.1-.4-.4-1.2v-.2c0-.3-.1-1-.1-1.5 0-.4-.3-.4-.4 0v1.7l-.2-2c0-.6-.4-.4-.4 0v2l-.1-2c0-.1-.1-.2-.1-.2-.2.1-.3.2-.3.5l-.1 1.9s-.1-1-.1-1.5c0-.1 0-.2-.1-.2z" fill="#d51024"/></g></g></g></svg>