<svg width="24" height="24" xmlns="http://www.w3.org/2000/svg" xmlns:xlink="http://www.w3.org/1999/xlink"><defs><path d="M23.87 11.97c0 6.552-5.313 11.865-11.866 11.865C5.45 23.835.138 18.522.138 11.97S5.45.103 12.004.103c6.553 0 11.866 5.313 11.866 11.866z" id="path-1"/><path d="M2.907.066v2.878C2.127 2.477.16 3.506.16 1.914V.067h2.746z" id="path-3"/><path d="M23.87 11.97c0 6.552-5.313 11.865-11.866 11.865C5.45 23.835.138 18.522.138 11.97S5.45.103 12.004.103c6.553 0 11.866 5.313 11.866 11.866z" id="path-5"/><path id="path-7" d="M.046.17h1.983v2.769H.046z"/><path d="M23.87 11.97c0 6.552-5.313 11.865-11.866 11.865C5.45 23.835.138 18.522.138 11.97S5.45.103 12.004.103c6.553 0 11.866 5.313 11.866 11.866z" id="path-9"/></defs><g id="Page-1" stroke="none" stroke-width="1" fill="none" fill-rule="evenodd"><g id="Андорра"><g id="Group-785"><mask id="mask-2" fill="#fff"><use xlink:href="#path-1"/></mask><path id="Fill-772" fill="#FDDE2D" mask="url(#mask-2)" d="M6.07 23.835h11.866V.103H6.071z"/><path id="Fill-774" fill="#0440A8" mask="url(#mask-2)" d="M-5.795 23.835H6.07V.103H-5.795z"/><path id="Fill-775" fill="#DA0E2B" mask="url(#mask-2)" d="M17.937 23.835h11.865V.103H17.937z"/><path d="M13.115 6.88c.122.136-.012.372-.092.494-.062.094-.121.184-.125.318-.002.064.01.094.027.15-.89-.421-.984.264-.67.405h-.543c.331-.164.195-.813-.641-.425a.307.307 0 00.012-.1c-.004-.134-.063-.224-.125-.317-.086-.13-.222-.37-.081-.507a.188.188 0 01.115-.056c.103-.01.228.067.315.116.51.288.887.29 1.398 0 .115-.064.284-.175.41-.077zm-.42.503c.033-.091-.035-.15-.122-.15-.062 0-.096.024-.144.059a.906.906 0 01-.283.146.7.7 0 01-.337 0c-.133-.037-.338-.203-.421-.203h-.003a.126.126 0 00-.08.034c-.063.059-.041.117-.014.179l-.001-.024c0-.02 0-.035.005-.048a.131.131 0 01.02-.038.1.1 0 01.036-.03.115.115 0 01.046-.012c.085 0 .303.17.434.207a.712.712 0 00.342 0 .908.908 0 00.184-.08.885.885 0 00.106-.07c.049-.036.085-.062.144-.062.015 0 .029.005.039.013.011.01.02.023.025.04.002.004.013.056.016.07l.005-.02a.02.02 0 01.003-.01zM7.98 11.766a1.228 1.228 0 01.18.28c.033.07.056.146.077.245.045.217.05.398-.029.606a1.263 1.263 0 01-.277.428.992.992 0 01-.21.158l-.022.012-.025.015a.185.185 0 00.015-.073v-.004a.223.223 0 00.066-.136.849.849 0 00.309-.301.017.017 0 00-.005-.023.017.017 0 00-.023.004c-.034.05-.071.104-.121.155a.766.766 0 01-.125.105.224.224 0 00.013-.156.84.84 0 00.313-.645c0-.16-.051-.371-.156-.498a.23.23 0 00.02-.172zm-.04.2a.814.814 0 01-.15 1.082.246.246 0 00-.043-.065.21.21 0 00-.364.102l-.02.018a.222.222 0 00-.063.177l.001.009a.29.29 0 00-.046.357.346.346 0 00.334.15 1.002 1.002 0 00-.289.441c-.238.692.302 1.333.903 1.58.387.16.933.19 1.352.208.263.01.515.02.738.069.214.047.401.128.545.278a.292.292 0 00-.088.043.352.352 0 00-.123.392.443.443 0 00.21.228.462.462 0 00.143.041c.017.03.054.065.1.093.04.024.087.043.136.048.068.007.13.003.19-.015a.476.476 0 00.171-.096l.02-.017.002-.002c.1.123.257.256.4.309l.006.002.006-.002a.82.82 0 00.221-.131l.003-.003.004-.003.003-.003h.001l.003-.003h.001l.002-.003h.001l.004-.004.002-.001.002-.002.001-.001.003-.002.003-.003.004-.003.003-.003.003-.003v-.001l.004-.002.003-.003v-.001l.003-.002.001-.002.002-.001.002-.002.001-.001.002-.002.001-.001.003-.002v-.001l.003-.002.003-.004.003-.003.004-.003.003-.003.003-.003.002-.003h.001l.002-.003h.002l.001-.003.002-.001v-.002l.003-.002.003-.003.003-.003.003-.003.003-.003.003-.003.005-.006.003-.003v-.001l.002-.002.001-.001.002-.002.001-.001.001-.002.002-.002h.001l.002-.003.002-.003.003-.003.003-.003.004-.006.003-.003.002-.003.002-.002.001-.001.002-.002v-.002h.002l.001-.002v-.002l.002-.002h.001l.001-.003.003-.003.002-.003.002-.002.002-.003.002-.002v-.001l.002-.002v-.001l.002-.002.006.006.02.019a.477.477 0 00.173.096.475.475 0 00.19.015.3.3 0 00.223-.14c.05-.004.1-.017.144-.037a.38.38 0 00.13-.097.322.322 0 00.078-.229.463.463 0 00-.027-.13.393.393 0 00-.126-.158.292.292 0 00-.056-.036c.14-.156.328-.24.543-.288.441-.098.97-.064 1.435-.122.705-.089 1.402-.385 1.56-1.129a1.63 1.63 0 00.032-.275 1.001 1.001 0 00-.045-.31.992.992 0 00-.323-.473.46.46 0 00.096.013.338.338 0 00.143-.027.282.282 0 00.144-.13.273.273 0 00.015-.208.28.28 0 00-.08-.134v-.019a.222.222 0 00-.073-.166l-.013-.013-.002-.003a.191.191 0 00-.056-.119.243.243 0 00-.11-.063.204.204 0 00-.212.052.213.213 0 00-.048.077l-.002-.001-.003-.002a.729.729 0 01-.045-.04.816.816 0 01-.167-.843.541.541 0 01.118-.202.21.21 0 00.103.064.272.272 0 00.14.001.225.225 0 00.141-.11.271.271 0 00-.025-.3.632.632 0 00-.07-.075.316.316 0 00-.028-.02c.23-.064.707-.23.702-1.036v-.021a1.07 1.07 0 00-.184-.609.912.912 0 00-.134-.181c-.206-.215-.613-.33-.893-.17a.317.317 0 00.007-.08.243.243 0 00-.03-.117c-.057-.094-.223-.114-.284-.016a.153.153 0 00-.022.07v.01a.416.416 0 01-.015-.03.19.19 0 01-.015-.064c-.007-.207.216-.426.387-.595.061-.06.116-.113.152-.158l.002-.003c.162-.2.23-.287.233-.495a.314.314 0 00-.081-.207.291.291 0 00-.18-.103h-.002a.437.437 0 00-.068-.114c-.077-.096-.194-.13-.245-.12a.465.465 0 00-.116-.139.306.306 0 00-.133-.06.33.33 0 00-.234.047l-.005-.005-.002-.003a.225.225 0 00-.149-.094.318.318 0 00-.189.043l-.004-.004a.254.254 0 00-.239-.077.294.294 0 00-.172.113l-.01.014-.01.015-.005.008a.347.347 0 00-.117.025.37.37 0 00-.133.097.185.185 0 00-.036.066.26.26 0 00.031.23.27.27 0 00.116.093.192.192 0 00.047.015.797.797 0 01-.186.107 1.15 1.15 0 01-.403.073.792.792 0 01-.213-.03c-.1-.027-.22-.073-.247-.186a.227.227 0 01.01-.127c.009-.027.028-.069.051-.119.06-.13.144-.315.15-.456a.696.696 0 00-.064-.352.416.416 0 00-.255-.214c-.24-.084-.49.058-.69.172a1.32 1.32 0 01-.213.107.717.717 0 01-.264.041.712.712 0 01-.265-.04 1.35 1.35 0 01-.213-.108c-.201-.114-.45-.256-.69-.172a.4.4 0 00-.226.192.666.666 0 00-.064.344c.006.142.09.326.15.456.023.05.043.093.051.12a.214.214 0 01-.004.167.262.262 0 01-.088.099.571.571 0 01-.174.076.792.792 0 01-.213.03 1.145 1.145 0 01-.402-.073.792.792 0 01-.182-.104.217.217 0 00.23-.188c.02-.142-.086-.265-.21-.316a.348.348 0 00-.118-.026l-.005-.007-.01-.015-.01-.014a.294.294 0 00-.171-.113.257.257 0 00-.243.081.345.345 0 00-.186-.033.244.244 0 00-.157.09l-.001.003a.331.331 0 00-.235-.048c-.114.02-.19.1-.242.198a.38.38 0 00-.292.23.322.322 0 00-.187.092c-.447.448.902 1.14.653 1.526 0 0-.022-.039-.028-.046a.15.15 0 00-.116-.055h-.002c-.01 0-.022 0-.033.003a.17.17 0 00-.096.054.217.217 0 00-.048.09.242.242 0 00.006.141.523.523 0 00-.3-.082.807.807 0 00-.475.177 1.124 1.124 0 00-.375.618c-.01.048-.019.09-.024.135a1.212 1.212 0 00.084.575.944.944 0 00.168.27l.004.005.002.003a.71.71 0 00.124.124 1.01 1.01 0 00.285.166.279.279 0 00.05.517.273.273 0 00.101.007.233.233 0 00.11-.042.197.197 0 00.03-.027zm-.262.003c-.227-.06-.176-.41.034-.442a.617.617 0 01.097-.005c.133 0 .26.075.365.192.118.13.209.313.253.499.016.068.036.187.04.324a1.298 1.298 0 01-.15.638 1.139 1.139 0 01-.18.244.878.878 0 01-.128.107c-.05.035-.106.07-.17.106a1.126 1.126 0 01-.214.089.423.423 0 01-.105.016c-.099.003-.204-.044-.251-.136a.249.249 0 01.093-.316c.094-.054.203-.035.26.064a.16.16 0 01.005.14.09.09 0 01-.03.041.142.142 0 01-.081.023.09.09 0 01-.051-.017.083.083 0 01-.017-.02.12.12 0 01-.016-.068c0-.01-.004-.041-.014-.041-.009 0-.019.029-.019.038a.15.15 0 00.02.09.115.115 0 00.05.042.149.149 0 00.077.015h.011a.183.183 0 00.047-.013.802.802 0 00.112-.055l.02-.012c.068-.039.142-.088.219-.164a1.309 1.309 0 00.284-.44c.101-.267.07-.616-.048-.876a1.31 1.31 0 00-.139-.229.403.403 0 00-.097-.102.231.231 0 00-.1-.037.129.129 0 00-.088.007.16.16 0 00-.078.088.016.016 0 00.01.022c.008.003.017 0 .021-.01a.13.13 0 01.062-.07.102.102 0 01.032-.009v.002c.013 0 .025 0 .036.002.014.004.027.01.038.019a.08.08 0 01.035.052c.007.066-.007.13-.063.171a.2.2 0 01-.095.037.239.239 0 01-.087-.006zm.36-1.07a.239.239 0 01.15.097.269.269 0 01.051.155.308.308 0 01-.075.22.36.36 0 01-.23.114.712.712 0 01-.34-.048.887.887 0 01-.238-.146c-.026-.02-.04-.037-.057-.056a.94.94 0 00-.042-.044.47.47 0 01-.066-.084.939.939 0 01-.094-.177 1.204 1.204 0 01-.065-.211 1.035 1.035 0 01.006-.479 1.083 1.083 0 01.364-.6.771.771 0 01.454-.17.47.47 0 01.37.156.4.4 0 01.1.27c0 .051-.011.1-.03.142a.31.31 0 01-.078.108.23.23 0 01-.158.059.249.249 0 01-.161-.055.214.214 0 01-.076-.146.226.226 0 01.021-.12.033.033 0 00.009-.016.153.153 0 01.044-.045.24.24 0 01.05-.027.14.14 0 01.1-.005.128.128 0 01.075.073c.019.05-.002.115-.057.128a.092.092 0 01-.052-.01l-.001-.002a.017.017 0 00-.023.004.017.017 0 00.004.023.095.095 0 00.078.018h.003c.074-.013.103-.088.092-.156a.161.161 0 00-.053-.09l-.011-.008a.358.358 0 00-.24-.076.605.605 0 00-.495.3.91.91 0 00-.12.388 1.174 1.174 0 00.068.496.83.83 0 00.198.304.494.494 0 00.299.125.354.354 0 00.162-.033c.053-.027.095-.068.101-.13a.096.096 0 00-.025-.09.017.017 0 00-.024.023c.014.013.02.03.019.045l-.001.01h-.001v.007a.09.09 0 01-.044.055.078.078 0 01-.06.007.135.135 0 01-.075-.05.142.142 0 01-.023-.064.184.184 0 01.008-.07.168.168 0 01.058-.09.172.172 0 01.126-.03l.004.001h.002zm.005-.032a.204.204 0 00-.154.035.2.2 0 00-.072.106.212.212 0 00-.008.083.166.166 0 00.013.05.188.188 0 01-.106-.012l-.011-.006a.644.644 0 01-.058-.044.482.482 0 01-.052-.062.822.822 0 01-.119-.29 1.08 1.08 0 01-.019-.176c-.005-.229.074-.503.29-.613l.01-.005.042-.022-.002.005a.26.26 0 00-.004.111.28.28 0 00.09.17c.05.043.118.069.206.07a.263.263 0 00.18-.067.34.34 0 00.087-.12.422.422 0 00-.026-.377.317.317 0 00.084.026.248.248 0 00.141-.016.412.412 0 00.079-.046.35.35 0 01.093.249.493.493 0 01-.136.312.667.667 0 01-.322.194.418.418 0 01-.318-.038.017.017 0 00-.024.002.016.016 0 00.002.023.376.376 0 00.17.064.49.49 0 00.193-.004.668.668 0 00.388-.265.15.15 0 01.029.04.203.203 0 01-.006.18.475.475 0 01-.07.099.63.63 0 01-.448.204.516.516 0 01-.43-.208.462.462 0 01-.062-.123v-.001l-.007-.025a.017.017 0 00-.02-.012.017.017 0 00-.013.016l.007.027c.015.05.039.098.072.144a.568.568 0 00.468.23.664.664 0 00.472-.215c.016.02.028.043.036.068.013.037.019.08.019.128 0 .069-.014.13-.044.188a.61.61 0 01-.191.21.566.566 0 01-.04.026l-.013.005a.016.016 0 00-.01.022.017.017 0 00.022.01l.005-.003v.001a.32.32 0 00.088-.053c.063.05.107.1.137.157a.44.44 0 01.046.212.422.422 0 01-.199.376 4.718 4.718 0 00-.106-.136.016.016 0 00-.023-.003.017.017 0 00-.003.024c.107.132.188.237.243.348.055.11.084.227.088.382a.967.967 0 01-.064.383 1.173 1.173 0 01-.198.321.017.017 0 00-.005.01.018.018 0 000 .023.017.017 0 00.024 0 .963.963 0 00.19-.247.975.975 0 00.044-.105l.01-.026v.718c0 .084.008.16.024.242a.527.527 0 00-.164-.12c-.002-.003-.005-.004-.007-.005a.276.276 0 00-.112-.124.632.632 0 00-.393-.05l-.01-.012.01.013a1.111 1.111 0 00.114-.098c.068-.07.132-.153.186-.25a1.282 1.282 0 00.153-.655 1.623 1.623 0 00-.04-.331 1.172 1.172 0 00-.237-.472.778.778 0 00-.24-.198.378.378 0 00.215-.127.345.345 0 00.072-.263v-.003a.338.338 0 00-.089-.183.287.287 0 00-.167-.096zm-.204.305c.02.027.05.05.09.061a.1.1 0 00.045.004.316.316 0 01-.16.038H7.8a.46.46 0 01-.265-.117.759.759 0 01-.19-.29 1.135 1.135 0 01-.066-.481c.033-.319.217-.652.583-.659.052-.001.1.007.14.023a.188.188 0 00-.066.014.254.254 0 00-.087.055.561.561 0 00-.228.107c-.128.102-.178.25-.212.405-.017.064-.015.124-.014.19a.887.887 0 00.17.522c.01.013.02.024.03.034a.364.364 0 00.108.081.224.224 0 00.136.013zm.888-1.614v.177a.452.452 0 00-.067-.09l.02-.021a.357.357 0 00.047-.066zm-.504.016a.215.215 0 01-.04-.187.18.18 0 01.04-.076.137.137 0 01.1-.046.1.1 0 01.087.047c.019.03.025.075.007.108-.013.025-.067.044-.087.043a.016.016 0 00-.017.015.017.017 0 00.015.018.17.17 0 00.052-.004c.083-.006.128-.123.142-.188a.33.33 0 00.007-.056c.017-.451-1.07-1.032-.686-1.418a.292.292 0 01.152-.08.67.67 0 00.032.379c.157.383.7.658.7 1.098 0 .11-.016.2-.05.27a.322.322 0 01-.165.156.212.212 0 01-.13.013.289.289 0 01-.133-.063.474.474 0 00-.026-.029zm.504.547v.083l-.006-.008a.356.356 0 00-.022-.021.598.598 0 00.028-.054zm0 .366v.088l-.006-.01a.265.265 0 00-.026-.032.437.437 0 00.028-.038l.004-.008zm0 .483v.353a.456.456 0 00-.04-.067.615.615 0 00-.11-.111.934.934 0 00.114-.12.416.416 0 00.036-.055zm0 .795v.48a.91.91 0 00-.048-.114 1.393 1.393 0 00-.116-.183.466.466 0 00.164-.183zm-.981 1.442a.256.256 0 00-.06-.097.224.224 0 00-.26-.05.174.174 0 01.287-.06.183.183 0 01.038.194l-.005.013zm-.07.16a.25.25 0 00-.093-.11.225.225 0 00-.25.008v-.006a.188.188 0 11.357.082l-.015.025zm1.204.798c.116.204.321.38.527.483.218.109.47.15.711.161.128.006.2 0 .325-.008.282-.02.513-.075.806-.057a1.61 1.61 0 01.285.047 1.478 1.478 0 01.33.146c.05.03.108.07.141.112l.013-.017a.56.56 0 01.129-.095 1.476 1.476 0 01.33-.146c.04-.01.082-.02.136-.03.425-.074.848.067 1.279.048a1.61 1.61 0 00.363-.045c.07-.015.124-.028.178-.045a1.215 1.215 0 00.672-.534.559.559 0 00.127.301c.088.14.327.216.472.119a.224.224 0 00.095-.136c.02-.126-.001-.19-.113-.252a.226.226 0 00-.03-.012h-.003l-.002-.001a.187.187 0 00-.076-.004.271.271 0 01.113-.05.216.216 0 01.145.02.523.523 0 01.23.295l.003.009a.73.73 0 01-.011.497.804.804 0 01-.325.405c-.103.06-.215.105-.339.138a2.873 2.873 0 01-.655.09l-.096.004c-.292.013-.588-.016-.88.005l-.095.007a2.944 2.944 0 00-.365.04c-.248.04-.423.082-.658.18a1.366 1.366 0 00-.591.44.507.507 0 00-.067.123.6.6 0 00-.071-.114 1.446 1.446 0 00-.603-.448 2.894 2.894 0 00-.274-.096l-.02-.006-.043-.014c-.023-.007-.047-.012-.07-.017a.368.368 0 01-.025-.005 2.922 2.922 0 00-.225-.04l-.063-.011a2.885 2.885 0 00-.303-.03c-.332-.022-.648.003-.975-.012l-.047-.002a3.458 3.458 0 01-.693-.08 1.188 1.188 0 01-.35-.15.716.716 0 01-.11-.087.864.864 0 01-.21-.372.698.698 0 01.013-.416l.003-.009a.569.569 0 01.052-.118c.069-.117.192-.235.337-.212a.246.246 0 01.115.05H8.42v-.001h-.003v-.001h-.001a.19.19 0 00-.114-.008H8.3v.001c-.159.055-.15.265-.035.37a.32.32 0 00.384.02.491.491 0 00.21-.282.577.577 0 00.021-.148zm-.583.383a.187.187 0 01-.067-.239.146.146 0 01.08-.073h.002a.158.158 0 01.077.001c.076.02.131.23.009.205l-.013-.003c-.023-.028-.086-.055-.046.002.01.014.018.026.04.03l.012.003c.198.042.167-.33-.111-.372-.158-.024-.293.1-.368.227a.64.64 0 00-.055.125l-.003.009a.751.751 0 00.011.513.91.91 0 00.222.337l.018.018a.75.75 0 00.1.074c.116.075.234.123.36.155.22.057.47.07.698.08l.048.003c.326.015.642-.01.975.012.107.007.199.013.299.03l.063.01c.068.01.144.023.223.04l.025.006c.022.004.044.01.068.016l.043.013.02.006c.092.029.184.06.27.096.223.092.434.232.577.43a.441.441 0 01.085.217v.005l-.001.044v.017a.226.226 0 01-.073.139.36.36 0 01-.137.077.492.492 0 00.01-.107.65.65 0 00-.018-.146.398.398 0 00-.047-.118 1.004 1.004 0 00-.32-.325h-.001l-.005-.002a1.23 1.23 0 00-.08-.047l-.003-.002a2.664 2.664 0 00-.191-.091 1.496 1.496 0 00-.254-.101l-.022-.007a.017.017 0 00-.021.01.016.016 0 00.01.02 1.316 1.316 0 01.239.092c.082.037.157.07.226.108h.001l.077.045.005.003a.883.883 0 01.281.284c.02.033.034.07.044.109a.554.554 0 01-.029.357.467.467 0 01-.283.258.453.453 0 01-.178.014.287.287 0 01-.177-.09c.11 0 .207-.051.278-.128a.433.433 0 00.07-.498.613.613 0 00-.119-.156c-.17-.174-.463-.302-.697-.358a3.755 3.755 0 00-.404-.077 7.066 7.066 0 00-.73-.052 4.102 4.102 0 01-.81-.092 1.573 1.573 0 01-.34-.119 1.338 1.338 0 01-.31-.21c-.145-.133-.236-.235-.306-.422a.926.926 0 01-.043-.381.741.741 0 01.638-.682.42.42 0 01.453.242.32.32 0 01.03.149.374.374 0 01-.035.159.306.306 0 01-.23.147h-.043l-.003-.001h-.006l-.006-.002h-.005l-.005-.001-.006-.001h-.002l-.003-.001-.005-.001h-.002l-.003-.001-.002-.001-.007-.002-.007-.002a.297.297 0 01-.055-.026zm-.499-.685a1.08 1.08 0 01.414-.165.614.614 0 01.343.042v.001h.002a.484.484 0 01.15.1.35.35 0 01.074.107L8.8 14a.47.47 0 01.009.22.559.559 0 01-.045.136.54.54 0 00.005-.061.35.35 0 00-.079-.24.486.486 0 00-.054-.062.466.466 0 00-.118-.091.455.455 0 00-.283-.046.77.77 0 00-.667.712.95.95 0 00.046.395c.106.287.362.518.632.651.111.055.227.093.347.121.266.063.544.085.816.093a6.866 6.866 0 01.726.052c.139.018.256.041.402.077.218.052.489.169.654.322v.001l.026.024c.167.172.203.412.034.595a.344.344 0 01-.253.116h-.013a.424.424 0 01-.153-.036.325.325 0 01-.174-.184.319.319 0 01.11-.354.259.259 0 01.168-.047.23.23 0 01.135.068.21.21 0 01.056.16v.005a.173.173 0 01-.047.1.132.132 0 01-.111.038h-.004a.137.137 0 01-.044-.013.08.08 0 01-.036-.031.082.082 0 01-.009-.052c.003-.022.025-.073.007-.08a.016.016 0 00-.022.008.215.215 0 00-.018.063.132.132 0 00.018.087.14.14 0 00.061.052.17.17 0 00.051.013l.004.001a.17.17 0 00.14-.048.205.205 0 00.057-.12v-.004a.253.253 0 00-.1-.221.242.242 0 00-.199-.056c-.148-.18-.348-.276-.58-.329-.232-.053-.495-.063-.768-.074-.415-.017-.959-.047-1.341-.204-.578-.238-1.09-.827-.854-1.509a.97.97 0 01.194-.344c.082-.092.186-.167.32-.239a.891.891 0 01.204-.083.596.596 0 01.402.037c.032.02.059.044.079.075a.652.652 0 00-.323-.03 1.092 1.092 0 00-.428.17.016.016 0 00-.005.024c.005.007.015.01.023.004zm1.013.072a1.109 1.109 0 01-.051-.336V8.28h1.474a2.308 2.308 0 00.165 0h1.11a.462.462 0 00.09 0h.756a.413.413 0 00.102 0h1.118l.038.001h1.575v5.003c0 .12.013.317-.005.444-.01.072-.02.13-.036.184a1.099 1.099 0 01-.071.173 1.026 1.026 0 01-.216.293c-.13.128-.294.224-.467.28a2.179 2.179 0 01-.532.088c-.433.02-.854-.122-1.283-.046a1.063 1.063 0 00-.275.077 1.514 1.514 0 00-.202.102.777.777 0 00-.126.09.776.776 0 00-.125-.09 1.539 1.539 0 00-.337-.15 1.578 1.578 0 00-.292-.048c-.293-.018-.518.038-.8.057h-.01c-.123.01-.196.014-.321.008a1.742 1.742 0 01-.698-.157 1.128 1.128 0 01-.58-.654zm2.894 2.949l.008-.002a.448.448 0 00.193-.084.291.291 0 00.086-.112c.014.022.03.043.052.064a.43.43 0 00.211.1.512.512 0 00.1.177.915.915 0 01-.38.306.796.796 0 01-.353-.282l-.002-.002v-.001l-.006-.008a.488.488 0 00.091-.156zm1.343-.322c-.008.008.04.086.041.105.034.134-.146.142-.216.061a.144.144 0 01-.022-.029l-.006-.01-.002-.005-.001-.002a.193.193 0 01-.015-.054v-.004c-.002-.007-.002-.015-.002-.022a.21.21 0 01.057-.139.21.21 0 01.135-.068h.022c.054 0 .104.018.145.047a.297.297 0 01.118.183.41.41 0 01.008.062.292.292 0 01-.07.205.354.354 0 01-.12.088.422.422 0 01-.152.036h-.013a.344.344 0 01-.253-.116.416.416 0 01-.11-.262v-.015c0-.153.09-.28.213-.38.194-.158.468-.251.611-.285.146-.036.263-.059.402-.077a6.866 6.866 0 01.726-.052c.272-.008.55-.03.815-.093.12-.028.237-.066.348-.12a1.43 1.43 0 00.317-.217c.077-.07.138-.13.189-.197a.898.898 0 00.172-.633.772.772 0 00-.667-.712.455.455 0 00-.283.046.495.495 0 00-.203.213.346.346 0 00-.033.165.46.46 0 00.019.128.517.517 0 01-.08-.33.417.417 0 01.025-.11.354.354 0 01.083-.128c.12-.121.332-.167.494-.143.166.024.316.1.415.165a.016.016 0 00.023-.004.016.016 0 00-.005-.023 1.095 1.095 0 00-.428-.17.659.659 0 00-.301.021.6.6 0 01.074-.048.495.495 0 01.177-.06.564.564 0 01.213.015 1.235 1.235 0 01.514.311l.01.01a.975.975 0 01.225.485c.007.048.01.1.01.153-.003.09-.015.183-.032.267-.153.725-.837 1.008-1.522 1.094-.469.059-1.004.023-1.449.125-.231.053-.431.148-.58.326a.327.327 0 00-.07-.003.245.245 0 00-.156.079.243.243 0 00-.065.186v.004a.225.225 0 00.03.088.2.2 0 00.08.085.187.187 0 00.127.023.137.137 0 00.083-.047c.05-.06.024-.171-.037-.213l-.005-.005a.016.016 0 00-.023 0zm-.106.501a.286.286 0 01-.178.092.45.45 0 01-.177-.014.46.46 0 01-.283-.258.551.551 0 01-.03-.357.364.364 0 01.044-.108.887.887 0 01.258-.27c.097-.065.207-.114.333-.17a.017.017 0 00.008-.022.017.017 0 00-.022-.009 2.173 2.173 0 00-.337.174.918.918 0 00-.268.28.404.404 0 00-.048.117.57.57 0 000 .291.379.379 0 01-.173-.087.215.215 0 01-.073-.154v-.042a.437.437 0 01.085-.223c.142-.197.355-.337.575-.429a2.6 2.6 0 01.65-.177l.063-.01c.1-.017.19-.023.299-.03l.095-.007c.29-.02.588.009.879-.005l.095-.004c.083-.003.152-.005.25-.017.15-.017.288-.04.414-.074a1.37 1.37 0 00.348-.142.84.84 0 00.34-.423.766.766 0 00.012-.523l-.003-.009a.573.573 0 00-.256-.325.287.287 0 00-.182-.035.223.223 0 00-.15.088c-.043.06-.07.126-.044.199v.002h.001v.003h.001v.002h.001v.002h.001v.002l.001.001v.002h.002v.004h.002v.003l.001.001v.001h.002a.015.015 0 00.022.006.017.017 0 00.006-.022v-.001h-.001v-.001l-.001-.002v-.001h-.001l-.001-.002c-.029-.058-.005-.125.062-.143a.167.167 0 01.056-.005.097.097 0 01.041.012l.001.001h.002v.001l.002.001h.001l.002.002c.114.072.086.233-.013.299a.205.205 0 01-.037.02.285.285 0 01-.353-.128.374.374 0 01-.034-.16.309.309 0 01.029-.148.465.465 0 01.19-.2.42.42 0 01.262-.042.742.742 0 01.64.682.916.916 0 01-.045.381.875.875 0 01-.122.23 1.426 1.426 0 01-.184.191 1.34 1.34 0 01-.31.211 1.573 1.573 0 01-.34.12 4.23 4.23 0 01-.809.091 7.085 7.085 0 00-.73.052c-.348.046-.753.145-1.029.37-.13.106-.226.24-.226.405v.016a.45.45 0 00.143.307.393.393 0 00.241.117zm2.309-6.562a.274.274 0 00.027.036.272.272 0 00-.027.037v-.073zm0-.457a.39.39 0 01-.015-.22.353.353 0 01.111-.185.402.402 0 00.095.06.234.234 0 00.115.019.315.315 0 00.077-.016.411.411 0 00-.048.199.366.366 0 00.114.262.27.27 0 00.209.089.288.288 0 00.167-.052.242.242 0 00.079-.096.261.261 0 00.023-.115.224.224 0 00-.072-.166.545.545 0 01.274.21.847.847 0 01.129.474.884.884 0 01-.073.406.555.555 0 01-.306.264.162.162 0 00.035-.078.18.18 0 00-.01-.098.204.204 0 00-.092-.1.25.25 0 00-.232-.003.265.265 0 00-.112.108.305.305 0 00-.035.11l-.003.034a.341.341 0 00.083.243.388.388 0 00.234.122.634.634 0 00-.244.176 1.214 1.214 0 00-.261.514 1.67 1.67 0 00-.04.331 1.324 1.324 0 00.153.655c.054.098.118.18.186.251a.96.96 0 00.132.112h.001l-.006-.001a.548.548 0 00-.422.049c-.082.045-.132.115-.176.141a.498.498 0 00-.08.057l.005-.038a.739.739 0 00.005-.058c.007-.137 0-.285 0-.425v-.383l.008.02c.045.117.115.223.204.332a.017.017 0 00.024.002.017.017 0 00.002-.024.97.97 0 01-.263-.704.86.86 0 01.088-.382c.055-.111.136-.216.242-.348a.017.017 0 00-.002-.024.017.017 0 00-.023.003 5.513 5.513 0 00-.106.136.42.42 0 01-.19-.274v-.002a.544.544 0 01.048-.345.296.296 0 01.118-.13c.015.01.127.07.14.047a.017.017 0 00-.006-.023c-.154-.09-.198-.015-.28-.299a.364.364 0 01.019-.281.286.286 0 01.026-.039c.12.115.318.187.483.19a.542.542 0 00.326-.095.493.493 0 00.208-.292.017.017 0 00-.013-.02.016.016 0 00-.02.012.459.459 0 01-.194.272.523.523 0 01-.307.089.719.719 0 01-.471-.19v-.001a.238.238 0 01-.058-.098.3.3 0 01-.012-.1.223.223 0 01.019-.094.142.142 0 01.027-.038c.013.026.03.043.05.062l.021.021c.04.042.09.08.147.113a.818.818 0 00.184.077.417.417 0 00.344-.048.017.017 0 00.006-.023.016.016 0 00-.023-.005c-.11.068-.21.064-.333.029a.58.58 0 01-.433-.377zm0 .082a.361.361 0 00.022.038.186.186 0 00-.022.024v-.062zm0-.606a.344.344 0 00.073.096.396.396 0 00-.073.086V9.52zm-.015-.162h-.001a.922.922 0 01-.009-.131c0-.05.008-.098.022-.146h.003v-.008c.14-.454.756-.718.756-1.191a.433.433 0 00-.02-.125.253.253 0 01.105.07.265.265 0 01.067.174.521.521 0 01-.047.237 1.248 1.248 0 01-.166.24c-.035.044-.09.097-.15.156-.17.167-.543.517-.336.774.027.034.06.06.093.072a.133.133 0 00.068.009l-.003-.033h-.025a.067.067 0 01-.057-.036.098.098 0 01-.01-.053.121.121 0 01.017-.055.101.101 0 01.11-.045.137.137 0 01.078.044.18.18 0 01.04.076.213.213 0 01-.066.216.294.294 0 01-.134.063.212.212 0 01-.13-.013.324.324 0 01-.165-.156.472.472 0 01-.04-.133v-.006zm.015 1.608c.031.07.052.148.112.172-.062.057-.066.052-.108.133l-.004.008v-.313zm0 .805c.039.07.094.123.154.162a1.324 1.324 0 00-.154.268v-.43zM11.43 8.247h-.632a1.99 1.99 0 00.274-.101c.099-.044.187-.091.266-.135a.24.24 0 00.084.23l.008.006zm-1.452 0h-1.25v.796c-.132-.382-.53-.584-.67-.927-.062-.15-.073-.36.042-.488a.348.348 0 01.181-.106.418.418 0 00-.02.063.62.62 0 00.074.459.625.625 0 00.22.212c.03.005.033-.007.016-.03a.544.544 0 01-.208-.2.598.598 0 01-.07-.433c.03-.124.122-.25.254-.274a.298.298 0 01.209.042.506.506 0 00-.063.364.503.503 0 00.062.171.672.672 0 00.124.14.017.017 0 00.024-.001c.006-.007.006-.018-.001-.023a.624.624 0 01-.12-.133.466.466 0 01-.057-.16.454.454 0 01.078-.365.213.213 0 01.135-.08c.048-.006.1.003.159.027-.097.119-.107.28-.078.424a.41.41 0 00.074.163.556.556 0 00.146.134.017.017 0 00.022-.005.017.017 0 00-.004-.023.532.532 0 01-.138-.125.381.381 0 01-.068-.15c-.04-.205.051-.547.305-.493a.261.261 0 01.161.114l.003.004a.279.279 0 00-.245.173c-.052.125-.022.233.047.328.067.092.17.171.27.238.124.085.258.135.386.164zm5.273.006c-.386 0-.81-.006-1.206-.006a1.066 1.066 0 00.33-.15c.1-.067.203-.146.27-.238a.32.32 0 00.047-.327.352.352 0 00-.12-.144l-.001.001a.298.298 0 00-.138-.044l.003-.005a.26.26 0 01.161-.114c.093-.02.148.016.21.07a.36.36 0 01.09.155.57.57 0 01.004.268.372.372 0 01-.067.15c-.025.056-.144.131-.138.152.004.008.015.01.023.006a.571.571 0 00.14-.116.4.4 0 00.087-.17.55.55 0 000-.28.393.393 0 00-.088-.162.28.28 0 01.16-.035c.115.017.184.162.205.26a.495.495 0 01-.053.355.632.632 0 01-.119.133.015.015 0 00-.004.016v.003l.001.001.001.001c.005.008.016.01.023.004.059-.043.1-.08.132-.126a.508.508 0 00.07-.384.42.42 0 00-.074-.167.298.298 0 01.206-.041.298.298 0 01.062.02c.02.01.039.021.057.034a.444.444 0 01.148.385.58.58 0 01-.292.468.017.017 0 00-.006.023c.003.006.01.009.015.009.005 0 .01 0 .014-.002a.855.855 0 00.209-.19.514.514 0 00.108-.292.618.618 0 00-.014-.174.41.41 0 00-.026-.075.37.37 0 01.178.112.353.353 0 01.093.232c0 .295-.217.511-.412.707l.001.002a1.572 1.572 0 00-.29.402v-.727zm-1.946-.006h-.742c.092-.052.124-.156.05-.282.177.098.409.223.692.282zm-3.016 0a1.507 1.507 0 01-.302-.034 1.074 1.074 0 01-.376-.158 1.05 1.05 0 01-.26-.23c-.063-.086-.09-.183-.044-.295a.247.247 0 01.18-.147.305.305 0 01.177.018c.053.022.132.08.15.14.01.034.015.072.01.11a.175.175 0 01-.036.086.178.178 0 01-.082.06.165.165 0 01-.1.007.23.23 0 01-.113-.104.134.134 0 01-.002-.082.12.12 0 01.018-.035c.022-.029.068-.026.095-.005a.081.081 0 01.03.051c.002.01.01.016.02.014a.017.017 0 00.014-.02.116.116 0 00-.043-.073.108.108 0 00-.043-.02.098.098 0 00-.1.032.146.146 0 00-.025.046.167.167 0 00.003.104.202.202 0 00.063.087l.014.016a.867.867 0 00.29.193c.12.048.253.07.413.075a.81.81 0 00.223-.031.586.586 0 00.184-.082.296.296 0 00.1-.111.247.247 0 00.005-.192c-.01-.029-.03-.071-.053-.122-.058-.128-.141-.31-.147-.445a.631.631 0 01.06-.327.366.366 0 01.208-.175c.226-.08.467.058.663.17.082.046.155.088.219.109a.743.743 0 00.275.042.753.753 0 00.274-.043c.063-.02.137-.062.219-.109.195-.111.437-.249.663-.17l.03.012h-.001l.004.002a.361.361 0 01.174.162.637.637 0 01.06.327c-.005.136-.088.317-.146.445-.024.05-.043.093-.053.122a.246.246 0 00.005.192c.051.107.177.164.284.193a.813.813 0 00.223.03c.16-.004.293-.026.414-.074a.86.86 0 00.252-.16.204.204 0 00.125-.124.158.158 0 00-.02-.152l-.002-.001a.113.113 0 00-.204.047.016.016 0 00.013.019.016.016 0 00.02-.013c.021-.116.198-.077.146.076a.161.161 0 01-.055.077.18.18 0 01-.055.029.172.172 0 01-.1-.007c-.112-.04-.14-.153-.108-.257a.144.144 0 01.03-.054.327.327 0 01.12-.088.303.303 0 01.177-.017.245.245 0 01.18.147c.047.112.02.21-.043.295a1.054 1.054 0 01-.26.23 1.08 1.08 0 01-.377.16c-.093.02-.184.03-.267.032h-.127c-.414-.016-.74-.198-.968-.326a53.211 53.211 0 00-.065-.036.165.165 0 00-.09-.021.104.104 0 00-.072.035c-.061.074.02.169.038.166.008-.013-.027-.04-.031-.083a.086.086 0 01.018-.062.074.074 0 01.05-.023.129.129 0 01.07.017c.07.038.077.227-.013.298a.164.164 0 01-.104.034.235.235 0 01-.12-.033c-.111-.067-.17-.228-.101-.343.155-.259.458-.118.743.015l.018.008.034.016c-.014-.07-.046-.147-.044-.216.004-.124.06-.21.119-.299.096-.145.233-.399.076-.551-.145-.14-.33-.025-.472.055-1.003.567-1.257-.162-1.698-.12a.223.223 0 00-.137.065c-.157.152-.021.404.076.551.087.133.153.254.1.414a.763.763 0 00-.025.101l.034-.016.035-.016c.28-.131.585-.274.726-.008a.27.27 0 01-.113.35.23.23 0 01-.108.027.163.163 0 01-.103-.034.207.207 0 01-.065-.1c-.02-.059-.006-.161.05-.197a.124.124 0 01.07-.017.07.07 0 01.05.023c.014.017.02.039.018.061-.004.043-.043.068-.03.083.02.019.125-.071.047-.165a.107.107 0 00-.066-.035l-.016-.002a.162.162 0 00-.09.021 2.89 2.89 0 00-.064.037c-.235.13-.573.32-1.003.326h-.057zm5.812 5.377a2.08 2.08 0 01-.157-.099.896.896 0 01-.127-.107 1.15 1.15 0 01-.304-.581 1.318 1.318 0 01-.026-.3c.003-.137.024-.255.04-.324.044-.186.135-.368.253-.499.104-.116.23-.191.364-.191.039 0 .07 0 .097.004a.175.175 0 01.1.049.28.28 0 01.073.116.234.234 0 01-.02.182.195.195 0 01-.119.094.237.237 0 01-.087.006.199.199 0 01-.096-.036.155.155 0 01-.057-.086.227.227 0 01-.004-.084.078.078 0 01.034-.052.118.118 0 01.046-.02c.009-.002.018-.002.028-.002.01 0 .022.003.032.007a.13.13 0 01.061.071.017.017 0 00.023.01.017.017 0 00.009-.023.159.159 0 00-.079-.09.13.13 0 00-.095-.004.233.233 0 00-.093.036.412.412 0 00-.096.102 1.241 1.241 0 00-.14.229 1.583 1.583 0 00-.105.425c-.004.054-.006.106-.004.157a.73.73 0 00.026.178.99.99 0 00.091.239c.075.14.153.242.23.317l.003.004.037.036h.001a.99.99 0 00.177.124l.02.012a.783.783 0 00.079.041.267.267 0 00.082.027.17.17 0 00.117-.027.112.112 0 00.044-.06.115.115 0 00-.005-.074.017.017 0 00-.02-.01.017.017 0 00-.012.016.015.015 0 00-.002.01.123.123 0 01-.015.07.079.079 0 01-.029.026.092.092 0 01-.039.009.143.143 0 01-.08-.023.09.09 0 01-.03-.04.162.162 0 01.004-.14.164.164 0 01.163-.09.224.224 0 01.128.054l.005.005a.26.26 0 01.082.142.22.22 0 01-.013.14.214.214 0 01-.097.098.285.285 0 01-.072.026.383.383 0 01-.198-.005 1.02 1.02 0 01-.182-.07l-.014-.009-.032-.016zm.058-.536a.224.224 0 00.044.175.782.782 0 01-.165-.13 1.07 1.07 0 01-.121-.156.017.017 0 00-.023-.004.017.017 0 00-.005.023c.035.051.073.105.126.16a.835.835 0 00.202.152.222.222 0 00.06.11v.004a.238.238 0 00.017.08.173.173 0 00.011.022 1.694 1.694 0 01-.05-.029l-.022-.012a.975.975 0 01-.207-.154 1.4 1.4 0 01-.267-.417 1.154 1.154 0 01-.052-.199 1.134 1.134 0 01-.003-.24c.006-.052.015-.108.027-.168.02-.098.05-.185.085-.262a.965.965 0 01.126-.205l.013-.017.04-.05a.262.262 0 00.006.09.211.211 0 00.02.047.563.563 0 00-.13.219.913.913 0 00-.053.31.832.832 0 00.258.597l.002.002a.505.505 0 00.061.051zm.056.132a.168.168 0 01-.026-.094c0-.05.02-.095.051-.127a.174.174 0 01.288.06.225.225 0 00-.252.044.22.22 0 00-.061.117zm.069.155a.19.19 0 01.015-.249.187.187 0 01.267 0 .188.188 0 01.054.133v.01a.262.262 0 00-.124-.045.197.197 0 00-.195.108.172.172 0 00-.017.043zm-.17-1.886a1.255 1.255 0 01-.095-.004.36.36 0 01-.23-.114.306.306 0 01-.073-.25.276.276 0 01.032-.1.23.23 0 01.097-.094.213.213 0 01.202.003.17.17 0 01.077.084c.01.026.013.054.008.08a.13.13 0 01-.033.069.135.135 0 01-.083.038.102.102 0 01-.099-.047.091.091 0 01-.007-.016v-.004h-.001a.068.068 0 010-.02c.002-.027.033-.043.016-.06-.023-.022-.047.037-.05.055a.088.088 0 00.002.034c.006.06.049.102.103.128.054.026.12.038.17.036h.005a.55.55 0 00.443-.232c.1-.141.154-.343.151-.596a1.036 1.036 0 00-.184-.582c-.105-.146-.25-.243-.42-.245a.492.492 0 00-.202.03.24.24 0 00-.139.18.122.122 0 00-.003.09.11.11 0 00.034.05.1.1 0 00.126.006.017.017 0 00.003-.024.017.017 0 00-.023-.004.065.065 0 01-.049.014.07.07 0 01-.036-.017.084.084 0 01-.024-.036.092.092 0 01.003-.068.178.178 0 01.014-.025.143.143 0 01.066-.054.131.131 0 01.102.007.285.285 0 01.04.022c.033.023.056.06.067.101.01.038.009.08-.002.12a.218.218 0 01-.068.106.25.25 0 01-.161.055.247.247 0 01-.17-.066.342.342 0 01-.104-.239.397.397 0 01.132-.298.495.495 0 01.32-.132c.125.005.333.052.522.183.062.054.148.146.219.267a.913.913 0 01.12.327c.027.183.04.387-.003.58a.829.829 0 01-.324.509.773.773 0 01-.25.118.936.936 0 01-.208.034h-.033zm-.102-.24a.604.604 0 00.453-.32.917.917 0 00.077-.422.878.878 0 00-.134-.492c-.07-.102-.346-.313-.505-.252a.129.129 0 00-.026.013.2.2 0 01.08-.063.45.45 0 01.187-.028c.16.002.295.094.394.23a1 1 0 01.178.565c.002.245-.048.44-.145.575a.517.517 0 01-.417.22h-.006a.358.358 0 01-.136-.026z" id="Fill-776" fill="#6F3D28" mask="url(#mask-2)"/><path d="M13.115 6.88c.122.136-.012.372-.092.494-.062.094-.121.184-.125.318-.002.064.01.094.027.15-.89-.421-.984.264-.67.405h-.543c.331-.164.195-.813-.641-.425a.307.307 0 00.012-.1c-.004-.134-.063-.224-.125-.318-.086-.13-.222-.37-.081-.506a.188.188 0 01.115-.056c.103-.01.228.067.315.117.51.287.887.288 1.398 0 .115-.065.284-.176.41-.078zm-.42.503c.033-.091-.035-.15-.122-.15-.062 0-.096.024-.144.059a.906.906 0 01-.283.146.7.7 0 01-.337 0c-.133-.037-.338-.203-.421-.203h-.003a.127.127 0 00-.08.034c-.063.059-.041.117-.014.179l-.001-.024c0-.02 0-.035.005-.048a.134.134 0 01.021-.038.1.1 0 01.035-.03.113.113 0 01.046-.012c.085 0 .303.17.434.207a.719.719 0 00.342 0 .889.889 0 00.184-.08c.045-.024.078-.049.106-.07.049-.036.085-.062.144-.062.015 0 .029.005.039.013.011.01.02.023.025.04.002.004.013.056.016.07l.005-.02a.02.02 0 01.003-.01zM7.98 11.766a1.228 1.228 0 01.18.28c.033.07.056.146.077.245a.977.977 0 01-.082.725 1.263 1.263 0 01-.223.309 1 1 0 01-.212.158l-.02.012h-.001l-.025.015a.196.196 0 00.015-.073v-.004a.223.223 0 00.066-.136.837.837 0 00.309-.301.017.017 0 00-.005-.023.017.017 0 00-.023.004 1.07 1.07 0 01-.121.155.785.785 0 01-.125.105l.007-.016a.22.22 0 00.006-.14.83.83 0 00.313-.645c0-.16-.051-.371-.156-.498a.233.233 0 00.02-.172zm-.302.203c-.227-.06-.176-.41.034-.442a.672.672 0 01.097-.005c.133 0 .26.075.365.192.118.13.209.313.253.499.017.068.036.187.04.324a1.253 1.253 0 01-.149.638 1.139 1.139 0 01-.18.244.9.9 0 01-.129.107 1.95 1.95 0 01-.17.106 1.126 1.126 0 01-.214.089.423.423 0 01-.105.016c-.099.002-.204-.044-.251-.136a.248.248 0 01.093-.316c.094-.054.203-.035.26.064a.16.16 0 01.005.14.09.09 0 01-.03.041.142.142 0 01-.081.023.09.09 0 01-.051-.017.083.083 0 01-.017-.02.12.12 0 01-.016-.068c0-.01-.004-.041-.014-.042-.009 0-.019.03-.019.039a.15.15 0 00.02.09.118.118 0 00.049.043c.02.009.04.014.061.014h.028a.19.19 0 00.047-.012.827.827 0 00.112-.056l.02-.012c.068-.039.142-.088.219-.164a1.293 1.293 0 00.284-.44c.101-.267.07-.616-.048-.876a1.32 1.32 0 00-.139-.229.41.41 0 00-.097-.102.23.23 0 00-.1-.037.132.132 0 00-.088.007.16.16 0 00-.078.088.016.016 0 00.01.022c.008.003.018 0 .021-.01a.128.128 0 01.062-.07.103.103 0 01.032-.009v.002c.013 0 .025 0 .036.002.014.004.027.01.038.019a.08.08 0 01.035.053c.007.065-.007.13-.063.17a.197.197 0 01-.095.037.243.243 0 01-.087-.006zm.36-1.07c.02.003.04.01.058.018a.242.242 0 01.093.08.269.269 0 01.05.154.31.31 0 01-.075.22.362.362 0 01-.23.114.705.705 0 01-.34-.048.878.878 0 01-.238-.146c-.026-.02-.04-.037-.057-.056a.94.94 0 00-.042-.044.72.72 0 01-.067-.084.923.923 0 01-.093-.177 1.282 1.282 0 01-.065-.211 1.037 1.037 0 01.006-.479 1.09 1.09 0 01.364-.6.77.77 0 01.454-.17.47.47 0 01.37.155.403.403 0 01.1.272.35.35 0 01-.03.141.308.308 0 01-.078.108.23.23 0 01-.158.059.249.249 0 01-.161-.055.215.215 0 01-.076-.146.227.227 0 01.021-.121.03.03 0 00.009-.015.147.147 0 01.044-.045.23.23 0 01.05-.027.14.14 0 01.1-.005.128.128 0 01.075.073c.019.05-.002.115-.057.128a.089.089 0 01-.052-.01l-.001-.002a.017.017 0 00-.023.004.017.017 0 00.004.023.095.095 0 00.078.018h.003c.074-.013.103-.088.092-.156a.16.16 0 00-.053-.09l-.011-.008a.358.358 0 00-.24-.076.606.606 0 00-.495.3.914.914 0 00-.12.388 1.174 1.174 0 00.068.496.745.745 0 00.198.304.493.493 0 00.299.125.35.35 0 00.162-.034c.053-.025.095-.067.101-.13a.095.095 0 00-.025-.09.017.017 0 00-.023 0 .017.017 0 000 .024c.013.013.018.03.018.045l-.001.01h-.001v.007a.09.09 0 01-.044.055.08.08 0 01-.06.007.135.135 0 01-.075-.05.142.142 0 01-.023-.064.184.184 0 01.008-.07.167.167 0 01.058-.09.174.174 0 01.126-.03l.004.001h.002zm.005-.032a.204.204 0 00-.154.035.2.2 0 00-.072.106.212.212 0 00-.008.083.165.165 0 00.013.05.188.188 0 01-.117-.018l-.018-.012a.302.302 0 01-.04-.032.628.628 0 01-.052-.062.836.836 0 01-.119-.29 1.122 1.122 0 01-.019-.176c-.005-.229.074-.502.29-.613l.01-.004.042-.023-.002.005a.26.26 0 00-.004.111.28.28 0 00.09.17c.05.043.118.069.206.07a.263.263 0 00.18-.067.34.34 0 00.087-.119.42.42 0 00-.026-.377c.025.011.054.02.084.025a.247.247 0 00.141-.016.424.424 0 00.079-.046.35.35 0 01.093.249.493.493 0 01-.136.312.667.667 0 01-.322.194.42.42 0 01-.318-.038.017.017 0 00-.024.002.016.016 0 00.002.023.375.375 0 00.17.064.49.49 0 00.193-.004.668.668 0 00.388-.265.16.16 0 01.03.04.203.203 0 01-.007.18.475.475 0 01-.07.099.632.632 0 01-.448.204.51.51 0 01-.43-.208.476.476 0 01-.062-.123v-.001l-.007-.025a.017.017 0 00-.02-.012.017.017 0 00-.013.016l.007.027c.015.05.039.098.072.144a.576.576 0 00.307.21.64.64 0 00.417-.04.659.659 0 00.216-.155.237.237 0 01.036.068c.013.037.019.08.019.128 0 .069-.014.13-.044.188a.614.614 0 01-.191.21.566.566 0 01-.04.026l-.013.005a.016.016 0 00-.01.022.016.016 0 00.022.01l.005-.003v.002c.004-.002.008-.004.01-.007a.319.319 0 00.078-.047c.063.05.107.1.137.157a.44.44 0 01.046.212.417.417 0 01-.199.375 5.311 5.311 0 00-.106-.135.016.016 0 00-.023-.003.017.017 0 00-.003.024c.107.132.188.237.243.348.055.11.084.227.088.382a.966.966 0 01-.064.383 1.173 1.173 0 01-.198.321.017.017 0 00-.005.01.017.017 0 000 .023.017.017 0 00.024 0 .963.963 0 00.19-.247c.016-.035.031-.07.044-.105l.01-.026v.718c0 .084.008.16.024.242a.527.527 0 00-.172-.125.274.274 0 00-.111-.124.623.623 0 00-.393-.049l-.01-.013.01.013a1.111 1.111 0 00.114-.098c.068-.07.132-.153.186-.25a1.282 1.282 0 00.153-.655 1.623 1.623 0 00-.04-.331 1.169 1.169 0 00-.237-.472.776.776 0 00-.24-.198.378.378 0 00.215-.127.345.345 0 00.072-.263v-.003a.341.341 0 00-.089-.183.287.287 0 00-.167-.096zm-.204.305c.02.028.05.05.09.061a.1.1 0 00.045.004.316.316 0 01-.16.038H7.8a.461.461 0 01-.265-.117.756.756 0 01-.19-.29 1.159 1.159 0 01-.066-.481c.033-.318.217-.652.583-.659.052-.001.1.007.14.023a.188.188 0 00-.066.014.266.266 0 00-.087.055.568.568 0 00-.228.107c-.128.102-.178.25-.212.405-.016.064-.015.124-.014.19.001.056.007.119.02.182a.862.862 0 00.15.34c.01.013.02.024.03.034a.357.357 0 00.108.08.217.217 0 00.136.014zm.888-1.614v.177a.472.472 0 00-.067-.09.357.357 0 00.068-.087zm-.504.016a.215.215 0 01-.04-.187.18.18 0 01.04-.076.138.138 0 01.1-.046.1.1 0 01.087.047c.019.03.025.075.007.108-.013.025-.067.044-.087.043a.016.016 0 00-.017.015.017.017 0 00.014.018.18.18 0 00.053-.003c.083-.008.128-.124.142-.189a.33.33 0 00.007-.056c.017-.451-1.07-1.032-.686-1.418a.293.293 0 01.152-.08.671.671 0 00.032.379c.157.383.7.658.7 1.098 0 .11-.016.2-.05.27a.322.322 0 01-.165.156.216.216 0 01-.13.013.293.293 0 01-.133-.063.539.539 0 00-.026-.029zm.504.547v.083l-.006-.008a.31.31 0 00-.022-.021.582.582 0 00.028-.054zm0 .366v.088l-.006-.01a.265.265 0 00-.026-.032.467.467 0 00.028-.038l.004-.008zm0 .483v.353a.456.456 0 00-.04-.067.615.615 0 00-.11-.111.922.922 0 00.114-.12.427.427 0 00.036-.055zm0 .795v.48a.887.887 0 00-.048-.114c-.031-.06-.07-.12-.116-.183a.475.475 0 00.164-.183zm-.981 1.442a.256.256 0 00-.06-.097.224.224 0 00-.26-.05.174.174 0 01.287-.06.183.183 0 01.038.194l-.005.013zm-.07.16a.277.277 0 00-.092-.11.225.225 0 00-.252.008v-.006a.188.188 0 11.358.082l-.015.025zm1.204.798c.116.204.321.38.527.483.218.109.47.15.711.161.128.006.2 0 .325-.008.282-.02.513-.075.806-.057a1.61 1.61 0 01.285.047 1.5 1.5 0 01.33.146c.05.03.108.07.141.112l.013-.017a.562.562 0 01.129-.095 1.498 1.498 0 01.33-.146c.04-.01.082-.02.136-.03.425-.074.848.068 1.279.048a1.71 1.71 0 00.363-.045c.07-.015.124-.028.178-.045a1.215 1.215 0 00.672-.534.555.555 0 00.097.259c.01.02.026.037.03.042.088.14.327.216.472.119a.223.223 0 00.094-.136c.021-.126 0-.19-.112-.252l-.03-.012h-.003l-.002-.001a.187.187 0 00-.076-.004.276.276 0 01.113-.05.216.216 0 01.145.02.523.523 0 01.23.295l.003.009a.73.73 0 01-.011.498.804.804 0 01-.325.404c-.103.06-.215.105-.339.138a2.847 2.847 0 01-.655.09l-.096.004c-.292.013-.588-.016-.88.005l-.095.007a2.944 2.944 0 00-.365.04c-.248.04-.423.082-.658.18a1.37 1.37 0 00-.591.44.517.517 0 00-.067.123.6.6 0 00-.071-.114 1.448 1.448 0 00-.603-.448 2.946 2.946 0 00-.274-.096l-.02-.006-.043-.014c-.023-.007-.047-.012-.07-.017l-.025-.005a2.922 2.922 0 00-.225-.04l-.063-.011a2.885 2.885 0 00-.303-.03c-.332-.022-.648.003-.975-.012l-.047-.002a3.444 3.444 0 01-.693-.08 1.198 1.198 0 01-.35-.15.716.716 0 01-.11-.087.864.864 0 01-.21-.372.699.699 0 01.013-.416l.003-.009a.569.569 0 01.052-.118c.069-.117.192-.235.337-.212a.247.247 0 01.115.05l-.001-.001h-.003v-.001h-.001a.19.19 0 00-.114-.008l-.003.001c-.159.055-.15.265-.035.37a.319.319 0 00.384.02.487.487 0 00.209-.282.561.561 0 00.022-.148zm-.583.383a.187.187 0 01-.067-.239.146.146 0 01.08-.073h.002a.162.162 0 01.077.001c.076.02.132.23.009.205l-.013-.003c-.023-.028-.086-.054-.046.002.01.014.018.026.04.03l.012.003c.198.042.167-.33-.111-.372-.158-.024-.293.1-.367.227a.635.635 0 00-.056.125l-.003.009a.752.752 0 00.011.513c.049.13.128.247.222.337l.018.019v-.002a.733.733 0 00.1.075c.116.075.234.123.36.155.22.057.47.07.698.08l.048.003c.326.015.642-.01.975.012.107.007.199.013.299.03l.063.01c.068.01.144.023.223.04l.025.006c.022.004.044.01.068.016l.043.013.02.006c.092.028.184.06.27.096.223.092.434.232.577.43a.438.438 0 01.085.217v.005l-.001.044v.017a.226.226 0 01-.073.139.36.36 0 01-.137.077.476.476 0 00.01-.107.649.649 0 00-.018-.146.409.409 0 00-.047-.118 1.01 1.01 0 00-.32-.325h-.001l-.005-.002a1.082 1.082 0 00-.08-.047l-.003-.002a2.836 2.836 0 00-.191-.091 1.485 1.485 0 00-.254-.101l-.022-.007a.017.017 0 00-.021.01.016.016 0 00.01.02l.025.009c.02.004.049.011.213.083.083.037.157.07.227.108h.001l.077.045.005.003.023.015c.096.065.18.147.258.27.02.031.034.07.044.108a.555.555 0 01-.029.357.464.464 0 01-.283.258.455.455 0 01-.178.014.287.287 0 01-.177-.09c.11 0 .207-.051.278-.128a.433.433 0 00.07-.498.613.613 0 00-.119-.156c-.17-.174-.464-.302-.697-.358a3.71 3.71 0 00-.404-.077 6.979 6.979 0 00-.73-.052 4.102 4.102 0 01-.81-.092 1.58 1.58 0 01-.34-.119 1.338 1.338 0 01-.31-.21c-.145-.133-.236-.235-.306-.422a.923.923 0 01-.043-.381.741.741 0 01.638-.682.424.424 0 01.263.041c.076.04.141.108.19.2a.33.33 0 01.03.15.368.368 0 01-.035.159.31.31 0 01-.105.106.264.264 0 01-.125.041h-.043l-.003-.001h-.006l-.006-.002h-.005l-.005-.001-.006-.001h-.002l-.003-.001h-.005l-.002-.002h-.003l-.002-.001-.007-.002-.007-.002a.297.297 0 01-.055-.026zm-.499-.685a1.08 1.08 0 01.414-.165.614.614 0 01.343.042v.001h.002l.017.008a.496.496 0 01.133.092.35.35 0 01.093.16.47.47 0 01.009.22.561.561 0 01-.045.136.548.548 0 00.005-.061.35.35 0 00-.079-.24.533.533 0 00-.054-.062.466.466 0 00-.118-.091.457.457 0 00-.283-.046.771.771 0 00-.667.712c-.014.154.01.3.045.395.107.287.363.518.633.651.111.055.227.093.347.121.266.063.544.085.816.093a6.716 6.716 0 01.726.052c.139.018.256.042.402.077.218.051.489.169.654.322v.001l.026.024c.167.172.203.412.034.595a.344.344 0 01-.253.116h-.013a.424.424 0 01-.153-.036.325.325 0 01-.174-.184.318.318 0 01.11-.354.259.259 0 01.168-.047.23.23 0 01.135.068.211.211 0 01.056.16v.005a.171.171 0 01-.047.1.13.13 0 01-.111.038h-.004a.137.137 0 01-.044-.013.079.079 0 01-.036-.031.083.083 0 01-.009-.052c.003-.022.025-.073.007-.08a.016.016 0 00-.022.008.219.219 0 00-.018.063.133.133 0 00.018.087.14.14 0 00.061.052.176.176 0 00.051.013l.004.001a.17.17 0 00.14-.048.204.204 0 00.057-.12v-.004a.249.249 0 00-.1-.221.246.246 0 00-.199-.057c-.148-.18-.349-.275-.58-.328-.232-.053-.495-.063-.768-.074-.415-.016-.959-.047-1.341-.204-.578-.238-1.09-.827-.854-1.509a.97.97 0 01.194-.344c.082-.092.186-.167.32-.239a.898.898 0 01.204-.083.592.592 0 01.402.038.235.235 0 01.079.074.654.654 0 00-.323-.03 1.09 1.09 0 00-.428.17.016.016 0 00-.005.024c.005.007.015.01.023.004zm1.014.072a1.109 1.109 0 01-.051-.336V8.28h1.473c.037.002.072.002.106.002.02 0 .04 0 .06-.002h1.11a.462.462 0 00.09 0h.755a.418.418 0 00.102 0h1.118l.038.001h1.575v5.003c0 .12.013.317-.005.444-.01.072-.02.13-.036.184a1.064 1.064 0 01-.071.173 1.049 1.049 0 01-.094.157 1.183 1.183 0 01-.589.416 2.267 2.267 0 01-.352.076c-.055.006-.11.01-.18.012-.433.02-.854-.122-1.283-.046a1.131 1.131 0 00-.275.077 1.514 1.514 0 00-.202.102.766.766 0 00-.126.09.765.765 0 00-.125-.09 1.528 1.528 0 00-.337-.15 1.734 1.734 0 00-.292-.048c-.293-.018-.518.038-.8.057h-.01a2.426 2.426 0 01-.321.008 1.742 1.742 0 01-.698-.157 1.128 1.128 0 01-.571-.63l-.01-.024zm2.893 2.949l.008-.002a.448.448 0 00.193-.084.291.291 0 00.086-.112c.014.022.03.043.052.064a.429.429 0 00.211.1.52.52 0 00.1.177.906.906 0 01-.38.306.795.795 0 01-.353-.282l-.002-.002v-.001l-.006-.008a.488.488 0 00.091-.156zm1.343-.322c-.008.008.04.086.041.105.034.134-.146.142-.216.06a.133.133 0 01-.022-.028l-.006-.01-.002-.005-.001-.002a.192.192 0 01-.015-.054v-.004a.21.21 0 01.056-.16.211.211 0 01.156-.07.26.26 0 01.145.048.298.298 0 01.118.183.41.41 0 01.008.062.292.292 0 01-.07.205.346.346 0 01-.12.088.422.422 0 01-.152.036h-.013a.344.344 0 01-.253-.116.415.415 0 01-.11-.262v-.015c0-.153.09-.28.213-.38.194-.158.468-.251.611-.285.146-.035.263-.059.402-.077a6.716 6.716 0 01.726-.052c.272-.008.55-.03.815-.093.12-.028.237-.066.348-.12a1.37 1.37 0 00.317-.217c.077-.07.138-.13.189-.197a.898.898 0 00.172-.633.771.771 0 00-.351-.595.767.767 0 00-.316-.117.457.457 0 00-.283.046.494.494 0 00-.203.213.346.346 0 00-.033.165.46.46 0 00.019.128.517.517 0 01-.08-.33.417.417 0 01.025-.11.354.354 0 01.083-.128c.12-.121.332-.167.495-.143.165.024.315.1.414.165a.016.016 0 00.023-.004.016.016 0 00-.005-.023 1.095 1.095 0 00-.428-.17.659.659 0 00-.301.021.6.6 0 01.074-.048.495.495 0 01.177-.06.559.559 0 01.213.015c.07.018.136.047.204.084.123.066.214.131.31.227l.009.01a.97.97 0 01.226.485c.007.048.01.1.01.153-.003.09-.015.183-.032.267-.153.725-.837 1.008-1.522 1.094-.469.059-1.004.023-1.449.125-.231.053-.431.148-.58.326a.397.397 0 00-.07-.003.243.243 0 00-.156.079.243.243 0 00-.065.186v.004a.22.22 0 00.03.088.199.199 0 00.08.085.19.19 0 00.118.024l.009-.001a.14.14 0 00.083-.046c.05-.061.024-.172-.037-.214l-.005-.005a.016.016 0 00-.023 0zm-.106.5a.286.286 0 01-.178.092.454.454 0 01-.177-.013.458.458 0 01-.283-.258.552.552 0 01-.03-.357.362.362 0 01.044-.108.887.887 0 01.258-.27c.097-.065.207-.114.333-.17.008-.004.012-.014.008-.022a.017.017 0 00-.022-.009 2.173 2.173 0 00-.337.174.918.918 0 00-.268.28.404.404 0 00-.048.117.571.571 0 000 .291.382.382 0 01-.173-.087.216.216 0 01-.073-.154v-.042a.437.437 0 01.085-.223c.142-.197.355-.337.575-.429a2.6 2.6 0 01.65-.177l.063-.01c.1-.017.19-.023.299-.03l.095-.007c.29-.02.588.009.879-.005l.095-.004a2.952 2.952 0 00.664-.09 1.37 1.37 0 00.348-.143.84.84 0 00.34-.423.767.767 0 00.012-.523l-.003-.009a.572.572 0 00-.256-.325.286.286 0 00-.182-.035.224.224 0 00-.15.088c-.043.06-.07.126-.044.199v.002h.001v.003h.001v.002l.001.001.001.001v.002l.001.001v.002h.001v.002h.001v.002h.002v.003l.001.001v.001h.002a.015.015 0 00.022.006.017.017 0 00.006-.022v-.001h-.001v-.002h-.001v-.002l-.002-.001c-.029-.059-.005-.126.062-.144.02-.005.04-.006.056-.005a.094.094 0 01.041.012l.001.001.001.001h.002l.001.001h.001l.002.002c.114.072.086.233-.013.299a.205.205 0 01-.037.02.285.285 0 01-.353-.128.374.374 0 01-.034-.16.309.309 0 01.029-.148.468.468 0 01.19-.2c.078-.042.167-.056.262-.042a.744.744 0 01.532.347.74.74 0 01.107.335.861.861 0 01-.166.61 1.43 1.43 0 01-.184.192 1.33 1.33 0 01-.31.211 1.59 1.59 0 01-.34.12 4.23 4.23 0 01-.809.091 6.99 6.99 0 00-.73.052c-.348.046-.753.145-1.029.37-.13.106-.226.24-.226.405v.016a.452.452 0 00.12.284l.023.023c.037.038.082.07.131.09a.354.354 0 00.11.027zm2.309-6.56a.262.262 0 00.027.035.272.272 0 00-.027.037v-.073zm0-.458a.39.39 0 01-.015-.22.362.362 0 01.111-.186c.01.01.022.018.034.026.019.013.04.024.061.034a.24.24 0 00.115.02.34.34 0 00.077-.016.406.406 0 00-.048.199.368.368 0 00.183.316.28.28 0 00.14.035.287.287 0 00.167-.052.239.239 0 00.079-.096.261.261 0 00.023-.115.224.224 0 00-.072-.166.545.545 0 01.274.21.845.845 0 01.129.474.885.885 0 01-.073.406.555.555 0 01-.306.264.162.162 0 00.035-.078.18.18 0 00-.01-.098.202.202 0 00-.092-.1.25.25 0 00-.232-.003.265.265 0 00-.112.108.313.313 0 00-.035.11l-.003.034a.341.341 0 00.083.243.388.388 0 00.234.122.636.636 0 00-.244.176 1.204 1.204 0 00-.26.514 1.61 1.61 0 00-.041.331 1.335 1.335 0 00.153.655c.054.098.117.18.186.251a.943.943 0 00.132.112h.001l-.006-.001a.548.548 0 00-.422.049c-.082.045-.132.115-.176.141a.523.523 0 00-.08.057l.005-.038a.739.739 0 00.005-.058c.007-.137 0-.285 0-.425v-.383l.008.02c.045.117.115.223.204.332a.017.017 0 00.025-.021 1.17 1.17 0 01-.199-.322.966.966 0 01-.063-.383.86.86 0 01.088-.382 2.02 2.02 0 01.242-.348.017.017 0 00-.002-.024c-.007-.005-.018-.004-.023.003a6.343 6.343 0 00-.106.135.414.414 0 01-.19-.273v-.001a.543.543 0 01.048-.345.296.296 0 01.118-.131c.015.01.127.07.14.047a.017.017 0 00-.006-.023c-.154-.09-.198-.015-.28-.299a.364.364 0 01.019-.281.29.29 0 01.026-.039.76.76 0 00.483.19.548.548 0 00.326-.095.493.493 0 00.208-.292.017.017 0 00-.013-.02.016.016 0 00-.02.012.459.459 0 01-.194.272.52.52 0 01-.307.09.72.72 0 01-.471-.192.238.238 0 01-.058-.098.301.301 0 01-.012-.1.223.223 0 01.019-.094.131.131 0 01.027-.038c.013.026.03.042.05.062a.655.655 0 00.168.134.808.808 0 00.184.077.417.417 0 00.344-.048.016.016 0 00.006-.023.017.017 0 00-.023-.005c-.11.068-.21.064-.333.029a.58.58 0 01-.433-.377zm0 .082a.381.381 0 00.022.038.186.186 0 00-.022.024v-.062zm0-.606a.352.352 0 00.073.096.4.4 0 00-.073.086V9.52zm-.015-.162h-.001a.924.924 0 01-.009-.131c0-.05.008-.098.022-.146h.003v-.008c.14-.454.756-.718.756-1.192a.426.426 0 00-.02-.124.26.26 0 01.17.244.522.522 0 01-.045.238c-.033.07-.087.14-.166.24-.035.043-.09.096-.15.155-.17.167-.543.517-.336.774a.23.23 0 00.093.072.133.133 0 00.068.009l-.003-.033h-.025a.122.122 0 01-.022-.005.068.068 0 01-.035-.031.098.098 0 01-.01-.053.121.121 0 01.017-.055.1.1 0 01.11-.045.138.138 0 01.078.044.18.18 0 01.04.076.217.217 0 01-.066.216.294.294 0 01-.134.063.216.216 0 01-.13-.013.324.324 0 01-.165-.156.472.472 0 01-.04-.133v-.006zm.015 1.608c.03.07.052.148.112.172-.062.057-.066.052-.108.133l-.004.008v-.313zm0 .805c.039.07.094.123.154.162a1.334 1.334 0 00-.154.268v-.43zM11.43 8.247h-.632a2 2 0 00.274-.101c.099-.044.188-.091.266-.135a.241.241 0 00.084.23l.008.006zm-1.452 0h-1.25v.796c-.132-.382-.53-.584-.67-.927-.062-.15-.073-.36.042-.488a.348.348 0 01.181-.106.411.411 0 00-.02.063.62.62 0 00.074.459.625.625 0 00.22.212c.03.005.033-.007.016-.03a.587.587 0 01-.246-.27.598.598 0 01-.032-.363c.03-.124.122-.25.254-.274a.296.296 0 01.209.043.502.502 0 00-.063.363.5.5 0 00.062.171.678.678 0 00.124.14.017.017 0 00.024-.001.017.017 0 00-.001-.023.62.62 0 01-.12-.133.466.466 0 01-.057-.16.454.454 0 01.078-.365.213.213 0 01.135-.08c.048-.006.1.003.159.027-.097.119-.107.28-.078.424a.41.41 0 00.074.163.561.561 0 00.146.134.016.016 0 00.022-.005.016.016 0 00-.005-.023.525.525 0 01-.137-.125.379.379 0 01-.068-.15c-.04-.205.051-.547.305-.493a.26.26 0 01.161.114l.003.004a.279.279 0 00-.245.173.32.32 0 00.047.328c.067.092.17.171.27.238.124.085.258.135.386.164zm5.273.005c-.386 0-.81-.005-1.206-.005a1.084 1.084 0 00.33-.15c.1-.067.203-.146.27-.237.068-.095.098-.204.047-.328a.352.352 0 00-.12-.143h-.001a.302.302 0 00-.138-.044l.003-.005.009-.013a.26.26 0 01.152-.1c.093-.02.148.015.21.068a.36.36 0 01.09.156.57.57 0 01.004.268.37.37 0 01-.067.15c-.025.056-.144.131-.138.152.004.008.015.01.023.006a.571.571 0 00.14-.116.4.4 0 00.087-.17.55.55 0 000-.28.393.393 0 00-.088-.162.28.28 0 01.16-.035c.115.017.184.162.205.26a.488.488 0 01-.053.355.633.633 0 01-.119.133.015.015 0 00-.004.016v.004h.001l.001.001c.006.008.016.01.023.004.059-.043.1-.08.132-.126a.508.508 0 00.07-.384.416.416 0 00-.074-.167.298.298 0 01.206-.041c.02.004.04.01.06.018l.002.002a.309.309 0 01.124.108.444.444 0 01.081.311.582.582 0 01-.292.468.017.017 0 00-.006.023.016.016 0 00.015.009c.005 0 .01 0 .014-.002a.851.851 0 00.209-.19.514.514 0 00.108-.292.618.618 0 00-.014-.174.43.43 0 00-.026-.075.37.37 0 01.178.112.355.355 0 01.093.232c0 .295-.217.511-.412.707l.001.002a1.576 1.576 0 00-.29.402v-.728zm-1.947-.005h-.741c.092-.052.124-.156.05-.282.177.098.409.223.691.282zm-3.015 0a1.52 1.52 0 01-.302-.034 1.074 1.074 0 01-.376-.158 1.05 1.05 0 01-.26-.23c-.063-.086-.09-.183-.044-.295a.25.25 0 01.18-.147.306.306 0 01.177.018c.053.022.132.08.15.14.01.034.015.072.01.11a.18.18 0 01-.118.147.164.164 0 01-.1.006.23.23 0 01-.113-.104.134.134 0 01-.002-.082.12.12 0 01.018-.035c.022-.029.068-.026.095-.005a.081.081 0 01.03.051c.002.01.01.016.02.014a.018.018 0 00.014-.02.116.116 0 00-.043-.073.107.107 0 00-.043-.02.095.095 0 00-.1.032.14.14 0 00-.025.046.167.167 0 00.003.104.203.203 0 00.063.087l.014.016a.869.869 0 00.29.193c.12.049.253.07.413.075a.81.81 0 00.223-.031.59.59 0 00.184-.082.296.296 0 00.1-.111.247.247 0 00.005-.192 1.657 1.657 0 00-.053-.122c-.058-.128-.141-.309-.147-.444a.628.628 0 01.06-.328.365.365 0 01.208-.175c.226-.08.467.058.663.17.082.046.155.088.219.109a.772.772 0 00.275.042.776.776 0 00.274-.043c.063-.02.137-.062.219-.109.195-.111.437-.249.663-.17l.03.012h-.001l.004.002a.361.361 0 01.174.162.638.638 0 01.06.328c-.005.135-.088.316-.146.444-.024.05-.043.093-.053.122a.246.246 0 00.005.192c.051.107.177.164.284.193a.813.813 0 00.223.03c.16-.004.293-.025.414-.074a.86.86 0 00.252-.16.202.202 0 00.057-.032.195.195 0 00.068-.092.158.158 0 00-.02-.152l-.002-.001a.113.113 0 00-.204.047.016.016 0 00.013.019.016.016 0 00.02-.013c.021-.116.198-.077.146.076a.162.162 0 01-.055.077.18.18 0 01-.055.029.175.175 0 01-.1-.007c-.112-.04-.139-.153-.108-.257a.144.144 0 01.03-.054.327.327 0 01.12-.088.305.305 0 01.178-.017.244.244 0 01.18.147.286.286 0 01-.044.295 1.05 1.05 0 01-.26.23 1.08 1.08 0 01-.377.16c-.093.02-.184.03-.267.032h-.127c-.414-.016-.74-.198-.968-.326l-.065-.036a.165.165 0 00-.09-.021.104.104 0 00-.072.035c-.061.074.02.169.038.166.008-.013-.027-.04-.031-.083a.085.085 0 01.018-.061.07.07 0 01.05-.024.125.125 0 01.07.017c.07.038.077.227-.013.298a.163.163 0 01-.104.034.232.232 0 01-.12-.033c-.111-.066-.17-.228-.101-.343.155-.259.459-.118.743.015l.018.008.034.016c-.014-.07-.046-.147-.044-.216.004-.124.06-.21.119-.299.096-.145.233-.399.076-.551-.145-.14-.33-.025-.471.055-1.004.567-1.258-.162-1.7-.12a.224.224 0 00-.136.065c-.157.152-.021.404.076.551.087.133.153.254.1.414a.773.773 0 00-.025.101l.034-.016.035-.016c.28-.131.585-.274.726-.008a.272.272 0 01-.113.35.234.234 0 01-.108.027.162.162 0 01-.103-.034.203.203 0 01-.065-.1c-.02-.059-.006-.161.05-.197a.123.123 0 01.07-.017.07.07 0 01.05.023c.014.017.02.039.018.061-.004.043-.043.068-.03.083.02.019.125-.071.047-.165a.105.105 0 00-.066-.035l-.016-.002a.162.162 0 00-.09.021l-.064.037c-.235.13-.573.32-1.003.326h-.057zm5.812 5.377a2.08 2.08 0 01-.157-.099.896.896 0 01-.127-.107 1.142 1.142 0 01-.304-.581 1.342 1.342 0 01-.026-.3 1.65 1.65 0 01.04-.324c.045-.186.135-.368.253-.5.104-.115.23-.19.363-.19.04 0 .072 0 .098.004a.18.18 0 01.1.049.267.267 0 01.057.076.244.244 0 01.025.135.211.211 0 01-.08.147.19.19 0 01-.068.034.233.233 0 01-.087.006.197.197 0 01-.096-.036.154.154 0 01-.057-.086.224.224 0 01-.004-.084.078.078 0 01.034-.052.118.118 0 01.046-.02c.009-.002.018-.002.028-.002a.09.09 0 01.032.007.13.13 0 01.061.071.018.018 0 00.023.01.017.017 0 00.009-.023.16.16 0 00-.079-.09.13.13 0 00-.075-.009l-.02.005a.233.233 0 00-.093.036h.001a.407.407 0 00-.097.102 1.241 1.241 0 00-.14.229 1.572 1.572 0 00-.105.425c-.004.054-.006.106-.004.157a.727.727 0 00.026.178.928.928 0 00.091.239c.075.14.153.242.23.317l.003.004.037.036h.001a1 1 0 00.177.124l.02.012a.826.826 0 00.079.041.267.267 0 00.082.027.17.17 0 00.117-.027.112.112 0 00.044-.06.118.118 0 00-.005-.075.017.017 0 00-.021-.01.017.017 0 00-.01.017.017.017 0 00-.003.01.122.122 0 01-.015.07.079.079 0 01-.029.026.092.092 0 01-.039.009.142.142 0 01-.08-.023.09.09 0 01-.03-.04.162.162 0 01.004-.14.164.164 0 01.163-.09.22.22 0 01.092.03.278.278 0 01.036.024l.005.005a.26.26 0 01.082.142.22.22 0 01-.013.14.214.214 0 01-.097.098.27.27 0 01-.072.026.383.383 0 01-.198-.005 1.02 1.02 0 01-.182-.07l-.014-.009-.032-.016zm.058-.536a.221.221 0 00.044.175.799.799 0 01-.165-.13 1.061 1.061 0 01-.121-.156.017.017 0 00-.023-.004.017.017 0 00-.005.023c.035.051.073.105.126.16a.84.84 0 00.202.152.222.222 0 00.06.11v.004a.23.23 0 00.028.102 1.366 1.366 0 01-.05-.029h-.001l-.021-.012a.97.97 0 01-.295-.257 1.4 1.4 0 01-.179-.314 1.074 1.074 0 01-.06-.284c-.002-.05 0-.1.005-.154.006-.053.015-.109.027-.169.02-.098.05-.185.085-.262a.99.99 0 01.126-.205l.013-.017.04-.05a.258.258 0 00.007.09.21.21 0 00.019.047.564.564 0 00-.13.219.91.91 0 00-.053.31.832.832 0 00.258.597l.002.002a.36.36 0 00.061.052zm.056.132a.168.168 0 01-.026-.094c0-.05.02-.095.051-.127a.174.174 0 01.288.06.22.22 0 00-.313.161zm.069.155a.19.19 0 01.149-.304.186.186 0 01.187.188v.01a.262.262 0 00-.124-.045.197.197 0 00-.195.108.17.17 0 00-.017.043zm-.17-1.886h-.053a.499.499 0 01-.042-.004.362.362 0 01-.23-.114.304.304 0 01-.073-.25.279.279 0 01.032-.1.233.233 0 01.097-.094.219.219 0 01.202.003.17.17 0 01.077.084.15.15 0 01.008.08.128.128 0 01-.034.069.134.134 0 01-.082.038.104.104 0 01-.099-.047.091.091 0 01-.007-.016v-.004h-.001a.069.069 0 010-.02c.002-.027.033-.043.016-.06-.023-.022-.047.037-.05.055a.088.088 0 00.002.034c.006.06.049.102.103.128.054.026.12.038.17.036h.005a.55.55 0 00.443-.233c.1-.14.154-.342.151-.595a1.037 1.037 0 00-.184-.582c-.105-.146-.25-.243-.42-.245a.492.492 0 00-.202.03.24.24 0 00-.139.18.122.122 0 00-.003.09.11.11 0 00.034.05.1.1 0 00.125.005.017.017 0 00.004-.023.017.017 0 00-.023-.004.065.065 0 01-.049.014.07.07 0 01-.036-.017.085.085 0 01-.024-.036.092.092 0 01.003-.068.163.163 0 01.015-.025.14.14 0 01.065-.054.131.131 0 01.102.007.25.25 0 01.04.022c.033.023.056.06.067.101.01.038.009.08-.002.12a.219.219 0 01-.068.106.25.25 0 01-.161.055.247.247 0 01-.17-.066.34.34 0 01-.104-.239.397.397 0 01.132-.298.493.493 0 01.32-.132c.125.005.333.052.522.183.062.054.148.146.219.267a.913.913 0 01.12.327c.027.183.04.387-.003.58a.828.828 0 01-.324.509.772.772 0 01-.25.118.936.936 0 01-.208.034h-.004l-.029.001zm-.102-.24a.603.603 0 00.453-.321.917.917 0 00.077-.421.877.877 0 00-.134-.492c-.07-.102-.346-.313-.505-.252a.203.203 0 00-.026.013.199.199 0 01.08-.063.45.45 0 01.187-.028c.16.002.295.094.394.23a1 1 0 01.178.565c.003.245-.048.44-.145.575a.517.517 0 01-.417.22h-.006a.358.358 0 01-.136-.026z" id="Fill-777" fill="#C7B37F" mask="url(#mask-2)"/><path d="M8.804 14.624l.014.01a.035.035 0 01.012.007c.006.004.01.01.012.015a.06.06 0 01.006.021l.002.037v.101l-.001.065a4.157 4.157 0 00-.002.137c0 .021-.001.04-.003.058a.75.75 0 01-.003.05l.011.003a.167.167 0 01.025.01.78.78 0 01.027-.038l.037-.053a3.63 3.63 0 00.038-.05l.04-.052a.656.656 0 01.038-.05l.033-.045.026-.033a.392.392 0 01.04-.044.036.036 0 01.019-.005l.013.001c.005 0 .01 0 .016.002a.014.014 0 00.003-.006.023.023 0 00.003-.008v-.007a.242.242 0 00-.016-.005l-.02-.007a.353.353 0 01-.028-.009l-.046-.017-.024-.011c-.001 0-.003.002-.004.005a.068.068 0 00-.004.008v.007l.03.019c.008.005.012.012.012.018 0 .008-.004.017-.013.029l-.02.031-.029.04a3.33 3.33 0 00-.067.092l-.031.043-.027.034a.551.551 0 01-.017.023h-.003v-.134l.001-.063.001-.063.001-.054.001-.04c0-.005.002-.01.004-.014.003-.004.007-.005.012-.005l.015.001.02.002a.012.012 0 00.003-.005.033.033 0 00.003-.01v-.005a5.096 5.096 0 00-.044-.014l-.035-.012a.397.397 0 01-.027-.011c-.01-.004-.018-.008-.026-.01a.443.443 0 00-.02-.009c-.001 0-.003.002-.004.005a.037.037 0 00-.003.009v.006zm.386.143l.02.012c.006.002.01.005.015.009a.02.02 0 01.007.01.03.03 0 01.001.012l-.003.016-.016.063-.023.08a6.59 6.59 0 00-.02.069l-.016.057a1.066 1.066 0 01-.028.081.021.021 0 01-.01.008.026.026 0 01-.014.003l-.015-.001a.173.173 0 01-.018-.003l-.003.005a.024.024 0 00-.003.01v.006l.037.011.049.014.03.01a.81.81 0 00.048.018l.004-.005a.033.033 0 00.003-.009v-.007l-.02-.01-.014-.009a.034.034 0 01-.01-.011.032.032 0 01-.003-.016l.003-.019a.563.563 0 01.007-.027l.011-.04.014-.049.016-.053.017-.063.016-.054a.721.721 0 01.02-.058.026.026 0 01.009-.01.023.023 0 01.012-.003.1.1 0 01.014.002l.019.002.003-.006.002-.008v-.007c-.005 0-.011-.003-.02-.005l-.026-.008a.372.372 0 01-.03-.009l-.031-.01-.028-.011a.412.412 0 00-.02-.007l-.003.005-.003.01v.005zm.185.065a.526.526 0 01.031.015c.007.004.012.01.013.016a.055.055 0 01-.001.024 3.512 3.512 0 01-.016.067l-.013.05-.014.057-.008.03-.01.038-.01.039-.008.032-.005.02a.136.136 0 01-.008.021.025.025 0 01-.01.01.02.02 0 01-.014.003h-.014l-.018-.003c-.002.001-.003.003-.004.006l-.002.01v.006a.916.916 0 00.03.007l.05.013.05.016.03.01a.012.012 0 00.004-.006.056.056 0 00.003-.009v-.007a.257.257 0 01-.043-.024.023.023 0 01-.003-.013l.003-.02a.43.43 0 01.014-.062l.01-.039a.778.778 0 00.008-.035l.002-.002.002-.001.009.002.013.004.012.004a.06.06 0 01.01.003c.002 0 .004.002.006.005a.03.03 0 01.006.01l.01.042.013.047a1.187 1.187 0 00.034.107.08.08 0 00.03.03.218.218 0 00.027.01.223.223 0 00.05.017c.001 0 .003-.002.004-.005l.004-.008.001-.007-.022-.01a.071.071 0 01-.027-.027l-.012-.024-.013-.032a.948.948 0 01-.038-.123.567.567 0 01-.008-.037l.002-.002a.126.126 0 00.084-.06.162.162 0 00.017-.04.141.141 0 00.003-.046.106.106 0 00-.012-.042.1.1 0 00-.028-.035.139.139 0 00-.045-.023.658.658 0 00-.043-.011l-.06-.016a.7.7 0 01-.036-.012l-.02-.006-.014-.005-.003.005-.003.009v.007zm.132.043a.103.103 0 01.05.029c.012.012.02.028.023.046a.16.16 0 01-.006.063.13.13 0 01-.016.04.096.096 0 01-.022.024.057.057 0 01-.023.01.076.076 0 01-.03-.001.483.483 0 01-.053-.017v-.002l.01-.04.01-.043.012-.043.009-.035.006-.023.003-.006c.002-.003.003-.004.005-.004h.007a.06.06 0 01.009 0l.006.002zm.407.549a.302.302 0 01-.017-.007l-.013-.006a.076.076 0 01-.01-.005.025.025 0 01-.01-.01c-.003-.003-.004-.008-.004-.014l.001-.021a1.12 1.12 0 01.007-.033l.01-.053a.838.838 0 00.014-.066l.016-.072.015-.071.014-.062.001-.004.003-.001.016.003.022.005.025.007a.364.364 0 01.024.006c.006.002.01.005.013.009a.04.04 0 01.007.018v.02l-.001.024a.49.49 0 01-.004.026l.004.002.006.002a.02.02 0 00.006.001l.004-.001.01-.033a.928.928 0 01.022-.066l.01-.025-.002-.002a.18.18 0 00-.003-.003.077.077 0 01-.038.002.302.302 0 01-.025-.005l-.23-.057a.123.123 0 01-.029-.01.084.084 0 01-.019-.013h-.006l-.002.001-.007.028-.01.033-.012.032a.15.15 0 01-.01.028l.005.005a.04.04 0 00.008.004c.002.001.004.002.005.001a.961.961 0 01.015-.025l.013-.022.011-.016a.045.045 0 01.016-.013.027.027 0 01.015-.002l.021.005a.48.48 0 01.024.006l.022.005.014.004.002.002v.005l-.017.078-.017.08-.017.075-.014.064a1.251 1.251 0 01-.02.074.04.04 0 01-.01.015.029.029 0 01-.017.005h-.019l-.027-.003a.016.016 0 00-.002.006.044.044 0 00-.002.008v.007l.036.008a1.478 1.478 0 01.095.023l.032.009.023.006c.001 0 .003-.002.004-.005l.003-.009v-.007zm.208-.384l.015.007.013.006c.006.004.01.008.014.013a.06.06 0 01.008.02l.007.036.006.044.007.057.007.064a4.582 4.582 0 00.017.136l.005.058.002.05a.1.1 0 01.038.008 1.328 1.328 0 01.052-.1l.03-.055c.012-.019.022-.038.033-.058l.03-.055.028-.049.022-.037a.963.963 0 01.018-.032.088.088 0 01.016-.017.042.042 0 01.017-.008l.014-.001h.016a.02.02 0 00.002-.007l.002-.009v-.006a.276.276 0 00-.017-.003l-.021-.003-.029-.005a1.232 1.232 0 01-.047-.011l-.026-.007-.003.005a.058.058 0 00-.003.01v.006l.032.015c.01.004.014.01.015.016.001.007-.002.017-.008.03a.49.49 0 01-.017.034l-.023.044-.027.05-.027.05-.026.048-.021.038a.636.636 0 00-.014.025h-.004l-.003-.027a1.623 1.623 0 01-.006-.046l-.007-.06-.008-.062-.007-.062-.006-.054a1.778 1.778 0 01-.005-.04c0-.005 0-.01.003-.014.001-.004.005-.007.01-.007l.015-.001h.02l.003-.006a.03.03 0 00.001-.01l-.001-.006-.017-.003-.028-.004-.036-.007-.028-.007-.027-.006a1.064 1.064 0 00-.02-.005c-.002 0-.003.002-.004.005a.039.039 0 00-.002.009v.006zm.385.402h-.015a.011.011 0 00-.006.004v.021l-.001.028v.03a.308.308 0 00.002.038.188.188 0 00.087.039.152.152 0 00.061-.002.126.126 0 00.083-.063.157.157 0 00.016-.102.13.13 0 00-.017-.04.18.18 0 00-.026-.033.506.506 0 00-.046-.043l-.024-.023a.165.165 0 01-.02-.027.085.085 0 01-.01-.03.11.11 0 01.009-.064.076.076 0 01.016-.023.059.059 0 01.023-.015.067.067 0 01.03-.002l.027.008c.008.004.015.01.022.017a.051.051 0 01.01.018.11.11 0 01.003.026v.038c0 .002.001.003.004.004h.008l.006-.001.008-.038a.699.699 0 01.018-.065l-.026-.01a.654.654 0 00-.068-.02.127.127 0 00-.092.02.112.112 0 00-.033.035.143.143 0 00-.018.053.144.144 0 00.03.113.403.403 0 00.042.048.559.559 0 01.055.063c.006.01.01.02.011.03a.107.107 0 010 .034.106.106 0 01-.011.036.064.064 0 01-.068.034.116.116 0 01-.033-.012.072.072 0 01-.026-.02.108.108 0 01-.02-.042.337.337 0 01-.011-.062z" id="Fill-778" fill="#703D28" mask="url(#mask-2)"/><path d="M10.898 15.173l.016.01.013.009a.064.064 0 01.015.02.218.218 0 01.01.038 1.412 1.412 0 01.019.144l.012.104.013.118.013.125a9.416 9.416 0 01.024.23l.007.091h.012c.005 0 .01.002.014.003a.03.03 0 01.012.006l.017-.082.026-.112.026-.108.028-.112.026-.108.023-.094.019-.072.016-.062a.186.186 0 01.014-.035.037.037 0 01.017-.017.037.037 0 01.013-.005.088.088 0 01.015-.004l.003-.011a.13.13 0 000-.017v-.011a.072.072 0 00-.017-.003l-.021-.002a.406.406 0 01-.029-.005c-.02-.005-.036-.008-.048-.013-.013-.003-.022-.005-.027-.008a.249.249 0 00-.004.04l.034.021a.038.038 0 01.015.03.18.18 0 01-.005.056 1.895 1.895 0 01-.014.065l-.02.086-.022.097a9.945 9.945 0 01-.023.098l-.022.091-.018.075-.012.048-.002.001h-.001l-.007-.05-.009-.083-.012-.108-.013-.115a8.66 8.66 0 01-.012-.114l-.01-.099a1.624 1.624 0 01-.008-.072.095.095 0 010-.027c.002-.008.006-.013.011-.015a.209.209 0 01.015-.004l.02-.005.002-.011a.132.132 0 00-.001-.028.16.16 0 00-.017-.003l-.029-.003a1.057 1.057 0 01-.036-.007l-.028-.008-.028-.007c-.009-.002-.016-.005-.021-.005l-.003.01-.002.017.001.012zm.426.084a.113.113 0 01.021.008l.017.011.013.016a.063.063 0 01.01.022.137.137 0 01.004.026c.001.008.002.016.001.024l-.004.21-.005.177a9.54 9.54 0 01-.007.218.27.27 0 01-.005.045.083.083 0 01-.008.025.039.039 0 01-.013.013.068.068 0 01-.015.007.119.119 0 01-.019.004.058.058 0 00-.001.01v.031h.03l.047.001.047.006.033.004.002-.012v-.029l-.022-.008a.055.055 0 01-.016-.01.037.037 0 01-.014-.014.073.073 0 01-.008-.027.401.401 0 01-.003-.046v-.059l.001-.09.002-.106.002-.113a13.699 13.699 0 00.004-.192c0-.001 0-.002.002-.003v.001l.024.069.034.104.04.123c.015.043.03.087.043.131l.04.124.034.104c.009.03.016.052.02.07.003-.002.005-.002.01 0h.026l.009.002v-.127l.002-.069.007-.34a7.264 7.264 0 01.011-.256.093.093 0 01.007-.025.038.038 0 01.013-.016.047.047 0 01.013-.007l.015-.006a.06.06 0 00.002-.012v-.017a.043.043 0 00-.001-.01h-.049l-.019-.001-.05-.006-.035-.005a.472.472 0 000 .04l.023.009a.444.444 0 01.02.012c.006.003.01.01.013.016a.072.072 0 01.007.025 5.594 5.594 0 010 .223v.124l-.003.13-.002.124-.001.002h-.002c-.005-.014-.013-.035-.021-.063l-.034-.097-.04-.119-.043-.127a19.464 19.464 0 01-.077-.23c-.005-.015-.01-.028-.012-.038a.523.523 0 01-.007-.024l-.003-.016h-.028a.397.397 0 01-.08-.01l-.002.01a.306.306 0 000 .03zm.463.028l.022.007a.058.058 0 01.016.009.026.026 0 01.01.012.329.329 0 01.006.053c.002.034.002.074.002.12v.399a3.247 3.247 0 01-.004.16.062.062 0 01-.007.021.029.029 0 01-.014.013.144.144 0 01-.014.007c-.005.001-.011.002-.018.005a.03.03 0 00-.002.011.087.087 0 00.003.03c.01 0 .023 0 .038-.002a.678.678 0 01.05-.002h.032l.03.003h.02l.002-.01a.192.192 0 000-.03l-.022-.007a.064.064 0 01-.016-.008.034.034 0 01-.014-.014.082.082 0 01-.006-.026.326.326 0 01-.002-.036l-.001-.052v-.58l.003-.037a.071.071 0 01.005-.023.033.033 0 01.011-.012l.014-.006.019-.005a.04.04 0 00.001-.012v-.017l-.002-.011h-.02c-.008.002-.017.002-.027.003a.818.818 0 01-.065 0l-.03-.002-.02-.001a.054.054 0 00-.002.01v.018c0 .005 0 .01.002.012zm.479.775a.287.287 0 01-.033-.006l-.01-.005a.022.022 0 01-.013-.012.068.068 0 01-.008-.022 3.158 3.158 0 01-.006-.1l-.003-.1-.004-.127-.004-.138-.003-.134a7.631 7.631 0 00-.003-.125c0-.002.001-.004.003-.005l.015-.002.023-.003c.009 0 .017-.002.026-.003h.025c.006 0 .01.002.015.008a.077.077 0 01.01.03.946.946 0 01.014.126l.004.003a.02.02 0 00.006 0 .012.012 0 00.007-.002.008.008 0 00.003-.004l.001-.064.002-.068a1.939 1.939 0 01.006-.111l-.003-.006h-.004a.085.085 0 01-.017.015.08.08 0 01-.02.008.238.238 0 01-.024.004l-.235.024a.073.073 0 01-.031-.002.058.058 0 01-.022-.013h-.002a.012.012 0 00-.003.002l-.002.003v.055l-.001.065-.003.063-.002.054c0 .003.002.005.005.007a.022.022 0 00.009.004h.006a4.053 4.053 0 01.021-.136.118.118 0 01.012-.032c.004-.006.008-.01.014-.011l.022-.003a.502.502 0 01.024-.003l.022-.002.014-.001.003.003a.024.024 0 01.002.009l.004.147.003.153.004.143.002.121.002.089v.054a.138.138 0 01-.007.034.036.036 0 01-.015.018.115.115 0 01-.019.009l-.025.01a.043.043 0 00-.002.01v.018l.002.012c.009 0 .02-.003.037-.006a.873.873 0 01.097-.01l.033-.002h.024c.002-.003.002-.006.002-.012l.001-.018-.001-.013zm.1-.01l-.002.012.001.018c0 .006.002.01.002.011.005 0 .01-.002.015-.004l.022-.005c.009-.002.02-.005.031-.006a.474.474 0 01.034-.005l.028-.003a.294.294 0 00.02-.003l.001-.012a.256.256 0 00-.002-.03H12.5l-.014-.005c-.006-.003-.012-.006-.014-.01a.03.03 0 01-.007-.016.563.563 0 010-.063l.007-.06.008-.07.008-.065.002-.01c0-.002.002-.004.003-.004l.113-.02.003.003.003.006.013.056.013.064.013.065.01.053a.064.064 0 01.001.02.03.03 0 01-.006.017l-.016.013-.019.01v.01a.239.239 0 00.003.03l.014-.003c.006-.003.013-.004.02-.005.008-.003.016-.004.025-.006l.024-.004.029-.005.027-.003.021-.002.002-.012a.134.134 0 00-.002-.029.114.114 0 01-.028-.005.04.04 0 01-.018-.014.112.112 0 01-.013-.03.866.866 0 01-.015-.055l-.015-.066-.02-.095-.024-.11-.024-.114-.022-.106a3.54 3.54 0 01-.017-.086l-.012-.053-.008-.038a1.437 1.437 0 00-.005-.035l-.007.002a.053.053 0 01-.014.003.07.07 0 01-.014.002l-.007.001a.434.434 0 01-.008.083c0 .016-.004.038-.007.067l-.012.101a11.362 11.362 0 01-.03.25l-.015.122-.014.103-.01.067a.18.18 0 01-.013.04.057.057 0 01-.018.022.11.11 0 01-.028.016zm.168-.725l.01.046.012.06c.004.022.01.044.013.068a3.474 3.474 0 01.026.132c0 .003-.001.004-.002.004a.058.058 0 01-.01.003.081.081 0 01-.016.003l-.016.003-.023.004-.017.003H12.5l-.003-.003a.02.02 0 010-.006l.005-.055.008-.069.008-.07a1.791 1.791 0 01.013-.12l.001-.003h.002z" id="Fill-779" fill="#6F3D28" mask="url(#mask-2)"/><path d="M12.856 15.206h.021l.015.003a.03.03 0 01.012.006.033.033 0 01.006.012 1.329 1.329 0 01.012.086l.012.113a34.917 34.917 0 01.02.212.03.03 0 01-.006.014.036.036 0 01-.012.01c-.004 0-.009.003-.014.005a.425.425 0 01-.02.005.014.014 0 000 .008l.001.01c0 .004.002.005.002.006a.939.939 0 00.023-.003l.025-.005.034-.006.04-.005c.012 0 .022-.002.031-.003l.023-.002.002-.008-.001-.01c0-.003-.002-.005-.003-.007h-.043a.03.03 0 01-.014-.007.027.027 0 01-.008-.013 1.18 1.18 0 01-.009-.053l-.004-.04-.005-.042-.004-.04v-.003l.002-.002.015-.002.022-.003.025-.003.025-.003a.186.186 0 01.018-.002c.006 0 .01.001.014.005a.04.04 0 01.011.018l.006.015a.346.346 0 01.005.021h.007l.008-.001c.003 0 .005-.002.005-.004a.95.95 0 00-.004-.037l-.005-.042a.388.388 0 01-.003-.03l-.002-.03v-.023a.01.01 0 00-.007-.002h-.009l-.006.002-.001.02c0 .007-.002.013-.003.018a.07.07 0 01-.003.013.03.03 0 01-.007.01.028.028 0 01-.012.007l-.02.004-.028.004a.933.933 0 00-.03.005c-.009 0-.017.002-.025.003h-.001a1.204 1.204 0 01-.006-.05l-.006-.05-.005-.05a1.417 1.417 0 01-.003-.046c0-.003 0-.005.002-.007 0-.002.002-.003.003-.004a.194.194 0 01.015-.003l.023-.003.026-.004c.01 0 .017-.002.025-.003a.304.304 0 01.018-.002c.008 0 .014.001.02.005.004.004.008.01.012.02a.17.17 0 01.005.014l.005.018a.42.42 0 01.005.022c.001.002.003.002.006.002a.024.024 0 00.01-.002l.004-.004-.002-.035-.001-.034v-.049l-.001-.003-.002-.002-.016.005-.02.004a.26.26 0 01-.025.004l-.15.021-.031.004a.404.404 0 01-.027.003c-.009 0-.015 0-.02.002a.048.048 0 000 .016l.003.007zm.603.413a.177.177 0 00.06-.023.206.206 0 00.053-.047.248.248 0 00.038-.068.311.311 0 00.02-.111.512.512 0 00-.024-.144.285.285 0 00-.033-.065.207.207 0 00-.046-.05.164.164 0 00-.13-.03.211.211 0 00-.128.087.226.226 0 00-.027.049.359.359 0 00-.017.166.43.43 0 00.028.104.26.26 0 00.053.084.173.173 0 00.153.048zm.019-.04a.115.115 0 01-.083-.014.17.17 0 01-.041-.036.255.255 0 01-.033-.052.415.415 0 01-.027-.276.148.148 0 01.031-.054.103.103 0 01.024-.018.123.123 0 01.076-.01.125.125 0 01.041.017.15.15 0 01.038.035.344.344 0 01.052.107.447.447 0 01.01.204.173.173 0 01-.025.056.09.09 0 01-.027.026.095.095 0 01-.036.015zm.155-.502a.18.18 0 01.018-.001h.016c.008 0 .015.003.018.008a.054.054 0 01.01.025c0 .006.002.016.005.028l.007.045.01.056a7.507 7.507 0 01.015.095l.008.042.007.042.005.036.003.021a.13.13 0 01.002.026.037.037 0 01-.004.015.025.025 0 01-.011.01l-.014.005-.017.008a.02.02 0 000 .007v.01c.002.003.002.006.004.007l.029-.008.05-.013a1.61 1.61 0 01.053-.01l.03-.006.002-.007-.001-.01a.012.012 0 00-.003-.007h-.036a.02.02 0 01-.013-.003.02.02 0 01-.008-.01.122.122 0 01-.006-.021l-.006-.028-.007-.04a1.654 1.654 0 01-.007-.042l-.006-.038v-.003l.001-.003a.119.119 0 00.01-.002l.013-.003a.129.129 0 01.013-.002l.009-.002c.002 0 .005 0 .008.002a.023.023 0 01.01.007l.026.035.03.04.03.038a.55.55 0 00.046.048.065.065 0 00.016.009.09.09 0 00.023.004c.01 0 .019 0 .028-.002a.233.233 0 00.052-.01c.001 0 .002-.002.002-.006a.04.04 0 000-.01l-.002-.007h-.024a.083.083 0 01-.018-.003.06.06 0 01-.017-.009.624.624 0 01-.045-.042l-.03-.032-.029-.034-.027-.034-.021-.029v-.005a.15.15 0 00.041-.06.168.168 0 00.008-.088.154.154 0 00-.015-.047.122.122 0 00-.028-.036.099.099 0 00-.04-.019.115.115 0 00-.05.001l-.044.01-.06.015-.017.004a1.65 1.65 0 01-.04.007c-.006 0-.011.002-.015.003l-.001.006.001.01c0 .003.001.006.003.007zm.136-.025a.094.094 0 01.058.002.081.081 0 01.038.035c.01.016.018.037.022.063a.16.16 0 01.001.047.107.107 0 01-.01.035.08.08 0 01-.016.022.084.084 0 01-.028.013.425.425 0 01-.051.011h-.003l-.001-.003-.008-.042-.007-.048a3.334 3.334 0 01-.008-.047l-.006-.04-.005-.026.001-.007.002-.006.007-.004.008-.003.006-.002zm.593.322l-.02.003h-.013a.05.05 0 01-.012 0 .024.024 0 01-.022-.016.572.572 0 01-.016-.056 6.88 6.88 0 00-.026-.129l-.015-.078a3.215 3.215 0 01-.016-.076l-.013-.068v-.004l.001-.003.016-.005a.2.2 0 00.022-.006l.025-.006.024-.006a.024.024 0 01.016.002.038.038 0 01.013.015.06.06 0 01.008.018.571.571 0 01.016.051c.002.001.003.002.005.001l.006-.001a.016.016 0 00.007-.002l.003-.004-.005-.036-.004-.04a.477.477 0 01-.003-.036c-.001-.011-.002-.021-.001-.029l-.004-.002h-.004a.103.103 0 01-.033.021.28.28 0 01-.025.007l-.23.061a.103.103 0 01-.03.005.061.061 0 01-.022-.004l-.002.001-.003.003-.001.001.004.032.005.037c0 .013.002.026.003.037l.002.032.006.002.009.001a.015.015 0 00.006-.002l.002-.032.003-.028.004-.022a.055.055 0 01.008-.02.026.026 0 01.013-.01l.021-.006.024-.006.022-.006a.118.118 0 01.014-.003s.002 0 .003.002l.002.004a4.124 4.124 0 01.034.17l.016.082.013.07a1.45 1.45 0 01.013.081c0 .008 0 .015-.003.02a.028.028 0 01-.013.014.65.65 0 01-.042.02.046.046 0 00.002.017l.002.006.036-.01a1.964 1.964 0 01.095-.027l.032-.007a.473.473 0 00.024-.006v-.016a.021.021 0 00-.002-.008zm.02-.49l.023-.003c.007 0 .012-.002.017 0 .005 0 .009.001.011.004a.03.03 0 01.008.01l.005.018a2.102 2.102 0 01.038.155l.018.075.014.062.01.047.005.028a.078.078 0 01.001.017.03.03 0 01-.003.013.04.04 0 01-.011.011l-.013.008a.067.067 0 01-.017.008v.007c0 .004 0 .007.002.01a.014.014 0 00.004.006l.037-.012.048-.016a.521.521 0 01.06-.017l.02-.006v-.007c0-.003 0-.007-.002-.01 0-.003-.002-.006-.003-.006l-.02.002a.09.09 0 01-.017 0 .028.028 0 01-.016-.003.028.028 0 01-.01-.013 2.153 2.153 0 01-.014-.049l-.01-.043-.013-.053-.013-.059a3.137 3.137 0 01-.042-.193c0-.005 0-.01.002-.014a.025.025 0 01.01-.01.154.154 0 01.012-.008l.017-.009v-.007l-.003-.009a.023.023 0 00-.003-.006l-.019.007-.026.009-.03.01-.033.01-.029.007-.019.005v.007c0 .003 0 .007.002.01 0 .003.002.005.003.006zm.518.344a.207.207 0 00.102-.09.27.27 0 00.036-.129.462.462 0 00-.045-.196.273.273 0 00-.042-.059.195.195 0 00-.053-.04.165.165 0 00-.133-.005.227.227 0 00-.133.161.323.323 0 00.005.166c.01.036.023.069.041.098.018.03.04.054.065.073a.162.162 0 00.1.032.18.18 0 00.057-.011zm.013-.044a.13.13 0 01-.044.01.131.131 0 01-.04-.008.16.16 0 01-.046-.029.267.267 0 01-.038-.044.36.36 0 01-.054-.117.422.422 0 01-.015-.08.296.296 0 01.004-.071.159.159 0 01.023-.06.13.13 0 01.022-.022.113.113 0 01.028-.015.127.127 0 01.046-.008.13.13 0 01.085.037.226.226 0 01.036.043.417.417 0 01.067.253.185.185 0 01-.017.06.1.1 0 01-.057.052z" id="Fill-780" fill="#703D28" mask="url(#mask-2)"/><path d="M14.96 14.787a.36.36 0 01.06-.02c.015-.004.027-.002.036.005.01.006.018.018.026.037l.02.045c.01.02.02.044.032.072l.04.089.043.098.023.054.03.068.029.068.025.058.014.034a.19.19 0 01.012.042c.003.01.002.02 0 .028a.062.062 0 01-.016.021l-.02.018-.028.021c-.002.003 0 .008 0 .013l.008.016c.003.005.005.008.009.01l.046-.029a3.096 3.096 0 01.172-.093l.051-.025v-.014l-.006-.016a.016.016 0 00-.008-.01l-.035.012c-.01.004-.02.006-.029.008a.04.04 0 01-.022.001.039.039 0 01-.02-.013.722.722 0 01-.04-.077l-.028-.062-.03-.069-.027-.06v-.006l.001-.005a.115.115 0 00.016-.008l.02-.013.022-.01.017-.008c.004-.003.01-.003.015-.003a.067.067 0 01.02.009l.06.044c.022.018.045.034.069.052l.07.05c.021.016.04.028.057.038a.253.253 0 00.04.019.138.138 0 00.033.006.136.136 0 00.042-.005.606.606 0 00.095-.038l.04-.022c.002-.003.002-.007.001-.013l-.005-.017c-.003-.006-.004-.01-.006-.01a.292.292 0 01-.075.017.1.1 0 01-.033-.007.489.489 0 01-.097-.047c-.02-.011-.041-.025-.064-.039a2.08 2.08 0 01-.126-.086l-.05-.036-.001-.005v-.006a.272.272 0 00.026-.275.234.234 0 00-.047-.072.183.183 0 00-.063-.045.167.167 0 00-.078-.012.23.23 0 00-.087.028l-.073.04-.098.056-.03.015-.034.017-.033.016-.025.013v.011a.086.086 0 00.007.017.02.02 0 00.008.01zm.23-.114a.193.193 0 01.102-.026.13.13 0 01.08.038.287.287 0 01.087.175.162.162 0 01-.023.11.167.167 0 01-.044.036.885.885 0 01-.09.047c-.003 0-.003-.002-.004-.003l-.03-.07-.033-.077a2.847 2.847 0 01-.033-.075l-.027-.063a1.11 1.11 0 00-.018-.041l-.001-.014v-.01l.011-.01.012-.01.01-.007z" id="Fill-781" fill="#703D28" mask="url(#mask-2)"/><path d="M12.127 11.601h2.745v1.849c0 1.59-1.966.562-2.745 1.03V11.6z" id="Fill-782" fill="#FEDF00" mask="url(#mask-2)"/><path d="M12.127 11.601h2.745v1.849c0 1.59-1.966.562-2.745 1.03V11.6z" id="Stroke-783" stroke="#6F3D28" stroke-width=".224" mask="url(#mask-2)"/><path d="M11.837 11.601H9.09v1.849c0 1.59 1.966.562 2.746 1.03V11.6" id="Fill-784" fill="#FEDF00" mask="url(#mask-2)"/></g><g id="Group-788" transform="translate(8.93 11.535)"><mask id="mask-4" fill="#fff"><use xlink:href="#path-3"/></mask><path d="M.47 3.116h.308V-.052H.47v3.168zm1.827 0h.309V-.052h-.309v3.168zm-.609 0h.309V-.052h-.309v3.168zm-.61 0h.31V-.052h-.31v3.168z" id="Fill-786" fill="#D52B1E" mask="url(#mask-4)"/></g><g id="Group-792"><mask id="mask-6" fill="#fff"><use xlink:href="#path-5"/></mask><path d="M11.837 11.601H9.09v1.849c0 1.59 1.966.562 2.746 1.03V11.6z" id="Stroke-789" stroke="#6F3D28" stroke-width=".224" mask="url(#mask-6)"/><path id="Fill-791" fill="#FEDF00" mask="url(#mask-6)" d="M12.127 11.31h2.746V8.542h-2.746z"/></g><g id="Group-795" transform="translate(12.465 8.372)"><mask id="mask-8" fill="#fff"><use xlink:href="#path-7"/></mask><path d="M.046 3.048h.403V.066H.046v2.982zm1.58 0h.403V.066h-.403v2.982zm-.79 0h.403V.066H.836v2.982z" id="Fill-793" fill="#D52B1E" mask="url(#mask-8)"/></g><g id="Group-807"><mask id="mask-10" fill="#fff"><use xlink:href="#path-9"/></mask><path id="Fill-796" fill="#DA0E2B" mask="url(#mask-10)" d="M9.091 11.31h2.746V8.542H9.091z"/><path d="M9.731 9.685c0 .019.347.982.347.982l.746.006.343-.966-.72-.868-.716.846" id="Fill-798" fill="#FFD30F" mask="url(#mask-10)"/><path d="M10.109 10.6c.06-.014.153-.032.26-.04V8.995l-.57.724.31.88zm-.675.439s-.339-.153-.274-.355c.064-.201.264-.255.397-.168.132.086.149.343.247.444.095.098.34.14.347-.215l-.068.017-.069.02-.024-.067-.347-.986-.013-.039.753-.955.059-.075.06.075.73.923.026.032-.014.04-.356.985-.027.074-.073-.029a.559.559 0 00-.031-.012c.01.352.252.31.347.212.098-.101.115-.358.247-.444.133-.087.333-.033.397.168.065.202-.274.355-.274.355l-.083-.136c.152-.069.216-.214.118-.278-.098-.065-.214.182-.27.318-.213.506-.647.283-.704-.236a1.292 1.292 0 00-.162.003c-.058.516-.492.738-.703.233-.057-.136-.173-.383-.27-.318-.098.064-.036.209.117.278l-.083.136zm1.087-.482a.976.976 0 01.25.037l.316-.876-.566-.716v1.555z" id="Fill-799" fill="#FFF" mask="url(#mask-10)"/><path d="M10.109 10.6c.06-.014.153-.032.26-.04V8.995l-.57.724.31.88zm-.675.439s-.339-.153-.274-.355c.064-.201.264-.255.397-.168.132.086.149.343.247.444.095.098.34.14.347-.215l-.068.017-.069.02-.024-.067-.347-.986-.013-.039.753-.955.059-.075.06.075.73.923.026.032-.014.04-.356.985-.027.074-.073-.029a.559.559 0 00-.031-.012c.01.352.252.31.347.212.098-.101.115-.358.247-.444.133-.087.333-.033.397.168.065.202-.274.355-.274.355l-.083-.136c.152-.069.216-.214.118-.278-.098-.065-.214.182-.27.318-.213.506-.647.283-.704-.236a1.292 1.292 0 00-.162.003c-.058.516-.492.738-.703.233-.057-.136-.173-.383-.27-.318-.098.064-.036.209.117.278l-.083.136zm1.087-.482a.976.976 0 01.25.037l.316-.876-.566-.716v1.555z" id="Fill-800" fill="#FFF" mask="url(#mask-10)"/><path id="Fill-801" fill="#FFD30F" mask="url(#mask-10)" d="M9.248 11.116l.637-.697.058.162-.584.638-.111-.103"/><path d="M11.38 9.167s.217.09.323-.083a.271.271 0 00-.124-.389c-.091-.038-.254-.06-.33.019a1.341 1.341 0 00-.074.077c-.01.01-.004.007-.018.007a.827.827 0 00-.084 0c-.022.003-.053.053-.045.067.007.014.095 0 .104.01.01.01.002.036-.008.067-.01.031-.044.023-.068.024-.024 0-.07.08-.03.081.04.003.078-.013.083.021.005.034-.01.052-.035.077a9.209 9.209 0 00-.136.142l.092.115s.154-.156.184-.194c.03-.037.043-.124.044-.172.001-.048-.012-.124.068-.197a.152.152 0 01.207-.006c.127.102.023.248-.072.204-.029-.013-.04.007-.067.043-.026.035-.032.075-.013.087" id="Fill-802" fill="#FFD30F" mask="url(#mask-10)"/><path d="M13.231 12.02c.09-.015.168-.05.238-.046.071.004.175.006.39-.013.213-.02.284-.04.394.003.11.042.144.1.13.168-.015.068-.09.139-.27.118-.179-.02-.24.014-.264.036l-.019-.042-.086.025.01-.04-.047-.01s.052-.037.13-.04c.078-.002.225.025.301.032.077.006.166-.005.191-.056a.086.086 0 00-.038-.12c-.042-.02-.074-.001-.04.032.034.033.043.092-.02.107-.063.016-.258-.045-.353-.036-.096.01-.17.049-.215.05-.046 0-.054.014-.048.035.007.021.063.032.063.032s-.039.035-.019.047c.021.012.115-.001.115-.001s-.013.055.052.04c.064-.016.066-.049.114-.061.05-.013.093 0 .13.01a.582.582 0 00.215-.009s-.012.121-.002.164c.01.044.038.043.054.096.016.054-.026.157-.04.234a.415.415 0 00-.008.12c.001.015-.027.031-.039.05-.019.032-.094.007-.057-.047a.164.164 0 00.025-.072c.011-.073.028-.112.014-.157-.015-.045 0-.089-.028-.117-.027-.028-.088-.052-.148-.113-.06-.061-.078-.077-.13-.072-.052.005-.075.02-.045.04s.058.005.079.023c0 0-.1.058-.2.087-.101.03-.305.026-.305.026s.042-.123.048-.165c.005-.042-.022-.064-.043-.012-.02.052-.035.215-.056.276a.302.302 0 00-.019.161c.008.075.007.103-.02.123a.139.139 0 00-.022.019c-.045.046-.117-.013-.064-.038.012-.006.024-.021.019-.068-.01-.08-.033-.101-.025-.161.007-.06.02-.117.004-.166-.015-.049-.02-.096-.042-.119-.023-.023-.046-.007-.026.028.019.036.042.11.025.128-.016.017-.079.013-.1-.017-.022-.031-.009-.1-.033-.128-.026-.028-.053.001-.04.029.013.027.015.08.032.096.018.017-.018.039-.033.066-.014.026-.007.053.025.08.031.025.045.028.034.048a.154.154 0 00-.01.046c-.003.043-.06.137-.07.044a.255.255 0 00-.027-.085c-.032-.057-.054-.077-.076-.11-.022-.035.007-.053.037-.083.031-.03.064-.05.041-.094s-.066-.048-.062-.098c.004-.049.017-.079-.016-.097-.032-.018-.054-.015-.11-.018-.054-.002-.076-.048-.098-.05-.023-.002-.092.002-.11-.017-.016-.017-.058-.05-.049-.076.01-.025.047-.027.07-.046a.573.573 0 00.077-.11c.016-.025.027-.031.058-.053.031-.022.071-.038.096-.027.025.01.075.058.098.066.022.007.035-.026.09-.04.055-.013.093-.006.07.018-.023.025-.088.066-.086.096.003.03.071.041.19.03zm.888.544a.26.26 0 00-.1.09c-.036.055-.069.097-.102.14-.033.044-.06.043-.064.062-.004.019.05.032.07.022.02-.009.014-.018.053-.03.039-.01.036-.04.067-.095.03-.056.092-.11.114-.13.023-.022-.001-.077-.038-.06zm-.297-.02c.05-.015.151-.081.176-.087.024-.005.069.048.082.07.014.022-.079.036-.077.053.002.017.007.058-.01.065-.016.007-.03-.02-.034-.046-.005-.026-.028-.026-.046-.01-.017.015 0 .058-.023.062-.024.004-.017-.026-.036-.051-.02-.026-.037-.012-.05-.025-.014-.012-.012-.017.018-.03zm-1.07-.554c.027-.044.06-.06.084-.045.022.016.018.053-.023.072-.041.019-.083.003-.06-.027zm-.14.087c.043-.004.084.006.085.04 0 .039-.038.037-.07.018-.03-.019-.053-.055-.015-.058z" id="Fill-803" fill="#DA0E2B" mask="url(#mask-10)"/><path d="M12.93 11.731c-.001.039.033.084.012.111-.021.027-.034.044-.015.07.018.025.044.019.058.001.013-.017.033-.086.013-.113-.02-.027-.041-.033-.036-.066.005-.033-.018-.068-.031-.003zm.14 1.176c-.026-.037-.026-.067-.004-.093.022-.026.05-.042.062-.03.01.01-.017.087-.024.107-.006.02-.012.038-.033.016zm.134.05c.02-.018.048-.035.069-.025.02.009.05.033.05.046.002.014-.097.022-.118.018-.021-.003-.022-.017 0-.039zm.683-.092c.016.01.025.019.027.037.002.018-.005.02-.04.021-.037.001-.07.003-.09 0-.02-.002-.004-.03.021-.05.025-.021.058-.026.082-.008zm.326.074c.03.011.028.033.03.046.003.02-.106.016-.121.013-.076-.018.03-.09.091-.059zm-1.362-.647c-.014.051-.042.056-.051.076-.01.021.04.06.079.055.038-.005.021-.037.03-.079.01-.042-.038-.109-.058-.052zm-.039.15c-.007.01.004.03.016.032.012.002.024-.01.026-.022.001-.01-.032-.032-.042-.01zm.245-.452a.762.762 0 01-.119.199c-.041.038-.042.047-.032.06.009.012.047.02.07.01a.5.5 0 00.124-.172c.015-.051.023-.072.01-.081-.01-.01-.041-.043-.053-.016zm-.272-.097c-.022-.001-.06-.018-.064-.06-.004-.042-.004-.084-.01-.116s.05.002.062.037c.012.035.018.055.032.077.015.02.021.052-.02.062z" id="Fill-804" fill="#0435B5" mask="url(#mask-10)"/><path d="M13.231 13.254c.09-.014.168-.05.238-.046.071.004.175.006.39-.013.213-.019.284-.04.394.003.11.043.144.1.13.168-.015.068-.09.139-.27.119-.179-.021-.24.014-.264.036l-.019-.042-.086.024.01-.04-.047-.01s.052-.037.13-.039c.078-.002.225.024.301.03.077.007.166-.004.191-.054a.086.086 0 00-.038-.12c-.042-.021-.074-.002-.04.032.034.033.043.09-.02.107-.063.015-.258-.046-.353-.037-.096.01-.17.05-.215.05-.046 0-.054.014-.048.035.007.022.063.032.063.032s-.039.035-.019.047c.021.012.115 0 .115 0s-.013.055.052.039c.064-.016.066-.048.114-.06.05-.013.093 0 .13.009a.591.591 0 00.215-.008s-.012.12-.002.164c.01.043.038.042.054.096.016.053-.026.157-.04.233a.416.416 0 00-.008.12c.001.016-.027.032-.039.05-.019.033-.094.007-.057-.047a.162.162 0 00.025-.072c.011-.073.028-.111.014-.157-.015-.044 0-.088-.028-.117-.027-.028-.088-.051-.148-.113-.06-.06-.078-.077-.13-.072-.052.005-.075.02-.045.04s.058.006.079.023c0 0-.1.058-.2.087-.101.03-.305.026-.305.026s.042-.123.048-.165c.005-.041-.022-.064-.043-.012-.02.052-.035.216-.056.276a.303.303 0 00-.019.162c.008.075.007.102-.02.122a.15.15 0 00-.022.019c-.045.046-.117-.012-.064-.038.012-.005.024-.02.019-.068-.01-.08-.033-.1-.025-.161.007-.06.02-.117.004-.165-.015-.05-.02-.097-.042-.12-.023-.022-.046-.007-.026.029.019.035.042.11.025.127-.016.018-.079.014-.1-.017-.022-.03-.009-.099-.033-.128-.026-.028-.053.001-.04.029.013.027.015.08.032.097.018.016-.018.038-.033.065-.014.027-.007.054.025.08.031.025.045.029.034.048a.15.15 0 00-.01.046c-.003.043-.06.138-.07.044a.255.255 0 00-.027-.085c-.032-.056-.054-.077-.076-.11-.022-.034.007-.053.037-.083.031-.03.064-.05.041-.093-.023-.045-.066-.049-.062-.098.004-.05.017-.08-.016-.097-.032-.018-.054-.016-.11-.018-.054-.003-.076-.048-.098-.05-.023-.003-.092.001-.11-.017-.016-.018-.058-.051-.049-.077.01-.024.047-.027.07-.045a.569.569 0 00.077-.11c.016-.025.027-.032.058-.054.031-.022.071-.038.096-.026.025.01.075.057.098.065.022.008.035-.025.09-.039.055-.013.093-.007.07.017-.023.025-.088.066-.086.097.003.03.071.04.19.03zm.888.544a.256.256 0 00-.1.091c-.036.055-.069.096-.102.14-.033.043-.06.042-.064.06-.004.02.05.033.07.024.02-.01.014-.02.053-.03.039-.011.036-.041.067-.096.03-.055.092-.109.114-.13.023-.021-.001-.077-.038-.06zm-.297-.019c.05-.016.151-.082.176-.087.024-.006.069.047.082.069.014.022-.079.036-.077.053.002.018.007.058-.01.066-.016.007-.03-.02-.034-.047-.005-.026-.028-.026-.046-.01-.017.016 0 .058-.023.062-.024.004-.017-.026-.036-.05-.02-.026-.037-.013-.05-.026-.014-.012-.012-.017.018-.03zm-1.07-.555c.027-.043.06-.06.084-.045.022.016.018.053-.023.072-.041.019-.083.004-.06-.027zm-.14.087c.043-.003.084.006.085.04 0 .04-.038.038-.07.018-.03-.018-.053-.055-.015-.058z" id="Fill-805" fill="#DA0E2B" mask="url(#mask-10)"/><path d="M12.93 12.965c-.001.04.033.085.012.112-.021.026-.034.044-.015.069.018.025.044.019.058.001.013-.017.033-.086.013-.113-.02-.027-.041-.033-.036-.066.005-.033-.018-.068-.031-.003zm.14 1.176c-.026-.037-.026-.067-.004-.093.022-.026.05-.042.062-.03.01.01-.017.087-.024.107-.006.02-.012.039-.033.016zm.134.051c.02-.018.048-.035.069-.026.02.01.05.033.05.047.002.013-.097.021-.118.018-.021-.003-.022-.018 0-.039zm.683-.093c.016.01.025.02.027.037.002.019-.005.02-.04.022-.037 0-.07.002-.09 0-.02-.003-.004-.03.021-.051.025-.02.058-.026.082-.008zm.326.075c.03.01.028.033.03.045.003.02-.106.017-.121.013-.076-.017.03-.09.091-.058zm-1.362-.648c-.014.052-.042.056-.051.077-.01.02.04.059.079.054.038-.005.021-.037.03-.078.01-.042-.038-.11-.058-.053zm-.039.151c-.007.009.004.03.016.031.012.002.024-.01.026-.021.001-.012-.032-.033-.042-.01zm.245-.453a.767.767 0 01-.119.2c-.041.037-.042.047-.032.06.009.012.047.02.07.01.02-.01.11-.12.124-.172.015-.052.023-.073.01-.082-.01-.01-.041-.042-.053-.016zm-.272-.096c-.022-.002-.06-.02-.064-.06-.004-.043-.004-.084-.01-.117-.006-.032.05.003.062.037.012.035.018.055.032.077.015.021.021.053-.02.063z" id="Fill-806" fill="#0435B5" mask="url(#mask-10)"/></g></g></g></svg>