<svg width="24" height="24" xmlns="http://www.w3.org/2000/svg" xmlns:xlink="http://www.w3.org/1999/xlink"><defs><path d="M23.993 11.969c0 6.553-5.354 11.866-11.958 11.866-6.605 0-11.96-5.313-11.96-11.866S5.43.104 12.036.104c6.604 0 11.958 5.312 11.958 11.865z" id="path-1"/></defs><g id="Page-1" stroke="none" stroke-width="1" fill="none" fill-rule="evenodd"><g id="Азербайджан-"><mask id="mask-2" fill="#fff"><use xlink:href="#path-1"/></mask><path id="Fill-943" fill="#17AA22" mask="url(#mask-2)" d="M-5.903 23.835h35.876v-7.91H-5.903z"/><path id="Fill-945" fill="#2489F0" mask="url(#mask-2)" d="M-5.903 8.014h35.876V.104H-5.903z"/><path id="Fill-946" fill="#FF1612" mask="url(#mask-2)" d="M-5.903 15.924h35.876v-7.91H-5.903z"/><path d="M13.728 10.08a3.412 3.412 0 00-2.83-1.494c-1.884 0-3.41 1.514-3.41 3.384 0 1.868 1.526 3.383 3.41 3.383a3.412 3.412 0 002.83-1.495 2.845 2.845 0 01-2.11.931c-1.57 0-2.842-1.262-2.842-2.82 0-1.557 1.273-2.82 2.842-2.82.837 0 1.59.36 2.11.931" id="Fill-947" fill="#FFF" mask="url(#mask-2)"/><path id="Fill-948" fill="#FFF" mask="url(#mask-2)" d="M16.027 13.297l-.977-.46-.361 1.012-.364-1.011-.977.461.464-.97-1.02-.359 1.02-.36-.466-.97.977.462.363-1.013.363 1.012.977-.462-.465.97 1.02.359-1.018.36.464.97"/></g></g></svg>