<svg version="1.1" id="Слой_1" xmlns="http://www.w3.org/2000/svg" xmlns:xlink="http://www.w3.org/1999/xlink" x="0" y="0" viewBox="0 0 24 24" xml:space="preserve"><style>.st2{fill:#c00}</style><defs><circle id="SVGID_1_" cx="12" cy="12" r="12"/></defs><clipPath id="SVGID_2_"><use xlink:href="#SVGID_1_" overflow="visible"/></clipPath><g clip-path="url(#SVGID_2_)"><path fill="#fff" d="M0-.5h43.8v25H0z"/><path class="st2" d="M6.3-.5h37.5v16.9H6.3z"/><path fill="#090" d="M6.3 16.3h37.5v8.2H6.3z"/><path class="st2" d="M1.9-.5h.2V0h-.2z"/><path class="st2" d="M2.2 0h-.3v-.6h.3V0zm-.3 0h.2v-.5h-.2V0zm-.2 0h.7v.5h-.7z"/><path class="st2" d="M2.4.6h-.7V0h.8v.6zm-.7 0h.7V0h-.7v.6zm-.3 0h.5v.6h-.5z"/><path class="st2" d="M1.9 1.2h-.5V.6h.5v.6zm-.5 0h.5V.6h-.5v.6zm-.3 0h.5v.6h-.5z"/><path class="st2" d="M1.7 1.8h-.6v-.6h.5v.6zm-.6 0h.5v-.6h-.5v.6z"/><path class="st2" d="M.8 1.8h.5v.6H.8z"/><path class="st2" d="M1.4 2.4H.8v-.6h.5v.6zm-.6-.1h.5v-.5H.8v.5zM2.2.6h.5v.6h-.5z"/><path class="st2" d="M2.7 1.2h-.5V.6h.5v.6zm-.5 0h.5V.6h-.5v.6zm.3 0H3v.6h-.5z"/><path class="st2" d="M3 1.8h-.5v-.6H3v.6zm-.5 0H3v-.6h-.5v.6z"/><path class="st2" d="M2.8 1.8h.7v.6h-.7z"/><path class="st2" d="M3.5 2.4h-.8v-.6h.8v.6zm-.7 0h.7v-.6h-.7v.6zM1.7 3.6h.8v.6h-.8z"/><path class="st2" d="M2.4 4.2h-.8v-.7h.8v.7zm-.7-.1h.7v-.5h-.7v.5z"/><path class="st2" d="M1.4 3h.5v.6h-.5z"/><path class="st2" d="M1.9 3.6h-.5v-.7h.5v.7zm-.5-.1h.5V3h-.5v.5z"/><path class="st2" d="M1.1 2.4h.5V3h-.5z"/><path class="st2" d="M1.6 3h-.5v-.7h.5V3zm-.5-.1h.5v-.5h-.5v.5zm1.1 0h.5v.6h-.5z"/><path class="st2" d="M2.7 3.6h-.5v-.7h.5v.7zm-.5-.1h.5V3h-.5v.5z"/><path class="st2" d="M2.5 2.4H3V3h-.5z"/><path class="st2" d="M3 3h-.5v-.7H3V3zm-.5-.1H3v-.5h-.5v.5zm-.6 1.2h.2v.5h-.2z"/><path class="st2" d="M2.2 4.7h-.3v-.6h.3v.6zm-.3 0h.2v-.5h-.2v.5zM.9-.1h.2v.7H.9z"/><path class="st2" d="M1.1.6H.8v-.7h.3v.7zM.9.6h.2V0H.9v.6zM3-.1h.2v.7H3z"/><path class="st2" d="M3.3.6H3v-.7h.3v.7zM3 .6h.2V0H3v.6zM.9 3.3h.2V4H.9z"/><path class="st2" d="M1.1 4H.8v-.7h.3V4zM.9 4h.2v-.7H.9V4zM3 3.3h.2V4H3z"/><path class="st2" d="M3.3 4H3v-.7h.3V4zM3 4h.2v-.7H3V4zM1.9 1.8h.2v.5h-.2z"/><path class="st2" d="M2.2 2.3h-.3v-.5h.3v.5zm-.3 0h.2v-.5h-.2v.5zM4.1-.5h.2V0h-.2z"/><path class="st2" d="M4.3 0h-.2v-.6h.3V0zm-.2 0h.2v-.5h-.2V0zm-.3 0h.7v.5h-.7z"/><path class="st2" d="M4.6.6h-.8V0h.8v.6zm-.7 0h.7V0h-.7v.6zm.5 0h.5v.6h-.5z"/><path class="st2" d="M4.9 1.2h-.5V.6h.5v.6zm-.5 0h.5V.6h-.5v.6zm.2 0h.5v.6h-.5z"/><path class="st2" d="M5.2 1.8h-.6v-.6h.5v.6zm-.5 0h.5v-.6h-.5v.6z"/><path class="st2" d="M4.9 1.8h.5v.6h-.5z"/><path class="st2" d="M5.5 2.4h-.6v-.6h.5v.6zm-.6 0h.5v-.6h-.5v.6zM3.8 3.6h.8v.6h-.8z"/><path class="st2" d="M4.6 4.2h-.8v-.6h.8v.6zm-.8-.1h.7v-.5h-.7v.5zM4.4 3h.5v.6h-.5z"/><path class="st2" d="M4.9 3.6h-.5v-.7h.5v.7zm-.5-.1h.5V3h-.5v.5z"/><path class="st2" d="M4.6 2.4h.5V3h-.5z"/><path class="st2" d="M5.2 3h-.6v-.6h.5V3zm-.5 0h.5v-.6h-.5V3zm-.6 1.2h.2v.5h-.2z"/><path class="st2" d="M4.3 4.7h-.2v-.6h.3v.6zm-.2 0h.2v-.5h-.2v.5zM5.2-.1h.2v.7h-.2z"/><path class="st2" d="M5.4.6h-.2v-.7h.3v.7zm-.2 0h.2V0h-.2v.6zm0 2.7h.2V4h-.2z"/><path class="st2" d="M5.4 4h-.2v-.7h.3V4zm-.2 0h.2v-.7h-.2V4zM3.6.6h.5v.6h-.5z"/><path class="st2" d="M4.1 1.2h-.5V.6h.5v.6zm-.5 0h.5V.6h-.5v.6zm-.3 0h.5v.6h-.5z"/><path class="st2" d="M3.8 1.8h-.5v-.6h.5v.6zm-.5 0h.5v-.6h-.5v.6zM3.6 3h.5v.6h-.5z"/><path class="st2" d="M4.1 3.6h-.5v-.7h.5v.7zm-.5-.1h.5V3h-.5v.5z"/><path class="st2" d="M3.3 2.4h.5V3h-.5z"/><path class="st2" d="M3.8 3h-.5v-.6h.5V3zm-.5-.1h.5v-.5h-.5v.5zm.8-1.1h.2v.5h-.2z"/><path class="st2" d="M4.3 2.4h-.2v-.6h.3v.6zm-.2-.1h.2v-.5h-.2v.5zm-3 1.9h.4v.4h-.4z"/><path class="st2" d="M1.5 4.6h-.4v-.4h.4v.4zm-.4 0h.4v-.4h-.4v.4zm-.1 0h.7v.2H1z"/><path class="st2" d="M1.7 4.8H.9v-.2h.7v.2zm-.7 0h.7v-.2H1v.2z"/><path class="st2" d="M1 4.7h.3v.4H1z"/><path class="st2" d="M1.2 5H.9v-.3h.3V5zM1 5h.3v-.3H1V5zm.4-.3h.3v.4h-.3z"/><path class="st2" d="M1.7 5h-.3v-.3h.3V5zm-.3 0h.3v-.3h-.3V5zm-.3.7h.4v.4h-.4z"/><path class="st2" d="M1.5 6.1h-.4v-.4h.4v.4zm-.4 0h.4v-.4h-.4v.4z"/><path class="st2" d="M1 5.5h.7v.2H1z"/><path class="st2" d="M1.7 5.7H.9v-.2h.7v.2zm-.7 0h.7v-.2H1v.2z"/><path class="st2" d="M1 5.3h.3v.4H1z"/><path class="st2" d="M1.2 5.6H.9v-.4h.3v.4zm-.2 0h.3v-.3H1v.3zm.4-.3h.3v.4h-.3z"/><path class="st2" d="M1.7 5.6h-.3v-.4h.3v.4zm-.3 0h.3v-.3h-.3v.3zM.8 5h.3v.4H.8z"/><path class="st2" d="M1.1 5.3H.8v-.4h.3v.4zm-.3 0H1V5H.8v.3zm.7-.3h.3v.4h-.3z"/><path class="st2" d="M1.8 5.3h-.3v-.4h.3v.4zm-.3 0h.3V5h-.3v.3zm1.1-1.1H3v.4h-.4z"/><path class="st2" d="M3 4.6h-.4v-.4H3v.4zm-.4 0H3v-.4h-.4v.4zm-.1 0h.7v.2h-.7z"/><path class="st2" d="M3.2 4.8h-.7v-.2h.7v.2zm-.7 0h.7v-.2h-.7v.2z"/><path class="st2" d="M2.5 4.7h.3v.4h-.3z"/><path class="st2" d="M2.8 5h-.3v-.3h.3V5zm-.3 0h.3v-.3h-.3V5zm.4-.3h.3v.4h-.3z"/><path class="st2" d="M3.2 5h-.3v-.3h.3V5zm-.3 0h.3v-.3h-.3V5zm-.3.7H3v.4h-.4z"/><path class="st2" d="M3 6.1h-.4v-.4H3v.4zm-.4 0H3v-.4h-.4v.4z"/><path class="st2" d="M2.5 5.5h.7v.2h-.7z"/><path class="st2" d="M3.2 5.7h-.7v-.2h.7v.2zm-.7 0h.7v-.2h-.7v.2z"/><path class="st2" d="M2.5 5.2h.3v.4h-.3z"/><path class="st2" d="M2.8 5.6h-.3v-.4h.3v.4zm-.3 0h.3v-.4h-.3v.4zm.4-.4h.3v.4h-.3z"/><path class="st2" d="M3.2 5.6h-.3v-.4h.3v.4zm-.3 0h.3v-.4h-.3v.4zm-.6-.7h.3v.4h-.3z"/><path class="st2" d="M2.6 5.3h-.3v-.4h.3v.4zm-.2 0h.2V5h-.2v.3zm.6-.4h.2v.4H3z"/><path class="st2" d="M3.2 5.3H3v-.4h.2v.4zm-.2 0h.2V5H3v.3zm.2-1.1h.4v.4h-.4z"/><path class="st2" d="M3.7 4.6h-.5v-.4h.4v.4zm-.5-.1h.4v-.3h-.4v.3zm-.1.1h.7v.2h-.7z"/><path class="st2" d="M3.8 4.8h-.7v-.2h.7v.2zm-.7 0h.7v-.2h-.7v.2z"/><path class="st2" d="M3.1 4.7h.3v.4h-.3z"/><path class="st2" d="M3.4 5h-.3v-.3h.3V5zm-.3 0h.3v-.3h-.3V5zm.4-.3h.3v.4h-.3z"/><path class="st2" d="M3.8 5h-.3v-.3h.3V5zm-.3 0h.3v-.3h-.3V5zm-.3.7h.4v.4h-.4z"/><path class="st2" d="M3.7 6.1h-.5v-.4h.4v.4zM3.2 6h.4v-.3h-.4V6z"/><path class="st2" d="M3.1 5.5h.7v.2h-.7z"/><path class="st2" d="M3.8 5.7h-.7v-.2h.7v.2zm-.7 0h.7v-.2h-.7v.2z"/><path class="st2" d="M3.1 5.2h.3v.4h-.3z"/><path class="st2" d="M3.4 5.6h-.3v-.4h.3v.4zm-.3 0h.3v-.4h-.3v.4zm.4-.4h.3v.4h-.3z"/><path class="st2" d="M3.8 5.6h-.3v-.4h.3v.4zm-.3 0h.3v-.4h-.3v.4zM3 4.9h.1v.4H3z"/><path class="st2" d="M3.2 5.3H3v-.4h.2v.4zm-.2 0h.1v-.4H3v.4zm.7-.4H4v.4h-.3z"/><path class="st2" d="M3.9 5.3h-.3v-.4h.3v.4zm-.2 0H4v-.4h-.3v.4zm1-1.1h.4v.4h-.4z"/><path class="st2" d="M5.2 4.6h-.5v-.4h.4v.4zm-.4 0h.4v-.4h-.4v.4zm-.2 0h.7v.2h-.7z"/><path class="st2" d="M5.3 4.8h-.7v-.2h.7v.2zm-.7 0h.7v-.2h-.7v.2z"/><path class="st2" d="M4.6 4.7h.3v.4h-.3z"/><path class="st2" d="M4.9 5h-.3v-.3h.3V5zm-.3 0h.3v-.3h-.3V5zm.4-.3h.3v.4H5z"/><path class="st2" d="M5.3 5H5v-.3h.3V5zM5 5h.3v-.3H5V5zm-.3.7h.4v.4h-.4z"/><path class="st2" d="M5.2 6.1h-.5v-.4h.4v.4zm-.4 0h.4v-.4h-.4v.4z"/><path class="st2" d="M4.6 5.5h.7v.2h-.7z"/><path class="st2" d="M5.3 5.7h-.7v-.2h.7v.2zm-.7 0h.7v-.2h-.7v.2z"/><path class="st2" d="M4.6 5.2h.3v.4h-.3z"/><path class="st2" d="M4.9 5.6h-.3v-.4h.3v.4zm-.3 0h.3v-.4h-.3v.4zm.4-.4h.3v.4H5z"/><path class="st2" d="M5.3 5.6H5v-.4h.3v.4zm-.3 0h.3v-.4H5v.4zm-.5-.7h.3v.4h-.3z"/><path class="st2" d="M4.8 5.3h-.3v-.4h.3v.4zm-.3 0h.2V5h-.2v.3zm.7-.4h.3v.4h-.3z"/><path class="st2" d="M5.4 5.3h-.2v-.4h.3v.4zm-.2 0h.3V5h-.3v.3zm-4.3 1h.2V7H.9z"/><path class="st2" d="M1.1 7H.8v-.7h.3V7zM.9 7h.2v-.6H.9V7zM3 6.3h.2V7H3z"/><path class="st2" d="M3.3 7H3v-.7h.3V7zM3 7h.2v-.6H3V7zm2.2-.6h.2v.7h-.2z"/><path class="st2" d="M5.4 7h-.2v-.7h.3V7zm-.2 0h.2v-.6h-.2V7zM1.9 5.6h.2v.5h-.2z"/><path class="st2" d="M2.2 6.2h-.3v-.6h.3v.6zm-.3 0h.2v-.6h-.2v.6zm-.2 0h.8v.6h-.8z"/><path class="st2" d="M2.4 6.8h-.8v-.6h.8v.6zm-.7-.1h.7v-.5h-.7v.5z"/><path class="st2" d="M1.4 6.7h1.3v.6H1.4z"/><path class="st2" d="M2.7 7.3H1.4v-.6h1.3v.6zm-1.3 0h1.3v-.6H1.4v.6zm-.3 0H3v.6H1.1z"/><path class="st2" d="M3 7.9H1.1v-.6H3v.6zm-1.9 0H3v-.6H1.1v.6zm-.2 0h1.3v.6H.9z"/><path class="st2" d="M2.2 8.5H.8v-.6h1.3v.6zm-1.3 0h1.3v-.6H.9v.6zm.2 0h1.3v.6H1.1z"/><path class="st2" d="M2.4 9.1H1.1v-.6h1.3v.6zm-1.3 0h1.3v-.6H1.1v.6zm.3 0h.8v.5h-.8z"/><path class="st2" d="M2.2 9.6h-.8v-.5h.8v.5zm-.8 0h.8v-.5h-.8v.5zm.2 0h.2v.5h-.2z"/><path class="st2" d="M1.9 10.2h-.3v-.6h.3v.6zm-.2 0h.2v-.6h-.2v.6zm2.4-4.6h.2v.5h-.2z"/><path class="st2" d="M4.4 6.2h-.3v-.6h.3v.6zm-.3 0h.2v-.6h-.2v.6zm-.3 0h.8v.6h-.8z"/><path class="st2" d="M4.6 6.8h-.8v-.6h.8v.6zm-.7-.1h.7v-.5h-.7v.5z"/><path class="st2" d="M3.6 6.7h1.3v.6H3.6z"/><path class="st2" d="M4.9 7.3H3.6v-.6h1.3v.6zm-1.3 0h1.3v-.6H3.6v.6zm-.3 0h1.9v.6H3.3z"/><path class="st2" d="M5.2 7.9H3.3v-.6h1.9v.6zm-1.9 0h1.8v-.6H3.3v.6zm.8 0h1.3v.6H4.1z"/><path class="st2" d="M5.4 8.5H4.1v-.6h1.3v.6zm-1.3 0h1.3v-.6H4.1v.6zm-.3 0h1.3v.6H3.8z"/><path class="st2" d="M5.2 9.1H3.8v-.6h1.3v.6zm-1.3 0h1.3v-.6H3.9v.6zm.2 0h.8v.5h-.8z"/><path class="st2" d="M4.9 9.6h-.8v-.5h.8v.5zm-.8 0h.8v-.5h-.8v.5zm.3 0h.2v.5h-.2z"/><path class="st2" d="M4.6 10.2h-.2v-.6h.3v.6zm-.2 0h.2v-.6h-.2v.6zM2.5 7.9h1.3v.3H2.5z"/><path class="st2" d="M3.8 8.2H2.5v-.3h1.3v.3zm-1.3 0h1.3v-.3H2.5v.3zm.3 0h.8v1h-.8z"/><path class="st2" d="M3.5 9.2h-.8v-1h.8v1zm-.7 0h.7v-1h-.7v1zm.1 0h.5v.6h-.5z"/><path class="st2" d="M3.4 9.8h-.5v-.6h.5v.6zm-.5 0h.5v-.6h-.5v.6zM.8 9.2h.3v.4H.8z"/><path class="st2" d="M1.1 9.6H.8v-.4h.3v.4zm-.3 0h.3v-.4H.8v.4zm4.4-.4h.3v.4h-.3z"/><path class="st2" d="M5.4 9.6h-.2v-.4h.3v.4zm-.2 0h.2v-.4h-.2v.4zm-4.4.3h.3v1H.8z"/><path class="st2" d="M1.1 10.9H.8v-1h.3v1zm-.3 0h.3v-1H.8v1zm.3-.6h.3v1.1h-.3z"/><path class="st2" d="M1.4 11.4h-.3v-1.1h.3v1.1zm-.3 0h.2v-1.1h-.2v1.1zm.3-.8h.3v1.1h-.3z"/><path class="st2" d="M1.7 11.7h-.3v-1.1h.3v1.1zm-.3 0h.3v-1.1h-.3v1.1z"/><path class="st2" d="M1.6 11.2h.5v.6h-.5z"/><path class="st2" d="M2.2 11.7h-.6v-.6h.5v.6zm-.5 0h.5v-.5h-.5v.5z"/><path class="st2" d="M1.9 10.6h.5v.8h-.5z"/><path class="st2" d="M2.4 11.4h-.5v-.8h.5v.8zm-.5 0h.5v-.8h-.5v.8z"/><path class="st2" d="M2.2 10.3h.6v.6h-.6z"/><path class="st2" d="M2.8 10.9h-.6v-.7h.6v.7zm-.6 0h.6v-.6h-.6v.6zm.3-1.1h1.3v.4H2.5z"/><path class="st2" d="M3.8 10.2H2.5v-.4h1.3v.4zm-1.3 0h1.3v-.4H2.5v.4z"/><path class="st2" d="M2.5 9.8H3v.6h-.5z"/><path class="st2" d="M3 10.4h-.5v-.6H3v.6zm-.5 0H3v-.6h-.5v.6zm2.7-.5h.3v1h-.3z"/><path class="st2" d="M5.5 10.9h-.3v-1h.3v1zm-.3 0h.3v-1h-.3v1zm-.3-.6h.3v1.1h-.3z"/><path class="st2" d="M5.2 11.4h-.3v-1.1h.3v1.1zm-.3 0h.2v-1.1h-.2v1.1zm-.3-.8h.3v1.1h-.3z"/><path class="st2" d="M4.9 11.7h-.3v-1.1h.3v1.1zm-.3 0h.3v-1.1h-.3v1.1zm-.5-.5h.5v.6h-.5z"/><path class="st2" d="M4.6 11.7h-.5v-.6h.5v.6zm-.5 0h.5v-.5h-.5v.5z"/><path class="st2" d="M3.9 10.6h.5v.8h-.5z"/><path class="st2" d="M4.4 11.4h-.5v-.8h.5v.8zm-.5 0h.5v-.8h-.5v.8z"/><path class="st2" d="M3.5 10.3h.6v.6h-.6z"/><path class="st2" d="M4.1 10.9h-.6v-.7h.6v.7zm-.6 0h.6v-.6h-.6v.6z"/><path class="st2" d="M3.3 9.8h.5v.6h-.5z"/><path class="st2" d="M3.8 10.4h-.5v-.6h.5v.6zm-.5 0h.5v-.6h-.5v.6zM.8 11.7h.3v.7H.8z"/><path class="st2" d="M1.1 12.4H.8v-.7h.3v.7zm-.3 0H1v-.6H.8v.6zm.8-.7h.3v.6h-.3z"/><path class="st2" d="M1.9 12.3h-.3v-.6h.3v.6zm-.2 0H2v-.6h-.3v.6zm2.7-.6h.3v.6h-.3z"/><path class="st2" d="M4.6 12.3h-.3v-.6h.3v.6zm-.2 0h.2v-.6h-.2v.6zm.8-.6h.3v.7h-.3z"/><path class="st2" d="M5.5 12.4h-.3v-.7h.3v.7zm-.3 0h.2v-.6h-.2v.6zM1.9 24h.2v.5h-.2z"/><path class="st2" d="M2.2 24.5h-.3V24h.3v.5zm-.3 0h.2V24h-.2v.5zm-.2-1.1h.7v.5h-.7z"/><path class="st2" d="M2.4 24h-.7v-.6h.8v.6zm-.7 0h.7v-.5h-.7v.5z"/><path class="st2" d="M1.4 22.8h.5v.6h-.5z"/><path class="st2" d="M1.9 23.4h-.5v-.6h.5v.6zm-.5 0h.5v-.6h-.5v.6z"/><path class="st2" d="M1.1 22.2h.5v.6h-.5z"/><path class="st2" d="M1.7 22.8h-.6v-.6h.5v.6zm-.6 0h.5v-.6h-.5v.6z"/><path class="st2" d="M.8 21.6h.5v.6H.8z"/><path class="st2" d="M1.4 22.2H.8v-.6h.5v.6zm-.6 0h.5v-.6H.8v.6zm1.4.6h.5v.6h-.5z"/><path class="st2" d="M2.7 23.4h-.5v-.6h.5v.6zm-.5 0h.5v-.6h-.5v.6z"/><path class="st2" d="M2.5 22.2H3v.6h-.5z"/><path class="st2" d="M3 22.8h-.5v-.6H3v.6zm-.5 0H3v-.6h-.5v.6z"/><path class="st2" d="M2.8 21.6h.7v.6h-.7z"/><path class="st2" d="M3.5 22.2h-.8v-.6h.8v.6zm-.7 0h.7v-.6h-.7v.6zm-1.1-2.3h.8v.6h-.8z"/><path class="st2" d="M2.4 20.5h-.8v-.6h.8v.6zm-.7-.1h.7v-.6h-.7v.6zm-.3.1h.5v.6h-.5z"/><path class="st2" d="M1.9 21.1h-.5v-.6h.5v.6zm-.5-.1h.5v-.6h-.5v.6z"/><path class="st2" d="M1.1 21h.5v.6h-.5z"/><path class="st2" d="M1.6 21.7h-.5V21h.5v.7zm-.5-.1h.5V21h-.5v.6zm1.1-1.1h.5v.6h-.5z"/><path class="st2" d="M2.7 21.1h-.5v-.6h.5v.6zm-.5-.1h.5v-.6h-.5v.6z"/><path class="st2" d="M2.5 21H3v.6h-.5z"/><path class="st2" d="M3 21.7h-.5V21H3v.7zm-.5-.1H3V21h-.5v.6zm-.6-2.3h.2v.5h-.2z"/><path class="st2" d="M2.2 19.9h-.3v-.6h.3v.6zm-.3-.1h.2v-.5h-.2v.5zm-1 3.6h.2v.7H.9z"/><path class="st2" d="M1.1 24.1H.8v-.7h.3v.7zM.9 24h.2v-.6H.9v.6zm2.1-.6h.2v.7H3z"/><path class="st2" d="M3.3 24.1H3v-.7h.3v.7zm-.3 0h.2v-.6H3v.6zM.9 20h.2v.7H.9z"/><path class="st2" d="M1.1 20.7H.8V20h.3v.7zm-.2 0h.2V20H.9v.7zM3 20h.2v.7H3z"/><path class="st2" d="M3.3 20.7H3V20h.3v.7zm-.3 0h.2V20H3v.7zm-1.1 1h.2v.5h-.2z"/><path class="st2" d="M2.2 22.2h-.3v-.6h.3v.6zm-.3 0h.2v-.5h-.2v.5zM4.1 24h.2v.5h-.2z"/><path class="st2" d="M4.3 24.5h-.2V24h.3v.5zm-.2 0h.2V24h-.2v.5zm-.3-1.1h.7v.5h-.7z"/><path class="st2" d="M4.6 24h-.8v-.6h.8v.6zm-.7 0h.7v-.5h-.7v.5z"/><path class="st2" d="M4.4 22.8h.5v.6h-.5z"/><path class="st2" d="M4.9 23.4h-.5v-.6h.5v.6zm-.5 0h.5v-.6h-.5v.6z"/><path class="st2" d="M4.6 22.2h.5v.6h-.5z"/><path class="st2" d="M5.2 22.8h-.6v-.6h.5v.6zm-.5 0h.5v-.6h-.5v.6z"/><path class="st2" d="M4.9 21.6h.5v.6h-.5z"/><path class="st2" d="M5.5 22.2h-.6v-.6h.5v.6zm-.6 0h.5v-.6h-.5v.6zm-1.1-2.4h.8v.6h-.8z"/><path class="st2" d="M4.6 20.4h-.8v-.6h.8v.6zm-.8 0h.7v-.6h-.7v.6zm.6.1h.5v.6h-.5z"/><path class="st2" d="M4.9 21.1h-.5v-.6h.5v.6zm-.5-.1h.5v-.6h-.5v.6z"/><path class="st2" d="M4.6 21h.5v.6h-.5z"/><path class="st2" d="M5.2 21.6h-.6V21h.5v.6zm-.5 0h.5V21h-.5v.6zm-.6-2.3h.2v.5h-.2z"/><path class="st2" d="M4.3 19.9h-.2v-.6h.3v.6zm-.2-.1h.2v-.5h-.2v.5zm1.1 3.6h.2v.7h-.2z"/><path class="st2" d="M5.4 24.1h-.2v-.7h.3v.7zm-.2 0h.2v-.6h-.2v.6zm0-4.1h.2v.7h-.2z"/><path class="st2" d="M5.4 20.7h-.2V20h.3v.7zm-.2 0h.2V20h-.2v.7zm-1.6 2.1h.5v.6h-.5z"/><path class="st2" d="M4.1 23.4h-.5v-.6h.5v.6zm-.5 0h.5v-.6h-.5v.6z"/><path class="st2" d="M3.3 22.2h.5v.6h-.5z"/><path class="st2" d="M3.8 22.8h-.5v-.6h.5v.6zm-.5 0h.5v-.6h-.5v.6zm.3-2.4h.5v.6h-.5z"/><path class="st2" d="M4.1 21.1h-.5v-.6h.5v.6zm-.5-.1h.5v-.6h-.5v.6z"/><path class="st2" d="M3.3 21h.5v.6h-.5z"/><path class="st2" d="M3.8 21.6h-.5V21h.5v.6zm-.5 0h.5V21h-.5v.6zm.8.1h.2v.5h-.2z"/><path class="st2" d="M4.3 22.2h-.2v-.6h.3v.6zm-.2 0h.2v-.5h-.2v.5zm-3-2.8h.4v.4h-.4z"/><path class="st2" d="M1.5 19.8h-.4v-.4h.4v.4zm-.4 0h.4v-.3h-.4v.3zm-.1-.6h.7v.2H1z"/><path class="st2" d="M1.7 19.4H.9v-.2h.7v.2zm-.7 0h.7v-.2H1v.2z"/><path class="st2" d="M1 19h.3v.4H1z"/><path class="st2" d="M1.2 19.3H.9V19h.3v.3zm-.2 0h.3V19H1v.3zm.4-.3h.3v.4h-.3z"/><path class="st2" d="M1.7 19.3h-.3V19h.3v.3zm-.3 0h.3V19h-.3v.3zm-.3-1.4h.4v.4h-.4z"/><path class="st2" d="M1.5 18.3h-.4v-.4h.4v.4zm-.4 0h.4V18h-.4v.3zm-.1 0h.7v.2H1z"/><path class="st2" d="M1.7 18.5H.9v-.2h.7v.2zm-.7 0h.7v-.2H1v.2z"/><path class="st2" d="M1 18.4h.3v.4H1z"/><path class="st2" d="M1.2 18.8H.9v-.4h.3v.4zm-.2-.1h.3v-.3H1v.3zm.4-.3h.3v.4h-.3z"/><path class="st2" d="M1.7 18.8h-.3v-.4h.3v.4zm-.3-.1h.3v-.3h-.3v.3zm-.6 0h.3v.4H.8z"/><path class="st2" d="M1.1 19.1H.8v-.4h.3v.4zM.8 19H1v-.3H.8v.3zm.7-.3h.3v.4h-.3z"/><path class="st2" d="M1.8 19.1h-.3v-.4h.3v.4zm-.3-.1h.3v-.3h-.3v.3zm1.1.4H3v.4h-.4z"/><path class="st2" d="M3 19.8h-.4v-.4H3v.4zm-.4 0H3v-.3h-.4v.3zm-.1-.6h.7v.2h-.7z"/><path class="st2" d="M3.2 19.4h-.7v-.2h.7v.2zm-.7 0h.7v-.2h-.7v.2z"/><path class="st2" d="M2.5 19h.3v.4h-.3z"/><path class="st2" d="M2.8 19.3h-.3V19h.3v.3zm-.3 0h.3V19h-.3v.3zm.4-.3h.3v.4h-.3z"/><path class="st2" d="M3.2 19.3h-.3V19h.3v.3zm-.3 0h.3V19h-.3v.3zm-.3-1.4H3v.4h-.4z"/><path class="st2" d="M3 18.3h-.4v-.4H3v.4zm-.4 0H3V18h-.4v.3zm-.1 0h.7v.2h-.7z"/><path class="st2" d="M3.2 18.5h-.7v-.2h.7v.2zm-.7 0h.7v-.2h-.7v.2z"/><path class="st2" d="M2.5 18.4h.3v.4h-.3z"/><path class="st2" d="M2.8 18.8h-.3v-.4h.3v.4zm-.3 0h.3v-.3h-.3v.3zm.4-.4h.3v.4h-.3z"/><path class="st2" d="M3.2 18.8h-.3v-.4h.3v.4zm-.3 0h.3v-.3h-.3v.3zm-.6-.1h.3v.4h-.3z"/><path class="st2" d="M2.6 19.1h-.3v-.4h.3v.4zm-.2-.1h.2v-.3h-.2v.3zm.6-.3h.2v.4H3z"/><path class="st2" d="M3.2 19.1H3v-.4h.2v.4zM3 19h.2v-.3H3v.3zm.2.4h.4v.4h-.4z"/><path class="st2" d="M3.7 19.8h-.5v-.4h.4v.4zm-.5 0h.4v-.3h-.4v.3zm-.1-.6h.7v.2h-.7z"/><path class="st2" d="M3.8 19.5h-.7v-.2h.7v.2zm-.7-.1h.7v-.2h-.7v.2z"/><path class="st2" d="M3.1 19h.3v.4h-.3z"/><path class="st2" d="M3.4 19.3h-.3V19h.3v.3zm-.3 0h.3V19h-.3v.3zm.4-.3h.3v.4h-.3z"/><path class="st2" d="M3.8 19.3h-.3V19h.3v.3zm-.3 0h.3V19h-.3v.3zm-.3-1.4h.4v.4h-.4z"/><path class="st2" d="M3.7 18.3h-.5v-.4h.4v.4zm-.5 0h.4V18h-.4v.3zm-.1 0h.7v.2h-.7z"/><path class="st2" d="M3.8 18.5h-.7v-.2h.7v.2zm-.7 0h.7v-.2h-.7v.2z"/><path class="st2" d="M3.1 18.4h.3v.4h-.3z"/><path class="st2" d="M3.4 18.8h-.3v-.4h.3v.4zm-.3 0h.3v-.3h-.3v.3zm.4-.4h.3v.4h-.3z"/><path class="st2" d="M3.8 18.8h-.3v-.4h.3v.4zm-.3 0h.3v-.3h-.3v.3zm-.5-.1h.2v.4H3z"/><path class="st2" d="M3.2 19.1H3v-.4h.2v.4zm-.2 0h.2v-.3H3v.3zm.7-.4H4v.4h-.3z"/><path class="st2" d="M3.9 19.1h-.3v-.4h.3v.4zm-.2 0H4v-.3h-.3v.3zm1 .3h.4v.4h-.4z"/><path class="st2" d="M5.2 19.8h-.5v-.4h.4v.4zm-.4 0h.4v-.3h-.4v.3zm-.2-.6h.7v.2h-.7z"/><path class="st2" d="M5.3 19.4h-.7v-.2h.7v.2zm-.7 0h.7v-.2h-.7v.2z"/><path class="st2" d="M4.6 19h.3v.4h-.3z"/><path class="st2" d="M4.9 19.3h-.3V19h.3v.3zm-.3 0h.3V19h-.3v.3zM5 19h.3v.4H5z"/><path class="st2" d="M5.3 19.3H5V19h.3v.3zm-.3 0h.3V19H5v.3zm-.3-1.4h.4v.4h-.4z"/><path class="st2" d="M5.2 18.3h-.5v-.4h.4v.4zm-.4 0h.4V18h-.4v.3zm-.2 0h.7v.2h-.7z"/><path class="st2" d="M5.3 18.5h-.7v-.2h.7v.2zm-.7 0h.7v-.2h-.7v.2z"/><path class="st2" d="M4.6 18.4h.3v.4h-.3z"/><path class="st2" d="M4.9 18.8h-.3v-.4h.3v.4zm-.3 0h.3v-.3h-.3v.3zm.4-.4h.3v.4H5z"/><path class="st2" d="M5.3 18.8H5v-.4h.3v.4zm-.3 0h.3v-.3H5v.3zm-.5-.1h.3v.4h-.3z"/><path class="st2" d="M4.8 19.1h-.3v-.4h.3v.4zm-.3-.1h.2v-.3h-.2v.3zm.7-.3h.3v.4h-.3z"/><path class="st2" d="M5.4 19.1h-.2v-.4h.3v.4zm-.2-.1h.3v-.3h-.3v.3zM.9 17h.2v.7H.9z"/><path class="st2" d="M1.1 17.7H.8V17h.3v.7zm-.2-.1h.2V17H.9v.6zM3 17h.2v.7H3z"/><path class="st2" d="M3.3 17.7H3V17h.3v.7zm-.3-.1h.2V17H3v.6zm2.2-.6h.2v.7h-.2z"/><path class="st2" d="M5.4 17.7h-.2V17h.3v.7zm-.2-.1h.2V17h-.2v.6zm-3.3.2h.2v.5h-.2z"/><path class="st2" d="M2.2 18.4h-.3v-.6h.3v.6zm-.3 0h.2v-.5h-.2v.5z"/><path class="st2" d="M1.7 17.2h.8v.6h-.8z"/><path class="st2" d="M2.4 17.8h-.8v-.6h.8v.6zm-.7 0h.7v-.6h-.7v.6z"/><path class="st2" d="M1.4 16.7h1.3v.6H1.4z"/><path class="st2" d="M2.7 17.3H1.4v-.6h1.3v.6zm-1.3 0h1.3v-.6H1.4v.6z"/><path class="st2" d="M1.1 16.1H3v.6H1.1z"/><path class="st2" d="M3 16.7H1.1v-.6H3v.6zm-1.9 0H3v-.6H1.1v.6z"/><path class="st2" d="M.9 15.5h1.3v.6H.9z"/><path class="st2" d="M2.2 16.1H.8v-.6h1.3v.6zm-1.3 0h1.3v-.6H.9v.6zm.2-1.2h1.3v.6H1.1z"/><path class="st2" d="M2.4 15.5H1.1v-.6h1.3v.6zm-1.3 0h1.3v-.6H1.1v.6zm.3-1.1h.8v.5h-.8z"/><path class="st2" d="M2.2 14.9h-.8v-.6h.8v.6zm-.8 0h.8v-.5h-.8v.5zm.2-1.1h.2v.5h-.2z"/><path class="st2" d="M1.9 14.4h-.3v-.6h.3v.6zm-.2 0h.2v-.5h-.2v.5zm2.4 3.4h.2v.5h-.2z"/><path class="st2" d="M4.4 18.4h-.3v-.6h.3v.6zm-.3 0h.2v-.5h-.2v.5z"/><path class="st2" d="M3.8 17.2h.8v.6h-.8z"/><path class="st2" d="M4.6 17.8h-.8v-.6h.8v.6zm-.7 0h.7v-.6h-.7v.6z"/><path class="st2" d="M3.6 16.7h1.3v.6H3.6z"/><path class="st2" d="M4.9 17.3H3.6v-.6h1.3v.6zm-1.3 0h1.3v-.6H3.6v.6z"/><path class="st2" d="M3.3 16.1h1.9v.6H3.3z"/><path class="st2" d="M5.2 16.7H3.3v-.6h1.9v.6zm-1.9 0h1.8v-.6H3.3v.6z"/><path class="st2" d="M4.1 15.5h1.3v.6H4.1z"/><path class="st2" d="M5.4 16.1H4.1v-.6h1.3v.6zm-1.3 0h1.3v-.6H4.1v.6zm-.3-1.2h1.3v.6H3.8z"/><path class="st2" d="M5.2 15.5H3.8v-.6h1.3v.6zm-1.3 0h1.3v-.6H3.9v.6zm.2-1.1h.8v.5h-.8z"/><path class="st2" d="M4.9 14.9h-.8v-.6h.8v.6zm-.8 0h.8v-.5h-.8v.5zm.3-1.1h.2v.5h-.2z"/><path class="st2" d="M4.6 14.4h-.2v-.6h.3v.6zm-.2 0h.2v-.5h-.2v.5zm-1.9 1.4h1.3v.3H2.5z"/><path class="st2" d="M3.8 16.1H2.5v-.4h1.3v.4zm-1.3 0h1.3v-.3H2.5v.3z"/><path class="st2" d="M2.8 14.8h.8v1h-.8z"/><path class="st2" d="M3.5 15.8h-.8v-1h.8v1zm-.7 0h.7v-.9h-.7v.9zm.1-1.6h.5v.6h-.5z"/><path class="st2" d="M3.4 14.8h-.5v-.6h.5v.6zm-.5 0h.5v-.6h-.5v.6zm-2.1-.4h.3v.4H.8z"/><path class="st2" d="M1.1 14.8H.8v-.4h.3v.4zm-.3 0h.3v-.4H.8v.4zm4.4-.4h.3v.4h-.3z"/><path class="st2" d="M5.4 14.8h-.2v-.4h.3v.4zm-.2 0h.2v-.4h-.2v.4zM.8 13.1h.3v1H.8z"/><path class="st2" d="M1.1 14.1H.8v-1h.3v1zm-.3 0h.3v-1H.8v1zm.3-1.5h.3v1.1h-.3z"/><path class="st2" d="M1.4 13.8h-.3v-1.1h.3v1.1zm-.3-.1h.2v-1.1h-.2v1.1zm.3-1.4h.3v1.1h-.3z"/><path class="st2" d="M1.7 13.4h-.3v-1.1h.3v1.1zm-.3 0h.3v-1.1h-.3v1.1z"/><path class="st2" d="M1.6 12.3h.5v.6h-.5z"/><path class="st2" d="M2.2 12.9h-.6v-.6h.5v.6zm-.5-.1h.5v-.5h-.5v.5z"/><path class="st2" d="M1.9 12.6h.5v.8h-.5z"/><path class="st2" d="M2.4 13.4h-.5v-.8h.5v.8zm-.5 0h.5v-.8h-.5v.8z"/><path class="st2" d="M2.2 13.1h.6v.6h-.6z"/><path class="st2" d="M2.8 13.8h-.6v-.7h.6v.7zm-.6-.1h.6v-.6h-.6v.6zm.3.1h1.3v.4H2.5z"/><path class="st2" d="M3.8 14.2H2.5v-.4h1.3v.4zm-1.3 0h1.3v-.3H2.5v.3z"/><path class="st2" d="M2.5 13.6H3v.6h-.5z"/><path class="st2" d="M3 14.2h-.5v-.6H3v.6zm-.5 0H3v-.6h-.5v.6zm2.7-1.1h.3v1h-.3z"/><path class="st2" d="M5.5 14.1h-.3v-1h.3v1zm-.3 0h.3v-1h-.3v1zm-.3-1.5h.3v1.1h-.3z"/><path class="st2" d="M5.2 13.8h-.3v-1.1h.3v1.1zm-.3-.1h.2v-1.1h-.2v1.1zm-.3-1.4h.3v1.1h-.3z"/><path class="st2" d="M4.9 13.4h-.3v-1.1h.3v1.1zm-.3 0h.3v-1.1h-.3v1.1zm-.5-1.1h.5v.6h-.5z"/><path class="st2" d="M4.6 12.9h-.5v-.6h.5v.6zm-.5-.1h.5v-.5h-.5v.5z"/><path class="st2" d="M3.9 12.6h.5v.8h-.5z"/><path class="st2" d="M4.4 13.4h-.5v-.8h.5v.8zm-.5 0h.5v-.8h-.5v.8z"/><path class="st2" d="M3.5 13.1h.6v.6h-.6z"/><path class="st2" d="M4.1 13.8h-.6v-.7h.6v.7zm-.6-.1h.6v-.6h-.6v.6z"/><path class="st2" d="M3.3 13.6h.5v.6h-.5z"/><path class="st2" d="M3.8 14.2h-.5v-.6h.5v.6zm-.5 0h.5v-.6h-.5v.6zm-.4-2.5h.5v.6h-.5z"/><path class="st2" d="M3.4 12.3h-.5v-.6h.5v.6zm-.5 0h.5v-.6h-.5v.6zm-.3-1h.2v.3h-.2z"/><path class="st2" d="M2.8 11.6h-.2v-.3h.2v.3zm-.2 0h.2v-.3h-.2v.3zm.2-.1H3v.3h-.2z"/><path class="st2" d="M3 11.8h-.3v-.3H3v.3zm-.2 0H3v-.3h-.2v.3zm-.5-.1h.2v.6h-.2z"/><path class="st2" d="M2.6 12.3h-.3v-.6h.2v.6zm-.2 0h.2v-.6h-.2v.6zm.6-1.5h.2v.6H3z"/><path class="st2" d="M3.2 11.4H3v-.6h.2v.6zm-.2 0h.2v-.6H3v.6zm0 1.3h.2v.6H3z"/><path class="st2" d="M3.2 13.3H3v-.6h.2v.6zm-.2 0h.2v-.6H3v.6zm.7-1.6h.2v.6h-.2z"/><path class="st2" d="M3.9 12.3h-.2v-.6h.2v.6zm-.2 0h.2v-.6h-.2v.6zm-1.1.1h.2v.3h-.2z"/><path class="st2" d="M2.8 12.7h-.2v-.3h.2v.3zm-.2 0h.2v-.3h-.2v.3zm.2-.5H3v.3h-.2z"/><path class="st2" d="M3 12.5h-.3v-.3H3v.3zm-.2 0H3v-.3h-.2v.3zm.6-1.2h.2v.3h-.2z"/><path class="st2" d="M3.7 11.6h-.3v-.3h.2v.3zm-.3 0h.2v-.3h-.2v.3z"/><path class="st2" d="M3.3 11.5h.2v.3h-.2z"/><path class="st2" d="M3.5 11.8h-.2v-.3h.2v.3zm-.2 0h.2v-.3h-.2v.3zm.1.6h.2v.3h-.2z"/><path class="st2" d="M3.7 12.7h-.3v-.3h.2v.3zm-.3 0h.2v-.3h-.2v.3z"/><path class="st2" d="M3.3 12.2h.2v.3h-.2z"/><path class="st2" d="M3.5 12.5h-.2v-.3h.2v.3zm-.2 0h.2v-.3h-.2v.3z"/></g></svg>