<svg version="1.1" id="Слой_1" xmlns="http://www.w3.org/2000/svg" xmlns:xlink="http://www.w3.org/1999/xlink" x="0" y="0" viewBox="0 0 24 24" xml:space="preserve"><style>.st4{fill:#2f2566}.st5{fill:#fafbfb}.st6{fill:#eae7f1}.st7{fill:#249040}</style><defs><circle id="SVGID_1_" cx="12" cy="12" r="12"/></defs><clipPath id="SVGID_2_"><use xlink:href="#SVGID_1_" overflow="visible"/></clipPath><path clip-path="url(#SVGID_2_)" fill="#008b39" d="M-10-5.9h44v35.8h-44z"/><g clip-path="url(#SVGID_2_)"><path id="XMLID_377_" d="M25.6 21.1H-1.6V3h27.2v18.1zM1.3 12c.8.5 1.5 1 2.2 1.4.9.6 1.9 1.2 2.8 1.8.7.5 1.5.9 2.2 1.4l2.4 1.5c.3.2.7.4 1 .7h.1c.5-.3 1-.6 1.4-.9 1-.7 2.1-1.3 3.1-2l2.4-1.5c1.2-.8 2.4-1.5 3.6-2.3 0 0 .1 0 .1-.1l-.1-.1L21 11c-1.2-.8-2.4-1.5-3.6-2.3-.8-.5-1.7-1.1-2.5-1.6-1-.6-2-1.3-3-1.9h-.1c-.5.3-1 .6-1.4.9-.7.5-1.5 1.1-2.4 1.6-1.1.7-2.2 1.4-3.4 2.2-.8.5-1.5 1-2.3 1.4-.3.2-.6.4-1 .7z" fill="#008b39"/><path id="XMLID_374_" d="M1.3 12c.4-.3.7-.5 1.1-.7.8-.5 1.5-1 2.3-1.4C5.8 9.1 6.9 8.4 8 7.7c.8-.5 1.7-1.1 2.5-1.6.5-.3 1-.6 1.4-.9h.1c1 .6 2 1.3 3 1.9.8.5 1.7 1.1 2.5 1.6 1.2.8 2.4 1.5 3.6 2.3l1.5.9s.1 0 .1.1l-.1.1c-1.2.8-2.4 1.5-3.6 2.3l-2.4 1.5c-1 .7-2.1 1.3-3.1 2-.5.3-1 .6-1.4.9H12c-.3-.2-.7-.4-1-.7l-2.4-1.5c-.7-.5-1.5-.9-2.2-1.4-.9-.6-1.9-1.2-2.8-1.8-.8-.4-1.5-.9-2.3-1.4zm6.6-1.8c-.1.2-.2.4-.2.6v.1c-.1.3-.1.6-.1.9v.5c0 .2 0 .4.1.6-.1.4.1.8.3 1.1.2.5.5.9.9 1.2.3.3.7.6 1.1.8.6.3 1.2.5 1.9.5h.8c.3 0 .6-.1.8-.2.7-.2 1.3-.6 1.8-1.2.4-.4.7-.9.9-1.4 0-.1.1-.2.1-.3.1-.2.1-.3.1-.5v-1.3c0-.2-.1-.5-.1-.7-.2-.8-.7-1.6-1.3-2.2-.9-.8-1.9-1.2-3.1-1.2-.2 0-.5 0-.7.1-.3 0-.6.1-.9.2-1.1.4-2 1.3-2.5 2.3.1 0 .1 0 .1.1z" fill="#f8c400"/><path id="XMLID_346_" class="st4" d="M16.3 13.4c0 .1-.1.2-.1.3-.2.5-.5 1-.9 1.4-.5.5-1.1.9-1.8 1.2-.3.1-.6.2-.8.2-.3 0-.6.1-.8 0-.7 0-1.3-.2-1.9-.5-.4-.2-.8-.5-1.1-.8-.4-.3-.7-.7-.9-1.2-.2-.4-.3-.7-.4-1.1 0-.2-.1-.4-.1-.6v-.5c0-.3.1-.6.1-.9.1 0 .2-.1.3-.1.3-.1.6-.1.9-.1h.7c.3 0 .6 0 .8.1.2 0 .4 0 .5.1.3.1.7.1 1 .2.6.2 1.2.4 1.7.6.5.3 1.1.6 1.6.9.2.2.5.3.7.5.3.1.4.2.5.3zM12 15.6s.1 0 0 0c0 0 .1 0 0 0 .1-.1.1-.1 0 0 0-.1 0-.1 0 0 0-.1 0-.1 0 0 0-.1 0-.1 0 0 0-.1 0 0 0 0zm-2.6-1.5c.1 0 .1 0 0 0h.1v-.3c0 .1 0 .1-.1.1h.1c0 .1 0 .1-.1.2.1 0 0 0 0 0zm.4-.4c-.1-.1-.1-.1 0 0v-.1l.1-.1h-.1v-.1.1h-.1v.2c-.1-.1-.1-.1.1 0-.1-.1-.1-.1 0 0-.1 0-.1 0 0 0zm-1.4-2.4v-.1h-.1v-.1.1h-.1l.1.1v.1h.1c-.1-.1-.1-.1 0-.1zm.4 1.9v-.1h-.1V13v.1h-.1.1v.1s.1 0 .1-.1c-.1.1-.1.1 0 .1zm6.5.5v-.2.1h-.1.1v.1s.1 0 .1-.1c-.2.1-.2.1-.1.1-.1 0 0 0 0 0zm-5.1.5c0 .1 0 .1 0 0 0 .1 0 .1-.1.1H10h.1v.1h.3v-.1h-.1c-.1.1-.1.1-.1-.1 0 .1 0 .1 0 0zm1.7-.2l.1.1v.1h.2V14h-.1v-.1.1h-.2zm3.3.3h-.1v-.1H15h.1v.1h.2c-.1.1-.1.1-.1 0 0 .1 0 .1 0 0 0 .1 0 0 0 0zm-4.8-2v-.2.1h-.1l.1.1v.1h.1c-.2-.1-.2-.1-.1-.1-.1 0 0 0 0 0zm5.1 1.8s-.1-.1 0 0V14h-.1.1v.1c-.2 0-.2 0 0 0-.1 0-.1 0 0 0-.1 0-.1 0 0 0zm-2 .9s-.1 0 0 0c-.1 0-.1-.1-.1-.1v.1h-.1.1v.1h.1V15c-.1.1-.1.1 0 0zM12 12.6c0 .1 0 .1 0 0l-.1.1c.1 0 .1 0 0 .1 0 0 .1 0 .1-.1v-.1l.1-.1c0 .2 0 .2-.1.1.1.1.1.1 0 0zm2.4 2.5c0-.1 0-.1 0 0V15h-.1v-.1.1h.1v.1h.1c-.2-.1-.2-.1-.1 0-.1-.1-.1-.1 0 0zm-2-2l.1.1v.1h.2v-.1h-.1v-.1.1c-.1-.1-.1-.1-.2-.1.1 0 0 0 0 0zm.7 1.4s-.1 0 0 0c-.1 0-.1-.1-.1-.1s.1.1 0 .1h.1c0 .1 0 0 0 0zm.6.2c.1 0 .1 0 0 0v-.1.1h-.1c.1-.1.1-.1.1 0zm-5.5-1.1v-.1h-.1v.2c0-.1 0-.1.1-.1zm6.2 1.8c-.1 0-.1 0 0 0-.1 0-.1-.1-.1-.1v.1h-.1v.1h.2c-.1 0-.1-.1 0-.1-.1 0 0 0 0 0zm-1.2-3.7c0 .1 0 .1 0 0 0 .1 0 .1 0 0 0 .1 0 .1 0 0 0 .1 0 .1 0 0v.1h.1v-.1h-.1zm1.1 2.9c0-.1 0-.1 0 0 .1-.1.1-.1 0 0v-.2c0 .1-.1.1 0 .2-.1-.1-.1-.1 0 0-.1-.1-.1-.1 0 0-.1-.1-.1-.1 0 0-.1-.1-.1 0 0 0-.1 0 0 0 0 0zm1.6-1c-.1 0-.1 0 0 0l-.1-.1v.1h-.1v.1c.1 0 .1 0 .2-.1-.1.1-.1.1 0 .1v-.1zm-4.4-.4c.1 0 .1 0 0 0 0 .1 0 .1-.1.1.1-.2.1-.2.1-.1zm3.3 1.4c0-.1 0-.1 0 0l-.1-.1s0 .1-.1.1v.1h.2v-.1zm-3.1-1.2c.1.1.1.1 0 0 .1.1.1.1 0 0 .1.1.1.1 0 0l.1.1c0-.1 0-.1-.1-.1.1 0 .1 0 0 0 .1 0 .1 0 0 0zm-2.5-.6h-.1v.1c.1 0 .1 0 .1-.1z"/><path id="XMLID_343_" class="st4" d="M7.9 10.2v-.1c.5-1.1 1.4-1.9 2.6-2.4.3-.1.6-.2.9-.2.2 0 .5-.1.7-.1 1.2 0 2.2.4 3.1 1.2.6.6 1.1 1.3 1.3 2.2.1.2.1.5.1.7v1.1l-.1-.1c-.2-.2-.4-.3-.6-.5l-1.5-.9c-.5-.3-1.1-.5-1.7-.7-.8-.2-1.6-.4-2.4-.4h-2c-.1.1-.3.2-.4.2zm5.4.3s0 .1 0 0c0 .1 0 .1 0 0l.1.1v.1h.2v-.1s.1 0 .1-.1h-.1s-.1 0-.1-.1v.1h-.2z"/><path id="XMLID_326_" class="st5" d="M7.9 10.2c.1 0 .3-.1.4-.1h2c.8.1 1.6.2 2.4.4.6.2 1.1.4 1.7.7l1.5.9c.2.1.4.3.6.5l.1.1v.2c0 .2-.1.3-.1.5-.1-.1-.2-.2-.4-.3-.2-.2-.4-.3-.7-.5-.5-.3-1-.6-1.6-.9-.6-.3-1.1-.5-1.7-.6-.3-.1-.7-.2-1-.2-.2 0-.4-.1-.5-.1-.3 0-.6-.1-.8-.1h-.7c-.3 0-.6 0-.9.1-.1 0-.2 0-.3.1v-.1c-.2-.2-.1-.4 0-.6zm2.5.3s0-.1 0 0v-.2c0-.1 0-.1-.1-.1v.3c0-.1 0-.1.1-.2 0-.1 0-.1-.1-.1s-.1 0-.1.1c.2 0 .2.1.2.2zm-.8-.1v.2h.1c0-.1 0-.1.1-.1h-.1c0-.2 0-.2-.1-.1l.1-.1h.2-.3v.1zm2.9.2c0 .1-.1.3-.1.4v-.1h.1v.1h.1c0-.1 0-.1-.1-.2 0 0 .1 0 .1-.1s0-.1-.1-.1c.2.1.1.1 0 0zm-3.7-.2l.1-.1s0-.1-.1-.1h-.3v.3c0 .1 0 .1.1.1v-.1s0-.1.1 0l.1-.1v.1h.1s-.1 0-.1-.1zm5.4 1.2c.1 0 .1 0 0 0 .1 0 .1 0 .2-.1 0 0 0-.1-.1-.1s-.1-.1-.2-.1c0 .1-.1.2-.1.3v.1s0-.1.1-.1c0-.1.1 0 .1 0l-.1.1h.1c.1 0 .1-.1 0-.1zm-5.1-1.2v.2h.2c.1 0 .1-.1.1-.1v-.1c0-.1-.1-.2-.2-.2H9c.1.1.1.1.1.2zm6.1 1.9c.1 0 .2-.1.1-.2l-.1-.1-.1-.1h.1v.1c0-.1-.1-.1-.2-.1s-.1 0-.1.1v.1l.1.1v.1c.2-.1.2-.1.2 0 0-.1 0-.1 0 0-.1-.1-.1-.1-.1-.2H15v.2c0-.1.1 0 .2 0-.1 0 0 0 0 0zm.6 0c-.1-.1-.1-.2-.2-.2s-.1.1-.1.1v.1l.1.1v.1s-.1 0-.1-.1v-.1h-.1v.2l.1.1c.1 0 .2-.1.1-.2l-.1-.1c.2-.1.3 0 .3 0-.1 0 0 .1 0 0 0 .1 0 .1 0 0 0 .1 0 .1 0 0 0 .1 0 0 0 0zm-2.1-1c0 .1 0 .1 0 0v.1h-.1v-.1c0-.1 0-.1.1-.2.1 0 .2 0 .2.1v-.1s-.1 0-.1-.1h-.2c-.1 0-.1.1-.1.2s0 .2.1.2h.2s0-.1.1-.1h-.2zm-.5 0c.1 0 .1 0 .2-.1 0 0 .1-.1.1-.2s0-.1-.1-.2h-.1c-.1 0-.1 0-.2.1v.1c0 .1 0 .1.1.2-.1.1-.1.1 0 .1zm1.4.4c0 .1 0 .1 0 0 .1.1.1.1.2.1 0 0-.1-.1-.2-.1 0-.1 0-.1.1-.1l.1.1h.1c-.1 0-.2-.1-.3-.2-.1.1-.1.2-.2.3.1 0 .2.1.3.1v-.1c0 .1-.1.1-.1-.1 0 .1 0 .1 0 0zm-2.6-.9s.1 0 0 0h.2c.1 0 .1-.1.1-.1 0-.1 0-.1-.1-.1s-.1 0-.2-.1c0 .1-.1.2-.1.3v.1c.1 0 .1-.1.1-.1zm4.3 1.9c0-.1-.1-.3-.3-.2-.1 0-.1.1-.1.2s0 .1.1.2.1.1.2 0c0 0 .1-.1.1-.2zm-8.4-2.2c0 .2.1.2.2.2s.2 0 .2-.1v-.1c0-.1-.1-.1-.2-.2-.1 0-.1 0-.2.2 0-.1 0-.1 0 0zm3.5 0c0-.1 0-.1 0 0 0-.1 0-.1 0 0 0-.1 0-.1 0 0l-.1-.1h-.1v.3h.2v-.1h-.2c0-.1 0-.1.1-.1h.1c-.1 0-.1 0 0 0-.1.1-.2.1-.2.1 0-.1 0-.1.1-.1 0-.1 0-.1.1 0z"/><path id="XMLID_325_" class="st6" d="M8.4 11.3l-.1-.1h-.1v-.1l-.1-.1h.1v-.1.1h.1c.1.2.1.2.1.3z"/><path id="XMLID_324_" class="st6" d="M8.8 13.2c-.1-.1-.1-.1-.1 0l-.1.1v-.1h-.1.1v-.1.1h.1c.1-.1.1-.1.1 0z"/><path id="XMLID_323_" class="st6" d="M15.3 13.7s-.1 0 0 0l-.1-.1-.1.1v-.1H15h.1v-.1.1c.2 0 .2 0 .2.1z"/><path id="XMLID_322_" class="st6" d="M10.2 14.2c0 .1 0 .1 0 0 0 .1 0 .1.1.1h.1v.1h-.3v-.1H10h.1c.1.1.1 0 .1-.1 0 .1 0 .1 0 0z"/><path id="XMLID_321_" class="st6" d="M11.9 14h.1v-.1.1h.1v.2h-.2v-.1c.1 0 .1 0 0-.1z"/><path id="XMLID_320_" class="st6" d="M15.2 14.3s0 .1 0 0c0 .1 0 .1 0 0-.1.1-.1.1-.1.2h-.2v-.1h-.1.1v.1c.2-.2.2-.2.3-.2z"/><path id="XMLID_319_" class="st6" d="M10.4 12.3s-.1 0 0 0c-.1-.1-.1-.1-.1 0h-.1v-.1l-.1-.1h.1V12v.1c.2.1.2.1.2.2z"/><path id="XMLID_318_" class="st6" d="M15.5 14.1c-.1 0-.1 0 0 0-.1 0-.1 0 0 0h-.2V14h-.1.1c.2 0 .2 0 .2.1-.1-.1 0 0 0 0z"/><path id="XMLID_317_" class="st6" d="M13.5 15c-.1.1-.1.1 0 0-.1.1-.1.1-.1.2h-.1v-.1h-.1.1V15h.2c-.1 0 0 0 0 0z"/><path id="XMLID_316_" class="st6" d="M12 12.6c.1.1.1.1 0 0l.1.1s-.1 0-.1.1v.1l-.1.1v-.1c0-.2 0-.2.1-.3 0 .1 0 .1 0 0z"/><path id="XMLID_315_" class="st6" d="M9.8 13.7c-.1 0-.1 0 0 0-.1-.1-.1-.1 0 0h-.2v-.2h.1v-.1.1h.1l-.1.1.1.1c-.1-.1-.1-.1 0 0z"/><path id="XMLID_314_" class="st6" d="M9.4 14.1s.1 0 0 0V14h-.1c.1 0 .1 0 .1-.1v.3c.2-.1.1-.1 0-.1.1 0 .1 0 0 0z"/><path id="XMLID_313_" class="st6" d="M14.4 15.1c-.1-.1-.1-.1 0 0-.1-.1-.1-.1-.1 0h-.1V15h-.1v-.1.1h.1c.2 0 .1 0 .2.1 0-.1 0-.1 0 0z"/><path id="XMLID_312_" class="st6" d="M12.4 13.1s.1 0 0 0h.1V13v.1h.1s-.1 0 0 .1h-.2v-.1c.1.1.1.1 0 0z"/><path id="XMLID_311_" class="st6" d="M13.1 14.5s-.1.1 0 .1H13v-.1c0-.1 0 0 .1 0-.1 0 0 0 0 0z"/><path id="XMLID_310_" class="st6" d="M13.7 14.7v-.1h.1v-.1.1h.1c-.1.1-.1.1-.2.1.1 0 .1 0 0 0z"/><path id="XMLID_309_" class="st6" d="M8.2 13.6h-.1v-.2h.1v.2z"/><path id="XMLID_308_" class="st6" d="M14.4 15.4s-.1 0 0 0c-.1.1 0 .1 0 .1h-.2v-.1h.1v-.1l.1.1c-.1 0-.1 0 0 0z"/><path id="XMLID_307_" class="st6" d="M13.2 11.7l.1-.1v.1h-.1c0 .2 0 .1 0 0 0 .1 0 .1 0 0 0 .1 0 .1 0 0 0 .1 0 .1 0 0 0 .1 0 .1 0 0z"/><path id="XMLID_306_" class="st6" d="M14.3 14.6s-.1 0 0 0c-.1 0-.1-.1 0 0-.1-.1-.1-.1 0 0-.1-.1-.1-.1 0 0-.1-.1-.1-.1 0 0v-.1.1c.1-.1.1-.1 0 0 0-.1 0-.1 0 0z"/><path id="XMLID_305_" class="st6" d="M15.9 13.6l-.1.1v-.1h.1v-.1c-.1 0-.1 0 0 .1-.1 0-.1 0 0 0z"/><path id="XMLID_304_" class="st6" d="M11.5 13.2v-.1c.1 0 .1 0 .1-.1h.1c-.1.2-.1.2-.2.2.1 0 .1 0 0 0z"/><path id="XMLID_303_" class="st6" d="M14.8 14.6c-.1.1 0 .1 0 .1h-.2v-.1s.1 0 .1-.1l.1.1c0-.1 0-.1 0 0z"/><path id="XMLID_302_" class="st6" d="M11.7 13.4c.1 0 .1 0 0 0 .1 0 .1 0 0 0h.1c0 .1 0 .1-.1 0 .1.1.1.1 0 0 .1.1.1.1 0 0 .1.1.1.1 0 0z"/><path id="XMLID_301_" class="st6" d="M9.2 12.8l-.1.1v-.1h.1z"/><path id="XMLID_300_" class="st6" d="M12 15.6s0-.1 0 0c0-.1 0-.1 0 0 0-.1 0-.1 0 0 0-.1 0-.1 0 0 .1-.1.1-.1 0 0 .1 0 0 0 0 0 .1 0 0 0 0 0z"/><path id="XMLID_296_" class="st6" d="M13.3 10.5h.1v-.1c0 .1 0 .1.1.1h.1s-.1 0-.1.1v.1h-.2v-.1c.1 0 .1 0 0-.1 0 .1 0 .1 0 0 0 .1 0 0 0 0z"/><path id="XMLID_295_" class="st7" d="M10.4 10.5c0-.1 0-.1.1-.2 0-.1 0-.1.1-.1s.1 0 .1.1 0 .1-.1.2v-.3c.1 0 .1 0 .1.1-.4 0-.4.1-.3.2 0-.1 0 0 0 0z"/><path id="XMLID_294_" class="st7" d="M9.6 10.4v-.2h.3-.2c0 .1 0 .1-.1.2l.1-.1h.1c-.1 0-.1 0-.1.1h.2-.3c0 .1 0 .1 0 0z"/><path id="XMLID_291_" class="st7" d="M12.5 10.6c.1 0 .1 0 .2.1.1 0 .1.1.1.1 0 .1 0 .1-.1.1 0 .1.1.2.1.2h-.1V11h-.1v.1c-.2-.1-.1-.4-.1-.5zm.2.3c.1-.1.1-.1 0 0 0-.1 0-.1-.1-.1h-.1c.1 0 .1 0 .2.1 0-.1 0 0 0 0z"/><path id="XMLID_288_" class="st7" d="M8.8 10.4c.1 0 .1.1.1.2h-.1c-.1-.1-.1-.1 0-.2h-.2v.1c-.1 0-.1 0-.1-.1v-.3h.3s.1 0 .1.1 0 .2-.1.2zm-.1-.1c-.1 0-.1 0 0 0-.1.1-.1.1 0 .1v-.1c0 .1.1 0 0 0 .1 0 0 0 0 0z"/><path id="XMLID_285_" class="st7" d="M14.2 11.6v.2h-.1c.1-.1.1-.2.1-.2-.1 0-.1 0-.1-.1 0 0 0 .1-.1.1s-.1 0 0-.1c0-.1.1-.2.1-.3.1 0 .1.1.2.1s.1.1.1.1c0 .1-.1.2-.2.2.1 0 .1 0 0 0zm-.1-.2c.1.1.1.1 0 0 .1 0 .1.1.1.1h.1v-.1c-.1-.1-.1-.1-.2 0z"/><path id="XMLID_282_" class="st7" d="M9.1 10.4v-.2h.2c.1 0 .2.1.2.2v.1c0 .1-.1.1-.1.1h-.2c-.1-.1-.1-.1-.1-.2zm.1 0c0 .2 0 .1.1.1 0 0 .1 0 .1-.1v-.1s0-.1-.1-.1h-.1v.2z"/><path id="XMLID_281_" class="st7" d="M15.2 12.3s-.1 0 0 0c-.1 0-.1-.1-.2-.1V12h.1c-.1.1 0 .2.1.3 0-.1 0-.1 0 0v-.2l-.1-.1v-.1c0-.1.1-.1.1-.1.1 0 .1.1.2.1v-.1h-.1l.1.1.1.1c-.2.2-.2.3-.3.3z"/><path id="XMLID_280_" class="st7" d="M15.8 12.3s0 .1 0 0c0 .1 0 .1 0 0 0 .1 0 .1 0 0 0 .1-.1 0 0 0-.1-.1-.2-.1-.2-.1l.1.1c0 .1 0 .2-.1.2s-.1-.1-.1-.1v-.2h.1v.1l.1.1v-.1l-.1-.1v-.1c0-.1 0-.2.1-.1 0 .2.1.2.1.3z"/><path id="XMLID_279_" class="st7" d="M13.7 11.3l.1.1s0 .1-.1.1h-.2c-.1 0-.1-.1-.1-.2s0-.1.1-.2h.2s.1 0 .1.1c0 0 .1.1 0 .1 0-.1-.1-.1-.2-.1s-.1.1-.1.2v.1h.1c.2-.1.1-.1.1-.2 0 .1 0 .1 0 0z"/><path id="XMLID_276_" class="st7" d="M13.2 11.3c-.1 0-.1 0-.1-.1-.1 0-.1-.1-.1-.2v-.1c0-.1.1-.1.2-.1h.1c.1 0 .1.1.1.2s0 .1-.1.2c0 .1-.1.1-.1.1zm0-.1c.1-.1.1-.1.1-.2 0 0 0-.1-.1-.1h-.1l-.1.1c0 .2.1.2.2.2z"/><path id="XMLID_275_" class="st7" d="M14.6 11.7c0 .1 0 .1 0 0 0 .1.1.2.1.2v.1c-.1 0-.2-.1-.3-.1.1-.1.1-.2.2-.3.1.1.2.1.3.2 0 .1 0 .1-.1 0l-.1-.1h-.1.2c-.1.1-.1.1-.2 0 0 .1 0 .1 0 0z"/><path id="XMLID_272_" class="st7" d="M12 10.8c0-.1.1-.2.1-.3.1 0 .1 0 .2.1.1 0 .1.1.1.1 0 .1 0 .1-.1.1H12c.1 0 0 0 0 0zm0-.1h.1v-.1H12c.1 0 .1 0 0 .1.1-.1 0-.1 0 0z"/><path id="XMLID_269_" class="st7" d="M16.3 12.7c0 .1-.1.2-.1.2H16c-.1-.1-.1-.1-.1-.2s.1-.1.1-.2c.1-.1.3.1.3.2zm-.1 0c0-.1-.1-.1-.1-.1-.1 0-.1.1-.1.1v.1h.1c.1 0 .1 0 .1-.1z"/><path id="XMLID_266_" class="st7" d="M7.9 10.5c0-.1 0-.1 0 0 0-.2.1-.2.2-.2s.1.1.2.2v.1c0 .1-.1.1-.2.1s-.1-.1-.2-.2zm.3 0c0-.1 0-.1 0 0 0-.1-.1-.1-.1-.1s-.1 0-.1.1v.2h.1c.1-.1.1-.1.1-.2z"/><path id="XMLID_265_" class="st7" d="M11.4 10.5h-.1c-.1 0-.1 0-.1.1 0-.1.1-.1.2-.1-.1 0-.1 0 0 0v.1h-.1c-.1 0-.1 0-.1.1h.2v.1h-.2v-.3h.1c0-.1 0-.1.1 0 0-.1 0-.1 0 0 0-.1 0-.1 0 0 0-.1 0-.1 0 0z"/><path id="XMLID_264_" class="st5" d="M12.7 10.9s0-.1 0 0c-.1 0-.1 0-.1-.1h.1v.1c.1-.1.1-.1 0 0z"/><path id="XMLID_263_" class="st5" d="M8.7 10.3s.1 0 0 0c.1 0 0 .1 0 0v.1c-.1 0-.1 0 0-.1-.1 0-.1 0 0 0z"/><path id="XMLID_262_" class="st5" d="M14.1 11.4c.1-.1 0-.1.1-.1v.1h-.1c.1.1.1.1 0 0 .1.1.1.1 0 0z"/><path id="XMLID_261_" class="st5" d="M9.2 10.4v-.1h.1s.1 0 .1.1v.1s0 .1-.1.1c-.2-.1-.1-.1-.1-.2z"/><path id="XMLID_260_" class="st5" d="M13.2 11.2c-.1 0-.1 0-.1-.1s0-.1.1-.1h.1l.1.1c-.1 0-.1 0-.2.1z"/><path id="XMLID_259_" class="st5" d="M12 10.7c0-.1.1-.1 0 0v-.1h.1v.1H12z"/><path id="XMLID_258_" class="st5" d="M16.2 12.7c0 .1-.1.1-.1.1H16v-.1c0-.1.1-.1.1-.1 0-.1.1 0 .1.1z"/><path id="XMLID_257_" class="st5" d="M8.2 10.5c0 .1-.1.1-.1.1H8v-.2l.1-.1c.1 0 .1 0 .1.2 0-.1 0-.1 0 0z"/></g></svg>