<svg width="24" height="24" xmlns="http://www.w3.org/2000/svg" xmlns:xlink="http://www.w3.org/1999/xlink"><defs><path d="M23.87 11.968c0 6.553-5.313 11.865-11.866 11.865C5.45 23.833.137 18.521.137 11.968S5.45.102 12.004.102c6.553 0 11.866 5.313 11.866 11.866z" id="path-1"/></defs><g id="Page-1" stroke="none" stroke-width="1" fill="none" fill-rule="evenodd"><g id="Китай"><mask id="mask-2" fill="#fff"><use xlink:href="#path-1"/></mask><path id="Fill-3161" fill="#FF1612" mask="url(#mask-2)" d="M.137 23.833h35.599V.103H.137z"/><path d="M12.416 1.333l-.526.71-.838-.284.513.721-.53.708.844-.265.51.722.009-.884.845-.262-.839-.281.012-.885zm2.913 2.788l-.837.287-.53-.71.015.885-.838.284.846.26.01.884.51-.724.844.263-.532-.707.512-.722zm.208 3.933l-.885-.014-.256-.847-.287.837-.884-.017.707.53-.29.837.724-.509.705.534-.26-.845.726-.506zm-2.327 2.729l-.846-.26-.01-.885-.508.724L11 10.1l.531.707-.511.722.837-.287.528.71-.014-.885.838-.283zM6.07 2.475l-.809 2.506-2.633-.005L4.761 6.52l-.818 2.503L6.07 7.47l2.128 1.552-.819-2.503 2.133-1.544-2.633.005-.809-2.506z" id="Fill-3163" fill="#FEDF00" mask="url(#mask-2)"/></g></g></svg>