<svg width="24" height="24" xmlns="http://www.w3.org/2000/svg" xmlns:xlink="http://www.w3.org/1999/xlink"><defs><path d="M23.87 11.968c0 6.553-5.313 11.866-11.867 11.866C5.45 23.834.137 18.52.137 11.968.137 5.414 5.45.102 12.003.102c6.554 0 11.866 5.312 11.866 11.866z" id="path-1"/><path d="M23.87 11.968c0 6.553-5.313 11.866-11.867 11.866C5.45 23.834.137 18.52.137 11.968.137 5.414 5.45.102 12.003.102c6.554 0 11.866 5.312 11.866 11.866z" id="path-3"/><path d="M.018.087H9.12v5.736c0 2.149-2.08 4.26-4.552 4.26-2.473 0-4.551-2.111-4.551-4.26" id="path-5"/><path d="M23.87 11.968c0 6.553-5.313 11.866-11.867 11.866C5.45 23.834.137 18.52.137 11.968.137 5.414 5.45.102 12.003.102c6.554 0 11.866 5.312 11.866 11.866z" id="path-7"/></defs><g id="Page-1" stroke="none" stroke-width="1" fill="none" fill-rule="evenodd"><g id="Хорватия"><g id="Group-3210"><mask id="mask-2" fill="#fff"><use xlink:href="#path-1"/></mask><path id="Fill-3205" fill="#F90805" mask="url(#mask-2)" d="M-5.795 8.013h35.597V.102H-5.795z"/><path id="Fill-3207" fill="#F0F0F0" mask="url(#mask-2)" d="M-5.795 15.923h35.597v-7.91H-5.795z"/><path id="Fill-3208" fill="#0437A0" mask="url(#mask-2)" d="M-5.795 23.834h35.597v-7.91H-5.795z"/><path d="M7.475 9.09L6.4 6.659l.805-1.308 1.388.505.99-1.11 1.277.73 1.148-.925 1.135.933 1.29-.733.978 1.107 1.388-.507.808 1.3-1.08 2.432s-4.232-2.134-9.052.007" id="Fill-3209" fill="#0093DD" mask="url(#mask-2)"/></g><g id="Group-3659"><mask id="mask-4" fill="#fff"><use xlink:href="#path-3"/></mask><path d="M7.475 9.09L6.4 6.659l.805-1.308 1.388.505.99-1.11 1.277.73 1.148-.925 1.135.933 1.29-.733.978 1.107 1.388-.507.808 1.3-1.08 2.432s-4.232-2.134-9.052.007z" id="Stroke-3654" stroke="#F4F4F4" stroke-width=".544" mask="url(#mask-4)"/><path d="M7.46 9.39h9.103v5.735c0 2.15-2.08 4.26-4.553 4.26-2.472 0-4.55-2.11-4.55-4.26V9.39z" id="Fill-3656" fill="#FFF" mask="url(#mask-4)"/><path d="M7.46 9.39h9.103v5.735c0 2.15-2.08 4.26-4.553 4.26-2.472 0-4.55-2.11-4.55-4.26V9.39z" id="Stroke-3657" stroke="#F0120D" stroke-width="1.814" mask="url(#mask-4)"/><path d="M7.46 9.39h9.103v5.735c0 2.15-2.08 4.26-4.553 4.26-2.472 0-4.55-2.11-4.55-4.26V9.39" id="Fill-3658" fill="#F4F4F4" mask="url(#mask-4)"/></g><g id="Group-3662" transform="translate(7.442 9.302)"><mask id="mask-6" fill="#fff"><use xlink:href="#path-5"/></mask><path id="Fill-3660" fill="#F90805" mask="url(#mask-6)" d="M9.043.147H7.251v1.988H5.46V.147H3.668v1.988H1.875V.147H.084v1.988h1.791V4.12h1.793v3.974h1.791V4.121H3.668V2.135h1.791V4.12h1.792v3.974h1.792v1.988H7.251V8.095H5.46v1.988H3.668V8.095H1.875v1.988H.084V8.095h1.791V6.11H.084V4.12h1.791v1.99h7.168V4.12H7.251V2.135h1.792V.147"/></g><g id="Group-3665"><mask id="mask-8" fill="#fff"><use xlink:href="#path-7"/></mask><path d="M7.46 9.39h9.103v5.735c0 2.15-2.08 4.26-4.553 4.26-2.472 0-4.55-2.11-4.55-4.26V9.39z" id="Stroke-3663" stroke="#F4F4F4" stroke-width=".871" mask="url(#mask-8)"/></g></g></g></svg>