<svg width="24" height="24" xmlns="http://www.w3.org/2000/svg" xmlns:xlink="http://www.w3.org/1999/xlink"><defs><path d="M23.993 11.968c0 6.553-5.354 11.866-11.958 11.866-6.605 0-11.96-5.313-11.96-11.866C.076 5.414 5.43.102 12.036.102c6.604 0 11.958 5.312 11.958 11.866z" id="path-1"/></defs><g id="Page-1" stroke="none" stroke-width="1" fill="none" fill-rule="evenodd"><g id="Куба"><mask id="mask-2" fill="#fff"><use xlink:href="#path-1"/></mask><path d="M-5.903 23.834h35.875v-4.747H2.382l-8.285 4.747zm35.875-9.493V9.595H10.667l4.142 2.373-4.142 2.373h19.305zm0-9.493V.102H-5.903l8.285 4.746h27.59z" id="Fill-3672" fill="#0437A0" mask="url(#mask-2)"/><path id="Fill-3674" fill="#F90805" mask="url(#mask-2)" d="M-5.903.102v23.732l20.712-11.866L-5.903.102"/><path id="Fill-3675" fill="#F0F0F0" mask="url(#mask-2)" d="M2.382 19.087h27.59v-4.746H10.667l-8.285 4.746"/><path id="Fill-3676" fill="#F0F0F0" mask="url(#mask-2)" d="M3.99 8.408l-.805 2.46H.58l2.107 1.52-.805 2.46 2.11-1.521 2.11 1.52-.806-2.458 2.107-1.52H4.796l-.805-2.46"/><path id="Fill-3677" fill="#F0F0F0" mask="url(#mask-2)" d="M10.667 9.595h19.305V4.849H2.382l8.285 4.746"/></g></g></svg>