<svg width="24" height="24" xmlns="http://www.w3.org/2000/svg" xmlns:xlink="http://www.w3.org/1999/xlink"><defs><path d="M23.93 11.968c0 6.553-5.353 11.866-11.958 11.866C5.368 23.834.013 18.52.013 11.968.013 5.414 5.368.102 11.973.102c6.604 0 11.958 5.312 11.958 11.866z" id="path-1"/></defs><g id="Page-1" stroke="none" stroke-width="1" fill="none" fill-rule="evenodd"><g id="Кипр"><mask id="mask-2" fill="#fff"><use xlink:href="#path-1"/></mask><path id="Fill-3679" fill="#F0F0F0" mask="url(#mask-2)" d="M-5.966 23.834H29.91V.102H-5.966z"/><path d="M4.063 10.178c.192.17.468.522.832.482a.898.898 0 00.742-.562c.096-.27.275-.363.298-.437.023-.075-.023-.166.05-.145.072.02.206.007.302-.007.097-.014.075-.065.174-.096.099-.03.205-.028.28-.067.075-.04.405.136.595.14.19.006.268.073.343.164a.43.43 0 00.472.103c.19-.084.425-.166.533-.488.108-.321.239-1.024.14-1.215-.098-.191-.049-.252-.085-.375-.035-.124-.056-.206.029-.145.084.061.406.313.55.325.143.01.17-.036.265.015.094.052.347.122.458.04.11-.082.401.04.479.054.078.014.284-.07.353-.027.07.045.101.02.155.052.054.032.071.096.136.042.065-.055.106.038.17.006.065-.033.098-.059.172-.022.074.035.208.025.285.047.078.022.101.068.173.067.071-.002.23-.036.322-.015.092.021.369-.013.444-.007.075.006.126-.058.217-.04.092.019.298-.038.433-.036.135.001.241-.097.313-.112.071-.015.129.037.256-.007.126-.044.103-.004.167.022.063.026.183-.036.255-.078.073-.042.192-.135.345-.21a1.02 1.02 0 01.465-.112c.136.007.225-.007.326.007s.373-.135.498-.16c.125-.026.282-.033.425-.11.143-.077.563-.234.739-.363.176-.128.272-.12.362-.174.089-.054.178-.19.258-.278.08-.088.128-.072.138-.138.01-.065.014-.087.115-.047.101.039.075.02.155.02s.124.038.168.004c.045-.034.07-.092.135-.107.066-.015.123-.014.175-.048.052-.034.076-.009.146-.03.07-.022.055-.03.121-.074s.056-.052.077-.1c.022-.047.086.005.139-.038.052-.042.036-.078.084-.142.05-.064.076-.028.144-.054.068-.025.061-.047.123-.056.061-.009.126.01.19-.04.065-.052.119-.119.18-.14.062-.02.121.042.168.03.047-.012.065-.043.108-.06.043-.016.09.024.152-.013s.04-.077.064-.116c.024-.04.054-.019.127-.023.074-.004.197-.114.258-.139.06-.024.083-.002.135-.022.051-.02.089-.059.115-.06.026-.001-.053.063-.077.106-.025.042-.016.092-.04.127-.025.035.006.175-.052.225-.059.049-.168.032-.21.045-.042.014-.037.04-.06.06-.023.02-.052.012-.13.033-.08.022-.535.225-.596.31-.061.085-.054.11-.099.124-.044.016-.015.102-.07.162-.055.059-.11.126-.193.162-.083.035-.291.122-.396.228-.104.106-.186.237-.29.27a7.397 7.397 0 00-.778.352c-.195.11-.721.481-.801.74-.08.258-.09.248-.252.284-.162.036-.208-.042-.352-.02-.145.02-.216.004-.32.138-.103.134-.09.165-.175.254-.084.088-.164.344-.179.472a.614.614 0 00.04.311c.03.067-.003.076-.035.12-.033.044.009.035.043.038.034.004.108.106.166.197.058.09.147.137.186.197.038.06.083.189.15.247.067.058.292.28.39.331.097.052.239.37.31.43.07.059.045.096.026.118-.02.021 0 .09.042.112.042.022.083.009.096.046.013.038-.042.081-.064.05-.022-.03-.047-.036-.106-.027-.059.008-.13-.07-.2-.097-.069-.026-.1-.036-.144-.063-.045-.026-.061-.011-.129-.02-.067-.01-.07-.003-.135.007-.066.01-.093-.047-.157-.044-.063.003-.02.041-.106.075-.086.033-.14.004-.25.036-.11.032-.114.116-.173.147-.06.03-.155.102-.218.121-.064.019-.19-.142-.313-.199-.123-.057-.185-.098-.353-.09-.168.009-.412-.049-.572.001-.16.05-.271.132-.32.213a.888.888 0 00-.095.331c-.004.089.013.135-.013.247-.026.112-.03.198-.11.282-.08.083-.071.142-.117.214-.046.072-.157-.011-.33.025-.173.036-.158.062-.207.133-.05.07-.07.072-.101.099-.032.027-.075-.005-.126.04-.051.045-.014.059-.096.085-.082.026-.156-.021-.241.01-.086.032-.108.064-.23.147-.123.083-.212.029-.275.098-.064.07-.102.112-.156.122-.053.009-.073-.015-.13.026-.055.042-.123.033-.195.07-.073.036-.13-.036-.227-.022-.098.013-.13.072-.182.116-.052.045-.071.023-.127.032-.057.01-.485-.048-.588-.049-.103 0-.383.012-.591.107-.208.096-.256.13-.33.216-.072.086-.158.066-.22.172-.062.106-.06.187-.08.305-.019.118.129.266.175.318.045.053.034.146-.048.112-.08-.034-.085-.103-.169-.07-.083.03-.097-.056-.145-.029-.048.027-.067.083-.119.064-.051-.018-.094-.028-.148.01-.054.037-.071-.003-.04-.061.032-.058.055-.13-.017-.189-.073-.058-.084-.218-.148-.289-.065-.07-.106-.087-.09-.131.016-.045-.023-.036-.064-.05-.042-.013-.068-.086-.124-.102-.056-.017-.103-.032-.16-.026-.06.005-.09.051-.163.013-.074-.039-.077-.013-.144.025-.068.038-.093-.024-.17-.002-.078.023-.143.007-.197.038-.054.031-.081.115-.157.113-.077-.001-.082-.042-.142-.016-.06.025-.102.08-.15.052a1.52 1.52 0 00-.393-.137c-.12-.013-.198-.06-.393-.181s-.276-.152-.358-.161c-.082-.01-.149-.004-.183-.023-.034-.02-.054-.097-.124-.064-.069.032-.075.07-.103.05-.028-.021-.04-.06-.09-.072-.05-.014-.133-.146-.19-.167-.056-.022-.085-.041-.137-.044-.052-.003-.05-.066-.098-.11-.05-.044-.115-.01-.143-.035-.028-.024-.019-.068-.011-.132.006-.064-.03-.113-.045-.183-.016-.07 0-.107-.024-.158-.024-.05-.044-.086-.046-.162 0-.076-.037-.113-.07-.127a.523.523 0 01-.115-.065c-.025-.022-.118.012-.153-.092s-.1-.143-.15-.18c-.05-.037-.08-.04-.007-.189.074-.149-.02-.176-.079-.285-.058-.11-.035-.05-.003-.168.031-.118.026-.18-.01-.233-.037-.053-.07-.267-.18-.366-.109-.1-.143-.214-.117-.334.026-.12.075-.25.162-.182" id="Fill-3681" fill="#F39229" mask="url(#mask-2)"/><path d="M5.019 14.42s.37-.023.719.543c.347.566.213.574.19.562-.024-.012-.599-.259-.754-.443-.155-.184-.178-.531-.155-.662zm8.4 2.624c.006.243-.138.329-.205.263-.075-.074-.04-.196.205-.263zm-.43.145s-.644-.058-1.022.79c0 0 .963-.103 1.021-.79zm.405 1.045s-.268-.464-1.295.016c0 0 .607.376 1.295-.016zm.496-.324c-.282.065-.278.234-.201.278.083.048.238-.029.201-.278zm-.001-.367s-.423-.24-1.102.293c0 0 1.017.147 1.102-.293zm1.39-.014c-.349-.074-1.176-.124-1.22.168-.044.293 1.147.014 1.22-.168zm-.619-.986s-.194.548-.982.677c0 0 .267-.805.982-.677zm1.411-1.02s-.324.731-.873.995c0 0 .263-1.112.873-.995zm-1.003.854c-.001.251-.133.327-.208.259-.08-.073.002-.273.208-.259zm.339.36s-.087.496-1.114.54c0 0 .654-.696 1.114-.54zm.018.386c.005.157-.067.285-.155.24-.088-.044.04-.25.155-.24zm1.322-.456s-.798-.219-1.217.306c0 0 1.018.2 1.217-.306zm-.022-.417c-.178-.02-.398.058-.372.187.026.128.397.029.372-.187zm-.182-.53s-.516.018-.85.822c0 0 .846-.26.85-.823zm1.03-.183s-.003.614-.877.483c0 0 .007-.443.876-.483zm-.958-.856c-.016.159-.016.443-.084.587-.069.145-.16.27-.16.27s-.16-.738.244-.857zm1.036-.26s-.371-.024-.719.542c-.347.566-.214.574-.19.562.023-.012.599-.259.754-.443.155-.184.179-.531.155-.662zm-6.772 3.805l.1-.109.358.159.357-.159.098.112-.202.1.505.366-.295.28-.466-.576-.458.573-.312-.293.526-.362-.211-.09zM9.25 17.044c-.006.243.138.329.205.263.075-.074.04-.196-.205-.263zm.43.145s.644-.058 1.022.79c0 0-.963-.103-1.021-.79zm-.405 1.045s.268-.464 1.294.016c0 0-.606.376-1.294-.016zm-.497-.324c.283.065.28.234.202.278-.084.048-.238-.029-.202-.278zm.002-.367s.423-.24 1.102.293c0 0-1.017.147-1.102-.293zm-1.39-.014c.348-.074 1.176-.124 1.22.168.043.293-1.148.014-1.22-.168zm.618-.986s.195.548.983.677c0 0-.267-.805-.983-.677zm-1.41-1.02s.324.731.873.995c0 0-.263-1.112-.874-.995zm1.003.854c0 .251.133.327.208.259.08-.073-.002-.273-.208-.259zm-.339.36s.087.496 1.114.54c0 0-.654-.696-1.114-.54zm-.019.386c-.004.157.067.285.155.24.088-.044-.038-.25-.155-.24zm-1.321-.456s.798-.219 1.216.306c0 0-1.017.2-1.216-.306zm.022-.417c.178-.02.398.058.372.187-.026.128-.397.029-.372-.187zm.181-.53s.517.018.85.822c0 0-.845-.26-.85-.823zm-1.028-.183s.002.614.876.483c0 0-.007-.443-.876-.483zm.957-.856c.016.159.016.443.084.587.069.145.16.27.16.27s.16-.738-.244-.857z" id="Fill-3682" fill="#40AB19" mask="url(#mask-2)"/></g></g></svg>