<svg width="24" height="24" xmlns="http://www.w3.org/2000/svg" xmlns:xlink="http://www.w3.org/1999/xlink"><defs><path d="M23.87 11.967c0 6.604-5.313 11.958-11.866 11.958S.138 18.571.138 11.967C.138 5.362 5.45.008 12.004.008S23.87 5.362 23.87 11.967z" id="path-1"/><path d="M1.717.109h1.58l-.336.339v2.211c0 .431-.324.516-.511.516h-.492c-.082 0-.195.075-.24.173-.047-.098-.16-.173-.242-.173H.984c-.187 0-.511-.085-.511-.516V.448L.137.108" id="path-3"/><path d="M23.87 11.967c0 6.604-5.313 11.958-11.866 11.958S.138 18.571.138 11.967C.138 5.362 5.45.008 12.004.008S23.87 5.362 23.87 11.967z" id="path-5"/><path id="path-7" d="M.742.186v.392l-.546.496-.067-.1"/><path d="M23.87 11.967c0 6.604-5.313 11.958-11.866 11.958S.138 18.571.138 11.967C.138 5.362 5.45.008 12.004.008S23.87 5.362 23.87 11.967z" id="path-9"/><path d="M1.023.144v1.673c0 .251-.24.447-.403.447-.162 0-.41-.138-.41-.494 0-.357-.097-.673-.097-.673l.91-.953z" id="path-11"/><path d="M23.87 11.967c0 6.604-5.313 11.958-11.866 11.958S.138 18.571.138 11.967C.138 5.362 5.45.008 12.004.008S23.87 5.362 23.87 11.967z" id="path-13"/><path id="path-15" d="M.102.186l.612.788-.067.1L.102.578"/><path d="M23.87 11.967c0 6.604-5.313 11.958-11.866 11.958S.138 18.571.138 11.967C.138 5.362 5.45.008 12.004.008S23.87 5.362 23.87 11.967z" id="path-17"/><path d="M.006.144l.911.953S.82 1.413.82 1.77c0 .356-.249.494-.41.494-.163 0-.404-.196-.404-.447V.144z" id="path-19"/><path d="M23.87 11.967c0 6.604-5.313 11.958-11.866 11.958S.138 18.571.138 11.967C.138 5.362 5.45.008 12.004.008S23.87 5.362 23.87 11.967z" id="path-21"/></defs><g id="Page-1" stroke="none" stroke-width="1" fill="none" fill-rule="evenodd"><g id="Доминикана"><g id="Group-3823"><mask id="mask-2" fill="#fff"><use xlink:href="#path-1"/></mask><path id="Fill-3818" fill="#F4F4F4" mask="url(#mask-2)" d="M-5.795 23.925h35.597V.008H-5.795z"/><path d="M-5.795 9.564H9.46V.008H-5.795v9.556zm20.341 14.361h15.256V14.37H14.546v9.556z" id="Fill-3820" fill="#0F47AF" mask="url(#mask-2)"/><path d="M14.546 9.564h15.256V.008H14.546v9.556zM-5.795 23.925H9.46V14.37H-5.795v9.556z" id="Fill-3821" fill="#FF1612" mask="url(#mask-2)"/><path d="M11.95 10.046h-1.58l.335.34v2.21c0 .432.325.516.512.516h.491c.083 0 .195.075.242.173.046-.098.159-.173.24-.173h.492c.188 0 .512-.084.512-.515v-2.212l.336-.339h-1.58" id="Fill-3822" fill="#FFF" mask="url(#mask-2)"/></g><g id="Group-3829" transform="translate(10.233 9.938)"><mask id="mask-4" fill="#fff"><use xlink:href="#path-3"/></mask><path id="Fill-3824" fill="#1235AA" mask="url(#mask-4)" d="M1.454.109H.137l.336.339v.93h.98V.109"/><path d="M.473 1.91v.75c0 .43.324.515.511.515h.47V1.91H.473" id="Fill-3826" fill="#F20D0B" mask="url(#mask-4)"/><path id="Fill-3827" fill="#F20D0B" mask="url(#mask-4)" d="M2.961 1.379V.448l.336-.34H1.98v1.27h.981"/><path d="M1.98 3.175h.47c.187 0 .511-.085.511-.516v-.75h-.98v1.266" id="Fill-3828" fill="#1235AA" mask="url(#mask-4)"/></g><g id="Group-3835"><mask id="mask-6" fill="#fff"><use xlink:href="#path-5"/></mask><path d="M11.95 10.046h-1.58l.335.34v2.21c0 .432.325.516.512.516h.491c.083 0 .195.075.242.173.046-.098.159-.173.24-.173h.492c.188 0 .512-.084.512-.515v-2.212l.336-.339h-1.58z" id="Stroke-3830" stroke="#000" stroke-width=".103" mask="url(#mask-6)"/><path id="Fill-3832" fill="#EAC102" mask="url(#mask-6)" d="M11.892 10.362h.114v.144h.152v.114h-.152v.64h-.114v-.64h-.152v-.114h.152z"/><path id="Stroke-3833" stroke="#000" stroke-width=".051" mask="url(#mask-6)" d="M11.892 10.362h.114v.144h.152v.114h-.152v.64h-.114v-.64h-.152v-.114h.152z"/><path id="Fill-3834" fill="#FFF" mask="url(#mask-6)" d="M12.835 10.499v.392l-.546.495-.067-.1.613-.787"/></g><g id="Group-3839" transform="translate(12.093 10.313)"><mask id="mask-8" fill="#fff"><use xlink:href="#path-7"/></mask><path id="Fill-3836" fill="#1235AA" mask="url(#mask-8)" d="M.742.186v.392L.418.872v-.27L.742.186"/><path id="Fill-3838" fill="#F20D0B" mask="url(#mask-8)" d="M.287.991l-.091.083-.067-.1L.287.77v.221"/></g><g id="Group-3843"><mask id="mask-10" fill="#fff"><use xlink:href="#path-9"/></mask><path id="Stroke-3840" stroke="#000" stroke-width=".051" mask="url(#mask-10)" d="M12.835 10.499v.392l-.546.495-.067-.1z"/><path d="M12.93 10.644v1.673c0 .252-.24.447-.403.447-.162 0-.41-.138-.41-.494 0-.357-.097-.673-.097-.673l.91-.953" id="Fill-3842" fill="#FFF" mask="url(#mask-10)"/></g><g id="Group-3847" transform="translate(11.907 10.5)"><mask id="mask-12" fill="#fff"><use xlink:href="#path-11"/></mask><path d="M1.21.144v.965l-.514.408V.582l.513-.438zM.217 1.87a.545.545 0 01-.008-.1v-.03c.088.079.274.083.274.083-.058.127-.195.08-.266.046z" id="Fill-3844" fill="#1235AA" mask="url(#mask-12)"/><path d="M1.113 1.382v.435c0 .251-.265.447-.443.447a.456.456 0 01-.424-.316c.356.267.416-.202.416-.202l.45-.364zm-.9.23a2.46 2.46 0 00-.1-.515l.336-.32v.849c-.12.04-.195.015-.236-.014z" id="Fill-3846" fill="#F20D0B" mask="url(#mask-12)"/></g><g id="Group-3872"><mask id="mask-14" fill="#fff"><use xlink:href="#path-13"/></mask><path d="M12.93 10.644v1.673c0 .252-.24.447-.403.447-.162 0-.41-.138-.41-.494 0-.357-.097-.673-.097-.673l.91-.953z" id="Stroke-3848" stroke="#000" stroke-width=".051" mask="url(#mask-14)"/><path id="Fill-3850" fill="#EAC102" mask="url(#mask-14)" d="M11.995 11.423l.627-1.076.033.02-.628 1.075z"/><path id="Stroke-3851" stroke="#C98F2B" stroke-width=".051" mask="url(#mask-14)" d="M11.995 11.423l.627-1.076.033.02-.628 1.075z"/><path id="Fill-3852" fill="#EAC102" mask="url(#mask-14)" d="M12.77 10.123l-.151.145.024.08.088-.018z"/><path id="Stroke-3853" stroke="#C98F2B" stroke-width=".051" mask="url(#mask-14)" d="M12.77 10.123l-.151.145.024.08.088-.018z"/><path id="Fill-3854" fill="#C98F2B" mask="url(#mask-14)" d="M12.775 10.125l-.128.224-.008-.004.127-.224.009.004"/><path d="M12.634 10.32l.037.022a.018.018 0 01.006.025.018.018 0 01-.024.006l-.037-.02a.019.019 0 01-.007-.026.018.018 0 01.025-.006z" id="Fill-3855" fill="#EAC102" mask="url(#mask-14)"/><path d="M12.634 10.32l.037.022a.018.018 0 01.006.025.018.018 0 01-.024.006l-.037-.02a.019.019 0 01-.007-.026.018.018 0 01.025-.006z" id="Stroke-3856" stroke="#C98F2B" stroke-width=".051" mask="url(#mask-14)"/><path id="Fill-3857" fill="#EAC102" mask="url(#mask-14)" d="M12.13 11.385l.76-.987.03.024-.76.986z"/><path id="Stroke-3858" stroke="#C98F2B" stroke-width=".051" mask="url(#mask-14)" d="M12.13 11.385l.76-.987.03.024-.76.986z"/><path id="Fill-3859" fill="#EAC102" mask="url(#mask-14)" d="M13.066 10.196l-.17.124.015.082.089-.007z"/><path id="Stroke-3860" stroke="#C98F2B" stroke-width=".051" mask="url(#mask-14)" d="M13.066 10.196l-.17.124.015.082.089-.007z"/><path id="Fill-3861" fill="#C98F2B" mask="url(#mask-14)" d="M13.07 10.198l-.155.207-.007-.006.154-.206.008.005"/><path d="M12.905 10.374l.034.026c.008.006.01.018.003.025a.017.017 0 01-.025.004l-.033-.026a.018.018 0 01-.004-.025.018.018 0 01.025-.004z" id="Fill-3862" fill="#EAC102" mask="url(#mask-14)"/><path d="M12.905 10.374l.034.026c.008.006.01.018.003.025a.017.017 0 01-.025.004l-.033-.026a.018.018 0 01-.004-.025.018.018 0 01.025-.004z" id="Stroke-3863" stroke="#C98F2B" stroke-width=".051" mask="url(#mask-14)"/><path id="Fill-3864" fill="#EAC102" mask="url(#mask-14)" d="M12.088 11.516l.848-.91.028.027-.849.91z"/><path id="Stroke-3865" stroke="#C98F2B" stroke-width=".051" mask="url(#mask-14)" d="M12.088 11.516l.848-.91.028.027-.849.91z"/><path id="Fill-3866" fill="#EAC102" mask="url(#mask-14)" d="M13.13 10.422l-.18.107.007.083.089.003z"/><path id="Stroke-3867" stroke="#C98F2B" stroke-width=".051" mask="url(#mask-14)" d="M13.13 10.422l-.18.107.007.083.089.003z"/><path id="Fill-3868" fill="#C98F2B" mask="url(#mask-14)" d="M13.134 10.425l-.173.19-.007-.006.173-.19.007.006"/><path d="M12.954 10.584l.031.03a.018.018 0 010 .025.018.018 0 01-.024 0l-.032-.028a.018.018 0 010-.026.018.018 0 01.025 0z" id="Fill-3869" fill="#EAC102" mask="url(#mask-14)"/><path d="M12.954 10.584l.031.03a.018.018 0 010 .025.018.018 0 01-.024 0l-.032-.028a.018.018 0 010-.026.018.018 0 01.025 0z" id="Stroke-3870" stroke="#C98F2B" stroke-width=".051" mask="url(#mask-14)"/><path id="Fill-3871" fill="#FFF" mask="url(#mask-14)" d="M11.079 10.499v.392l.545.495.067-.1-.612-.787"/></g><g id="Group-3876" transform="translate(10.977 10.313)"><mask id="mask-16" fill="#fff"><use xlink:href="#path-15"/></mask><path id="Fill-3873" fill="#1235AA" mask="url(#mask-16)" d="M.102.186v.392l.323.294v-.27L.102.186"/><path id="Fill-3875" fill="#F20D0B" mask="url(#mask-16)" d="M.557.991l.09.083.067-.1L.557.77v.221"/></g><g id="Group-3880"><mask id="mask-18" fill="#fff"><use xlink:href="#path-17"/></mask><path id="Stroke-3877" stroke="#000" stroke-width=".051" mask="url(#mask-18)" d="M11.079 10.499v.392l.545.495.067-.1z"/><path d="M10.983 10.644v1.673c0 .252.24.447.403.447.162 0 .41-.138.41-.494 0-.357.098-.673.098-.673l-.91-.953" id="Fill-3879" fill="#FFF" mask="url(#mask-18)"/></g><g id="Group-3884" transform="translate(10.977 10.5)"><mask id="mask-20" fill="#fff"><use xlink:href="#path-19"/></mask><path d="M.006.144v.965l.514.408V.582L.006.144zM.998 1.87a.567.567 0 00.008-.1v-.03c-.088.079-.275.083-.275.083.058.127.196.08.267.046z" id="Fill-3881" fill="#1235AA" mask="url(#mask-20)"/><path d="M.006 1.382v.435c0 .251.264.447.443.447a.456.456 0 00.424-.316c-.356.267-.416-.202-.416-.202l-.45-.364zm.9.23c.023-.287.1-.515.1-.515L.67.777v.849c.12.04.195.015.236-.014z" id="Fill-3883" fill="#F20D0B" mask="url(#mask-20)"/></g><g id="Group-4174"><mask id="mask-22" fill="#fff"><use xlink:href="#path-21"/></mask><path d="M10.983 10.644v1.673c0 .252.24.447.403.447.162 0 .41-.138.41-.494 0-.357.098-.673.098-.673l-.91-.953z" id="Stroke-3885" stroke="#000" stroke-width=".051" mask="url(#mask-22)"/><path id="Fill-3887" fill="#EAC102" mask="url(#mask-22)" d="M11.918 11.423l-.627-1.076-.032.02.627 1.075z"/><path id="Stroke-3888" stroke="#C98F2B" stroke-width=".051" mask="url(#mask-22)" d="M11.918 11.423l-.627-1.076-.032.02.627 1.075z"/><path id="Fill-3889" fill="#EAC102" mask="url(#mask-22)" d="M11.142 10.123l.152.145-.024.08-.087-.018z"/><path id="Stroke-3890" stroke="#C98F2B" stroke-width=".051" mask="url(#mask-22)" d="M11.142 10.123l.152.145-.024.08-.087-.018z"/><path id="Fill-3891" fill="#C98F2B" mask="url(#mask-22)" d="M11.138 10.125l.127.224.008-.004-.126-.224-.009.004"/><path d="M11.28 10.32l-.038.022a.018.018 0 10.018.031l.037-.02a.019.019 0 00.006-.026.018.018 0 00-.024-.006z" id="Fill-3892" fill="#EAC102" mask="url(#mask-22)"/><path d="M11.28 10.32l-.038.022a.018.018 0 10.018.031l.037-.02a.019.019 0 00.006-.026.018.018 0 00-.024-.006z" id="Stroke-3893" stroke="#C98F2B" stroke-width=".051" mask="url(#mask-22)"/><path id="Fill-3894" fill="#EAC102" mask="url(#mask-22)" d="M11.782 11.385l-.759-.987-.03.024.76.986z"/><path id="Stroke-3895" stroke="#C98F2B" stroke-width=".051" mask="url(#mask-22)" d="M11.782 11.385l-.759-.987-.03.024.76.986z"/><path id="Fill-3896" fill="#EAC102" mask="url(#mask-22)" d="M10.847 10.196l.17.124-.015.082-.089-.007z"/><path id="Stroke-3897" stroke="#C98F2B" stroke-width=".051" mask="url(#mask-22)" d="M10.847 10.196l.17.124-.015.082-.089-.007z"/><path id="Fill-3898" fill="#C98F2B" mask="url(#mask-22)" d="M10.843 10.198l.155.207.007-.006-.154-.206-.008.005"/><path d="M11.008 10.374l-.034.026a.018.018 0 00-.003.025c.006.008.017.01.025.004l.033-.026a.018.018 0 00.004-.025.018.018 0 00-.025-.004z" id="Fill-3899" fill="#EAC102" mask="url(#mask-22)"/><path d="M11.008 10.374l-.034.026a.018.018 0 00-.003.025c.006.008.017.01.025.004l.033-.026a.018.018 0 00.004-.025.018.018 0 00-.025-.004z" id="Stroke-3900" stroke="#C98F2B" stroke-width=".051" mask="url(#mask-22)"/><path id="Fill-3901" fill="#EAC102" mask="url(#mask-22)" d="M11.825 11.516l-.848-.91-.028.027.849.91z"/><path id="Stroke-3902" stroke="#C98F2B" stroke-width=".051" mask="url(#mask-22)" d="M11.825 11.516l-.848-.91-.028.027.849.91z"/><path id="Fill-3903" fill="#EAC102" mask="url(#mask-22)" d="M10.783 10.422l.18.107-.007.083-.089.003z"/><path id="Stroke-3904" stroke="#C98F2B" stroke-width=".051" mask="url(#mask-22)" d="M10.783 10.422l.18.107-.007.083-.089.003z"/><path id="Fill-3905" fill="#C98F2B" mask="url(#mask-22)" d="M10.779 10.425l.173.19.007-.006-.173-.19-.007.006"/><path d="M10.96 10.584l-.032.03a.018.018 0 000 .025.018.018 0 00.025 0l.03-.028a.018.018 0 00.002-.026.018.018 0 00-.026 0z" id="Fill-3906" fill="#EAC102" mask="url(#mask-22)"/><path d="M10.96 10.584l-.032.03a.018.018 0 000 .025.018.018 0 00.025 0l.03-.028a.018.018 0 00.002-.026.018.018 0 00-.026 0z" id="Stroke-3907" stroke="#C98F2B" stroke-width=".051" mask="url(#mask-22)"/><path d="M11.773 12.043c-.001.044-.066.502-.068.534 0 0 .01.064.136.04l.013-.625-.081.051z" id="Fill-3908" fill="#F20D0B" mask="url(#mask-22)"/><path d="M11.773 12.043c-.001.044-.066.502-.068.534 0 0 .01.064.136.04l.013-.625-.081.051z" id="Stroke-3909" stroke="#000" stroke-width=".051" mask="url(#mask-22)"/><path d="M11.834 12.03l-.043.758c-.005.086.218.148.207-.077l.053.017-.045-.83-.172.132z" id="Fill-3910" fill="#1235AA" mask="url(#mask-22)"/><path d="M11.834 12.03l-.043.758c-.005.086.218.148.207-.077l.053.017-.045-.83-.172.132z" id="Stroke-3911" stroke="#000" stroke-width=".051" mask="url(#mask-22)"/><path d="M11.788 12.052l-.01.196c-.003.024.041.042.041.042l.015-.26-.046.022z" id="Fill-3912" fill="#1235AA" mask="url(#mask-22)"/><path d="M11.788 12.052l-.01.196c-.003.024.041.042.041.042l.015-.26-.046.022z" id="Stroke-3913" stroke="#000" stroke-width=".051" mask="url(#mask-22)"/><path d="M11.996 12.716a.206.206 0 00-.121-.01.112.112 0 00-.078.055l-.009-.004a.122.122 0 01.084-.06.217.217 0 01.128.01l-.004.009" id="Fill-3914" fill="#000" mask="url(#mask-22)"/><path d="M12.051 12.728c.03.015.108-.016.121-.069l-.077-.812-.089.051.045.83z" id="Fill-3915" fill="#FFF" mask="url(#mask-22)"/><path d="M12.051 12.728c.03.015.108-.016.121-.069l-.077-.812-.089.051.045.83z" id="Stroke-3916" stroke="#000" stroke-width=".051" mask="url(#mask-22)"/><path d="M12.12 11.833s.089.398.103.443c.013.045-.056.078-.078.092l-.05-.521.024-.014z" id="Fill-3917" fill="#F20D0B" mask="url(#mask-22)"/><path d="M12.12 11.833s.089.398.103.443c.013.045-.056.078-.078.092l-.05-.521.024-.014z" id="Stroke-3918" stroke="#000" stroke-width=".051" mask="url(#mask-22)"/><path d="M11.894 11.967s-.01.436-.01.504c-.001.067.091.109.155.031l-.033-.604-.112.069z" id="Fill-3919" fill="#F20D0B" mask="url(#mask-22)"/><path d="M11.894 11.967s-.01.436-.01.504c-.001.067.091.109.155.031l-.033-.604-.112.069z" id="Stroke-3920" stroke="#000" stroke-width=".051" mask="url(#mask-22)"/><path d="M11.88 12.457l.002-.007c.005-.026.025-.045.05-.057a.166.166 0 01.101-.012l-.001.006a.157.157 0 00-.097.012.076.076 0 00-.047.052.1.1 0 01-.001.007h-.006" id="Fill-3921" fill="#000" mask="url(#mask-22)"/><path d="M11.511 11.44l-.063-.036s.002.025-.028.081l.33.615.751-.484-.433-.625-.096.229-.46.22z" id="Fill-3922" fill="#FFF" mask="url(#mask-22)"/><path d="M11.511 11.44l-.063-.036s.002.025-.028.081l.33.615.751-.484-.433-.625-.096.229-.46.22z" id="Stroke-3923" stroke="#000" stroke-width=".068" mask="url(#mask-22)"/><path id="Fill-3924" fill="#000" mask="url(#mask-22)" d="M11.773 11.924l-.018.044.01.09.692-.457-.046-.087z"/><path id="Stroke-3925" stroke="#000" stroke-width=".051" mask="url(#mask-22)" d="M11.773 11.924l-.018.044.01.09.692-.457-.046-.087z"/><path d="M11.448 11.404l.307.564s.097.017.181-.099c.084-.115.187-.084.187-.084s.046-.13.154-.146c.108-.016.132-.092.134-.125l-.349-.533s-.002.083-.122.128c-.119.044-.133.139-.133.139s-.142-.008-.209.085c-.067.092-.15.07-.15.07z" id="Fill-3926" fill="#FFF" mask="url(#mask-22)"/><path d="M11.448 11.404l.307.564s.097.017.181-.099c.084-.115.187-.084.187-.084s.046-.13.154-.146c.108-.016.132-.092.134-.125l-.349-.533s-.002.083-.122.128c-.119.044-.133.139-.133.139s-.142-.008-.209.085c-.067.092-.15.07-.15.07z" id="Stroke-3927" stroke="#000" stroke-width=".051" mask="url(#mask-22)"/><path id="Fill-3928" fill="#000" mask="url(#mask-22)" d="M11.813 11.245l.315.537-.01.007-.317-.538.012-.006"/><path d="M11.54 11.63l.148-.115.01.016-.149.116-.009-.017zm.714.212l.144-.112.009.016-.144.112-.009-.016zm-.026-.054l.303-.237.01.015-.304.237-.01-.015zm-.032-.053l.266-.208.01.016-.267.208-.009-.016zm-.09-.18l.204-.16.009.016-.204.16-.009-.016zm-.033-.056l.296-.232.01.016-.297.232-.01-.016zm-.034-.053l.204-.16.009.016-.204.16-.01-.016zm-.025-.056l.203-.16.01.016-.204.159-.009-.015zm-.029-.06l.17-.133.009.015-.17.133-.009-.016zm-.15.851l.21-.163.01.015-.21.164-.01-.016zm-.025-.067l.267-.208.01.015-.268.209-.009-.016zm-.042-.068l.268-.208.009.015-.268.209-.009-.016zm-.07-.112l.267-.208.009.015-.267.21-.01-.017zm-.085-.18l.267-.21.009.016-.267.21-.01-.017zm-.032-.06l.148-.116.009.016-.148.115-.01-.015z" id="Fill-3929" fill="#000" mask="url(#mask-22)"/><path id="Fill-3930" fill="#1A1A1A" mask="url(#mask-22)" d="M11.442 11.453l.33.602-.012.006-.33-.601.012-.007"/><path d="M11.704 8.779c-.24.011-.558.06-.49.277.046.145.062.221.073.239 0 0 .004-.131.43-.146.142-.005.308-.005.45 0 .425.015.429.146.429.146.011-.018.027-.094.073-.239.071-.226-.28-.27-.522-.278a5.908 5.908 0 00-.443 0z" id="Fill-3931" fill="#0437A0" mask="url(#mask-22)"/><path d="M11.704 8.779c-.24.011-.558.06-.49.277.046.145.062.221.073.239 0 0 .004-.131.43-.146.142-.005.308-.005.45 0 .425.015.429.146.429.146.011-.018.027-.094.073-.239.071-.226-.28-.27-.522-.278a5.908 5.908 0 00-.443 0z" id="Stroke-3932" stroke="#000" stroke-width=".051" mask="url(#mask-22)"/><path d="M11.674 9.323s.03.144-.185.138c-.216-.006-.42-.072-.735.017-.316.088-.58.2-.602.326 0 0-.149-.181-.19-.239-.04-.057.015-.135.055-.163.04-.028.555-.39 1.202-.332.042.136.057.208.068.225l.001.002c.04.08.121.096.215.048.093-.048.122-.046.171-.022z" id="Fill-3933" fill="#1235AA" mask="url(#mask-22)"/><path d="M11.674 9.323s.03.144-.185.138c-.216-.006-.42-.072-.735.017-.316.088-.58.2-.602.326 0 0-.149-.181-.19-.239-.04-.057.015-.135.055-.163.04-.028.555-.39 1.202-.332.042.136.057.208.068.225l.001.002c.04.08.121.096.215.048.093-.048.122-.046.171-.022z" id="Stroke-3934" stroke="#000" stroke-width=".051" mask="url(#mask-22)"/><path d="M11.674 9.323l-.028-.17c-.356.025-.359.142-.359.142l.001.002c.04.08.121.096.215.048.093-.048.122-.046.171-.022z" id="Fill-3935" fill="#1235AA" mask="url(#mask-22)"/><path d="M11.674 9.323l-.028-.17c-.356.025-.359.142-.359.142l.001.002c.04.08.121.096.215.048.093-.048.122-.046.171-.022z" id="Stroke-3936" stroke="#000" stroke-width=".051" mask="url(#mask-22)"/><path d="M10.152 9.804c.04.074.142-.019.18-.057.062-.062.078-.083.15-.092l-.033-.076c-.167.067-.283.143-.297.225z" id="Fill-3937" fill="#1235AA" mask="url(#mask-22)"/><path d="M10.152 9.804c.04.074.142-.019.18-.057.062-.062.078-.083.15-.092l-.033-.076c-.167.067-.283.143-.297.225z" id="Stroke-3938" stroke="#000" stroke-width=".051" mask="url(#mask-22)"/><path d="M10.01 9.629c-.14.043-.545.18-.685.324 0 0 .156-.021.302-.02 0 0-.128.165-.166.265 0 0 .197-.166.621-.252.423-.086.42-.258.4-.292v-.002.003c-.072.01-.088.03-.15.092-.038.038-.14.131-.18.057 0 0-.082-.1-.141-.175z" id="Fill-3939" fill="#1235AA" mask="url(#mask-22)"/><path d="M10.01 9.629c-.14.043-.545.18-.685.324 0 0 .156-.021.302-.02 0 0-.128.165-.166.265 0 0 .197-.166.621-.252.423-.086.42-.258.4-.292v-.002.003c-.072.01-.088.03-.15.092-.038.038-.14.131-.18.057 0 0-.082-.1-.141-.175z" id="Stroke-3940" stroke="#000" stroke-width=".051" mask="url(#mask-22)"/><path d="M12.209 9.323s-.03.144.186.138c.215-.006.419-.072.734.017.316.088.58.2.602.326 0 0 .148-.181.19-.239.04-.057-.015-.135-.055-.163-.04-.028-.555-.39-1.201-.332-.043.136-.058.208-.07.225v.002c-.04.08-.122.096-.215.048s-.122-.046-.171-.022z" id="Fill-3941" fill="#1235AA" mask="url(#mask-22)"/><path d="M12.209 9.323s-.03.144.186.138c.215-.006.419-.072.734.017.316.088.58.2.602.326 0 0 .148-.181.19-.239.04-.057-.015-.135-.055-.163-.04-.028-.555-.39-1.201-.332-.043.136-.058.208-.07.225v.002c-.04.08-.122.096-.215.048s-.122-.046-.171-.022z" id="Stroke-3942" stroke="#000" stroke-width=".051" mask="url(#mask-22)"/><path d="M12.209 9.323l.028-.17c.355.025.359.142.359.142l-.001.002c-.04.08-.122.096-.215.048s-.122-.046-.171-.022z" id="Fill-3943" fill="#1235AA" mask="url(#mask-22)"/><path d="M12.209 9.323l.028-.17c.355.025.359.142.359.142l-.001.002c-.04.08-.122.096-.215.048s-.122-.046-.171-.022z" id="Stroke-3944" stroke="#000" stroke-width=".051" mask="url(#mask-22)"/><path d="M13.73 9.804c-.039.074-.141-.019-.18-.057-.06-.062-.078-.083-.15-.092l.034-.076c.166.067.283.143.297.225z" id="Fill-3945" fill="#1235AA" mask="url(#mask-22)"/><path d="M13.73 9.804c-.039.074-.141-.019-.18-.057-.06-.062-.078-.083-.15-.092l.034-.076c.166.067.283.143.297.225z" id="Stroke-3946" stroke="#000" stroke-width=".051" mask="url(#mask-22)"/><path d="M13.872 9.629c.14.043.546.18.686.324 0 0-.156-.021-.302-.02 0 0 .128.165.166.265 0 0-.197-.166-.621-.252s-.42-.258-.4-.292v-.002.003c.071.01.088.03.15.092.038.038.14.131.18.057 0 0 .082-.1.141-.175z" id="Fill-3947" fill="#1235AA" mask="url(#mask-22)"/><path d="M13.872 9.629c.14.043.546.18.686.324 0 0-.156-.021-.302-.02 0 0 .128.165.166.265 0 0-.197-.166-.621-.252s-.42-.258-.4-.292v-.002.003c.071.01.088.03.15.092.038.038.14.131.18.057 0 0 .082-.1.141-.175z" id="Stroke-3948" stroke="#000" stroke-width=".051" mask="url(#mask-22)"/><path d="M10.563 10.11l-.045.03-.005-.018.02-.03a.02.02 0 00.001-.014l-.007-.035-.01-.041-.069-.306a5.804 5.804 0 01-.008-.035l-.006-.03c-.002-.006-.004-.01-.008-.01H10.4l-.005-.019.047-.027a.865.865 0 00.07-.052c.043-.027.08-.028.111-.001.03.026.055.08.074.16a.639.639 0 01.014.245c-.013.068-.04.116-.084.144a.657.657 0 01-.033.02l-.03.018zm.025-.06a.08.08 0 00.017-.008l.016-.01c.025-.015.04-.048.044-.094a.637.637 0 00-.02-.192.489.489 0 00-.059-.162c-.02-.03-.045-.036-.071-.018a.207.207 0 00-.031.023l.104.46zm.266-.25l.007.042.007.034c.001.008.004.01.008.011l.024.003.005.018-.055.028a.545.545 0 00-.055.03l-.005-.02.021-.027c.003-.003.004-.008.003-.015l-.006-.035-.008-.043-.056-.313a.933.933 0 01-.007-.035l-.005-.03c-.002-.007-.004-.01-.007-.01l-.026-.004-.005-.02.055-.026c.02-.011.039-.02.055-.03l.005.019-.021.027c-.003.003-.004.008-.003.015l.005.03c.002.01.005.022.006.035l.058.315zm.097-.231c.014.085.03.146.05.185.02.039.043.053.068.042.025-.012.04-.04.045-.086a.797.797 0 00-.013-.2.655.655 0 00-.048-.181c-.02-.038-.042-.052-.068-.04-.025.011-.04.04-.045.087a.775.775 0 00.011.193zm.208-.1a.63.63 0 01-.001.238c-.016.067-.045.11-.089.13-.042.018-.077.007-.108-.034a.44.44 0 01-.067-.193.604.604 0 01.002-.234c.016-.065.046-.108.089-.127.04-.02.077-.009.108.031.03.039.052.103.066.189zm.153-.285a.032.032 0 00-.027-.003c-.013.004-.023.016-.03.035a.155.155 0 00-.007.069c.002.015.005.03.009.04.004.01.01.019.015.026a.135.135 0 00.018.019l.022.015a.181.181 0 01.025.02c.01.007.017.015.024.026a.18.18 0 01.02.042c.005.017.01.038.012.063a.296.296 0 01-.015.138c-.015.037-.038.06-.068.069a.095.095 0 01-.068-.004l-.002-.003-.005-.148.01-.008.027.12c.01.006.02.007.031.004.016-.005.027-.017.035-.037a.165.165 0 00.007-.074.12.12 0 00-.024-.068.172.172 0 00-.041-.033c-.009-.008-.018-.013-.025-.02a.123.123 0 01-.024-.026.197.197 0 01-.019-.041.368.368 0 01-.012-.063.278.278 0 01.014-.132c.015-.035.036-.057.064-.065a.117.117 0 01.064 0v.003l.004.133-.01.007-.024-.104z" id="Fill-3949" fill="#FDDE2D" mask="url(#mask-22)"/><path d="M11.577 9.409c.006.002.01.002.016.002.011-.007.02-.028.025-.064a.999.999 0 00.005-.156.878.878 0 00-.013-.147c-.006-.028-.016-.041-.028-.036a.04.04 0 00-.015.01l.01.39zm.006.232a14.022 14.022 0 00.004.122c0 .009.001.015.004.02l.02.016.002.032-.044.016a.275.275 0 00-.042.02l-.001-.032.017-.03a.043.043 0 00.003-.022l-.001-.056-.002-.07-.013-.502-.002-.057-.001-.047a.04.04 0 00-.004-.02l-.019-.016v-.033a.31.31 0 00.061-.026c.008-.003.015-.008.021-.011.025-.01.043 0 .057.036a1.01 1.01 0 01.01.388c-.012.056-.03.09-.053.099a.027.027 0 01-.021.002l.004.171zm.136-.127l-.008.12-.003.057a.71.71 0 000 .048.02.02 0 00.004.01l.013.014.001.033-.032.004-.029.009-.001-.032.014-.023a.065.065 0 00.007-.025.846.846 0 00.005-.05l.057-.78.014-.015.068.757a.722.722 0 00.007.058c.002.01.005.017.008.021l.014.016v.032a.285.285 0 00-.036.006l-.047.011-.001-.03.013-.022a.032.032 0 00.003-.011.531.531 0 000-.05l-.005-.053-.01-.118-.056.013zm.024-.37a.897.897 0 01-.004.07l-.015.233.045-.01-.02-.225-.006-.069zm.186.616c-.015 0-.03.003-.045.005v-.032l.021-.029a.05.05 0 00.003-.02v-.123l-.003-.62-.038.004-.012.17-.008.006-.004-.237.001-.006c.022 0 .043 0 .063-.002l.038-.002.064-.007v.004l-.007.233-.008.006-.01-.174-.038.003.002.619.001.123c0 .01.002.017.004.02l.021.026v.032l-.045.001zm.16-.193v.123c0 .013 0 .022.003.025l.014.02v.033c-.01-.001-.022-.003-.037-.003s-.03.002-.042.003v-.032l.017-.023c.003-.003.004-.01.004-.02v-.737c0-.01-.001-.017-.003-.02l-.018-.025v-.033c.012.002.025.002.038.002h.01l.015-.003h.014l.009-.002c.023 0 .04.018.051.055a.876.876 0 01.007.311.231.231 0 01-.031.09l.018.127.012.096.011.083a.946.946 0 00.01.058l.005.017c0 .004.003.007.004.01a.024.024 0 00.005.01.02.02 0 00.006.005l.001.034a.05.05 0 01-.03.008c-.01 0-.015-.002-.02-.008a.08.08 0 01-.009-.023.417.417 0 01-.011-.06l-.01-.083a2.145 2.145 0 01-.013-.098 3.976 3.976 0 00-.013-.103l-.003-.025-.003-.014-.002-.007c-.001 0-.002-.003-.004-.003h-.006v.212zm0-.267l.012.003c.013 0 .022-.016.029-.046a.883.883 0 00.008-.143.776.776 0 00-.008-.135c-.006-.029-.015-.043-.027-.043l-.006.001-.009.005V9.3zm.196.277v.125c0 .011 0 .018.004.023l.016.024v.033a.16.16 0 00-.041-.008c-.016-.003-.03-.003-.042-.005v-.032l.017-.02c.003-.003.004-.01.004-.02l.001-.056v-.07l.005-.505v-.103a.064.064 0 00-.002-.022l-.018-.027V8.88a.425.425 0 00.041.01h.042v.035l-.018.02c-.002.003-.003.009-.003.019v.05l-.002.055-.004.508zm.09-.057l-.012.113-.006.055a.345.345 0 00-.002.05l.004.01.012.023v.031c-.013-.004-.023-.01-.032-.014-.008-.004-.018-.006-.03-.01l.001-.032.015-.013a.05.05 0 00.008-.02l.007-.047.087-.737.015-.004.037.791c.002.03.003.05.005.061.001.01.004.02.007.025l.012.024v.033l-.036-.019-.048-.017v-.031l.014-.013a.017.017 0 00.004-.008l.002-.017V9.72l-.003-.054-.006-.123-.055-.023zm.039-.35a6.11 6.11 0 00-.007.068l-.024.218.044.02-.01-.234-.003-.072z" id="Fill-3950" fill="#FDDE2D" mask="url(#mask-22)"/><path d="M12.791 9.233l.002.222v.062l.044-.002.014-.08.007-.003-.002.111v.002l-.054.001-.027.001-.03.002-.001-.014.013-.01a.015.015 0 00.003-.01V9.46l-.002-.226v-.045c-.001-.005-.002-.008-.004-.01l-.013-.01v-.015a.496.496 0 00.065-.002l.001.015-.014.01c-.001.002-.002.004-.002.009v.048zm.134.226v.055c0 .005 0 .008.003.01l.013.011v.014l-.033-.003a.612.612 0 00-.035-.001V9.53l.015-.009c.002-.001.003-.004.003-.009v-.024l.001-.032.004-.224v-.047c0-.005 0-.008-.002-.01l-.014-.012v-.014c.01.002.021.003.034.003l.034.001v.015l-.015.01-.003.008v.047l-.005.226zm.06-.294l.031.008.019.004a.117.117 0 01.017.003.058.058 0 01.04.032.144.144 0 01.01.07c-.002.044-.015.073-.036.085.012.007.02.02.026.04.005.018.007.04.005.066a.154.154 0 01-.022.082c-.013.018-.03.024-.052.019l-.014-.004a.351.351 0 00-.016-.005l-.032-.007v-.015l.016-.006c.002-.001.003-.003.003-.008l.002-.025.002-.03.014-.224.001-.025.002-.021c0-.005-.001-.009-.003-.01l-.014-.015v-.014zm.038.21l-.01.168a.074.074 0 00.013.006c.01.002.018-.004.023-.017a.188.188 0 00.013-.063.204.204 0 00-.005-.065c-.004-.015-.012-.024-.024-.026l-.01-.003zm.002-.025l.01.003c.01.002.017-.002.022-.012a.175.175 0 00.01-.057.178.178 0 00-.003-.057c-.004-.012-.01-.02-.02-.022h-.011l-.008.145zm.152-.13l.027.012.055.022v.002l-.016.09-.006-.001v-.07l-.041-.018-.016.147.006.003.02.007c.002.001.003 0 .005-.006l.007-.035.008.001a2.783 2.783 0 00-.007.06l-.006.059-.007-.001v-.04c0-.007-.001-.01-.003-.01l-.02-.01-.006-.002-.01.095-.006.06.043.018.021-.066h.007l-.013.102-.002.002-.052-.023-.028-.012a.336.336 0 00-.029-.012l.001-.014.016-.004c.002 0 .003-.002.003-.007l.003-.024.004-.03.023-.221.002-.026.002-.02a.015.015 0 00-.001-.01l-.013-.017v-.014c.01.005.02.01.03.013zm.126.386l-.005.029a.462.462 0 00-.003.035l.01.016-.002.013-.029-.02a.56.56 0 00-.033-.02l.002-.013h.016c.002 0 .003-.003.004-.007l.004-.024.005-.03.034-.213.005-.024.002-.02v-.012l-.013-.019.002-.014.03.02a.121.121 0 00.008.005.035.035 0 00.012.007l.01.006a.033.033 0 01.007.005c.018.011.03.027.037.048a.168.168 0 01.003.077.16.16 0 01-.02.06.046.046 0 01-.03.021l.005.063.003.046.003.041.004.03.002.009.003.008a.046.046 0 00.004.005c0 .003.002.005.004.006l-.002.014a.071.071 0 01-.024-.011.042.042 0 01-.014-.013.051.051 0 01-.006-.015.165.165 0 01-.005-.03 2.825 2.825 0 00-.005-.09l-.003-.05v-.011l-.002-.007a.017.017 0 00-.002-.005.016.016 0 00-.003-.003l-.004-.003-.014.09zm.018-.113l.01.007c.01.006.018.005.025-.005a.154.154 0 00.017-.055.203.203 0 00.002-.062c-.002-.015-.008-.026-.017-.032l-.006-.003-.006-.002-.025.152zm.12.313l-.035-.028.003-.013.018.002c.002 0 .003-.002.004-.006l.011-.05.054-.254-.029-.025-.024.062-.006-.003.018-.1.049.04.028.025.048.04v.002l-.027.09-.006-.003.009-.077-.03-.026-.053.255-.01.05a.011.011 0 000 .01l.014.025-.003.014a.733.733 0 00-.034-.03zm.119-.018l-.02.038-.01.018-.004.011a.029.029 0 00-.002.007c0 .003.001.005.003.008l.007.017-.004.013a1.072 1.072 0 00-.022-.027l-.02-.023.002-.012.012.003c.003.001.006 0 .009-.003a.156.156 0 00.009-.014l.133-.242.011.009-.044.344a.164.164 0 00-.003.028l.003.015.008.018-.004.013-.025-.031-.034-.038.003-.013.011.004h.004l.003-.007.003-.013.003-.024.007-.053-.039-.046zm.06-.116l-.01.022-.04.074.033.036.013-.102.005-.03zm.032.387l-.024-.035.004-.011.015.009c.002.001.004 0 .005-.003l.008-.02.01-.023.069-.179.008-.02.006-.016a.019.019 0 000-.011l-.007-.027.004-.011.023.037.018.027a.419.419 0 01.018.026.221.221 0 01.035.112.322.322 0 01-.024.13c-.022.056-.045.088-.069.1-.023.012-.046 0-.068-.033a.463.463 0 01-.016-.027l-.015-.025zm.025.004l.007.015.008.013c.013.02.027.024.042.012a.236.236 0 00.05-.09.404.404 0 00.03-.115.124.124 0 00-.016-.078.28.28 0 00-.017-.023l-.104.266z" id="Fill-3951" fill="#FDDE2D" mask="url(#mask-22)"/><path d="M10.632 13.42l.035-.001c.012-.002.02-.004.022-.006l.009.01a.068.068 0 01-.03.008.168.168 0 01-.037.001l.001-.012" id="Fill-3952" fill="#006200" mask="url(#mask-22)"/><path d="M10.235 13.15a.243.243 0 000 .089.32.32 0 00.025.097l-.01.006a.326.326 0 01-.027-.102.26.26 0 010-.094l.012.004" id="Fill-3953" fill="#006200" mask="url(#mask-22)"/><path d="M9.736 11.255l.002.004c.007.012.017.03.032.042l-.008.01a.147.147 0 01-.035-.045l-.003-.005.012-.006" id="Fill-3954" fill="#0F0" mask="url(#mask-22)"/><path d="M10.002 11.575a.341.341 0 00-.138.051.295.295 0 00-.1.094l-.01-.007a.3.3 0 01.104-.098c.05-.03.106-.05.144-.052v.012" id="Fill-3955" fill="#006200" mask="url(#mask-22)"/><path d="M10.1 11.323a1.98 1.98 0 01-.036.052.755.755 0 00-.09.143.468.468 0 00-.018.07.637.637 0 01-.056.167c-.055.105-.098.12-.098.12l-.005-.011s.04-.014.091-.115c.034-.065.045-.118.055-.163a.46.46 0 01.02-.073.752.752 0 01.09-.146l.037-.051.01.007" id="Fill-3956" fill="#006200" mask="url(#mask-22)"/><path d="M9.566 11.779l.026.037a.46.46 0 01.076.135l-.012.004a.447.447 0 00-.074-.131l-.027-.038.01-.007" id="Fill-3957" fill="#006200" mask="url(#mask-22)"/><path d="M9.875 12.043a.135.135 0 00.015.05c.007.016.015.033.016.065a.317.317 0 01-.005.076c-.005.022-.01.034-.013.047l-.013.002a.352.352 0 00.018-.125.146.146 0 00-.015-.06.154.154 0 01-.016-.054l.013-.001" id="Fill-3958" fill="#006200" mask="url(#mask-22)"/><path d="M9.962 12.759a.4.4 0 00-.054.165h-.013a.353.353 0 01.056-.172l.01.007" id="Fill-3959" fill="#006200" mask="url(#mask-22)"/><path d="M9.704 12.685a.909.909 0 01.097.07c.026.023.05.047.069.072l-.01.008a.423.423 0 00-.067-.07.79.79 0 00-.096-.069l.007-.01" id="Fill-3960" fill="#006200" mask="url(#mask-22)"/><path d="M10.003 12.164l-.001.001c-.067.063-.163.152-.222.295l-.012-.005a.846.846 0 01.225-.299l.002-.001.008.01" id="Fill-3961" fill="#006200" mask="url(#mask-22)"/><path d="M9.883 10.905a1.394 1.394 0 01-.054.185c-.01.025-.028.095-.044.172a1.714 1.714 0 00-.03.18 8.75 8.75 0 00-.027.446c-.004.113-.005.22.001.282.01.1.041.316.108.545.043.144.1.293.177.42.198.33.442.453.443.453l-.008.017c-.001 0-.25-.125-.451-.46a1.867 1.867 0 01-.179-.425 3.268 3.268 0 01-.108-.548 2.454 2.454 0 01-.003-.285c.007-.18.021-.378.028-.446a1.974 1.974 0 01.112-.468.364.364 0 00.016-.068h.019" id="Fill-3962" fill="#006200" mask="url(#mask-22)"/><path d="M9.573 10.83c-.01.116.244.136.159.43 0 0-.328-.089-.159-.43z" id="Fill-3963" fill="#00863D" mask="url(#mask-22)"/><path d="M9.573 10.83c-.01.116.244.136.159.43 0 0-.328-.089-.159-.43z" id="Stroke-3964" stroke="#006200" stroke-width=".068" mask="url(#mask-22)"/><path d="M9.596 11.01a.433.433 0 01.076.106.82.82 0 01.063.143l-.006.002a.799.799 0 00-.062-.142l-.008-.014a.13.13 0 00-.049-.012v-.007a.11.11 0 01.024.004.112.112 0 01.019.006.33.33 0 00-.062-.08l.005-.005" id="Fill-3965" fill="#006200" mask="url(#mask-22)"/><path d="M10.103 10.861c-.031.112-.275.04-.299.346 0 0 .338.034.3-.346z" id="Fill-3966" fill="#00863D" mask="url(#mask-22)"/><path d="M10.103 10.861c-.031.112-.275.04-.299.346 0 0 .338.034.3-.346z" id="Stroke-3967" stroke="#006200" stroke-width=".068" mask="url(#mask-22)"/><path d="M10.019 11.022a.423.423 0 00-.109.071.803.803 0 00-.108.112l.005.004a.752.752 0 01.108-.11c.004-.004.008-.008.012-.01a.13.13 0 01.05.005l.002-.006a.102.102 0 00-.024-.005l-.02-.001a.33.33 0 01.086-.053l-.002-.007" id="Fill-3968" fill="#006200" mask="url(#mask-22)"/><path d="M10.033 11.177c-.029.113-.275.048-.29.354 0 0 .339.025.29-.354z" id="Fill-3969" fill="#00863D" mask="url(#mask-22)"/><path d="M10.033 11.177c-.029.113-.275.048-.29.354 0 0 .339.025.29-.354z" id="Stroke-3970" stroke="#006200" stroke-width=".068" mask="url(#mask-22)"/><path d="M9.953 11.34a.417.417 0 00-.107.074.785.785 0 00-.105.115l.005.004a.772.772 0 01.104-.114l.012-.01a.136.136 0 01.05.004l.003-.006a.087.087 0 00-.024-.004l-.02-.001a.364.364 0 01.084-.055l-.002-.007" id="Fill-3971" fill="#006200" mask="url(#mask-22)"/><path d="M9.57 11.171c-.01.11.231.128.152.407 0 0-.312-.082-.153-.407z" id="Fill-3972" fill="#00863D" mask="url(#mask-22)"/><path d="M9.57 11.171c-.01.11.231.128.152.407 0 0-.312-.082-.153-.407z" id="Stroke-3973" stroke="#006200" stroke-width=".065" mask="url(#mask-22)"/><path d="M9.591 11.343a.39.39 0 01.073.099.706.706 0 01.06.135l-.005.002a.753.753 0 00-.067-.147.167.167 0 00-.025-.009.08.08 0 00-.021-.003v-.006l.023.003a.164.164 0 01.017.006.328.328 0 00-.059-.076l.004-.004" id="Fill-3974" fill="#006200" mask="url(#mask-22)"/><path d="M9.176 11.546c.06.098.276-.039.383.248 0 0-.315.127-.383-.248z" id="Fill-3975" fill="#00863D" mask="url(#mask-22)"/><path d="M9.176 11.546c.06.098.276-.039.383.248 0 0-.315.127-.383-.248z" id="Stroke-3976" stroke="#006200" stroke-width=".068" mask="url(#mask-22)"/><path d="M9.301 11.677a.38.38 0 01.124.037c.043.019.09.044.135.077l-.003.005a.782.782 0 00-.134-.076l-.015-.006a.193.193 0 00-.026.008.088.088 0 00-.02.012l-.004-.006a.087.087 0 01.022-.011.209.209 0 01.019-.007.337.337 0 00-.098-.027v-.006" id="Fill-3977" fill="#006200" mask="url(#mask-22)"/><path d="M9.247 11.163c-.009.116.245.133.164.428 0 0-.33-.084-.164-.428z" id="Fill-3978" fill="#00863D" mask="url(#mask-22)"/><path d="M9.247 11.163c-.009.116.245.133.164.428 0 0-.33-.084-.164-.428z" id="Stroke-3979" stroke="#006200" stroke-width=".068" mask="url(#mask-22)"/><path d="M9.271 11.344a.427.427 0 01.079.104c.023.04.046.088.064.142l-.006.002a.764.764 0 00-.064-.141l-.008-.014a.193.193 0 00-.026-.008.076.076 0 00-.023-.003v-.006a.08.08 0 01.024.002.213.213 0 01.02.006.346.346 0 00-.064-.079l.004-.005" id="Fill-3980" fill="#006200" mask="url(#mask-22)"/><path d="M9.488 11.34c-.031.113.214.18.076.453 0 0-.306-.149-.076-.452z" id="Fill-3981" fill="#00863D" mask="url(#mask-22)"/><path d="M9.488 11.34c-.031.113.214.18.076.453 0 0-.306-.149-.076-.452z" id="Stroke-3982" stroke="#006200" stroke-width=".068" mask="url(#mask-22)"/><path d="M9.476 11.523c.015.017.037.06.056.117a.802.802 0 01.035.153h-.006a.836.836 0 00-.035-.15l-.005-.016a.177.177 0 00-.046-.021l.001-.006a.13.13 0 01.024.007l.017.01a.355.355 0 00-.046-.09l.005-.004" id="Fill-3983" fill="#006200" mask="url(#mask-22)"/><path d="M10.44 11.625c-.11.037-.188-.207-.452-.054 0 0 .163.3.452.054z" id="Fill-3984" fill="#00863D" mask="url(#mask-22)"/><path d="M10.44 11.625c-.11.037-.188-.207-.452-.054 0 0 .163.3.452.054z" id="Stroke-3985" stroke="#006200" stroke-width=".068" mask="url(#mask-22)"/><path d="M10.26 11.646a.416.416 0 00-.119-.05.799.799 0 00-.153-.028v.006a.76.76 0 01.151.027l.016.005a.163.163 0 01.023.045l.006-.002a.109.109 0 00-.009-.023l-.01-.017c.044.015.077.03.092.042l.003-.005" id="Fill-3986" fill="#006200" mask="url(#mask-22)"/><path d="M10.429 11.452c-.088.075-.252-.122-.44.119 0 0 .262.218.44-.12z" id="Fill-3987" fill="#00863D" mask="url(#mask-22)"/><path d="M10.429 11.452c-.088.075-.252-.122-.44.119 0 0 .262.218.44-.12z" id="Stroke-3988" stroke="#006200" stroke-width=".068" mask="url(#mask-22)"/><path d="M10.27 11.539a.397.397 0 00-.13-.003.782.782 0 00-.152.032l.002.006a.764.764 0 01.167-.033.168.168 0 01.022.016.085.085 0 01.016.017l.005-.003a.104.104 0 00-.017-.019l-.016-.012a.336.336 0 01.101.005l.002-.006" id="Fill-3989" fill="#006200" mask="url(#mask-22)"/><path d="M10.408 12.082c-.087.07-.24-.122-.426.105 0 0 .247.216.426-.105z" id="Fill-3990" fill="#00863D" mask="url(#mask-22)"/><path d="M10.408 12.082c-.087.07-.24-.122-.426.105 0 0 .247.216.426-.105z" id="Stroke-3991" stroke="#006200" stroke-width=".066" mask="url(#mask-22)"/><path d="M10.253 12.162a.391.391 0 00-.125-.005.753.753 0 00-.147.027l.002.006a.763.763 0 01.16-.028.14.14 0 01.037.033l.005-.004a.1.1 0 00-.031-.03.347.347 0 01.097.007l.002-.006" id="Fill-3992" fill="#006200" mask="url(#mask-22)"/><path d="M10.065 11.753c.03.108-.207.17-.077.435 0 0 .296-.14.077-.435z" id="Fill-3993" fill="#00863D" mask="url(#mask-22)"/><path d="M10.065 11.753c.03.108-.207.17-.077.435 0 0 .296-.14.077-.435z" id="Stroke-3994" stroke="#006200" stroke-width=".066" mask="url(#mask-22)"/><path d="M10.075 11.928a.396.396 0 00-.055.113.735.735 0 00-.035.146l.006.001a.765.765 0 01.04-.16.194.194 0 01.023-.013.086.086 0 01.02-.006v-.007a.106.106 0 00-.04.017.348.348 0 01.045-.087l-.004-.004" id="Fill-3995" fill="#006200" mask="url(#mask-22)"/><path d="M10.33 11.841c-.044.119-.302.019-.355.347 0 0 .362.068.354-.347z" id="Fill-3996" fill="#00863D" mask="url(#mask-22)"/><path d="M10.33 11.841c-.044.119-.302.019-.355.347 0 0 .362.068.354-.347z" id="Stroke-3997" stroke="#006200" stroke-width=".074" mask="url(#mask-22)"/><path d="M10.224 12.008a.459.459 0 00-.124.067.847.847 0 00-.128.11l.005.005a.88.88 0 01.127-.11l.014-.01.03.004a.113.113 0 01.023.008l.003-.007a.108.108 0 00-.025-.008.204.204 0 00-.022-.003.38.38 0 01.099-.049l-.002-.007" id="Fill-3998" fill="#006200" mask="url(#mask-22)"/><path d="M9.367 11.851c.061.087.251-.05.365.208 0 0-.283.134-.365-.208z" id="Fill-3999" fill="#00863D" mask="url(#mask-22)"/><path d="M9.367 11.851c.061.087.251-.05.365.208 0 0-.283.134-.365-.208z" id="Stroke-4000" stroke="#006200" stroke-width=".063" mask="url(#mask-22)"/><path d="M9.49 11.965a.41.41 0 01.115.028c.04.015.084.036.128.063l-.003.005a.734.734 0 00-.127-.063l-.014-.004a.143.143 0 00-.023.009.086.086 0 00-.018.011l-.004-.004a.087.087 0 01.019-.012l.017-.008a.308.308 0 00-.09-.019v-.006" id="Fill-4001" fill="#006200" mask="url(#mask-22)"/><path d="M9.702 11.64c.054.103-.172.221.02.459 0 0 .268-.21-.02-.458z" id="Fill-4002" fill="#00863D" mask="url(#mask-22)"/><path d="M9.702 11.64c.054.103-.172.221.02.459 0 0 .268-.21-.02-.458z" id="Stroke-4003" stroke="#006200" stroke-width=".068" mask="url(#mask-22)"/><path d="M9.751 11.816a.399.399 0 00-.03.127.795.795 0 00-.002.156h.006a.815.815 0 01.004-.171.143.143 0 01.02-.02.095.095 0 01.02-.01l-.002-.007a.087.087 0 00-.021.013l-.015.013a.37.37 0 01.026-.098l-.006-.003" id="Fill-4004" fill="#006200" mask="url(#mask-22)"/><path d="M9.198 11.97c.053.116.308-.003.385.325 0 0-.363.095-.385-.326z" id="Fill-4005" fill="#00863D" mask="url(#mask-22)"/><path d="M9.198 11.97c.053.116.308-.003.385.325 0 0-.363.095-.385-.326z" id="Stroke-4006" stroke="#006200" stroke-width=".076" mask="url(#mask-22)"/><path d="M9.317 12.13a.459.459 0 01.13.06.883.883 0 01.138.103l-.005.005a.839.839 0 00-.151-.111.186.186 0 00-.03.005.085.085 0 00-.023.01l-.004-.006a.108.108 0 01.025-.01.28.28 0 01.022-.005.385.385 0 00-.103-.043l.001-.007" id="Fill-4007" fill="#006200" mask="url(#mask-22)"/><path d="M9.144 12.267c.102.075.266-.155.493.094 0 0-.27.262-.493-.094z" id="Fill-4008" fill="#00863D" mask="url(#mask-22)"/><path d="M9.144 12.267c.102.075.266-.155.493.094 0 0-.27.262-.493-.094z" id="Stroke-4009" stroke="#006200" stroke-width=".076" mask="url(#mask-22)"/><path d="M9.326 12.349a.453.453 0 01.142-.014.86.86 0 01.17.022l-.002.007a.874.874 0 00-.168-.022H9.45a.148.148 0 00-.04.04l-.006-.004a.105.105 0 01.017-.021.455.455 0 01.017-.015.4.4 0 00-.11.013l-.003-.006" id="Fill-4010" fill="#006200" mask="url(#mask-22)"/><path d="M9.55 12.123c.006.128.286.11.24.445 0 0-.372-.045-.24-.445z" id="Fill-4011" fill="#00863D" mask="url(#mask-22)"/><path d="M9.55 12.123c.006.128.286.11.24.445 0 0-.372-.045-.24-.445z" id="Stroke-4012" stroke="#006200" stroke-width=".076" mask="url(#mask-22)"/><path d="M9.601 12.317c.022.013.06.05.101.102.031.04.063.09.091.147l-.007.003a.843.843 0 00-.09-.145l-.01-.014a.239.239 0 00-.03-.006.105.105 0 00-.025 0l-.001-.006a.099.099 0 01.027 0c.007 0 .015.001.021.003a.384.384 0 00-.08-.078l.003-.006" id="Fill-4013" fill="#006200" mask="url(#mask-22)"/><path d="M9.317 12.501c.071.09.266-.07.405.198 0 0-.295.163-.405-.198z" id="Fill-4014" fill="#00863D" mask="url(#mask-22)"/><path d="M9.317 12.501c.071.09.266-.07.405.198 0 0-.295.163-.405-.198z" id="Stroke-4015" stroke="#006200" stroke-width=".068" mask="url(#mask-22)"/><path d="M9.455 12.615a.413.413 0 01.126.022.775.775 0 01.142.059l-.003.006a.777.777 0 00-.14-.06.042.042 0 01-.015-.004.178.178 0 00-.025.012.094.094 0 00-.018.013l-.005-.004a.124.124 0 01.038-.023.345.345 0 00-.1-.015v-.006" id="Fill-4016" fill="#006200" mask="url(#mask-22)"/><path d="M9.587 12.985c.113-.01.133.243.422.158 0 0-.087-.327-.422-.158z" id="Fill-4017" fill="#00863D" mask="url(#mask-22)"/><path d="M9.587 12.985c.113-.01.133.243.422.158 0 0-.087-.327-.422-.158z" id="Stroke-4018" stroke="#006200" stroke-width=".068" mask="url(#mask-22)"/><path d="M9.764 13.007a.403.403 0 00.103.077.75.75 0 00.14.062l.002-.006a.777.777 0 01-.139-.062l-.013-.007a.178.178 0 01-.009-.027.09.09 0 01-.003-.022h-.006l.003.024a.18.18 0 00.006.019.352.352 0 01-.079-.062l-.005.004" id="Fill-4019" fill="#006200" mask="url(#mask-22)"/><path d="M10.376 12.702c-.085.09.117.279-.15.472 0 0-.22-.297.15-.472z" id="Fill-4020" fill="#00863D" mask="url(#mask-22)"/><path d="M10.376 12.702c-.085.09.117.279-.15.472 0 0-.22-.297.15-.472z" id="Stroke-4021" stroke="#006200" stroke-width=".074" mask="url(#mask-22)"/><path d="M10.275 12.87a.445.445 0 01-.004.141.835.835 0 01-.042.164l-.006-.003a.865.865 0 00.041-.162l.002-.017a.147.147 0 00-.033-.043l.004-.006a.093.093 0 01.019.02.111.111 0 01.012.017.379.379 0 000-.11l.007-.001" id="Fill-4022" fill="#006200" mask="url(#mask-22)"/><path d="M10.501 12.875c-.032.097-.243.024-.276.29 0 0 .295.045.276-.29z" id="Fill-4023" fill="#00863D" mask="url(#mask-22)"/><path d="M10.501 12.875c-.032.097-.243.024-.276.29 0 0 .295.045.276-.29z" id="Stroke-4024" stroke="#006200" stroke-width=".06" mask="url(#mask-22)"/><path d="M10.421 13.013a.367.367 0 00-.099.057.682.682 0 00-.1.093l.005.004a.74.74 0 01.099-.093l.011-.008a.11.11 0 01.024.002c.007.002.014.003.02.006l.002-.005a.074.074 0 00-.021-.006l-.017-.002a.31.31 0 01.078-.043l-.002-.005" id="Fill-4025" fill="#006200" mask="url(#mask-22)"/><path d="M10.073 12.73c-.011.116.241.14.153.431 0 0-.326-.091-.153-.43z" id="Fill-4026" fill="#00863D" mask="url(#mask-22)"/><path d="M10.073 12.73c-.011.116.241.14.153.431 0 0-.326-.091-.153-.43z" id="Stroke-4027" stroke="#006200" stroke-width=".068" mask="url(#mask-22)"/><path d="M10.093 12.911a.413.413 0 01.075.106c.023.04.044.09.061.143l-.006.002a.809.809 0 00-.06-.142l-.008-.014a.21.21 0 00-.026-.01.094.094 0 00-.022-.003v-.006a.153.153 0 01.043.01.354.354 0 00-.061-.08l.004-.006" id="Fill-4028" fill="#006200" mask="url(#mask-22)"/><path d="M9.733 13.185c.068.093.27-.06.4.217 0 0-.304.152-.4-.217z" id="Fill-4029" fill="#00863D" mask="url(#mask-22)"/><path d="M9.733 13.185c.068.093.27-.06.4.217 0 0-.304.152-.4-.217z" id="Stroke-4030" stroke="#006200" stroke-width=".068" mask="url(#mask-22)"/><path d="M9.867 13.306a.382.382 0 01.127.028.804.804 0 01.14.065l-.003.006a.751.751 0 00-.14-.066l-.014-.004a.143.143 0 00-.045.023l-.004-.005a.089.089 0 01.02-.014.203.203 0 01.019-.008.327.327 0 00-.1-.018v-.007" id="Fill-4031" fill="#006200" mask="url(#mask-22)"/><path d="M10.055 13.358c.155-.023.203.323.594.183 0 0-.146-.444-.594-.183z" id="Fill-4032" fill="#00863D" mask="url(#mask-22)"/><path d="M10.055 13.358c.155-.023.203.323.594.183 0 0-.146-.444-.594-.183z" id="Stroke-4033" stroke="#006200" stroke-width=".093" mask="url(#mask-22)"/><path d="M10.301 13.373c.02.023.074.061.148.098.056.027.124.054.198.074l.003-.008a1.041 1.041 0 01-.197-.074l-.02-.01a.193.193 0 01-.02-.066h-.009c.001.01.004.022.007.034l.01.025a.484.484 0 01-.114-.078l-.006.005" id="Fill-4034" fill="#006200" mask="url(#mask-22)"/><path d="M10.152 13.638c.125.029.187-.25.497-.11 0 0-.148.353-.497.11z" id="Fill-4035" fill="#00863D" mask="url(#mask-22)"/><path d="M10.152 13.638c.125.029.187-.25.497-.11 0 0-.148.353-.497.11z" id="Stroke-4036" stroke="#006200" stroke-width=".077" mask="url(#mask-22)"/><path d="M10.354 13.642a.46.46 0 01.128-.07.872.872 0 01.166-.047l.002.007a.82.82 0 00-.166.047l-.016.006a.15.15 0 00-.021.053l-.007-.001c0-.008.004-.018.007-.027a.26.26 0 01.01-.02.393.393 0 00-.098.057l-.005-.005" id="Fill-4037" fill="#006200" mask="url(#mask-22)"/><path d="M10.358 13.216c.094.037.011.246.274.292 0 0 .057-.294-.274-.292z" id="Fill-4038" fill="#00863D" mask="url(#mask-22)"/><path d="M10.358 13.216c.094.037.011.246.274.292 0 0 .057-.294-.274-.292z" id="Stroke-4039" stroke="#006200" stroke-width=".06" mask="url(#mask-22)"/><path d="M10.49 13.303c.005.02.022.058.052.102a.72.72 0 00.088.105l.004-.004a.675.675 0 01-.087-.104l-.008-.012.003-.024a.092.092 0 01.006-.02l-.004-.002a.058.058 0 00-.007.02l-.003.018a.33.33 0 01-.039-.08l-.005.002" id="Fill-4040" fill="#006200" mask="url(#mask-22)"/><path d="M10.215 12.355c-.106.066.04.3-.268.416 0 0-.135-.344.268-.416z" id="Fill-4041" fill="#00863D" mask="url(#mask-22)"/><path d="M10.215 12.355c-.106.066.04.3-.268.416 0 0-.135-.344.268-.416z" id="Stroke-4042" stroke="#006200" stroke-width=".074" mask="url(#mask-22)"/><path d="M10.074 12.49a.443.443 0 01-.041.136.834.834 0 01-.083.147l-.006-.005c.035-.05.063-.1.083-.145l.006-.016a.16.16 0 00-.02-.05l.005-.005a.11.11 0 01.013.024.26.26 0 01.007.02.382.382 0 00.029-.106h.007" id="Fill-4043" fill="#006200" mask="url(#mask-22)"/><path d="M10.29 12.556c-.055.084-.24-.042-.342.206 0 0 .273.121.342-.206z" id="Fill-4044" fill="#00863D" mask="url(#mask-22)"/><path d="M10.29 12.556c-.055.084-.24-.042-.342.206 0 0 .273.121.342-.206z" id="Stroke-4045" stroke="#006200" stroke-width=".06" mask="url(#mask-22)"/><path d="M10.177 12.667c-.02 0-.06.01-.11.03a.683.683 0 00-.12.063l.003.005a.667.667 0 01.12-.063l.012-.005a.111.111 0 01.04.018l.004-.004a.081.081 0 00-.019-.011l-.016-.007a.306.306 0 01.086-.02v-.006" id="Fill-4046" fill="#006200" mask="url(#mask-22)"/><path d="M9.914 12.303c-.04.108.197.197.037.456 0 0-.292-.175-.037-.456z" id="Fill-4047" fill="#00863D" mask="url(#mask-22)"/><path d="M9.914 12.303c-.04.108.197.197.037.456 0 0-.292-.175-.037-.456z" id="Stroke-4048" stroke="#006200" stroke-width=".068" mask="url(#mask-22)"/><path d="M9.887 12.482a.415.415 0 01.045.123.75.75 0 01.022.154h-.006a.79.79 0 00-.022-.153l-.003-.015a.235.235 0 00-.023-.016.104.104 0 00-.02-.01v-.006a.09.09 0 01.023.01.174.174 0 01.017.011.357.357 0 00-.038-.094l.005-.004" id="Fill-4049" fill="#006200" mask="url(#mask-22)"/><path d="M10.348 12.455c-.125.01-.146-.269-.465-.177 0 0 .094.362.465.177z" id="Fill-4050" fill="#00863D" mask="url(#mask-22)"/><path d="M10.348 12.455c-.125.01-.146-.269-.465-.177 0 0 .094.362.465.177z" id="Stroke-4051" stroke="#006200" stroke-width=".075" mask="url(#mask-22)"/><path d="M10.152 12.43a.444.444 0 00-.113-.086.864.864 0 00-.155-.07l-.002.007c.058.02.11.044.153.07.006.002.01.005.015.008a.227.227 0 01.01.029.126.126 0 01.004.025h.006a.11.11 0 00-.003-.027.235.235 0 00-.007-.02.37.37 0 01.087.068l.005-.004" id="Fill-4052" fill="#006200" mask="url(#mask-22)"/><path d="M10.518 11.094c-.063.091-.261-.051-.379.217 0 0 .295.14.38-.217z" id="Fill-4053" fill="#00863D" mask="url(#mask-22)"/><path d="M10.518 11.094c-.063.091-.261-.051-.379.217 0 0 .295.14.38-.217z" id="Stroke-4054" stroke="#006200" stroke-width=".066" mask="url(#mask-22)"/><path d="M10.392 11.213a.396.396 0 00-.121.03.736.736 0 00-.133.066l.003.005a.72.72 0 01.132-.066l.014-.005a.165.165 0 01.025.01.071.071 0 01.018.011l.005-.004a.108.108 0 00-.02-.013.195.195 0 00-.018-.007.332.332 0 01.095-.02v-.007" id="Fill-4055" fill="#006200" mask="url(#mask-22)"/><path d="M10.444 10.931c-.025.114-.273.056-.28.363 0 0 .34.014.28-.363z" id="Fill-4056" fill="#00863D" mask="url(#mask-22)"/><path d="M10.444 10.931c-.025.114-.273.056-.28.363 0 0 .34.014.28-.363z" id="Stroke-4057" stroke="#006200" stroke-width=".068" mask="url(#mask-22)"/><path d="M10.369 11.097a.42.42 0 00-.104.077.798.798 0 00-.103.118l.006.003a.774.774 0 01.1-.116l.013-.011a.15.15 0 01.05.003l.002-.006a.117.117 0 00-.044-.004.35.35 0 01.082-.058l-.002-.006" id="Fill-4058" fill="#006200" mask="url(#mask-22)"/><path d="M10.33 10.483c-.046.104-.273-.003-.342.29 0 0 .322.085.343-.29z" id="Fill-4059" fill="#00863D" mask="url(#mask-22)"/><path d="M10.33 10.483c-.046.104-.273-.003-.342.29 0 0 .322.085.343-.29z" id="Stroke-4060" stroke="#006200" stroke-width=".067" mask="url(#mask-22)"/><path d="M10.224 10.627a.394.394 0 00-.116.051.74.74 0 00-.122.092l.004.005a.763.763 0 01.121-.091l.013-.008c.007 0 .017.002.027.005a.091.091 0 01.021.008l.003-.005a.093.093 0 00-.022-.01.222.222 0 00-.02-.003.342.342 0 01.092-.038v-.006" id="Fill-4061" fill="#006200" mask="url(#mask-22)"/><path d="M10.293 10.94c-.092.069.062.273-.212.405 0 0-.153-.306.212-.406z" id="Fill-4062" fill="#00863D" mask="url(#mask-22)"/><path d="M10.293 10.94c-.092.069.062.273-.212.405 0 0-.153-.306.212-.406z" id="Stroke-4063" stroke="#006200" stroke-width=".068" mask="url(#mask-22)"/><path d="M10.174 11.076a.416.416 0 01-.026.128.782.782 0 01-.064.142l-.005-.003a.81.81 0 00.063-.141l.005-.015a.125.125 0 00-.023-.045l.004-.004a.06.06 0 01.014.02.204.204 0 01.008.018.346.346 0 00.018-.1h.006" id="Fill-4064" fill="#006200" mask="url(#mask-22)"/><path d="M10.197 10.363c-.015.13-.3.092-.274.436 0 0 .382-.02.274-.436z" id="Fill-4065" fill="#00863D" mask="url(#mask-22)"/><path d="M10.197 10.363c-.015.13-.3.092-.274.436 0 0 .382-.02.274-.436z" id="Stroke-4066" stroke="#006200" stroke-width=".077" mask="url(#mask-22)"/><path d="M10.131 10.556a.477.477 0 00-.109.098.904.904 0 00-.102.142l.006.004a.924.924 0 01.101-.141l.012-.014a.194.194 0 01.031-.004c.01 0 .018 0 .026.002l.002-.007a.112.112 0 00-.028-.002l-.022.002a.386.386 0 01.087-.073l-.004-.007" id="Fill-4067" fill="#006200" mask="url(#mask-22)"/><path d="M9.924 10.393c-.069.112.179.262-.055.517 0 0-.289-.257.055-.517z" id="Fill-4068" fill="#00863D" mask="url(#mask-22)"/><path d="M9.924 10.393c-.069.112.179.262-.055.517 0 0-.289-.257.055-.517z" id="Stroke-4069" stroke="#006200" stroke-width=".078" mask="url(#mask-22)"/><path d="M9.855 10.588a.5.5 0 01.026.145.919.919 0 01-.008.177h-.008a.862.862 0 00.009-.176l-.002-.018a.142.142 0 00-.043-.037l.003-.007a.12.12 0 01.023.016.06.06 0 01.016.016.407.407 0 00-.022-.113l.006-.003" id="Fill-4070" fill="#006200" mask="url(#mask-22)"/><path d="M11.052 13.272c.01.12-.253.137-.17.442 0 0 .341-.087.17-.442z" id="Fill-4071" fill="#00863D" mask="url(#mask-22)"/><path d="M11.052 13.272c.01.12-.253.137-.17.442 0 0 .341-.087.17-.442z" id="Stroke-4072" stroke="#006200" stroke-width=".071" mask="url(#mask-22)"/><path d="M11.027 13.458a.435.435 0 00-.08.108.832.832 0 00-.067.147l.006.002a.835.835 0 01.066-.146l.008-.014a.147.147 0 01.05-.012v-.007a.102.102 0 00-.024.004c-.007 0-.014.004-.02.006a.414.414 0 01.065-.083l-.004-.005" id="Fill-4073" fill="#006200" mask="url(#mask-22)"/><path d="M10.623 13.434c.027.086.216.026.24.264 0 0-.263.033-.24-.264z" id="Fill-4074" fill="#00863D" mask="url(#mask-22)"/><path d="M10.623 13.434c.027.086.216.026.24.264 0 0-.263.033-.24-.264z" id="Stroke-4075" stroke="#006200" stroke-width=".053" mask="url(#mask-22)"/><path d="M10.692 13.558a.345.345 0 01.086.053.603.603 0 01.086.085l-.003.004a.61.61 0 00-.086-.085l-.01-.008-.022.001-.017.005-.002-.005a.078.078 0 01.019-.005h.015a.282.282 0 00-.068-.04l.002-.005" id="Fill-4076" fill="#006200" mask="url(#mask-22)"/><path d="M10.72 13.192c.093.102-.132.308.162.522 0 0 .245-.325-.163-.522z" id="Fill-4077" fill="#00863D" mask="url(#mask-22)"/><path d="M10.72 13.192c.093.102-.132.308.162.522 0 0 .245-.325-.163-.522z" id="Stroke-4078" stroke="#006200" stroke-width=".082" mask="url(#mask-22)"/><path d="M10.83 13.379a.51.51 0 00.003.155.934.934 0 00.046.182l.007-.003a.934.934 0 01-.045-.18l-.002-.018a.173.173 0 01.017-.028.095.095 0 01.02-.02l-.005-.006a.124.124 0 00-.02.021.307.307 0 00-.014.02.427.427 0 010-.121l-.007-.002" id="Fill-4079" fill="#006200" mask="url(#mask-22)"/><path d="M9.773 10.926a.171.171 0 01.044.048c.014.02.024.043.027.063l-.012.002a.17.17 0 00-.025-.058.168.168 0 00-.041-.045l.007-.01" id="Fill-4080" fill="#006200" mask="url(#mask-22)"/><path d="M9.846 12.141l.003.002c.02.01.044.023.054.042l-.009.01c-.008-.016-.033-.031-.05-.04l-.004-.002.006-.012" id="Fill-4081" fill="#006200" mask="url(#mask-22)"/><path d="M9.669 12.807c.052.013.102.03.145.05.04.019.072.04.093.064l-.01.008a.282.282 0 00-.089-.06.742.742 0 00-.142-.05l.003-.012" id="Fill-4082" fill="#006200" mask="url(#mask-22)"/><path d="M9.623 12.762a.048.048 0 010 .096.048.048 0 01-.048-.048c0-.026.022-.048.048-.048z" id="Fill-4083" fill="#F20D0B" mask="url(#mask-22)"/><path d="M9.623 12.762a.048.048 0 010 .096.048.048 0 01-.048-.048c0-.026.022-.048.048-.048z" id="Stroke-4084" stroke="#006200" stroke-width=".068" mask="url(#mask-22)"/><path d="M9.698 12.846c.026 0 .047.022.047.048a.048.048 0 01-.047.048.048.048 0 01-.048-.048c0-.026.022-.048.048-.048z" id="Fill-4085" fill="#F20D0B" mask="url(#mask-22)"/><path d="M9.698 12.846c.026 0 .047.022.047.048a.048.048 0 01-.047.048.048.048 0 01-.048-.048c0-.026.022-.048.048-.048z" id="Stroke-4086" stroke="#006200" stroke-width=".068" mask="url(#mask-22)"/><path d="M9.682 12.545a.048.048 0 010 .096.048.048 0 01-.048-.048c0-.027.022-.048.048-.048z" id="Fill-4087" fill="#F20D0B" mask="url(#mask-22)"/><path d="M9.682 12.545a.048.048 0 010 .096.048.048 0 01-.048-.048c0-.027.022-.048.048-.048z" id="Stroke-4088" stroke="#006200" stroke-width=".068" mask="url(#mask-22)"/><path d="M9.806 12.086a.048.048 0 010 .096.048.048 0 01-.047-.048c0-.026.02-.048.047-.048z" id="Fill-4089" fill="#F20D0B" mask="url(#mask-22)"/><path d="M9.806 12.086a.048.048 0 010 .096.048.048 0 01-.047-.048c0-.026.02-.048.047-.048z" id="Stroke-4090" stroke="#006200" stroke-width=".068" mask="url(#mask-22)"/><path d="M9.865 11.953c.026 0 .047.022.047.048a.048.048 0 01-.047.048.048.048 0 010-.096z" id="Fill-4091" fill="#F20D0B" mask="url(#mask-22)"/><path d="M9.865 11.953c.026 0 .047.022.047.048a.048.048 0 01-.047.048.048.048 0 010-.096z" id="Stroke-4092" stroke="#006200" stroke-width=".068" mask="url(#mask-22)"/><path d="M9.734 10.857c.027 0 .048.022.048.048a.048.048 0 11-.096 0c0-.026.022-.048.048-.048z" id="Fill-4093" fill="#F20D0B" mask="url(#mask-22)"/><path d="M9.734 10.857c.027 0 .048.022.048.048a.048.048 0 11-.096 0c0-.026.022-.048.048-.048z" id="Stroke-4094" stroke="#006200" stroke-width=".068" mask="url(#mask-22)"/><path d="M10.664 13.277c.027 0 .048.021.048.048a.048.048 0 01-.048.048.048.048 0 010-.096z" id="Fill-4095" fill="#F20D0B" mask="url(#mask-22)"/><path d="M10.664 13.277c.027 0 .048.021.048.048a.048.048 0 01-.048.048.048.048 0 010-.096z" id="Stroke-4096" stroke="#006200" stroke-width=".068" mask="url(#mask-22)"/><path d="M10.727 13.346c.026 0 .047.022.047.048a.048.048 0 11-.095 0c0-.026.021-.048.048-.048z" id="Fill-4097" fill="#F20D0B" mask="url(#mask-22)"/><path d="M10.727 13.346c.026 0 .047.022.047.048a.048.048 0 11-.095 0c0-.026.021-.048.048-.048z" id="Stroke-4098" stroke="#006200" stroke-width=".068" mask="url(#mask-22)"/><path d="M9.732 12.86l.002-.002a.072.072 0 01.043-.015l.003.013a.07.07 0 00-.039.012l-.002.002-.007-.01" id="Fill-4099" fill="#006200" mask="url(#mask-22)"/><path d="M12.753 13.687s.205-.33.233-.49a.6.6 0 00.001.18s.083-.154.111-.253c0 0-.008.152-.02.207 0 0 .062-.113.08-.172 0 0-.001.087-.017.17 0 0 .176-.254.313-.69 0 0-.053.377-.175.615 0 0 .266-.269.301-.717 0 0-.086-.267-.102-.158-.017.108-.014.163-.014.163s-.058-.213.003-.265c.061-.052.149.182.149.182l.022-.072.007.155c.001.05.053.184.053.184l.044-.098s-.077-.28-.103-.329c-.026-.05-.038-.017-.056.004 0 0-.006-.068.025-.09.032-.023.12.143.17.274 0 0-.01-.369-.078-.457-.068-.089-.124.167-.124.167l.026-.206s-.104.155-.121.225c0 0-.02-.245.16-.355 0 0 .072-.178.155-.04.083.139.16.379.16.379s-.07-.29-.098-.34c-.028-.05-.284-.34-.436-.412 0 0 .164.023.361.22 0 0-.246-.324-.336-.395 0 0 .23.128.4.368s-.25-.373-.374-.482c0 0 .14.062.347.318 0 0-.324-.461-.5-.615 0 0 .218.142.375.32 0 0-.229-.308-.299-.378 0 0 .207.165.255.218 0 0-.096-.14-.122-.226 0 0-.202-.144-.228-.231 0 0 .11.072.18.096 0 0-.029-.251-.023-.288 0 0 .097.378.267.444 0 0-.218-.24-.23-.516 0 0 .114.214.186.274 0 0-.052-.24-.134-.361 0 0 .168.14.245.372.077.232.097.233.097.233s.056-.272.126-.372c0 0-.044.36-.044.491 0 0 .115-.36.222-.433 0 0-.06.125-.071.186 0 0 .122-.21.178-.247 0 0-.14.287-.155.385 0 0 .098-.22.191-.25 0 0-.17.331-.197.557 0 0 .254-.378.399-.444 0 0-.227.275-.274.457 0 0 .167-.241.305-.3 0 0-.214.25-.306.463a1.107 1.107 0 00-.097.294s.168-.425.403-.597c0 0-.243.328-.28.526 0 0 .229-.418.369-.502 0 0-.263.376-.317.618 0 0 .302-.373.497-.41 0 0-.375.358-.556.758 0 0 .39-.37.44-.491 0 0-.02.214-.279.463 0 0 .307-.266.42-.305 0 0-.424.347-.513.566 0 0 .37-.281.5-.346 0 0-.41.36-.45.426 0 0 .3-.188.416-.226 0 0-.326.26-.377.332 0 0 .276-.125.376-.135 0 0-.307.17-.359.235 0 0 .153-.035.19-.031 0 0 .124-.091.157-.126 0 0-.029.068-.063.128 0 0 .053.01.096.055 0 0-.141-.003-.168.013-.027.016-.109.1-.154.136 0 0 .244-.027.337.004 0 0-.413.063-.47.105l-.073.07.379-.107-.364.152.475-.067-.434.135.036.02-.298.108c.01-.004.292-.04.342-.037 0 0-.418.116-.57.23 0 0 .221.027.313.113 0 0-.314-.023-.431-.003 0 0 .187.02.236.069 0 0-.423-.01-.51.025 0 0 .28.01.373.073 0 0-.33-.013-.422.014 0 0 .157.027.271.095 0 0-.458-.015-.951-.005z" id="Fill-4100" fill="#006300" mask="url(#mask-22)"/><path d="M12.753 13.687s.205-.33.233-.49a.6.6 0 00.001.18s.083-.154.111-.253c0 0-.008.152-.02.207 0 0 .062-.113.08-.172 0 0-.001.087-.017.17 0 0 .176-.254.313-.69 0 0-.053.377-.175.615 0 0 .266-.269.301-.717 0 0-.086-.267-.102-.158-.017.108-.014.163-.014.163s-.058-.213.003-.265c.061-.052.149.182.149.182l.022-.072.007.155c.001.05.053.184.053.184l.044-.098s-.077-.28-.103-.329c-.026-.05-.038-.017-.056.004 0 0-.006-.068.025-.09.032-.023.12.143.17.274 0 0-.01-.369-.078-.457-.068-.089-.124.167-.124.167l.026-.206s-.104.155-.121.225c0 0-.02-.245.16-.355 0 0 .072-.178.155-.04.083.139.16.379.16.379s-.07-.29-.098-.34c-.028-.05-.284-.34-.436-.412 0 0 .164.023.361.22 0 0-.246-.324-.336-.395 0 0 .23.128.4.368s-.25-.373-.374-.482c0 0 .14.062.347.318 0 0-.324-.461-.5-.615 0 0 .218.142.375.32 0 0-.229-.308-.299-.378 0 0 .207.165.255.218 0 0-.096-.14-.122-.226 0 0-.202-.144-.228-.231 0 0 .11.072.18.096 0 0-.029-.251-.023-.288 0 0 .097.378.267.444 0 0-.218-.24-.23-.516 0 0 .114.214.186.274 0 0-.052-.24-.134-.361 0 0 .168.14.245.372.077.232.097.233.097.233s.056-.272.126-.372c0 0-.044.36-.044.491 0 0 .115-.36.222-.433 0 0-.06.125-.071.186 0 0 .122-.21.178-.247 0 0-.14.287-.155.385 0 0 .098-.22.191-.25 0 0-.17.331-.197.557 0 0 .254-.378.399-.444 0 0-.227.275-.274.457 0 0 .167-.241.305-.3 0 0-.214.25-.306.463a1.107 1.107 0 00-.097.294s.168-.425.403-.597c0 0-.243.328-.28.526 0 0 .229-.418.369-.502 0 0-.263.376-.317.618 0 0 .302-.373.497-.41 0 0-.375.358-.556.758 0 0 .39-.37.44-.491 0 0-.02.214-.279.463 0 0 .307-.266.42-.305 0 0-.424.347-.513.566 0 0 .37-.281.5-.346 0 0-.41.36-.45.426 0 0 .3-.188.416-.226 0 0-.326.26-.377.332 0 0 .276-.125.376-.135 0 0-.307.17-.359.235 0 0 .153-.035.19-.031 0 0 .124-.091.157-.126 0 0-.029.068-.063.128 0 0 .053.01.096.055 0 0-.141-.003-.168.013-.027.016-.109.1-.154.136 0 0 .244-.027.337.004 0 0-.413.063-.47.105l-.073.07.379-.107-.364.152.475-.067-.434.135.036.02-.298.108c.01-.004.292-.04.342-.037 0 0-.418.116-.57.23 0 0 .221.027.313.113 0 0-.314-.023-.431-.003 0 0 .187.02.236.069 0 0-.423-.01-.51.025 0 0 .28.01.373.073 0 0-.33-.013-.422.014 0 0 .157.027.271.095 0 0-.458-.015-.951-.005z" id="Stroke-4101" stroke="#C98F2B" stroke-width=".034" mask="url(#mask-22)"/><path d="M13.964 11.351l.003-.02c.008-.08.037-.363.19-.66l.016.009c-.15.294-.18.575-.188.654a.256.256 0 01-.003.024l-.018-.007" id="Fill-4102" fill="#008F4C" mask="url(#mask-22)"/><path d="M13.962 10.674a1.868 1.868 0 00-.04.327.772.772 0 00.029.242l-.018.006a.786.786 0 01-.03-.248c.003-.132.026-.262.04-.33l.019.003" id="Fill-4103" fill="#008F4C" mask="url(#mask-22)"/><path d="M13.672 10.409a.759.759 0 01.07.18c.012.04.027.09.05.158l-.017.006a3.002 3.002 0 01-.05-.158c-.024-.077-.036-.117-.07-.177l.017-.01" id="Fill-4104" fill="#008F4C" mask="url(#mask-22)"/><path d="M13.562 10.454c.015.041.08.156.148.256a.73.73 0 00.138.166l-.011.016a.74.74 0 01-.143-.17 1.688 1.688 0 01-.15-.262l.018-.006" id="Fill-4105" fill="#008F4C" mask="url(#mask-22)"/><path d="M13.422 10.654s.118.113.256.166l-.007.018a.918.918 0 01-.262-.17l.013-.014" id="Fill-4106" fill="#008F4C" mask="url(#mask-22)"/><path d="M13.51 10.58a1.587 1.587 0 00.23.441l-.016.012a1.61 1.61 0 01-.233-.448l.019-.005" id="Fill-4107" fill="#008F4C" mask="url(#mask-22)"/><path d="M13.64 11.04c.048.047.135.146.21.257.05.075.094.155.117.23l-.018.005a.914.914 0 00-.116-.224 1.925 1.925 0 00-.206-.255l.014-.014" id="Fill-4108" fill="#008F4C" mask="url(#mask-22)"/><path d="M13.62 11.14c.07.074.15.17.221.278.056.084.106.174.141.268l-.017.007a1.37 1.37 0 00-.14-.264 2.215 2.215 0 00-.218-.276l.014-.013" id="Fill-4109" fill="#008F4C" mask="url(#mask-22)"/><path d="M14.302 11a5.217 5.217 0 00-.26.458l-.017-.008a4.536 4.536 0 01.261-.46l.016.01" id="Fill-4110" fill="#008F4C" mask="url(#mask-22)"/><path d="M14.307 11.158a4.311 4.311 0 00-.266.495l-.018-.007a4.27 4.27 0 01.268-.498l.016.01" id="Fill-4111" fill="#008F4C" mask="url(#mask-22)"/><path d="M14.302 11.438a4.583 4.583 0 01-.037.083 2.387 2.387 0 00-.142.365l-.018-.005c.043-.152.097-.269.142-.368l.038-.083.017.008" id="Fill-4112" fill="#008F4C" mask="url(#mask-22)"/><path d="M14.346 11.553a4.95 4.95 0 00-.145.314 2.24 2.24 0 00-.092.246l-.018-.005c.014-.056.051-.15.093-.248.054-.127.116-.26.146-.316l.016.01" id="Fill-4113" fill="#008F4C" mask="url(#mask-22)"/><path d="M14.542 11.518c-.06.063-.12.134-.175.202-.05.065-.094.128-.123.178l-.017-.009c.03-.051.074-.115.125-.18a2.67 2.67 0 01.176-.203l.014.012" id="Fill-4114" fill="#008F4C" mask="url(#mask-22)"/><path d="M14.559 11.795a2.283 2.283 0 01-.168.17 7.519 7.519 0 01-.268.244l-.012-.015a7.99 7.99 0 00.267-.242c.075-.072.141-.138.166-.169l.015.012" id="Fill-4115" fill="#008F4C" mask="url(#mask-22)"/><path d="M14.459 12.012a1.335 1.335 0 01-.053.058c-.087.093-.205.219-.375.557l-.017-.009c.17-.34.29-.468.378-.56l.052-.058.015.012" id="Fill-4116" fill="#008F4C" mask="url(#mask-22)"/><path d="M13.69 11.85a.068.068 0 01.014-.003c.018-.001.04.006.062.029.02.021.042.057.06.114.024.07.044.174.056.322.035.413.035.434.035.434h-.02s0-.02-.034-.432a1.437 1.437 0 00-.055-.318.286.286 0 00-.056-.107c-.017-.018-.033-.024-.047-.022l-.01.001-.006-.018" id="Fill-4117" fill="#008F4C" mask="url(#mask-22)"/><path d="M13.589 11.938a.128.128 0 01.042-.015.095.095 0 01.06.009.14.14 0 01.06.061.47.47 0 01.044.146c.04.242.02.751.02.753l-.019-.001c0-.002.02-.51-.02-.748a.439.439 0 00-.042-.14.125.125 0 00-.05-.054.08.08 0 00-.05-.007.12.12 0 00-.036.013l-.01-.017" id="Fill-4118" fill="#008F4C" mask="url(#mask-22)"/><path d="M13.63 12.528a1.344 1.344 0 01-.166.62c-.14.241-.15.248-.15.248l-.012-.014s.008-.005.145-.243a1.338 1.338 0 00.165-.61h.019" id="Fill-4119" fill="#008F4C" mask="url(#mask-22)"/><path d="M13.694 12.952c0-.001-.083-.437-.126-.514l.017-.01c.044.08.128.52.128.52l-.019.004" id="Fill-4120" fill="#008F4C" mask="url(#mask-22)"/><path d="M14.735 12.53a1.472 1.472 0 00-.36.102c-.12.047-.24.104-.31.158-.16.125-.234.188-.234.188l-.013-.014s.075-.064.236-.19c.071-.055.192-.112.314-.16.157-.06.315-.104.367-.104v.02" id="Fill-4121" fill="#008F4C" mask="url(#mask-22)"/><path d="M14.545 12.408a4.27 4.27 0 00-.217.146c-.064.046-.12.089-.15.117l-.013-.014c.03-.028.087-.073.152-.119a4.38 4.38 0 01.219-.146l.01.016" id="Fill-4122" fill="#008F4C" mask="url(#mask-22)"/><path d="M14.553 12.269c-.02.016-.052.038-.089.065-.127.09-.327.231-.407.375l-.016-.01c.082-.147.284-.29.412-.381a1.46 1.46 0 00.087-.064l.013.015" id="Fill-4123" fill="#008F4C" mask="url(#mask-22)"/><path d="M14.414 12.951l-.594.113-.004-.018.595-.114.003.019" id="Fill-4124" fill="#008F4C" mask="url(#mask-22)"/><path d="M14.526 12.74s-.337.087-.441.108l-.004-.019c.106-.021.44-.108.44-.108l.005.018" id="Fill-4125" fill="#008F4C" mask="url(#mask-22)"/><path d="M14.706 12.487a11.196 11.196 0 01-.426.368 8.68 8.68 0 01-.586.384l-.009-.017a7.634 7.634 0 00.583-.383 8.982 8.982 0 00.424-.366l.014.014" id="Fill-4126" fill="#008F4C" mask="url(#mask-22)"/><path d="M14.098 13.17c-.001.001-.548.19-.606.208l-.006-.018c.06-.019.605-.207.606-.208l.006.019" id="Fill-4127" fill="#008F4C" mask="url(#mask-22)"/><path d="M14.003 13.39a.893.893 0 00-.155-.012 2.053 2.053 0 00-.212.007l-.002-.02a2.09 2.09 0 01.374.006l-.005.02" id="Fill-4128" fill="#008F4C" mask="url(#mask-22)"/><path d="M13.774 13.47a2.523 2.523 0 00-.265-.004.677.677 0 00-.165.022l-.006-.018a.67.67 0 01.17-.023c.1-.004.21 0 .267.004v.02" id="Fill-4129" fill="#008F4C" mask="url(#mask-22)"/><path d="M13.572 13.56a1.508 1.508 0 00-.173.003 3.953 3.953 0 00-.243.022l-.003-.019a3.81 3.81 0 01.42-.026l-.001.02" id="Fill-4130" fill="#008F4C" mask="url(#mask-22)"/><path d="M13.503 13.666c-.001 0-.262-.008-.37-.013v-.019c.11.005.37.013.37.013v.019" id="Fill-4131" fill="#008F4C" mask="url(#mask-22)"/><path d="M13.256 13.228a3.94 3.94 0 00-.047.092 1.929 1.929 0 01-.115.213l-.016-.011c.034-.048.077-.135.114-.211l.047-.092.017.009" id="Fill-4132" fill="#008F4C" mask="url(#mask-22)"/><path d="M13.116 13.355a3.556 3.556 0 01-.127.246l-.017-.009s.1-.178.126-.244l.018.007" id="Fill-4133" fill="#008F4C" mask="url(#mask-22)"/><path d="M13.042 13.363a2.425 2.425 0 01-.095.208l-.016-.01a2.667 2.667 0 00.094-.205l.017.007" id="Fill-4134" fill="#008F4C" mask="url(#mask-22)"/><path d="M12.965 13.374c-.01.049-.05.13-.05.13l-.017-.01s.04-.078.049-.124l.018.004" id="Fill-4135" fill="#008F4C" mask="url(#mask-22)"/><path d="M11.318 14.425c.103-.039.265-.103.338-.152.074-.05-.392-.257-.437-.292-.044-.036.731-.167.731-.167l.706.167s-.293.098-.401.176c-.11.076-.058.101.014.144.072.042.246.1.279.136.032.036.01.121-.096.075a10.079 10.079 0 01-.507-.287s-.4.243-.54.285c-.142.043-.143-.064-.087-.085" id="Fill-4136" fill="#006300" mask="url(#mask-22)"/><path d="M11.35 14.436c.023 0 .042.016.042.035 0 .019-.019.034-.043.034-.023 0-.043-.015-.043-.034 0-.02.02-.035.043-.035" id="Fill-4137" fill="#FDDE2D" mask="url(#mask-22)"/><path d="M12.496 14.436c.023 0 .043.016.043.035 0 .019-.02.034-.043.034-.024 0-.043-.015-.043-.034 0-.02.019-.035.043-.035" id="Fill-4138" fill="#FDDE2D" mask="url(#mask-22)"/><path d="M11.954 13.968s-.418-.013-.855.092c-.26.062-.676.197-.716.338 0 0-.212-.176-.239-.375 0 0 .386-.453 1.81-.465 1.423.012 1.809.465 1.809.465-.027.199-.239.375-.239.375-.04-.141-.455-.276-.715-.338-.437-.105-.855-.092-.855-.092z" id="Fill-4139" fill="red" mask="url(#mask-22)"/><path d="M11.954 13.968s-.418-.013-.855.092c-.26.062-.676.197-.716.338 0 0-.212-.176-.239-.375 0 0 .386-.453 1.81-.465 1.423.012 1.809.465 1.809.465-.027.199-.239.375-.239.375-.04-.141-.455-.276-.715-.338-.437-.105-.855-.092-.855-.092z" id="Stroke-4140" stroke="#000" stroke-width=".051" mask="url(#mask-22)"/><path d="M10.825 14.138l.053.13s-.066-.011-.232.124c-.167.134-.248.02-.263.006.028-.097.232-.19.442-.26z" id="Fill-4141" fill="red" mask="url(#mask-22)"/><path d="M10.825 14.138l.053.13s-.066-.011-.232.124c-.167.134-.248.02-.263.006.028-.097.232-.19.442-.26z" id="Stroke-4142" stroke="#000" stroke-width=".051" mask="url(#mask-22)"/><path d="M10.878 14.268s.017.124-.145.197c-.163.073-.359.088-.47.016a1.063 1.063 0 01-.318-.383c-.074-.15-.192-.386-.323-.364 0 0 .047-.16.222-.256 0 0 .171-.021.417.45a.648.648 0 00-.117.095c.022.157.158.3.215.353.022.021.024.025.047.045.037.032.114.072.24-.03.166-.134.232-.123.232-.123z" id="Fill-4143" fill="red" mask="url(#mask-22)"/><path d="M10.878 14.268s.017.124-.145.197c-.163.073-.359.088-.47.016a1.063 1.063 0 01-.318-.383c-.074-.15-.192-.386-.323-.364 0 0 .047-.16.222-.256 0 0 .171-.021.417.45a.648.648 0 00-.117.095c.022.157.158.3.215.353.022.021.024.025.047.045.037.032.114.072.24-.03.166-.134.232-.123.232-.123z" id="Stroke-4144" stroke="#000" stroke-width=".051" mask="url(#mask-22)"/><path d="M9.75 13.544a.697.697 0 00-.136-.245c-.131-.151-.21-.255-.21-.255s.066.274.077.34c0 0-.07-.1-.306-.136 0 0 .189.176.261.436.072.26.268.388.329.405a.183.183 0 00.155-.04c-.074-.147-.181-.335-.298-.315 0 0 .03-.1.129-.19z" id="Fill-4145" fill="red" mask="url(#mask-22)"/><path d="M9.75 13.544a.697.697 0 00-.136-.245c-.131-.151-.21-.255-.21-.255s.066.274.077.34c0 0-.07-.1-.306-.136 0 0 .189.176.261.436.072.26.268.388.329.405a.183.183 0 00.155-.04c-.074-.147-.181-.335-.298-.315 0 0 .03-.1.129-.19z" id="Stroke-4146" stroke="#000" stroke-width=".051" mask="url(#mask-22)"/><path d="M9.622 13.734c-.018.052-.022.143.134.214.155.071.115.13.115.13.014-.006.024-.008.049-.03-.075-.147-.181-.334-.298-.314z" id="Fill-4147" fill="red" mask="url(#mask-22)"/><path d="M9.622 13.734c-.018.052-.022.143.134.214.155.071.115.13.115.13.014-.006.024-.008.049-.03-.075-.147-.181-.334-.298-.314z" id="Stroke-4148" stroke="#000" stroke-width=".051" mask="url(#mask-22)"/><path d="M13.082 14.138l-.053.13s.067-.011.233.124c.166.134.248.02.262.006-.027-.097-.232-.19-.442-.26z" id="Fill-4149" fill="red" mask="url(#mask-22)"/><path d="M13.082 14.138l-.053.13s.067-.011.233.124c.166.134.248.02.262.006-.027-.097-.232-.19-.442-.26z" id="Stroke-4150" stroke="#000" stroke-width=".051" mask="url(#mask-22)"/><path d="M13.03 14.268s-.017.124.145.197c.162.073.359.088.47.016.11-.07.243-.233.317-.383.075-.15.194-.386.324-.364 0 0-.047-.16-.222-.256 0 0-.171-.021-.418.45a.59.59 0 01.117.095c-.021.157-.157.3-.214.353l-.047.045c-.037.032-.114.072-.24-.03-.166-.134-.233-.123-.233-.123z" id="Fill-4151" fill="red" mask="url(#mask-22)"/><path d="M13.03 14.268s-.017.124.145.197c.162.073.359.088.47.016.11-.07.243-.233.317-.383.075-.15.194-.386.324-.364 0 0-.047-.16-.222-.256 0 0-.171-.021-.418.45a.59.59 0 01.117.095c-.021.157-.157.3-.214.353l-.047.045c-.037.032-.114.072-.24-.03-.166-.134-.233-.123-.233-.123z" id="Stroke-4152" stroke="#000" stroke-width=".051" mask="url(#mask-22)"/><path d="M14.157 13.544a.689.689 0 01.137-.245c.13-.151.21-.255.21-.255s-.066.274-.077.34c0 0 .07-.1.306-.136 0 0-.189.176-.262.436-.072.26-.267.388-.328.405a.184.184 0 01-.156-.04c.075-.147.182-.335.299-.315 0 0-.03-.1-.13-.19z" id="Fill-4153" fill="red" mask="url(#mask-22)"/><path d="M14.157 13.544a.689.689 0 01.137-.245c.13-.151.21-.255.21-.255s-.066.274-.077.34c0 0 .07-.1.306-.136 0 0-.189.176-.262.436-.072.26-.267.388-.328.405a.184.184 0 01-.156-.04c.075-.147.182-.335.299-.315 0 0-.03-.1-.13-.19z" id="Stroke-4154" stroke="#000" stroke-width=".051" mask="url(#mask-22)"/><path d="M14.286 13.734c.018.052.021.143-.134.214-.156.071-.115.13-.115.13-.014-.006-.024-.008-.05-.03.075-.147.182-.334.299-.314z" id="Fill-4155" fill="red" mask="url(#mask-22)"/><path d="M14.286 13.734c.018.052.021.143-.134.214-.156.071-.115.13-.115.13-.014-.006-.024-.008-.05-.03.075-.147.182-.334.299-.314z" id="Stroke-4156" stroke="#000" stroke-width=".051" mask="url(#mask-22)"/><path d="M10.627 14.486l.005.031.005.025c.001.006.002.01.004.01l.012.002.003.014-.028.02-.03.025-.003-.014.011-.022c.001-.001.002-.005.001-.01a.87.87 0 00-.004-.026l-.005-.032-.04-.233-.005-.026a.518.518 0 00-.008-.03h-.015l-.003-.015.03-.021a.058.058 0 00.006-.006l.012-.01a.024.024 0 01.01-.008.147.147 0 01.006-.006c.017-.013.031-.015.042-.005.011.01.02.032.025.064a.296.296 0 01.004.076.154.154 0 01-.016.058l.023.049.017.037.015.032a.172.172 0 00.011.02l.005.006a.014.014 0 00.004.002l.005.001h.005l.003.015a.113.113 0 01-.022.02c-.007.006-.011.009-.014.008a.017.017 0 01-.01-.005.06.06 0 01-.012-.021l-.015-.033a1.944 1.944 0 00-.041-.092c-.001 0-.002 0-.003-.002 0 0-.002 0-.003.002l-.004.003.017.097zm-.021-.123l.01-.006a.056.056 0 00.017-.037.28.28 0 00-.005-.07.164.164 0 00-.017-.058c-.006-.01-.014-.011-.023-.004a.083.083 0 00-.005.004l-.005.006.028.165zm.106-.296l.026-.016.05-.032.001.002.008.103-.005.005-.017-.068-.039.024.021.159.006-.004.019-.012c.002 0 .002-.005.002-.01l-.002-.043.007-.005.008.064.009.064-.006.006-.01-.04c-.001-.005-.003-.007-.004-.006l-.02.011-.005.003.014.102c.002.023.006.044.009.066l.04-.026.003-.086.005-.006.013.113v.002l-.05.03-.027.016-.026.018-.003-.015.012-.02a1.406 1.406 0 00-.002-.037l-.004-.033-.032-.238a7.96 7.96 0 01-.004-.027c0-.008-.002-.015-.003-.021 0-.006-.002-.01-.004-.01l-.015-.002-.002-.016a.707.707 0 00.027-.015zm.176.12c.004 0 .008 0 .012-.003.009-.004.015-.016.018-.034a.3.3 0 00-.002-.078.245.245 0 00-.015-.067c-.006-.013-.014-.017-.023-.011a.035.035 0 00-.012.007l.022.187zm.013.111a1.044 1.044 0 00.01.066l.017.005.002.015-.033.016-.032.019-.002-.015.013-.019a.02.02 0 00.001-.01l-.003-.027-.003-.034-.029-.24-.003-.027-.003-.022a.013.013 0 00-.003-.009l-.016-.004-.001-.015a.312.312 0 00.047-.026l.016-.01c.018-.01.033-.007.045.006.012.014.02.04.024.076a.308.308 0 01-.003.11c-.007.03-.02.048-.037.058a.045.045 0 01-.017.005l.01.082zm.05-.379l.032-.012.031-.017.002.016-.012.017c-.002.002-.002.005-.002.01a1.033 1.033 0 00.005.051l.016.167a.442.442 0 00.02.11c.008.02.018.026.031.02.013-.006.02-.02.024-.046a.48.48 0 000-.113l-.018-.171-.002-.027-.003-.024c0-.005-.002-.007-.004-.008l-.014-.004-.002-.016.024-.01a.161.161 0 00.024-.012l.001.016-.012.018c-.002.002-.002.006-.002.011l.002.022.003.028.015.154a.59.59 0 010 .157c-.006.035-.019.056-.037.064-.022.01-.039.003-.052-.021a.4.4 0 01-.028-.133L10.976 14l-.003-.028-.002-.022c0-.005-.002-.008-.004-.009l-.015-.005-.002-.016zm.175-.08l.03-.01.018-.008a.066.066 0 01.016-.006c.018-.006.032-.002.042.011a.13.13 0 01.019.067c.003.05-.004.087-.023.112.012.001.022.01.03.027a.198.198 0 01.014.066.254.254 0 01-.01.101c-.01.027-.024.043-.044.05l-.013.003c-.005.001-.01.002-.017.006a.649.649 0 00-.03.01v-.015l.012-.017c.002-.002.002-.005.002-.01 0-.008 0-.017-.002-.028l-.002-.033-.018-.244-.002-.028-.002-.023c0-.005-.002-.008-.004-.009l-.014-.007-.002-.015zm.064.2l.014.183.013-.001c.009-.004.016-.014.02-.032a.287.287 0 00.002-.073.223.223 0 00-.013-.066c-.006-.014-.015-.018-.026-.014a.021.021 0 00-.01.004zm-.002-.028a.059.059 0 00.01-.003c.01-.003.015-.011.019-.025a.243.243 0 00.002-.066.185.185 0 00-.012-.06c-.005-.01-.011-.014-.02-.01-.002 0-.003 0-.004.002a.024.024 0 00-.006.003l.011.16zm.137-.15l.016.242.004.067.041-.013.009-.092.006-.004.005.122v.003a.598.598 0 00-.05.014l-.027.007-.028.01-.002-.015.012-.015a.012.012 0 00.002-.01l-.001-.028-.002-.034-.016-.245-.002-.028a.473.473 0 00-.005-.032l-.014-.008-.001-.016a.233.233 0 00.031-.008l.031-.01.002.015-.012.015c-.002.002-.003.006-.003.01l.003.032v.02zm.14.204l.002.034.001.027c0 .005.002.009.005.01l.013.008.001.016a.232.232 0 00-.032.006.211.211 0 00-.033.008l-.001-.016.013-.014c.002-.002.003-.005.003-.01l-.001-.028-.002-.034-.012-.246-.002-.028v-.023c-.001-.005-.002-.008-.004-.009l-.015-.01v-.015l.032-.006a.21.21 0 00.032-.009l.002.016-.014.015a.014.014 0 00-.002.01v.024l.002.027.012.247zm.145-.248l-.006.003-.011-.087a.025.025 0 00-.019-.004c-.015.003-.027.022-.033.058a.547.547 0 00-.008.136.6.6 0 00.02.138c.013.033.027.049.045.045.01-.002.02-.01.03-.024l.002.018c-.013.03-.028.047-.046.05-.023.005-.042-.011-.058-.05a.475.475 0 01-.027-.156.513.513 0 01.016-.172c.014-.044.033-.068.058-.074a.067.067 0 01.039.006v.003l-.002.11zm.066.165l-.006.06-.002.027c-.002.007-.002.012-.002.016l.002.008a.01.01 0 00.003.004l.01.007v.016l-.024.002-.023.004-.001-.016.011-.01a.027.027 0 00.006-.013l.003-.024.044-.382.01-.006.056.372c.002.013.003.023.005.028.001.005.004.009.007.01l.01.008v.017c-.009 0-.018 0-.028.002a.233.233 0 00-.037.004V14.1l.01-.01.002-.006v-.024l-.004-.026-.009-.058-.043.005zm.019-.18l-.004.034-.011.114.035-.004-.016-.11-.004-.034zm.227.303l-.028.001v-.016l.014-.011c.002-.002.003-.005.003-.01v-.36c0-.005-.001-.009-.003-.01l-.014-.012v-.016l.028.001.022-.001a.127.127 0 01.021-.002c.027 0 .046.017.06.05.013.032.02.081.02.147a.577.577 0 01-.022.177c-.015.043-.036.064-.062.064a.283.283 0 01-.039-.002zm.02-.031a.021.021 0 00.01.003l.01.001c.016 0 .027-.016.035-.048a.653.653 0 00.012-.144.617.617 0 00-.011-.14c-.008-.031-.02-.046-.036-.046a.088.088 0 00-.02.002v.372zm.163-.188a.778.778 0 00.008.152c.008.036.019.055.033.056.015.001.026-.014.033-.045a.77.77 0 00.013-.15.77.77 0 00-.008-.148c-.007-.035-.018-.053-.034-.054-.015-.001-.026.014-.033.045a.777.777 0 00-.012.144zm.123.005a.555.555 0 01-.025.171c-.015.043-.035.063-.06.061-.025-.002-.044-.023-.056-.064a.552.552 0 01-.018-.165.528.528 0 01.025-.168c.015-.04.035-.06.06-.058.025.001.043.023.056.062.013.04.019.094.018.161zm.165-.173l.026.006.025.004v.015l-.015.01c-.002.001-.003.004-.003.01l-.003.05-.01.247-.002.062c0 .004 0 .007.003.01l.013.014v.015l-.034-.007-.03-.005v-.015l.013-.01a2.807 2.807 0 00.006-.07l.008-.198.003-.061-.01.054-.054.292-.01.002-.028-.3a2.634 2.634 0 01-.005-.058l-.002.058-.008.19-.002.062c0 .006 0 .01.002.011l.012.014v.015l-.022-.005-.024-.004v-.014l.015-.01c.002-.001.003-.004.003-.009l.003-.061.01-.247.001-.051c0-.005 0-.009-.002-.01l-.013-.016v-.015c.012.004.02.005.026.006.008.002.016.002.025.003l.025.28.003.033.006-.032.05-.265zm.105.362l-.002.034-.002.027c0 .006.001.01.003.012l.012.014v.016a.45.45 0 00-.065-.017v-.016l.015-.007c.002-.002.003-.004.004-.01l.001-.027.002-.034.014-.245.002-.028.001-.023c0-.005 0-.009-.002-.011l-.013-.015v-.016l.033.01.032.006v.017l-.015.008c-.002 0-.003.003-.003.008l-.002.024-.001.027-.014.246zm.06.082c0 .007.001.01.003.012l.012.015v.016c-.01-.004-.017-.007-.023-.008a.141.141 0 00-.024-.006v-.015l.015-.008c.002 0 .003-.004.004-.008a3.35 3.35 0 00.004-.062l.016-.244.003-.051c0-.006 0-.009-.002-.011l-.013-.017v-.015a.15.15 0 00.023.007.133.133 0 00.02.006l.052.276.007.035.002-.04.01-.16.004-.052c0-.005 0-.008-.002-.01l-.013-.015v-.016l.024.008a.234.234 0 00.024.006v.015l-.016.009a2.116 2.116 0 00-.007.06l-.022.34h-.013l-.062-.328a2.515 2.515 0 01-.006-.035c0 .016-.002.03-.003.042l-.012.195-.004.06zm.189.014l-.004.032-.002.028c0 .005 0 .008.002.012l.012.016-.001.015a.884.884 0 00-.064-.029v-.015l.016-.005.003-.008.003-.027.004-.034.024-.242.002-.027.002-.022-.001-.012-.012-.018v-.016l.032.016.033.013-.002.017-.014.004c-.002 0-.003.003-.004.008l-.003.023-.003.027-.023.244zm.174-.135h-.006l.003-.091a.044.044 0 00-.017-.017c-.015-.007-.029.003-.04.031a.48.48 0 00-.029.124.577.577 0 000 .145c.005.04.016.064.033.073.01.006.021.004.033-.001v.018c-.018.02-.035.026-.052.016-.022-.012-.038-.04-.047-.088a.543.543 0 01-.003-.167.381.381 0 01.042-.152c.02-.031.042-.041.067-.028a.114.114 0 01.035.032v.003l-.019.102zm.036.203l-.014.051-.007.025-.004.015v.008l.003.006.008.014-.002.015a1.05 1.05 0 01-.046-.027l.002-.015.012-.003c.003-.001.005-.003.007-.007a.22.22 0 00.007-.022l.1-.33.011.002-.005.389a.22.22 0 00.001.03c0 .007.003.012.004.015l.01.015-.003.016a.368.368 0 00-.063-.04l.002-.015.01-.002a.005.005 0 00.004-.003l.002-.008.002-.016v-.087l-.04-.026zm.045-.157l-.008.03-.028.099.033.02.002-.115.001-.034zm.078.345l.001.011.012.02-.002.015a.35.35 0 01-.023-.016.463.463 0 01-.022-.015l.001-.014.016-.002c.002 0 .003-.004.004-.008l.009-.058.035-.235a2.905 2.905 0 00.007-.06l-.012-.022.002-.015.021.016c.007.005.014.01.02.012l.029.292.003.037.006-.04.024-.153.007-.05a.02.02 0 00-.001-.01l-.012-.019.002-.016a.314.314 0 00.045.031l-.002.016-.015.002a.986.986 0 00-.012.057l-.05.327-.011-.005-.035-.346-.003-.037a1.48 1.48 0 00-.007.04l-.028.187a9.191 9.191 0 01-.009.058zm.178.022l-.017.048a.106.106 0 00-.008.023.105.105 0 00-.005.013v.008l.002.007.008.016-.003.016c-.009-.01-.017-.016-.023-.021l-.021-.018.002-.015h.012a.008.008 0 00.008-.005.112.112 0 00.008-.019l.115-.307.011.004-.024.387a.216.216 0 000 .03.03.03 0 00.004.016l.008.016-.003.015-.027-.024-.034-.029.002-.015h.011l.004-.001.002-.008.002-.015.002-.028.004-.059-.04-.035zm.052-.146a.735.735 0 01-.01.027l-.033.092.033.03.008-.115a.85.85 0 01.002-.034z" id="Fill-4157" fill="#FDDE2D" mask="url(#mask-22)"/><path d="M11.97 14.075c.097-.01.22-.069.282-.083.062-.015.157.025.117.138-.04.112.04.159-.054.197-.095.039-.3-.06-.336-.097l-.009-.155z" id="Fill-4158" fill="red" mask="url(#mask-22)"/><path d="M11.97 14.075c.097-.01.22-.069.282-.083.062-.015.157.025.117.138-.04.112.04.159-.054.197-.095.039-.3-.06-.336-.097l-.009-.155z" id="Stroke-4159" stroke="#000" stroke-width=".051" mask="url(#mask-22)"/><path d="M12.316 14.047s-.205.064-.322.052v-.006c.117.01.32-.052.32-.052l.002.006" id="Fill-4160" fill="#000" mask="url(#mask-22)"/><path d="M12.313 14.27a.61.61 0 00-.305-.087v-.007a.61.61 0 01.31.088l-.005.005" id="Fill-4161" fill="#000" mask="url(#mask-22)"/><path d="M12.022 14.201c.032.005.1.02.16.04.04.014.077.03.097.047.005.004.007.008.007.011 0 .006-.005.009-.016.01-.009 0-.02 0-.036-.002a.628.628 0 01-.218-.072l.004-.005a.623.623 0 00.25.072c.006 0 .01-.001.01-.003l-.005-.006a.32.32 0 00-.096-.046 1.075 1.075 0 00-.158-.04l.001-.006" id="Fill-4162" fill="#000" mask="url(#mask-22)"/><path d="M12.378 14.07a.98.98 0 00.287.08s-.071.048-.114.056c0 0 .024.069.07.13 0 0-.173-.04-.258-.075-.003-.031-.015-.072.006-.131a.138.138 0 00.01-.06z" id="Fill-4163" fill="red" mask="url(#mask-22)"/><path d="M12.378 14.07a.98.98 0 00.287.08s-.071.048-.114.056c0 0 .024.069.07.13 0 0-.173-.04-.258-.075-.003-.031-.015-.072.006-.131a.138.138 0 00.01-.06z" id="Stroke-4164" stroke="#000" stroke-width=".051" mask="url(#mask-22)"/><path d="M11.88 14.075c-.096-.01-.22-.069-.281-.083-.062-.015-.158.025-.117.138.04.112-.04.159.054.197.094.039.3-.06.335-.097l.009-.155z" id="Fill-4165" fill="red" mask="url(#mask-22)"/><path d="M11.88 14.075c-.096-.01-.22-.069-.281-.083-.062-.015-.158.025-.117.138.04.112-.04.159.054.197.094.039.3-.06.335-.097l.009-.155z" id="Stroke-4166" stroke="#000" stroke-width=".051" mask="url(#mask-22)"/><path d="M11.535 14.047s.204.064.322.052v-.006a1.098 1.098 0 01-.32-.052l-.002.006" id="Fill-4167" fill="#000" mask="url(#mask-22)"/><path d="M11.538 14.27a.611.611 0 01.305-.087v-.007a.61.61 0 00-.31.088l.005.005" id="Fill-4168" fill="#000" mask="url(#mask-22)"/><path d="M11.838 14.2c-.031.004-.1.02-.16.04a.313.313 0 00-.097.046c-.005.005-.007.008-.007.011 0 .006.005.01.016.01.009 0 .021 0 .036-.002a.62.62 0 00.218-.071l-.004-.005a.617.617 0 01-.25.072c-.006 0-.01-.002-.01-.003 0-.002.002-.004.005-.007a.32.32 0 01.096-.046 1.1 1.1 0 01.158-.04l-.001-.005" id="Fill-4169" fill="#000" mask="url(#mask-22)"/><path d="M11.472 14.07a.97.97 0 01-.287.08s.071.048.114.056c0 0-.023.069-.068.13 0 0 .172-.04.257-.075.002-.031.014-.072-.006-.131a.13.13 0 01-.01-.06z" id="Fill-4170" fill="red" mask="url(#mask-22)"/><path d="M11.472 14.07a.97.97 0 01-.287.08s.071.048.114.056c0 0-.023.069-.068.13 0 0 .172-.04.257-.075.002-.031.014-.072-.006-.131a.13.13 0 01-.01-.06z" id="Stroke-4171" stroke="#000" stroke-width=".051" mask="url(#mask-22)"/><path d="M11.87 14.016c.058-.004.118-.027.142.017.023.045.003.078.011.116.008.039.044.11-.02.122-.065.01-.142.035-.167-.005-.026-.04.02-.067-.005-.112-.024-.045-.046-.132.04-.138z" id="Fill-4172" fill="red" mask="url(#mask-22)"/><path d="M11.87 14.016c.058-.004.118-.027.142.017.023.045.003.078.011.116.008.039.044.11-.02.122-.065.01-.142.035-.167-.005-.026-.04.02-.067-.005-.112-.024-.045-.046-.132.04-.138z" id="Stroke-4173" stroke="#000" stroke-width=".051" mask="url(#mask-22)"/></g></g></g></svg>