<svg version="1.1" id="Слой_1" xmlns="http://www.w3.org/2000/svg" xmlns:xlink="http://www.w3.org/1999/xlink" x="0" y="0" viewBox="0 0 24 24" xml:space="preserve"><style>.st6{fill:#c09309}</style><defs><circle id="SVGID_1_" cx="12" cy="12" r="12"/></defs><clipPath id="SVGID_2_"><use xlink:href="#SVGID_1_" overflow="visible"/></clipPath><g clip-path="url(#SVGID_2_)"><path fill-rule="evenodd" clip-rule="evenodd" fill="#ce1528" d="M-10.1-2.9h43.7v9.7h-43.7z"/><path fill-rule="evenodd" clip-rule="evenodd" fill="#fff" d="M-10.1 6.8h43.7v9.7h-43.7z"/><path fill-rule="evenodd" clip-rule="evenodd" d="M-10.1 16.6h43.7v9.7h-43.7z"/><path d="M10.7 10.1c0 .2 0 1.2.8 2.2V9.9c-.4.2-.7.2-.8.2z" fill="none"/><path d="M9.8 15.6c-.1-.1-.1-.1 0 0-.1 0-.1 0 0 0-.1 0-.1 0 0 0-.1 0-.1 0 0 0zm2.7.2c0 .1 0 .1 0 0 0 .1 0 .1 0 0 0 .1 0 .1 0 0zm.7 0c0-.1 0-.1 0 0zm-1.3.1c0-.1 0-.1 0 0h-.3.3c-.1 0 0 0 0 0-.1.1-.1.1 0 .1v-.1zm-1.1-.2s-.1 0 0 0c-.1-.1-.1-.1 0 0-.1-.1-.1-.1 0 0h-.1.1c-.1 0-.1 0 0 0-.1 0 0 0 0 0zm1.4.1c-.1.1-.1.1 0 0 0 .1 0 .1 0 0 0 .1 0 .1 0 0 0 .1 0 .1 0 0zm1.3-.1s0 .1 0 0c0 .1 0 .1 0 0zm.1.1c.1 0 .1 0 0 0 .1 0 .1 0 0 0 .1 0 .1 0 0 0zm.3-.1c.1 0 .1 0 0 0 .1 0 0 0 0 0zm-.2 0c-.1-.1-.1-.1 0 0-.1 0-.1 0 0 0-.1 0-.1 0 0 0-.1 0-.1 0 0 0-.1 0-.1 0 0 0z" fill="#fff"/><path class="st6" d="M10.2 15.8s0-.1 0 0c0-.1 0-.1 0 0v-.2.2l-.1-.1h-.2v.1h-.1.6-.2zm-.4-.2c-.1 0-.1 0 0 0-.1 0-.1 0 0 0-.1 0-.1 0 0 0-.1-.1-.1-.1 0 0zm-.1.1c0 .1 0 .1 0 0 0 .1 0 .1 0 0 0 .1 0 .1 0 0 .1.1.1.1 0 0zm.2.1c-.1 0-.1 0 0 0-.1 0-.1 0 0 0zm-.2-.4s.1 0 0 0c.1 0 0-.1 0 0 0-.1 0-.1 0 0zm1.4 0s-.1 0 0 0c-.1 0-.1 0 0 0-.1 0-.1 0 0 0-.1 0-.1.1-.1.1l.1-.1-.1.1v.5h.1l-.1-.1v-.1s-.1 0-.1.1h.1v-.1.1h.1s.1 0 .1-.1h.4v-.4c-.5.1-.5.1-.5 0 0 .1 0 .1 0 0zm-.3.3s-.1 0 0 0c-.1 0-.1 0 0 0h-.1.1c-.1-.1-.1-.1 0 0-.1-.1-.1-.1 0 0-.1 0 0 0 0 0zm-.7.1c-.1 0-.1 0 0 0-.1 0-.1 0 0 0-.1.1-.1.1 0 0 0 .1 0 .1 0 0 0 .1 0 0 0 0zm4.1-.1c0 .1 0 .1 0 0 0 .1 0 .1 0 0 0 .1 0 .1 0 0 .1.1.1.1 0 0zm-1.2.1s0-.1 0 0v-.1c-.1.1-.1.1 0 .1v.1h-.1.3c-.1 0-.1 0-.2-.1z"/><path class="st6" d="M14.4 15.6s-.1 0 0 0c-.1-.1-.1-.1 0 0-.1-.1-.1-.1 0 0h-.3v-.2h-.2v.3h-.1v-.2.1h-.2v.2h.1s0 .1-.1.1h.1s.1 0 .1-.1v.1h.4s.1 0 .1-.1h.1c-.2-.1-.1-.1 0-.2-.1 0-.1 0 0 0-.1 0-.1 0 0 0zm-1.2.2c0-.1 0-.1 0 0zm.3-.1c0 .1 0 .1 0 0 0 .1 0 0 0 0zm.1 0c0-.1 0-.1 0 0 .1 0 .1 0 0 0 .1 0 .1 0 0 0zm.1.1c-.1 0-.1 0 0 0-.1 0-.1 0 0 0zm.2-.1s.1 0 0 0c.1 0 .1 0 0 0zm-1.1.2c0-.1 0-.1 0 0v-.3c-.1.2-.1.2 0 .3h-.2v-.5l-.1.1h.2c0 .4 0 .4.1.4zm-.3 0c0-.1 0-.1 0 0zm-.2-.1v-.1h-.1v-.1h-.5v.2h-.2.4v.1h.3l.1-.1c0 .1 0 0 0 0zm-.4.2c0-.1-.1-.1 0 0-.1-.1-.1-.1-.2-.1h-.2.3l.1.1zm.3-.1c-.1 0-.1 0 0 0 0-.1 0-.1 0 0 0-.1 0-.1 0 0zm-1 0c0-.1 0-.1 0 0v-.3.3c-.1-.1-.1-.1 0 0-.1-.1-.1-.1 0 0-.1 0-.1 0 0 0-.1 0-.1 0 0 0zm1.2-.3s0-.1 0 0c0-.1 0-.1 0 0 0-.1-.1-.1 0 0-.1-.1 0 0 0 0zm.3.4s-.1 0 0 0h-.2c.1.1.1.1.2 0-.1.1-.1 0 0 0-.1 0-.1 0 0 0-.1.1-.1.1 0 0 0 .1 0 .1 0 0 0 .1 0 .1 0 0zm-.3-.3s.1 0 0 0c.1-.1 0-.1 0 0 0-.1 0-.1 0 0z"/><path class="st6" d="M15 15.4c0-.1 0-.1 0 0 0-.1 0-.1 0 0 0-.1 0-.1 0 0 0-.1 0-.1 0 0-.1-.1-.1-.1 0 0-.1-.1-.1-.1 0 0-.1-.1-.1-.1 0 0-.1-.1-.1-.1 0 0-.1 0-.1-.1-.2-.1 0-.1-.1-.1-.2-.1v-.1c.1-.2 0-.3-.1-.4-.1-.1-.1-.1-.2-.1-.1-.1-.1-.1-.2 0h-.2l-.4-1.4 1.9 1.7-.2-5.7s0-.4-.3-.6c-.2-.1-.4-.1-.7 0-.2.1-.3.1-.4.2-.3.1-.4.2-.7.2h-.3c-.2-.2-.3-.7-.3-1.1 0-.5-.1-.7-.2-.8l-.1-.1c0 .1-.2 0-.4 0h-.1c-.2 0-.3-.1-.4 0h-.1v.3l.1-.1h.1c.1 0 .2.1.2.2v.1c0 .2 0 .4-.1.7-.1.3-.2.6-.3.7h-.3c-.3 0-.4-.1-.7-.2-.1.2-.2.1-.4 0-.3-.1-.6-.2-.7 0-.3.2-.3.6-.3.6L8.6 15l1.9-1.7-.5 1.3h-.4c-.1 0-.1 0-.2.1 0 0-.1.2-.1.4v.1c-.1 0-.2.1-.2.2s-.1.1-.1.1v.1c0 .1 0 .2.2.2 0 .1 0 .3.2.3.3.1 1 .2 2.5.2h.2c.9 0 2.1-.1 2.4-.3.2-.1.2-.2.1-.3.1-.1.1-.2.2-.2.1-.1.1-.1.2-.1-.1 0-.1 0 0 0-.1 0-.1 0 0 0-.1 0-.1 0 0 0zm-.7-.7c.1 0 .1 0 0 0h.2s.1.1.1.3c0 0-.1 0-.1-.1h-.1l-.1-.2zm-.3 0h.2c-.1.1-.1.1 0 .2-.1 0-.2.1-.3.1-.1 0-.3.1-.5.1 0-.1 0-.2-.1-.2h-.1c-.2 0-.1.1-.1.2-.3 0-.6.1-.8 0 0-.1 0-.2-.1-.2h.9c.2 0 .3-.1.5-.1.3-.1.4-.1.4-.1zm-.6.4c0 .1 0 .1 0 0 0 .1 0 .1 0 0l-.1.1c.1 0 0 0 .1-.1l-.1.1c0-.1 0-.1.1-.1h.1c-.1-.2-.1-.1-.1 0zm-1.3-.1c0 .1 0 .1 0 0l-.1.1V15c0-.1-.1-.1-.1-.1l-.1-.1h-.3v-.2l.1.1.2-.1.2-1.3-.1 1.3.2.2.2-.2-.1-1.3.2 1.3.2.1.1-.1v.2h-.3s-.1 0-.1.1c-.1 0-.2.1-.2.1zm-.2.3s-.1 0-.1-.1c-.1 0-.1-.1-.1-.1 0-.1 0-.1.1-.1l.1.1v.2zm-.5-.7l-.1.3h-.2l-.1-.4-.2.3h-.1l-.1-.4.2-.4.1.4.3-.4.2.6zm-.4.2h-.2l.1-.2.1.2zm-.4 0c-.1 0-.2 0-.3-.1l.2-.3.1.4zm0-4.8c.1 0 .9 0 1.4-.4.6.4 1.3.4 1.4.4 0 .2 0 1.8-1.4 3-1.5-1.2-1.4-2.8-1.4-3zm.5 2.5l-.3.3-.1-.2.3-.9c0 .1.1.1.1.2v.6zm-.4-1.5l-.1 1.6-.2.6.1-2.6c.1.1.1.3.2.4zm2.8 2.1l-.1-.5-.1-1.6c0-.2.1-.3.1-.4l.1 2.5zm-.5-1.2c0-.1.1-.1.1-.2l.3.9-.1.2-.3-.3v-.6zm.3 2.9l-.2-.3-.1.3h-.2l-.1-.3v-.1l.1-.5.3.4.1-.4.2.4-.1.5zm.2-.4l.2.3c-.1 0-.2 0-.3.1l.1-.4zm-.3.4H13l.1-.2.1.2zm-.6-.5l-.2-.8.3.4-.1.4zm-.2-1.7c.1-.1.1-.2.2-.2l.2.2v.4l-.4-.4zm.1.2l-.2.6-.1-.6c.1 0 .1-.1.2-.1l.1.1zm.2-.5c.1-.1.2-.2.2-.3l-.1.5-.1-.2zm-1.4 0l-.2.2V12c.1.1.1.2.2.3zm.1.1c.1.1.1.2.2.2l-.4.4-.1-.5.3-.1zm.2.2s.1.1.2.1l-.1.6-.2-.6.1-.1zm-.3 1.3l.3-.4-.2.8-.1-.4zm.8 1.2c.1-.1.1-.1 0 0 .1-.1.1-.1 0 0l.1-.1c.1 0 .1.1.1.1l-.1.1c-.1 0-.1 0-.1.1v-.2zm1.8-.5s-.1.1 0 0c-.1 0-.2 0-.2.1l-.2-.4.2-.6.2.9zm-.3-1l-.2.6-.2-.4-.2.5-.3-.4.1-.6.2.3.1-.4.5.4zm0-.1l-.3-.3-.1.4-.3-.3-.1.6-.3-.4.2-.6.2.2.1-.5.3.3.1-.2.2.8zm-1.7-6.3s.1.1 0 0c.1.1 0 .1 0 .1 0 .1-.1 0 0-.1-.1.1 0 0 0 0zm-.4 1.3c.1-.3.1-.6.1-.7h.2v-.1c-.2-.3-.4-.4-.5-.4-.1 0-.2.1-.2.1v-.1s.1-.1.2-.1.2 0 .3.1c.1.1.2.1.3.1h.1s.1 0 .1-.1h.4c0 .1.1.3.1.7 0 .4.1 1 .3 1.2-.1 0-.2 0-.3-.1-.2-.3-.2-1-.2-1h-.1s.1.7.2 1v.1c-.2 0-.3-.1-.4-.2-.1-.2-.1-1-.1-1h-.1s0 .7.1 1l-.2.2-.2-.2c.1-.3.1-1 .1-1h-.1s0 .7-.1 1c0 0-.1.1-.3.2V9c.2-.2.3-1 .3-1h-.1s-.1.7-.2.9l-.4.2c.4.1.6-.3.7-.6zm-1.2 1.3l-.2 3.6-.1.2.2-3.8-.3-.3-.2 4.3-.2.2.2-4.6-.3-.3-.2 5.3-.2.1.2-5.5c-.2 0-.3.2-.3.2 0-.1 0-.4.2-.5.2-.1.4-.1.7.1.1 0 .2.1.4.2.3.1.4.2.7.2h.2l-.1.1c.1 0 .3-.1.4-.1l-.1.3h.1c.2-.1.3-.2.4-.2l.2.1c0-.1.1-.1.2-.2.1 0 .2.2.4.2v-.1c.1.1.3.1.3.1v-.1l-.1-.1h.3c.3 0 .4-.1.7-.2.1-.1.2-.1.4-.2.3-.1.5-.2.7-.1.2.1.2.4.2.5 0 0-.2-.2-.4-.2l.2 5.5-.1-.1-.2-5.3-.3.3.2 4.6-.2-.1-.2-4.3-.3.2.2 3.8-.1-.1-.2-3.6c-.1.1-.2.1-.2.1s-.8 0-1.4-.4c-.6.5-1.4.4-1.4.4-.2-.1-.4-.1-.4-.2zm.3 2.9l.1.2.3-.3.1.5.2-.2.2.6-.3.4-.1-.6-.3.3-.1-.4-.3.3.2-.8zm-.2.9l.3-.4.1.4.2-.3.1.6-.1.4-.1-.4-.2.4-.3-.7zm0 .1l.2.6-.2.4h-.2l.2-1zm-.5.9h.1c.1 0 .1 0 .2.1.2 0 .3.1.5.1h.9c-.1.1-.1.1-.1.2h-.8c0-.1 0-.2-.1-.2h-.1c-.1 0-.1.1-.1.2-.2 0-.3-.1-.5-.1-.1 0-.2-.1-.3-.1v-.2h.3zm.9.5s0 .1 0 0c0 .1-.1.1-.1.1h-.1V15c0-.1 0-.1.1-.2h.1v.3zm-1.3-.4c.1 0 .1 0 0 0h.1v.1h-.2l.1-.1zm5.3.8c0 .1 0 .1-.1.2v.1c0 .1 0 .2-.1.2-.3.2-1.5.3-2.4.3h-.1c-1.5 0-2.3-.1-2.5-.2-.2 0-.2-.1-.2-.2v-.1c-.1 0-.1-.1-.1-.2v-.1l.1-.1c.1-.1.1-.1.2-.1V15h.1c.1 0 .1 0 .1-.1 0 .1.1.1.2.1s.3.1.5.1v.2s0-.1.1-.1c0 0 .1 0 .1-.1.4 0 .6.1.8 0 0 0 0 .1.1.1s.1.1.1.1c0-.1 0-.1.1-.2h.1c0 .1 0 .1.1.2 0 0 0-.1.1-.1s.1-.1.1-.1h.8l.1.1.1.1v-.2c.2 0 .3-.1.5-.1.1 0 .2-.1.3-.1 0 0 .1 0 .1.1v.2c.1 0 .1 0 .2.1.4 0 .5.1.5.2 0-.1 0 0 0 0z"/><path class="st6" d="M12 12.8c.2-.2.4-.3.5-.5.9-1.1.9-2.3.9-2.3s-.4 0-.8-.1c-.2-.1-.3-.1-.5-.2-.2.1-.3.2-.5.2-.5.1-.9.1-1 .1 0 0-.1 1.2.9 2.3.1.2.3.4.5.5zm-.5-.5V9.9c.2-.1.3-.1.5-.3.2.1.3.2.5.2v2.4c-.1.2-.3.3-.5.5-.2-.1-.4-.3-.5-.4z"/><path d="M9.9 14.7l.3.1-.3-.1zm.3.2s.2 0 .3.1c0-.1-.3-.1-.3-.1zm-.3-.2s.1.1.3.1c-.1 0-.3-.1-.3-.1z" fill="none" stroke="#c09309" stroke-width=".892" stroke-linecap="round" stroke-linejoin="round"/><path class="st6" d="M11.1 15h-.2.2c.1 0 0 0 0 0zm.3.1c-.1 0-.1-.1 0 0h-.1c0-.1 0-.1.1 0-.1-.1-.1-.1 0 0 .1-.1.1-.1.2-.1-.1 0-.2.1-.2.1zm1.1 0s0-.1 0 0h-.1c0-.1 0-.1.1 0 0-.1 0-.1 0 0l.1-.1c.1 0 0 .1-.1.1zm.3-.1c-.1 0-.1 0 0 0-.1 0-.1 0 0 0h.3-.3zm.8 0c-.1 0-.1 0 0 0-.1 0-.1-.1 0 0-.1-.1-.1-.1 0 0 0 0 .1-.1.2-.1l-.2.1zm.3-.1c0-.1 0-.1 0 0 0 0 .2-.1.3-.1 0 0-.2.1-.3.1z"/></g></svg>