<svg width="24" height="24" xmlns="http://www.w3.org/2000/svg" xmlns:xlink="http://www.w3.org/1999/xlink"><defs><path d="M23.87 11.967c0 6.604-5.313 11.958-11.867 11.958C5.45 23.925.137 18.57.137 11.967S5.45.009 12.003.009c6.554 0 11.866 5.354 11.866 11.958z" id="path-1"/></defs><g id="Page-1" stroke="none" stroke-width="1" fill="none" fill-rule="evenodd"><g id="Грузия"><mask id="mask-2" fill="#fff"><use xlink:href="#path-1"/></mask><path d="M-5.796 9.6h15.45V.01h-15.45V9.6zm20.147 0h15.451V.01h-15.45V9.6zm0 14.325h15.451v-9.591h-15.45v9.59zm-20.147 0h15.45v-9.591h-15.45v9.59zM2.65 7.037s-.176-.979-.22-1.717c.732.045 1.703.222 1.703.222-.078-.295-.078-1.368 0-1.663 0 0-.97.177-1.703.222.044-.738.22-1.717.22-1.717-.293.08-1.358.08-1.65 0 0 0 .175.98.22 1.717a17.557 17.557 0 01-1.704-.222c.078.295.078 1.368 0 1.663 0 0 .972-.177 1.704-.222A18.17 18.17 0 011 7.037c.292-.08 1.357-.08 1.65 0zm20.251 14.486s-.176-.98-.22-1.717c.732.044 1.704.222 1.704.222-.08-.295-.08-1.369 0-1.663 0 0-.972.177-1.704.221.044-.737.22-1.716.22-1.716-.293.079-1.358.079-1.65 0 0 0 .175.979.22 1.716a17.657 17.657 0 01-1.704-.221c.079.294.079 1.368 0 1.663 0 0 .972-.178 1.704-.222a18.11 18.11 0 01-.22 1.717c.292-.08 1.357-.08 1.65 0zm-20.251 0s-.176-.98-.22-1.717c.732.044 1.703.222 1.703.222-.078-.295-.078-1.369 0-1.663 0 0-.97.177-1.703.221.044-.737.22-1.716.22-1.716-.293.079-1.358.079-1.65 0 0 0 .175.979.22 1.716-.732-.044-1.704-.221-1.704-.221.078.294.078 1.368 0 1.663 0 0 .972-.178 1.704-.222-.045.738-.22 1.717-.22 1.717.292-.08 1.357-.08 1.65 0zM22.901 7.037s-.176-.979-.22-1.717a17.57 17.57 0 011.704.222c-.08-.295-.08-1.368 0-1.663 0 0-.972.177-1.704.222.044-.738.22-1.717.22-1.717-.293.08-1.358.08-1.65 0 0 0 .175.98.22 1.717-.732-.045-1.704-.222-1.704-.222.079.295.079 1.368 0 1.663 0 0 .972-.177 1.704-.222-.045.738-.22 1.717-.22 1.717.292-.08 1.357-.08 1.65 0z" id="Fill-6141" fill="#F0F0F0" mask="url(#mask-2)"/><path d="M9.654 23.925v-9.591h-15.45V9.6h15.45V.01h4.697V9.6h15.451v4.734h-15.45v9.59H9.653zM2.65 7.037s-.176-.979-.22-1.717c.732.045 1.703.222 1.703.222-.078-.295-.078-1.368 0-1.663 0 0-.971.177-1.703.222.044-.738.22-1.717.22-1.717-.293.08-1.358.08-1.65 0 0 0 .175.98.22 1.717-.732-.045-1.704-.222-1.704-.222.078.295.078 1.368 0 1.663 0 0 .972-.177 1.704-.222C1.175 6.058 1 7.037 1 7.037c.292-.08 1.357-.08 1.65 0zm20.251 14.486s-.176-.98-.22-1.717c.732.044 1.704.222 1.704.222-.08-.295-.08-1.369 0-1.663 0 0-.972.177-1.704.221.044-.737.22-1.716.22-1.716-.293.079-1.358.079-1.65 0 0 0 .175.979.22 1.716a17.657 17.657 0 01-1.704-.221c.079.294.079 1.368 0 1.663 0 0 .972-.178 1.704-.222-.045.738-.22 1.717-.22 1.717.292-.08 1.357-.08 1.65 0zm-20.251 0s-.176-.98-.22-1.717a17.59 17.59 0 011.703.222c-.078-.295-.078-1.369 0-1.663 0 0-.971.177-1.703.221.044-.737.22-1.716.22-1.716-.293.079-1.358.079-1.65 0 0 0 .175.979.22 1.716-.732-.044-1.704-.221-1.704-.221.078.294.078 1.368 0 1.663 0 0 .972-.178 1.704-.222-.045.738-.22 1.717-.22 1.717.292-.08 1.357-.08 1.65 0zM22.901 7.037s-.176-.979-.22-1.717a17.57 17.57 0 011.704.222c-.08-.295-.08-1.368 0-1.663 0 0-.972.177-1.704.222.044-.738.22-1.717.22-1.717-.293.08-1.358.08-1.65 0 0 0 .175.98.22 1.717-.732-.045-1.704-.222-1.704-.222.079.295.079 1.368 0 1.663 0 0 .972-.177 1.704-.222-.045.738-.22 1.717-.22 1.717.292-.08 1.357-.08 1.65 0z" id="Fill-6143" fill="#FF1612" mask="url(#mask-2)"/><path d="M9.654 23.925v-9.591h-15.45V9.6h15.45V.01h4.697V9.6h15.451v4.734h-15.45v9.59H9.653zM2.65 7.037s-.176-.979-.22-1.717c.732.045 1.703.222 1.703.222-.078-.295-.078-1.368 0-1.663 0 0-.971.177-1.703.222.044-.738.22-1.717.22-1.717-.293.08-1.358.08-1.65 0 0 0 .175.98.22 1.717-.732-.045-1.704-.222-1.704-.222.078.295.078 1.368 0 1.663 0 0 .972-.177 1.704-.222C1.175 6.058 1 7.037 1 7.037c.292-.08 1.357-.08 1.65 0zm20.251 14.486s-.176-.98-.22-1.717c.732.044 1.704.222 1.704.222-.08-.295-.08-1.369 0-1.663 0 0-.972.177-1.704.221.044-.737.22-1.716.22-1.716-.293.079-1.358.079-1.65 0 0 0 .175.979.22 1.716a17.657 17.657 0 01-1.704-.221c.079.294.079 1.368 0 1.663 0 0 .972-.178 1.704-.222-.045.738-.22 1.717-.22 1.717.292-.08 1.357-.08 1.65 0zm-20.251 0s-.176-.98-.22-1.717a17.59 17.59 0 011.703.222c-.078-.295-.078-1.369 0-1.663 0 0-.971.177-1.703.221.044-.737.22-1.716.22-1.716-.293.079-1.358.079-1.65 0 0 0 .175.979.22 1.716-.732-.044-1.704-.221-1.704-.221.078.294.078 1.368 0 1.663 0 0 .972-.178 1.704-.222-.045.738-.22 1.717-.22 1.717.292-.08 1.357-.08 1.65 0zM22.901 7.037s-.176-.979-.22-1.717a17.57 17.57 0 011.704.222c-.08-.295-.08-1.368 0-1.663 0 0-.972.177-1.704.222.044-.738.22-1.717.22-1.717-.293.08-1.358.08-1.65 0 0 0 .175.98.22 1.717-.732-.045-1.704-.222-1.704-.222.079.295.079 1.368 0 1.663 0 0 .972-.177 1.704-.222-.045.738-.22 1.717-.22 1.717.292-.08 1.357-.08 1.65 0z" id="Stroke-6144" stroke="#F4F5F7" stroke-width=".243" mask="url(#mask-2)"/></g></g></svg>