<svg width="24" height="24" xmlns="http://www.w3.org/2000/svg" xmlns:xlink="http://www.w3.org/1999/xlink"><defs><path d="M23.931 11.966c0 6.554-5.354 11.866-11.959 11.866C5.368 23.832.014 18.52.014 11.966.014 5.413 5.368.101 11.972.101c6.605 0 11.959 5.312 11.959 11.865z" id="path-1"/></defs><g id="Page-1" stroke="none" stroke-width="1" fill="none" fill-rule="evenodd"><g id="Греция"><mask id="mask-2" fill="#fff"><use xlink:href="#path-1"/></mask><path d="M.014 23.832H35.89v-2.637H.014v2.637zm0-5.273H35.89v-2.637H.014v2.637zm35.876-5.274v-2.637H13.3V8.01h22.59V5.374H13.3V2.737h22.59V.1H7.986v5.274h5.315v2.637H7.986v5.274H35.89zM.014 5.374h5.315V.1H.014v5.274zm0 7.91h5.315V8.012H.014v5.274z" id="Fill-6163" fill="#207BF2" mask="url(#mask-2)"/><path d="M5.33.1h2.656v5.274h5.315v2.637H7.986v5.274H35.89v2.637H.014v-2.637h5.315V8.01H.014V5.374h5.315V.1zm7.97 5.274h22.59V2.737H13.3v2.637zm0 5.274h22.59V8.01H13.3v2.637zM.014 13.285v2.637-2.637zm0 7.91H35.89V18.56H.014v2.636z" id="Fill-6165" fill="#F0F0F0" mask="url(#mask-2)"/></g></g></svg>