<svg width="24" height="24" xmlns="http://www.w3.org/2000/svg" xmlns:xlink="http://www.w3.org/1999/xlink"><defs><path d="M23.869 11.966c0 6.554-5.313 11.866-11.866 11.866S.137 18.52.137 11.966C.137 5.413 5.45.1 12.003.1S23.87 5.413 23.87 11.966z" id="path-1"/></defs><g id="Page-1" stroke="none" stroke-width="1" fill="none" fill-rule="evenodd"><g id="Индия"><mask id="mask-2" fill="#fff"><use xlink:href="#path-1"/></mask><path id="Fill-7093" fill="#F0F0F0" mask="url(#mask-2)" d="M-5.795 15.922h35.597v-7.91H-5.795z"/><path id="Fill-7095" fill="#F39229" mask="url(#mask-2)" d="M-5.795 8.011h35.598V.101H-5.795z"/><path id="Fill-7096" fill="#47B71D" mask="url(#mask-2)" d="M-5.795 23.832h35.598v-7.91H-5.795z"/><path d="M12.03 11.349a.643.643 0 01.106.014l.096-.65.564-1.706-.364 1.76-.242.61a.55.55 0 01.098.041l.26-.602.987-1.503-.808 1.607-.391.525a.7.7 0 01.084.065l.407-.514L14.17 9.8l-1.196 1.343-.515.406a.578.578 0 01.065.085l.527-.392 1.606-.808-1.503.988-.602.26a.53.53 0 01.04.098l.61-.242 1.76-.365-1.706.565-.65.095a.53.53 0 01.014.105l.652-.075 1.795.104-1.795.103-.652-.076a.576.576 0 01-.013.105l.649.096 1.707.565-1.761-.365-.61-.242a.704.704 0 01-.04.098l.602.26 1.503.987-1.606-.807-.527-.392a.695.695 0 01-.065.084l.515.407 1.196 1.344-1.343-1.198-.407-.514a.632.632 0 01-.084.065l.391.527.808 1.606-.987-1.503-.26-.602a.646.646 0 01-.098.04l.242.61.364 1.761-.564-1.707-.096-.65a.588.588 0 01-.105.015l.076.65-.104 1.797-.104-1.796.077-.651a.59.59 0 01-.106-.015l-.095.65-.564 1.707.364-1.761.241-.61a.595.595 0 01-.097-.04l-.26.602-.988 1.503.808-1.606.392-.527a.634.634 0 01-.085-.065l-.407.514-1.342 1.198 1.196-1.344.514-.407a.735.735 0 01-.064-.084l-.527.392-1.607.807 1.504-.987.602-.26a.575.575 0 01-.04-.098l-.61.242-1.761.365 1.707-.565.649-.096a.61.61 0 01-.014-.105l-.651.076-1.796-.103 1.796-.104.651.075a.61.61 0 01.014-.105l-.65-.095-1.706-.565 1.76.365.61.242a.657.657 0 01.04-.098l-.601-.26-1.504-.988 1.607.808.527.392a.605.605 0 01.064-.085l-.514-.406L9.837 9.8l1.342 1.196.407.514a.703.703 0 01.085-.065l-.392-.525-.808-1.607.987 1.503.26.602a.558.558 0 01.099-.04l-.242-.61-.364-1.761.564 1.707.095.65a.646.646 0 01.106-.015l-.077-.651.104-1.796.104 1.796-.076.65zm-.277-2.489a.158.158 0 01-.312.041c-.166.03-.328.074-.483.13a.157.157 0 01-.087.203.157.157 0 01-.204-.083 3.09 3.09 0 00-.433.25.157.157 0 01-.032.219.157.157 0 01-.218-.026 3.162 3.162 0 00-.353.353c.066.054.078.15.025.218a.157.157 0 01-.217.032 3.075 3.075 0 00-.25.433.158.158 0 01-.122.29 3.215 3.215 0 00-.129.484.157.157 0 01-.04.312 3.104 3.104 0 000 .5.157.157 0 01.04.313c.03.166.074.327.129.483a.158.158 0 01.121.291c.072.151.156.296.25.433a.158.158 0 01.193.25 3.216 3.216 0 00.353.353.157.157 0 01.25.193c.136.093.28.178.433.249a.157.157 0 01.204-.081c.08.033.118.123.087.202.155.056.317.1.483.13a.157.157 0 01.176-.132c.085.01.146.087.136.172a3.173 3.173 0 00.5 0 .157.157 0 01.312-.04 2.96 2.96 0 00.483-.13.157.157 0 01.087-.202c.08-.034.17.003.206.081a3.17 3.17 0 00.432-.25.158.158 0 01.25-.192 3.244 3.244 0 00.354-.353.158.158 0 01.191-.25c.094-.137.178-.282.25-.433a.158.158 0 01.122-.291 3.07 3.07 0 00.128-.483.158.158 0 01.041-.312 3.009 3.009 0 000-.501.157.157 0 01-.04-.312 3.088 3.088 0 00-.13-.483.157.157 0 01-.121-.29 3.149 3.149 0 00-.25-.434.157.157 0 01-.218-.032.157.157 0 01.027-.218 3.044 3.044 0 00-.354-.353.158.158 0 01-.25-.193 3.159 3.159 0 00-.432-.25.159.159 0 01-.206.083.157.157 0 01-.087-.203 3.045 3.045 0 00-.482-.13.158.158 0 01-.177.133.157.157 0 01-.135-.174 3.294 3.294 0 00-.5 0zm.25-.454c.983 0 1.873.399 2.518 1.043a3.547 3.547 0 011.042 2.518 3.55 3.55 0 01-1.042 2.517 3.551 3.551 0 01-2.518 1.042 3.55 3.55 0 01-2.517-1.042 3.548 3.548 0 01-1.042-2.517 3.55 3.55 0 011.042-2.518 3.547 3.547 0 012.517-1.043z" id="Fill-7097" fill="#0437A0" mask="url(#mask-2)"/></g></g></svg>