<svg width="24" height="24" xmlns="http://www.w3.org/2000/svg" xmlns:xlink="http://www.w3.org/1999/xlink"><defs><path d="M23.994 11.965c0 6.605-5.355 11.96-11.96 11.96C5.43 23.924.077 18.57.077 11.964.076 5.36 5.43.007 12.035.007c6.604 0 11.959 5.354 11.959 11.958z" id="path-1"/></defs><g id="Page-1" stroke="none" stroke-width="1" fill="none" fill-rule="evenodd"><g id="Израиль"><mask id="mask-2" fill="#fff"><use xlink:href="#path-1"/></mask><path d="M-5.902 2.25h35.875V.007H-5.903V2.25zm0 15.695h35.875V5.986H-5.903v11.959zm0 5.98h35.875v-2.243H-5.903v2.242z" id="Fill-7124" fill="#F0F0F0" mask="url(#mask-2)"/><path d="M12.036 8.345l-.621 1.074h1.24l-.62-1.075zM-5.902 5.986h35.875V2.25H-5.902v3.738zm0 15.696h35.875v-3.737H-5.902v3.737zm16.891-11.526l-1.045 1.809 1.045 1.81h2.092l1.045-1.809-1.045-1.81h-2.092zM9.52 12.7l-.62 1.075h1.24L9.52 12.7zm4.41 1.075h1.24l-.62-1.075-.62 1.075zm-1.894 1.811l.62-1.074h-1.241l.62 1.074zm2.514-4.356l.62-1.074h-1.24l.62 1.074zm-4.41-1.074H8.9l.62 1.074.62-1.074zm5.986-.184l-1.152 1.994 1.152 1.993.228.396.09.157h-2.94l-1.378 2.387-.09.157-.092-.157-1.378-2.387h-2.94l.09-.157.229-.395v-.001l1.151-1.993-1.38-2.39-.09-.157h2.94l1.15-1.994h.001l.227-.393.092-.157.09.157 1.379 2.387h2.94l-.091.158-.228.395z" id="Fill-7126" fill="#207BF2" mask="url(#mask-2)"/></g></g></svg>