<svg width="24" height="24" xmlns="http://www.w3.org/2000/svg" xmlns:xlink="http://www.w3.org/1999/xlink"><defs><path d="M23.994 11.966c0 6.552-5.354 11.865-11.959 11.865-6.605 0-11.96-5.313-11.96-11.865C.075 5.412 5.43.099 12.035.099s11.959 5.313 11.959 11.867z" id="path-1"/></defs><g id="Page-1" stroke="none" stroke-width="1" fill="none" fill-rule="evenodd"><g id="Малайзия"><mask id="mask-2" fill="#fff"><use xlink:href="#path-1"/></mask><path d="M-5.904 22.136h35.877v-1.695H-5.904v1.695zm0-3.39h35.877V17.05H-5.904v1.695zm0-3.39h35.877V13.66H-5.904v1.696zm17.94-3.39h17.937V10.27H12.035v1.695zm0-3.39h17.937V6.88H12.035v1.696zm0-3.391h17.937V3.49H12.035v1.695zm0-3.39h17.937V.099H12.035v1.696z" id="Fill-7317" fill="#FF1612" mask="url(#mask-2)"/><path d="M12.035 3.49h17.938V1.794H12.035v1.694zM-5.904 23.83h35.877v-1.694H-5.904v1.695zm0-3.389h35.877v-1.696H-5.904v1.696zm0-3.39h35.877v-1.695H-5.904v1.694zm17.94-3.39h17.937v-1.695H12.035v1.694zm0-3.39h17.937V8.574H12.035v1.695zm0-3.391h17.937V5.185H12.035V6.88z" id="Fill-7319" fill="#F4F4F4" mask="url(#mask-2)"/><path id="Fill-7320" fill="#0437A0" mask="url(#mask-2)" d="M-5.904 13.66h17.94V.1h-17.94z"/><path d="M6.729 4.56c-2.154-1.02-4.705.534-4.705 2.96s2.551 3.98 4.705 2.96C4.282 12.415.568 10.713.568 7.52s3.714-4.897 6.16-2.96zm1.718 4.161l1.095 1.574-.586-1.812 1.691.958L9.31 8.055l1.951.15-1.825-.685 1.825-.686-1.951.151L10.647 5.6l-1.69.958.585-1.813-1.095 1.574-.282-1.879-.283 1.88-1.096-1.575.586 1.813-1.69-.958L7.02 6.985l-1.952-.151 1.826.686-1.826.686 1.952-.151L5.681 9.44l1.691-.958-.586 1.812L7.882 8.72l.283 1.88.282-1.88z" id="Fill-7321" fill="#FFDE27" mask="url(#mask-2)"/></g></g></svg>