<svg width="24" height="24" xmlns="http://www.w3.org/2000/svg" xmlns:xlink="http://www.w3.org/1999/xlink"><defs><path d="M23.93 11.965c0 6.553-5.353 11.866-11.958 11.866C5.368 23.83.013 18.518.013 11.965S5.368.099 11.973.099C18.576.1 23.93 5.412 23.93 11.965z" id="path-1"/></defs><g id="Page-1" stroke="none" stroke-width="1" fill="none" fill-rule="evenodd"><g id="Мальдивы"><mask id="mask-2" fill="#fff"><use xlink:href="#path-1"/></mask><path d="M-5.966 23.83H29.91V.1H-5.966v23.732zm5.98-5.932H23.93V6.032H.013v11.866z" id="Fill-7323" fill="#FF1612" mask="url(#mask-2)"/><path id="Fill-7325" fill="#47B71D" mask="url(#mask-2)" d="M.013 17.898h23.918V6.032H.013z"/><path d="M14.215 8.08c-2.446-.46-4.734 1.392-4.734 3.885s2.288 4.346 4.734 3.886c-1.845-.348-3.24-1.955-3.24-3.886 0-1.93 1.396-3.538 3.24-3.885" id="Fill-7326" fill="#F4F4F4" mask="url(#mask-2)"/></g></g></svg>