<svg width="24" height="24" xmlns="http://www.w3.org/2000/svg" xmlns:xlink="http://www.w3.org/1999/xlink"><defs><path d="M23.993 11.965c0 6.553-5.354 11.866-11.958 11.866-6.605 0-11.96-5.313-11.96-11.866S5.43.099 12.036.099c6.604 0 11.958 5.313 11.958 11.866z" id="path-1"/></defs><g id="Page-1" stroke="none" stroke-width="1" fill="none" fill-rule="evenodd"><g id="Мальта"><mask id="mask-2" fill="#fff"><use xlink:href="#path-1"/></mask><path id="Fill-7333" fill="#FF1612" mask="url(#mask-2)" d="M12.034 23.831h17.938V.1H12.034z"/><path id="Fill-7335" fill="#F0F0F0" mask="url(#mask-2)" d="M-5.903 23.831h17.938V.1H-5.903z"/><path d="M6.6 3.581h1.617v1.942c.296.08.53.314.608.609h1.962v1.604H8.828a.867.867 0 01-.61.619v1.93H6.6v-1.93a.867.867 0 01-.609-.619H4.03V6.132h1.964a.866.866 0 01.606-.608V3.58z" id="Fill-7336" fill="#CCC" mask="url(#mask-2)"/><path d="M6.6 3.581h1.617v1.942c.296.08.53.314.608.609h1.962v1.604H8.828a.867.867 0 01-.61.619v1.93H6.6v-1.93a.867.867 0 01-.609-.619H4.03V6.132h1.964a.866.866 0 01.606-.608V3.58z" id="Stroke-7337" stroke="red" stroke-width="1.815" mask="url(#mask-2)"/><path d="M6.6 3.581h1.617v1.942c.296.08.53.314.608.609h1.962v1.604H8.828a.867.867 0 01-.61.619v1.93H6.6v-1.93a.867.867 0 01-.609-.619H4.03V6.132h1.964a.866.866 0 01.606-.608V3.58z" id="Fill-7338" fill="#CCC" mask="url(#mask-2)"/><path d="M6.6 3.581h1.617v1.942c.296.08.53.314.608.609h1.962v1.604H8.828a.867.867 0 01-.61.619v1.93H6.6v-1.93a.867.867 0 01-.609-.619H4.03V6.132h1.964a.866.866 0 01.606-.608V3.58z" id="Stroke-7339" stroke="#96877D" stroke-width=".318" mask="url(#mask-2)"/><path d="M6.883 7.695H7.99l.08-.066-.15-.086s.018-.008.022-.017c0 0 .04.006.046-.022 0 0 .12.108.204-.006l-.044-.045s.002.113-.09.03c0 0 .068-.053.091-.099.025-.045.039-.084.068-.085.03-.001.017-.016.005-.027-.013-.012-.028-.022-.04-.03-.014-.01-.027.001-.034.014a.105.105 0 00-.015.055c.001.023-.015.032-.03.046a.638.638 0 01-.07.047s-.004-.043-.031-.073-.054-.083-.038-.098c.016-.017.058.033.085.04a.085.085 0 00.085-.03.138.138 0 00.028-.05l.056.025-.004-.038.047.008-.024-.027.022-.016h-.05s.014-.024-.034-.024c0 0-.034-.064-.05-.074-.015-.01-.039-.01-.039-.01s-.017-.077-.033-.068c-.016.008-.043.045-.053.056-.01.01-.007.06.06.08 0 0-.044.005-.096-.028 0 0 .017.033.03.043 0 0-.014.023.022.027.035.005.037 0 .04.013.003.012.012.019.024.03.011.01.012.025 0 .035-.012.012-.03.006-.05-.01-.02-.016-.075-.067-.11-.049-.035.019-.04.045-.032.07a.367.367 0 00.047.072s-.028.013-.032.023c0 0-.024-.038-.038-.047 0 0 .015-.175.107-.278 0 0-.089.011-.168.116 0 0-.092-.062-.117-.088-.024-.026-.032-.07-.032-.07s.092-.004.164-.02c.073-.017.099-.03.118-.039.018-.008.027.009.038.014.013.006.064.002.064.002s.062.041.075.075c.012.035.037.054.048.023 0 0 .006.066.097.078 0 0-.045-.108-.102-.15-.057-.04-.111-.093-.143-.107-.031-.014-.131-.01-.131-.01s.098-.064.107-.17c0 0 .064-.008.104.006.04.014.095.043.116.051.02.007.038.055.11.02 0 0-.066-.078-.117-.1-.05-.022-.128-.044-.163-.06-.034-.016-.036-.01-.064.018a.591.591 0 01-.115.078s-.06-.07-.074-.079c0 0-.003-.078-.075-.155 0 0 .065-.046.099-.097 0 0 .023-.008.031-.013.007-.006.033-.003.035-.042.002-.039-.026-.05-.053-.057a1.333 1.333 0 00-.125-.028C7.676 6.2 7.634 6.2 7.634 6.2s.012-.024.007-.061c0 0-.03.005-.054.028 0 0-.033-.004-.048 0 0 0-.004-.111-.098-.134a.15.15 0 00-.183.092s-.032-.009-.047 0c-.013.01-.023.007-.044.004-.022-.004-.068-.005-.089.032 0 0-.064-.001-.081.034 0 0 .063.01.098.035 0 0-.088-.007-.133-.02-.046-.012-.083-.044-.117-.024-.033.02-.041.042-.045.052 0 0-.055-.01-.074.081 0 0-.139.001-.104.14 0 0-.057.002-.066.06-.01.056-.003.045-.012.067-.01.021-.01.074.055.058 0 0 .013.022-.016.047 0 0 .059.074.129.034.07-.04.135-.117.135-.117s.003.05 0 .063c-.003.012-.011.014-.011.014s-.03-.012-.037-.004c-.007.008.01.035.017.043.007.008.014.023.035.038.02.014.059.018.059.018l.11.095s-.1.054-.119.153c0 0-.041.004-.114-.025-.072-.028-.095-.046-.145-.015-.05.03-.022.133 0 .17.022.036.034.05-.008.08-.041.029-.107.047-.025.117 0 0-.005.08.033.083 0 0 .003.039.026.051 0 0-.012-.074.028-.083.04-.008.05-.037.039-.067 0 0 .013-.007.007-.029-.006-.023-.024-.03-.011-.046.012-.016.088-.055.05-.096-.038-.04-.085-.092-.068-.112.018-.021.088.023.12.035.033.012.068.005.077-.006 0 0 .068.147.239.173 0 0 .005.059-.012.096-.017.037-.014.074.022.075.037.001.113.027.128.046 0 0-.025.019-.035.045 0 0-.048-.002-.06.006-.013.008-.04 0-.056.015-.015.013-.022.04-.07.043a.336.336 0 00-.092.01c-.02.007-.21-.01-.21-.01l.289.051-.246-.002.076.061zm.225-1.204c-.009.04-.003.105.039.127 0 0-.001.125.082.186 0 0-.093.01-.136.037l-.149-.093s.016-.016-.006-.04c-.022-.026-.035-.06-.01-.087.028-.027.068-.062.068-.062s.05-.013.112-.068zm.469.524s-.08.065-.174.08c0 0 .04.093.004.146 0 0 0 .023.006.036.005.012.076.01.105.004.028-.005.046-.017.067-.015a.46.46 0 01.104.077c.006.006.026-.002.032 0 .007 0 .02.005.028.011.009.007.027.009.03.005.004-.005-.026-.03-.04-.027-.012.004-.025-.015-.025-.015s-.024.006-.03-.004c-.005-.009 0-.014-.01-.027-.011-.013-.026-.009-.033-.015-.007-.007-.007-.013-.01-.028-.004-.014-.029-.029-.066-.024 0 0-.007-.065-.107-.06 0 0 .112-.066.286.03 0 0 .012-.02.019-.028 0 0-.027-.014-.03-.02 0 0-.048.013-.06-.017-.011-.03.01-.005-.03-.042-.039-.037-.066-.067-.066-.067zm-.282.196c.012.016.018.055.018.085 0 .03-.006.053.017.055.024.002.042-.014.042-.014s.072.009.112 0c.04-.01.045-.02.056-.014.011.004.031.009.043-.008.013-.017.02.005.03.016.008.011.018.019.018.019s-.092.014-.112.022c-.019.007-.029.014-.042.012-.013-.004-.037-.02-.066-.02-.03 0-.09.057-.09.057s-.06-.028-.07-.052a.16.16 0 00-.018-.036s.055-.032.062-.122zm-.037-1.003s-.039.014-.06.04c0 0 .001.011.022.009.02-.002.05.016.05.016l.023-.02s-.024-.008-.035-.045zm.145.153s-.028-.008-.038-.017c0 0-.003-.012.013-.015a.063.063 0 00.038-.022c.01-.013.043-.006.043-.006s-.012.023-.032.036c-.02.013-.024.024-.024.024zm.29.062s-.02-.028-.04-.043c0 0 .074-.006.117-.033 0 0-.025.035-.077.076z" id="Fill-7340" fill="#96877D" mask="url(#mask-2)"/><path d="M6.883 7.695H7.99l.08-.066-.15-.086s.018-.008.022-.017c0 0 .04.006.046-.022 0 0 .12.108.204-.006l-.044-.045s.002.113-.09.03c0 0 .068-.053.091-.099.025-.045.039-.084.068-.085.03-.001.017-.016.005-.027-.013-.012-.028-.022-.04-.03-.014-.01-.027.001-.034.014a.105.105 0 00-.015.055c.001.023-.015.032-.03.046a.638.638 0 01-.07.047s-.004-.043-.031-.073-.054-.083-.038-.098c.016-.017.058.033.085.04a.085.085 0 00.085-.03.138.138 0 00.028-.05l.056.025-.004-.038.047.008-.024-.027.022-.016h-.05s.014-.024-.034-.024c0 0-.034-.064-.05-.074-.015-.01-.039-.01-.039-.01s-.017-.077-.033-.068c-.016.008-.043.045-.053.056-.01.01-.007.06.06.08 0 0-.044.005-.096-.028 0 0 .017.033.03.043 0 0-.014.023.022.027.035.005.037 0 .04.013.003.012.012.019.024.03.011.01.012.025 0 .035-.012.012-.03.006-.05-.01-.02-.016-.075-.067-.11-.049-.035.019-.04.045-.032.07a.367.367 0 00.047.072s-.028.013-.032.023c0 0-.024-.038-.038-.047 0 0 .015-.175.107-.278 0 0-.089.011-.168.116 0 0-.092-.062-.117-.088-.024-.026-.032-.07-.032-.07s.092-.004.164-.02c.073-.017.099-.03.118-.039.018-.008.027.009.038.014.013.006.064.002.064.002s.062.041.075.075c.012.035.037.054.048.023 0 0 .006.066.097.078 0 0-.045-.108-.102-.15-.057-.04-.111-.093-.143-.107-.031-.014-.131-.01-.131-.01s.098-.064.107-.17c0 0 .064-.008.104.006.04.014.095.043.116.051.02.007.038.055.11.02 0 0-.066-.078-.117-.1-.05-.022-.128-.044-.163-.06-.034-.016-.036-.01-.064.018a.591.591 0 01-.115.078s-.06-.07-.074-.079c0 0-.003-.078-.075-.155 0 0 .065-.046.099-.097 0 0 .023-.008.031-.013.007-.006.033-.003.035-.042.002-.039-.026-.05-.053-.057a1.333 1.333 0 00-.125-.028C7.676 6.2 7.634 6.2 7.634 6.2s.012-.024.007-.061c0 0-.03.005-.054.028 0 0-.033-.004-.048 0 0 0-.004-.111-.098-.134a.15.15 0 00-.183.092s-.032-.009-.047 0c-.013.01-.023.007-.044.004-.022-.004-.068-.005-.089.032 0 0-.064-.001-.081.034 0 0 .063.01.098.035 0 0-.088-.007-.133-.02-.046-.012-.083-.044-.117-.024-.033.02-.041.042-.045.052 0 0-.055-.01-.074.081 0 0-.139.001-.104.14 0 0-.057.002-.066.06-.01.056-.003.045-.012.067-.01.021-.01.074.055.058 0 0 .013.022-.016.047 0 0 .059.074.129.034.07-.04.135-.117.135-.117s.003.05 0 .063c-.003.012-.011.014-.011.014s-.03-.012-.037-.004c-.007.008.01.035.017.043.007.008.014.023.035.038.02.014.059.018.059.018l.11.095s-.1.054-.119.153c0 0-.041.004-.114-.025-.072-.028-.095-.046-.145-.015-.05.03-.022.133 0 .17.022.036.034.05-.008.08-.041.029-.107.047-.025.117 0 0-.005.08.033.083 0 0 .003.039.026.051 0 0-.012-.074.028-.083.04-.008.05-.037.039-.067 0 0 .013-.007.007-.029-.006-.023-.024-.03-.011-.046.012-.016.088-.055.05-.096-.038-.04-.085-.092-.068-.112.018-.021.088.023.12.035.033.012.068.005.077-.006 0 0 .068.147.239.173 0 0 .005.059-.012.096-.017.037-.014.074.022.075.037.001.113.027.128.046 0 0-.025.019-.035.045 0 0-.048-.002-.06.006-.013.008-.04 0-.056.015-.015.013-.022.04-.07.043a.336.336 0 00-.092.01c-.02.007-.21-.01-.21-.01l.289.051-.246-.002.076.061zm.225-1.204c-.009.04-.003.105.039.127 0 0-.001.125.082.186 0 0-.093.01-.136.037l-.149-.093s.016-.016-.006-.04c-.022-.026-.035-.06-.01-.087.028-.027.068-.062.068-.062s.05-.013.112-.068zm.469.524s-.08.065-.174.08c0 0 .04.093.004.146 0 0 0 .023.006.036.005.012.076.01.105.004.028-.005.046-.017.067-.015a.46.46 0 01.104.077c.006.006.026-.002.032 0 .007 0 .02.005.028.011.009.007.027.009.03.005.004-.005-.026-.03-.04-.027-.012.004-.025-.015-.025-.015s-.024.006-.03-.004c-.005-.009 0-.014-.01-.027-.011-.013-.026-.009-.033-.015-.007-.007-.007-.013-.01-.028-.004-.014-.029-.029-.066-.024 0 0-.007-.065-.107-.06 0 0 .112-.066.286.03 0 0 .012-.02.019-.028 0 0-.027-.014-.03-.02 0 0-.048.013-.06-.017-.011-.03.01-.005-.03-.042-.039-.037-.066-.067-.066-.067zm-.282.196c.012.016.018.055.018.085 0 .03-.006.053.017.055.024.002.042-.014.042-.014s.072.009.112 0c.04-.01.045-.02.056-.014.011.004.031.009.043-.008.013-.017.02.005.03.016.008.011.018.019.018.019s-.092.014-.112.022c-.019.007-.029.014-.042.012-.013-.004-.037-.02-.066-.02-.03 0-.09.057-.09.057s-.06-.028-.07-.052a.16.16 0 00-.018-.036s.055-.032.062-.122zm-.037-1.003s-.039.014-.06.04c0 0 .001.011.022.009.02-.002.05.016.05.016l.023-.02s-.024-.008-.035-.045zm.145.153s-.028-.008-.038-.017c0 0-.003-.012.013-.015a.063.063 0 00.038-.022c.01-.013.043-.006.043-.006s-.012.023-.032.036c-.02.013-.024.024-.024.024zm.29.062s-.02-.028-.04-.043c0 0 .074-.006.117-.033 0 0-.025.035-.077.076z" id="Stroke-7341" stroke="#000" stroke-width=".034" mask="url(#mask-2)"/><path d="M7.261 6.124c.002.003.01.006.018.01l.033.01c.008-.01.054-.057.116-.028.065.03.06.076.059.095v.003a.036.036 0 01-.013.022c-.003.005-.008.01-.009.015l-.004.05h-.006l.004-.05c.001-.008.006-.013.011-.019.005-.006.01-.012.01-.019V6.21c.002-.018.007-.06-.054-.088-.065-.03-.11.027-.11.027l-.002.002-.002-.001a.205.205 0 01-.035-.01.057.057 0 01-.02-.012l.004-.004" id="Fill-7342" fill="#000" mask="url(#mask-2)"/><path d="M7.256 6.206a.138.138 0 01.027-.018.058.058 0 01.022-.008.236.236 0 01.045.003.252.252 0 01.044.009.278.278 0 00.09.013v.007a.354.354 0 01-.093-.014.268.268 0 00-.042-.008.215.215 0 00-.044-.003.063.063 0 00-.02.006.173.173 0 00-.025.018l-.004-.005" id="Fill-7343" fill="#000" mask="url(#mask-2)"/><path d="M7.292 6.25a.022.022 0 00.012-.011.046.046 0 00.001-.024.249.249 0 00-.01-.03l.006-.002s.008.02.01.03a.046.046 0 01-.001.027.025.025 0 01-.017.015l-.002-.006" id="Fill-7344" fill="#000" mask="url(#mask-2)"/><path d="M7.456 6.3c.005-.004.011-.014.018-.023l.02-.038a.413.413 0 01.043-.072l.004.003a.49.49 0 00-.042.07.382.382 0 01-.038.064L7.456 6.3" id="Fill-7345" fill="#000" mask="url(#mask-2)"/><path d="M7.59 6.168a.17.17 0 01-.02.058.303.303 0 01-.045.06.294.294 0 00-.056.085.158.158 0 00-.014.079c.003.03.01.053.016.073.006.022.012.04.01.061 0 .042-.05.083-.05.084l-.005-.005s.048-.04.05-.079a.211.211 0 00-.011-.059c-.006-.02-.013-.043-.016-.075a.164.164 0 01.014-.081.312.312 0 01.058-.087.336.336 0 00.043-.06.185.185 0 00.02-.055h.006" id="Fill-7346" fill="#000" mask="url(#mask-2)"/><path d="M7.765 6.347l.016-.015a.112.112 0 01.018-.016.065.065 0 01.016-.012h.009c.002 0 .005 0 .005.004l.002.005c0 .011-.018.031-.018.031l-.005-.004s.017-.018.016-.027V6.31c0-.001 0-.002-.002-.002 0 0-.003 0-.004.002-.005 0-.01.005-.016.01a.162.162 0 00-.016.015.093.093 0 01-.017.015l-.004-.004" id="Fill-7347" fill="#000" mask="url(#mask-2)"/><path d="M7.695 6.425c-.012.01-.066.054-.123.09a.425.425 0 01-.095.046c-.03.01-.048-.015-.059-.05-.011-.038-.013-.089-.015-.12-.001-.016-.001-.027-.003-.029l.006-.003c.002.004.002.016.003.03a.54.54 0 00.016.121c.009.031.024.053.05.046a.45.45 0 00.094-.047c.057-.036.11-.078.122-.089l.004.005" id="Fill-7348" fill="#000" mask="url(#mask-2)"/><path d="M7.715 6.441a1.013 1.013 0 01-.133.094.417.417 0 01-.103.047c-.049.012-.068-.034-.077-.072a.384.384 0 01-.006-.032l-.002-.01a.181.181 0 01-.002-.017c-.001-.014-.003-.03-.019-.04a.285.285 0 01-.058-.045l-.005-.004.006-.002s.024-.005.035.002l.002.001c.012.008.046.029.057.04l-.005.005c-.01-.012-.044-.032-.055-.04h-.002c-.006-.004-.018-.004-.024-.003a.29.29 0 00.052.042c.02.01.02.028.023.044l.001.015a.04.04 0 01.002.01l.006.033c.008.035.026.077.07.067a.391.391 0 00.1-.047c.06-.036.118-.079.132-.092l.005.004" id="Fill-7349" fill="#000" mask="url(#mask-2)"/><path d="M7.442 6.574c-.006.016-.01.044-.013.061v.005a.043.043 0 000 .019.055.055 0 01.003.021c0 .02-.011.03-.011.03l-.004-.005s.009-.008.009-.025a.05.05 0 00-.003-.02c0-.005-.002-.011 0-.02v-.005a.364.364 0 01.013-.064l.006.003" id="Fill-7350" fill="#000" mask="url(#mask-2)"/><path d="M7.652 6.967a.89.89 0 01-.048-.13L7.6 6.814c-.002-.018-.003-.027-.028-.046a.47.47 0 00-.128-.052c-.037-.007-.037-.01-.037-.056v-.003h.007v.003c-.001.041-.001.044.03.05a.342.342 0 01.131.053c.028.02.03.03.032.05l.003.023a.42.42 0 00.02.06.53.53 0 00.028.068l-.006.003" id="Fill-7351" fill="#000" mask="url(#mask-2)"/><path d="M7.426 6.671c-.001-.002-.007-.004-.012-.007a.09.09 0 01-.018-.01.504.504 0 01-.105-.091l-.003-.005c-.018-.027-.021-.031-.03-.082a.277.277 0 00-.013-.056.313.313 0 00-.053-.076.12.12 0 01-.025-.033l-.003-.007a.064.064 0 01-.006-.025h.007c0 .009.002.014.005.022l.003.009a.177.177 0 00.024.03l.033.04a.22.22 0 01.021.038c.006.013.01.03.013.056.008.05.011.054.03.081l.003.004a.49.49 0 00.103.09c.004.004.01.006.016.01a.042.042 0 01.015.008l-.005.004" id="Fill-7352" fill="#000" mask="url(#mask-2)"/><path d="M7.365 6.347a.08.08 0 01-.03-.012.118.118 0 01-.03-.022c-.01-.012-.038-.04-.038-.04l.004-.004s.029.027.04.04a.108.108 0 00.027.021c.01.006.02.01.028.01v.007" id="Fill-7353" fill="#000" mask="url(#mask-2)"/><path d="M7.088 6.226l.011.003.037.01a.334.334 0 00.062.006v.007s-.049-.002-.064-.007c-.01-.004-.025-.007-.036-.01l-.012-.003.002-.006" id="Fill-7354" fill="#000" mask="url(#mask-2)"/><path d="M7.206 6.257a.1.1 0 01-.018.014.198.198 0 01-.025.01c-.004.003-.008.004-.011.005a.111.111 0 00-.06.034c-.02.026-.017.03-.017.03l.001.003-.003.002s-.04.007-.06.045v.002a.215.215 0 00-.086.072v.001s-.066.057-.077.138h-.006c.01-.08.073-.137.078-.142a.214.214 0 01.086-.074.1.1 0 01.06-.048.116.116 0 01.081-.07l.011-.002a.262.262 0 00.025-.012.074.074 0 00.016-.012l.005.004" id="Fill-7355" fill="#000" mask="url(#mask-2)"/><path d="M7.105 6.49a.389.389 0 00.017-.038.275.275 0 01-.043.037.07.07 0 01-.03.006c-.008 0-.016 0-.02.003-.006.003-.01.018-.016.033a.103.103 0 01-.015.03l-.004-.004a.103.103 0 00.013-.029c.006-.015.011-.031.018-.035a.057.057 0 01.024-.004c.01 0 .02-.002.027-.006a.303.303 0 00.05-.045l.009-.009-.003.012a.21.21 0 01-.01.026.155.155 0 01-.012.026l-.005-.002" id="Fill-7356" fill="#000" mask="url(#mask-2)"/><path d="M6.836 6.688a.128.128 0 00-.013.043l-.006-.002.006-.026a.05.05 0 01.009-.02l.004.005" id="Fill-7357" fill="#000" mask="url(#mask-2)"/><path d="M6.909 6.78v-.017c0-.008 0-.018.004-.025.008-.016.034.008.034.008l-.003.005s-.022-.018-.026-.01c-.002.005-.002.014-.002.022 0 .01 0 .017-.003.02L6.91 6.78" id="Fill-7358" fill="#000" mask="url(#mask-2)"/><path d="M7.02 6.873c.014.014.071.061.077.065l.115.042-.062-.096-.06-.04.004-.005.06.04v.002l.07.104.004.007-.009-.003-.125-.045h-.001s-.062-.052-.077-.067l.005-.004" id="Fill-7359" fill="#000" mask="url(#mask-2)"/><path d="M7.227 6.801a1.15 1.15 0 00.287.043h.003v.002s.02.142.061.166l-.003.005c-.04-.023-.061-.147-.064-.167a1.307 1.307 0 01-.286-.042l.002-.007" id="Fill-7360" fill="#000" mask="url(#mask-2)"/><path d="M7.763 7.159c.006.002.01.002.015.002.006 0 .01 0 .015.003a.082.082 0 00.05.003c.011-.005-.04-.043-.04-.043l.003-.005s.06.045.041.053a.06.06 0 01-.025.004.113.113 0 01-.03-.007l-.014-.001c-.005 0-.01 0-.017-.003l.002-.006" id="Fill-7361" fill="#000" mask="url(#mask-2)"/><path d="M7.745 7.187a1.154 1.154 0 01.123.095l-.005.004a1.767 1.767 0 00-.12-.094l.002-.005" id="Fill-7362" fill="#000" mask="url(#mask-2)"/><path d="M7.911 7.355a.095.095 0 01-.008-.012L7.9 7.33h.007l.003.009a.045.045 0 00.007.01l-.005.005" id="Fill-7363" fill="#000" mask="url(#mask-2)"/><path d="M8.026 7.447c.003.006.01.013.017.02.005.006.012.01.017.013l-.002.005a.07.07 0 01-.02-.014.094.094 0 01-.018-.022l.006-.002" id="Fill-7364" fill="#000" mask="url(#mask-2)"/><path d="M7.895 7.425a.047.047 0 01-.054-.009.203.203 0 00-.045-.032c-.013-.007-.022-.023-.022-.023l.006-.002s.008.013.019.019a.202.202 0 01.023.015c.007.004.015.011.023.018.007.007.015.01.022.012.01.001.02 0 .024-.004l.004.006" id="Fill-7365" fill="#000" mask="url(#mask-2)"/><path d="M7.627 7.346c.007 0 .015.004.023.007s.017.007.025.008h.015a.017.017 0 00.006-.004s.002-.002.001-.004a.01.01 0 00-.002-.006l.006-.003a.021.021 0 01.003.008c0 .004 0 .008-.003.01a.027.027 0 01-.01.005.06.06 0 01-.017 0c-.009 0-.018-.005-.026-.008s-.015-.006-.022-.006v-.007" id="Fill-7366" fill="#000" mask="url(#mask-2)"/><path d="M7.923 7.547c-.007-.001-.01.002-.014.005a.03.03 0 01-.023.01H7.88c-.02-.001-.039-.002-.052.005-.01.005-.018.002-.028-.001-.006-.002-.013-.005-.02-.005-.01 0-.018.003-.027.006a.084.084 0 01-.043.006c-.014-.003-.017.002-.02.008-.002.004-.003.007-.007.009-.007.003-.013-.003-.02-.011-.007-.007-.014-.016-.023-.016-.009.001-.02.006-.034.012-.01.004-.023.01-.034.012a.228.228 0 01-.047.007c-.012 0-.022-.002-.026-.007-.007-.007-.002-.013.006-.021.005-.005.01-.01.015-.018a.145.145 0 00.01-.041c.002-.014.003-.027.007-.034l.006.003a.126.126 0 00-.007.032.156.156 0 01-.01.043.09.09 0 01-.016.019c-.005.005-.01.01-.007.013.003.004.012.005.022.005a.263.263 0 00.046-.007l.033-.012c.013-.006.026-.012.036-.012.011 0 .02.01.027.018.006.005.01.01.013.01l.005-.007c.003-.008.007-.015.026-.012a.08.08 0 00.04-.005.102.102 0 01.028-.006c.01 0 .017.002.023.005.008.003.015.006.023.001a.11.11 0 01.055-.006h.007c.01 0 .014-.004.02-.007.004-.005.008-.009.018-.007l-.001.006" id="Fill-7367" fill="#000" mask="url(#mask-2)"/><path d="M7.62 7.458v.008c0 .018 0 .024-.02.044a.109.109 0 00-.018.023c-.002.004 0 .006.001.009.003.002.013 0 .025-.007a.19.19 0 00.043-.025.08.08 0 01.029-.02c.009-.003.017-.001.021.01.005.01.004.017.004.022a.02.02 0 000 .01c0 .002.002.003.004.005.006.007.013.014.005.034l-.006-.003c.007-.015.001-.021-.003-.026a.025.025 0 01-.006-.008.017.017 0 01-.001-.012.032.032 0 00-.003-.02c-.003-.007-.007-.008-.013-.006a.111.111 0 00-.028.019.207.207 0 01-.043.027c-.015.006-.028.009-.032.005-.005-.005-.005-.01-.002-.017a.119.119 0 01.02-.024c.016-.019.016-.023.016-.04v-.008h.006" id="Fill-7368" fill="#000" mask="url(#mask-2)"/><path d="M7.455 7.433a.12.12 0 00.02.037l.021.027c.006.006.035.007.035.007v.007s-.032-.001-.04-.01a.291.291 0 01-.021-.027.128.128 0 01-.021-.04l.006-.001" id="Fill-7369" fill="#000" mask="url(#mask-2)"/><path d="M7.324 7.419a.04.04 0 00.013.013.11.11 0 00.02.007c.009.002.016-.001.023-.005a.04.04 0 01.017-.004.04.04 0 01.022.007c.007.004.014.01.021.019l.034.048a.206.206 0 01.017.033l.001.006c.001.004.003.007.002.01 0 .008-.007.013-.033.011-.027 0-.043-.011-.057-.02a.08.08 0 00-.021-.011.145.145 0 01-.028-.011.072.072 0 01-.017-.013.148.148 0 00-.052-.03l.001-.007a.104.104 0 01.027.011.187.187 0 01.028.021c.004.005.01.009.016.012a.107.107 0 00.026.01.11.11 0 01.023.013c.013.008.029.018.054.02.021 0 .027-.002.027-.006a.02.02 0 00-.002-.008l-.002-.006a.5.5 0 00-.05-.08.09.09 0 00-.018-.017.048.048 0 00-.02-.006.035.035 0 00-.013.004c-.008.004-.017.008-.027.005a.095.095 0 01-.022-.008.06.06 0 01-.016-.014l.006-.004" id="Fill-7370" fill="#000" mask="url(#mask-2)"/><path d="M7.254 7.523v.002l.003.006a.02.02 0 00.008.004.022.022 0 00.014 0 .476.476 0 00.058-.033l.004.005s-.04.026-.06.034a.029.029 0 01-.02 0 .022.022 0 01-.009-.006.016.016 0 01-.004-.009c-.001-.002 0-.005.001-.007l.005.004" id="Fill-7371" fill="#000" mask="url(#mask-2)"/><path d="M7.29 7.216c0-.006 0-.008-.002-.01a.016.016 0 01-.003-.011c.002-.005.003-.006.006-.008a.046.046 0 00.013-.014c.006-.009.006-.022.007-.036 0-.015.002-.03.009-.04.007-.006.023-.01.038-.011.02-.002.04.001.047.006l-.004.005c-.005-.004-.024-.006-.042-.005-.014 0-.028.004-.034.01-.006.007-.007.021-.007.036-.002.014-.002.028-.008.038a.053.053 0 01-.015.017c-.002 0-.002.001-.003.003l.001.006a.023.023 0 01.005.014H7.29" id="Fill-7372" fill="#000" mask="url(#mask-2)"/><path d="M6.904 7.03c0 .006 0 .018.002.03a.12.12 0 00.007.024l-.006.003a.169.169 0 01-.01-.058h.007" id="Fill-7373" fill="#000" mask="url(#mask-2)"/><path d="M7.393 6.431l-.001.003a.079.079 0 00-.008.048c0 .015 0 .032.003.046a.076.076 0 00.017.038c.017.02.03.022.03.022v.006s-.016-.002-.035-.023a.083.083 0 01-.018-.042l-.004-.047c-.001-.028.005-.04.01-.05v-.005l.006.004" id="Fill-7374" fill="#000" mask="url(#mask-2)"/><path d="M7.994 7.118c.01 0 .025 0 .039-.003a.055.055 0 00.025-.013l.005.004a.058.058 0 01-.03.015.115.115 0 01-.04.002v-.005" id="Fill-7375" fill="#000" mask="url(#mask-2)"/><path d="M8.177 7.12a.16.16 0 01-.011.075L8.16 7.19a.084.084 0 00.01-.032.14.14 0 00.001-.037l.006-.002" id="Fill-7376" fill="#000" mask="url(#mask-2)"/><path d="M6.162 7.316l-.001-.012v-.009l.003-.006a.01.01 0 01.005-.004.108.108 0 01.01-.003l.017-.004.028-.006.036-.01.038-.007.029-.007.02-.004a.056.056 0 01.01-.001c.003 0 .005 0 .007.002a.018.018 0 01.005.006.12.12 0 01.006.016h.005l.001-.001c0-.007-.003-.013-.005-.02l-.006-.023-.006-.026a.147.147 0 00-.004-.02h-.006c.002.006.002.01.002.013v.009c0 .003 0 .005-.002.008 0 .002-.002.003-.005.005a.283.283 0 01-.026.007.127.127 0 01-.02.005.263.263 0 00-.02.005.1.1 0 00-.018.004h-.002v-.001a.044.044 0 01-.003-.008l-.002-.013a.126.126 0 01-.004-.015l-.003-.015-.002-.01.001-.01.007-.006a.04.04 0 01.006-.003l.009-.004v-.002l-.002-.002v-.002a.476.476 0 00-.014.004l-.017.004-.013.003-.012.001-.01.001v.005l.002.001h.008l.01.001.004.002.005.005a.025.025 0 01.004.01l.002.009.003.013a.076.076 0 01.004.013l.003.012.001.008v.003l-.018.003-.02.005-.02.004a.672.672 0 01-.035.007l-.003-.003-.002-.008-.003-.012-.003-.015-.003-.014-.002-.01a.02.02 0 010-.01.014.014 0 01.007-.007c.002-.003.005-.004.01-.006l.016-.007V7.16l-.002-.001-.02.002-.018.003H6.12v.002c0 .002.002.003.002.007a.121.121 0 01.007.024l.02.079.004.026a.208.208 0 01.003.015h.005v-.001zm.182-.464c0-.013 0-.025-.003-.037a.112.112 0 00-.071-.082.153.153 0 00-.04-.01.122.122 0 00-.037.002.111.111 0 00-.033.01.106.106 0 00-.047.05.162.162 0 00-.01.04v.029a.13.13 0 00.009.028.115.115 0 00.032.046.123.123 0 00.067.026h.031a.125.125 0 00.06-.024.11.11 0 00.034-.047.175.175 0 00.008-.031zm-.01-.015a.086.086 0 01-.042.066l-.027.012a.15.15 0 01-.06.006.194.194 0 01-.036-.007.1.1 0 01-.03-.016.068.068 0 01-.02-.024.077.077 0 01-.006-.017.076.076 0 010-.02.08.08 0 01.02-.048.098.098 0 01.022-.017.128.128 0 01.026-.012l.028-.005h.03a.21.21 0 01.033.006l.029.013a.076.076 0 01.021.02.05.05 0 01.01.02.087.087 0 01.001.023zm-.157-.336l.005-.008a.05.05 0 01.005-.007c.002-.003.005-.006.009-.006.003 0 .007 0 .011.003l.012.004.017.008.019.008c.006.003.013.006.018.01l.016.006.012.006.015.007a.18.18 0 01.016.008l.015.006.012.007.008.004a.026.026 0 01.01.006.009.009 0 01.003.005l.001.007c0 .002 0 .005-.002.007l-.003.01.001.002h.004l.006-.012c.003-.007.006-.016.012-.027a.26.26 0 01.008-.016l.007-.014a.087.087 0 00.004-.01v-.001h-.003l-.002-.001a.183.183 0 01-.005.008c-.002.003-.005.005-.006.008l-.005.004H6.39l-.01-.004a.06.06 0 01-.014-.006l-.018-.007-.019-.01-.016-.006-.002-.002v-.001l.002-.004.003-.007.003-.006.002-.004c0-.002.001-.003.003-.004a.167.167 0 01.024-.004l.02-.003a.237.237 0 01.022-.003l.02-.003.015-.004a.032.032 0 00.012-.004.042.042 0 00.008-.005.072.072 0 00.015-.022c.004-.004.006-.009.008-.013l.005-.012v-.002H6.47l-.001-.002a.087.087 0 00-.006.01l-.007.007-.009.005a.266.266 0 00-.013.006l-.018.005-.023.005a.715.715 0 00-.024.004l-.023.004a.23.23 0 00-.018.001h-.001c0-.006 0-.012-.002-.019a.139.139 0 00-.005-.018.061.061 0 00-.011-.016.051.051 0 00-.018-.012.057.057 0 00-.021-.005.05.05 0 00-.022.003.053.053 0 00-.018.013.088.088 0 00-.016.023l-.007.016-.008.017-.01.02a.082.082 0 00-.003.008l-.005.01a.031.031 0 00-.005.009l-.003.007v.001l.003.001h.001zm.034-.064a.071.071 0 01.02-.027.049.049 0 01.026-.01c.01 0 .019.002.03.007l.016.01a.034.034 0 01.01.013c.003.003.003.007.005.01v.011l-.002.01a.049.049 0 01-.004.01l-.006.011-.005.01h-.003l-.02-.009-.022-.01-.02-.01-.016-.007-.01-.006-.003-.002.002-.006.002-.005zm.603-.413a.013.013 0 01-.006.002l-.004-.001-.003-.004a.27.27 0 01-.013-.015l-.007-.009-.006-.009a.082.082 0 01-.006-.01.012.012 0 01-.002-.005l.002-.006.003-.005.005-.005v-.002l-.002-.002h-.002a.037.037 0 00-.006.006l-.008.006-.013.01-.02.015a.42.42 0 00-.018.015l.002.001.002.001a.015.015 0 00.006-.004l.005-.002.005-.003.009-.003c.001 0 .004 0 .006.002a.036.036 0 01.009.008.062.062 0 01.01.01.294.294 0 00.008.013.08.08 0 01.008.01l.005.011c0 .003 0 .006-.002.01-.002 0-.003.003-.005.005l-.006.007a.107.107 0 01-.047.027.102.102 0 01-.04 0 .131.131 0 01-.071-.05.151.151 0 01-.028-.051.078.078 0 01.031-.088.158.158 0 01.025-.015.068.068 0 01.022-.007.017.017 0 01.012 0 .033.033 0 01.013.007.16.16 0 01.016.015h.003l.001-.003.001-.002a.125.125 0 00-.008-.012.223.223 0 00-.009-.013l-.007-.012-.005-.009-.017.01-.02.011a.232.232 0 00-.058.05l-.012.02a.1.1 0 00-.008.082.122.122 0 00.022.04.138.138 0 00.054.044c.02.008.038.01.06.005a.163.163 0 00.063-.033l.018-.015.015-.018a.13.13 0 00.013-.015l.007-.01v-.001l-.002-.002v-.002zm.115-.064v.004l.002.002.013-.006a.358.358 0 01.036-.011l.014-.004.011-.003v-.005l-.001-.001-.01.001h-.016c-.001-.001-.003-.002-.003-.004l-.003-.006V5.87l.001-.015.001-.002.001-.001a.01.01 0 01.004-.002l.005-.001.008-.003.013-.004a.111.111 0 01.016-.005l.01-.004.005-.001h.003l.012.016a.178.178 0 00.013.017l.012.017.01.013.002.005c0 .002-.002.004-.004.006l-.007.005a.067.067 0 00-.009.004v.004l.002.001c.003 0 .006-.002.011-.004.005 0 .01-.003.015-.005l.016-.005.01-.003.01-.003.01-.003c.005 0 .007-.002.01-.003v-.001l-.001-.003-.001-.001a.054.054 0 01-.015.001h-.01a.036.036 0 01-.008-.005l-.01-.012-.012-.014-.016-.023-.02-.026-.021-.028-.019-.026a.288.288 0 01-.015-.02l-.01-.013-.01-.015-.002.002-.007.002-.006.002-.004.001.001.008v.029l-.002.027v.035l-.002.036-.002.036c0 .011 0 .022-.002.03l-.002.018a.028.028 0 01-.013.019.067.067 0 01-.014.007zm.048-.213l.052.071v.002l-.006.003-.009.003-.009.003a.201.201 0 00-.02.006l-.009.002h-.001v-.09h.002z" id="Fill-7377" fill="#000" mask="url(#mask-2)"/><path d="M7.252 5.65h.012l.006.002c.004 0 .007.002.009.003a.02.02 0 01.004.007.139.139 0 01.003.028l.002.024.002.036.003.043c0 .011 0 .021.002.029a.252.252 0 01.001.03v.017a.016.016 0 01-.005.005l-.006.004-.008.002c-.004 0-.007 0-.012.002v.006h.013a.06.06 0 01.017-.003l.016-.002h.013l.018-.001a.336.336 0 01.02-.002h.02l.018-.002h.014c.004 0 .008-.002.01-.003a.01.01 0 00.004-.003c.002-.002.002-.006.004-.01l.003-.012a.138.138 0 00.003-.015.073.073 0 00.003-.013V5.81h-.005a.201.201 0 01-.014.034l-.006.01a.037.037 0 01-.01.01.022.022 0 01-.01.003.07.07 0 00-.011.002l-.015.001h-.028l-.009-.001a.008.008 0 01-.004-.003.03.03 0 01-.003-.008l-.001-.019-.002-.025-.002-.03-.002-.028v-.02l-.003-.022v-.02l-.001-.016v-.011a.03.03 0 010-.008l.001-.006a.013.013 0 01.007-.004l.004-.001.004-.002.007-.001v-.007l-.017.003-.025.002-.02.002h-.024v.007zm.375.01h.005c.002.002.004.002.007.003l.005.003.007.005c0 .002.002.005.001.008a.08.08 0 01-.001.013l-.003.015a.994.994 0 00-.005.024l-.008.035-.01.041-.005.028-.005.018-.002.012-.002.007a.036.036 0 01-.004.008.018.018 0 01-.005.005.026.026 0 01-.007 0h-.008l-.011-.001h-.001v.006l.012.003.016.003.016.004.012.003.018.004a.202.202 0 00.019.005l.02.006.018.004.013.004.01.001a.022.022 0 00.006-.002.106.106 0 01.005-.008c.002-.003.005-.007.006-.011a.266.266 0 00.014-.026l.004-.01h-.002l-.001-.002-.002-.001-.011.015-.011.013a.035.035 0 01-.01.008.03.03 0 01-.011.007h-.011a.106.106 0 00-.011-.003l-.015-.003-.015-.004-.012-.004c-.003-.002-.006-.002-.007-.004a.007.007 0 01-.004-.005V5.88l.003-.019.005-.025.007-.029.006-.027.004-.02.005-.021.005-.02c0-.006.002-.011.003-.016l.002-.01c0-.003.002-.006.003-.008 0-.002.002-.004.004-.005 0-.002.004-.002.007-.002h.017v-.005l-.016-.003-.025-.006-.02-.005-.012-.004c-.004 0-.008-.002-.01-.003v.001l-.002.004v.002zm.227.307l-.002.002-.001.003v.002a.09.09 0 01.012.006.16.16 0 01.02.01l.012.01a.217.217 0 00.022.014h.002l.001-.003.001-.002-.007-.006a.018.018 0 01-.005-.005.015.015 0 01-.006-.007v-.007l.004-.006.005-.007.011-.01a.144.144 0 01.013-.012l.013-.012a.563.563 0 01.013-.011h.005c0 .002.003.003.005.004l.007.004.012.008.015.008.008.005.005.003.001.001.001.003-.003.02-.004.021-.004.023-.004.016c0 .003 0 .005-.002.006l-.006.002c-.003 0-.005-.002-.008-.003l-.01-.003-.001.001-.001.003v.001l.01.006a.172.172 0 01.014.008l.014.008.01.005.009.006a.05.05 0 01.01.006l.007.005.002-.001.001-.002v-.002a.122.122 0 01-.01-.01c-.004-.003-.006-.005-.007-.009l-.002-.01a.238.238 0 01.004-.036l.005-.028.006-.036.007-.035c.001-.012.004-.023.006-.034l.004-.026.003-.018.004-.017-.003-.002-.006-.003a.025.025 0 00-.005-.003.01.01 0 00-.004-.002.062.062 0 01-.005.006l-.008.008-.013.012a.333.333 0 00-.022.02l-.026.024-.027.025-.028.025-.024.02a.088.088 0 01-.015.011.021.021 0 01-.01.005.024.024 0 01-.012 0l-.014-.007zm.19-.117l-.018.092h-.001v.002l-.006-.003-.009-.005a.03.03 0 00-.008-.005l-.018-.01a.033.033 0 00-.009-.005v-.004a.031.031 0 00.01-.01L8 5.888l.016-.015.015-.014.01-.01h.002zm.268.162a.051.051 0 01.006.01.02.02 0 01.004.01c.002.003.002.007.002.01s0 .005-.002.008l-.002.007-.004.004c-.012.011-.024.021-.034.032l-.032.027-.027.024-.02.018-.013.01a.037.037 0 01-.013.008c-.002.002-.006.002-.008.002a.044.044 0 01-.007-.004.027.027 0 01-.006-.005l-.007-.006h-.002l-.002.002v.002a.304.304 0 00.01.011c.004.005.01.011.015.019.005.004.008.01.011.013l.01.012a.03.03 0 00.006.009H8.2l.002-.002V6.23l-.005-.008a.034.034 0 01-.005-.009.025.025 0 01-.002-.008c0-.003 0-.006.002-.01a.05.05 0 01.01-.01c.002-.003.004-.006.009-.01.004-.004.009-.01.015-.014l.018-.017.02-.02.02-.018a.217.217 0 01.02-.017.237.237 0 01.014-.013l.001.001-.003.017c0 .009-.003.018-.005.029l-.006.037-.007.04-.007.042-.007.037-.006.03-.004.02.004.005a.194.194 0 01.006.006l.004.006.01-.01.014-.013.013-.012.024-.022.027-.024.026-.023.022-.02.018-.016.007-.005a.023.023 0 01.008-.002l.009.003.005.004.006.006h.002l.002-.003c0-.002-.002-.004-.003-.005l-.007-.007-.007-.008a.102.102 0 01-.006-.008l-.016-.02-.012-.016-.001.001-.002.001-.001.002.007.011.005.01.002.01-.003.007-.006.008-.012.012-.018.017-.022.02-.023.022-.023.022-.021.019-.002-.001.003-.021a.616.616 0 00.006-.035l.007-.044.008-.046.007-.044.007-.038a.187.187 0 01.006-.025l-.005-.005-.007-.008a.104.104 0 01-.01-.012l-.008-.011-.006-.009-.002.001-.002.001v.002zm.122.623l-.002-.008v-.005a.013.013 0 01-.002-.006.01.01 0 010-.006l.002-.005a.015.015 0 01.006-.005l.011-.007.013-.006.02-.008.025-.012.028-.012.03-.013.028-.012.024-.01h.003l.003.008.005.01c0 .004.002.01.004.013l.005.014c0 .004.003.006.004.01a.015.015 0 010 .01c0 .003-.002.006-.005.009a.052.052 0 00-.007.006l-.01.005-.009.006v.002l.001.003.001.002a.082.082 0 01.015-.005l.016-.006.013-.002a.043.043 0 01.011-.003v-.001l-.007-.01a.1.1 0 00-.005-.01l-.005-.01-.05-.136-.004-.01a.04.04 0 01-.002-.012v-.009l-.001-.001h-.001l-.012.004-.015.004-.015.004-.013.004v.004l.001.002h.025l.01.001c.004 0 .007.001.01.004.002 0 .004.003.005.007l.003.007.005.011.005.014a.137.137 0 01.004.012l.003.006v.002l-.001.002a1.467 1.467 0 00-.066.028l-.034.014-.03.013-.025.01-.013.005a.064.064 0 01-.014.004.013.013 0 01-.01 0c-.002 0-.004-.003-.006-.006l-.005-.009a.144.144 0 01-.007-.013h-.003s-.002 0-.003.002l.01.021.011.03.006.017a.08.08 0 00.006.016l.005.014h.004l.001-.002z" id="Fill-7378" fill="#000" mask="url(#mask-2)"/><path d="M9.397 6.743v.015c-.002.005-.002.01-.002.013-.001.007-.008.013-.018.016a.146.146 0 01-.042.007c-.011 0-.029 0-.047.002l-.069.004c-.027 0-.051.001-.079.003l-.078.002a.812.812 0 01-.065.003 2.483 2.483 0 01-.238.008l-.052.002-.032.001a.299.299 0 01-.068-.005.023.023 0 01-.015-.011.025.025 0 01-.008-.012l-.009-.016a.012.012 0 00-.006-.002H8.56c-.003 0-.005.002-.007.003.002.004.006.011.01.024 0 .01.006.027.008.048a.08.08 0 01.006.03c.002.01.004.018.004.026s0 .013.002.017l.005.001h.011s.005 0 .005-.002a.042.042 0 00.004-.017l.004-.015c0-.004.003-.007.008-.009.003-.003.01-.005.02-.007l.044-.003a.48.48 0 01.056-.002l.074-.005.078-.003c.024 0 .048 0 .068-.002h.004l.004.002.003.008c0 .005.003.008.003.012l.001.01.001.009c.002.003 0 .005-.002.007a.034.034 0 01-.017.009l-.05.018a3.585 3.585 0 00-.066.021l-.065.022-.058.021c-.017.007-.034.013-.043.019a.095.095 0 00-.027.015.048.048 0 00-.028.034c-.002.009-.002.017-.002.026 0 .008 0 .017.002.025l.005.022h.023c0-.007 0-.012.002-.018 0-.006.002-.01.006-.015a.091.091 0 01.022-.015.156.156 0 01.032-.02l.049-.023c.017-.008.04-.016.063-.025a2.23 2.23 0 01.14-.05c.02-.008.041-.013.054-.019h.009c.01.01.022.017.037.026a.338.338 0 00.117.035.449.449 0 00.224-.029.105.105 0 00.041-.035.07.07 0 00.005-.047l-.005-.029c-.001-.01-.006-.02-.01-.031a.117.117 0 00-.008-.035l-.001-.016c-.002-.006-.002-.012-.002-.018-.002-.005-.002-.012-.002-.017l-.002-.013-.005-.002h-.011l-.006.002zm.012.12a.06.06 0 01-.014.056.153.153 0 01-.067.035.466.466 0 01-.109.014.547.547 0 01-.129-.009.218.218 0 01-.037-.013.134.134 0 01-.022-.014l-.01-.015c-.002-.006-.005-.013-.005-.02a.069.069 0 01-.004-.02c-.002-.007-.002-.015-.002-.02l.004-.001.005-.002.086-.003.087-.003c.03 0 .06-.003.083-.003l.067-.002.04-.001h.012l.005.003.008.008a.028.028 0 01.002.01zm-.002.524c-.004.006-.01.01-.012.014-.003.004-.008.008-.01.012l-.015.01a.083.083 0 01-.023.008c-.009.003-.021.004-.04.008a2.919 2.919 0 01-.218.028l-.08.01a1.35 1.35 0 00-.073.007l-.055.005c-.006.002-.016.002-.023.002l-.024-.002-.022-.002-.198-.021a.286.286 0 01-.063-.014c-.006-.003-.01-.008-.01-.015l.002-.016a.096.096 0 01.008-.019l-.008-.001-.007-.001H8.53c-.006.009-.01.02-.015.032-.004.013-.012.026-.02.043l-.017.03-.017.028-.011.018c0 .001.001.002.003.002s.007 0 .01.002h.005l.01-.012c.004-.003.005-.006.007-.008a.072.072 0 01.01-.007.05.05 0 01.021-.012.498.498 0 01.082 0l.22.02.015.003.016.002.012.005.043.015.06.024.07.028c.026.01.05.018.071.028.02.01.04.018.058.024l.032.015.021.014a.029.029 0 01.008.019l-.001.026h.005c.003.002.006.002.01.002h.004l.01-.02.007-.02a.075.075 0 00.01-.02l.013-.021c.005-.008.007-.015.013-.022a.132.132 0 01.01-.018c0-.002-.001-.002-.003-.002l-.009-.002h-.006l-.011.011-.007.007c-.002.003-.003.004-.008.007a.042.042 0 01-.03.013.107.107 0 01-.04-.005l-.048-.018-.063-.022a1.146 1.146 0 01-.065-.026c-.023-.008-.042-.017-.062-.025a1.611 1.611 0 01-.049-.02l.001-.002.04-.006.064-.007.079-.01.077-.008a2.652 2.652 0 01.16-.014c.009.002.01.005.01.01v.02l.006.003h.01l.004-.001c.003-.002.003-.006.006-.01a.09.09 0 00.005-.015l.008-.017.01-.017.024-.042.017-.031c-.001-.002-.005-.002-.008-.003h-.01z" id="Fill-7379" fill="#000" mask="url(#mask-2)"/><path d="M7.412 5.591c.747 0 1.353.602 1.353 1.343 0 .742-.606 1.342-1.353 1.342-.748 0-1.353-.6-1.353-1.342 0-.741.605-1.343 1.353-1.343z" id="Stroke-7380" stroke="#96877D" stroke-width=".091" mask="url(#mask-2)"/><path d="M7.412 5.91c.57 0 1.03.459 1.03 1.024s-.46 1.023-1.03 1.023c-.57 0-1.032-.458-1.032-1.023s.462-1.023 1.032-1.023z" id="Stroke-7381" stroke="#96877D" stroke-width=".091" mask="url(#mask-2)"/><path d="M7.412 8c.02 0 .038.058.038.128v.223h.11c.022 0 .04.056.04.127 0 .069-.018.128-.04.128h-.11v.222c0 .07-.017.127-.038.127-.022 0-.04-.057-.04-.127v-.222h-.11c-.02 0-.038-.06-.038-.128 0-.07.017-.127.038-.127h.11v-.223c0-.07.018-.128.04-.128zm.516-.045c.034 0 .062.09.062.203 0 .112-.028.202-.062.202-.035 0-.062-.09-.062-.202 0-.112.027-.203.062-.203zm-1.033 0c.034 0 .062.09.062.203 0 .112-.028.202-.062.202s-.062-.09-.062-.202c0-.112.028-.203.062-.203z" id="Fill-7382" fill="#000" mask="url(#mask-2)"/><path d="M8.782 5.57c.154.149.186.362.074.475-.113.112-.328.082-.48-.068-.153-.15-.186-.363-.074-.476.112-.113.328-.083.48.068" id="Fill-7383" fill="#96877D" mask="url(#mask-2)"/><path d="M8.782 5.57l-.151.267.323-.127.123.081-.565.223-.177.07.085-.149.258-.455.104.09zm.553.445l-.563.465-.094-.083.562-.465.095.083z" id="Fill-7384" fill="#CCC" mask="url(#mask-2)"/><path d="M6.044 5.564c.151-.151.366-.183.48-.072.113.112.082.325-.069.476-.151.152-.366.185-.48.073-.113-.111-.082-.325.069-.477" id="Fill-7385" fill="#96877D" mask="url(#mask-2)"/><path d="M6.045 6.072l.267.15-.128-.322.083-.123.222.565.069.176-.149-.084-.454-.258.09-.104zm.445-.554l.465.563-.084.096-.464-.563.083-.096z" id="Fill-7386" fill="#CCC" mask="url(#mask-2)"/><path d="M6.044 8.295c-.153-.15-.186-.363-.073-.476.112-.113.327-.082.48.068.152.15.186.363.073.476-.113.112-.328.082-.48-.068" id="Fill-7387" fill="#96877D" mask="url(#mask-2)"/><path d="M6.55 8.714l.151-.266-.323.126-.12-.082.562-.222.177-.07-.085.15-.256.454-.105-.09zm-.553-.445l.563-.465.096.084-.564.465-.095-.084z" id="Fill-7388" fill="#CCC" mask="url(#mask-2)"/><path d="M8.78 8.293c-.15.152-.366.184-.48.072-.113-.111-.082-.324.069-.476.152-.152.366-.184.48-.072.113.111.083.324-.069.476" id="Fill-7389" fill="#96877D" mask="url(#mask-2)"/><path d="M9.196 8.296l-.266-.151.127.323-.083.122-.221-.563-.07-.178.149.085.454.258-.09.104zm-.445.553l-.465-.561.083-.097.465.563-.083.095z" id="Fill-7390" fill="#CCC" mask="url(#mask-2)"/></g></g></svg>