<svg width="24" height="24" xmlns="http://www.w3.org/2000/svg" xmlns:xlink="http://www.w3.org/1999/xlink"><defs><path d="M23.87 11.964c0 6.605-5.313 11.959-11.866 11.959C5.45 23.923.137 18.569.137 11.964.137 5.359 5.45.005 12.004.005c6.553 0 11.865 5.354 11.865 11.959z" id="path-1"/></defs><g id="Page-1" stroke="none" stroke-width="1" fill="none" fill-rule="evenodd"><g id="Черногория"><mask id="mask-2" fill="#fff"><use xlink:href="#path-1"/></mask><path id="Fill-7882" fill="#D4AF3A" mask="url(#mask-2)" d="M-5.834 23.923H29.84V.005H-5.834z"/><path id="Fill-7884" fill="#C20B18" mask="url(#mask-2)" d="M-4.647 22.726h33.313V1.201H-4.647z"/><path d="M9.499 7.675s.047-.25.381-.264c.334-.013.505.148.583.172.07.023.392.006.587-.152a.654.654 0 01-.038-.107c-.02-.079-.021-.068-.085-.096-.062-.028-.08-.021-.08-.067s-.015-.04.04-.092c.055-.053.052-.131-.003-.177-.054-.046-.171-.104-.204-.126-.034-.022-.094.004-.137-.013-.042-.017-.031-.032-.076-.055-.046-.022-.084-.05-.1-.118-.014-.07.015-.1.033-.136.019-.035-.005-.042-.027-.07-.02-.029-.038-.061-.032-.093.006-.033.006-.044.006-.044s-.077-.059-.053-.145c.024-.087.114-.088.114-.088s.002-.096.106-.206c0 0-.033-.088.03-.142.062-.054.145-.038.145-.038s.104-.084.238-.146c0 0-.01-.067.055-.099a.125.125 0 01.12.004s.14-.057.353-.08c0 0 .203-.117.38-.135-.131-.193-.059-.43.169-.49v-.086s-.113.028-.128.014a.677.677 0 01-.021-.18c0-.025.027-.026.051-.024l.09.007s-.02-.092-.02-.12c0-.028.026-.025.044-.025h.173c.019 0 .045-.003.045.025s-.02.12-.02.12l.089-.007c.024-.002.05-.001.051.024a.655.655 0 01-.02.18c-.016.014-.128-.014-.128-.014v.085c.227.061.3.298.169.49.177.02.38.137.38.137.213.022.353.079.353.079s.055-.036.12-.004c.064.032.055.1.055.1.133.06.238.145.238.145s.082-.016.145.038c.063.054.03.142.03.142.104.11.106.206.106.206s.09 0 .114.088c.024.086-.054.145-.054.145l.006.043c.006.033-.01.065-.032.093-.021.03-.045.036-.027.071.019.036.047.067.033.136-.015.069-.054.096-.099.118-.045.023-.034.038-.077.055-.042.017-.103-.01-.136.013-.033.022-.15.08-.205.126-.054.045-.057.124-.002.177.054.051.04.046.04.092s-.018.039-.081.067c-.063.028-.064.017-.084.096a.67.67 0 01-.043.117c.196.149.506.165.575.142.078-.024.248-.185.582-.172.335.013.381.264.381.264s.312-.092.469.03c.158.122.152.354.136.447-.017.093-.06.124-.086.076-.027-.047-.06-.137-.251-.151-.192-.016-.377.217-.377.217.147-.046.387-.052.55.001.164.052.24.082.394 0 .154-.079.145-.245.149-.297.003-.05.032-.061.068-.021.035.04.073.093.092.224.018.13-.043.364-.337.433-.295.07-.663-.09-.663-.09-.4.536-.837.272-.837.272-.138.13-.154.325-.173.423-.019.098-.217-.077-.217-.077s-.005.003-.016.226c-.012.222.069.325.052.374-.016.048-.195 0-.195 0a.601.601 0 00.155.423l.102-.045.712.848c-.26.36-.241.892-.24.962a.237.237 0 00.153-.06c.114-.101.088-.18.192-.238.105-.058.262-.02.363-.03.1-.008.273-.027.314-.175.042-.147-.015-.192-.133-.298-.119-.106-.297-.205-.334-.359a.653.653 0 01.103-.543c.135-.19.265-.295.435-.527a3.55 3.55 0 00.323-.54c.025-.057.056-.128.09-.07.034.06.092.196.092.196s.123-.142.18-.22c.058-.08.158-.262.271-.49.113-.228.225-.655.246-.767.02-.112.097-.012.097-.012s.142-.534.15-.666c.007-.132.077-.944.077-1.016 0-.072.004-.093.036-.052.031.042.12.148.227.412.107.263.133.77.116 1.018a4.18 4.18 0 01-.126.762c-.047.138-.014.138.015.09.03-.05.025-.046.108-.24.084-.194.19-.646.221-.848.031-.202.05-.565.05-.627-.001-.06-.015-.125.083.034.099.159.175.449.192.781.017.332-.1 1.01-.149 1.17a8.112 8.112 0 01-.239.647c-.038.077.01.025.044-.017.034-.042.067-.102.115-.168.047-.066.2-.369.246-.492a16.9 16.9 0 00.23-.69c.035-.125.024-.451.146-.177.122.275.088.539.062.81-.026.27-.165.612-.234.731-.068.12-.306.486-.35.54-.045.052-.03.074.024.028.053-.045.054-.059.167-.171a3.02 3.02 0 00.344-.45c.053-.094.248-.443.273-.506.024-.064.072-.078.075.023.002.1.018.308-.098.681-.117.374-.378.672-.443.746a5.11 5.11 0 01-.445.385c-.06.04-.1.084.012.03.111-.055.487-.321.563-.39.076-.067.187-.184.25-.25.061-.068.208-.218.233-.249.025-.03.08-.026.053.14-.028.168-.032.248-.161.477-.129.229-.295.39-.409.476a4.25 4.25 0 01-.486.27c-.047.021-.044.025.019.01.061-.016.032-.012.22-.069.19-.057.353-.154.422-.205.07-.052.322-.234.366-.268.045-.034.091-.068.088-.023-.002.046.028.19-.161.461-.19.27-.503.44-.642.52-.14.08-.542.218-.641.25-.1.031.012.033.159 0a3.125 3.125 0 001.033-.422c.042-.03.084-.055.078-.008-.007.048.01.11-.082.313-.093.201-.316.414-.613.509-.297.095-.55.123-.64.133-.09.01-.033.034.062.033.095-.003.338-.012.5-.043.162-.031.308-.077.375-.107.068-.031.059.02.049.053-.01.032-.04.119-.068.185-.026.066-.1.273-.408.375a3.204 3.204 0 01-.717.134c-.054.003.015.018.064.023.049.005.194.008.319-.003a4.27 4.27 0 00.35-.056c.029-.007.056.06-.014.214-.07.155-.23.257-.393.324-.164.068-.45.05-.52.036-.07-.016-.07-.014.014.025.084.04.213.075.295.087.083.01.084.016.085.034.001.018.02.18-.24.298-.259.12-.55.059-.658.041-.107-.017-.136-.001-.052.034.085.036.198.081.306.095.107.012.079.04.047.071-.031.032-.083.114-.297.192-.214.078-.56.05-.65.02-.09-.028-.034.038.036.09.07.051.087.094.036.134-.051.04-.252.091-.516.08-.264-.012-.434-.22-.484-.274-.05-.055-.066-.03-.037.01.028.042.05.068.092.127.042.06.11.177.045.193-.064.015-.21.056-.348-.003-.113-.048-.227-.23-.264-.295l-.022.03c.028.082.069.2.138.295.085.116.25.242.386.308.137.067.292.103.395.11.102.01.032.098 0 .136-.03.04-.06.07.008.101.068.03.292.085.413.108.122.023.021.09-.057.145-.079.055-.086.078-.042.121a.854.854 0 00.252.137c.074.028-.012.08-.138.105a.381.381 0 00.06.065c.06.056.44.341.516.392.076.051.12 0 .08-.073-.042-.073-.077-.161-.13-.232-.053-.07-.122-.137-.114-.266a.309.309 0 01.125-.236c.053-.045.031-.057.037-.117.007-.06.026-.091.076-.134.05-.043.099-.06.124-.103.025-.045.062-.15.239-.308a.863.863 0 01.49-.185c.055-.001.156.009.182-.024.025-.032.042-.068.071-.12.03-.053-.055-.043-.118-.04-.064.003-.056-.029-.047-.067.008-.037.043-.14.058-.2.015-.06.041-.073.061-.057l.08.054c.028.02.058.018.057-.011-.002-.03 0-.052-.003-.104-.002-.051.022-.084.057-.076.036.008.157.043.21.062.053.02.078.033.06.06-.017.025-.032.057-.061.102-.03.045.054.045.097.048.042.002.069.018.057.06-.011.04-.054.178-.081.227-.028.05-.095.002-.12-.02-.027-.02-.05-.016-.051.01v.145c0 .051.028.04.05.055.022.015.014.035.048.055.033.02.163.096.273.245.11.148.13.357.128.454-.003.097.001.096.026.14.025.045.046.078.046.177 0 .099.035.1.063.146.027.046.023.189-.032.272-.056.084-.285.194-.386.239-.101.045-.666.25-.825.3-.16.05-.482.173-.667.148-.184-.024-.285-.118-.385-.209-.1-.091-.201-.14-.404-.216a7.935 7.935 0 00-.47-.152c-.038.247-.13.133-.317-.018-.2-.16-.526-.311-.526-.311s-.05.077-.122.167c-.072.09-.148-.056-.219-.153-.07-.097-.371-.52-.486-.64-.086-.089-.257-.253-.376-.369a2.046 2.046 0 00-.07.04.4.4 0 00.034.096c.063.123.088.2.137.262.05.06.232.228.303.41.07.184.084.423-.03.492 0 0 .248.185.251.558 0 0 .065.142.118.209.054.067.187.145.326.275.137.13.278.168.328.209.052.04.058.1.003.168a.51.51 0 01-.334.145c-.126.001-.204-.003-.137.069a.427.427 0 01.099.307c-.009.115-.095.108-.167.103a1.297 1.297 0 01-.286-.072c-.05-.02-.039-.006-.027.044.012.05.037.199-.002.29-.04.09-.153.005-.208-.024-.054-.03-.193-.06-.226-.068a.16.16 0 01-.071-.036c-.023-.02-.03-.01-.02.014.01.024.037.154.016.267a.608.608 0 01-.17.285c-.066.07-.118-.055-.158-.117a.805.805 0 00-.138-.142s-.07.378-.288.62a.91.91 0 01-.112.1.827.827 0 01-.114-.102c-.217-.241-.288-.617-.288-.617s-.097.078-.136.14c-.04.063-.093.188-.16.118a.613.613 0 01-.17-.285.626.626 0 01.017-.267c.01-.023.003-.034-.02-.014a.156.156 0 01-.071.036c-.033.008-.171.039-.226.068-.055.029-.168.114-.208.023-.04-.09-.014-.239-.002-.289.012-.05.022-.065-.027-.044a1.258 1.258 0 01-.286.072c-.072.005-.158.012-.167-.103a.426.426 0 01.099-.307c.068-.072-.011-.068-.137-.07a.51.51 0 01-.334-.144c-.055-.068-.048-.128.003-.168.05-.04.19-.08.329-.209.138-.13.27-.208.325-.275.054-.067.118-.21.118-.21.004-.372.252-.557.252-.557-.115-.069-.102-.308-.03-.491.071-.183.253-.35.302-.411.049-.061.074-.14.137-.262a.405.405 0 00.035-.097 1.465 1.465 0 00-.07-.038c-.12.116-.29.28-.376.368-.114.12-.416.543-.486.64-.07.097-.147.242-.22.153-.071-.09-.12-.167-.12-.167s-.326.15-.526.311c-.2.16-.291.28-.325-.035v-.002a1.141 1.141 0 00-.169.075 2.283 2.283 0 00-.338.245c-.073.073-.196.18-.249.245-.052.066-.081.174-.148.244-.066.07-.15.151-.147.2.002.05-.01.061-.048.103-.038.042-.022.064.009.1.03.034.085.074.165.12.079.047.23.088.213.132-.017.045-.081.076-.158.083-.077.008-.11.02-.126.068-.017.049 0 .226-.029.248-.029.023-.112-.017-.156-.046-.044-.03-.101-.077-.14-.052-.037.024-.114.078-.154.05-.04-.028-.012-.101-.005-.153.007-.053.007-.183.001-.293-.006-.11-.083-.085-.083-.085-.405.084-.394-.213-.394-.213-.43-.117-.29-.39-.29-.39a.323.323 0 01-.119-.463.557.557 0 01.216-.17c.048-.013.024-.042.024-.042-.413-.353-.3-.93-.3-.93-.312-.115-.157-.421-.157-.421a1.47 1.47 0 01-.4-.543c-.11-.252-.129-.658-.146-.813-.018-.154-.069-.497-.132-.619a.636.636 0 00-.261-.264c-.082-.035-.103-.04-.105-.077-.002-.038.042-.078.109-.1.067-.022.064-.033.052-.065a1.986 1.986 0 01-.035-.119c-.006-.024-.017-.023-.031-.013-.014.01-.04.025-.08.048-.039.022-.063.035-.083.002a3.04 3.04 0 01-.092-.213c-.012-.03-.02-.07.012-.078.033-.008.077-.022.133-.035.055-.013.044-.018.036-.045-.008-.028-.061-.107-.075-.132-.013-.026-.036-.065-.006-.08.03-.013.157-.075.232-.103.075-.027.053.1.057.152.004.05.022.097.054.075l.094-.057c.04-.024.065-.037.078.01.01.035.018.08.024.113.009 0 .02.002.036.01.067.03.214.076.376.107.162.03.404.04.5.043.095.001.152-.022.061-.033-.09-.01-.342-.038-.64-.133-.297-.095-.52-.308-.613-.51-.092-.201-.075-.264-.082-.312-.006-.047.037-.021.078.008a3.124 3.124 0 001.033.423c.147.032.259.03.16-.002-.1-.031-.501-.168-.641-.25-.14-.08-.453-.249-.642-.519-.19-.27-.16-.415-.162-.46-.003-.046.044-.013.088.022.044.034.296.216.366.268.07.05.233.148.421.205.19.057.16.053.222.069.062.015.066.011.018-.01a4.266 4.266 0 01-.486-.27 1.598 1.598 0 01-.409-.476c-.128-.229-.133-.31-.16-.477-.028-.166.027-.17.053-.14.025.031.17.18.233.248.062.067.173.184.249.252.076.068.452.334.563.389.112.054.072.01.012-.03-.06-.041-.38-.31-.445-.385-.065-.074-.326-.372-.443-.746-.116-.373-.1-.58-.097-.681.003-.1.05-.087.075-.023.025.063.22.412.272.506.053.093.233.338.345.45.112.112.113.126.167.171.053.046.068.024.024-.029a8.407 8.407 0 01-.351-.539 2.252 2.252 0 01-.234-.732c-.025-.27-.06-.534.062-.809.123-.274.111.051.147.177.036.126.183.567.229.69.046.123.2.426.247.492.047.066.08.126.114.168.035.042.082.094.044.017a8.268 8.268 0 01-.24-.646c-.047-.161-.165-.84-.148-1.17.017-.333.093-.623.192-.782.098-.159.084-.095.083-.034 0 .062.02.425.05.627.03.202.137.654.22.848.084.194.08.19.11.24.028.048.061.048.015-.09a4.133 4.133 0 01-.126-.762c-.017-.248.008-.755.115-1.018.108-.264.196-.37.227-.412.032-.041.036-.02.036.052s.07.884.078 1.016c.007.132.15.666.15.666s.076-.1.097.012c.02.112.132.54.245.767.113.228.213.41.27.49.058.078.181.22.181.22s.058-.136.092-.195c.034-.06.065.012.09.068.025.056.153.31.323.541.17.232.3.338.435.526.135.19.14.392.103.544-.037.154-.215.253-.333.359-.119.106-.176.15-.134.298.041.148.214.167.315.175.1.01.257-.028.362.03.105.057.078.137.192.238a.24.24 0 00.154.06c.001-.07.02-.602-.24-.962l.712-.848.102.045a.603.603 0 00.155-.423s-.18.048-.196 0c-.017-.05.064-.152.053-.374a1.517 1.517 0 00-.017-.226s-.198.175-.217.077c-.019-.098-.034-.293-.173-.423 0 0-.436.264-.836-.271 0 0-.369.158-.664.089-.294-.07-.355-.302-.337-.433a.383.383 0 01.093-.224c.035-.04.064-.03.067.021.004.052-.004.218.15.298.153.08.23.051.393 0 .164-.053.404-.048.55-.002 0 0-.185-.233-.376-.217-.192.014-.225.104-.251.151-.027.048-.07.017-.086-.076-.017-.093-.022-.325.135-.447.158-.122.469-.03.469-.03zm.56 6.733l-.022-.026c-.034.059-.152.25-.268.3-.138.06-.283.018-.348.003-.065-.016.004-.133.045-.193.042-.059.064-.085.093-.126.029-.041.012-.066-.038-.011-.05.053-.22.262-.484.274-.264.011-.465-.04-.516-.08-.05-.04-.033-.083.036-.134.07-.052.126-.118.037-.09-.09.03-.437.058-.65-.02-.215-.078-.266-.16-.298-.192-.031-.032-.06-.059.048-.072.107-.013.22-.058.305-.094.084-.035.056-.051-.052-.034-.107.018-.399.078-.658-.04-.26-.119-.24-.28-.24-.299 0-.018.003-.023.085-.034.082-.011.211-.047.295-.087.084-.04.084-.04.014-.025s-.356.032-.52-.036c-.164-.067-.322-.17-.393-.324-.07-.154-.043-.221-.014-.214.028.006.225.044.35.056.125.01.27.008.32.003.048-.005.117-.02.064-.023a3.195 3.195 0 01-.718-.134.643.643 0 01-.334-.232.04.04 0 01-.003.012c-.016.035-.039.14-.012.372.025.232.115.483.177.61.062.127.341.56.426.796.085.237.091.652.091.652.298.179.194.434.194.434.374.37.367.844.367.844.103-.015.658.048.96-.005a.711.711 0 00.444-.242h-.028c-.178-.008-.347-.083-.251-.119a.855.855 0 00.252-.137c.043-.043.036-.066-.043-.121-.078-.055-.178-.122-.057-.145.121-.023.345-.077.413-.108s.039-.062.007-.1c-.031-.04-.1-.127.002-.136a1.19 1.19 0 00.394-.11 1.16 1.16 0 00.386-.309c.072-.098.114-.222.142-.304zm1.07-6.877c0 .13-.053.313-.313.434 0 0 .053.11.175.183s.155.073.222.103.102.096-.083.163c0 0 .046.087.218.213s.223.13.273.146c.05.016.075.12-.128.244 0 0 .134.17.255.267a.717.717 0 00.229.14c.056.023.057.115.034.192-.023.078-.107.131-.136.156-.028.025-.012.054.005.085l.218.313c.075-.105.206-.293.218-.313.018-.03.034-.06.005-.085-.029-.025-.112-.078-.135-.156-.024-.077-.023-.169.033-.192a.717.717 0 00.229-.14c.121-.097.255-.267.255-.267-.203-.124-.178-.228-.128-.244.05-.015.101-.02.274-.146.171-.126.218-.213.218-.213-.185-.067-.15-.133-.084-.163.067-.03.1-.03.223-.103.122-.073.174-.183.174-.183-.255-.119-.311-.297-.314-.426-.25.112-.96.144-.96.144s-.744-.034-.976-.152zm2.041-1.826s.167.282.169.518c0 .235-.118.252-.151.284-.034.033.007.07.028.09.021.022.099.023.134.015.036-.008.102-.049.14-.054.038-.005.063-.002.042-.026-.022-.024-.043-.108-.03-.175.062-.315-.025-.513-.332-.652zm-.816-.191s.033.23.06.453c.027.223.033.347-.148.497.078.027.144.077.201.097a.23.23 0 00.113 0c.096-.018.12-.083.228-.107 0 0-.02-.123-.002-.226.067-.366-.122-.568-.452-.714zm-1.311.19s-.167.283-.168.519c-.001.235.118.252.151.284.033.033-.007.07-.029.09-.021.022-.098.023-.134.015-.035-.008-.102-.049-.14-.054-.038-.005-.063-.002-.041-.026a.272.272 0 00.03-.175c-.063-.315.025-.513.331-.652zm.817-.19s-.034.23-.06.453c-.027.223-.034.347.147.497-.077.027-.143.077-.2.097a.23.23 0 01-.114 0c-.096-.018-.12-.083-.228-.107 0 0 .02-.123.002-.226-.066-.366.123-.568.453-.714zM6.15 12.44c-.013-.025-.02-.046-.026-.06a1.787 1.787 0 01-.028-.072c-.05.005-.155.03-.152.045.004.02.075.162.075.162.036-.026.096-.058.13-.075z" id="Fill-7885" fill="#B96B29" mask="url(#mask-2)"/><path d="M9.683 7.515a.605.605 0 01.322-.066c.158 0 .384.12.432.156.048.036.135.105.168.134.033.03.05 0 .03-.018a.907.907 0 01-.074-.069c-.02-.022-.013-.03.028-.028a.711.711 0 00.288-.056c.109-.05.127-.065.154-.086.027-.021.032.002.033.037 0 .034.023.247-.24.346-.261.1-.446.017-.517-.004-.071-.02-.282-.178-.443-.18-.087 0-.137.017-.181.027-.177.036-.105-.136 0-.193zm.306.367s.33.2.764.1c0 0 .13.138.213.197.083.06.116.078.141.093.025.016.035.03-.007.05-.042.02-.095.03-.048.078s.18.184.249.24c.069.055.186.113.226.135.04.022.034.03.017.053-.018.023-.087.067-.11.088-.024.02-.032.044 0 .09.03.044.193.22.227.257.034.037.084.095.147.134.064.04.136.025.17.086.036.06-.066.14-.133.16a.604.604 0 01-.324-.01.941.941 0 01-.33-.244s.066.659-.06.933c0 0-.193-.164-.256-.427s-.052-.223-.051-.27c0-.048-.03-.042-.066-.021-.035.02-.056.036-.087.05-.03.014-.053.002-.038-.049.016-.05.018-.308.002-.426-.015-.118-.036-.15-.053-.184-.016-.032-.05-.036-.065.016-.014.05-.016.09-.08.151-.064.062-.061-.039-.07-.087a.62.62 0 00-.184-.35s-.022-.043-.1-.02c-.076.025-.266.088-.383.053a.431.431 0 01-.223-.153c-.025-.041-.039-.07.027-.036a.487.487 0 00.282.032c.094-.02.127-.045.162-.08.033-.037.008-.08-.023-.111-.031-.032-.255-.214-.338-.284-.084-.069-.243-.15-.354-.15A.316.316 0 009 8.098c-.026.04-.074.046-.077-.017-.003-.064-.018-.162.084-.3.102-.14.345-.106.45-.069.105.038.233.105.233.105s-.02.19.125.212c.144.021.172-.1.175-.147zm.404.73c.076.095.264.222.363.289.099.066.099.083.09.018a2.426 2.426 0 00-.08-.318.825.825 0 00-.13-.197c-.052-.066-.066-.078-.091-.102-.026-.023-.047-.019-.03.01.019.027.062.059.102.114a.51.51 0 01.1.208c.01.076-.004.099-.077.058-.073-.042-.14-.094-.191-.131-.051-.038-.096-.01-.056.052zm.883.624c.04.047.164.173.268.204.103.033.086.016.057.003-.03-.012-.11-.04-.175-.102-.064-.061-.116-.123-.135-.145-.018-.023-.028.022-.015.04zm-.318.245c.015.113.055.455.071.495.017.04.044.072.028.006a6.077 6.077 0 01-.031-.512c0-.046-.024-.05-.038-.043-.015.007-.032.003-.03.054zm-1.13-1.704a.088.088 0 010 .176.088.088 0 01-.086-.087c0-.049.039-.088.087-.088z" id="Fill-7886" fill="#D4AF3A" mask="url(#mask-2)"/><path d="M10.762 9.986s.059.228.155.32c0 0-.188-.04-.28-.11 0 0 .08-.075.125-.21" id="Fill-7887" fill="#D4AF3A" mask="url(#mask-2)"/><path d="M11.288 9.69s.012.512-.075.655c0 0 .45.06.776-.145 0 0-.18-.272-.205-.391 0 0-.252-.003-.403-.082 0 0 .088.199.24.275 0 0-.181.008-.333-.313" id="Fill-7888" fill="#D4AF3A" mask="url(#mask-2)"/><path d="M8.457 8.083c.028.075.098.28.31.297.21.018.36-.066.512-.076.152-.01.363.021.482.072.118.052.17.089.138.12-.031.033-.09.08-.176.03-.085-.048-.147-.093-.276-.101-.13-.009-.362.068-.458.091-.251.063-.566.03-.582-.291-.004-.076.037-.177.05-.142" id="Fill-7889" fill="#C52126" mask="url(#mask-2)"/><path d="M14.503 7.515a.604.604 0 00-.322-.066c-.157 0-.383.12-.43.156a4.002 4.002 0 00-.17.134c-.033.03-.048 0-.03-.018a.907.907 0 00.074-.069c.02-.022.013-.03-.027-.028a.71.71 0 01-.288-.056c-.11-.05-.127-.065-.154-.086-.027-.021-.032.002-.033.037 0 .034-.023.247.24.346.261.1.446.017.517-.004.07-.02.281-.178.443-.18.087 0 .137.017.18.027.178.036.106-.136 0-.193zm-.305.367s-.33.2-.765.1c0 0-.13.138-.212.197-.083.06-.116.078-.141.093-.025.016-.035.03.007.05.042.02.095.03.048.078s-.18.184-.249.24c-.069.055-.186.113-.226.135-.04.022-.034.03-.017.053s.087.067.11.088c.024.02.032.044 0 .09-.03.044-.194.22-.227.257-.034.037-.085.095-.148.134-.062.04-.135.025-.17.086-.035.06.067.14.133.16.067.02.214.03.324-.01a.942.942 0 00.331-.244s-.066.659.06.933c0 0 .192-.164.255-.427s.053-.223.052-.27c0-.048.03-.042.066-.021.035.02.056.036.086.05.03.014.054.002.039-.049a1.892 1.892 0 01-.003-.426c.016-.118.037-.15.054-.184.016-.032.05-.036.064.016.014.05.017.09.081.151.064.062.061-.039.07-.087a.615.615 0 01.184-.35s.022-.043.1-.02c.076.025.266.088.383.053a.43.43 0 00.223-.153c.025-.041.038-.07-.027-.036a.487.487 0 01-.282.032c-.094-.02-.128-.045-.162-.08-.033-.037-.008-.08.023-.111.031-.032.255-.214.338-.284.083-.069.243-.15.354-.15.11 0 .207.081.233.122.027.04.075.046.078-.017.002-.064.018-.162-.084-.3-.102-.14-.345-.106-.45-.069-.105.038-.234.105-.234.105s.02.19-.124.212c-.145.021-.172-.1-.175-.147zm-.404.73c-.076.095-.264.222-.363.289-.099.066-.099.083-.09.018.008-.065.057-.257.08-.318a.83.83 0 01.13-.197c.052-.066.066-.078.091-.102.026-.023.046-.019.03.01-.019.027-.062.059-.102.114a.508.508 0 00-.1.208c-.01.076.003.099.077.058.073-.042.14-.094.191-.131.051-.038.096-.01.056.052zm-.883.624c-.04.047-.165.173-.268.204-.103.033-.086.016-.057.003.03-.012.11-.04.174-.102.065-.061.116-.123.136-.145.019-.023.028.022.015.04zm.318.245c-.015.113-.055.455-.072.495-.016.04-.043.072-.027.006.015-.067.031-.465.031-.512 0-.046.024-.05.038-.043.014.007.032.003.03.054zm1.129-1.704a.088.088 0 000 .176.088.088 0 000-.176z" id="Fill-7890" fill="#D4AF3A" mask="url(#mask-2)"/><path d="M15.73 8.083c-.028.075-.098.28-.31.297-.21.018-.36-.066-.513-.076a1.218 1.218 0 00-.48.072c-.12.052-.171.089-.14.12.032.033.091.08.176.03.086-.048.148-.093.277-.101.13-.009.362.068.458.091.251.063.566.03.582-.291.004-.076-.037-.177-.05-.142" id="Fill-7891" fill="#C52126" mask="url(#mask-2)"/><path d="M11.423 7.713s.785-.19 1.348 0c0 0-.32.12-.672.12-.352 0-.524-.062-.676-.12zm.68-.883c.287.002.747-.007 1.015.108.096.04.154.079.078.108-.076.03-.207.105-.25.13-.043.026-.045.11.003.164.048.052.119.125.162.176.044.05.02.086-.053.072-.073-.015-.364-.084-.525-.109a5.328 5.328 0 00-.993.013c-.213.038-.317.069-.38.101s-.152 0-.051-.112c.1-.112.104-.107.145-.155.04-.05.04-.14-.027-.168-.065-.03-.172-.072-.216-.102-.044-.03-.025-.062.039-.1.198-.122.85-.142 1.053-.126zm.015.072c.065.052.178.133.213.181.036.049.03.098-.016.136a5.554 5.554 0 01-.182.139c-.031.022-.042.02-.08-.01-.038-.029-.142-.108-.168-.135-.026-.027-.04-.09-.006-.132.034-.04.178-.158.197-.175.02-.016.024-.018.042-.004zm-.556.024c.085 0 .153.108.153.24 0 .133-.068.24-.153.24-.083 0-.152-.107-.152-.24 0-.132.069-.24.152-.24zm1.07 0c.083 0 .151.108.151.24 0 .133-.068.24-.152.24-.084 0-.152-.107-.152-.24 0-.132.068-.24.152-.24zm-.005.047c.05 0 .092.064.092.144 0 .08-.041.144-.092.144-.05 0-.091-.065-.091-.144 0-.08.04-.144.091-.144zm-1.065 0c.051 0 .092.064.092.144 0 .08-.041.144-.092.144-.05 0-.09-.065-.09-.144 0-.08.04-.144.09-.144zm-.683.311s.094-.136.128-.17c0 0 .152.064.182.092 0 0-.143.162-.152.18 0 0-.102-.078-.158-.102zm1.221-.338l.168.138-.168.148-.175-.14.175-.146zm.908.252l.154.185.15-.099s-.092-.142-.12-.163c0 0-.079.015-.184.077z" id="Fill-7892" fill="#D4AF3A" mask="url(#mask-2)"/><path d="M13.073 7.447l-.204-.051s-.247.109-.778.109c-.532 0-.772-.104-.772-.104l-.192.044s.347.159.974.159.972-.157.972-.157" id="Fill-7893" fill="#D4AF3A" mask="url(#mask-2)"/><path d="M11.805 6.594c.052-.036.1-.09.163-.074.065.017.063.1.013.119-.05.019-.127-.003-.176-.045zm.243-1.928s.033-.02.137 0l-.01-.146.159.026.003-.129-.164.016.03-.146h-.186l.031.15-.161-.02v.133l.164-.026-.003.142zm-.207.213h.211v-.175s.056-.028.122 0v.175h.193s.012.051.01.103h-.544s-.007-.052.008-.103zm.55 1.715c-.052-.036-.099-.09-.163-.074-.064.017-.063.1-.013.119.05.019.127-.003.176-.045zm.23-1.289a.06.06 0 00-.059.06.06.06 0 10.12 0 .06.06 0 00-.06-.06zm-.196.135c.101.056.237.163.34.31a.53.53 0 01.1.35c-.003.098-.06.25-.005.313 0 0 .109-.125.187-.176 0 0 .026.103.022.147a.448.448 0 01-.014.082s.183-.035.211-.162a.752.752 0 00-.036-.377c-.034-.089-.2-.454-.502-.586 0 0 .009.08-.035.11a.132.132 0 01-.146-.004c-.066-.054-.042-.165.067-.17 0 0-.139-.062-.186-.077-.048-.015-.1-.011-.1.033s-.01.145.097.207zm.526.174c.03.026.022.066.005.078-.016.011-.043.023-.09-.007-.059-.038.006-.133.085-.071zm.106.331c-.051.003-.074.052-.073.082a.07.07 0 00.076.065c.045-.002.076-.034.075-.073a.078.078 0 00-.078-.074zm-.008-.04c-.05.007-.124.05-.124.138 0 .087.083.12.133.12.05-.002.122-.054.121-.13a.126.126 0 00-.13-.127zm-.23-.16c-.093-.093.038-.255.156-.148.128.115-.03.272-.156.147zm.36-.358c-.073 0-.069.093.004.093.102 0 .056-.093-.004-.093zm.37.316c.011.045.033.072.073.072.047 0 .074-.065.016-.104-.05-.033-.099-.014-.089.032zm.271.339a.069.069 0 000 .137.069.069 0 000-.137zm-.11.353a.442.442 0 00-.117.106c-.016.028-.035.02-.047-.017-.011-.037.011-.184.017-.271a.623.623 0 00-.065-.292.629.629 0 00-.193-.221c-.078-.055-.193-.108-.193-.108s-.107-.141-.282-.252c0 0 .15.016.247.056-.003.021.03.18.177.103 0 0 .206.106.26.15 0 0-.036.09.026.144.062.055.121.022.121.022s.073.118.094.204c0 0-.066.042-.045.123.02.081.101.09.101.09s.018.148-.1.163zm.025.057a.445.445 0 00-.125.102c-.019.025-.005.044.031.058a.103.103 0 00.117-.02c.04-.036.034-.092.027-.118-.007-.026-.025-.036-.05-.022zm-.091.207c-.02 0-.035.014-.035.03 0 .014.016.027.035.027.02 0 .035-.013.035-.028 0-.015-.016-.029-.035-.029zm-.299.009c.08-.04.204-.114.214-.05.01.063-.09.14-.214.05zm-.33-.359c-.057.051-.204.167-.14.21.066.043.191-.053.14-.21zm-.198.38c-.04.058-.064.094-.19.097a9.563 9.563 0 01-.412 0c-.045-.004-.077-.06-.086-.095-.009-.033.001-.059.032-.014s.079.061.121.064a.178.178 0 00.152-.077c.037-.058.08-.076.096-.033.015.043.03.11.12.114.092.002.13-.053.144-.067.015-.015.045-.025.023.01zm.547.111s-.117-.017-.145-.15c0 0-.203.18-.343.036 0 0 .052.274.488.114zm-.478-.239a.03.03 0 00-.029.026.022.022 0 00.023.025.03.03 0 00.028-.026.022.022 0 00-.022-.025zm.241.036c-.05-.056-.09-.077-.136-.043-.046.035-.055.072-.03.093.027.023.08 0 .1-.014a.22.22 0 01.066-.036zm-.494-.016c.023-.014.168-.145.186-.04.011.074-.102.16-.186.04zm-.54-.347l.118.175s.14-.115.145-.302c.006-.186-.038-.36-.056-.48a5.178 5.178 0 01-.024-.408s-.164.11-.347.007l-.038.382c-.013.134-.07.415-.058.523.01.108.07.22.147.276 0 0 .062-.085.113-.173zm.001-.27c.041 0 .074.032.074.07 0 .04-.033.07-.074.07-.041 0-.074-.03-.074-.07 0-.038.033-.07.074-.07zm0-.31c.04 0 .071.03.071.066a.07.07 0 01-.07.068.07.07 0 01-.072-.068c0-.036.032-.066.071-.066zm0-.313c.038 0 .069.029.069.065 0 .036-.03.065-.069.065a.067.067 0 01-.069-.065c0-.036.03-.065.07-.065zm0 .595c.07 0 .128.054.128.121a.125.125 0 01-.128.122.125.125 0 01-.128-.122c0-.067.057-.122.128-.122zm0-.319c.07 0 .128.054.128.123a.125.125 0 01-.128.12.125.125 0 01-.128-.12c0-.069.057-.123.128-.123zm0-.305c.07 0 .128.055.128.122a.126.126 0 01-.128.122.126.126 0 01-.128-.122c0-.067.057-.122.128-.122zm-.002.995s.031.06.063.11c.031.046-.023.101-.058.101a.07.07 0 01-.058-.105c.03-.061.04-.075.053-.106zm.003.242a.034.034 0 010 .068.034.034 0 110-.068zm-.52-1.244a.06.06 0 01.059.06.06.06 0 11-.119 0 .06.06 0 01.06-.06zm.196.135a1.07 1.07 0 00-.339.31.532.532 0 00-.1.35c.003.127.093.212.004.313 0 0-.108-.125-.187-.176 0 0-.026.103-.022.147s.015.082.015.082-.184-.035-.212-.162c-.077-.35.235-.83.538-.963 0 0-.008.08.035.11.044.03.11.025.146-.004.067-.054.042-.165-.066-.17 0 0 .138-.062.185-.077.048-.015.1-.011.1.033s.011.145-.097.207zm-.525.174c-.03.026-.022.066-.006.078.017.011.043.023.09-.007.059-.038-.005-.133-.084-.071zm-.106.331c.05.003.074.052.072.082a.07.07 0 01-.075.065c-.045-.002-.077-.034-.075-.073a.078.078 0 01.078-.074zm.008-.04c.05.007.123.05.123.138 0 .087-.083.12-.133.12-.05-.002-.122-.054-.12-.13a.126.126 0 01.13-.127zm.23-.16c.093-.093-.039-.255-.157-.148-.128.115.03.272.157.147zm-.365-.265c-.062 0-.06-.06-.019-.084.08-.047.106.084.019.084zm-.376.253c-.038.07-.151.047-.079-.053.05-.068.116-.015.079.053zm-.25.312c.082 0 .074.134-.011.134-.038 0-.058-.03-.058-.067 0-.038.031-.067.069-.067zm.099.35a.44.44 0 01.117.106c.017.028.036.02.047-.017.012-.037-.01-.184-.017-.271a.632.632 0 01.065-.292.626.626 0 01.194-.221c.077-.055.193-.108.193-.108s.107-.141.282-.252c0 0-.15.016-.247.056.003.021-.03.18-.177.103 0 0-.206.106-.261.15 0 0 .036.09-.026.144-.062.055-.121.022-.121.022s-.073.118-.094.204c0 0 .066.042.045.123-.02.081-.1.09-.1.09s-.019.148.1.163zm-.024.057c.056.03.105.079.124.102.02.025.005.044-.031.058a.103.103 0 01-.117-.02c-.04-.036-.034-.092-.026-.118.006-.026.024-.036.05-.022zm.09.207c.02 0 .036.014.036.03 0 .014-.016.027-.036.027-.02 0-.035-.013-.035-.028 0-.015.016-.029.035-.029zm.3.009c-.08-.04-.205-.114-.215-.05-.01.063.09.14.214.05zm.33-.359c.057.051.204.167.139.21-.066.043-.191-.053-.139-.21zm.197.38c.04.058.064.094.19.097.126.002.368.004.413 0 .045-.004.077-.06.086-.095.008-.033-.002-.059-.032-.014a.155.155 0 01-.122.064.18.18 0 01-.152-.077c-.037-.058-.08-.076-.095-.033s-.03.11-.121.114c-.091.002-.129-.053-.144-.067-.015-.015-.044-.025-.023.01zm-.546.111s.117-.017.144-.15c0 0 .204.18.343.036 0 0-.051.274-.487.114zm.477-.239a.03.03 0 01.029.026.022.022 0 01-.022.025.03.03 0 01-.029-.026.022.022 0 01.022-.025zm-.241.036c.05-.056.09-.077.136-.043.046.035.056.072.03.093-.026.023-.08 0-.1-.014a.198.198 0 00-.066-.036zm.494-.016c-.023-.014-.168-.145-.185-.04-.012.074.102.16.185.04z" id="Fill-7894" fill="#D4AF3A" mask="url(#mask-2)"/><path d="M13.435 9.986s-.06.228-.156.32c0 0 .188-.04.28-.11 0 0-.08-.075-.124-.21" id="Fill-7895" fill="#D4AF3A" mask="url(#mask-2)"/><path d="M12.909 9.69s-.012.512.075.655c0 0-.45.06-.776-.145 0 0 .18-.272.204-.391 0 0 .253-.003.404-.082 0 0-.088.199-.24.275 0 0 .18.008.333-.313" id="Fill-7896" fill="#D4AF3A" mask="url(#mask-2)"/><path d="M8.549 9.18a9.1 9.1 0 00.375.605c.113.155.261.271.383.46.121.19.138.322.073.462-.065.14-.202.202-.382.304-.18.103-.166.31-.142.391.024.08.074.205.297.247.222.042.32-.009.445.088.124.097.109.234.405.264 0 0-.02.439-.075.618 0 0-.059.046-.075.086a.235.235 0 01-.08.097c-.028.019-.017.042.013.02a.256.256 0 00.072-.064c.023-.03.05-.025.05-.025l-.098.356s-.312-.002-.315-.16c-.003-.159.057-.164.03-.205-.027-.042-.102.043-.151.08-.05.037-.299.126-.39-.004-.092-.13-.03-.252.001-.304.032-.05.021-.08-.001-.098-.022-.018-.06.011-.106.033-.045.021-.25.072-.37-.041-.12-.113-.05-.23.025-.278.074-.05.103-.066.092-.093-.012-.029-.058.004-.118.033a.454.454 0 01-.317-.008c-.086-.047-.158-.146-.069-.214.089-.067.133-.09.11-.137-.023-.048-.11.011-.182.014-.071.002-.229-.027-.27-.116-.04-.09-.04-.213.095-.26.135-.05.142-.042.15-.087.01-.046-.147-.03-.264-.074-.118-.044-.222-.107-.199-.238.023-.13.153-.125.215-.124.062.002.097-.004.11-.03.011-.024-.082-.025-.193-.067-.11-.04-.305-.144-.249-.27.057-.124.219-.128.287-.116.069.013.147.03.08-.02-.068-.05-.328-.197-.258-.368.069-.172.321-.07.364-.037.042.034.187.135.233.125.046-.009-.076-.137-.12-.188-.045-.052-.162-.247-.04-.363.122-.117.347.018.419.06.072.043.089.009.078-.059-.01-.066-.023-.217.062-.295zm-.552.987c.013-.014-.198-.135-.212-.131-.023.006.189.161.212.131zm1.498 2.16c.02.03-.217.216-.246.203-.01-.006.232-.223.246-.202zm-.45-.315c.018.034-.26.209-.29.19-.01-.006.277-.215.29-.19zm-.342-.31c.015.031-.25.174-.276.156-.01-.006.266-.18.276-.157zM8.3 11.37c-.005-.019-.224.084-.23.098-.008.023.24-.062.23-.098zm-.176-.38c-.002-.02-.236.04-.244.051-.013.021.247-.014.244-.052zm-.11-.438c-.007.033-.291-.018-.3-.047-.003-.01.307.023.3.047zm.341-.731c.021-.026-.156-.183-.183-.17-.01.004.168.189.183.17z" id="Fill-7897" fill="#D4AF3A" mask="url(#mask-2)"/><path d="M15.64 9.18a9.64 9.64 0 01-.376.605c-.113.155-.262.271-.383.46-.121.19-.138.322-.073.462.065.14.202.202.381.304.18.103.167.31.142.391-.024.08-.073.205-.296.247-.222.042-.321-.009-.445.088-.124.097-.11.234-.405.264 0 0 .02.439.075.618 0 0 .059.046.075.086.015.04.052.079.08.097.027.019.017.042-.013.02a.256.256 0 01-.072-.064c-.024-.03-.05-.025-.05-.025l.098.356s.312-.002.315-.16c.003-.159-.057-.164-.03-.205.026-.042.102.043.15.08.05.037.3.126.391-.004.092-.13.03-.252-.002-.304-.031-.05-.02-.08.002-.098.022-.018.06.011.105.033.046.021.251.072.371-.041.12-.113.05-.23-.025-.278-.074-.05-.104-.066-.092-.093.011-.029.058.004.118.033.06.03.231.038.317-.008.086-.047.157-.146.069-.214-.09-.067-.133-.09-.11-.137.022-.048.11.011.182.014.07.002.228-.027.269-.116.04-.09.04-.213-.095-.26-.135-.05-.142-.042-.15-.087-.008-.046.147-.03.265-.074.117-.044.222-.107.199-.238-.024-.13-.153-.125-.215-.124-.062.002-.098-.004-.11-.03-.012-.024.083-.025.193-.067.11-.04.305-.144.249-.27-.057-.124-.219-.128-.287-.116-.069.013-.147.03-.08-.02.069-.05.327-.197.258-.368-.07-.172-.321-.07-.364-.037-.042.034-.187.135-.233.125-.047-.009.075-.137.12-.188.045-.052.162-.247.04-.363-.122-.117-.347.018-.419.06-.072.043-.089.009-.079-.059.01-.066.024-.217-.06-.295zm.55.987c-.012-.014.198-.135.212-.131.024.006-.188.161-.212.131zm-1.497 2.16c-.02.03.217.216.246.203.01-.006-.232-.223-.246-.202zm.45-.315c-.018.034.26.209.29.19.01-.006-.277-.215-.29-.19zm.342-.31c-.015.031.25.174.276.156.009-.006-.266-.18-.276-.157zm.403-.332c.005-.019.224.084.23.098.008.023-.24-.062-.23-.098zm.176-.38c.001-.02.236.04.244.051.013.021-.247-.014-.244-.052zm.109-.438c.008.033.292-.018.301-.047.004-.01-.307.023-.301.047zm-.34-.731c-.022-.026.156-.183.183-.17.01.004-.168.189-.183.17z" id="Fill-7898" fill="#D4AF3A" mask="url(#mask-2)"/><path d="M7.711 7.96c.021.12.117.398.146.485.029.086.249.514.305.59.057.077.165.214.208.287.044.073.039.11.035.14-.004.03-.02.002-.114-.035-.092-.038-.22-.063-.314-.003-.095.06-.116.187-.105.271.011.084.037.093.017.111-.02.019-.04-.015-.156-.012a.262.262 0 00-.226.119c-.047.066-.025.227.015.282.041.055.062.057.057.076-.005.02-.036.012-.1.041-.065.027-.101.12-.104.149a.255.255 0 00.112.236c.12.083.098.063.118.077.02.013-.001.02-.04.048-.04.028-.07.138-.05.234.019.096.112.176.184.214.073.038.098.035.053.095-.044.06-.05.186-.034.237.016.052.052.125.186.19.133.064.12.082.146.17.026.09.074.143.194.203.119.062.123.06.152.158.028.1.085.178.215.219.131.04.181.016.206.013.025-.003.058-.024.057.05A.347.347 0 009 12.88c.107.09.22.104.304.083.086-.02.122-.045.15.038.03.084.107.199.322.207 0 0-.043.267-.011.392 0 0-.362.334-.638.223-.276-.112-.142-.261-.048-.295a.556.556 0 00.197-.129c.035-.034.023-.071-.044-.041-.066.031-.354.178-.611.147-.258-.032-.223-.21-.15-.233.074-.022.218-.061.294-.141.076-.08-.023-.072-.09-.039-.067.032-.294.086-.466.014-.172-.073-.09-.166.003-.206.094-.04.154-.049.2-.084.047-.035.056-.058-.033-.05-.089.01-.392.038-.516.002-.124-.035-.198-.102-.216-.178-.019-.074.064-.104.146-.12.083-.017.157-.02.224-.046.068-.027.024-.063-.048-.058-.071.005-.343.023-.499-.03-.155-.054-.212-.145-.21-.228.002-.082.182-.11.25-.118.07-.008.146-.008.15-.043.004-.035-.178-.055-.269-.079-.091-.023-.285-.096-.353-.205-.068-.11-.072-.18.029-.194.1-.013.24-.015.346-.024.106-.008-.003-.044-.105-.07-.102-.024-.315-.11-.405-.257-.091-.146-.09-.251-.065-.295.025-.044.194.026.271.058.078.032.12.065.196.09.075.025.065-.011.025-.039s-.334-.212-.44-.362a.786.786 0 01-.139-.372c-.01-.08.03-.078.113-.018.082.06.238.164.34.223.101.058.111.038.077.003-.034-.035-.252-.248-.345-.373-.094-.125-.163-.224-.165-.362-.002-.139.043-.23.107-.156.064.072.221.222.305.303.085.08.109.102.165.14.057.038.044.01.011-.03-.032-.04-.25-.267-.302-.355-.052-.088-.127-.226-.13-.362a.416.416 0 01.04-.219c.017-.035.038-.028.064.018.026.046.136.231.24.348.105.116.237.247.288.306.05.058.036.015.011-.032-.025-.047-.213-.286-.27-.363-.058-.076-.184-.282-.182-.453a.819.819 0 01.053-.323c.024-.054.071-.098.112.028.04.127.147.306.245.446s.22.339.263.392c.042.053.063.055.02-.024-.043-.08-.215-.387-.257-.468a.79.79 0 01-.092-.346c-.004-.147.041-.45.119-.564.078-.114.096-.14.13.003zm1.775 5.575a.562.562 0 01-.181.12c-.051.01-.01.028.03.01a.655.655 0 00.15-.098c.032-.033.04-.07.001-.032zm-1.6-4.503c.029.041.156.219.181.247.025.028.02.012.013-.007-.007-.02-.166-.226-.177-.244-.012-.018-.038-.038-.016.004zm-.29.354c.022.044.148.2.178.231.03.03.023.002.012-.011-.012-.013-.16-.2-.173-.219-.011-.02-.03-.03-.017 0zm-.26.32c.025.036.095.12.114.145.019.026.03.004.019-.01-.01-.013-.107-.122-.119-.14-.013-.02-.028-.019-.014.005zm-.086.419c.051.044.12.108.133.132.013.023.01.023-.014.01-.023-.013-.11-.111-.13-.13-.021-.02-.024-.047.011-.012zm-.058.484c.057.051.127.112.165.142.039.03.054.033.066.012.011-.02-.071-.054-.124-.094-.054-.039-.062-.04-.093-.072-.03-.032-.074-.047-.014.012zm.12.529c.059.015.106.005.121.023.016.018-.009.037-.039.028-.03-.009-.067-.016-.094-.031-.027-.016-.032-.03.012-.02zm.084.55c.097.037.203.04.212.017.01-.025-.134-.02-.176-.031-.043-.01-.09-.004-.036.015zm.58.518a.419.419 0 01-.191.018c-.06-.006-.09.004-.097.018-.008.015.028-.004.055-.005.059-.002.088.012.121.013.032.001.068-.01.135-.025.029-.006.029-.036-.022-.019zm.105.402c.07-.004.166-.007.214-.043.049-.037.06-.003.044.02-.017.022-.154.046-.209.04-.055-.007-.076.006-.095.021-.019.015-.02-.028.046-.039zm.616.257a1.32 1.32 0 01-.179.13c-.034.02-.041.028-.017.024.024-.003.173-.103.2-.129.026-.025.032-.06-.004-.025zm.338.33a.4.4 0 01-.184.114c-.05.01-.019.015.017.013a.38.38 0 00.18-.102c.04-.048.005-.051-.013-.024z" id="Fill-7899" fill="#D4AF3A" mask="url(#mask-2)"/><path d="M7.399 8.624s-.162-.255-.209-.415a4.331 4.331 0 01-.127-.931c.007-.262.012-.798.3-1.155 0 0 .066.86.075 1.047.01.187.107.536.125.596.019.06.015.1-.032.19a.74.74 0 00-.093.238c-.037-.06-.103-.443-.113-.52-.026-.23-.036-.408-.036-.408s-.013.165.02.415c.03.25.088.483.1.536.01.053-.005.154-.011.195a1.755 1.755 0 000 .212" id="Fill-7900" fill="#D4AF3A" mask="url(#mask-2)"/><path d="M6.716 6.666s.023.625.123 1.04c.1.414.224.644.25.686.026.043.016.061.007.114-.01.052-.048.35-.027.481 0 0-.255-.282-.328-1.041 0 0-.034.449.229.98 0 0-.097.042-.092.222 0 0-.702-1.517-.162-2.482" id="Fill-7901" fill="#D4AF3A" mask="url(#mask-2)"/><path d="M6.208 7.957c.054.189.144.458.185.575.04.116.173.408.229.517.055.107.19.281.23.335.04.054.083.127.03.091-.054-.036-.089-.075-.103-.013-.015.063-.033.122-.072.07a2.462 2.462 0 01-.348-.642s.024.319.356.726c0 0-.012.16.05.284 0 0-.316-.298-.505-.747-.19-.45-.21-.8-.22-.955-.009-.155.057-.38.07-.437.013-.057.042-.075.05-.02.008.057.026.132.048.216" id="Fill-7902" fill="#D4AF3A" mask="url(#mask-2)"/><path d="M5.794 8.794c.053.122.17.326.219.415.048.09.17.246.23.327.06.082.169.196.246.276.077.08.2.163.237.196.035.034.017.062.001.085a.106.106 0 00-.018.074c.003.025-.006.033-.045.003-.04-.032-.348-.38-.442-.43-.095-.05.148.246.418.465 0 0 .052.02.052.074 0 .054 0 .089.02.132.019.043.043.086-.032.035-.075-.052-.345-.241-.498-.447a2.073 2.073 0 01-.401-.864c-.067-.367-.022-.407-.012-.39.01.015.015.024.025.05" id="Fill-7903" fill="#D4AF3A" mask="url(#mask-2)"/><path d="M5.777 9.883c.058.066.254.267.316.326s.186.15.29.226c.105.075.196.147.282.181.086.034.146.048.178.082.032.033.06.059.02.064-.04.006-.058.023-.077.05-.02.03-.02.027-.048.011a47.67 47.67 0 01-.544-.338c-.046-.03-.057-.011-.024.015.031.027.533.343.567.364.033.02.035.016.04.068.004.053.033.098 0 .097-.231-.01-.487-.206-.748-.447-.235-.219-.382-.528-.396-.774-.005-.08.004-.088.049-.035.044.052.063.07.095.11" id="Fill-7904" fill="#D4AF3A" mask="url(#mask-2)"/><path d="M5.66 10.607c.272.193.449.338.773.45.132.045.322.086.36.094.036.008.044.038.077.071a.738.738 0 00.11.09c.035.021.044.033-.007.03a3.373 3.373 0 01-.464-.113.911.911 0 01-.183-.086c-.03-.02-.058-.024-.015.014.044.038.1.06.23.11.128.051.344.091.447.117.103.026.16.026.09.042-.07.016-.112.034-.129.06-.017.027-.005.08.002.105.007.026 0 .047-.09.026a2.485 2.485 0 01-.704-.319 1.73 1.73 0 01-.472-.47c-.081-.12-.1-.226-.106-.255-.006-.027.037-.004.081.034" id="Fill-7905" fill="#D4AF3A" mask="url(#mask-2)"/><path d="M7.068 11.825s-.278-.025-.66-.163c-.381-.137-.568-.268-.617-.3-.048-.033-.05-.024-.039.04a.89.89 0 00.301.458c.208.168.552.264.66.283.11.018.347.05.513.041 0 0-.037-.072-.003-.12.033-.048-.009-.04-.056-.044-.047-.005-.509-.08-.641-.135-.133-.054.014-.011.073.003.06.013.337.051.484.072.147.02.19.012.243-.001.054-.013.047-.02-.018-.03a.515.515 0 01-.178-.062c-.042-.028-.038-.042-.062-.043" id="Fill-7906" fill="#D4AF3A" mask="url(#mask-2)"/><path d="M6.266 12.244c.106.04.314.092.583.1.27.007.357-.01.403-.017.046-.008.071.009.11.03.038.022.07.034.116.062.045.029-.006.053-.053.068a1.135 1.135 0 01-.353.037c-.113-.015-.072.006-.019.02.054.016.207.015.327.002.12-.014.13-.022.17-.028.041-.006.047.04.05.081.003.042.014.052.032.08.018.026.029.058-.03.079-.06.02-.34.064-.676.01s-.47-.113-.583-.208a.75.75 0 01-.204-.257c-.044-.086-.024-.11.127-.059" id="Fill-7907" fill="#D4AF3A" mask="url(#mask-2)"/><path d="M6.638 12.921c.118.02.298.042.552.037a1.51 1.51 0 00.522-.104c.047-.025.111-.015.18.004.067.02.106.008.067.052a.67.67 0 01-.276.128c-.098.019-.13.021-.177.027-.046.006-.061.029-.017.03.044.001.18-.022.31-.057.132-.036.17-.049.221-.074.052-.023.059.052.038.096-.02.044-.057.089-.265.169-.208.08-.407.126-.63.102-.223-.024-.345-.049-.479-.171-.134-.124-.182-.267-.046-.239" id="Fill-7908" fill="#D4AF3A" mask="url(#mask-2)"/><path d="M7.306 13.557c.157-.038.475-.174.564-.216.089-.042.167-.103.207-.127.04-.024.063.01.138.02.075.01.096.008.138.01.04 0 .037.015-.009.057a1.029 1.029 0 01-.257.168c-.116.05-.161.087-.117.074.045-.014.165-.058.218-.089.053-.03.117-.066.148-.093.032-.027.036-.008.037.03.001.036-.008.103.08.15.086.046.037.048-.005.07-.04.024-.509.227-.772.23-.263.003-.396-.022-.466-.115-.071-.093-.073-.112-.06-.121.012-.009.097-.03.156-.048" id="Fill-7909" fill="#D4AF3A" mask="url(#mask-2)"/><path d="M7.821 14.07a1.95 1.95 0 00.523-.237c.111-.078.358-.251.487-.175 0 0-.18.194-.379.311 0 0 .272-.054.422-.277 0 0 .154.183-.01.363-.162.181-.506.209-.658.204a.991.991 0 01-.418-.127c-.072-.048-.006-.05.033-.062" id="Fill-7910" fill="#D4AF3A" mask="url(#mask-2)"/><path d="M9.028 13.985c-.07.106-.271.323-.324.383-.053.062-.055.092.03.114.085.022.272.09.506-.037a.986.986 0 00.398-.376c.072-.11.114-.31.114-.31s-.06.127-.343.17c0 0-.145.25-.325.32-.18.07-.011-.037.05-.078.063-.04.155-.15.187-.192.031-.042-.06-.034-.128-.034-.067 0-.127-.008-.165.04" id="Fill-7911" fill="#D4AF3A" mask="url(#mask-2)"/><path d="M9.804 13.931c-.038.11-.11.318-.174.408-.065.09-.157.175-.129.219.028.044.129.052.227.033a.34.34 0 00.23-.19c.04-.089.009-.111-.005-.133-.014-.023-.033-.068-.057-.033a1.021 1.021 0 01-.097.11c-.02.02.004-.054.01-.08.006-.026.049-.076.064-.1.015-.024.004-.033-.007-.072a2.129 2.129 0 00-.04-.134c-.007-.024-.014-.055-.022-.028" id="Fill-7912" fill="#D4AF3A" mask="url(#mask-2)"/><path d="M10.091 14.444s.028.063.227.226c0 0-.005.145-.137.276 0 0 .165-.066.22-.216 0 0 .191.136.363.208 0 0-.157.148-.206.258-.05.11.007.037.033.004a2.23 2.23 0 01.219-.204c.034-.023.086.01.146.039.06.028.108.04.13.055.024.014.013.026-.077.108s-.138.141-.193.207c-.055.067-.233.291-.292.356-.06.066-.24.295-.256.321 0 0 .05-.283.076-.375.026-.091.003-.09-.023-.016a12.09 12.09 0 00-.132.442c-.01.04-.019.039-.051-.02a1.266 1.266 0 01-.093-.364c-.011-.125-.006-.194.027-.242.033-.05.036-.075.02-.1-.016-.027-.087.004-.14.014a1.329 1.329 0 01-.425-.064c-.099-.044-.112-.055-.137-.074-.024-.019-.046-.032.03-.027.077.005.312-.009.373-.024.061-.016.1-.028.152-.049.053-.02.04-.044-.03-.024-.071.02-.16.042-.282.052a.826.826 0 01-.294-.03c-.07-.018-.096-.035-.015-.05.083-.017.325-.126.401-.183.076-.057.215-.172.27-.29.057-.115.096-.214.096-.214" id="Fill-7913" fill="#D4AF3A" mask="url(#mask-2)"/><path d="M9.974 15.65c.027.061.021.155.035.23.014.073.035.103-.04.137a5.25 5.25 0 00-.476.298c-.14.097-.144.107-.185.14-.042.036-.035-.052-.037-.104a1.316 1.316 0 01.065-.375.914.914 0 01.124-.242c.027-.032.02-.052-.04-.054a1.01 1.01 0 01-.276-.046c-.085-.031-.163-.054-.22-.098-.058-.044-.03-.052.034-.065.063-.011.2-.063.26-.092.06-.029.07-.007.114.015.042.023.173.109.298.133.123.023.134.019.193.03s-.082.165-.12.234c-.04.07-.073.125-.063.138.01.012.075-.08.104-.121.03-.04.132-.143.164-.175s.048-.024.066.018" id="Fill-7914" fill="#D4AF3A" mask="url(#mask-2)"/><path d="M8.7 15.873c.057.001.277.004.3 0a.306.306 0 00.12-.07c.036-.038.02-.029-.03-.032-.052-.003-.09-.025-.123-.042-.034-.016-.066-.015-.098.022a.528.528 0 01-.152.097c-.028.01-.039.025-.017.025" id="Fill-7915" fill="#D4AF3A" mask="url(#mask-2)"/><path d="M16.484 7.96c-.02.12-.117.398-.145.485a5.056 5.056 0 01-.306.59c-.056.077-.164.214-.208.287-.044.073-.038.11-.035.14.004.03.022.002.114-.035.093-.038.22-.063.315-.003s.116.187.105.271c-.011.084-.037.093-.017.111.02.019.039-.015.156-.012a.26.26 0 01.226.119c.046.066.025.227-.016.282-.04.055-.061.057-.056.076.005.02.035.012.1.041.065.027.101.12.104.149a.257.257 0 01-.112.236c-.12.083-.099.063-.118.077-.02.013.001.02.04.048s.07.138.05.234c-.019.096-.113.176-.185.214-.072.038-.097.035-.053.095.045.06.05.186.035.237-.016.052-.052.125-.186.19-.133.064-.12.082-.146.17-.026.09-.074.143-.194.203-.12.062-.123.06-.152.158a.296.296 0 01-.216.219c-.13.04-.181.016-.206.013-.024-.003-.057-.024-.056.05a.348.348 0 01-.127.275.343.343 0 01-.305.083c-.085-.02-.121-.045-.15.038-.029.084-.107.199-.322.207 0 0 .043.267.012.392 0 0 .362.334.638.223.276-.112.142-.261.048-.295a.553.553 0 01-.197-.129c-.035-.034-.023-.071.043-.041.067.031.354.178.612.147.257-.032.222-.21.149-.233-.073-.022-.218-.061-.293-.141-.076-.08.023-.072.09-.039.066.032.293.086.465.014.173-.073.09-.166-.002-.206-.094-.04-.155-.049-.2-.084-.047-.035-.056-.058.033-.05.088.01.391.038.516.002.123-.035.197-.102.216-.178.018-.074-.064-.104-.147-.12-.082-.017-.156-.02-.224-.046-.067-.027-.023-.063.048-.058.072.005.344.023.5-.03.155-.054.212-.145.21-.228-.002-.082-.182-.11-.25-.118-.07-.008-.147-.008-.15-.043-.004-.035.178-.055.27-.079.09-.023.284-.096.352-.205.067-.11.072-.18-.029-.194-.101-.013-.24-.015-.347-.024-.105-.008.004-.044.106-.07.102-.024.314-.11.405-.257.091-.146.09-.251.065-.295-.025-.044-.194.026-.272.058-.077.032-.12.065-.195.09-.075.025-.065-.011-.025-.039s.334-.212.439-.362a.79.79 0 00.14-.372c.009-.08-.03-.078-.113-.018-.082.06-.238.164-.34.223-.102.058-.112.038-.077.003.034-.035.252-.248.345-.373.094-.125.163-.224.164-.362.002-.139-.042-.23-.106-.156a7.367 7.367 0 01-.306.303c-.084.08-.108.102-.165.14-.056.038-.043.01-.01-.03.032-.04.25-.267.301-.355.053-.088.128-.226.13-.362.002-.135-.022-.184-.04-.219-.016-.035-.037-.028-.063.018a2.345 2.345 0 01-.241.348c-.104.116-.236.247-.287.306-.051.058-.036.015-.011-.032.025-.047.213-.286.27-.363.058-.076.183-.282.181-.453a.825.825 0 00-.052-.323c-.024-.054-.071-.098-.112.028-.04.127-.147.306-.245.446s-.22.339-.263.392c-.042.053-.063.055-.02-.024.042-.08.215-.387.257-.468a.794.794 0 00.092-.346c.004-.147-.041-.45-.12-.564-.077-.114-.095-.14-.129.003zm-1.774 5.575a.54.54 0 00.18.12c.052.01.011.028-.03.01a.662.662 0 01-.148-.098c-.033-.033-.04-.07-.002-.032zm1.599-4.503a6.32 6.32 0 01-.18.247c-.025.028-.02.012-.013-.007.007-.02.165-.226.177-.244.012-.018.038-.038.016.004zm.29.354c-.021.044-.147.2-.177.231-.03.03-.023.002-.012-.011.012-.013.16-.2.172-.219.012-.02.031-.03.018 0zm.26.32c-.024.036-.094.12-.113.145-.02.026-.03.004-.02-.01.011-.013.107-.122.12-.14.012-.02.028-.019.014.005zm.086.419a.957.957 0 00-.132.132c-.014.023-.01.023.014.01.023-.013.11-.111.13-.13.02-.02.024-.047-.012-.012zm.06.484a4.113 4.113 0 01-.167.142c-.038.03-.053.033-.065.012-.012-.02.07-.054.124-.094.054-.039.062-.04.092-.072.03-.032.075-.047.015.012zm-.121.529c-.059.015-.106.005-.122.023s.01.037.04.028c.029-.009.066-.016.094-.031.027-.016.031-.03-.012-.02zm-.084.55c-.097.037-.203.04-.212.017-.01-.025.133-.02.176-.031.042-.01.09-.004.036.015zm-.581.518a.42.42 0 00.192.018c.06-.006.09.004.097.018.008.015-.028-.004-.056-.005-.058-.002-.087.012-.12.013-.033.001-.069-.01-.135-.025-.029-.006-.029-.036.022-.019zm-.105.402c-.07-.004-.165-.007-.214-.043-.048-.037-.06-.003-.043.02.017.022.153.046.209.04.055-.007.076.006.095.021.019.015.02-.028-.047-.039zm-.615.257c.03.033.144.109.178.13.035.02.042.028.018.024a1.107 1.107 0 01-.2-.129c-.026-.025-.032-.06.004-.025zm-.338.33c.03.046.134.103.184.114.049.01.018.015-.017.013a.38.38 0 01-.18-.102c-.04-.048-.005-.051.013-.024z" id="Fill-7916" fill="#D4AF3A" mask="url(#mask-2)"/><path d="M16.8 8.624s.16-.255.208-.415c.047-.16.134-.67.127-.931-.008-.262-.012-.798-.3-1.155 0 0-.066.86-.075 1.047-.01.187-.107.536-.126.596-.018.06-.015.1.033.19.047.09.09.182.093.238.036-.06.103-.443.112-.52.027-.23.037-.408.037-.408s.012.165-.02.415c-.03.25-.088.483-.1.536-.01.053.005.154.01.195.006.04.003.14 0 .212" id="Fill-7917" fill="#D4AF3A" mask="url(#mask-2)"/><path d="M17.481 6.666s-.022.625-.122 1.04c-.1.414-.224.644-.25.686-.026.043-.016.061-.007.114.01.052.048.35.026.481 0 0 .256-.282.328-1.041 0 0 .034.449-.229.98 0 0 .098.042.093.222 0 0 .702-1.517.161-2.482" id="Fill-7918" fill="#D4AF3A" mask="url(#mask-2)"/><path d="M17.99 7.957c-.055.189-.144.458-.185.575a6.28 6.28 0 01-.23.517c-.055.107-.19.281-.229.335-.04.054-.084.127-.03.091.054-.036.088-.075.103-.013.015.063.032.122.071.07.04-.052.254-.344.349-.642 0 0-.025.319-.356.726 0 0 .011.16-.05.284 0 0 .316-.298.505-.747.19-.45.21-.8.22-.955.009-.155-.058-.38-.07-.437-.013-.057-.042-.075-.05-.02a2.391 2.391 0 01-.048.216" id="Fill-7919" fill="#D4AF3A" mask="url(#mask-2)"/><path d="M18.404 8.794c-.053.122-.17.326-.22.415-.048.09-.17.246-.23.327-.06.082-.169.196-.245.276-.077.08-.2.163-.237.196-.036.034-.017.062-.001.085a.107.107 0 01.018.074c-.004.025.005.033.044.003.04-.032.348-.38.443-.43.095-.05-.148.246-.419.465 0 0-.051.02-.052.074 0 .054 0 .089-.019.132-.02.043-.043.086.032.035.074-.052.345-.241.498-.447.153-.204.334-.496.4-.864.067-.367.023-.407.012-.39a.212.212 0 00-.024.05" id="Fill-7920" fill="#D4AF3A" mask="url(#mask-2)"/><path d="M18.42 9.883a8.86 8.86 0 01-.315.326c-.062.059-.186.15-.29.226-.105.075-.196.147-.282.181-.086.034-.146.048-.178.082-.033.033-.06.059-.02.064.04.006.057.023.076.05.02.03.021.027.05.011.027-.016.497-.307.542-.338.046-.03.057-.011.025.015a25.37 25.37 0 01-.567.364c-.034.02-.036.016-.04.068-.004.053-.033.098 0 .097.23-.01.487-.206.748-.447.235-.219.382-.528.396-.774.005-.08-.005-.088-.05-.035-.044.052-.062.07-.094.11" id="Fill-7921" fill="#D4AF3A" mask="url(#mask-2)"/><path d="M18.538 10.607c-.273.193-.45.338-.774.45a3.379 3.379 0 01-.358.094c-.037.008-.045.038-.078.071a.71.71 0 01-.11.09c-.035.021-.044.033.006.03.051-.005.359-.072.464-.113a.908.908 0 00.183-.086c.03-.02.058-.024.015.014-.043.038-.1.06-.228.11-.13.051-.346.091-.449.117-.102.026-.16.026-.09.042.07.016.112.034.13.06.017.027.004.08-.003.105-.007.026.002.047.09.026.09-.022.44-.134.704-.319.265-.185.39-.35.472-.47.082-.12.1-.226.106-.255.006-.027-.036-.004-.08.034" id="Fill-7922" fill="#D4AF3A" mask="url(#mask-2)"/><path d="M17.13 11.825s.278-.025.66-.163c.381-.137.568-.268.617-.3.048-.033.05-.024.038.04a.893.893 0 01-.3.458c-.208.168-.553.264-.66.283a2.81 2.81 0 01-.513.041s.037-.072.003-.12c-.034-.048.008-.04.056-.044.047-.005.509-.08.64-.135.133-.054-.013-.011-.072.003-.06.013-.337.051-.484.072a.54.54 0 01-.243-.001c-.054-.013-.047-.02.018-.03a.516.516 0 00.178-.062c.041-.028.037-.042.062-.043" id="Fill-7923" fill="#D4AF3A" mask="url(#mask-2)"/><path d="M17.932 12.244c-.107.04-.314.092-.583.1-.27.007-.357-.01-.404-.017-.046-.008-.07.009-.11.03-.038.022-.07.034-.115.062-.046.029.006.053.053.068.047.014.238.052.352.037.114-.015.073.006.02.02a1.214 1.214 0 01-.327.002c-.12-.014-.13-.022-.171-.028-.04-.006-.046.04-.05.081-.002.042-.014.052-.032.08-.018.026-.028.058.031.079.06.02.34.064.676.01s.47-.113.583-.208a.755.755 0 00.203-.257c.045-.086.024-.11-.126-.059" id="Fill-7924" fill="#D4AF3A" mask="url(#mask-2)"/><path d="M17.56 12.921c-.118.02-.298.042-.552.037a1.509 1.509 0 01-.523-.104c-.046-.025-.11-.015-.178.004-.068.02-.107.008-.068.052a.671.671 0 00.276.128c.098.019.13.021.177.027.046.006.06.029.017.03a1.544 1.544 0 01-.311-.057 1.18 1.18 0 01-.22-.074c-.053-.023-.059.052-.038.096.02.044.056.089.265.169.208.08.407.126.63.102.223-.024.344-.049.478-.171.135-.124.183-.267.047-.239" id="Fill-7925" fill="#D4AF3A" mask="url(#mask-2)"/><path d="M16.892 13.557a4.219 4.219 0 01-.564-.216c-.089-.042-.168-.103-.207-.127-.04-.024-.064.01-.138.02-.076.01-.097.008-.138.01-.041 0-.037.015.008.057s.142.116.258.168c.115.05.161.087.117.074a1.499 1.499 0 01-.218-.089c-.053-.03-.117-.066-.149-.093-.031-.027-.035-.008-.036.03-.001.036.008.103-.08.15-.087.046-.038.048.004.07.042.024.51.227.772.23.263.003.397-.022.467-.115s.072-.112.06-.121c-.012-.009-.097-.03-.156-.048" id="Fill-7926" fill="#D4AF3A" mask="url(#mask-2)"/><path d="M16.377 14.07a1.952 1.952 0 01-.524-.237c-.11-.078-.357-.251-.487-.175 0 0 .18.194.38.311 0 0-.272-.054-.422-.277 0 0-.154.183.01.363.162.181.506.209.657.204a.99.99 0 00.418-.127c.073-.048.007-.05-.032-.062" id="Fill-7927" fill="#D4AF3A" mask="url(#mask-2)"/><path d="M15.17 13.985c.07.106.27.323.324.383.052.062.055.092-.03.114-.086.022-.272.09-.507-.037a.984.984 0 01-.397-.376c-.072-.11-.114-.31-.114-.31s.06.127.342.17c0 0 .145.25.326.32.18.07.01-.037-.051-.078a1.029 1.029 0 01-.186-.192c-.032-.042.06-.034.128-.034.067 0 .127-.008.164.04" id="Fill-7928" fill="#D4AF3A" mask="url(#mask-2)"/><path d="M14.394 13.931c.038.11.11.318.174.408.065.09.156.175.128.219-.027.044-.128.052-.226.033a.342.342 0 01-.23-.19c-.04-.089-.01-.111.005-.133.014-.023.032-.068.057-.033.025.034.076.091.096.11.02.02-.003-.054-.009-.08-.006-.026-.05-.076-.065-.1-.015-.024-.004-.033.007-.072l.04-.134c.007-.024.014-.055.023-.028" id="Fill-7929" fill="#D4AF3A" mask="url(#mask-2)"/><path d="M14.1 14.444s-.027.063-.226.226c0 0 .005.145.137.276 0 0-.165-.066-.22-.216 0 0-.192.136-.363.208 0 0 .157.148.206.258.049.11-.008.037-.033.004a2.267 2.267 0 00-.22-.204c-.033-.023-.085.01-.145.039-.06.028-.108.04-.13.055-.024.014-.014.026.076.108s.14.141.194.207c.055.067.233.291.292.356.06.066.24.295.256.321 0 0-.05-.283-.076-.375-.026-.091-.003-.09.023-.016.026.073.122.4.132.442.01.04.019.039.051-.02.033-.057.082-.24.093-.364.011-.125.006-.194-.027-.242-.033-.05-.036-.075-.02-.1.015-.027.087.004.14.014.053.01.326-.02.425-.064a.5.5 0 00.136-.074c.025-.019.047-.032-.03-.027a2.215 2.215 0 01-.372-.024 1.13 1.13 0 01-.152-.049c-.053-.02-.04-.044.03-.024.07.02.16.042.281.052a.807.807 0 00.295-.03c.07-.018.096-.035.014-.05a1.658 1.658 0 01-.4-.183c-.076-.057-.216-.172-.271-.29-.056-.115-.095-.214-.095-.214" id="Fill-7930" fill="#D4AF3A" mask="url(#mask-2)"/><path d="M14.217 15.65c-.026.061-.02.155-.034.23-.014.073-.035.103.04.137.075.034.336.2.476.298.14.097.143.107.185.14.042.036.034-.052.036-.104a1.33 1.33 0 00-.065-.375.909.909 0 00-.123-.242c-.027-.032-.02-.052.04-.054a.99.99 0 00.276-.046c.085-.031.163-.054.22-.098.058-.044.03-.052-.034-.065a1.52 1.52 0 01-.261-.092c-.06-.029-.07-.007-.113.015-.043.023-.174.109-.298.133-.124.023-.134.019-.193.03-.06.011.081.165.12.234.039.07.072.125.062.138-.01.012-.074-.08-.103-.121a2.451 2.451 0 00-.164-.175c-.032-.032-.048-.024-.067.018" id="Fill-7931" fill="#D4AF3A" mask="url(#mask-2)"/><path d="M15.492 15.873a5.071 5.071 0 01-.3 0 .303.303 0 01-.12-.07c-.036-.038-.021-.029.03-.032.052-.003.09-.025.123-.042.034-.016.066-.015.098.022a.53.53 0 00.152.097c.027.01.039.025.017.025" id="Fill-7932" fill="#D4AF3A" mask="url(#mask-2)"/><path d="M9.305 15.849s-.087.247-.11.369c-.024.12-.05.104-.145.159-.094.055-.263.147-.489.356-.226.209-.19.187-.249.264-.058.078-.07.102-.087.1-.016-.002-.009-.042-.03-.081-.021-.04-.047-.068-.066-.093-.02-.027-.05 0-.057.028a1.317 1.317 0 01-.052.168c-.02.042-.038.074-.06.065-.021-.009.008-.05-.004-.094-.012-.045-.032-.05-.038-.068-.007-.02.013-.042.016-.083.003-.04 0-.153-.053-.217-.054-.063-.117-.099-.122-.046a.383.383 0 01-.036.137c-.016.026-.04-.03-.037-.052.002-.022.035-.017.003-.087-.032-.07-.04-.086-.034-.097.007-.011.057-.012.167.02.11.03.184.06.234.074.05.014.036-.016-.01-.043a2.361 2.361 0 00-.366-.109c-.077-.015-.177-.01-.207.013-.031.023-.018.046-.009.086.01.04.039.212-.15.211-.187 0-.213-.214-.196-.28.016-.067.068-.18.246-.234.18-.053.653-.016.805-.009a1.15 1.15 0 00.496-.1c.107-.059.224-.15.26-.196.037-.044.075-.04.181-.07.107-.031.2-.091.2-.091" id="Fill-7933" fill="#D4AF3A" mask="url(#mask-2)"/><path d="M7.557 16.576c.003.045-.007.058-.012.08-.006.023-.002.045.037.06.038.014.044-.014.043-.038-.002-.025-.02-.066-.068-.102" id="Fill-7934" fill="#D4AF3A" mask="url(#mask-2)"/><path d="M7.81 16.743c-.015.076-.032.117-.069.147-.037.03-.017.045.03.054.133.026.08-.135.04-.2" id="Fill-7935" fill="#D4AF3A" mask="url(#mask-2)"/><path d="M8.103 17.035c-.005.04-.038.108-.05.134-.013.027-.006.036.011.06.018.025.046.02.063-.004s.062-.123-.024-.19" id="Fill-7936" fill="#D4AF3A" mask="url(#mask-2)"/><path d="M7.397 17.138a.808.808 0 01-.035-.133c-.007-.041-.035-.063-.076-.065-.041-.001-.033.055-.021.09.012.034.095.093.132.108" id="Fill-7937" fill="#D4AF3A" mask="url(#mask-2)"/><path d="M7.504 16.79c-.024.08-.064.086-.081.135-.018.048.004.088.042.09.039.005.106-.027.149-.063.043-.035.052-.093.034-.13-.02-.036-.116-.113-.144-.032" id="Fill-7938" fill="#D4AF3A" mask="url(#mask-2)"/><path d="M7.04 16.705c.014.076.064.119.099.18.035.06.035.123.01.146-.025.022-.122.006-.19-.055a.295.295 0 01-.086-.242c.01-.08.092-.129.123-.138.03-.009.067-.004.056.035-.012.04-.017.041-.013.074" id="Fill-7939" fill="#D4AF3A" mask="url(#mask-2)"/><path d="M7.67 17.28c-.114.018-.166.041-.2.095-.036.054-.061.064-.155.047-.093-.017-.277-.065-.304-.144-.027-.078-.02-.145.059-.133.08.012.112.014.179.011.066-.003.089.021.14.041.05.02.063-.04.091-.064.028-.023.11-.047.139-.066.029-.019.047-.064.095-.065.048 0 .12.015.151.095.032.08-.023.14-.071.16-.049.017-.053.017-.125.023" id="Fill-7940" fill="#D4AF3A" mask="url(#mask-2)"/><path d="M7.664 17.394c-.07.024-.11.038-.149.088-.038.05-.06.065-.111.047-.052-.018-.058-.028-.077-.01-.019.019-.002.055.032.078.034.024.089.014.113.029.024.014.09.031.13-.001.042-.033.07-.08.116-.103.045-.023.204-.026.257-.036.053-.01.127-.052.106-.132-.02-.08-.098-.088-.154-.081-.055.007-.128.078-.263.121" id="Fill-7941" fill="#D4AF3A" mask="url(#mask-2)"/><path d="M7.855 17.72c.038.052.056.169.043.263-.013.094-.013.174.04.104a1.42 1.42 0 00.1-.146c.018-.031.037-.045.088-.038a.785.785 0 00.18.005c.068-.006.07-.028 0-.069a.904.904 0 01-.215-.179c-.036-.048-.029-.06-.077-.046a.371.371 0 01-.139.014c-.056-.002-.087.012-.02.091" id="Fill-7942" fill="#D4AF3A" mask="url(#mask-2)"/><path d="M7.222 16.308c.08-.03.151-.044.148-.163a.885.885 0 00-.098-.362c-.056-.11-.149-.273-.206-.322-.058-.05-.122-.06-.145.025a1.128 1.128 0 00-.009.421c.029.125.178.331.213.37.034.038.065.038.097.031" id="Fill-7943" fill="#D4AF3A" mask="url(#mask-2)"/><path d="M6.791 15.065c-.09.039-.092.171-.064.228.03.057.095.095.194.076.1-.017.117-.144.098-.205-.02-.062-.095-.13-.228-.099" id="Fill-7944" fill="#D4AF3A" mask="url(#mask-2)"/><path d="M6.28 14.287c.08.25.18.458.293.56.114.1.195.119.205.034.009-.087.032-.178.035-.23a1.52 1.52 0 00-.11-.444 8.674 8.674 0 00-.27-.483 3.6 3.6 0 01-.243-.587 1.31 1.31 0 01-.064-.482c.006-.054.056-.134.046-.161-.01-.028-.051-.02-.08.01a.438.438 0 00-.095.188s-.14-.013-.211-.002c-.07.012-.113.017-.092.054.02.036.133.07.176.096.043.027.14.172.207.4.068.227.112.611.127.728.015.118.059.246.077.319" id="Fill-7945" fill="#D4AF3A" mask="url(#mask-2)"/><path d="M5.785 11.938c.011.08-.002.145.04.175.04.03.124-.03.147-.047.023-.017.037-.019.06.05.021.07.046.118-.019.123-.065.005-.147.013-.147.045s.07.16.089.185c.019.024.054.067.034.096-.02.03-.08.053-.103.059-.023.007-.047-.007-.06-.05-.014-.041-.052-.184-.063-.214-.011-.031-.034-.034-.06-.016a2.513 2.513 0 00-.094.07c-.018.014-.033 0-.053-.034a.37.37 0 01-.042-.083c-.009-.027-.001-.043.024-.05l.133-.04c.034-.011.03-.035.019-.058l-.086-.156c-.016-.03-.005-.047.013-.056a.733.733 0 01.12-.055c.037-.012.045.018.048.056" id="Fill-7946" fill="#D4AF3A" mask="url(#mask-2)"/><path d="M12.777 15.248c.05.13.124.308.198.414.074.107.196.158.275.293.079.135.104.389.031.423-.072.033-.202-.03-.231-.1-.03-.068-.083-.199-.115-.231 0 0 .06.245.069.367.009.124.024.195-.082.247-.106.053-.187-.078-.246-.2-.06-.12-.086-.143-.106-.15 0 0-.009.056.026.19.036.133.057.188.046.332-.01.144-.084.141-.133.14-.05 0-.123-.162-.158-.29-.035-.128-.043-.183-.065-.185-.023-.002-.015.046-.027.186s-.04.378-.157.381c-.116.003-.151-.268-.16-.356-.01-.087.006-.222-.024-.225-.03-.003-.066.194-.097.294-.03.1-.08.224-.176.205-.097-.02-.101-.247-.076-.367.025-.12.102-.338.071-.359-.03-.02-.093.229-.167.315-.074.087-.114.126-.19.102-.078-.024-.106-.244-.07-.385.036-.14.093-.262.079-.271-.015-.009-.087.113-.117.215-.03.103-.22.187-.263.136-.043-.05-.035-.318.039-.44.074-.123.149-.188.22-.261.073-.073.246-.415.246-.415s.283.083.679.577c0 0 .552-.607.681-.582zm-1.75.927a.669.669 0 01.165-.302c.052-.044.05-.036.018.01-.031.047-.068.094-.109.186-.04.093-.043.078-.055.12-.012.042-.028.024-.019-.014zm1.944-.312c.043.063.146.25.18.333.032.082.012-.049-.009-.11a.594.594 0 00-.1-.178c-.042-.05-.114-.103-.071-.045zm-.255.277a.677.677 0 00.112.283c.036.046-.005-.085-.018-.135-.013-.05-.05-.13-.06-.157-.012-.026-.041-.055-.034.009zm-.335.216a.693.693 0 00.08.198c.025.026.014-.004-.002-.063-.016-.06-.027-.112-.036-.143-.008-.03-.06-.074-.042.008zm-.305.075a1.05 1.05 0 000 .231c.01.065.03.014.03-.02-.002-.035.01-.155.011-.21.001-.057-.037-.035-.041-.001zm-.307-.07a.999.999 0 01-.045.173c-.014.028.01.028.03-.005a.813.813 0 00.055-.17c.005-.033-.014-.09-.04.003zm-.315-.242c-.046.074-.08.209-.098.27-.018.062.005.042.026.002.02-.038.085-.157.094-.225.008-.07.01-.105-.022-.047z" id="Fill-7947" fill="#D4AF3A" mask="url(#mask-2)"/><path d="M10.98 16.46a.27.27 0 00.132-.048c.025-.024.033-.013.035.041.002.054 0 .077 0 .077s-.15.11-.2.218c0 0 .135-.111.196-.14 0 0 .02.2.174.178 0 0 .033 0 .014.046-.02.045-.074.126-.084.184-.01.058-.003.075.025.024.028-.05.145-.26.173-.293.027-.031.052-.034.05.044a.49.49 0 00.051.221c.025.039.037.059.017.119-.02.06-.022.08-.033.12-.012.038.008.064.038.012.03-.051.059-.116.075-.147.017-.03.035-.03.068-.036a.212.212 0 00.125-.116c.019-.057.032-.052.042-.007a.44.44 0 00.12.2c.054.036.058.033.06.072.001.04.012.21.016.278.003.068.048.054.053-.001.006-.055.01-.221.009-.271-.001-.05.032-.054.066-.083a.375.375 0 00.11-.18c.018-.08.029-.037.049.005.02.04.05.083.093.096.043.012.074.005.097.043.024.038.055.11.084.159.03.05.048.02.036-.025-.012-.046-.031-.1-.044-.146-.013-.044-.01-.034.016-.083a.57.57 0 00.059-.23c-.005-.064.018-.069.041-.039.023.03.152.243.18.292.027.05.03.009.015-.036-.014-.044-.057-.11-.064-.157-.008-.046.004-.05.04-.051.037-.001.1-.02.119-.09.019-.07.029-.094.051-.074.023.02.076.053.118.086.041.034.042.002.02-.02-.022-.023-.125-.126-.143-.15-.019-.024-.02-.015-.02-.07 0-.057-.01-.095.012-.076a.334.334 0 00.12.055c.035.006.047-.007.078.038.03.044.122.14.157.255a.767.767 0 01.019.294c-.006.03-.08 0-.122-.027-.043-.026-.121-.098-.14-.115-.017-.016-.047-.017-.04.04.006.058.025.174.015.287-.01.113-.038.139-.098.11-.06-.029-.117-.094-.162-.136-.045-.043-.091-.06-.08.015.013.077.023.19.024.231.002.04.008.189-.051.202-.06.013-.095-.044-.152-.133-.057-.088-.114-.205-.161-.258-.047-.055-.054-.048-.06.032-.005.08-.036.399-.13.513-.095.114-.161.187-.25.12-.087-.067-.173-.148-.22-.371-.047-.223-.005-.325-.053-.333-.048-.008-.116.173-.183.278-.068.103-.12.162-.167.15-.047-.01-.078-.147-.06-.283.019-.135.031-.183.018-.195-.013-.012-.121.097-.184.147-.063.05-.172.062-.152-.158.02-.22.037-.26.019-.27-.019-.01-.08.078-.168.127-.088.05-.145.078-.143-.044a.582.582 0 01.091-.352c.082-.125.09-.133.101-.145.012-.012.018-.019.044-.02" id="Fill-7948" fill="#D4AF3A" mask="url(#mask-2)"/><path d="M12.137 18.594c.064.076.188.187.242.24.119.117-.136.473-.216.55-.063.062-.08.044-.14-.021-.073-.08-.332-.439-.209-.522.038-.026.235-.215.25-.244.014-.03.038-.049.073-.003zm-1.4-1.14c-.048.045-.08.057-.118.104a.394.394 0 01-.117.114c-.042.02-.106.05-.102.066.004.017.077-.024.114-.043.037-.018.1-.08.137-.107.036-.027.096-.094.108-.105.013-.01.031-.065-.021-.028zm2.693.023a1.4 1.4 0 00.175.167.744.744 0 00.163.088c.039.014.033.004.017-.01s-.1-.062-.139-.098a4.653 4.653 0 01-.175-.168c-.009-.013-.085-.04-.041.021zm-.39.343c.052.061.12.127.195.172.076.046.153.076.19.092.037.016.088.014.053-.004a1.406 1.406 0 01-.198-.116 1.757 1.757 0 01-.182-.166c-.027-.028-.11-.045-.059.022zm-.348.32c.039.044.132.133.173.158.04.025.083.008.124.042.04.035.077.062.096.03.02-.03-.04-.034-.085-.055a.57.57 0 01-.172-.122c-.082-.078-.233-.162-.136-.052zm-.34.268c.058.083.087.097.164.161a.972.972 0 01.172.178c.044.06.063.073.055.025a.256.256 0 00-.08-.152c-.06-.065-.212-.145-.257-.21-.044-.066-.11-.097-.054-.002zm-.292.389c.005.088.013.279.035.281.02.003.039-.242.037-.28-.002-.037-.068-.054-.072-.001zm-.278-.38c-.033.038-.167.125-.209.158a.348.348 0 00-.104.147c-.02.055-.018.098.012.06.03-.037.09-.114.127-.15.036-.035.13-.106.162-.133a.225.225 0 00.072-.111c.01-.043 0-.066-.012-.04-.012.023-.023.03-.048.068zm-.34-.288c-.04.036-.09.093-.136.122-.044.028-.127.066-.154.082-.028.014-.054.016-.045.039.01.022.04-.006.085-.026.046-.019.085-.03.108-.037a.282.282 0 00.102-.07c.024-.029.083-.086.104-.108.022-.02.037-.075-.064-.002zm-.336-.338c-.064.05-.112.114-.18.17a.878.878 0 01-.183.117c-.029.01-.041.03-.008.02.033-.008.179-.084.226-.11.047-.024.143-.121.17-.143.027-.022.062-.04.048-.066-.015-.027-.044-.008-.073.012zm2.452-.648c.043.08.045.112.15.21.106.1.203.17.277.23.074.06.17.111.239.15.07.037.085.071-.018.12a.808.808 0 01-.445.077c-.162-.029-.27-.125-.35-.185-.079-.061-.196-.138-.247-.201-.051-.063-.04-.06.002-.082.042-.023.046-.08.047-.145 0-.066-.014-.172-.01-.22.005-.048-.009-.09.038-.048a.624.624 0 00.176.104c.048.017.07.023.076-.02.006-.046.016-.077.065.01zm-.489.35a.439.439 0 00.188.213c.097.059.13.064.217.149.087.083.144.113.206.156.062.044.16.1.178.224.018.124.007.15-.079.156a.876.876 0 01-.364-.084 2.367 2.367 0 01-.4-.255 2.087 2.087 0 01-.231-.245c-.038-.05-.008-.05.03-.065.036-.016.075-.055.085-.124.01-.069-.001-.198-.003-.237-.002-.04.023-.007.051.02.028.026.04.03.06.038.02.008.046.009.062.054zm-.34.337c.05.085.146.173.212.222.067.049.262.2.348.257a.33.33 0 01.138.23c.011.079-.024.148-.09.107a1.084 1.084 0 00-.297-.119 1.31 1.31 0 01-.423-.21.755.755 0 01-.205-.276c-.06-.123-.076-.108-.044-.183.031-.077.05-.092.074-.203.023-.11.021-.218.049-.184.027.033.026.093.08.165a.35.35 0 00.099.104c.04.03.038.053.06.09zm-.39.17c.026.08.11.206.187.291.078.086.18.123.291.267a.422.422 0 01.078.386c-.028.103-.082.129-.165.05-.083-.078-.289-.248-.406-.355-.116-.106-.146-.18-.16-.289-.014-.11-.032-.179-.025-.213.006-.034.045-.044.081-.09.036-.045.086-.164.119-.047zm-.484.011a.774.774 0 01-.233.33c-.093.07-.276.187-.32.327-.045.14-.029.248.014.325.043.076.099.058.169-.008.07-.065.228-.214.367-.34.138-.128.163-.197.179-.3a2.67 2.67 0 00.025-.212c.002-.03-.053-.06-.075-.083a.497.497 0 01-.057-.076c-.017-.025-.04-.032-.069.037zm-.392-.186a.735.735 0 01-.21.225c-.112.08-.238.143-.316.213-.079.07-.15.145-.17.258-.02.113.022.177.096.126a1.63 1.63 0 01.38-.155 1.34 1.34 0 00.352-.19c.061-.047.175-.208.207-.283.031-.074.069-.095.03-.154a1.422 1.422 0 01-.11-.324c-.014-.073-.02-.096-.046-.023-.027.072-.043.135-.099.178a.327.327 0 00-.114.129zm-.36-.292a.476.476 0 01-.187.183c-.092.052-.174.136-.28.207-.105.071-.201.101-.257.21-.055.111-.081.156-.044.227.037.07.29.013.402-.036.11-.048.311-.203.357-.225a1.17 1.17 0 00.205-.16.694.694 0 00.124-.154c.017-.034-.007-.027-.034-.036-.027-.008-.091-.023-.095-.132-.003-.11 0-.174.003-.228.003-.055-.013-.02-.047.011-.035.033-.026.04-.065.043-.039.002-.057.026-.082.09zm-.475-.37c-.032.074-.053.124-.13.183-.076.058-.214.176-.288.227-.074.051-.13.1-.214.138-.083.039-.125.06-.075.1a.53.53 0 00.269.112c.152.027.274.027.374-.032.101-.06.153-.098.24-.17.085-.07.125-.084.172-.119a.23.23 0 00.085-.1c.012-.032-.03-.021-.056-.052-.025-.03-.026-.11-.023-.169.003-.06.013-.17.006-.211-.007-.042-.014-.035-.056-.003-.041.032-.104.083-.155.09-.052.008-.082-.013-.083-.055-.002-.042-.026-.033-.066.061z" id="Fill-7949" fill="#D4AF3A" mask="url(#mask-2)"/><path d="M8.045 18.025c-.019.049-.019.06.02.099.04.039.05.086.07.01.02-.077.026-.1.002-.12-.025-.02-.068-.03-.092.01" id="Fill-7950" fill="#D4AF3A" mask="url(#mask-2)"/><path d="M14.91 15.873c.048.133.094.267.102.337.008.07.012.065.075.1.063.037.72.37.816.441.097.07.267.226.506.187.24-.04.78-.218.92-.259.141-.041.424-.119.547-.192.124-.073.224-.135.228-.241.003-.106.007-.122-.052-.171-.06-.05-.146-.062-.159.014-.013.075-.024.203-.11.275a1.066 1.066 0 01-.241.154c-.065.028-.191.017-.236-.041-.044-.058-.026-.172.03-.212.058-.042.187-.088.215-.176.028-.086.026-.15-.055-.203-.08-.052-.183-.044-.231.023a.685.685 0 00-.107.223c-.021.081-.2.278-.434.247-.233-.03-.292-.062-.346-.176-.054-.114-.113-.35-.162-.45-.048-.101-.136-.13-.196-.041-.06.088-.067.134-.052.224.016.09.14.194.185.289.044.095.085.181.09.248.005.068-.038.07-.124.066-.086-.004-.099-.022-.188-.094-.09-.071-.532-.384-.56-.416-.028-.031-.065-.024-.121-.031a.655.655 0 01-.233-.086c-.053-.039-.127-.08-.107-.039" id="Fill-7951" fill="#D4AF3A" mask="url(#mask-2)"/><path d="M17.422 15.652c0 .051-.01.071-.018.11-.01.04.024.052.059.064.035.011.063-.016.056-.048a.395.395 0 00-.048-.118c-.02-.029-.062-.08-.05-.008" id="Fill-7952" fill="#D4AF3A" mask="url(#mask-2)"/><path d="M17.963 15.862c-.008.024-.024.05-.008.082.017.03.033.04.055.045.021.003.032-.052.026-.078a.21.21 0 00-.027-.068c-.01-.016-.025-.03-.046.02" id="Fill-7953" fill="#D4AF3A" mask="url(#mask-2)"/><path d="M16.23 15.434a.362.362 0 00-.023.14c.004.032.007.046-.03.04-.036-.005-.068-.03-.064-.07.003-.038.043-.087.068-.112.025-.026.08-.052.048.002" id="Fill-7954" fill="#D4AF3A" mask="url(#mask-2)"/><path d="M17.503 14.228c.055.012.096.035.074.084-.022.048-.036.05-.057.093-.02.042-.023.054.029.053.051-.002.087-.004.123.002.037.004.032.03.021.06l-.03.09c-.006.022-.031.02-.06.001-.03-.017-.084-.056-.106-.045-.022.01-.033.022-.033.1 0 .079-.006.136-.005.153 0 .017-.011.025-.058.015a.73.73 0 01-.13-.038c-.023-.011-.016-.041.004-.077s.049-.103.068-.138c.019-.033.009-.079-.035-.074a1.27 1.27 0 00-.125.019c-.053.01-.003-.232.051-.178.045.045.062.059.099.065.036.005.06.002.057-.064-.002-.066 0-.08-.001-.106 0-.026.026-.037.114-.015" id="Fill-7955" fill="#D4AF3A" mask="url(#mask-2)"/><path d="M17.19 14.833c.056.006.277.068.31.087.033.018.024.055.009.096-.016.04-.094.333-.113.388-.02.054-.009.09.043.099.052.008.422.086.47.106.049.02.052.058.044.098-.009.04-.018.185-.079.245-.06.06-.19.003-.235-.019-.045-.021-.064-.091-.087-.187-.023-.097-.094-.185-.126-.188-.031-.003-.044.094-.054.154-.01.06-.02.049-.074.089a.198.198 0 01-.187.033c-.075-.023-.734-.15-.792-.165-.057-.015-.052-.06-.047-.122.006-.06.062-.231.078-.268.016-.038.062-.018.145 0 .082.017.388.09.436.098.047.01.09.012.117-.062.027-.074.087-.406.095-.439.008-.033.006-.051.048-.043zm.578.843a.057.057 0 010 .113.057.057 0 110-.113zm-.625-.13c.031 0 .056.025.056.056a.057.057 0 01-.056.057.057.057 0 010-.114zm-.32-.072a.057.057 0 010 .114.057.057 0 01-.057-.057c0-.031.025-.057.057-.057zm-.325-.08a.057.057 0 010 .114.057.057 0 01-.057-.057c0-.031.025-.057.057-.057zm.731-.132a.057.057 0 010 .114.057.057 0 01-.056-.057c0-.03.025-.057.056-.057zm.088-.286a.057.057 0 010 .114.057.057 0 01-.056-.057c0-.032.025-.057.056-.057zm-.01-.045c.061 0 .11.05.11.112a.11.11 0 01-.11.11.11.11 0 01-.11-.11.11.11 0 01.11-.112zm.451.7a.11.11 0 010 .222.11.11 0 010-.221zm-.62-.121a.11.11 0 010 .222.11.11 0 01-.109-.112c0-.061.05-.11.11-.11zm-.326-.083c.06 0 .11.05.11.111a.11.11 0 11-.22 0 .11.11 0 01.11-.111zm-.322-.076a.107.107 0 11-.107.108c0-.06.048-.108.107-.108zm.738-.136c.06 0 .11.05.11.111a.11.11 0 01-.11.111.111.111 0 010-.222z" id="Fill-7956" fill="#D4AF3A" mask="url(#mask-2)"/><path d="M10.46 10.264s.867.376 1.641-.02c0 0 .575.406 1.636.012l.625.726s-.24.3-.224.85c.015.55.08.793.125.982.044.188.138.782.025 1.09-.113.308-.233.555-.556.754-.322.2-.793.346-1.034.484-.24.139-.522.359-.6.482 0 0-.312-.347-.562-.464-.25-.117-.732-.33-.946-.425a1.338 1.338 0 01-.6-.628 1.77 1.77 0 01-.115-.993c.072-.427.14-.648.17-.893.029-.244.011-.63-.026-.792a2.665 2.665 0 00-.178-.44l.618-.725zm1.638.175s.75.437 1.488.033l.547.633s-.281.324-.19.94c.09.616.184 1.015.196 1.311.014.297-.104.744-.415 1.026-.311.281-.578.349-.91.504-.33.155-.58.323-.719.48 0 0-.359-.32-.635-.436-.276-.116-.76-.343-.973-.544-.213-.202-.462-.606-.43-1.015a9.58 9.58 0 01.172-1.173c.061-.276.094-.727-.158-1.092l.535-.635s.55.383 1.492-.032z" id="Fill-7957" fill="#D4AF3A" mask="url(#mask-2)"/><path d="M10.185 13.768s-.028-.063-.031-.116h3.892s-.012.09-.029.114l-3.832.002" id="Fill-7958" fill="#D4AF3A" mask="url(#mask-2)"/><path d="M11.142 11.33c.035.063.103.115.232.12.13.006.107.094.035.094-.071 0-.172-.009-.225-.07-.052-.06-.087-.219-.042-.144" id="Fill-7959" fill="#D4AF3A" mask="url(#mask-2)"/><path d="M11.914 11.061c.059-.025.074-.036.119-.03.045.008.057.015.05.043-.009.027-.067.006-.11.034-.043.026-.056.033-.082.013-.026-.02-.03-.042.023-.06" id="Fill-7960" fill="#D4AF3A" mask="url(#mask-2)"/><path d="M12.13 11.209c0 .055-.036.072-.023.1.012.027.106-.022.144-.052.038-.03.042-.053-.007-.073-.05-.02-.122-.027-.115.025" id="Fill-7961" fill="#D4AF3A" mask="url(#mask-2)"/><path d="M12.163 11.378c.05.01.11.06.14.088.032.03.032.044-.024.066-.056.022-.125.021-.154.05-.03.03-.076.052-.11.039-.032-.014-.021-.048-.033-.097-.012-.048-.007-.063.028-.099.036-.036.067-.065.153-.047" id="Fill-7962" fill="#D4AF3A" mask="url(#mask-2)"/><path d="M12.211 11.718c.06.054.108.097.102.124-.006.027-.088.037-.152.039-.064.001-.096.017-.1.04-.003.025.019.038.071.113.053.074.115.202.073.219-.043.017-.097-.035-.141-.047-.044-.012-.044-.005-.04.057.005.062.013.14-.026.154-.04.013-.1-.068-.117-.088-.017-.02-.042-.016-.054.058-.012.073-.024.195-.068.206-.043.012-.094-.133-.111-.173-.018-.04-.04-.063-.063-.003s-.037.173-.081.176c-.044.002-.078-.119-.076-.209.001-.09.017-.123-.01-.137-.025-.015-.082.076-.11.112-.03.036-.075.103-.114.097-.04-.006-.069-.075-.081-.138a.146.146 0 01.062-.153c.046-.028.135-.076.17-.092.035-.018.028.032.031.058.003.027.042.03.078.004.035-.026.082-.04.103-.012.021.028-.002.108.044.137.045.029.11-.03.15-.089.039-.059.026-.098-.03-.052-.056.045-.07.068-.101.057-.03-.01-.003-.094.009-.137.012-.043-.027-.033-.067-.007-.04.027-.095.056-.117.044-.022-.01.006-.064.009-.092.003-.028-.018-.028-.087.01a17 17 0 01-.166.09c-.034.018-.065.03-.028-.03a.384.384 0 01.135-.151c.06-.035.189-.044.221-.06.033-.014.105-.054.147-.08.042-.027-.024-.076-.062-.09a.562.562 0 00-.176-.025c-.05.003-.083-.04-.02-.06.062-.02.093-.032.11-.062.017-.029-.023-.081-.06-.093-.038-.012-.081-.016-.116-.026-.035-.01-.032-.043-.006-.066.027-.021.026-.035-.007-.04-.034-.005-.035-.04-.027-.069.007-.03.086-.04.128-.052.042-.011.092-.013.12-.022.03-.01.032-.04.068-.057a.363.363 0 01.143-.02c.043.002.07.042.084.067.015.026-.01.045.003.07.013.027.011.054.028.047.017-.007.02-.063.043-.086.024-.024.094-.056.122-.03.029.025.053.06.019.119-.034.057-.04.08-.051.107-.012.028-.04.028-.052.008-.01-.018-.029-.035-.047.002-.018.036-.003.054-.046.073-.043.019-.096.018-.1.037-.005.02.073-.004.1-.006a.062.062 0 01.06.037.122.122 0 01-.027.12c-.038.041-.071.065-.05.085.02.02.058-.044.09-.061.032-.018.039.003.074.007.036.003.098-.032.19.041zm-.483-.564a.064.064 0 110 .129.064.064 0 010-.129z" id="Fill-7963" fill="#D4AF3A" mask="url(#mask-2)"/><path d="M10.867 11.45a1.156 1.156 0 00-.023.258c.003.059.054.167.092.253.039.085.038.102.076.12.038.019.078.006.064.062-.014.056-.03.118-.035.147-.004.03-.01.055-.06.04a.233.233 0 01-.163-.148c-.027-.09-.027-.235-.06-.3-.034-.066-.104-.026-.15-.05-.045-.023-.067-.054-.09-.08-.023-.026-.003-.04.01-.052.013-.011.031-.018.054 0a.074.074 0 00.087-.002c.025-.02.024-.1-.018-.153-.042-.053-.08-.126-.05-.158s.071-.01.099.011c.027.02.045.005.03-.03-.016-.036-.01-.063.006-.069.016-.005.029.015.051.048.023.034.03.038.036.005.005-.034.032-.027.046-.018.015.009.019.033-.002.117" id="Fill-7964" fill="#D4AF3A" mask="url(#mask-2)"/><path d="M10.877 11.248c-.015.022-.009.043.001.05.01.005.024-.023.023-.045-.002-.021-.006-.032-.024-.005" id="Fill-7965" fill="#D4AF3A" mask="url(#mask-2)"/><path d="M10.719 11.205c0 .027-.003.041.005.052.009.01.037-.012.04-.035.005-.026-.043-.091-.045-.017" id="Fill-7966" fill="#D4AF3A" mask="url(#mask-2)"/><path d="M10.561 11.285c.01.04.023.063.05.049.027-.014.013-.042-.01-.062-.023-.019-.052-.04-.04.013" id="Fill-7967" fill="#D4AF3A" mask="url(#mask-2)"/><path d="M10.444 11.627c.003.036.011.05.027.053.015.002.023-.01.032-.02.008-.01-.021-.021-.03-.038-.01-.015-.036-.041-.029.005" id="Fill-7968" fill="#D4AF3A" mask="url(#mask-2)"/><path d="M11.086 12.623c-.018.063.009.157.084.107.075-.05.12-.088.168-.053.048.034.036.098.06.179.026.08.078.12.12.038.04-.082.053-.16.093-.16.041-.001.098.081.131.124.033.042.074-.021.092-.065.018-.042.021-.047.043-.064.021-.018.042-.025.025.009-.016.033-.032.06-.013.076.02.016.137-.039.267-.09s.376-.063.49-.074c.112-.01.174-.07.085-.07-.09 0-.22.01-.266.023-.046.014-.096.011-.084-.01.012-.022.152-.046.206-.054.053-.01.165-.014.195.006s.029.083.024.135c-.005.053.01.187.078.252.069.066.171.106.21.122.039.015.04-.038.046-.062.006-.025.083.011.111.023.029.01.094.026.113.048.02.023.032.097.032.158-.002.061-.01.071-.046.109-.035.038-.05.068-.105.075-.056.007-.14.029-.166.06-.027.033-.03.057-.016.082a.13.13 0 01.014.056h.02s.021-.056.075-.073c.053-.016.095.013.104.03a.164.164 0 01.011.043h.178s.102-.197.12-.24c.018-.044.013-.158.016-.18a1.559 1.559 0 00-.01-.214c-.007-.046.001-.108-.001-.155-.003-.046-.038-.062-.133-.068-.094-.008-.158-.097-.179-.123-.021-.027-.031-.175-.065-.245s-.085-.102-.167-.129a1.06 1.06 0 00-.26-.036 2.484 2.484 0 00-.323.01c-.057.006-.108 0-.153.003-.046.003-.049.018-.03.051.018.034.026.058-.023.07-.05.012-.068.008-.125.012-.058.005-.057.012-.067.053-.01.04-.014.076-.042.112-.027.035-.054.025-.085.01-.03-.013-.052-.001-.072.044a.348.348 0 01-.061.1c-.024.026-.052.025-.086.003a.25.25 0 01-.078-.08c-.015-.027-.038-.06-.075.012-.036.07-.055.078-.075.076-.02-.002-.059-.042-.085-.088-.026-.045-.05-.102-.073-.107-.022-.004-.064.029-.094.056-.029.028-.047.041-.07.028-.022-.012-.054-.028-.083.045" id="Fill-7969" fill="#D4AF3A" mask="url(#mask-2)"/><path d="M11.185 12.913c-.018.129-.026.223-.068.298a.684.684 0 01-.142.18c-.053.046-.11.013-.148.044-.038.03-.06.078-.046.104.013.026.054.022.086-.01.032-.032.073-.033.088-.026.014.006-.002.024.007.044.009.02.035.057.035.057s.212-.002.212 0 .03-.099.05-.18a2.07 2.07 0 01.09-.327c.03-.063.032-.089.002-.15-.031-.064-.028-.091-.045-.133-.017-.043-.07-.056-.093-.018-.025.038-.02.067-.028.117" id="Fill-7970" fill="#D4AF3A" mask="url(#mask-2)"/><path d="M12.446 13.104c.04.054.06.09.021.159a.798.798 0 01-.098.146c-.019.019-.067.023-.09.014-.024-.009-.072-.027-.114-.006-.042.022-.067.043-.054.067.013.022.047.004.076.034.029.03.006.085.006.085h.262s.075-.079.084-.103c.009-.024.101-.116.115-.15a.236.236 0 00-.008-.152c-.02-.042-.05-.095-.048-.147.001-.053.076-.103.1-.122.024-.019.063-.101.015-.132-.048-.03-.165-.036-.244-.022-.078.013-.124.085-.147.143-.024.057-.014.113.01.127.023.014.037-.013.064.006a.24.24 0 01.05.053" id="Fill-7971" fill="#D4AF3A" mask="url(#mask-2)"/><path d="M13.13 13.605s.03-.054.085-.044c.056.01.042.044.042.044h-.127" id="Fill-7972" fill="#D4AF3A" mask="url(#mask-2)"/><path d="M12.924 13.604s.03-.045.085-.047c.055-.002.048.048.048.048l-.133-.001" id="Fill-7973" fill="#D4AF3A" mask="url(#mask-2)"/><path d="M12.07 13.602s.067-.079.091-.056c.024.023.006.058.006.058l-.097-.002" id="Fill-7974" fill="#D4AF3A" mask="url(#mask-2)"/><path d="M11.96 13.604c.014-.032.071-.1.1-.096.03.006.013.038-.001.054-.015.017-.02.042-.02.042h-.079" id="Fill-7975" fill="#D4AF3A" mask="url(#mask-2)"/><path d="M10.818 13.603c.025-.023.059-.064.095-.054.036.009.042.055.042.055h-.137" id="Fill-7976" fill="#D4AF3A" mask="url(#mask-2)"/><path d="M10.644 13.603s.05-.056.089-.05c.039.006.047.052.047.052l-.136-.002" id="Fill-7977" fill="#D4AF3A" mask="url(#mask-2)"/><path d="M13.193 12.26s.155-.004.275-.049a.143.143 0 00.074-.219c-.04-.048-.088-.074-.312-.091-.225-.017-.41-.03-.527-.127-.117-.097-.147-.2-.075-.277.071-.078.227-.109.304-.137.077-.026.169-.087.298-.08.128.008.171.035.235.04.064.004.13.001.16-.006 0 0-.06.094-.172.128a.704.704 0 01-.324.012c-.08-.016-.126-.048-.228-.028-.102.02-.187.056-.212.137-.025.08.02.152.099.178.077.026.253.053.433.073.18.02.3.023.387.085.087.063.12.163.098.238-.023.076-.204.19-.455.19 0 0-.029-.045-.058-.067" id="Fill-7978" fill="#D4AF3A" mask="url(#mask-2)"/><path d="M11.855 4.853h.136v-.128s-.095.036-.136.128zm4.454 10.92c.025.107.116.45.434.459.317.01.362-.148.374-.195a.54.54 0 01.043-.102s-.333-.03-.85-.163zm1.517.36s-.048.194-.212.235c-.164.041-.208.018-.201-.04.006-.058.066-.108.14-.14a.289.289 0 00.118-.123s.118.011.155.068zm-.241-1.134s-.1.341-.114.398c-.012.057.013.068.032.071l.398.096c.034.008.057-.018.051-.05-.006-.033-.054-.335-.367-.515zm-1.179.196s.48.124.518.132c.037.009.05-.01.062-.043.011-.034.116-.442.116-.442s-.49-.022-.696.353zm-3.81-1.595c.02-.051.096-.169.12-.216.023-.048.034-.093-.006-.171-.04-.079-.023-.171.01-.2a.29.29 0 01.055-.038s.095.097.16.138a.291.291 0 00.175.051c.062 0 .086.005.094-.03.008-.034.004-.05.034-.04.03.01.052.014.074.023.023.007.03.057.037.098.007.04-.008.067-.03.097s-.023.043-.123.06-.138.039-.17.077c-.031.038-.016.058-.044.07-.027.012-.045.017-.063.036-.019.02-.028.049-.028.049s-.295-.002-.295-.004zm-1.266.003s.035-.265.076-.396c.04-.13.083-.204.135-.246.052-.042.156-.046.21-.034.054.012.123 0 .231-.029.108-.029.22-.069.258-.074.038-.004.043-.004.035.045a.823.823 0 00-.012.178c.004.056.022.082.043.09.022.007.023-.015.037-.023.014-.009.022.023.044.046.021.02.054.035.034.08a.7.7 0 01-.081.128c-.022.027-.048.022-.096.004s-.102-.004-.123.016c-.021.02-.014.043-.068.072-.054.03-.075.038-.099.071a.154.154 0 00-.026.072h-.598zm-1.17-2.476l.484-.547s.52.356 1.453-.029c0 0 .859.361 1.464.037l.474.545s-.204.37-.175.775c.03.405.159.953.187 1.283.027.33 0 .415 0 .415h-.465s.097-.167.116-.278c.02-.11-.002-.312-.008-.385-.006-.073-.004-.178-.075-.22-.07-.043-.2-.005-.25-.056-.05-.05-.044-.12-.049-.159a.444.444 0 00-.036-.103s.354-.058.422-.127c.069-.069.096-.223.043-.31-.051-.088-.124-.145-.35-.168-.226-.024-.432-.029-.535-.068-.103-.04-.168-.155-.075-.233.093-.077.162.028.398.043a.58.58 0 00.435-.129c.046-.046.066-.09.047-.132-.018-.043-.08.011-.114.012a1.119 1.119 0 01-.194-.033.643.643 0 00-.345.033l-.24.09c-.072.027-.179.073-.212.202-.034.128.102.263.215.3.113.037.242.068.407.075.165.006.273.032.298.096.025.064.03.155-.202.164-.233.008-.207-.025-.316-.038a2.289 2.289 0 00-.421.002c-.142.013-.293 0-.293 0s-.034-.11-.062-.145c-.028-.035-.022-.06.021-.06a.495.495 0 00.194-.065c.032-.025.015-.048-.017-.075-.031-.027-.05-.04-.076-.08-.026-.039-.07-.053-.08-.073-.012-.02-.009-.035.035-.055a.32.32 0 00.112-.084c.026-.032.032-.049.003-.077a1.63 1.63 0 00-.09-.086c-.021-.016-.025-.053.01-.076a.253.253 0 00.067-.09c.009-.016-.009-.053-.065-.072-.057-.018-.115 0-.138-.015-.024-.015-.007-.06-.017-.084-.01-.026-.051-.049-.092-.062-.04-.014-.104.011-.156.034a.603.603 0 01-.194.02.229.229 0 00-.136.045c-.033.029-.069.036-.12.052-.05.017-.127.03-.156.058a.065.065 0 00-.02.074c.005.019.026.082.027.1 0 .017-.012.038-.049.013a.2.2 0 01-.074-.084c-.022-.04-.03-.062-.064-.033-.033.03-.043.094-.037.126a.227.227 0 00.114.14c.07.034.077.03.11.04.033.011.028.04.031.085.003.045.032.073.08.081.048.01.11.009.122.032.012.023-.064.029-.172.06-.109.03-.14.076-.162.11-.022.036-.025.078-.073.086-.047.01-.103.014-.125-.034-.023-.05-.097-.171-.107-.284a.772.772 0 01.021-.262c.014-.051.005-.1.01-.143a.2.2 0 00-.015-.112c-.015-.03-.036-.057-.044-.016-.009.041-.014.067-.03.08-.014.014-.034.027-.032-.013.002-.041-.01-.066-.04-.096-.031-.03-.055-.037-.069-.011-.014.028-.006.037-.003.078.002.041-.011.087-.041.06-.03-.029-.047-.066-.085-.068-.039-.001-.055.016-.044.055.01.037.019.104.016.129-.003.024-.01.07.01.115.022.044.064.106.036.129-.029.023-.086-.057-.11-.083-.024-.026-.065-.033-.064.03 0 .063.017.135.069.216.052.082.093.101.127.104.034.003.072-.018.085.069.014.088.04.22.057.307s.063.136.122.154c.06.02.138.024.17.021.03-.002.042.01.044.023.003.012.022.04-.005.074a.348.348 0 00-.045.185c0 .067.027.095.053.092.025-.003.071-.037.057.073-.015.11-.025.225-.094.341-.068.116-.082.133-.164.147-.081.015-.107.015-.124.053-.017.036-.006.07-.045.086-.039.017-.103.051-.117.078h-.45c-.029-.438.09-.97.152-1.418l.002-.01c.037-.262.085-.56-.143-1.046zm1.69-6.095s.51-.006.51 0-.08.17-.253.17c-.172 0-.256-.17-.256-.17zm.503-.179h-.136v-.128s.096.036.136.128z" id="Fill-7979" fill="#1D5E91" mask="url(#mask-2)"/><path d="M10.202 13.835h3.788s-.121.424-.546.697c-.424.273-.917.324-1.343.76 0 0-.319-.335-.906-.537s-.925-.65-.993-.92" id="Fill-7980" fill="#6D8C3E" mask="url(#mask-2)"/></g></g></svg>