<svg width="24" height="24" xmlns="http://www.w3.org/2000/svg" xmlns:xlink="http://www.w3.org/1999/xlink"><defs><path d="M23.994 11.964c0 6.604-5.355 11.958-11.96 11.958C5.43 23.922.077 18.568.077 11.964.076 5.359 5.43.006 12.035.006c6.604 0 11.959 5.353 11.959 11.958z" id="path-1"/></defs><g id="Page-1" stroke="none" stroke-width="1" fill="none" fill-rule="evenodd"><g id="Марокко"><mask id="mask-2" fill="#fff"><use xlink:href="#path-1"/></mask><path id="Fill-7982" fill="#C20B18" mask="url(#mask-2)" d="M-5.905 23.922h35.878V.006H-5.905z"/><path d="M12.277 9.038l.583 1.73h2.867l-.797.56-1.523 1.067.581 1.723.297.885-.764-.536-1.535-1.076-1.536 1.076-.764.536.879-2.608-1.523-1.068-.797-.559h2.867l.874-2.594.291.864zm.79 2.346l.066.194.07.21.578-.404h-.714zm-.517.39l-.13-.39h-.867l-.132.39-.129.382.34.239.354.247.353-.247.34-.24-.129-.382zm-.338-1.006l-.226-.67-.226.67h.452zm.896 2.66l-.225-.666-.193.135-.17.12.588.411zm-1.656-.412l-.17-.119-.194-.135-.223.666.587-.412zm-1.261-1.632l.577.405.071-.21.066-.195h-.714z" id="Fill-7984" fill="#0C7843" mask="url(#mask-2)"/></g></g></svg>