<svg width="24" height="24" xmlns="http://www.w3.org/2000/svg" xmlns:xlink="http://www.w3.org/1999/xlink"><defs><path d="M24 12c0 6.627-5.373 12-12 12-6.628 0-12-5.373-12-12C0 5.372 5.372 0 12 0c6.627 0 12 5.372 12 12" id="path-1"/></defs><g id="Page-1" stroke="none" stroke-width="1" fill="none" fill-rule="evenodd"><g id="Панама"><mask id="mask-2" fill="#fff"><use xlink:href="#path-1"/></mask><use id="Clip-3685" fill="#F0F0F0" xlink:href="#path-1"/><path id="Star" fill="#0437A0" mask="url(#mask-2)" d="M6.75 7.875l-1.323.695.253-1.472-1.07-1.043 1.48-.215.66-1.34.661 1.34 1.479.215-1.07 1.043.253 1.472z"/><path id="Star" fill="#F90805" mask="url(#mask-2)" d="M17.25 18.375l-1.323.695.253-1.472-1.07-1.043 1.479-.215.661-1.34.661 1.34 1.479.215-1.07 1.043.253 1.472z"/><path id="Fill-3684" fill="#F90805" mask="url(#mask-2)" d="M24 12V0L12.132.033 12 12z"/><path id="Fill-3687" fill="#0437A0" mask="url(#mask-2)" d="M0 12.031V24l11.997-.031L12 12z"/></g></g></svg>