<svg width="24" height="24" xmlns="http://www.w3.org/2000/svg" xmlns:xlink="http://www.w3.org/1999/xlink"><defs><path d="M23.869 11.964c0 6.553-5.313 11.865-11.866 11.865S.137 18.517.137 11.964C.137 5.41 5.45.098 12.003.098S23.87 5.41 23.87 11.964z" id="path-1"/></defs><g id="Page-1" stroke="none" stroke-width="1" fill="none" fill-rule="evenodd"><g id="Португалия"><mask id="mask-2" fill="#fff"><use xlink:href="#path-1"/></mask><path id="Fill-8375" fill="#00840F" mask="url(#mask-2)" d="M-4.312 23.83h14.24V.097h-14.24z"/><path id="Fill-8377" fill="#FF1612" mask="url(#mask-2)" d="M9.927 23.83h21.358V.097H9.927z"/><path d="M12.575 15.061s.889.461 1.465.68c.577.217.779.157.803.097.024-.06.05-.108.05-.108l-.204-.37-1.425-1.177s-.624.126-.64.146c-.018.02-.05.732-.05.732z" id="Fill-8378" fill="#FF0" mask="url(#mask-2)"/><path d="M12.575 15.061s.889.461 1.465.68c.577.217.779.157.803.097.024-.06.05-.108.05-.108l-.204-.37-1.425-1.177s-.624.126-.64.146c-.018.02-.05.732-.05.732z" id="Stroke-8379" stroke="#000" stroke-width=".167" mask="url(#mask-2)"/><path d="M14.162 15.608c-.003 0-.888-.284-1.423-.573l-.015.027c.538.29 1.426.575 1.428.576l.01-.03" id="Fill-8380" fill="#000" mask="url(#mask-2)"/><path d="M15.189 8.838c.082-.002.143-.016.08-.103l-.138-.134-.03.178.088.06z" id="Fill-8381" fill="#FF0" mask="url(#mask-2)"/><path d="M15.189 8.838c.082-.002.143-.016.08-.103l-.138-.134-.03.178.088.06z" id="Stroke-8382" stroke="#000" stroke-width=".167" mask="url(#mask-2)"/><path d="M15.41 9.132c-.01.049-.018.099-.026.148l.058.059c.083.014.167-.047.108-.112l-.14-.095z" id="Fill-8383" fill="#FF0" mask="url(#mask-2)"/><path d="M15.41 9.132c-.01.049-.018.099-.026.148l.058.059c.083.014.167-.047.108-.112l-.14-.095z" id="Stroke-8384" stroke="#000" stroke-width=".167" mask="url(#mask-2)"/><path d="M5.294 15.049s1.72.56 4.622.539c1.374-.01 3-.112 4.86-.54l-.601.689c-1.857.572-5.18.917-8.297.059l-.584-.747z" id="Fill-8385" fill="#FF0" mask="url(#mask-2)"/><path d="M5.294 15.049s1.72.56 4.622.539c1.374-.01 3-.112 4.86-.54l-.601.689c-1.857.572-5.18.917-8.297.059l-.584-.747z" id="Stroke-8386" stroke="#000" stroke-width=".168" mask="url(#mask-2)"/><path d="M5.833 15.633c.204.057 1.141.264 2.212.408.627.086 1.3.15 1.9.15 1.762 0 4.22-.552 4.227-.553l.007.03c-.007 0-2.468.554-4.234.554-.6 0-1.276-.065-1.904-.15a22.185 22.185 0 01-2.216-.41l.008-.029" id="Fill-8387" fill="#000" mask="url(#mask-2)"/><path d="M5.463 15.205c.18.049 1.239.276 2.435.434.683.09 1.412.16 2.044.16 1.86 0 4.453-.552 4.46-.554l.007.03c-.008.002-2.604.554-4.467.554-.633 0-1.363-.068-2.049-.16a25.78 25.78 0 01-2.439-.436l.01-.028" id="Fill-8388" fill="#000" mask="url(#mask-2)"/><path d="M6.486 13.084s-1.354-.168-2.16-.48l-.002-.647s1.284.392 2.159.46l.003.667z" id="Fill-8389" fill="#FF0" mask="url(#mask-2)"/><path d="M6.486 13.084s-1.354-.168-2.16-.48l-.002-.647s1.284.392 2.159.46l.003.667z" id="Stroke-8390" stroke="#000" stroke-width=".167" mask="url(#mask-2)"/><path d="M4.366 12.09c.002 0 .971.33 1.971.418l-.002.031a9.523 9.523 0 01-1.979-.42l.01-.03" id="Fill-8391" fill="#000" mask="url(#mask-2)"/><path d="M4.385 12.478c.002 0 1.037.35 1.943.425l-.002.031c-.91-.074-1.949-.426-1.952-.427l.01-.029" id="Fill-8392" fill="#000" mask="url(#mask-2)"/><path d="M4.913 15.478c-.072.001-.158.012-.213-.083l.103-.172c.037.084.074.169.11.255z" id="Fill-8393" fill="#FF0" mask="url(#mask-2)"/><path d="M4.913 15.478c-.072.001-.158.012-.213-.083l.103-.172c.037.084.074.169.11.255z" id="Stroke-8394" stroke="#000" stroke-width=".168" mask="url(#mask-2)"/><path d="M4.618 14.98c-.03.026-.12.044-.172-.045l.046-.146.126.191z" id="Fill-8395" fill="#FF0" mask="url(#mask-2)"/><path d="M4.618 14.98c-.03.026-.12.044-.172-.045l.046-.146.126.191z" id="Stroke-8396" stroke="#000" stroke-width=".168" mask="url(#mask-2)"/><path d="M13.36 9.876s1.185-.227 1.636-.417c.451-.19-.38-.563-.38-.563s-.858.227-1.169.293c-.31.065-.087.687-.087.687z" id="Fill-8397" fill="#FF0" mask="url(#mask-2)"/><path d="M13.36 9.876s1.185-.227 1.636-.417c.451-.19-.38-.563-.38-.563s-.858.227-1.169.293c-.31.065-.087.687-.087.687z" id="Stroke-8398" stroke="#000" stroke-width=".167" mask="url(#mask-2)"/><path d="M13.561 9.973c.003-.001.98-.286 1.287-.486l.012.042c-.31.202-1.29.488-1.293.488l-.006-.044zm-.065-.558c.003 0 .886-.232 1.157-.398l.012.043c-.275.167-1.161.4-1.163.4l-.006-.045z" id="Fill-8399" fill="#000" mask="url(#mask-2)"/><path d="M3.84 12.472c-.05 0-.14-.013-.14-.133l.101-.192.039.325z" id="Fill-8400" fill="#FF0" mask="url(#mask-2)"/><path d="M3.84 12.472c-.05 0-.14-.013-.14-.133l.101-.192.039.325z" id="Stroke-8401" stroke="#000" stroke-width=".168" mask="url(#mask-2)"/><path d="M3.806 11.878c-.045.011-.107.029-.107-.06l.08-.172c.01.077.018.155.027.232z" id="Fill-8402" fill="#FF0" mask="url(#mask-2)"/><path d="M3.806 11.878c-.045.011-.107.029-.107-.06l.08-.172c.01.077.018.155.027.232z" id="Stroke-8403" stroke="#000" stroke-width=".168" mask="url(#mask-2)"/><path d="M15.997 12.472c.051 0 .141-.013.141-.133l-.101-.192-.04.325z" id="Fill-8404" fill="#FF0" mask="url(#mask-2)"/><path d="M15.997 12.472c.051 0 .141-.013.141-.133l-.101-.192-.04.325z" id="Stroke-8405" stroke="#000" stroke-width=".168" mask="url(#mask-2)"/><path d="M16.032 11.878c.044.011.106.029.106-.06l-.08-.172-.026.232z" id="Fill-8406" fill="#FF0" mask="url(#mask-2)"/><path d="M16.032 11.878c.044.011.106.029.106-.06l-.08-.172-.026.232z" id="Stroke-8407" stroke="#000" stroke-width=".168" mask="url(#mask-2)"/><path d="M5.685 10.967s-.567-.408-1.036-.806c-.47-.399-.516-.604-.475-.654.04-.05.07-.097.07-.097h.422l1.722.674s.192.607.183.632c-.01.025-.886.25-.886.25z" id="Fill-8408" fill="#FF0" mask="url(#mask-2)"/><path d="M5.685 10.967s-.567-.408-1.036-.806c-.47-.399-.516-.604-.475-.654.04-.05.07-.097.07-.097h.422l1.722.674s.192.607.183.632c-.01.025-.886.25-.886.25z" id="Stroke-8409" stroke="#000" stroke-width=".167" mask="url(#mask-2)"/><path d="M4.705 9.99c.002.003.68.639 1.192.967l-.017.026c-.514-.33-1.194-.968-1.196-.97l.021-.022" id="Fill-8410" fill="#000" mask="url(#mask-2)"/><path d="M13.351 13.084s1.354-.168 2.16-.48l.003-.647s-1.285.392-2.159.46l-.004.667z" id="Fill-8411" fill="#FF0" mask="url(#mask-2)"/><path d="M13.351 13.084s1.354-.168 2.16-.48l.003-.647s-1.285.392-2.159.46l-.004.667z" id="Stroke-8412" stroke="#000" stroke-width=".167" mask="url(#mask-2)"/><path d="M15.471 12.09c-.002 0-.971.33-1.971.418l.003.031a9.53 9.53 0 001.979-.42l-.01-.03" id="Fill-8413" fill="#000" mask="url(#mask-2)"/><path d="M15.453 12.478c-.003 0-1.037.35-1.943.425l.001.031c.911-.074 1.949-.426 1.952-.427l-.01-.029" id="Fill-8414" fill="#000" mask="url(#mask-2)"/><path d="M9.924 5.788a6.168 6.168 0 016.163 6.174c0 3.411-2.76 6.176-6.163 6.176-3.404 0-6.163-2.765-6.163-6.176a6.168 6.168 0 016.163-6.174zm.003.657c3.039 0 5.503 2.47 5.503 5.517 0 3.048-2.464 5.52-5.503 5.52-3.04 0-5.503-2.472-5.503-5.52 0-3.047 2.464-5.517 5.503-5.517z" id="Fill-8415" fill="#FF0" mask="url(#mask-2)"/><path d="M9.924 5.788a6.168 6.168 0 016.163 6.174c0 3.411-2.76 6.176-6.163 6.176-3.404 0-6.163-2.765-6.163-6.176a6.168 6.168 0 016.163-6.174zm.003.657c3.039 0 5.503 2.47 5.503 5.517 0 3.048-2.464 5.52-5.503 5.52-3.04 0-5.503-2.472-5.503-5.52 0-3.047 2.464-5.517 5.503-5.517z" id="Stroke-8416" stroke="#000" stroke-width=".167" mask="url(#mask-2)"/><path d="M9.924 5.948c3.315 0 6.003 2.693 6.003 6.014 0 3.323-2.688 6.016-6.003 6.016S3.92 15.285 3.92 11.962c0-3.32 2.688-6.014 6.003-6.014z" id="Stroke-8417" stroke="#000" stroke-width=".167" mask="url(#mask-2)"/><path d="M9.924 6.318a5.639 5.639 0 015.633 5.644 5.639 5.639 0 01-5.633 5.645 5.639 5.639 0 01-5.633-5.645 5.639 5.639 0 015.633-5.644z" id="Stroke-8418" stroke="#000" stroke-width=".167" mask="url(#mask-2)"/><path id="Fill-8419" fill="#FF0" mask="url(#mask-2)" d="M9.734 7.969h.383V5.775h-.383z"/><path id="Stroke-8420" stroke="#000" stroke-width=".168" mask="url(#mask-2)" d="M9.734 7.969h.383V5.775h-.383z"/><path id="Fill-8421" fill="#FF0" mask="url(#mask-2)" d="M10.117 7.969h.135V5.7h-.135z"/><path id="Stroke-8422" stroke="#000" stroke-width=".168" mask="url(#mask-2)" d="M10.117 7.969h.135V5.7h-.135z"/><path id="Fill-8423" fill="#FF0" mask="url(#mask-2)" d="M9.599 7.969h.135V5.7h-.135z"/><path id="Stroke-8424" stroke="#000" stroke-width=".168" mask="url(#mask-2)" d="M9.599 7.969h.135V5.7h-.135z"/><path id="Fill-8425" fill="#FF0" mask="url(#mask-2)" d="M9.734 18.153h.383V15.96h-.383z"/><path id="Stroke-8426" stroke="#000" stroke-width=".168" mask="url(#mask-2)" d="M9.734 18.153h.383V15.96h-.383z"/><path id="Fill-8427" fill="#FF0" mask="url(#mask-2)" d="M10.117 18.226h.135V15.96h-.135z"/><path id="Stroke-8428" stroke="#000" stroke-width=".168" mask="url(#mask-2)" d="M10.117 18.226h.135V15.96h-.135z"/><path id="Fill-8429" fill="#FF0" mask="url(#mask-2)" d="M9.599 18.226h.135V15.96h-.135z"/><path id="Stroke-8430" stroke="#000" stroke-width=".168" mask="url(#mask-2)" d="M9.599 18.226h.135V15.96h-.135z"/><path d="M4.458 14.846s.136.268.256.433c0 0 .22-.184.518-.302.297-.118 1.6-.471 1.6-.471l-.256-.485s-1.303.29-1.7.522c-.396.232-.418.303-.418.303z" id="Fill-8431" fill="#FF0" mask="url(#mask-2)"/><path d="M4.458 14.846s.136.268.256.433c0 0 .22-.184.518-.302.297-.118 1.6-.471 1.6-.471l-.256-.485s-1.303.29-1.7.522c-.396.232-.418.303-.418.303z" id="Stroke-8432" stroke="#000" stroke-width=".168" mask="url(#mask-2)"/><path d="M4.38 14.823s.06-.215.826-.476a12.42 12.42 0 011.415-.391l-.01.136s-.917.209-1.387.383c-.47.174-.712.336-.778.46l-.065-.112z" id="Fill-8433" fill="#FF0" mask="url(#mask-2)"/><path d="M4.38 14.823s.06-.215.826-.476a12.42 12.42 0 011.415-.391l-.01.136s-.917.209-1.387.383c-.47.174-.712.336-.778.46l-.065-.112z" id="Stroke-8434" stroke="#000" stroke-width=".168" mask="url(#mask-2)"/><path d="M4.642 15.295s.06-.214.825-.475a12.335 12.335 0 011.415-.392l-.009.138s-.918.207-1.387.382c-.47.174-.714.336-.778.46l-.066-.113z" id="Fill-8435" fill="#FF0" mask="url(#mask-2)"/><path d="M4.642 15.295s.06-.214.825-.475a12.335 12.335 0 011.415-.392l-.009.138s-.918.207-1.387.382c-.47.174-.714.336-.778.46l-.066-.113z" id="Stroke-8436" stroke="#000" stroke-width=".168" mask="url(#mask-2)"/><path d="M3.75 11.7s-.004.281.005.47l.821-.4 1.153-.304.604-.114-.03-.524-1.28.275-.784.276-.488.32z" id="Fill-8437" fill="#FF0" mask="url(#mask-2)"/><path d="M3.75 11.7s-.004.281.005.47l.821-.4 1.153-.304.604-.114-.03-.524-1.28.275-.784.276-.488.32z" id="Stroke-8438" stroke="#000" stroke-width=".168" mask="url(#mask-2)"/><path d="M3.7 12.339s.205-.33 1.241-.607c1.036-.277 1.416-.311 1.416-.311l-.047-.139s-.753.119-1.398.302c-.643.184-1.119.441-1.223.585l.01.17z" id="Fill-8439" fill="#FF0" mask="url(#mask-2)"/><path d="M3.7 12.339s.205-.33 1.241-.607c1.036-.277 1.416-.311 1.416-.311l-.047-.139s-.753.119-1.398.302c-.643.184-1.119.441-1.223.585l.01.17z" id="Stroke-8440" stroke="#000" stroke-width=".168" mask="url(#mask-2)"/><path d="M3.7 11.818s.205-.33 1.241-.606c1.036-.277 1.416-.31 1.416-.31l-.047-.14s-.753.12-1.398.302c-.643.185-1.119.441-1.223.585l.01.17z" id="Fill-8441" fill="#FF0" mask="url(#mask-2)"/><path d="M3.7 11.818s.205-.33 1.241-.606c1.036-.277 1.416-.31 1.416-.31l-.047-.14s-.753.12-1.398.302c-.643.185-1.119.441-1.223.585l.01.17z" id="Stroke-8442" stroke="#000" stroke-width=".168" mask="url(#mask-2)"/><path d="M16.087 11.7s.005.281-.004.47l-.822-.4-1.153-.304-.603-.114.03-.524 1.279.275.784.276.49.32z" id="Fill-8443" fill="#FF0" mask="url(#mask-2)"/><path d="M16.087 11.7s.005.281-.004.47l-.822-.4-1.153-.304-.603-.114.03-.524 1.279.275.784.276.49.32z" id="Stroke-8444" stroke="#000" stroke-width=".168" mask="url(#mask-2)"/><path d="M16.138 12.339s-.205-.33-1.241-.607c-1.036-.277-1.416-.311-1.416-.311l.047-.139s.753.119 1.397.302c.644.184 1.12.441 1.223.585l-.01.17z" id="Fill-8445" fill="#FF0" mask="url(#mask-2)"/><path d="M16.138 12.339s-.205-.33-1.241-.607c-1.036-.277-1.416-.311-1.416-.311l.047-.139s.753.119 1.397.302c.644.184 1.12.441 1.223.585l-.01.17z" id="Stroke-8446" stroke="#000" stroke-width=".168" mask="url(#mask-2)"/><path d="M16.138 11.818s-.205-.33-1.241-.606c-1.036-.277-1.416-.31-1.416-.31l.047-.14s.753.12 1.397.302c.644.185 1.12.441 1.223.585l-.01.17z" id="Fill-8447" fill="#FF0" mask="url(#mask-2)"/><path d="M16.138 11.818s-.205-.33-1.241-.606c-1.036-.277-1.416-.31-1.416-.31l.047-.14s.753.12 1.397.302c.644.185 1.12.441 1.223.585l-.01.17z" id="Stroke-8448" stroke="#000" stroke-width=".168" mask="url(#mask-2)"/><path id="Fill-8449" fill="#FF0" mask="url(#mask-2)" d="M15.109 8.558l.305.549-.84-.31-1.095-.236.024-.488.893.23z"/><path id="Stroke-8450" stroke="#000" stroke-width=".167" mask="url(#mask-2)" d="M15.109 8.558l.305.549-.84-.31-1.095-.236.024-.488.893.23z"/><path d="M13.56 8.012s1.047.184 1.601.54l.094.159c.018.03.02.027-.009.006-.073-.052-.334-.217-.857-.358-.63-.172-.815-.198-.815-.198l-.013-.149z" id="Fill-8451" fill="#FF0" mask="url(#mask-2)"/><path d="M13.56 8.012s1.047.184 1.601.54l.094.159c.018.03.02.027-.009.006-.073-.052-.334-.217-.857-.358-.63-.172-.815-.198-.815-.198l-.013-.149z" id="Stroke-8452" stroke="#000" stroke-width=".167" mask="url(#mask-2)"/><path d="M15.46 9.08s-.564-.347-1.89-.544l.014.121s1.133.189 1.932.554c.03.014.041.028.02-.006l-.076-.125z" id="Fill-8453" fill="#FF0" mask="url(#mask-2)"/><path d="M15.46 9.08s-.564-.347-1.89-.544l.014.121s1.133.189 1.932.554c.03.014.041.028.02-.006l-.076-.125z" id="Stroke-8454" stroke="#000" stroke-width=".167" mask="url(#mask-2)"/><path id="Fill-8455" fill="#FF0" mask="url(#mask-2)" d="M5.004 8.445l-.332.533.855-.266 1.105-.18v-.49l-.903.185z"/><path id="Stroke-8456" stroke="#000" stroke-width=".167" mask="url(#mask-2)" d="M5.004 8.445l-.332.533.855-.266 1.105-.18v-.49l-.903.185z"/><path d="M6.578 7.98s-1.054.13-1.626.457l-.101.154c-.02.03-.022.026.008.006.076-.047.345-.199.875-.314.638-.139.824-.155.824-.155l.02-.148z" id="Fill-8457" fill="#FF0" mask="url(#mask-2)"/><path d="M6.578 7.98s-1.054.13-1.626.457l-.101.154c-.02.03-.022.026.008.006.076-.047.345-.199.875-.314.638-.139.824-.155.824-.155l.02-.148z" id="Stroke-8458" stroke="#000" stroke-width=".167" mask="url(#mask-2)"/><path d="M4.627 8.948s.58-.316 1.915-.446l-.02.121s-1.142.13-1.957.455c-.03.011-.044.024-.021-.008l.083-.122z" id="Fill-8459" fill="#FF0" mask="url(#mask-2)"/><path d="M4.627 8.948s.58-.316 1.915-.446l-.02.121s-1.142.13-1.957.455c-.03.011-.044.024-.021-.008l.083-.122z" id="Stroke-8460" stroke="#000" stroke-width=".167" mask="url(#mask-2)"/><path d="M4.726 8.5l-.1.112s-.056.074.03.204l.183-.32-.113.004z" id="Fill-8461" fill="#FF0" mask="url(#mask-2)"/><path d="M4.726 8.5l-.1.112s-.056.074.03.204l.183-.32-.113.004z" id="Stroke-8462" stroke="#000" stroke-width=".167" mask="url(#mask-2)"/><path d="M4.286 9.38l.484-.9.326.01.864.253.405.186s.024 1.183 0 1.183A14 14 0 015.74 9.8l-1.077-.37-.377-.05z" id="Fill-8463" fill="#FF0" mask="url(#mask-2)"/><path d="M4.286 9.38l.484-.9.326.01.864.253.405.186s.024 1.183 0 1.183A14 14 0 015.74 9.8l-1.077-.37-.377-.05z" id="Stroke-8464" stroke="#000" stroke-width=".167" mask="url(#mask-2)"/><path d="M6.289 8.98s-.537-.284-1.058-.396c-.522-.112-.606.028-.606.028l.073-.141s.081-.149.797.06c.716.209.795.295.795.295l-.001.154z" id="Fill-8465" fill="#FF0" mask="url(#mask-2)"/><path d="M6.289 8.98s-.537-.284-1.058-.396c-.522-.112-.606.028-.606.028l.073-.141s.081-.149.797.06c.716.209.795.295.795.295l-.001.154z" id="Stroke-8466" stroke="#000" stroke-width=".167" mask="url(#mask-2)"/><path d="M6.276 9.988c-.39-.214-1.607-.748-2.012-.645l-.098.177c.29-.172 1.17.194 1.475.325.384.165.663.308.663.308l-.028-.165z" id="Fill-8467" fill="#FF0" mask="url(#mask-2)"/><path d="M6.276 9.988c-.39-.214-1.607-.748-2.012-.645l-.098.177c.29-.172 1.17.194 1.475.325.384.165.663.308.663.308l-.028-.165z" id="Stroke-8468" stroke="#000" stroke-width=".167" mask="url(#mask-2)"/><path d="M15.455 14.867l-.049.141s-.038.085-.193.073l.19-.315.052.1z" id="Fill-8469" fill="#FF0" mask="url(#mask-2)"/><path d="M15.455 14.867l-.049.141s-.038.085-.193.073l.19-.315.052.1z" id="Stroke-8470" stroke="#000" stroke-width=".167" mask="url(#mask-2)"/><path d="M14.9 15.679l.552-.86-.168-.28-.64-.634-1.18-.857s-.278 1.102-.266 1.125c.012.021.628.439.628.439l.847.761.226.306z" id="Fill-8471" fill="#FF0" mask="url(#mask-2)"/><path d="M14.9 15.679l.552-.86-.168-.28-.64-.634-1.18-.857s-.278 1.102-.266 1.125c.012.021.628.439.628.439l.847.761.226.306z" id="Stroke-8472" stroke="#000" stroke-width=".167" mask="url(#mask-2)"/><path d="M13.527 13.152s.78.6.83.637c.158.11.515.374.78.678.35.4.27.541.27.541l.088-.132s.09-.142-.44-.667a5.133 5.133 0 00-.554-.497c-.068-.05-.934-.708-.934-.708l-.04.148z" id="Fill-8473" fill="#FF0" mask="url(#mask-2)"/><path d="M13.527 13.152s.78.6.83.637c.158.11.515.374.78.678.35.4.27.541.27.541l.088-.132s.09-.142-.44-.667a5.133 5.133 0 00-.554-.497c-.068-.05-.934-.708-.934-.708l-.04.148z" id="Stroke-8474" stroke="#000" stroke-width=".167" mask="url(#mask-2)"/><path d="M13.14 14.056c.476.3 1.684 1.174 1.803 1.625l-.108.17c.01-.337-.738-.929-1-1.131a15.963 15.963 0 00-.852-.608l.158-.056z" id="Fill-8475" fill="#FF0" mask="url(#mask-2)"/><path d="M13.14 14.056c.476.3 1.684 1.174 1.803 1.625l-.108.17c.01-.337-.738-.929-1-1.131a15.963 15.963 0 00-.852-.608l.158-.056z" id="Stroke-8476" stroke="#000" stroke-width=".167" mask="url(#mask-2)"/><path d="M6.36 7.88h7.111v4.743c0 1.955-1.6 3.555-3.555 3.555a3.566 3.566 0 01-3.555-3.555V7.879" id="Fill-8477" fill="#FF1612" mask="url(#mask-2)"/><path d="M6.218 7.713h7.396v4.933a3.708 3.708 0 01-3.698 3.698 3.708 3.708 0 01-3.698-3.698V7.713" id="Fill-8478" fill="#FFF" mask="url(#mask-2)"/><path d="M6.36 7.88h7.111v4.743c0 1.955-1.6 3.555-3.555 3.555a3.566 3.566 0 01-3.555-3.555V7.879" id="Fill-8479" fill="#FF1612" mask="url(#mask-2)"/><path id="Fill-8480" fill="#FF0" mask="url(#mask-2)" d="M9.796 8.558l.033-.473h.21l.033.468z"/><path id="Stroke-8481" stroke="#000" stroke-width=".134" mask="url(#mask-2)" d="M9.796 8.558l.033-.473h.21l.033.468z"/><path d="M9.906 8.354h.054V8.25a.027.027 0 00-.027-.027.027.027 0 00-.027.027v.103" id="Fill-8482" fill="#000" mask="url(#mask-2)"/><path id="Fill-8483" fill="#FF0" mask="url(#mask-2)" d="M9.462 8.555l.016-.26h.232l.022.26z"/><path id="Stroke-8484" stroke="#000" stroke-width=".134" mask="url(#mask-2)" d="M9.462 8.555l.016-.26h.232l.022.26z"/><path id="Fill-8485" fill="#FF0" mask="url(#mask-2)" d="M10.127 8.555l.017-.26h.232l.021.26z"/><path id="Stroke-8486" stroke="#000" stroke-width=".134" mask="url(#mask-2)" d="M10.127 8.555l.017-.26h.232l.021.26z"/><path id="Fill-8487" fill="#FF0" mask="url(#mask-2)" d="M9.416 9.123l.057-.452h.92l.059.466z"/><path id="Stroke-8488" stroke="#000" stroke-width=".134" mask="url(#mask-2)" d="M9.416 9.123l.057-.452h.92l.059.466z"/><path d="M9.676 9.117s-.006-.334.254-.411c0 0 .252.069.258.41l-.512.001z" id="Fill-8489" fill="#FF0" mask="url(#mask-2)"/><path d="M9.676 9.117s-.006-.334.254-.411c0 0 .252.069.258.41l-.512.001z" id="Stroke-8490" stroke="#000" stroke-width=".134" mask="url(#mask-2)"/><path d="M9.785 9.117s-.003-.235.147-.288c0 0 .145.048.149.287l-.296.001z" id="Fill-8491" fill="#FF0" mask="url(#mask-2)"/><path d="M9.785 9.117s-.003-.235.147-.288c0 0 .145.048.149.287l-.296.001z" id="Stroke-8492" stroke="#000" stroke-width=".148" mask="url(#mask-2)"/><path d="M9.414 9.095h1.035c.025 0 .046.021.046.046a.047.047 0 01-.046.047H9.414a.047.047 0 01-.047-.047c0-.025.02-.046.047-.046" id="Fill-8493" fill="#FF0" mask="url(#mask-2)"/><path d="M9.451 8.707h.96a.044.044 0 00.045-.044.044.044 0 00-.044-.045H9.45a.045.045 0 00-.045.045c0 .025.02.044.045.044" id="Fill-8494" fill="#FF0" mask="url(#mask-2)"/><path d="M9.433 8.529h.996c.025 0 .044.02.044.045 0 .024-.02.044-.044.044h-.996a.045.045 0 110-.09" id="Fill-8495" fill="#FF0" mask="url(#mask-2)"/><path d="M9.573 8.472h.055v-.077a.028.028 0 00-.028-.027.027.027 0 00-.027.027v.077" id="Fill-8496" fill="#000" mask="url(#mask-2)"/><path d="M10.238 8.472h.055v-.077a.027.027 0 00-.027-.027.028.028 0 00-.028.027v.077" id="Fill-8497" fill="#000" mask="url(#mask-2)"/><path d="M9.52 8.322h.2c.038 0 .053-.018.053-.042v-.11c0-.012-.008-.014-.016-.014H9.71c-.014 0-.016.006-.016.016v.038c0 .007 0 .014-.012.014h-.038c-.008 0-.01-.006-.01-.014v-.042c0-.009-.005-.01-.015-.01h-.047c-.013 0-.014.005-.014.014v.044c0 .008-.001.01-.011.01H9.51c-.01 0-.012-.003-.012-.011V8.17c0-.008-.003-.011-.011-.011h-.044c-.014 0-.019.01-.019.017v.11c0 .025.022.035.095.035z" id="Fill-8498" fill="#FF0" mask="url(#mask-2)"/><path d="M9.52 8.322h.2c.038 0 .053-.018.053-.042v-.11c0-.012-.008-.014-.016-.014H9.71c-.014 0-.016.006-.016.016v.038c0 .007 0 .014-.012.014h-.038c-.008 0-.01-.006-.01-.014v-.042c0-.009-.005-.01-.015-.01h-.047c-.013 0-.014.005-.014.014v.044c0 .008-.001.01-.011.01H9.51c-.01 0-.012-.003-.012-.011V8.17c0-.008-.003-.011-.011-.011h-.044c-.014 0-.019.01-.019.017v.11c0 .025.022.035.095.035z" id="Stroke-8499" stroke="#000" stroke-width=".134" mask="url(#mask-2)"/><path d="M9.855 8.125h.199c.038 0 .053-.02.053-.042v-.109c0-.013-.007-.016-.015-.016h-.048c-.013 0-.015.006-.015.017v.038c0 .006-.001.014-.013.014h-.038c-.007 0-.01-.007-.01-.014V7.97c0-.01-.004-.011-.015-.011h-.046c-.015 0-.015.006-.015.014v.044c0 .008 0 .011-.011.011h-.036c-.01 0-.012-.004-.012-.013v-.042c0-.009-.002-.012-.011-.012h-.044c-.014 0-.018.01-.018.018v.108c0 .028.021.037.095.037z" id="Fill-8500" fill="#FF0" mask="url(#mask-2)"/><path d="M9.855 8.125h.199c.038 0 .053-.02.053-.042v-.109c0-.013-.007-.016-.015-.016h-.048c-.013 0-.015.006-.015.017v.038c0 .006-.001.014-.013.014h-.038c-.007 0-.01-.007-.01-.014V7.97c0-.01-.004-.011-.015-.011h-.046c-.015 0-.015.006-.015.014v.044c0 .008 0 .011-.011.011h-.036c-.01 0-.012-.004-.012-.013v-.042c0-.009-.002-.012-.011-.012h-.044c-.014 0-.018.01-.018.018v.108c0 .028.021.037.095.037z" id="Stroke-8501" stroke="#000" stroke-width=".134" mask="url(#mask-2)"/><path d="M10.186 8.322h.2c.038 0 .053-.018.053-.042v-.11c0-.012-.008-.014-.015-.014h-.049c-.013 0-.014.006-.014.016v.038c0 .007-.002.014-.013.014h-.038c-.007 0-.01-.006-.01-.014v-.042c0-.009-.005-.01-.016-.01h-.047c-.012 0-.013.005-.013.014v.044c0 .008 0 .01-.011.01h-.036c-.01 0-.013-.003-.013-.011V8.17c0-.008-.002-.011-.01-.011h-.045c-.013 0-.017.01-.017.017v.11c0 .025.02.035.094.035z" id="Fill-8502" fill="#FF0" mask="url(#mask-2)"/><path d="M10.186 8.322h.2c.038 0 .053-.018.053-.042v-.11c0-.012-.008-.014-.015-.014h-.049c-.013 0-.014.006-.014.016v.038c0 .007-.002.014-.013.014h-.038c-.007 0-.01-.006-.01-.014v-.042c0-.009-.005-.01-.016-.01h-.047c-.012 0-.013.005-.013.014v.044c0 .008 0 .01-.011.01h-.036c-.01 0-.013-.003-.013-.011V8.17c0-.008-.002-.011-.01-.011h-.045c-.013 0-.017.01-.017.017v.11c0 .025.02.035.094.035z" id="Stroke-8503" stroke="#000" stroke-width=".134" mask="url(#mask-2)"/><path id="Fill-8504" fill="#FF0" mask="url(#mask-2)" d="M6.952 8.558l.033-.473h.21l.033.468z"/><path id="Stroke-8505" stroke="#000" stroke-width=".134" mask="url(#mask-2)" d="M6.952 8.558l.033-.473h.21l.033.468z"/><path d="M7.062 8.354h.055V8.25a.027.027 0 00-.027-.027.028.028 0 00-.028.027v.103" id="Fill-8506" fill="#000" mask="url(#mask-2)"/><path id="Fill-8507" fill="#FF0" mask="url(#mask-2)" d="M6.618 8.555l.017-.26h.232l.02.26z"/><path id="Stroke-8508" stroke="#000" stroke-width=".134" mask="url(#mask-2)" d="M6.618 8.555l.017-.26h.232l.02.26z"/><path id="Fill-8509" fill="#FF0" mask="url(#mask-2)" d="M7.284 8.555l.016-.26h.232l.022.26z"/><path id="Stroke-8510" stroke="#000" stroke-width=".134" mask="url(#mask-2)" d="M7.284 8.555l.016-.26h.232l.022.26z"/><path id="Fill-8511" fill="#FF0" mask="url(#mask-2)" d="M6.572 9.123l.058-.452h.92l.059.466z"/><path id="Stroke-8512" stroke="#000" stroke-width=".134" mask="url(#mask-2)" d="M6.572 9.123l.058-.452h.92l.059.466z"/><path d="M6.832 9.117s-.006-.334.254-.411c0 0 .252.069.26.41l-.514.001z" id="Fill-8513" fill="#FF0" mask="url(#mask-2)"/><path d="M6.832 9.117s-.006-.334.254-.411c0 0 .252.069.26.41l-.514.001z" id="Stroke-8514" stroke="#000" stroke-width=".134" mask="url(#mask-2)"/><path d="M6.942 9.117s-.004-.235.146-.288c0 0 .146.048.15.287l-.296.001z" id="Fill-8515" fill="#FF0" mask="url(#mask-2)"/><path d="M6.942 9.117s-.004-.235.146-.288c0 0 .146.048.15.287l-.296.001z" id="Stroke-8516" stroke="#000" stroke-width=".148" mask="url(#mask-2)"/><path d="M6.57 9.095h1.035c.026 0 .047.021.047.046a.047.047 0 01-.047.047H6.569a.047.047 0 01-.046-.047c0-.025.022-.046.046-.046" id="Fill-8517" fill="#FF0" mask="url(#mask-2)"/><path d="M6.607 8.707h.96a.043.043 0 00.045-.044.045.045 0 00-.044-.045h-.96a.045.045 0 00-.046.045c0 .025.02.044.045.044" id="Fill-8518" fill="#FF0" mask="url(#mask-2)"/><path d="M6.59 8.529h.996c.025 0 .044.02.044.045 0 .024-.02.044-.044.044h-.997a.045.045 0 01-.044-.044c0-.026.02-.045.044-.045" id="Fill-8519" fill="#FF0" mask="url(#mask-2)"/><path d="M6.73 8.472h.054v-.077a.027.027 0 00-.055 0v.077" id="Fill-8520" fill="#000" mask="url(#mask-2)"/><path d="M7.395 8.472h.055v-.077a.027.027 0 10-.055 0v.077" id="Fill-8521" fill="#000" mask="url(#mask-2)"/><path d="M6.677 8.322h.2c.037 0 .053-.018.053-.042v-.11c0-.012-.008-.014-.016-.014h-.048c-.013 0-.015.006-.015.016v.038c0 .007-.001.014-.013.014H6.8c-.007 0-.01-.006-.01-.014v-.042c0-.009-.004-.01-.015-.01h-.047c-.013 0-.014.005-.014.014v.044c0 .008 0 .01-.01.01h-.037c-.01 0-.012-.003-.012-.011V8.17c0-.008-.003-.011-.01-.011H6.6c-.014 0-.017.01-.017.017v.11c0 .025.02.035.094.035z" id="Fill-8522" fill="#FF0" mask="url(#mask-2)"/><path d="M6.677 8.322h.2c.037 0 .053-.018.053-.042v-.11c0-.012-.008-.014-.016-.014h-.048c-.013 0-.015.006-.015.016v.038c0 .007-.001.014-.013.014H6.8c-.007 0-.01-.006-.01-.014v-.042c0-.009-.004-.01-.015-.01h-.047c-.013 0-.014.005-.014.014v.044c0 .008 0 .01-.01.01h-.037c-.01 0-.012-.003-.012-.011V8.17c0-.008-.003-.011-.01-.011H6.6c-.014 0-.017.01-.017.017v.11c0 .025.02.035.094.035z" id="Stroke-8523" stroke="#000" stroke-width=".134" mask="url(#mask-2)"/><path d="M7.012 8.125h.199c.038 0 .053-.02.053-.042v-.109c0-.013-.008-.016-.016-.016h-.047c-.014 0-.016.006-.016.017v.038c0 .006 0 .014-.012.014h-.038c-.007 0-.01-.007-.01-.014V7.97c0-.01-.005-.011-.016-.011h-.046c-.013 0-.014.006-.014.014v.044c0 .008-.001.011-.01.011H7c-.009 0-.011-.004-.011-.013v-.042c0-.009-.003-.012-.012-.012h-.043c-.014 0-.019.01-.019.018v.108c0 .028.022.037.096.037z" id="Fill-8524" fill="#FF0" mask="url(#mask-2)"/><path d="M7.012 8.125h.199c.038 0 .053-.02.053-.042v-.109c0-.013-.008-.016-.016-.016h-.047c-.014 0-.016.006-.016.017v.038c0 .006 0 .014-.012.014h-.038c-.007 0-.01-.007-.01-.014V7.97c0-.01-.005-.011-.016-.011h-.046c-.013 0-.014.006-.014.014v.044c0 .008-.001.011-.01.011H7c-.009 0-.011-.004-.011-.013v-.042c0-.009-.003-.012-.012-.012h-.043c-.014 0-.019.01-.019.018v.108c0 .028.022.037.096.037z" id="Stroke-8525" stroke="#000" stroke-width=".134" mask="url(#mask-2)"/><path d="M7.343 8.322h.199c.038 0 .053-.018.053-.042v-.11c0-.012-.008-.014-.016-.014h-.047c-.014 0-.015.006-.015.016v.038c0 .007-.002.014-.013.014h-.038c-.007 0-.01-.006-.01-.014v-.042c0-.009-.004-.01-.015-.01h-.047c-.014 0-.014.005-.014.014v.044c0 .008 0 .01-.01.01h-.037c-.01 0-.012-.003-.012-.011V8.17c0-.008-.003-.011-.01-.011h-.044c-.015 0-.02.01-.02.017v.11c0 .025.022.035.096.035z" id="Fill-8526" fill="#FF0" mask="url(#mask-2)"/><path d="M7.343 8.322h.199c.038 0 .053-.018.053-.042v-.11c0-.012-.008-.014-.016-.014h-.047c-.014 0-.015.006-.015.016v.038c0 .007-.002.014-.013.014h-.038c-.007 0-.01-.006-.01-.014v-.042c0-.009-.004-.01-.015-.01h-.047c-.014 0-.014.005-.014.014v.044c0 .008 0 .01-.01.01h-.037c-.01 0-.012-.003-.012-.011V8.17c0-.008-.003-.011-.01-.011h-.044c-.015 0-.02.01-.02.017v.11c0 .025.022.035.096.035z" id="Stroke-8527" stroke="#000" stroke-width=".134" mask="url(#mask-2)"/><path id="Fill-8528" fill="#FF0" mask="url(#mask-2)" d="M12.62 8.558l.034-.473h.21l.033.468z"/><path id="Stroke-8529" stroke="#000" stroke-width=".134" mask="url(#mask-2)" d="M12.62 8.558l.034-.473h.21l.033.468z"/><path d="M12.73 8.354h.055V8.25a.028.028 0 00-.055 0v.103" id="Fill-8530" fill="#000" mask="url(#mask-2)"/><path id="Fill-8531" fill="#FF0" mask="url(#mask-2)" d="M12.287 8.555l.016-.26h.232l.022.26z"/><path id="Stroke-8532" stroke="#000" stroke-width=".134" mask="url(#mask-2)" d="M12.287 8.555l.016-.26h.232l.022.26z"/><path id="Fill-8533" fill="#FF0" mask="url(#mask-2)" d="M12.952 8.555l.017-.26h.231l.023.26z"/><path id="Stroke-8534" stroke="#000" stroke-width=".134" mask="url(#mask-2)" d="M12.952 8.555l.017-.26h.231l.023.26z"/><path id="Fill-8535" fill="#FF0" mask="url(#mask-2)" d="M12.241 9.123l.057-.452h.92l.059.466z"/><path id="Stroke-8536" stroke="#000" stroke-width=".134" mask="url(#mask-2)" d="M12.241 9.123l.057-.452h.92l.059.466z"/><path d="M12.5 9.117s-.005-.334.254-.411c0 0 .253.069.26.41l-.513.001z" id="Fill-8537" fill="#FF0" mask="url(#mask-2)"/><path d="M12.5 9.117s-.005-.334.254-.411c0 0 .253.069.26.41l-.513.001z" id="Stroke-8538" stroke="#000" stroke-width=".134" mask="url(#mask-2)"/><path d="M12.61 9.117s-.003-.235.147-.288c0 0 .145.048.149.287l-.296.001z" id="Fill-8539" fill="#FF0" mask="url(#mask-2)"/><path d="M12.61 9.117s-.003-.235.147-.288c0 0 .145.048.149.287l-.296.001z" id="Stroke-8540" stroke="#000" stroke-width=".148" mask="url(#mask-2)"/><path d="M12.239 9.095h1.034c.026 0 .048.021.048.046a.047.047 0 01-.048.047H12.24a.047.047 0 01-.047-.047c0-.025.02-.046.047-.046" id="Fill-8541" fill="#FF0" mask="url(#mask-2)"/><path d="M12.275 8.707h.962a.044.044 0 00.044-.044.045.045 0 00-.044-.045h-.962a.044.044 0 00-.044.045c0 .025.02.044.044.044" id="Fill-8542" fill="#FF0" mask="url(#mask-2)"/><path d="M12.258 8.529h.996a.045.045 0 110 .09h-.996a.046.046 0 01-.045-.045c0-.026.02-.045.045-.045" id="Fill-8543" fill="#FF0" mask="url(#mask-2)"/><path d="M12.398 8.472h.054v-.077a.027.027 0 00-.027-.027.027.027 0 00-.027.027v.077" id="Fill-8544" fill="#000" mask="url(#mask-2)"/><path d="M13.064 8.472h.054v-.077a.027.027 0 00-.027-.027.027.027 0 00-.027.027v.077" id="Fill-8545" fill="#000" mask="url(#mask-2)"/><path d="M12.345 8.322h.2c.038 0 .054-.018.054-.042v-.11c0-.012-.01-.014-.016-.014h-.048c-.014 0-.016.006-.016.016v.038c0 .007 0 .014-.012.014h-.038c-.007 0-.01-.006-.01-.014v-.042c0-.009-.005-.01-.016-.01h-.047c-.012 0-.013.005-.013.014v.044c0 .008 0 .01-.01.01h-.037c-.01 0-.012-.003-.012-.011V8.17c0-.008-.003-.011-.011-.011h-.044c-.014 0-.018.01-.018.017v.11c0 .025.02.035.094.035z" id="Fill-8546" fill="#FF0" mask="url(#mask-2)"/><path d="M12.345 8.322h.2c.038 0 .054-.018.054-.042v-.11c0-.012-.01-.014-.016-.014h-.048c-.014 0-.016.006-.016.016v.038c0 .007 0 .014-.012.014h-.038c-.007 0-.01-.006-.01-.014v-.042c0-.009-.005-.01-.016-.01h-.047c-.012 0-.013.005-.013.014v.044c0 .008 0 .01-.01.01h-.037c-.01 0-.012-.003-.012-.011V8.17c0-.008-.003-.011-.011-.011h-.044c-.014 0-.018.01-.018.017v.11c0 .025.02.035.094.035z" id="Stroke-8547" stroke="#000" stroke-width=".134" mask="url(#mask-2)"/><path d="M12.68 8.125h.199c.039 0 .054-.02.054-.042v-.109c0-.013-.009-.016-.016-.016h-.049c-.012 0-.014.006-.014.017v.038c0 .006-.002.014-.013.014h-.038c-.006 0-.01-.007-.01-.014V7.97c0-.01-.004-.011-.015-.011h-.047c-.013 0-.014.006-.014.014v.044c0 .008 0 .011-.01.011h-.037c-.01 0-.012-.004-.012-.013v-.042c0-.009-.002-.012-.01-.012h-.045c-.014 0-.018.01-.018.018v.108c0 .028.021.037.095.037z" id="Fill-8548" fill="#FF0" mask="url(#mask-2)"/><path d="M12.68 8.125h.199c.039 0 .054-.02.054-.042v-.109c0-.013-.009-.016-.016-.016h-.049c-.012 0-.014.006-.014.017v.038c0 .006-.002.014-.013.014h-.038c-.006 0-.01-.007-.01-.014V7.97c0-.01-.004-.011-.015-.011h-.047c-.013 0-.014.006-.014.014v.044c0 .008 0 .011-.01.011h-.037c-.01 0-.012-.004-.012-.013v-.042c0-.009-.002-.012-.01-.012h-.045c-.014 0-.018.01-.018.018v.108c0 .028.021.037.095.037z" id="Stroke-8549" stroke="#000" stroke-width=".134" mask="url(#mask-2)"/><path d="M13.011 8.322h.199c.038 0 .054-.018.054-.042v-.11c0-.012-.008-.014-.016-.014H13.2c-.013 0-.015.006-.015.016v.038c0 .007-.001.014-.013.014h-.038c-.007 0-.01-.006-.01-.014v-.042c0-.009-.003-.01-.015-.01h-.046c-.014 0-.015.005-.015.014v.044c0 .008 0 .01-.01.01H13c-.01 0-.011-.003-.011-.011V8.17c0-.008-.004-.011-.01-.011h-.045c-.014 0-.02.01-.02.017v.11c0 .025.023.035.096.035z" id="Fill-8550" fill="#FF0" mask="url(#mask-2)"/><path d="M13.011 8.322h.199c.038 0 .054-.018.054-.042v-.11c0-.012-.008-.014-.016-.014H13.2c-.013 0-.015.006-.015.016v.038c0 .007-.001.014-.013.014h-.038c-.007 0-.01-.006-.01-.014v-.042c0-.009-.003-.01-.015-.01h-.046c-.014 0-.015.005-.015.014v.044c0 .008 0 .01-.01.01H13c-.01 0-.011-.003-.011-.011V8.17c0-.008-.004-.011-.01-.011h-.045c-.014 0-.02.01-.02.017v.11c0 .025.023.035.096.035z" id="Stroke-8551" stroke="#000" stroke-width=".134" mask="url(#mask-2)"/><path id="Fill-8552" fill="#FF0" mask="url(#mask-2)" d="M6.952 11.442l.033-.473h.21l.033.469z"/><path id="Stroke-8553" stroke="#000" stroke-width=".134" mask="url(#mask-2)" d="M6.952 11.442l.033-.473h.21l.033.469z"/><path d="M7.062 11.238h.055v-.103a.027.027 0 00-.027-.027.027.027 0 00-.028.027v.103" id="Fill-8554" fill="#000" mask="url(#mask-2)"/><path id="Fill-8555" fill="#FF0" mask="url(#mask-2)" d="M6.618 11.44l.017-.26h.232l.02.26z"/><path id="Stroke-8556" stroke="#000" stroke-width=".134" mask="url(#mask-2)" d="M6.618 11.44l.017-.26h.232l.02.26z"/><path id="Fill-8557" fill="#FF0" mask="url(#mask-2)" d="M7.284 11.44l.016-.26h.232l.022.26z"/><path id="Stroke-8558" stroke="#000" stroke-width=".134" mask="url(#mask-2)" d="M7.284 11.44l.016-.26h.232l.022.26z"/><path id="Fill-8559" fill="#FF0" mask="url(#mask-2)" d="M6.572 12.006l.058-.45h.92l.059.464z"/><path id="Stroke-8560" stroke="#000" stroke-width=".134" mask="url(#mask-2)" d="M6.572 12.006l.058-.45h.92l.059.464z"/><path d="M6.832 12.002s-.006-.334.254-.412c0 0 .252.069.26.41l-.514.002z" id="Fill-8561" fill="#FF0" mask="url(#mask-2)"/><path d="M6.832 12.002s-.006-.334.254-.412c0 0 .252.069.26.41l-.514.002z" id="Stroke-8562" stroke="#000" stroke-width=".134" mask="url(#mask-2)"/><path d="M6.942 12.002s-.004-.236.146-.29c0 0 .146.048.15.288l-.296.002z" id="Fill-8563" fill="#FF0" mask="url(#mask-2)"/><path d="M6.942 12.002s-.004-.236.146-.29c0 0 .146.048.15.288l-.296.002z" id="Stroke-8564" stroke="#000" stroke-width=".148" mask="url(#mask-2)"/><path d="M6.57 11.98h1.035c.026 0 .047.02.047.045a.047.047 0 01-.047.047H6.569a.047.047 0 01-.046-.047c0-.025.022-.046.046-.046" id="Fill-8565" fill="#FF0" mask="url(#mask-2)"/><path d="M6.607 11.591h.96a.044.044 0 100-.089h-.96a.044.044 0 100 .09" id="Fill-8566" fill="#FF0" mask="url(#mask-2)"/><path d="M6.59 11.412h.996c.025 0 .044.02.044.045 0 .025-.02.045-.044.045h-.997a.045.045 0 01-.044-.045c0-.024.02-.045.044-.045" id="Fill-8567" fill="#FF0" mask="url(#mask-2)"/><path d="M6.73 11.356h.054v-.077a.027.027 0 00-.055 0v.077" id="Fill-8568" fill="#000" mask="url(#mask-2)"/><path d="M7.395 11.356h.055v-.077a.027.027 0 00-.055 0v.077" id="Fill-8569" fill="#000" mask="url(#mask-2)"/><path d="M6.677 11.206h.2c.037 0 .053-.018.053-.041v-.11c0-.013-.008-.015-.016-.015h-.048c-.013 0-.015.006-.015.016v.038c0 .007-.001.014-.013.014H6.8c-.007 0-.01-.006-.01-.014v-.042c0-.008-.004-.01-.015-.01h-.047c-.013 0-.014.005-.014.014v.044c0 .008 0 .01-.01.01h-.037c-.01 0-.012-.003-.012-.012v-.043c0-.008-.003-.011-.01-.011H6.6c-.014 0-.017.01-.017.018v.108c0 .026.02.037.094.036z" id="Fill-8570" fill="#FF0" mask="url(#mask-2)"/><path d="M6.677 11.206h.2c.037 0 .053-.018.053-.041v-.11c0-.013-.008-.015-.016-.015h-.048c-.013 0-.015.006-.015.016v.038c0 .007-.001.014-.013.014H6.8c-.007 0-.01-.006-.01-.014v-.042c0-.008-.004-.01-.015-.01h-.047c-.013 0-.014.005-.014.014v.044c0 .008 0 .01-.01.01h-.037c-.01 0-.012-.003-.012-.012v-.043c0-.008-.003-.011-.01-.011H6.6c-.014 0-.017.01-.017.018v.108c0 .026.02.037.094.036z" id="Stroke-8571" stroke="#000" stroke-width=".134" mask="url(#mask-2)"/><path d="M7.012 11.009h.199c.038 0 .053-.019.053-.042v-.11c0-.012-.008-.015-.016-.015h-.047c-.014 0-.016.007-.016.017v.038c0 .006 0 .014-.012.014h-.038c-.007 0-.01-.006-.01-.014v-.042c0-.01-.005-.01-.016-.01h-.046c-.013 0-.014.005-.014.012v.046c0 .007-.001.01-.01.01H7c-.009 0-.011-.004-.011-.013v-.043c0-.007-.003-.011-.012-.011h-.043c-.014 0-.019.01-.019.019v.107c0 .026.022.037.096.037z" id="Fill-8572" fill="#FF0" mask="url(#mask-2)"/><path d="M7.012 11.009h.199c.038 0 .053-.019.053-.042v-.11c0-.012-.008-.015-.016-.015h-.047c-.014 0-.016.007-.016.017v.038c0 .006 0 .014-.012.014h-.038c-.007 0-.01-.006-.01-.014v-.042c0-.01-.005-.01-.016-.01h-.046c-.013 0-.014.005-.014.012v.046c0 .007-.001.01-.01.01H7c-.009 0-.011-.004-.011-.013v-.043c0-.007-.003-.011-.012-.011h-.043c-.014 0-.019.01-.019.019v.107c0 .026.022.037.096.037z" id="Stroke-8573" stroke="#000" stroke-width=".134" mask="url(#mask-2)"/><path d="M7.343 11.206h.199c.038 0 .053-.018.053-.041v-.11c0-.013-.008-.015-.016-.015h-.047c-.014 0-.015.006-.015.016v.038c0 .007-.002.014-.013.014h-.038c-.007 0-.01-.006-.01-.014v-.042c0-.008-.004-.01-.015-.01h-.047c-.014 0-.014.005-.014.014v.044c0 .008 0 .01-.01.01h-.037c-.01 0-.012-.003-.012-.012v-.043c0-.008-.003-.011-.01-.011h-.044c-.015 0-.02.01-.02.018v.108c0 .026.022.037.096.036z" id="Fill-8574" fill="#FF0" mask="url(#mask-2)"/><path d="M7.343 11.206h.199c.038 0 .053-.018.053-.041v-.11c0-.013-.008-.015-.016-.015h-.047c-.014 0-.015.006-.015.016v.038c0 .007-.002.014-.013.014h-.038c-.007 0-.01-.006-.01-.014v-.042c0-.008-.004-.01-.015-.01h-.047c-.014 0-.014.005-.014.014v.044c0 .008 0 .01-.01.01h-.037c-.01 0-.012-.003-.012-.012v-.043c0-.008-.003-.011-.01-.011h-.044c-.015 0-.02.01-.02.018v.108c0 .026.022.037.096.036z" id="Stroke-8575" stroke="#000" stroke-width=".134" mask="url(#mask-2)"/><path id="Fill-8576" fill="#FF0" mask="url(#mask-2)" d="M12.62 11.442l.034-.473h.21l.033.469z"/><path id="Stroke-8577" stroke="#000" stroke-width=".134" mask="url(#mask-2)" d="M12.62 11.442l.034-.473h.21l.033.469z"/><path d="M12.73 11.238h.055v-.103a.027.027 0 00-.027-.027.027.027 0 00-.028.027v.103" id="Fill-8578" fill="#000" mask="url(#mask-2)"/><path id="Fill-8579" fill="#FF0" mask="url(#mask-2)" d="M12.287 11.44l.016-.26h.232l.022.26z"/><path id="Stroke-8580" stroke="#000" stroke-width=".134" mask="url(#mask-2)" d="M12.287 11.44l.016-.26h.232l.022.26z"/><path id="Fill-8581" fill="#FF0" mask="url(#mask-2)" d="M12.952 11.44l.017-.26h.231l.023.26z"/><path id="Stroke-8582" stroke="#000" stroke-width=".134" mask="url(#mask-2)" d="M12.952 11.44l.017-.26h.231l.023.26z"/><path id="Fill-8583" fill="#FF0" mask="url(#mask-2)" d="M12.241 12.006l.057-.45h.92l.059.464z"/><path id="Stroke-8584" stroke="#000" stroke-width=".134" mask="url(#mask-2)" d="M12.241 12.006l.057-.45h.92l.059.464z"/><path d="M12.5 12.002s-.005-.334.254-.412c0 0 .253.069.26.41l-.513.002z" id="Fill-8585" fill="#FF0" mask="url(#mask-2)"/><path d="M12.5 12.002s-.005-.334.254-.412c0 0 .253.069.26.41l-.513.002z" id="Stroke-8586" stroke="#000" stroke-width=".134" mask="url(#mask-2)"/><path d="M12.61 12.002s-.003-.236.147-.29c0 0 .145.048.149.288l-.296.002z" id="Fill-8587" fill="#FF0" mask="url(#mask-2)"/><path d="M12.61 12.002s-.003-.236.147-.29c0 0 .145.048.149.288l-.296.002z" id="Stroke-8588" stroke="#000" stroke-width=".148" mask="url(#mask-2)"/><path d="M12.239 11.98h1.034c.026 0 .048.02.048.045a.047.047 0 01-.048.047H12.24a.046.046 0 01-.047-.047c0-.025.02-.046.047-.046" id="Fill-8589" fill="#FF0" mask="url(#mask-2)"/><path d="M12.275 11.591h.962c.024 0 .044-.02.044-.044a.045.045 0 00-.044-.045h-.962a.044.044 0 00-.044.045c0 .025.02.044.044.044" id="Fill-8590" fill="#FF0" mask="url(#mask-2)"/><path d="M12.258 11.412h.996c.025 0 .045.02.045.045 0 .025-.02.045-.045.045h-.996a.045.045 0 01-.045-.045c0-.024.02-.045.045-.045" id="Fill-8591" fill="#FF0" mask="url(#mask-2)"/><path d="M12.398 11.356h.054v-.077a.027.027 0 00-.027-.027.027.027 0 00-.027.027v.077" id="Fill-8592" fill="#000" mask="url(#mask-2)"/><path d="M13.064 11.356h.054v-.077a.027.027 0 00-.027-.027.027.027 0 00-.027.027v.077" id="Fill-8593" fill="#000" mask="url(#mask-2)"/><path d="M12.345 11.206h.2c.038 0 .054-.018.054-.041v-.11c0-.013-.01-.015-.016-.015h-.048c-.014 0-.016.006-.016.016v.038c0 .007 0 .014-.012.014h-.038c-.007 0-.01-.006-.01-.014v-.042c0-.008-.005-.01-.016-.01h-.047c-.012 0-.013.005-.013.014v.044c0 .008 0 .01-.01.01h-.037c-.01 0-.012-.003-.012-.012v-.043c0-.008-.003-.011-.011-.011h-.044c-.014 0-.018.01-.018.018v.108c0 .026.02.037.094.036z" id="Fill-8594" fill="#FF0" mask="url(#mask-2)"/><path d="M12.345 11.206h.2c.038 0 .054-.018.054-.041v-.11c0-.013-.01-.015-.016-.015h-.048c-.014 0-.016.006-.016.016v.038c0 .007 0 .014-.012.014h-.038c-.007 0-.01-.006-.01-.014v-.042c0-.008-.005-.01-.016-.01h-.047c-.012 0-.013.005-.013.014v.044c0 .008 0 .01-.01.01h-.037c-.01 0-.012-.003-.012-.012v-.043c0-.008-.003-.011-.011-.011h-.044c-.014 0-.018.01-.018.018v.108c0 .026.02.037.094.036z" id="Stroke-8595" stroke="#000" stroke-width=".134" mask="url(#mask-2)"/><path d="M12.68 11.009h.199c.039 0 .054-.019.054-.042v-.11c0-.012-.009-.015-.016-.015h-.049c-.012 0-.014.007-.014.017v.038c0 .006-.002.014-.013.014h-.038c-.006 0-.01-.006-.01-.014v-.042c0-.01-.004-.01-.015-.01h-.047c-.013 0-.014.005-.014.012v.046c0 .007 0 .01-.01.01h-.037c-.01 0-.012-.004-.012-.013v-.043c0-.007-.002-.011-.01-.011h-.045c-.014 0-.018.01-.018.019v.107c0 .026.021.037.095.037z" id="Fill-8596" fill="#FF0" mask="url(#mask-2)"/><path d="M12.68 11.009h.199c.039 0 .054-.019.054-.042v-.11c0-.012-.009-.015-.016-.015h-.049c-.012 0-.014.007-.014.017v.038c0 .006-.002.014-.013.014h-.038c-.006 0-.01-.006-.01-.014v-.042c0-.01-.004-.01-.015-.01h-.047c-.013 0-.014.005-.014.012v.046c0 .007 0 .01-.01.01h-.037c-.01 0-.012-.004-.012-.013v-.043c0-.007-.002-.011-.01-.011h-.045c-.014 0-.018.01-.018.019v.107c0 .026.021.037.095.037z" id="Stroke-8597" stroke="#000" stroke-width=".134" mask="url(#mask-2)"/><path d="M13.011 11.206h.199c.038 0 .054-.018.054-.041v-.11c0-.013-.008-.015-.016-.015H13.2c-.013 0-.015.006-.015.016v.038c0 .007-.001.014-.013.014h-.038c-.007 0-.01-.006-.01-.014v-.042c0-.008-.003-.01-.015-.01h-.046c-.014 0-.015.005-.015.014v.044c0 .008 0 .01-.01.01H13c-.01 0-.011-.003-.011-.012v-.043c0-.008-.004-.011-.01-.011h-.045c-.014 0-.02.01-.02.018v.108c0 .026.023.037.096.036z" id="Fill-8598" fill="#FF0" mask="url(#mask-2)"/><path d="M13.011 11.206h.199c.038 0 .054-.018.054-.041v-.11c0-.013-.008-.015-.016-.015H13.2c-.013 0-.015.006-.015.016v.038c0 .007-.001.014-.013.014h-.038c-.007 0-.01-.006-.01-.014v-.042c0-.008-.003-.01-.015-.01h-.046c-.014 0-.015.005-.015.014v.044c0 .008 0 .01-.01.01H13c-.01 0-.011-.003-.011-.012v-.043c0-.008-.004-.011-.01-.011h-.045c-.014 0-.02.01-.02.018v.108c0 .026.023.037.096.036z" id="Stroke-8599" stroke="#000" stroke-width=".134" mask="url(#mask-2)"/><path id="Fill-8600" fill="#FF0" mask="url(#mask-2)" d="M7.65 14.516l-.311-.357.148-.15.355.31z"/><path id="Stroke-8601" stroke="#000" stroke-width=".134" mask="url(#mask-2)" d="M7.65 14.516l-.311-.357.148-.15.355.31z"/><path d="M7.583 14.294l.04-.038-.074-.073a.027.027 0 00-.038 0 .028.028 0 000 .039l.072.072" id="Fill-8602" fill="#000" mask="url(#mask-2)"/><path id="Fill-8603" fill="#FF0" mask="url(#mask-2)" d="M7.412 14.75l-.172-.194.164-.164.2.169z"/><path id="Stroke-8604" stroke="#000" stroke-width=".134" mask="url(#mask-2)" d="M7.412 14.75l-.172-.194.164-.164.2.169z"/><path id="Fill-8605" fill="#FF0" mask="url(#mask-2)" d="M7.882 14.28l-.17-.195.162-.164.2.168z"/><path id="Stroke-8606" stroke="#000" stroke-width=".134" mask="url(#mask-2)" d="M7.882 14.28l-.17-.195.162-.164.2.168z"/><path id="Fill-8607" fill="#FF0" mask="url(#mask-2)" d="M7.78 15.184l-.277-.36.65-.65.37.287z"/><path id="Stroke-8608" stroke="#000" stroke-width=".134" mask="url(#mask-2)" d="M7.78 15.184l-.277-.36.65-.65.37.287z"/><path d="M7.96 14.997s-.24-.232-.11-.471c0 0 .226-.129.472.107l-.361.364z" id="Fill-8609" fill="#FF0" mask="url(#mask-2)"/><path d="M7.96 14.997s-.24-.232-.11-.471c0 0 .226-.129.472.107l-.361.364z" id="Stroke-8610" stroke="#000" stroke-width=".134" mask="url(#mask-2)"/><path d="M8.039 14.92s-.17-.164-.101-.309c0 0 .136-.069.308.098l-.207.21z" id="Fill-8611" fill="#FF0" mask="url(#mask-2)"/><path d="M8.039 14.92s-.17-.164-.101-.309c0 0 .136-.069.308.098l-.207.21z" id="Stroke-8612" stroke="#000" stroke-width=".148" mask="url(#mask-2)"/><path d="M7.76 15.167l.732-.732a.047.047 0 01.065 0 .045.045 0 010 .065l-.732.732a.047.047 0 01-.066 0 .047.047 0 010-.065" id="Fill-8613" fill="#FF0" mask="url(#mask-2)"/><path d="M7.512 14.866l.68-.68a.044.044 0 000-.062.045.045 0 00-.064 0l-.68.679a.045.045 0 10.064.063" id="Fill-8614" fill="#FF0" mask="url(#mask-2)"/><path d="M7.372 14.753l.705-.705a.044.044 0 01.063 0 .044.044 0 010 .063l-.704.704a.044.044 0 01-.064 0 .045.045 0 010-.062" id="Fill-8615" fill="#FF0" mask="url(#mask-2)"/><path d="M7.431 14.613l.04-.04-.055-.052a.026.026 0 00-.038 0 .026.026 0 000 .038l.053.054" id="Fill-8616" fill="#000" mask="url(#mask-2)"/><path d="M7.903 14.143l.038-.04-.054-.053a.028.028 0 00-.038 0 .027.027 0 000 .039l.054.054" id="Fill-8617" fill="#000" mask="url(#mask-2)"/><path d="M7.289 14.544l.14-.14c.028-.027.025-.052.009-.067-.016-.018-.068-.068-.077-.078-.01-.009-.017-.006-.022 0l-.034.034c-.01.01-.006.015 0 .023.008.006.022.021.028.026.005.005.008.011 0 .02l-.026.026c-.005.005-.012.003-.018-.003l-.03-.03c-.005-.006-.01-.004-.018.004a1.323 1.323 0 00-.033.032c-.01.01-.005.015 0 .02l.032.032c.005.005.007.007 0 .015l-.026.025c-.006.007-.011.006-.017 0l-.03-.03c-.006-.006-.011-.006-.016 0l-.032.03c-.01.01-.005.02 0 .026l.077.077c.019.018.041.01.093-.042z" id="Fill-8618" fill="#FF0" mask="url(#mask-2)"/><path d="M7.289 14.544l.14-.14c.028-.027.025-.052.009-.067-.016-.018-.068-.068-.077-.078-.01-.009-.017-.006-.022 0l-.034.034c-.01.01-.006.015 0 .023.008.006.022.021.028.026.005.005.008.011 0 .02l-.026.026c-.005.005-.012.003-.018-.003l-.03-.03c-.005-.006-.01-.004-.018.004a1.323 1.323 0 00-.033.032c-.01.01-.005.015 0 .02l.032.032c.005.005.007.007 0 .015l-.026.025c-.006.007-.011.006-.017 0l-.03-.03c-.006-.006-.011-.006-.016 0l-.032.03c-.01.01-.005.02 0 .026l.077.077c.019.018.041.01.093-.042z" id="Stroke-8619" stroke="#000" stroke-width=".134" mask="url(#mask-2)"/><path d="M7.385 14.168l.142-.14c.026-.028.024-.052.008-.068l-.078-.078c-.009-.008-.017-.005-.022 0a.692.692 0 01-.034.034c-.008.01-.006.016.001.023a.913.913 0 01.027.027c.005.005.01.011.002.02-.009.007-.022.021-.027.026-.005.005-.012.003-.018-.003a2.238 2.238 0 01-.03-.03c-.006-.006-.01-.005-.018.003a1.318 1.318 0 01-.033.034c-.01.009-.005.014 0 .02l.032.03c.005.006.007.008 0 .016l-.026.025c-.006.008-.011.006-.017 0a.661.661 0 01-.03-.03c-.007-.006-.01-.006-.017 0l-.03.03c-.01.01-.006.02 0 .026l.076.077c.019.019.04.01.092-.042z" id="Fill-8620" fill="#FF0" mask="url(#mask-2)"/><path d="M7.385 14.168l.142-.14c.026-.028.024-.052.008-.068l-.078-.078c-.009-.008-.017-.005-.022 0a.692.692 0 01-.034.034c-.008.01-.006.016.001.023a.913.913 0 01.027.027c.005.005.01.011.002.02-.009.007-.022.021-.027.026-.005.005-.012.003-.018-.003a2.238 2.238 0 01-.03-.03c-.006-.006-.01-.005-.018.003a1.318 1.318 0 01-.033.034c-.01.009-.005.014 0 .02l.032.03c.005.006.007.008 0 .016l-.026.025c-.006.008-.011.006-.017 0a.661.661 0 01-.03-.03c-.007-.006-.01-.006-.017 0l-.03.03c-.01.01-.006.02 0 .026l.076.077c.019.019.04.01.092-.042z" id="Stroke-8621" stroke="#000" stroke-width=".134" mask="url(#mask-2)"/><path d="M7.76 14.074l.14-.141c.027-.027.025-.051.009-.068a7.289 7.289 0 00-.078-.077c-.01-.01-.016-.005-.022 0l-.034.034c-.01.01-.006.016.001.023l.027.026c.004.005.01.011.002.019a.521.521 0 01-.028.027c-.004.005-.011.003-.017-.002l-.03-.03c-.006-.007-.01-.005-.018.002l-.033.034c-.009.01-.006.014 0 .02l.032.031c.005.005.007.008 0 .015l-.026.026c-.007.007-.011.006-.017 0l-.031-.03c-.006-.007-.01-.007-.016-.001l-.03.03c-.01.01-.006.02 0 .027l.076.076c.019.018.04.01.092-.041z" id="Fill-8622" fill="#FF0" mask="url(#mask-2)"/><path d="M7.76 14.074l.14-.141c.027-.027.025-.051.009-.068a7.289 7.289 0 00-.078-.077c-.01-.01-.016-.005-.022 0l-.034.034c-.01.01-.006.016.001.023l.027.026c.004.005.01.011.002.019a.521.521 0 01-.028.027c-.004.005-.011.003-.017-.002l-.03-.03c-.006-.007-.01-.005-.018.002l-.033.034c-.009.01-.006.014 0 .02l.032.031c.005.005.007.008 0 .015l-.026.026c-.007.007-.011.006-.017 0l-.031-.03c-.006-.007-.01-.007-.016-.001l-.03.03c-.01.01-.006.02 0 .027l.076.076c.019.018.04.01.092-.041z" id="Stroke-8623" stroke="#000" stroke-width=".134" mask="url(#mask-2)"/><path id="Fill-8624" fill="#FF0" mask="url(#mask-2)" d="M12.2 14.516l.311-.357-.148-.15-.356.31z"/><path id="Stroke-8625" stroke="#000" stroke-width=".134" mask="url(#mask-2)" d="M12.2 14.516l.311-.357-.148-.15-.356.31z"/><path d="M12.267 14.294l-.04-.038.074-.073a.026.026 0 01.038 0c.011.01.011.027 0 .039l-.072.072" id="Fill-8626" fill="#000" mask="url(#mask-2)"/><path id="Fill-8627" fill="#FF0" mask="url(#mask-2)" d="M12.438 14.75l.172-.194-.164-.164-.2.169z"/><path id="Stroke-8628" stroke="#000" stroke-width=".134" mask="url(#mask-2)" d="M12.438 14.75l.172-.194-.164-.164-.2.169z"/><path id="Fill-8629" fill="#FF0" mask="url(#mask-2)" d="M11.967 14.28l.173-.195-.164-.164-.2.168z"/><path id="Stroke-8630" stroke="#000" stroke-width=".134" mask="url(#mask-2)" d="M11.967 14.28l.173-.195-.164-.164-.2.168z"/><path id="Fill-8631" fill="#FF0" mask="url(#mask-2)" d="M12.07 15.184l.278-.36-.65-.65-.371.287z"/><path id="Stroke-8632" stroke="#000" stroke-width=".134" mask="url(#mask-2)" d="M12.07 15.184l.278-.36-.65-.65-.371.287z"/><path d="M11.89 14.997s.24-.232.11-.471c0 0-.226-.129-.472.107l.361.364z" id="Fill-8633" fill="#FF0" mask="url(#mask-2)"/><path d="M11.89 14.997s.24-.232.11-.471c0 0-.226-.129-.472.107l.361.364z" id="Stroke-8634" stroke="#000" stroke-width=".134" mask="url(#mask-2)"/><path d="M11.811 14.92s.17-.164.101-.309c0 0-.136-.069-.308.098l.207.21z" id="Fill-8635" fill="#FF0" mask="url(#mask-2)"/><path d="M11.811 14.92s.17-.164.101-.309c0 0-.136-.069-.308.098l.207.21z" id="Stroke-8636" stroke="#000" stroke-width=".148" mask="url(#mask-2)"/><path d="M12.09 15.167l-.732-.732a.047.047 0 00-.065 0 .045.045 0 000 .065l.732.732a.047.047 0 00.065 0 .046.046 0 000-.065" id="Fill-8637" fill="#FF0" mask="url(#mask-2)"/><path d="M12.338 14.866l-.68-.68a.044.044 0 010-.062.045.045 0 01.064 0l.68.679a.045.045 0 11-.064.063" id="Fill-8638" fill="#FF0" mask="url(#mask-2)"/><path d="M12.478 14.753l-.705-.705a.044.044 0 00-.064 0 .045.045 0 000 .063l.705.704a.044.044 0 00.064 0 .044.044 0 000-.062" id="Fill-8639" fill="#FF0" mask="url(#mask-2)"/><path d="M12.419 14.613l-.04-.04.055-.052a.026.026 0 01.038 0 .026.026 0 010 .038l-.053.054" id="Fill-8640" fill="#000" mask="url(#mask-2)"/><path d="M11.948 14.143l-.04-.04.055-.053c.01-.01.028-.01.039 0 .01.01.01.028 0 .039l-.054.054" id="Fill-8641" fill="#000" mask="url(#mask-2)"/><path d="M12.561 14.544l-.14-.14c-.028-.027-.025-.052-.01-.067l.078-.078c.01-.009.017-.006.022 0l.035.034c.009.01.005.015-.001.023-.008.006-.022.021-.027.026-.006.005-.01.011-.001.02l.026.026c.005.005.012.003.017-.003l.03-.03c.006-.006.011-.004.018.004l.034.032c.01.01.005.015 0 .02l-.032.032c-.005.005-.007.007 0 .015.007.007.018.019.026.025.007.007.011.006.017 0l.03-.03c.007-.006.011-.006.016 0l.031.03c.01.01.007.02 0 .026l-.076.077c-.019.018-.041.01-.093-.042z" id="Fill-8642" fill="#FF0" mask="url(#mask-2)"/><path d="M12.561 14.544l-.14-.14c-.028-.027-.025-.052-.01-.067l.078-.078c.01-.009.017-.006.022 0l.035.034c.009.01.005.015-.001.023-.008.006-.022.021-.027.026-.006.005-.01.011-.001.02l.026.026c.005.005.012.003.017-.003l.03-.03c.006-.006.011-.004.018.004l.034.032c.01.01.005.015 0 .02l-.032.032c-.005.005-.007.007 0 .015.007.007.018.019.026.025.007.007.011.006.017 0l.03-.03c.007-.006.011-.006.016 0l.031.03c.01.01.007.02 0 .026l-.076.077c-.019.018-.041.01-.093-.042z" id="Stroke-8643" stroke="#000" stroke-width=".134" mask="url(#mask-2)"/><path d="M12.465 14.168l-.14-.14c-.028-.028-.026-.052-.01-.068l.077-.078c.01-.008.018-.005.023 0a.533.533 0 00.034.034c.009.01.006.016-.001.023a.992.992 0 01-.028.027c-.004.005-.008.011 0 .02l.026.026c.006.005.012.003.018-.003l.03-.03c.006-.006.01-.005.018.003l.033.034c.01.009.005.014 0 .02a.99.99 0 01-.032.03c-.005.006-.007.008 0 .016l.026.025c.007.008.011.006.018 0l.03-.03c.006-.006.01-.006.016 0l.03.03c.01.01.006.02 0 .026l-.076.077c-.019.019-.04.01-.092-.042z" id="Fill-8644" fill="#FF0" mask="url(#mask-2)"/><path d="M12.465 14.168l-.14-.14c-.028-.028-.026-.052-.01-.068l.077-.078c.01-.008.018-.005.023 0a.533.533 0 00.034.034c.009.01.006.016-.001.023a.992.992 0 01-.028.027c-.004.005-.008.011 0 .02l.026.026c.006.005.012.003.018-.003l.03-.03c.006-.006.01-.005.018.003l.033.034c.01.009.005.014 0 .02a.99.99 0 01-.032.03c-.005.006-.007.008 0 .016l.026.025c.007.008.011.006.018 0l.03-.03c.006-.006.01-.006.016 0l.03.03c.01.01.006.02 0 .026l-.076.077c-.019.019-.04.01-.092-.042z" id="Stroke-8645" stroke="#000" stroke-width=".134" mask="url(#mask-2)"/><path d="M12.09 14.074l-.14-.141c-.027-.027-.025-.051-.009-.068l.078-.077c.008-.01.016-.005.022 0l.034.034c.01.01.006.016-.002.023l-.026.026c-.005.005-.01.011-.001.019a.417.417 0 00.027.027c.004.005.011.003.017-.002l.03-.03c.006-.007.01-.005.018.002l.033.034c.01.01.006.014 0 .02l-.031.031c-.006.005-.008.008 0 .015l.025.026c.007.007.011.006.018 0 .005-.007.024-.024.03-.03.006-.007.01-.007.015-.001l.032.03c.01.01.005.02 0 .027a7.254 7.254 0 00-.077.076c-.019.018-.04.01-.093-.041z" id="Fill-8646" fill="#FF0" mask="url(#mask-2)"/><path d="M12.09 14.074l-.14-.141c-.027-.027-.025-.051-.009-.068l.078-.077c.008-.01.016-.005.022 0l.034.034c.01.01.006.016-.002.023l-.026.026c-.005.005-.01.011-.001.019a.417.417 0 00.027.027c.004.005.011.003.017-.002l.03-.03c.006-.007.01-.005.018.002l.033.034c.01.01.006.014 0 .02l-.031.031c-.006.005-.008.008 0 .015l.025.026c.007.007.011.006.018 0 .005-.007.024-.024.03-.03.006-.007.01-.007.015-.001l.032.03c.01.01.005.02 0 .027a7.254 7.254 0 00-.077.076c-.019.018-.04.01-.093-.041z" id="Stroke-8647" stroke="#000" stroke-width=".134" mask="url(#mask-2)"/><path d="M7.794 9.287h4.244v3.36a2.128 2.128 0 01-2.122 2.122 2.128 2.128 0 01-2.122-2.122v-3.36" id="Fill-8648" fill="#FFF" mask="url(#mask-2)"/><path d="M9.466 9.811h.95v.705c0 .26-.214.475-.474.475a.477.477 0 01-.476-.475v-.705" id="Fill-8649" fill="#039" mask="url(#mask-2)"/><path d="M9.723 10.723a.13.13 0 010 .258.129.129 0 01-.127-.129c0-.071.057-.129.127-.129zm.372-.371a.13.13 0 01.128.13.128.128 0 11-.256 0 .13.13 0 01.128-.13zm-.372-.37a.13.13 0 01.128.13.13.13 0 01-.128.13.129.129 0 01-.127-.13c0-.072.057-.13.127-.13zm.745 0a.13.13 0 01.128.13.13.13 0 01-.128.13.129.129 0 01-.128-.13c0-.072.057-.13.128-.13zm0 .741a.13.13 0 010 .259.129.129 0 01-.128-.13c0-.071.057-.129.128-.129z" id="Fill-8650" fill="#FFF" mask="url(#mask-2)"/><path d="M9.466 11.435h.95v.705a.476.476 0 01-.95 0v-.705" id="Fill-8651" fill="#039" mask="url(#mask-2)"/><path d="M9.723 12.348a.129.129 0 010 .259.129.129 0 01-.127-.13.13.13 0 01.127-.13zm.372-.371c.071 0 .128.057.128.129 0 .072-.057.13-.128.13a.129.129 0 01-.128-.13.13.13 0 01.128-.13zm-.372-.37a.13.13 0 010 .259.129.129 0 01-.127-.131c0-.07.057-.129.127-.129zm.745 0c.07 0 .128.057.128.128 0 .072-.057.13-.128.13a.129.129 0 01-.128-.13.13.13 0 01.128-.129zm0 .74a.13.13 0 010 .26.129.129 0 01-.128-.13.13.13 0 01.128-.13z" id="Fill-8652" fill="#FFF" mask="url(#mask-2)"/><path d="M8.167 11.435h.948v.705a.475.475 0 01-.949 0v-.705" id="Fill-8653" fill="#039" mask="url(#mask-2)"/><path d="M8.423 12.348a.13.13 0 010 .259.129.129 0 01-.128-.13.13.13 0 01.128-.13zm.372-.371c.07 0 .128.057.128.129a.13.13 0 01-.128.13.129.129 0 01-.128-.13.13.13 0 01.128-.13zm-.372-.37c.07 0 .128.057.128.128 0 .072-.057.13-.128.13a.129.129 0 01-.128-.13.13.13 0 01.128-.129zm.744 0a.13.13 0 010 .259.129.129 0 01-.128-.131.13.13 0 01.128-.129zm0 .74a.13.13 0 010 .26.129.129 0 01-.128-.13.13.13 0 01.128-.13z" id="Fill-8654" fill="#FFF" mask="url(#mask-2)"/><path d="M10.761 11.435h.949v.705a.476.476 0 01-.475.475.476.476 0 01-.474-.475v-.705" id="Fill-8655" fill="#039" mask="url(#mask-2)"/><path d="M11.017 12.348a.129.129 0 010 .259.129.129 0 01-.127-.13.13.13 0 01.127-.13zm.373-.371c.07 0 .127.057.127.129 0 .072-.057.13-.127.13a.128.128 0 01-.127-.13c0-.072.056-.13.127-.13zm-.373-.37a.13.13 0 010 .259.13.13 0 010-.26zm.745 0c.071 0 .128.057.128.128 0 .072-.057.13-.128.13a.13.13 0 010-.259zm0 .74a.13.13 0 01.128.13.13.13 0 01-.128.13.13.13 0 010-.26z" id="Fill-8656" fill="#FFF" mask="url(#mask-2)"/><path d="M9.466 13.034h.95v.705a.476.476 0 01-.474.474.476.476 0 01-.476-.474v-.705" id="Fill-8657" fill="#039" mask="url(#mask-2)"/><path d="M9.723 13.946a.13.13 0 010 .259.129.129 0 01-.127-.13c0-.07.057-.129.127-.129zm.372-.37c.071 0 .128.058.128.13a.13.13 0 01-.128.129.129.129 0 01-.128-.13.13.13 0 01.128-.129zm-.372-.371a.13.13 0 010 .259.128.128 0 01-.127-.129.13.13 0 01.127-.13zm.745 0a.13.13 0 01.128.13.128.128 0 11-.256 0 .13.13 0 01.128-.13zm0 .741a.13.13 0 01.128.13.13.13 0 01-.128.129.129.129 0 01-.128-.13.13.13 0 01.128-.129z" id="Fill-8658" fill="#FFF" mask="url(#mask-2)"/></g></g></svg>