<svg version="1.1" id="Слой_1" xmlns="http://www.w3.org/2000/svg" xmlns:xlink="http://www.w3.org/1999/xlink" x="0" y="0" viewBox="0 0 24 24" xml:space="preserve"><defs><circle id="SVGID_1_" cx="12" cy="12" r="12"/></defs><clipPath id="SVGID_2_"><use xlink:href="#SVGID_1_" overflow="visible"/></clipPath><path transform="translate(-.016 .04)" clip-path="url(#SVGID_2_)" fill="#7c0040" d="M-8.8-11.1h54v36.6h-54z"/><path clip-path="url(#SVGID_2_)" fill="#fff" d="M5.5-11l5.1 1.9L5.5-7l5.1 2-5.1 2.1 5.1 2-5.1 2.1 5.1 2-5.1 2.1 5.1 1.9-5.1 2.1 5.1 2-5.1 2.1 5.1 2-5 2.1 5.1 2-5.1 2.1 5.1 2-5.1 2-14.4.1V-11z"/><path clip-path="url(#SVGID_2_)" fill="none" stroke="#000" stroke-width=".5" d="M-8.8-11.1h54v36.6h-54z"/><circle cx="12" cy="12" r="12" fill-rule="evenodd" clip-rule="evenodd" fill="none" stroke="#ccc" stroke-width=".1" stroke-miterlimit="10"/></svg>