<svg width="24" height="24" xmlns="http://www.w3.org/2000/svg" xmlns:xlink="http://www.w3.org/1999/xlink"><defs><path d="M23.993 11.963c0 6.604-5.354 11.958-11.959 11.958C5.43 23.921.076 18.567.076 11.963.076 5.358 5.43.004 12.034.004c6.605 0 11.96 5.354 11.96 11.96z" id="path-1"/></defs><g id="Page-1" stroke="none" stroke-width="1" fill="none" fill-rule="evenodd"><g id="Сингапур"><mask id="mask-2" fill="#fff"><use xlink:href="#path-1"/></mask><path id="Fill-9201" fill="#F90805" mask="url(#mask-2)" d="M.075 11.963h35.876V.004H.075z"/><path d="M.076 23.922H35.95V11.963H.076v11.959zM7.908 1.479c.51 0 1.001.085 1.458.243-2.261.217-4.026 2.033-4.026 4.24 0 2.208 1.765 4.024 4.026 4.242A4.484 4.484 0 117.908 1.48zm2.368.834l.24.744.78-.002-.632.458.242.742-.63-.46-.632.46.243-.742-.633-.458.782.002.24-.744zM12.67 4.14l.24.743.781-.001-.633.458.243.742-.631-.46-.631.46.243-.742-.633-.458.781.001.24-.743zm-4.791 0l.24.743.781-.001-.632.458.242.742-.631-.46-.63.46.242-.742-.633-.458.781.001.24-.743zm.895 2.814l.24.744.78-.002-.632.459.243.742-.631-.46-.632.46.243-.742-.632-.459.78.002.24-.744zm3.002 0l.24.744.78-.002-.632.459.243.742-.631-.46-.631.46.243-.742-.633-.459.78.002.24-.744z" id="Fill-9203" fill="#F0F0F0" mask="url(#mask-2)"/></g></g></svg>