<svg width="24" height="24" xmlns="http://www.w3.org/2000/svg" xmlns:xlink="http://www.w3.org/1999/xlink"><defs><path d="M23.931 11.965c0 6.605-5.354 11.959-11.958 11.959-6.605 0-11.96-5.354-11.96-11.959C.013 5.361 5.368.007 11.973.007c6.604 0 11.958 5.354 11.958 11.958z" id="path-1"/></defs><g id="Page-1" stroke="none" stroke-width="1" fill="none" fill-rule="evenodd"><g id="Южная-Корея"><mask id="mask-2" fill="#fff"><use xlink:href="#path-1"/></mask><path id="Fill-7219" fill="#F0F0F0" mask="url(#mask-2)" d="M-5.967 23.924H29.91V.007H-5.967z"/><path id="Stroke-7221" stroke="#F3F3F4" stroke-width=".178" mask="url(#mask-2)" d="M-5.967 23.924H29.91V.007H-5.967z"/><path d="M16.618 14.029a5.109 5.109 0 11-9.217-4.4c-.487 2.523 1.474 4.042 3.289 3.316 1.006-.402 1.199-1.075 1.949-1.628 1.86-1.373 4.302.166 3.988 2.69l-.01.022" id="Fill-7222" fill="#0437A0" mask="url(#mask-2)"/><path d="M11.942 6.862a5.109 5.109 0 014.685 7.146c.314-2.525-2.127-4.064-3.988-2.691-.75.553-.943 1.226-1.95 1.628-1.814.726-3.775-.793-3.288-3.316a5.108 5.108 0 014.54-2.767" id="Fill-7223" fill="#FF1612" mask="url(#mask-2)"/><path d="M2.41 8.653l2.839-4.257.704.472-2.838 4.257-.706-.472zm1.04.713l2.84-4.257.704.472-2.839 4.257-.705-.472zM1.321 7.96l2.84-4.257.705.472-2.84 4.257-.704-.472z" id="Fill-7224" fill="#000" mask="url(#mask-2)"/><path d="M20.829 9.125l-2.84-4.257.706-.472 2.839 4.257-.705.472zm1.088-.692L20.594 6.45l.706-.47 1.322 1.981-.705.472zm-1.549-2.322l-1.29-1.935.704-.472 1.292 1.937-.706.47zm-.58 3.727l-1.315-1.973.705-.47 1.315 1.97-.705.473zm-1.541-2.312l-1.298-1.945.705-.472 1.299 1.947-.706.47z" id="Fill-7225" fill="#000" mask="url(#mask-2)"/><path d="M20.493 14.565l-1.315 1.971-.705-.47 1.315-1.973.705.472zm-1.54 2.31l-1.3 1.947-.704-.472 1.298-1.946.706.471zm3.669-.905L21.3 17.95l-.706-.47 1.323-1.983.705.472zm-1.548 2.32l-1.292 1.937-.705-.472 1.291-1.936.706.471zm.46-3.012l-1.306 1.958-.706-.47 1.307-1.96.705.472zm-1.532 2.298l-1.307 1.959-.705-.472 1.306-1.959.706.472z" id="Fill-7226" fill="#000" mask="url(#mask-2)"/><path d="M3.13 14.806l1.308 1.96-.706.47-1.306-1.958.705-.472zm1.042-.713l2.84 4.257-.705.472-2.84-4.257.705-.472zm-2.128 1.405l2.839 4.257-.705.472-2.84-4.257.706-.472zm2.62 1.606l1.307 1.959-.705.472-1.308-1.96.706-.47z" id="Fill-7227" fill="#000" mask="url(#mask-2)"/></g></g></svg>