<svg width="24" height="24" xmlns="http://www.w3.org/2000/svg" xmlns:xlink="http://www.w3.org/1999/xlink"><defs><path d="M23.931 11.963c0 6.552-5.355 11.865-11.959 11.865-6.604 0-11.958-5.313-11.958-11.865C.014 5.409 5.368.096 11.972.096S23.931 5.41 23.931 11.963z" id="path-1"/></defs><g id="Page-1" stroke="none" stroke-width="1" fill="none" fill-rule="evenodd"><g id="Шри-Ланка"><mask id="mask-2" fill="#fff"><use xlink:href="#path-1"/></mask><path id="Fill-9804" fill="#FFC703" mask="url(#mask-2)" d="M.014 23.828H23.93V.096H.014z"/><path id="Fill-9806" fill="#F60" mask="url(#mask-2)" d="M3.23 21.832h4.698V1.825H3.23z"/><path id="Fill-9807" fill="#007A26" mask="url(#mask-2)" d="M-1.47 21.832h4.7V1.825h-4.7z"/><path id="Fill-9808" fill="#C20B18" mask="url(#mask-2)" d="M9.626 21.832h21.769V1.825H9.625z"/><path d="M13.608 13.115c-.189.198.049.334.049.334-.144.249.11.342.11.342s-.004.14-.025.196c-.021.057-.11.008-.145-.023-.035-.03-.125-.06-.193-.011-.068.047-.127.188-.036.284.09.097.253.092.329.086.076-.005.054.064.03.093-.023.03-.096.134-.152.195-.056.06-.008.094.04.158a.726.726 0 01.097.379c-.003.144-.163.31-.163.31a.354.354 0 00-.185-.165c-.036-.006-.214-.03-.208.21.006.238.47.355.47.355s-.173.178-.23.216c-.057.038-.004.064.029.068.034.005.236.036.31.058.072.022.073.154.107.217.032.062.101.14.141.14.04 0 .114-.076.153-.133.038-.057.055-.183.089-.216.034-.034.279-.059.334-.069.054-.011.06-.03.038-.05-.02-.018-.243-.236-.243-.236.334-.058.492-.256.492-.377s-.117-.215-.244-.196c-.127.019-.17.153-.17.153a.392.392 0 01-.184-.299.518.518 0 01.098-.337c.057-.084.088-.144.051-.185a2.062 2.062 0 01-.161-.205c-.02-.038-.06-.112-.019-.132.042-.02.136.037.202.06.065.025.24-.008.246-.143.006-.137-.116-.193-.191-.202-.076-.01-.22-.002-.22-.002-.01-.025-.044-.08-.044-.08.14-.005.183-.066.183-.066s.025.061.098.07c.073.009.145-.096.145-.096s.066.029.114.08c.048.051.109.095.109.17 0 .073.014.451.011.6-.002.151.054.189.115.272.06.084.13.02.136-.04.006-.06.025-.07.072-.107.047-.036.082-.052.129 0 .046.051.457.42.687.613.23.193.539.018.693-.08.153-.098.413-.395.413-.395.66.495.872.448.872.448s.27.731.336 1.191a.625.625 0 01-.369.695c-.11.049-.514.044-.652.04-.14-.006-.222.002-.316.056a.871.871 0 00-.358.588c-.058.34.437-.022.437-.022.262.39.662.002.662.002.371.357.74.009.74.009.23.167.532.17.6.118.068-.053.244-.28.219-.405-.025-.126-.078-.481-.048-.555.03-.076.09-.056.398-.166.308-.11.314-.214.463-.399.148-.185.012-.19-.149-.225s-.376-.05-.448-.208c-.074-.157.055-.354.135-.494.081-.14.316-.507.316-.507.33-.053 1.337-.53 1.97-.784.632-.256 1.135-.18 1.135-.18-.05.498.248.88.472 1.158.225.277.435.583.455.796.02.212.042 1.111.042 1.111-.076.14-.295.203-.477.21-.18.008-.455.018-.58.086-.123.067-.402.427-.257.557.147.13.492-.152.492-.152.325.405.644.01.644.01.373.378.648.013.648.013.438.348.617.063.617.063.063.262.471-.07.471-.07.29.39.644-.005.644-.005.457.419.693-.011.693-.011.52.355.716.092.643-.048-.073-.14-.4-.493-.319-.801.08-.308.426-.458.605-.695.18-.238-.055-.273-.19-.33-.133-.058-.467-.232-.442-1.032.026-.8.598-1.638.613-2.593.015-.955-.536-1.583-.536-1.583 1.022-.81.513-1.705.047-1.98-.466-.275-1.081-.22-1.502-.17-.42.05-1.143.146-1.574.126-.43-.02-.482-.283-.507-.415-.025-.133-.134-.134-.258-.055-.125.078-.267.272-.267.272s-.153-.144-.144-.376c.008-.232.49-.403.49-.403-.649-.521-1.043.18-1.043.18-.512-.435-.177-.741-.024-.84.153-.1.403-.082.465.076.062.16.183.056.252-.061.07-.118.034-.413.034-.413.64.039.932.717.496 1.266.582.051 1.012-.54.766-1.123.563.218.582.6.274 1.047-.04.059-.025.112.049.107.073-.005.193.003.401-.139a.713.713 0 00.27-.349c.104.198.355.354.444.407.09.054.365.18.418.106.05-.074-.087-.153-.148-.284-.06-.132-.082-.307-.082-.307.13.077.762.614.974.781a.975.975 0 00.909.12c.305-.127.338-.44.266-.66-.072-.22-.334-.313-.546-.183-.211.13-.124.385-.124.385-.277-.022-.72-.433-.966-.623a7.397 7.397 0 00-1.37-.86c-.624-.292-1.097-.33-1.69-.309-.592.023-.765.14-.894.193-.128.053-.297.137-.635.385-.337.248-.425.612-.372.987.053.375.442.759.442.759s-.18.186-.168.444c.013.257.154.412.25.512.096.1.122-.053.15-.237.027-.184.205-.237.376-.182.172.055.592.244 1.04.329.45.085 1.211.041 1.506-.031a4.792 4.792 0 011.132-.136c.516-.01.774.203.819.55.045.348-.183.555-.387.647a3.586 3.586 0 01-.751.238c-.23.04-.577.032-.99.017-.414-.015-.883.009-1.16.064-.278.055-.578.063-1.012.058a74.446 74.446 0 01-1.347-.04s-.199-.23-.262-.387c-.063-.156-.05-.336-.05-.336s.164.146.252.09c.089-.054-.073-.321-.108-.452-.034-.131-.01-.24-.01-.24s.07.036.105-.005c.035-.041.03-.387.036-.555.005-.167.04-.718-.02-.946-.06-.229-.203-.379-.203-.379s.183-.18.315-.427c.133-.248.122-.542.122-.542-.129.13-.39.348-.557.345-.167-.002-.181-.076-.325-.197a1.369 1.369 0 00-.493-.249c-.13-.032-.128.095-.161.198-.033.104-.118.213-.118.213s-.116-.13-.3-.267a.675.675 0 00-.448-.146c-.107.005-.116.142-.111.338.005.196-.2.054-.293-.03-.093-.084-.178-.116-.39-.133-.214-.019-.572.048-.572.048s.075.188.07.26c-.005.073-.117.168-.207.237-.091.069-.235.091-.434.095a.957.957 0 00-.418.098c-.099.046-.361.008-.532.081.063-.56-.682-.668-.796-.224-.085.332.097.714.308.96.199.233.435.468.488.544.053.076.233.154.298.184.066.032.076.013.073-.009-.004-.021-.006-.229-.006-.229s.176.168.266.212c.09.044.116-.009.128-.09.013-.078.058-.142.058-.142.056.148.462.65.462.65s-.305-.001-.431-.029a5.934 5.934 0 01-.825-.25c-.24-.106-.66-.428-.773-.209-.114.218.22.428.22.428-.085.019-.13.104-.144.186a4.17 4.17 0 01-.157.485c-.033.074-.076.146.03.143.106-.002.536-.07.572-.078.037-.008.044 0 .027.035-.018.035-.06.14-.08.183-.02.042-.043.087.004.076.047-.012.342-.07.404-.101.062-.03.11-.053.165.023.056.076.155.181.213.178.058-.002.09-.069.11-.178.02-.11.09.063.15.167.059.104.157.231.228.21.07-.021.106-.18.179-.244.073-.065.22-.098.227.117.008.215-.295.235-1.163 1.032-.867.798-.651 2.137-.651 2.137l-1.271-1.242s.388-.206.3-.564c-.089-.36-.55-.314-.55-.314s.021-.093.023-.206l.035-1.617c.02-.945.13-2.489.238-3.33.108-.84.28-.917.227-.952-.053-.035-.29.073-.593.373-.302.3-.653 1.03-.764 1.554-.26 1.226-.18 2.923-.163 4.202a.609.609 0 00-.375.055.383.383 0 00-.144.555c.164.29.57.351.57.351-.152.135-.017.269-.017.269-.272.066-.102.303.015.407zm11.69 2.188c.256.155.822.485.97.756.15.272.157 1.014.018 1.124-.138.11-.615.17-.81.29-.173.108-.207.131-.248.21-.005.01-.096.273-.102.284 0 0-.023.028-.017-.006.007-.035.106-.27.106-.282a.84.84 0 00-.073-.346c-.096-.23-.04-.402.089-.56.128-.157.478-.505.397-.652-.08-.148-.361-.04-.447-.116-.086-.076-.324-.299.117-.702z" id="Fill-9809" fill="#FFC703" mask="url(#mask-2)"/><path d="M13.608 13.115c-.189.198.049.334.049.334-.144.249.11.342.11.342s-.004.14-.025.196c-.021.057-.11.008-.145-.023-.035-.03-.125-.06-.193-.011-.068.047-.127.188-.036.284.09.097.253.092.329.086.076-.005.054.064.03.093-.023.03-.096.134-.152.195-.056.06-.008.094.04.158a.726.726 0 01.097.379c-.003.144-.163.31-.163.31a.354.354 0 00-.185-.165c-.036-.006-.214-.03-.208.21.006.238.47.355.47.355s-.173.178-.23.216c-.057.038-.004.064.029.068.034.005.236.036.31.058.072.022.073.154.107.217.032.062.101.14.141.14.04 0 .114-.076.153-.133.038-.057.055-.183.089-.216.034-.034.279-.059.334-.069.054-.011.06-.03.038-.05-.02-.018-.243-.236-.243-.236.334-.058.492-.256.492-.377s-.117-.215-.244-.196c-.127.019-.17.153-.17.153a.392.392 0 01-.184-.299.518.518 0 01.098-.337c.057-.084.088-.144.051-.185a2.062 2.062 0 01-.161-.205c-.02-.038-.06-.112-.019-.132.042-.02.136.037.202.06.065.025.24-.008.246-.143.006-.137-.116-.193-.191-.202-.076-.01-.22-.002-.22-.002-.01-.025-.044-.08-.044-.08.14-.005.183-.066.183-.066s.025.061.098.07c.073.009.145-.096.145-.096s.066.029.114.08c.048.051.109.095.109.17 0 .073.014.451.011.6-.002.151.054.189.115.272.06.084.13.02.136-.04.006-.06.025-.07.072-.107.047-.036.082-.052.129 0 .046.051.457.42.687.613.23.193.539.018.693-.08.153-.098.413-.395.413-.395.66.495.872.448.872.448s.27.731.336 1.191a.625.625 0 01-.369.695c-.11.049-.514.044-.652.04-.14-.006-.222.002-.316.056a.871.871 0 00-.358.588c-.058.34.437-.022.437-.022.262.39.662.002.662.002.371.357.74.009.74.009.23.167.532.17.6.118.068-.053.244-.28.219-.405-.025-.126-.078-.481-.048-.555.03-.076.09-.056.398-.166.308-.11.314-.214.463-.399.148-.185.012-.19-.149-.225s-.376-.05-.448-.208c-.074-.157.055-.354.135-.494.081-.14.316-.507.316-.507.33-.053 1.337-.53 1.97-.784.632-.256 1.135-.18 1.135-.18-.05.498.248.88.472 1.158.225.277.435.583.455.796.02.212.042 1.111.042 1.111-.076.14-.295.203-.477.21-.18.008-.455.018-.58.086-.123.067-.402.427-.257.557.147.13.492-.152.492-.152.325.405.644.01.644.01.373.378.648.013.648.013.438.348.617.063.617.063.063.262.471-.07.471-.07.29.39.644-.005.644-.005.457.419.693-.011.693-.011.52.355.716.092.643-.048-.073-.14-.4-.493-.319-.801.08-.308.426-.458.605-.695.18-.238-.055-.273-.19-.33-.133-.058-.467-.232-.442-1.032.026-.8.598-1.638.613-2.593.015-.955-.536-1.583-.536-1.583 1.022-.81.513-1.705.047-1.98-.466-.275-1.081-.22-1.502-.17-.42.05-1.143.146-1.574.126-.43-.02-.482-.283-.507-.415-.025-.133-.134-.134-.258-.055-.125.078-.267.272-.267.272s-.153-.144-.144-.376c.008-.232.49-.403.49-.403-.649-.521-1.043.18-1.043.18-.512-.435-.177-.741-.024-.84.153-.1.403-.082.465.076.062.16.183.056.252-.061.07-.118.034-.413.034-.413.64.039.932.717.496 1.266.582.051 1.012-.54.766-1.123.563.218.582.6.274 1.047-.04.059-.025.112.049.107.073-.005.193.003.401-.139a.713.713 0 00.27-.349c.104.198.355.354.444.407.09.054.365.18.418.106.05-.074-.087-.153-.148-.284-.06-.132-.082-.307-.082-.307.13.077.762.614.974.781a.975.975 0 00.909.12c.305-.127.338-.44.266-.66-.072-.22-.334-.313-.546-.183-.211.13-.124.385-.124.385-.277-.022-.72-.433-.966-.623a7.397 7.397 0 00-1.37-.86c-.624-.292-1.097-.33-1.69-.309-.592.023-.765.14-.894.193-.128.053-.297.137-.635.385-.337.248-.425.612-.372.987.053.375.442.759.442.759s-.18.186-.168.444c.013.257.154.412.25.512.096.1.122-.053.15-.237.027-.184.205-.237.376-.182.172.055.592.244 1.04.329.45.085 1.211.041 1.506-.031a4.792 4.792 0 011.132-.136c.516-.01.774.203.819.55.045.348-.183.555-.387.647a3.586 3.586 0 01-.751.238c-.23.04-.577.032-.99.017-.414-.015-.883.009-1.16.064-.278.055-.578.063-1.012.058a74.446 74.446 0 01-1.347-.04s-.199-.23-.262-.387c-.063-.156-.05-.336-.05-.336s.164.146.252.09c.089-.054-.073-.321-.108-.452-.034-.131-.01-.24-.01-.24s.07.036.105-.005c.035-.041.03-.387.036-.555.005-.167.04-.718-.02-.946-.06-.229-.203-.379-.203-.379s.183-.18.315-.427c.133-.248.122-.542.122-.542-.129.13-.39.348-.557.345-.167-.002-.181-.076-.325-.197a1.369 1.369 0 00-.493-.249c-.13-.032-.128.095-.161.198-.033.104-.118.213-.118.213s-.116-.13-.3-.267a.675.675 0 00-.448-.146c-.107.005-.116.142-.111.338.005.196-.2.054-.293-.03-.093-.084-.178-.116-.39-.133-.214-.019-.572.048-.572.048s.075.188.07.26c-.005.073-.117.168-.207.237-.091.069-.235.091-.434.095a.957.957 0 00-.418.098c-.099.046-.361.008-.532.081.063-.56-.682-.668-.796-.224-.085.332.097.714.308.96.199.233.435.468.488.544.053.076.233.154.298.184.066.032.076.013.073-.009-.004-.021-.006-.229-.006-.229s.176.168.266.212c.09.044.116-.009.128-.09.013-.078.058-.142.058-.142.056.148.462.65.462.65s-.305-.001-.431-.029a5.934 5.934 0 01-.825-.25c-.24-.106-.66-.428-.773-.209-.114.218.22.428.22.428-.085.019-.13.104-.144.186a4.17 4.17 0 01-.157.485c-.033.074-.076.146.03.143.106-.002.536-.07.572-.078.037-.008.044 0 .027.035-.018.035-.06.14-.08.183-.02.042-.043.087.004.076.047-.012.342-.07.404-.101.062-.03.11-.053.165.023.056.076.155.181.213.178.058-.002.09-.069.11-.178.02-.11.09.063.15.167.059.104.157.231.228.21.07-.021.106-.18.179-.244.073-.065.22-.098.227.117.008.215-.295.235-1.163 1.032-.867.798-.651 2.137-.651 2.137l-1.271-1.242s.388-.206.3-.564c-.089-.36-.55-.314-.55-.314s.021-.093.023-.206l.035-1.617c.02-.945.13-2.489.238-3.33.108-.84.28-.917.227-.952-.053-.035-.29.073-.593.373-.302.3-.653 1.03-.764 1.554-.26 1.226-.18 2.923-.163 4.202a.609.609 0 00-.375.055.383.383 0 00-.144.555c.164.29.57.351.57.351-.152.135-.017.269-.017.269-.272.066-.102.303.015.407zm11.69 2.188c.256.155.822.485.97.756.15.272.157 1.014.018 1.124-.138.11-.615.17-.81.29-.173.108-.207.131-.248.21-.005.01-.096.273-.102.284 0 0-.023.028-.017-.006.007-.035.106-.27.106-.282a.84.84 0 00-.073-.346c-.096-.23-.04-.402.089-.56.128-.157.478-.505.397-.652-.08-.148-.361-.04-.447-.116-.086-.076-.324-.299.117-.702z" id="Stroke-9810" stroke="#000" stroke-width=".323" mask="url(#mask-2)"/><path d="M21.258 7.15a2.19 2.19 0 01-.423.209c-.197.07-.45.13-.765.13v-.04c.309 0 .558-.058.751-.128.193-.07.331-.153.415-.205l.022.034" id="Fill-9811" fill="#000" mask="url(#mask-2)"/><path d="M20.163 7.568l.237.23.027.026-.036.007c-.002 0-.555.115-1.032-.096a.94.94 0 00.125.229l.026.028-.039.005s-.31.046-.737-.187c-.209-.114-.351-.175-.457-.192a.237.237 0 00-.228.077.228.228 0 00-.05.08.223.223 0 00-.002.131.239.239 0 00.064.106c.018.018.04.03.062.038.045.016.112.002.166-.03a.198.198 0 00.06-.055.108.108 0 00.02-.068c-.002-.035-.024-.074-.076-.116l.025-.03c.062.048.088.098.092.144a.149.149 0 01-.027.092.24.24 0 01-.074.066c-.063.038-.143.054-.199.035a.229.229 0 01-.076-.047.273.273 0 01-.076-.125.26.26 0 01.062-.248.273.273 0 01.263-.089c.11.016.258.08.47.196.33.18.586.19.677.186a1.484 1.484 0 01-.129-.26l-.018-.047.046.023c.404.199.88.144 1.015.122l-.209-.203.028-.028" id="Fill-9812" fill="#000" mask="url(#mask-2)"/><path d="M18.53 8.758a.46.46 0 00.114.205c.07.081.157.156.23.2.042-.044.186-.202.202-.277l.006-.028.024.015c.001 0 .241.143.343.242a1.55 1.55 0 00.031-.332l-.003-.055.038.04s.11.113.165.178a.711.711 0 00.118-.298l.006-.035.027.023c.001 0 .16.135.229.24.036-.07.116-.243.096-.392l.04-.006c.027.206-.118.448-.119.448l-.018.032-.017-.033a1.103 1.103 0 00-.21-.236.715.715 0 01-.137.303l-.016.019-.016-.02a2.466 2.466 0 00-.14-.158c-.003.142-.043.327-.043.328l-.009.043-.027-.035c-.056-.074-.268-.208-.337-.25-.044.106-.214.283-.214.284l-.011.011-.014-.008a1.069 1.069 0 01-.254-.217.487.487 0 01-.124-.227l.04-.004" id="Fill-9813" fill="#000" mask="url(#mask-2)"/><path d="M20.335 8.623c.07.045.134.086.191.129a.84.84 0 01.13.114c.028-.09.097-.342.037-.542l-.01-.038.037.014s.083.029.152.171c.04.081.057.17.074.252a.96.96 0 00.038.155c.04.108.454.487.455.487l-.027.03c-.001-.001-.423-.386-.466-.503a1.023 1.023 0 01-.04-.162 1.001 1.001 0 00-.07-.241.385.385 0 00-.092-.127c.05.25-.06.55-.061.55l-.012.034-.022-.028a.825.825 0 00-.146-.135 3.457 3.457 0 00-.19-.126l.022-.034" id="Fill-9814" fill="#000" mask="url(#mask-2)"/><path d="M21.153 8.142a3.044 3.044 0 00.25.258l-.024.032a1.11 1.11 0 01-.111-.104 4.142 4.142 0 01-.146-.16l.03-.026" id="Fill-9815" fill="#000" mask="url(#mask-2)"/><path d="M19.715 9.423a2.586 2.586 0 01.277.288c.037-.051.128-.187.138-.291l.003-.032.028.017s.17.107.277.205c.026-.058.094-.2.16-.272l.017-.017.015.019s.131.16.272.289c.14.13.423.344.424.345l-.024.032c-.001-.001-.286-.217-.428-.348a3.236 3.236 0 01-.26-.275c-.077.093-.15.269-.15.269l-.012.028-.021-.021a1.866 1.866 0 00-.266-.203.956.956 0 01-.156.3l-.017.022-.015-.021a1.982 1.982 0 00-.147-.169c-.048-.05-.098-.1-.141-.135l.026-.03" id="Fill-9816" fill="#000" mask="url(#mask-2)"/><path d="M15.968 9.184a1.5 1.5 0 01.153.045c.126.04.31.1.596.153.426.08.654.075.655.075h.036l-.02.03-.126.205c.078-.002.262-.004.393.009a1.2 1.2 0 01.148.027.53.53 0 00.17.023c.024-.004.037-.02.03-.058a.81.81 0 00-.1-.26.471.471 0 00-.155-.169l.02-.035c.066.04.125.107.17.184.053.087.09.188.105.274.012.066-.014.095-.063.104-.046.008-.114-.008-.186-.024a1.21 1.21 0 00-.143-.026 3.697 3.697 0 00-.425-.008l-.038.001.02-.031.128-.206a4.049 4.049 0 01-.627-.076 4.469 4.469 0 01-.6-.154 1.653 1.653 0 00-.15-.044l.009-.039" id="Fill-9817" fill="#000" mask="url(#mask-2)"/><path d="M18.765 9.565c.07.167.285.343.342.387a.76.76 0 00.169-.285l.007-.022.021.01c.001 0 .261.125.387.457a.567.567 0 00.098-.15l.012-.035.023.03s.18.231.583.426a.851.851 0 00.065-.22h.04c-.003.088-.076.255-.076.255l-.009.019-.018-.009a1.862 1.862 0 01-.595-.422.844.844 0 01-.116.158l-.023.025-.01-.032a.836.836 0 00-.358-.455c-.062.177-.184.29-.184.29l-.013.012-.013-.01c-.001 0-.284-.211-.37-.414l.038-.015" id="Fill-9818" fill="#000" mask="url(#mask-2)"/><path d="M20.651 10.309c.091.09.232.178.403.235.143.048.307.073.482.06l.003.04c-.18.013-.35-.013-.498-.062a1.104 1.104 0 01-.418-.244l.028-.03" id="Fill-9819" fill="#000" mask="url(#mask-2)"/><path d="M21.352 10.614c.037.054.112.144.23.232.082.062.184.123.309.173l.047.018-.047.019s-.29.117-.607.051a1.5 1.5 0 00-.04.44l.002.025-.025-.003s-.376-.045-.692-.207c-.048.062-.258.316-.488.382l-.02.006-.005-.02c0-.002-.07-.321-.158-.483a1.083 1.083 0 01-.089-.207.735.735 0 01-.032-.148.473.473 0 00-.146.296c-.042.264-.161.342-.162.343l-.022.014-.008-.025s-.048-.147-.139-.242a.43.43 0 01-.094-.147c-.051.133-.188.448-.358.513l-.023.009-.004-.025s-.029-.187-.095-.377a.705.705 0 01-.257.398c-.23.166-.283.19-.283.19l-.038.016.01-.04s.07-.25-.007-.366a.329.329 0 01-.053-.216c-.08.042-.27.132-.446.126l-.041-.001.026-.032s.157-.187.157-.302c0-.13.106-.243.106-.243l.03.027a.359.359 0 00-.096.216c0 .097-.093.233-.14.295.205-.01.42-.14.421-.14l.045-.027-.016.05s-.034.11.04.225c.065.097.04.271.024.353.037-.023.108-.07.238-.163a.688.688 0 00.254-.441l.01-.078.028.072c.07.172.107.358.118.426.187-.102.333-.536.334-.537l.028-.084.01.088s.011.094.1.187c.074.076.12.18.139.23a.555.555 0 00.124-.298c.042-.265.194-.346.194-.346l.031-.016v.034c-.001.038.008.1.031.175.019.06.047.128.086.199.078.142.14.396.158.471.24-.082.456-.374.456-.374l.01-.014.016.008c.266.14.579.194.668.207a1.68 1.68 0 01.05-.447l.004-.02.02.005a1.1 1.1 0 00.553-.028 1.34 1.34 0 01-.27-.158 1.078 1.078 0 01-.24-.242l.034-.022" id="Fill-9820" fill="#000" mask="url(#mask-2)"/><path d="M18.165 10.187c.01.11.083.292.111.36.054-.05.193-.192.233-.314l.013-.04.023.036s.08.124.095.363c.073-.056.254-.208.318-.35l.011-.025.02.017c.001.001.221.182.348.433a.881.881 0 00.097-.353l.003-.026.024.009s.341.123.563.4a1.47 1.47 0 00.053-.478l.04-.002c.015.317-.067.528-.067.528l-.013.035-.022-.03a1.36 1.36 0 00-.544-.406c-.036.281-.122.375-.123.375l-.02.024-.013-.029a1.45 1.45 0 00-.332-.433c-.096.182-.348.365-.349.366l-.03.023-.002-.038a.903.903 0 00-.072-.345c-.07.15-.246.308-.247.309l-.02.018-.012-.025s-.113-.255-.127-.399l.041-.003" id="Fill-9821" fill="#000" mask="url(#mask-2)"/><path d="M20.55 13.208c.025.64-.583 1.902-.585 1.905l-.037-.017c.002-.004.607-1.257.582-1.886l.04-.002" id="Fill-9822" fill="#000" mask="url(#mask-2)"/><path d="M17.974 13.916c-.055.146-.092.472-.084.792.005.259.04.512.114.66l-.035.018c-.079-.154-.114-.414-.12-.678-.007-.324.03-.656.087-.806l.038.014" id="Fill-9823" fill="#000" mask="url(#mask-2)"/><path d="M16.084 13.531c.062.175.276.568.529.9.173.227.365.424.538.5l-.016.037c-.18-.08-.377-.281-.555-.514-.255-.334-.47-.732-.534-.91l.038-.013" id="Fill-9824" fill="#000" mask="url(#mask-2)"/><path d="M23.059 14.112c.072.002.143.002.213.002.341 0 .65 0 .955.263.12.103.232.212.345.32.229.222.456.442.728.597l-.02.035c-.276-.158-.505-.38-.737-.603a8.65 8.65 0 00-.342-.319c-.295-.253-.596-.253-.93-.253-.07 0-.14 0-.214-.002l.002-.04" id="Fill-9825" fill="#000" mask="url(#mask-2)"/><path d="M13.57 11.462a.372.372 0 01.119.132.229.229 0 01.024.15c-.01.05-.036.068-.059.085-.019.014-.036.026-.033.069.003.042.04.076.11.1.074.026.183.04.326.04.113 0 .208-.012.28-.032a.385.385 0 00.116-.047c.022-.016.034-.03.034-.044v-.007c-.008-.027-.032-.05-.057-.073-.033-.03-.065-.06-.065-.11 0-.041.023-.102.059-.158a.424.424 0 01.12-.13l.022.033a.378.378 0 00-.109.118.303.303 0 00-.052.138c0 .03.027.055.053.08a.206.206 0 01.067.092.07.07 0 01.002.017c0 .027-.017.054-.051.077a.422.422 0 01-.129.054c-.075.02-.173.032-.29.032a1.09 1.09 0 01-.34-.042c-.087-.03-.132-.076-.136-.135-.004-.065.022-.083.05-.103a.094.094 0 00.042-.061.19.19 0 00-.02-.125.326.326 0 00-.106-.118l.023-.032" id="Fill-9826" fill="#000" mask="url(#mask-2)"/><path d="M13.594 12.416c.105.004.333.012.573.002.239-.012.49-.041.643-.111l.017.036c-.16.072-.416.103-.659.114-.241.012-.47.004-.576 0l.002-.04" id="Fill-9827" fill="#000" mask="url(#mask-2)"/><path d="M13.768 13.785c.063.002.166.016.26.037.077.019.15.041.193.067l-.022.035a.697.697 0 00-.18-.062 1.48 1.48 0 00-.253-.037l.002-.04" id="Fill-9828" fill="#000" mask="url(#mask-2)"/><path d="M13.657 13.429c.084 0 .243.023.388.055a.993.993 0 01.287.095.238.238 0 01.082.123.216.216 0 01-.003.149l-.036-.018a.183.183 0 00.001-.12.2.2 0 00-.067-.102.962.962 0 00-.273-.087 2.062 2.062 0 00-.38-.055v-.04" id="Fill-9829" fill="#000" mask="url(#mask-2)"/><path d="M13.61 13.094c.074.005.265.03.437.067.117.027.226.057.283.092a.184.184 0 01.071.07.19.19 0 01.022.107.23.23 0 01-.033.101.198.198 0 01-.071.071l-.02-.034a.151.151 0 00.056-.057.19.19 0 00.028-.084.148.148 0 00-.017-.084.148.148 0 00-.056-.056 1.075 1.075 0 00-.272-.086 3.467 3.467 0 00-.43-.067l.002-.04" id="Fill-9830" fill="#000" mask="url(#mask-2)"/><path d="M13.597 12.688c.091.018.257.064.411.115.124.042.243.086.308.124a.181.181 0 01.072.072c.022.04.028.085.024.128a.275.275 0 01-.034.113.122.122 0 01-.045.048l-.02-.035a.094.094 0 00.03-.033.232.232 0 00.03-.096.178.178 0 00-.02-.106.142.142 0 00-.057-.056 1.912 1.912 0 00-.3-.12 3.76 3.76 0 00-.407-.114l.008-.04" id="Fill-9831" fill="#000" mask="url(#mask-2)"/><path d="M13.922 12.425c.11.03.226.073.32.12a.66.66 0 01.164.108c.041.041.061.084.05.127a.084.084 0 01-.007.017c-.066.13-.167.151-.168.151l-.008-.038s.082-.018.14-.13l.003-.012c.008-.026-.008-.056-.039-.087a.62.62 0 00-.153-.1 1.785 1.785 0 00-.313-.118l.011-.038" id="Fill-9832" fill="#000" mask="url(#mask-2)"/><path d="M14.624 13.8a.627.627 0 00.139-.147c.02-.034.03-.066.014-.09l-.01-.014a.073.073 0 00-.059-.02.187.187 0 00-.085.032.353.353 0 00-.068.053c-.098.094-.139.142-.139.142l-.03-.025s.042-.05.141-.146a.396.396 0 01.075-.058.224.224 0 01.104-.038.111.111 0 01.105.053c.025.04.014.085-.013.132a.69.69 0 01-.149.158l-.025-.031" id="Fill-9833" fill="#000" mask="url(#mask-2)"/><path d="M14.706 13.497a1.01 1.01 0 00.097-.31.15.15 0 00-.001-.053c-.002-.005-.002-.007-.003-.006-.006 0-.016.005-.03.017l-.36.318-.027-.03.36-.318c.022-.018.04-.027.055-.028.023-.002.037.012.044.037a.21.21 0 01.002.067 1.09 1.09 0 01-.1.325l-.037-.019" id="Fill-9834" fill="#000" mask="url(#mask-2)"/><path d="M14.759 13.105a.625.625 0 00.033-.153c0-.035-.01-.061-.038-.074-.06-.028-.343.246-.344.247l-.028-.028c.001 0 .302-.295.39-.255.045.02.06.06.06.11a.66.66 0 01-.035.165l-.038-.012" id="Fill-9835" fill="#000" mask="url(#mask-2)"/><path d="M14.72 12.849a.556.556 0 00.056-.15.175.175 0 00-.003-.102c-.019-.04-.32.177-.321.178l-.024-.032s.342-.248.381-.162a.204.204 0 01.007.126.579.579 0 01-.06.16l-.035-.018" id="Fill-9836" fill="#000" mask="url(#mask-2)"/><path d="M10.44 2.73l.02.235s-.265.39-.107.64c.158.25.414.312.658.382.243.07.66.147.825.402.164.254.193.299.224.294.03-.004-.011-.321-.04-.436-.029-.115-.126-.438-.13-.618-.011-.46-.127-.891-.45-1.004-.155-.055-.355-.048-.62.089l-.38.015z" id="Fill-9837" fill="#FFC703" mask="url(#mask-2)"/><path d="M10.44 2.73l.02.235s-.265.39-.107.64c.158.25.414.312.658.382.243.07.66.147.825.402.164.254.193.299.224.294.03-.004-.011-.321-.04-.436-.029-.115-.126-.438-.13-.618-.011-.46-.127-.891-.45-1.004-.155-.055-.355-.048-.62.089l-.38.015z" id="Stroke-9838" stroke="#000" stroke-width=".228" mask="url(#mask-2)"/><path d="M10.44 20.974l.02-.234s-.265-.392-.107-.641c.158-.25.414-.312.658-.382.243-.07.66-.148.825-.401.164-.254.193-.3.224-.295.03.004-.011.321-.04.436-.029.114-.126.437-.13.618-.011.46-.127.891-.45 1.004-.155.054-.355.048-.62-.089l-.38-.016z" id="Fill-9839" fill="#FFC703" mask="url(#mask-2)"/><path d="M10.44 20.974l.02-.234s-.265-.392-.107-.641c.158-.25.414-.312.658-.382.243-.07.66-.148.825-.401.164-.254.193-.3.224-.295.03.004-.011.321-.04.436-.029.114-.126.437-.13.618-.011.46-.127.891-.45 1.004-.155.054-.355.048-.62-.089l-.38-.016z" id="Stroke-9840" stroke="#000" stroke-width=".228" mask="url(#mask-2)"/></g></g></svg>