<svg width="24" height="24" xmlns="http://www.w3.org/2000/svg" xmlns:xlink="http://www.w3.org/1999/xlink"><defs><path d="M23.993 11.962c0 6.553-5.354 11.866-11.958 11.866-6.605 0-11.96-5.313-11.96-11.866S5.43.096 12.036.096c6.604 0 11.958 5.313 11.958 11.866" id="path-1"/></defs><g id="Page-1" stroke="none" stroke-width="1" fill="none" fill-rule="evenodd"><g id="Танзания"><mask id="mask-2" fill="#fff"><use xlink:href="#path-1"/></mask><path id="Fill-9910" fill="#47B71D" mask="url(#mask-2)" d="M20.918.096H-5.904V17.84L20.918.096"/><path id="Fill-9912" fill="#49A9F6" mask="url(#mask-2)" d="M3.15 23.828h26.822V6.085L3.151 23.828"/><path d="M-5.904 17.839L20.918.096h2.587L-5.904 19.55v-1.71zM29.972 4.374v1.712L3.151 23.828H.564L29.972 4.374z" id="Fill-9913" fill="#FFD80F" mask="url(#mask-2)"/><path id="Fill-9914" fill="#000" mask="url(#mask-2)" d="M-5.904 19.55L23.505.096h6.467v4.278L.564 23.828h-6.468V19.55"/></g></g></svg>