<svg width="24" height="24" xmlns="http://www.w3.org/2000/svg" xmlns:xlink="http://www.w3.org/1999/xlink"><defs><path d="M23.931 11.961c0 6.604-5.354 11.959-11.959 11.959C5.368 23.92.014 18.565.014 11.96.014 5.357 5.368.003 11.972.003c6.605 0 11.959 5.354 11.959 11.958z" id="path-1"/></defs><g id="Page-1" stroke="none" stroke-width="1" fill="none" fill-rule="evenodd"><g id="Тунис"><mask id="mask-2" fill="#fff"><use xlink:href="#path-1"/></mask><path d="M-5.965 23.92H29.91V.003H-5.965V23.92zM11.972 5.982a5.98 5.98 0 100 11.958 5.98 5.98 0 000-11.958zm0 1.495c1.49 0 2.81.727 3.626 1.845a3.587 3.587 0 100 5.28 4.484 4.484 0 11-3.626-7.124zm.365 1.925l1.149 1.582 1.859-.604-1.149 1.581 1.149 1.582-1.86-.604-1.148 1.581v-1.954l-1.86-.605 1.86-.604V9.402z" id="Fill-9943" fill="#FF1612" mask="url(#mask-2)"/><path d="M11.972 5.982a5.98 5.98 0 100 11.958 5.98 5.98 0 000-11.958zm0 1.495c1.49 0 2.81.727 3.626 1.845a3.587 3.587 0 100 5.28 4.484 4.484 0 11-3.626-7.124zm.365 1.925l1.149 1.582 1.859-.604-1.149 1.581 1.149 1.582-1.86-.604-1.148 1.581v-1.954l-1.86-.605 1.86-.604V9.402z" id="Fill-9945" fill="#FFF" mask="url(#mask-2)"/></g></g></svg>