<svg width="24" height="24" xmlns="http://www.w3.org/2000/svg" xmlns:xlink="http://www.w3.org/1999/xlink"><defs><path d="M23.87 11.961c0 6.604-5.314 11.959-11.866 11.959C5.45 23.92.138 18.565.138 11.96.138 5.357 5.45.003 12.004.003c6.552 0 11.866 5.354 11.866 11.958z" id="path-1"/></defs><g id="Page-1" stroke="none" stroke-width="1" fill="none" fill-rule="evenodd"><g id="Турция"><mask id="mask-2" fill="#fff"><use xlink:href="#path-1"/></mask><path id="Fill-9947" fill="#FF1612" mask="url(#mask-2)" d="M-2.829 23.92h35.597V.003H-2.829z"/><path d="M8.95 5.7a6.196 6.196 0 015.166 2.782 5 5 0 00-3.581-1.5c-2.767 0-5.01 2.23-5.01 4.983 0 2.752 2.243 4.983 5.01 4.983a5.005 5.005 0 003.582-1.501 6.198 6.198 0 01-5.167 2.782c-3.433 0-6.216-2.805-6.216-6.264 0-3.46 2.783-6.264 6.216-6.264zm7.447 3.283l1.282 1.821 2.113-.675-1.322 1.792 1.29 1.816-2.1-.713-1.316 1.796.024-2.232-2.101-.705 2.114-.667.016-2.233z" id="Fill-9949" fill="#FFF" mask="url(#mask-2)"/></g></g></svg>