<svg width="21" height="16" viewBox="0 0 21 16" fill="none" xmlns="http://www.w3.org/2000/svg">
<path d="M14.4011 0.633671C11.5021 0.633671 9.1431 2.97586 9.1431 5.85505C9.1431 9.33931 13.1282 13.4862 14.3497 14.6738C14.3835 14.7063 14.4157 14.7068 14.4515 14.6728C15.6716 13.4867 19.6571 9.34232 19.6571 5.85505C19.6571 2.97586 17.2991 0.633671 14.4011 0.633671ZM14.4001 15.3264C14.2127 15.3264 14.0369 15.2559 13.9044 15.1277C12.2804 13.5483 8.50537 9.48495 8.50537 5.85505C8.50537 2.62653 11.15 7.82013e-05 14.4011 7.82013e-05C17.6507 7.82013e-05 20.2949 2.62653 20.2949 5.85505C20.2949 9.48745 16.5198 13.5493 14.8963 15.1267C14.7628 15.2558 14.587 15.3264 14.4001 15.3264Z" fill="#2978BE"/>
<path d="M14.4845 4.83878C13.9488 4.83878 13.5129 5.27458 13.5129 5.81015C13.5129 6.34621 13.9488 6.78201 14.4845 6.78201C15.0203 6.78201 15.4557 6.34621 15.4557 5.81015C15.4557 5.27458 15.0203 4.83878 14.4845 4.83878ZM14.4845 7.4104C13.6022 7.4104 12.8843 6.69217 12.8843 5.81015C12.8843 4.92813 13.6022 4.2104 14.4845 4.2104C15.3668 4.2104 16.0843 4.92813 16.0843 5.81015C16.0843 6.69217 15.3668 7.4104 14.4845 7.4104Z" fill="#2978BE"/>
<path d="M14.6221 8.29102H13.6868L12.6059 5.03195C12.4764 4.64234 12.11 4.37893 11.6968 4.37893H4.13542C3.7222 4.37893 3.35585 4.64234 3.22685 5.03195L2.14542 8.29102H1.20963C0.681522 8.29102 0.252686 8.71668 0.252686 9.24199V10.562C0.252686 10.9767 0.523294 11.3438 0.921394 11.469L1.20863 11.5591V15.049C1.20863 15.5743 1.63747 16 2.16558 16H4.42769C4.89483 16 5.29394 15.6645 5.37154 15.2063L5.48392 14.5402H10.3483L10.4607 15.2063C10.5378 15.6645 10.9369 16 11.4045 16H13.6661C14.1947 16 14.6231 15.5743 14.6231 15.049V11.5611L14.9174 11.4665C15.3119 11.3393 15.579 10.9742 15.579 10.562V9.24199C15.579 8.71668 15.1507 8.29102 14.6221 8.29102Z" fill="white"/>
<path d="M14.2708 10.3307L13.5393 10.5657C13.5393 10.5657 13.5393 10.5657 13.5388 10.5657L11.3453 11.2471C11.213 11.2883 11.1227 11.4095 11.1227 11.5472V12.5053C11.1227 12.6787 11.2646 12.8194 11.4401 12.8194H13.3197V14.6973H11.6557L11.5168 13.8778H11.9585C12.134 13.8778 12.2758 13.7372 12.2758 13.5633C12.2758 13.3894 12.134 13.2487 11.9585 13.2487H11.1418H4.69074H3.87352C3.69854 13.2487 3.55616 13.3894 3.55616 13.5633C3.55616 13.7372 3.69854 13.8778 3.87352 13.8778H4.31572L4.17684 14.6973H2.51232V12.8194H4.39243C4.5674 12.8194 4.70979 12.6787 4.70979 12.5053V11.5472C4.70979 11.41 4.62005 11.2888 4.48819 11.2475L2.29072 10.5578L1.56124 10.3287V9.56392H2.86378C3.00065 9.56392 3.12198 9.47696 3.16509 9.34825L4.38441 5.68184H11.4481L12.6674 9.34825C12.7105 9.47696 12.8318 9.56392 12.9692 9.56392H14.2708V10.3307ZM13.3197 12.1907H11.7574V11.7783L13.3197 11.2933V12.1907ZM4.07506 11.7778V12.1907H2.51232V11.2868L4.07506 11.7778ZM14.5881 8.9348H13.1988L11.9795 5.26839C11.9364 5.13968 11.8151 5.05272 11.6777 5.05272H4.15478C4.01791 5.05272 3.89608 5.13968 3.85346 5.26839L2.63415 8.9348H1.24387C1.0689 8.9348 0.926514 9.07543 0.926514 9.24936V10.5593C0.926514 10.6964 1.01626 10.8182 1.14812 10.8589L1.8776 11.088V12.5053V15.0119C1.8776 15.1858 2.01998 15.3264 2.19496 15.3264H4.44557C4.60049 15.3264 4.73285 15.2156 4.75842 15.064L4.95896 13.8778H10.873L11.0741 15.064C11.0996 15.2156 11.232 15.3264 11.3869 15.3264H13.637C13.8125 15.3264 13.9544 15.1858 13.9544 15.0119V12.5053V11.0935L14.6859 10.8584C14.8167 10.8162 14.9055 10.6955 14.9055 10.5593V9.24936C14.9055 9.07543 14.7636 8.9348 14.5881 8.9348Z" fill="#2978BE"/>
<path d="M4.86995 8.80713L5.45251 6.85615H10.3791L10.9617 8.80713H4.86995ZM10.9229 6.45609C10.8832 6.3229 10.7589 6.23164 10.6176 6.23164H5.21406C5.07269 6.23164 4.94843 6.3229 4.90869 6.45609L4.13899 9.03158C4.11081 9.12629 4.12993 9.2284 4.1898 9.30684C4.25016 9.38527 4.34424 9.43164 4.44485 9.43164H11.3868C11.4874 9.43164 11.5815 9.38527 11.6418 9.30684C11.7017 9.2284 11.7203 9.12629 11.6926 9.03158L10.9229 6.45609Z" fill="#2978BE"/>
<path d="M9.88716 12.1995H5.94473V11.8853H9.88716V12.1995ZM10.2068 11.2843H5.62508C5.44833 11.2843 5.30542 11.4186 5.30542 11.5848V12.5C5.30542 12.6657 5.44833 12.8 5.62508 12.8H10.2068C10.3836 12.8 10.5265 12.6657 10.5265 12.5V11.5848C10.5265 11.4186 10.3836 11.2843 10.2068 11.2843Z" fill="#2978BE"/>
</svg>
