<svg width="19" height="24" viewBox="0 0 19 24" fill="none" xmlns="http://www.w3.org/2000/svg">
<path d="M9.03704 19.2243V22.8035C7.88219 22.0684 6.90196 21.0451 6.15872 19.8097C7.07951 19.4678 8.04287 19.2705 9.03704 19.2243ZM5.71116 10.0168C6.77503 10.4276 7.88805 10.6602 9.03704 10.7093V14.0377H4.71552C4.77715 12.6328 5.11539 11.261 5.71116 10.0168ZM9.96517 9.7806V6.19844C11.12 6.93057 12.1017 7.95394 12.8472 9.19005C11.9242 9.53558 10.9601 9.73439 9.96517 9.7806ZM9.03704 9.7806C8.04433 9.73439 7.08098 9.53631 6.15872 9.19372C6.89829 7.96274 7.87852 6.93863 9.03704 6.20136V9.7806ZM13.2947 18.991C12.2316 18.5779 11.1171 18.3447 9.96517 18.2955V14.9664H14.2896C14.228 16.3757 13.8898 17.749 13.2947 18.991ZM9.96517 19.2243C10.9608 19.2705 11.9242 19.4693 12.8464 19.8141C12.1017 21.0458 11.12 22.0692 9.96517 22.8042V19.2243ZM14.2896 14.0377H9.96517V10.7093C11.1164 10.6602 12.2316 10.4262 13.2947 10.0132C13.8898 11.2559 14.228 12.6292 14.2896 14.0377ZM4.30098 7.69791C4.4191 7.60695 4.53869 7.51818 4.66122 7.43455C4.7544 7.37072 4.84905 7.30837 4.94444 7.24822C5.06916 7.16972 5.19536 7.09489 5.32302 7.02373C5.42207 6.96871 5.52113 6.91443 5.62164 6.86308C5.75298 6.79632 5.88651 6.73469 6.02077 6.67527C6.12276 6.62979 6.22548 6.58431 6.32967 6.54249C6.46834 6.48747 6.61067 6.43905 6.75228 6.39063C6.85646 6.35542 6.95918 6.31874 7.0641 6.28793C7.21378 6.24392 7.36565 6.20871 7.51753 6.17276C6.64516 6.90636 5.89531 7.80209 5.29734 8.82546C4.81383 8.58924 4.35307 8.31634 3.92459 8.00603C3.96201 7.97301 3.99795 7.9378 4.0361 7.90625C4.12341 7.83436 4.2122 7.76614 4.30098 7.69791ZM4.71552 14.9664H9.03704V18.2955C7.88659 18.3447 6.77283 18.5765 5.71116 18.9866C5.11539 17.7438 4.77715 16.372 4.71552 14.9664ZM14.0666 21.7434C13.9352 21.8271 13.8017 21.9063 13.6652 21.9819C13.5787 22.031 13.4906 22.0794 13.4018 22.1249C13.2522 22.2005 13.101 22.2716 12.9477 22.3391C12.8677 22.3743 12.7877 22.4103 12.707 22.4426C12.5331 22.5123 12.357 22.5746 12.1788 22.6333C12.1135 22.6546 12.0489 22.678 11.9829 22.6986C11.8229 22.7463 11.6608 22.7837 11.4979 22.8226C12.3629 22.0926 13.1084 21.2013 13.7071 20.1838C14.1825 20.4186 14.6403 20.6885 15.0717 20.9966C15.0343 21.0282 14.9991 21.0634 14.961 21.0942C14.8766 21.1646 14.7893 21.2321 14.702 21.2989C14.5824 21.3913 14.4606 21.4815 14.3366 21.5666C14.2471 21.6275 14.1575 21.6862 14.0666 21.7434ZM15.749 20.3452C15.2449 19.9725 14.7086 19.6439 14.1458 19.3651C14.7929 18.005 15.1569 16.5041 15.2185 14.9664H18.0462C17.9391 16.9897 17.1371 18.8692 15.749 20.3452ZM18.0462 14.0377H15.2185C15.1569 12.5008 14.7929 10.9998 14.1458 9.63902C14.7086 9.36098 15.2449 9.03087 15.7497 8.65526C17.1371 10.1349 17.9391 12.0166 18.0462 14.0377ZM11.9476 6.28866C12.0511 6.31947 12.1531 6.35542 12.2551 6.39063C12.3967 6.43832 12.5383 6.48747 12.6777 6.54322C12.7804 6.5843 12.8809 6.62979 12.9814 6.67454C13.1164 6.7347 13.25 6.79632 13.382 6.86381C13.4811 6.91443 13.5787 6.96798 13.6762 7.02226C13.8054 7.09416 13.9316 7.16972 14.057 7.24895C14.1517 7.30837 14.2449 7.36999 14.3373 7.43308C14.4598 7.51744 14.5802 7.60621 14.699 7.69791C14.7878 7.76614 14.8766 7.83436 14.9624 7.90625C15.0006 7.93706 15.0358 7.97228 15.0725 8.00383C14.6418 8.31487 14.1832 8.5863 13.7071 8.81959C13.1062 7.79621 12.3578 6.90122 11.4891 6.17056C11.4913 6.17129 11.4927 6.17128 11.4949 6.17202C11.6468 6.2087 11.7987 6.24465 11.9476 6.28866ZM3.24884 8.65746C3.74923 9.03233 4.2885 9.36392 4.85859 9.64562C4.2122 11.0057 3.84901 12.5045 3.78664 14.0377H0.952347C1.05947 12.0166 1.86141 10.1364 3.24884 8.65746ZM0.952347 14.9664H3.78664C3.84901 16.5004 4.2122 17.9991 4.85859 19.3585C4.28924 19.6395 3.75069 19.9696 3.24884 20.3437C1.86214 18.8692 1.05947 16.9897 0.952347 14.9664ZM7.04503 22.7067C6.94231 22.6766 6.84179 22.6399 6.74054 22.6062C6.5982 22.5577 6.45586 22.5079 6.31572 22.4521C6.21447 22.4118 6.11469 22.3663 6.01417 22.3223C5.87844 22.2614 5.74417 22.199 5.61211 22.1315C5.51379 22.0816 5.41693 22.0281 5.32009 21.9745C5.19095 21.9019 5.0633 21.8263 4.9371 21.7464C4.84392 21.6877 4.75147 21.6268 4.66049 21.5644C4.53649 21.4793 4.41616 21.3898 4.29657 21.2981C4.20926 21.2306 4.12195 21.1639 4.03684 21.0935C3.99869 21.0619 3.96347 21.0274 3.92605 20.9952C4.356 20.6863 4.81603 20.4142 5.29734 20.1787C5.89605 21.2006 6.64369 22.0948 7.51093 22.827C7.508 22.8262 7.50433 22.8255 7.50139 22.8248C7.34805 22.7881 7.19544 22.7514 7.04503 22.7067ZM16.1268 21.3003C16.1276 21.2996 16.1275 21.2989 16.1283 21.2981C17.9757 19.503 18.9949 17.0946 18.9978 14.5138C18.9978 14.5101 19 14.5065 19 14.5021C19 14.4977 18.9978 14.4947 18.9978 14.4903C18.9949 11.911 17.9758 9.49964 16.1268 7.69938C14.3835 5.99669 12.0863 5.04007 9.69884 5.00853C9.57558 4.99606 9.39362 4.999 9.34666 5.00633C8.73842 5.01514 8.13898 5.08116 7.55422 5.2022C5.79993 5.56533 4.17991 6.42218 2.87318 7.69864V7.69938C1.02058 9.50257 0 11.9183 0 14.5021C0 17.0887 1.02058 19.503 2.87318 21.3003C4.60986 22.9972 6.90415 23.9538 9.29676 23.9905C9.29823 23.9905 9.29896 23.9905 9.30043 23.9905C9.31144 23.9905 9.32245 23.9919 9.33419 23.9927C9.33639 23.9927 9.33932 23.9927 9.34152 23.9927C9.34299 23.9927 9.34372 23.9919 9.34445 23.9919C9.34739 23.9919 9.35106 23.9919 9.35473 23.9919C9.35473 23.9919 9.35546 23.9927 9.3562 23.9927C9.40022 23.9949 9.4435 23.9971 9.48753 23.9971C9.49193 23.9971 9.49633 24 9.50147 24C9.50514 24 9.5088 23.9978 9.51321 23.9978C9.57704 23.9978 9.64161 23.9971 9.67169 23.9927C9.97471 23.9875 10.2755 23.9684 10.5741 23.9354C10.9241 23.8958 11.2682 23.832 11.6094 23.755C12.7202 23.5041 13.776 23.0603 14.7262 22.4316C15.2236 22.1029 15.6925 21.7244 16.1268 21.3003Z" fill="#787878"/>
<path d="M9.5 0C6.46728 0 4 2.32181 4 5.17572C4 8.05575 6.792 11.0635 8.46434 12.6069C8.74332 12.8603 9.11154 13 9.5 13C9.89072 13 10.2597 12.8596 10.5432 12.6006C12.208 11.0642 15 8.05646 15 5.17572C15 2.32181 12.5335 0 9.5 0Z" fill="white"/>
<path d="M9.5 1.9195C7.51112 1.9195 5.89225 3.58782 5.89225 5.63745C5.89225 8.0713 8.51895 11.0041 9.5 12.0144C10.4789 11.0077 13.1078 8.07348 13.1078 5.63745C13.1078 3.58782 11.4896 1.9195 9.5 1.9195ZM9.5 13C9.30901 13 9.12788 12.9252 8.99115 12.7886C7.7888 11.5743 5 8.45043 5 5.63745C5 3.08014 7.01919 1 9.5 1C11.9815 1 14 3.08014 14 5.63745C14 8.45188 11.2105 11.5743 10.0117 12.7865C9.87353 12.9245 9.69241 13 9.5 13Z" fill="#787878"/>
<path d="M10 4.79748C9.33732 4.79748 8.79748 5.33669 8.79748 6C8.79748 6.66268 9.33732 7.20252 10 7.20252C10.6633 7.20252 11.2025 6.66268 11.2025 6C11.2025 5.33669 10.6633 4.79748 10 4.79748ZM10 8C8.89764 8 8 7.10299 8 6C8 4.89764 8.89764 4 10 4C11.103 4 12 4.89764 12 6C12 7.10299 11.103 8 10 8Z" fill="#787878"/>
</svg>
