<svg width="16" height="16" viewBox="0 0 16 16" fill="none" xmlns="http://www.w3.org/2000/svg">
<path d="M14.6074 11.7289L10.6074 9.57508C10.4874 9.51077 10.34 9.53231 10.244 9.62862L8.89198 10.9803C7.4532 9.908 6.09197 8.54708 5.01966 7.108L6.37136 5.756C6.46736 5.66 6.4889 5.51231 6.42459 5.39292L4.27074 1.39292C4.19781 1.25692 4.03566 1.19662 3.89289 1.24985L0.911343 2.35785C0.247649 2.57877 -0.133897 3.27108 0.0433342 3.93354C1.51134 9.43846 6.57259 14.4957 12.0778 15.9578C12.1837 15.9858 12.2923 16 12.4006 16C12.9597 16 13.4578 15.6329 13.6366 15.0966L14.7498 12.1071C14.8034 11.9634 14.7428 11.8018 14.6074 11.7289ZM13.0563 14.8917C12.9412 15.2372 12.5732 15.4532 12.236 15.3631C6.93012 13.9538 2.05257 9.08031 0.6378 3.77507C0.544569 3.42615 0.750109 3.06 1.11565 2.93846L3.85597 1.92L5.77412 5.48277L4.39781 6.85939C4.29073 6.96585 4.2775 7.13446 4.36581 7.25692C5.5492 8.89661 7.10366 10.4511 8.74274 11.6342C8.86551 11.7225 9.03413 11.7086 9.1406 11.6022L10.5172 10.2255L14.0797 12.144L13.0563 14.8917ZM7.69228 0C7.52244 0 7.38459 0.137539 7.38459 0.307693C7.38459 0.477846 7.52244 0.615385 7.69228 0.615385C11.9338 0.615385 15.3846 4.06615 15.3846 8.30769C15.3846 8.47785 15.5225 8.61538 15.6923 8.61538C15.8622 8.61538 16 8.47785 16 8.30769C16 3.72677 12.2732 0 7.69228 0ZM7.69228 3.69231C10.2372 3.69262 12.3077 5.76308 12.3077 8.30769C12.3077 8.47785 12.4455 8.61538 12.6154 8.61538C12.7852 8.61538 12.9231 8.47785 12.9231 8.30769C12.9231 5.42369 10.5766 3.07723 7.69228 3.07692C7.52244 3.07692 7.38459 3.21446 7.38459 3.38461C7.38459 3.55446 7.52244 3.69231 7.69228 3.69231ZM7.69228 6.76923C8.54059 6.76954 9.23075 7.45969 9.23075 8.30769C9.23075 8.47785 9.3686 8.61538 9.53844 8.61538C9.70829 8.61538 9.84613 8.47785 9.84613 8.30769C9.84613 7.12031 8.87998 6.15415 7.69228 6.15385C7.52244 6.15385 7.38459 6.29138 7.38459 6.46154C7.38459 6.63138 7.52213 6.76923 7.69228 6.76923Z" fill="#2978BE"/>
</svg>
