<svg width="20" height="17" viewBox="0 0 20 17" fill="none" xmlns="http://www.w3.org/2000/svg">
<path d="M1 4.43994H17.56" stroke="#2978BE" stroke-width="0.7" stroke-linecap="round" stroke-linejoin="round"/>
<path d="M6.75967 8.03992C6.75967 9.6304 6.35683 10.9199 5.85967 10.9199C5.36251 10.9199 4.95967 9.6304 4.95967 8.03992C4.95967 9.6304 4.55683 10.9199 4.05967 10.9199C3.56251 10.9199 3.15967 9.6304 3.15967 8.03992" stroke="#2978BE" stroke-width="0.7" stroke-linecap="round" stroke-linejoin="round"/>
<path d="M11.8002 8.03992C11.8002 9.6304 11.3974 10.9199 10.9002 10.9199C10.403 10.9199 10.0002 9.6304 10.0002 8.03992C10.0002 9.6304 9.59736 10.9199 9.1002 10.9199C8.60304 10.9199 8.2002 9.6304 8.2002 8.03992" stroke="#2978BE" stroke-width="0.7" stroke-linecap="round" stroke-linejoin="round"/>
<path d="M16.8402 8.03992C16.8402 9.6304 16.4374 10.9199 15.9402 10.9199C15.4431 10.9199 15.0402 9.6304 15.0402 8.03992C15.0402 9.6304 14.6374 10.9199 14.1402 10.9199C13.6431 10.9199 13.2402 9.6304 13.2402 8.03992" stroke="#2978BE" stroke-width="0.7" stroke-linecap="round" stroke-linejoin="round"/>
<path d="M16.84 15.9602H3.16C1.96732 15.9602 1 14.9929 1 13.8002V3.00021C1 1.80753 1.96732 0.840206 3.16 0.840206H16.84C18.033 0.840206 19 1.80753 19 3.00021V13.8002C19 14.9929 18.033 15.9602 16.84 15.9602Z" stroke="#2978BE" stroke-width="0.7" stroke-linejoin="round"/>
</svg>
