<svg width="27" height="26" viewBox="0 0 27 26" fill="none" xmlns="http://www.w3.org/2000/svg">
<path d="M22.3433 16.8787L21.5408 15.0804C21.2914 14.3334 20.5926 13.8298 19.8054 13.8298H16.2455H12.6857C11.8984 13.8298 11.1993 14.3334 10.9502 15.0804L10.1477 16.8787" stroke="#49494A" stroke-miterlimit="10"/>
<path d="M13.1968 21.7566H19.2946" stroke="#49494A" stroke-miterlimit="10"/>
<path d="M25.3924 16.2686H23.5631C23.3594 16.2686 21.7148 18.0979 20.5142 18.0979H11.9773C10.7768 18.0979 9.13228 16.2686 8.92837 16.2686H7.09904C6.76226 16.2686 6.48926 16.5418 6.48926 16.8784V17.6979C6.48926 18.0345 6.76226 18.3077 7.09904 18.3077L8.31859 18.7077V19.3175C7.92821 19.7078 7.70881 20.2376 7.70881 20.7895V21.7566C7.70881 22.2963 7.94675 22.7762 8.31859 23.1109V24.8055C8.31859 25.1421 8.59159 25.4153 8.92837 25.4153H11.3675C11.7043 25.4153 11.9773 25.1421 11.9773 24.8055V23.5859H20.5142V24.8055C20.5142 25.1421 20.7873 25.4153 21.1239 25.4153H23.5631C23.8997 25.4153 24.1728 25.1421 24.1728 24.8055V23.1109C24.5448 22.7762 24.7826 22.2963 24.7826 21.7566V20.7895C24.7826 20.2376 24.5631 19.7078 24.1728 19.3175V18.7077L25.3924 18.3077C25.729 18.3077 26.0022 18.0345 26.0022 17.6979V16.8784C26.0022 16.5418 25.729 16.2686 25.3924 16.2686Z" stroke="#49494A" stroke-miterlimit="10"/>
<path d="M22.7017 19.5495C21.9523 20.1849 20.8937 20.5374 19.9041 20.5374" stroke="#49494A" stroke-miterlimit="10"/>
<path d="M9.78955 19.5495C10.5389 20.1849 11.597 20.5374 12.5869 20.5374" stroke="#49494A" stroke-miterlimit="10"/>
<path d="M11.9772 23.5862H9.53809" stroke="#49494A" stroke-miterlimit="10"/>
<path d="M22.953 23.5862H20.5139" stroke="#49494A" stroke-miterlimit="10"/>
<path d="M9.85376 5.33716L11.0073 4.52754" stroke="#49494A" stroke-miterlimit="10" stroke-linecap="round" stroke-linejoin="round"/>
<path d="M14.0054 11.2546L15.1588 10.4454" stroke="#49494A" stroke-miterlimit="10" stroke-linecap="round" stroke-linejoin="round"/>
<path d="M11.93 5.84255L10.1188 7.11327L12.4253 10.401L14.2567 9.11576" stroke="#49494A" stroke-miterlimit="10" stroke-linecap="round" stroke-linejoin="round"/>
<path d="M16.0415 7.86363L17.0278 7.17171L14.7212 3.8844L13.735 4.57592" stroke="#49494A" stroke-miterlimit="10" stroke-linecap="round" stroke-linejoin="round"/>
<path d="M13.0827 9.93995L14.0055 11.2547C13.6423 11.5096 13.5544 12.0104 13.8092 12.3737C14.0637 12.7368 14.565 12.8247 14.9278 12.5698L18.2155 10.2633C18.5786 10.0089 18.6666 9.50758 18.4117 9.14435C18.1569 8.78111 17.6565 8.69334 17.2932 8.94817L16.3705 7.6334" stroke="#49494A" stroke-miterlimit="10" stroke-linecap="round" stroke-linejoin="round"/>
<path d="M10.7761 6.65207L9.85384 5.33696C9.49061 5.59179 8.98974 5.50395 8.73491 5.14071C8.48008 4.77748 8.56792 4.2766 8.93116 4.02177L12.2185 1.71515C12.5816 1.46073 13.0825 1.54858 13.3378 1.91147C13.5922 2.27505 13.5044 2.77551 13.1416 3.03041L14.0638 4.34553" stroke="#49494A" stroke-miterlimit="10" stroke-linecap="round" stroke-linejoin="round"/>
<path d="M9.64612 8.57316C9.36181 8.77263 9.50041 9.11719 9.50041 9.11719C9.50041 9.11719 3.06479 13.0434 1.72313 13.9846C1.27706 14.2976 0.948087 15.0188 1.40919 15.6766C1.87078 16.334 2.66092 16.2701 3.10707 15.9567C4.44865 15.0159 10.3306 10.3005 10.3306 10.3005C10.3306 10.3005 10.607 10.548 10.8917 10.3486" stroke="#49494A" stroke-miterlimit="10" stroke-linecap="round" stroke-linejoin="round"/>
<path d="M25.2738 12.0078L24.0227 11.7883" stroke="#49494A" stroke-miterlimit="10" stroke-linecap="round" stroke-linejoin="round"/>
<path d="M25.0139 9.81259L23.6165 10.4272" stroke="#49494A" stroke-miterlimit="10" stroke-linecap="round" stroke-linejoin="round"/>
<path d="M24.2824 13.9831L23.1775 12.9296" stroke="#49494A" stroke-miterlimit="10" stroke-linecap="round" stroke-linejoin="round"/>
</svg>
